<svg width="153" height="43" viewBox="0 0 153 43" fill="none" xmlns="http://www.w3.org/2000/svg">
<path fill-rule="evenodd" clip-rule="evenodd" d="M17.8092 22.5732V19.6381C17.8092 18.283 18.8863 17.1801 20.2106 17.1801C21.5354 17.1801 22.6126 18.283 22.6126 19.6381V22.5732H17.8092ZM20.2106 13.6035C17.1292 13.6035 14.5956 16.0368 14.3393 19.1236C14.3276 19.2089 14.314 19.2936 14.314 19.3821V27.6086C14.314 28.5958 15.0965 29.3966 16.0619 29.3966C17.0266 29.3966 17.8092 28.5958 17.8092 27.6086V26.1498H22.6126V27.6086C22.6126 28.5958 23.3945 29.3966 24.3599 29.3966C25.3253 29.3966 26.1078 28.5958 26.1078 27.6086V19.3821C26.1078 19.2936 26.0942 19.2089 26.0819 19.1236C25.8256 16.0368 23.2926 13.6035 20.2106 13.6035Z" fill="#4B4F54"/>
<path fill-rule="evenodd" clip-rule="evenodd" d="M20.5795 39.2225C11.2884 39.2225 3.73009 31.2726 3.73009 21.5003C3.73009 11.728 11.2884 3.7782 20.5795 3.7782C29.8705 3.7782 37.4289 11.728 37.4289 21.5003C37.4289 31.2726 29.8705 39.2225 20.5795 39.2225ZM20.5788 0.179688C9.40146 0.179688 0.308105 9.74405 0.308105 21.5003C0.308105 33.2566 9.40146 42.8209 20.5788 42.8209C31.7561 42.8209 40.8494 33.2566 40.8494 21.5003C40.8494 9.74405 31.7561 0.179688 20.5788 0.179688Z" fill="#4B4F54"/>
<path fill-rule="evenodd" clip-rule="evenodd" d="M59.8249 22.5732V19.6381C59.8249 18.283 60.9021 17.1801 62.2263 17.1801C63.5512 17.1801 64.6283 18.283 64.6283 19.6381V22.5732H59.8249ZM62.2262 13.6035C59.1448 13.6035 56.6112 16.0368 56.3549 19.1236C56.3432 19.2089 56.3296 19.2936 56.3296 19.3821V27.6086C56.3296 28.5958 57.1121 29.3966 58.0775 29.3966C59.0423 29.3966 59.8248 28.5958 59.8248 27.6086V26.1498H64.6282V27.6086C64.6282 28.5958 65.4102 29.3966 66.3755 29.3966C67.3409 29.3966 68.1235 28.5958 68.1235 27.6086V19.3821C68.1235 19.2936 68.1099 19.2089 68.0975 19.1236C67.8412 16.0368 65.3082 13.6035 62.2262 13.6035Z" fill="#4B4F54"/>
<path fill-rule="evenodd" clip-rule="evenodd" d="M96.9272 13.6035C95.3254 13.6035 93.8736 14.2735 92.817 15.3555C91.761 14.2735 90.3086 13.6035 88.7069 13.6035C85.6546 13.6035 83.1456 16.0362 82.8911 19.1236C82.8794 19.2083 82.866 19.2936 82.866 19.3821V27.6079C82.866 28.5958 83.6411 29.3966 84.5974 29.3966C85.5536 29.3966 86.3282 28.5958 86.3282 27.6079V19.6375C86.3282 18.2824 87.3952 17.1801 88.7069 17.1801C90.0192 17.1801 91.0862 18.2824 91.0862 19.6375V24.0313C91.0862 25.0192 91.8608 25.8199 92.817 25.8199C93.7733 25.8199 94.5484 25.0192 94.5484 24.0313V19.6375C94.5484 18.2824 95.6154 17.1801 96.9272 17.1801C98.2389 17.1801 99.3059 18.2824 99.3059 19.6375V27.6079C99.3059 28.5958 100.081 29.3966 101.037 29.3966C101.994 29.3966 102.768 28.5958 102.768 27.6079V19.3821C102.768 19.2936 102.755 19.2083 102.743 19.1236C102.489 16.0362 99.9801 13.6035 96.9272 13.6035" fill="#4B4F54"/>
<path fill-rule="evenodd" clip-rule="evenodd" d="M80.5328 23.9738C79.7112 23.4822 78.6588 23.7729 78.1836 24.6217C77.7619 25.3752 76.9775 25.8435 76.1359 25.8435C74.8331 25.8435 73.7734 24.7479 73.7734 23.4018V19.6014C73.7734 19.6002 73.774 19.5989 73.774 19.5976C73.774 18.2515 74.8337 17.1565 76.1365 17.1565C76.9228 17.1565 77.6556 17.5596 78.0967 18.2339C78.4291 18.7425 78.9711 19.0162 79.5229 19.0162C79.854 19.0162 80.1888 18.9177 80.4841 18.7117C81.271 18.1624 81.4776 17.058 80.946 16.2449C79.8644 14.5911 78.0663 13.6035 76.1365 13.6035C73.125 13.6035 70.644 15.9875 70.3633 19.0244C70.3481 19.1198 70.3347 19.2159 70.3347 19.3164V23.9349C70.3347 24.1452 70.3766 24.3448 70.4417 24.5319C70.9551 27.2983 73.3116 29.3966 76.1359 29.3966C78.2 29.3966 80.1256 28.2488 81.1598 26.4011C81.6356 25.5516 81.3549 24.4654 80.5328 23.9738" fill="#4B4F54"/>
<path fill-rule="evenodd" clip-rule="evenodd" d="M138.028 23.9738C137.206 23.4815 136.154 23.7729 135.679 24.6217C135.257 25.3752 134.473 25.8435 133.631 25.8435C132.328 25.8435 131.268 24.7479 131.268 23.4018V19.6014C131.268 19.6002 131.269 19.5989 131.269 19.5976C131.269 18.2515 132.329 17.1565 133.632 17.1565C134.418 17.1565 135.15 17.5596 135.592 18.2339C135.924 18.7425 136.466 19.0162 137.018 19.0162C137.349 19.0162 137.684 18.9177 137.979 18.7117C138.766 18.1624 138.973 17.058 138.441 16.2449C137.359 14.5911 135.561 13.6035 133.632 13.6035C130.62 13.6035 128.139 15.9875 127.858 19.0244C127.843 19.1198 127.83 19.2159 127.83 19.3164V23.9349C127.83 24.1452 127.872 24.3448 127.937 24.5319C128.45 27.2983 130.807 29.3966 133.631 29.3966C135.695 29.3966 137.621 28.2488 138.655 26.4011C139.131 25.5516 138.85 24.4654 138.028 23.9738" fill="#4B4F54"/>
<path fill-rule="evenodd" clip-rule="evenodd" d="M146.995 25.831C146.967 25.831 146.941 25.8379 146.914 25.8392C145.627 25.7952 144.593 24.7203 144.593 23.4025V19.5983C144.593 18.2522 145.671 17.1566 146.995 17.1566C147.794 17.1566 148.539 17.5597 148.987 18.2346C149.256 18.6371 149.396 19.1086 149.396 19.5983V23.3899C149.396 23.879 149.256 24.3505 148.987 24.7536C148.539 25.4279 147.794 25.831 146.995 25.831ZM152.876 19.1537C152.875 19.1443 152.874 19.1349 152.873 19.1255C152.866 19.0671 152.865 19.0062 152.853 18.9497C152.751 17.9822 152.424 17.0573 151.884 16.2455C150.785 14.5911 148.957 13.6035 146.995 13.6035C143.931 13.6035 141.408 15.9912 141.126 19.0313C141.111 19.1249 141.098 19.2184 141.098 19.3164V23.9349C141.098 24.1458 141.14 24.3448 141.207 24.5319C141.728 27.2983 144.123 29.3966 146.995 29.3966C147.055 29.3966 147.112 29.3846 147.171 29.3784C149.065 29.3212 150.818 28.3468 151.884 26.7426C152.327 26.0758 152.626 25.3331 152.777 24.5533C152.848 24.3599 152.892 24.1534 152.892 23.9349V19.3164C152.892 19.2605 152.881 19.2084 152.876 19.1537Z" fill="#4B4F54"/>
<path fill-rule="evenodd" clip-rule="evenodd" d="M113.985 19.2211H109.244C109.423 18.0535 110.416 17.1566 111.614 17.1566C112.412 17.1566 113.157 17.5598 113.606 18.235C113.804 18.5327 113.932 18.8687 113.985 19.2211ZM116.502 16.2449C115.402 14.5911 113.575 13.6035 111.614 13.6035C108.496 13.6035 105.944 16.076 105.737 19.192C105.729 19.2599 105.716 19.3264 105.716 19.3961V24.0152C105.716 24.2708 105.772 24.5131 105.868 24.7329C106.466 27.3987 108.812 29.3966 111.614 29.3966C111.616 29.3966 111.618 29.3959 111.621 29.3959C113.716 29.3928 115.669 28.2463 116.72 26.4011C117.203 25.5522 116.918 24.4654 116.083 23.9738C115.247 23.4822 114.178 23.7722 113.694 24.6211C113.265 25.3745 112.468 25.8429 111.614 25.8429C111.612 25.8429 111.611 25.8435 111.61 25.8435C110.287 25.8417 109.212 24.7473 109.212 23.4024V22.7733H115.762C116.728 22.7733 117.51 21.9778 117.51 20.9965V18.9541C117.51 18.6935 117.452 18.4487 117.353 18.2258C117.191 17.5226 116.905 16.852 116.502 16.2449Z" fill="#4B4F54"/>
</svg>
