<svg width="81" height="75" viewBox="0 0 81 75" fill="none" xmlns="http://www.w3.org/2000/svg">
<path d="M40.4999 73.9997L10.6978 62.7105V55.1895" stroke="#ED8B00" stroke-width="1.25" stroke-miterlimit="10"/>
<path d="M70.3022 55.1898V62.7109L40.5 74V41.3887" stroke="#ED8B00" stroke-width="1.25" stroke-miterlimit="10"/>
<path d="M40.5 41.3892L30.566 57.6949L2 46.4057L10.6979 28.8516" stroke="#ED8B00" stroke-width="1.25" stroke-miterlimit="10"/>
<path d="M40.5 41.3892L50.4341 57.6949L79 46.4057L70.3022 28.8516" stroke="#ED8B00" stroke-width="1.25" stroke-miterlimit="10"/>
<path d="M45.4669 20.0664L70.3021 28.851L40.4999 41.3886L10.6978 28.851L35.5329 20.0664" stroke="#ED8B00" stroke-width="1.25" stroke-miterlimit="10"/>
<path d="M45.467 15.0495L50.4341 6.27246L79.0001 17.5616L70.3022 28.8507" stroke="#ED8B00" stroke-width="1.25" stroke-miterlimit="10"/>
<path d="M35.533 15.0495L30.566 6.27246L2 17.5616L10.6979 28.8507" stroke="#ED8B00" stroke-width="1.25" stroke-miterlimit="10"/>
<path d="M40.5 0V32.6113" stroke="#ED8B00" stroke-width="1.25" stroke-miterlimit="10"/>
<path d="M45.467 28.8516L40.5 33.8681L35.533 28.8516" stroke="#ED8B00" stroke-width="1.25" stroke-miterlimit="10"/>
</svg>
