<svg width="103" height="95" viewBox="0 0 103 95" fill="none" xmlns="http://www.w3.org/2000/svg">
<path d="M51.4999 93.9995L13.1829 79.6593V70.1055" stroke="#ED8B00" stroke-width="1.25" stroke-miterlimit="10"/>
<path d="M89.8171 70.1064V79.6602L51.5 94.0004V52.5752" stroke="#ED8B00" stroke-width="1.25" stroke-miterlimit="10"/>
<path d="M51.5 52.5746L38.7277 73.2872L2 58.947L13.183 36.6484" stroke="#ED8B00" stroke-width="1.25" stroke-miterlimit="10"/>
<path d="M51.5 52.5746L64.2724 73.2872L101 58.947L89.8171 36.6484" stroke="#ED8B00" stroke-width="1.25" stroke-miterlimit="10"/>
<path d="M57.8861 25.4893L89.817 36.6481L51.4999 52.5743L13.1829 36.6481L45.1138 25.4893" stroke="#ED8B00" stroke-width="1.25" stroke-miterlimit="10"/>
<path d="M57.886 19.117L64.2722 7.96777L101 22.308L89.8169 36.6482" stroke="#ED8B00" stroke-width="1.25" stroke-miterlimit="10"/>
<path d="M45.1139 19.117L38.7277 7.96777L2 22.308L13.183 36.6482" stroke="#ED8B00" stroke-width="1.25" stroke-miterlimit="10"/>
<path d="M51.5 0V41.4252" stroke="#ED8B00" stroke-width="1.25" stroke-miterlimit="10"/>
<path d="M57.8861 36.6484L51.4999 43.0208L45.1138 36.6484" stroke="#ED8B00" stroke-width="1.25" stroke-miterlimit="10"/>
</svg>
