<svg width="97" height="98" viewBox="0 0 97 98" fill="none" xmlns="http://www.w3.org/2000/svg">
<path d="M48.5 97C74.7335 97 96 75.5097 96 49C96 22.4903 74.7335 1 48.5 1C22.2665 1 1 22.4903 1 49C1 75.5097 22.2665 97 48.5 97Z" stroke="#ED8B00" stroke-width="1.25" stroke-miterlimit="10"/>
<path d="M23.9875 56.7341V35.0645L48.5001 50.5414V78.413L28.5814 65.8327" stroke="#ED8B00" stroke-width="1.25" stroke-miterlimit="10"/>
<path d="M68.4188 65.8327L48.5 78.413V50.5414L73.0126 35.0645V56.7341" stroke="#ED8B00" stroke-width="1.25" stroke-miterlimit="10"/>
<path d="M53.0939 22.4834L73.0127 35.0637L48.5001 50.5407L23.9875 35.0637L43.9063 22.4834" stroke="#ED8B00" stroke-width="1.25" stroke-miterlimit="10"/>
<path d="M42.3717 53.6426L13.2561 67.5784" stroke="#ED8B00" stroke-width="1.25" stroke-miterlimit="10"/>
<path d="M23.9872 72.2206L13.2561 67.5785L16.3247 56.7344" stroke="#ED8B00" stroke-width="1.25" stroke-miterlimit="10"/>
<path d="M54.6279 53.6426L83.7435 67.5784" stroke="#ED8B00" stroke-width="1.25" stroke-miterlimit="10"/>
<path d="M73.0125 72.2206L83.7436 67.5785L80.6749 56.7344" stroke="#ED8B00" stroke-width="1.25" stroke-miterlimit="10"/>
<path d="M48.5 42.7981V8.74316" stroke="#ED8B00" stroke-width="1.25" stroke-miterlimit="10"/>
<path d="M57.6969 16.477L48.5 8.74316L39.3032 16.477" stroke="#ED8B00" stroke-width="1.25" stroke-miterlimit="10"/>
<path d="M48.4997 66.0276C57.8058 66.0276 65.3498 58.4041 65.3498 49.0001C65.3498 39.5961 57.8058 31.9727 48.4997 31.9727C39.1937 31.9727 31.6497 39.5961 31.6497 49.0001C31.6497 58.4041 39.1937 66.0276 48.4997 66.0276Z" stroke="#ED8B00" stroke-width="1.25" stroke-miterlimit="10"/>
</svg>
