<svg width="546" height="110" viewBox="0 0 546 110" fill="none" xmlns="http://www.w3.org/2000/svg">
<path fill-rule="evenodd" clip-rule="evenodd" d="M65.9631 43.9504C72.4158 50.4445 77.6914 61.0772 74.6715 67.394C66.5946 84.2883 6.33536 113.915 1.21599 108.788C-3.90309 103.661 25.7024 43.29 42.5717 35.201C48.8798 32.1759 59.4986 37.4618 65.9832 43.9252C65.9832 43.9252 65.9762 43.9336 65.9631 43.9504Z" fill="#FF8200"/>
<path fill-rule="evenodd" clip-rule="evenodd" d="M97.8869 36.8184C97.8872 36.818 97.8876 36.818 97.8876 36.818C96.8383 32.9322 94.1642 29.0065 90.1717 28.5414C82.8502 27.6885 71.3086 40.6526 72.132 43.7295C72.9554 46.8068 89.2602 52.2304 95.3512 47.8462C98.4906 45.5865 98.9325 40.7056 97.9011 36.8148L97.8869 36.8184ZM75.2261 0.900623C80.6658 2.3746 86.1599 6.1293 86.8105 11.734C88.0045 22.0143 69.8555 38.22 65.5477 37.064C61.2395 35.9079 53.6472 13.0137 59.7845 4.46107C62.9481 0.0529586 69.7813 -0.567293 75.2283 0.880913C75.2283 0.880913 75.2276 0.887547 75.2261 0.900623Z" fill="#43B02A"/>
<path fill-rule="evenodd" clip-rule="evenodd" d="M237.375 61.756L231.985 60.9381C226.849 60.1787 223.875 58.5139 223.875 55.4801C223.875 52.0019 227.745 49.8413 233.467 49.8413C237.513 49.8413 240.807 51.3602 243.96 52.9686L244.587 53.2873C245.315 53.6575 246.096 53.8447 246.908 53.8447C248.78 53.8447 250.503 52.8268 251.406 51.188L251.846 50.3913C252.544 49.1238 252.693 47.6634 252.263 46.2801C251.836 44.9004 250.892 43.7861 249.606 43.1403C245.012 40.8364 240.03 38.7686 233.467 38.7686C219.75 38.7686 210.914 45.4015 210.914 56.0788C210.914 64.8432 217.203 70.3373 229.104 71.9673L234.542 72.676C240.288 73.4833 243.081 75.1864 243.081 77.8825C243.081 80.3739 241.737 83.6855 232.836 83.6855C227.929 83.6855 222.947 82.4381 218.903 79.8721C218.096 79.3605 217.164 79.09 216.211 79.09C214.435 79.09 212.749 80.0337 211.812 81.5537L211.509 82.0445C210.757 83.2637 210.531 84.7596 210.889 86.1488C211.246 87.5346 212.123 88.6807 213.357 89.3766C220.409 93.3478 228.549 94.7571 232.836 94.7571C247.135 94.7571 255.988 88.4794 255.988 77.4355C255.988 68.5977 249.724 63.5322 237.375 61.756Z" fill="#43B02A"/>
<path fill-rule="evenodd" clip-rule="evenodd" d="M403.647 81.0464C402.616 79.8922 401.136 79.2304 399.586 79.2304C398.538 79.2304 397.518 79.529 396.626 80.0943C393.717 81.944 390.53 82.9216 387.402 82.9216C378.813 82.9216 372.574 76.1264 372.574 66.7634C372.574 57.4003 378.813 50.6044 387.402 50.6044C390.702 50.6044 393.655 51.502 396.425 53.3491C398.574 54.7788 401.659 54.4126 403.424 52.5253L403.881 52.037C405.09 50.7444 405.664 48.9916 405.46 47.2296C405.259 45.4987 404.316 43.9579 402.879 43.0033C398.654 40.1976 393.417 38.7148 387.73 38.7148C371.24 38.7148 359.722 50.2491 359.722 66.7634C359.722 83.2783 371.24 94.8127 387.73 94.8127C393.439 94.8127 398.706 93.2992 402.963 90.4369C404.381 89.4804 405.321 87.952 405.533 86.2431C405.748 84.5199 405.207 82.7912 404.052 81.4996L403.647 81.0464Z" fill="#43B02A"/>
<path fill-rule="evenodd" clip-rule="evenodd" d="M136.77 19.7383C132.478 19.7383 129.116 23.1483 129.116 27.5015C129.116 31.8714 132.406 35.1668 136.77 35.1668C141.116 35.1668 144.521 31.8 144.521 27.5015C144.521 23.1483 141.116 19.7383 136.77 19.7383Z" fill="#43B02A"/>
<path fill-rule="evenodd" clip-rule="evenodd" d="M139.086 39.168H134.571C132.359 39.168 130.566 40.9639 130.566 43.1794V89.4358C130.566 91.652 132.359 93.4486 134.572 93.4486H139.085C141.298 93.4486 143.092 91.652 143.092 89.4358V43.1794C143.092 40.9639 141.298 39.168 139.086 39.168Z" fill="#43B02A"/>
<path fill-rule="evenodd" clip-rule="evenodd" d="M287.32 82.6816C282.254 82.6618 276.365 78.6848 276.365 71.7218V50.8573H287.358C289.571 50.8573 291.365 49.061 291.365 46.8444V43.182C291.365 40.9658 289.571 39.1692 287.358 39.1692H276.365V27.1281C276.365 24.9118 274.571 23.1152 272.358 23.1152H267.594C265.381 23.1152 263.587 24.9118 263.587 27.1281V70.9748C263.587 83.5967 273.151 94.7575 286.395 94.7575H286.4C287.722 94.7575 288.967 94.2389 289.907 93.2978C290.847 92.3567 291.365 91.1094 291.365 89.7856V86.6941C291.365 84.4662 289.545 82.69 287.32 82.6816Z" fill="#43B02A"/>
<path fill-rule="evenodd" clip-rule="evenodd" d="M177.909 38.7148C161.88 38.7148 152.941 51.5535 152.941 62.5415V89.4366C152.941 91.6528 154.735 93.4494 156.948 93.4494H161.515C163.727 93.4494 165.522 91.6528 165.522 89.4366V64.5603C165.522 56.2312 170.561 50.714 177.909 50.714C185.257 50.714 190.297 56.2312 190.297 64.5603V89.4366C190.297 91.6528 192.091 93.4494 194.304 93.4494H198.871C201.083 93.4494 202.877 91.6528 202.877 89.4366V62.5415C202.877 51.5535 193.938 38.7148 177.909 38.7148Z" fill="#43B02A"/>
<path fill-rule="evenodd" clip-rule="evenodd" d="M507.616 39.2718C505.88 38.8917 501.524 38.7148 499.269 38.7148C499.064 38.7148 498.867 38.7222 498.669 38.7222C486.258 38.7222 474.8 48.8552 474.8 62.8218C474.797 62.8335 474.793 62.8466 474.793 62.8569V63.12V89.4366C474.793 91.6528 476.587 93.4494 478.802 93.4494H483.367C485.582 93.4494 487.376 91.6528 487.376 89.4366V63.2819C487.376 55.6779 492.796 50.7217 499.437 50.7217C500.654 50.7407 501.958 50.8774 503.238 51.1307C503.585 51.1994 503.939 51.2341 504.29 51.2341C506.827 51.2341 509.019 49.4817 509.615 47.0136C509.94 45.6585 510.182 44.649 510.408 43.7273C510.631 42.8059 510.478 41.7611 509.951 40.9164C509.421 40.0693 508.592 39.4853 507.616 39.2718Z" fill="#43B02A"/>
<path fill-rule="evenodd" clip-rule="evenodd" d="M541.112 50.8573C543.327 50.8573 545.121 49.061 545.121 46.8444V43.182C545.121 40.9658 543.327 39.1692 541.112 39.1692H530.119V27.1281C530.119 24.9118 528.328 23.1152 526.113 23.1152H521.351C519.136 23.1152 517.342 24.9118 517.342 27.1281V70.9748C517.342 83.5967 526.906 94.7575 540.151 94.7575H540.155C541.478 94.7575 542.724 94.2389 543.663 93.2978C544.602 92.3567 545.121 91.1094 545.121 89.7856V86.6941C545.121 84.4662 543.301 82.69 541.076 82.6816C536.01 82.6618 530.119 78.6848 530.119 71.7218V50.8573H541.112Z" fill="#43B02A"/>
<path fill-rule="evenodd" clip-rule="evenodd" d="M453.958 43.0186C453.95 43.0139 453.943 43.008 453.936 43.0033C449.711 40.1976 444.474 38.7148 438.787 38.7148C438.688 38.7148 438.593 38.7203 438.495 38.7211C438.396 38.7203 438.297 38.7148 438.198 38.7148C432.512 38.7148 427.275 40.1976 423.05 43.0033C423.042 43.008 423.039 43.0135 423.031 43.0183C415.422 47.8118 410.781 56.2816 410.781 66.7634C410.781 77.7436 415.875 86.5168 424.135 91.1674C427.984 93.444 432.556 94.801 437.482 94.8046C446.484 94.8112 451.918 89.7044 453.625 87.4754V89.3971C453.625 91.6133 455.42 93.41 457.634 93.41H462.199C464.414 93.41 466.208 91.6133 466.208 89.3971V66.7634C466.208 56.2816 461.563 47.8118 453.958 43.0186ZM443.527 82.0803C442.062 82.5649 440.574 82.8456 439.09 82.9078C438.984 82.9114 438.875 82.9143 438.765 82.9158C438.674 82.9176 438.582 82.9209 438.495 82.9213C438.403 82.9209 438.312 82.9176 438.22 82.9158C438.111 82.9143 438.001 82.9114 437.895 82.9078C436.415 82.8456 434.924 82.5649 433.462 82.0803C427.556 79.9917 423.631 74.1865 423.631 66.7634C423.631 57.9975 429.098 51.4826 436.846 50.687C436.886 50.683 436.93 50.6797 436.971 50.676C437.146 50.6596 437.321 50.6472 437.497 50.6366C437.599 50.6307 437.698 50.6249 437.8 50.6208C437.968 50.6139 438.14 50.6095 438.315 50.608C438.374 50.6073 438.432 50.6051 438.495 50.6048C438.553 50.6051 438.611 50.6073 438.67 50.608C438.845 50.6095 439.017 50.6139 439.189 50.6208C439.288 50.6249 439.39 50.6307 439.489 50.6366C439.664 50.6472 439.843 50.6596 440.019 50.676C440.059 50.6797 440.099 50.683 440.139 50.687C447.887 51.4826 453.355 57.9975 453.355 66.7634C453.355 74.1865 449.433 79.9917 443.527 82.0803Z" fill="#43B02A"/>
<path fill-rule="evenodd" clip-rule="evenodd" d="M339.963 43.0186C339.956 43.0139 339.95 43.008 339.942 43.0033C335.718 40.1976 330.48 38.7148 324.794 38.7148C324.695 38.7148 324.598 38.7203 324.5 38.7211C324.401 38.7203 324.305 38.7148 324.205 38.7148C318.52 38.7148 313.282 40.1976 309.057 43.0033C309.05 43.008 309.044 43.0135 309.037 43.0183C301.43 47.8118 296.786 56.2816 296.786 66.7634C296.786 77.7436 301.882 86.5168 310.141 91.1674C313.992 93.444 318.563 94.801 323.491 94.8046C332.49 94.8112 337.924 89.7044 339.633 87.4754V89.3971C339.633 91.6133 341.427 93.41 343.64 93.41H348.207C350.42 93.41 352.214 91.6133 352.214 89.3971V66.7634C352.214 56.2816 347.569 47.8118 339.963 43.0186ZM329.533 82.0803C328.07 82.5649 326.58 82.8456 325.099 82.9078C324.99 82.9114 324.882 82.9143 324.772 82.9158C324.682 82.9176 324.591 82.9209 324.5 82.9213C324.409 82.9209 324.318 82.9176 324.227 82.9158C324.118 82.9143 324.01 82.9114 323.901 82.9078C322.42 82.8456 320.93 82.5649 319.467 82.0803C313.561 79.9917 309.639 74.1865 309.639 66.7634C309.639 57.9975 315.105 51.4826 322.853 50.687C322.894 50.683 322.935 50.6797 322.976 50.676C323.151 50.6596 323.328 50.6472 323.505 50.6366C323.605 50.6307 323.705 50.6249 323.806 50.6208C323.976 50.6139 324.148 50.6095 324.321 50.608C324.381 50.6073 324.44 50.6051 324.5 50.6048C324.56 50.6051 324.619 50.6073 324.678 50.608C324.851 50.6095 325.023 50.6139 325.194 50.6208C325.295 50.6249 325.395 50.6307 325.495 50.6366C325.672 50.6472 325.849 50.6596 326.024 50.676C326.065 50.6797 326.106 50.683 326.146 50.687C333.894 51.4826 339.361 57.9975 339.361 66.7634C339.361 74.1865 335.439 79.9917 329.533 82.0803Z" fill="#43B02A"/>
</svg>
