<svg width="48" height="65" viewBox="0 0 48 65" fill="none" xmlns="http://www.w3.org/2000/svg">
<path fill-rule="evenodd" clip-rule="evenodd" d="M5.31711 60.5836L4.42313 58.499H4.41184L3.52977 60.5836H5.31711ZM0.483846 63.2854L4.16509 54.7852C4.2002 54.7098 4.28232 54.6465 4.36508 54.6465H4.48231C4.56444 54.6465 4.64719 54.7098 4.6823 54.7852L8.36354 63.2854C8.43376 63.4496 8.33972 63.6139 8.16356 63.6139H6.85832C6.64642 63.6139 6.55238 63.5385 6.44644 63.2982L6.02327 62.3004H2.82412L2.40095 63.311C2.34202 63.4624 2.21288 63.6139 1.97716 63.6139H0.683832C0.507668 63.6139 0.413004 63.4496 0.483846 63.2854Z" fill="#4B4F54"/>
<path fill-rule="evenodd" clip-rule="evenodd" d="M17.6068 54.6465C18.7829 54.6465 19.6531 55.0383 20.453 55.8214C20.5589 55.9224 20.5589 56.0738 20.4649 56.1748L19.5471 57.1976C19.465 57.2864 19.3358 57.2864 19.2531 57.1976C18.818 56.7808 18.2419 56.5539 17.6657 56.5539C16.3367 56.5539 15.3606 57.7409 15.3606 59.1555C15.3606 60.5572 16.3486 61.7193 17.6776 61.7193C18.23 61.7193 18.8299 61.5045 19.2531 61.1134C19.3358 61.0373 19.4882 61.0373 19.559 61.1262L20.4762 62.1745C20.5589 62.2627 20.547 62.4269 20.4649 62.5151C19.665 63.3487 18.6537 63.7405 17.6068 63.7405C15.2546 63.7405 13.3613 61.7321 13.3613 59.206C13.3613 56.6798 15.2546 54.6465 17.6068 54.6465Z" fill="#4B4F54"/>
<path fill-rule="evenodd" clip-rule="evenodd" d="M27.3916 54.8485C27.4035 54.7347 27.5095 54.6465 27.6035 54.6465H27.7916C27.8505 54.6465 27.9558 54.697 27.9916 54.7724L30.7199 60.2287H30.7437L33.472 54.7724C33.5072 54.697 33.6131 54.6465 33.6714 54.6465H33.8601C33.9541 54.6465 34.0595 54.7347 34.0714 54.8485L35.4004 63.3359C35.4243 63.5001 35.3183 63.6139 35.1773 63.6139H33.7893C33.6833 63.6139 33.5774 63.5129 33.5661 63.4119L33.0363 59.5089H33.0131L31.0371 63.6011C31.002 63.6772 30.8961 63.7405 30.8371 63.7405H30.6259C30.555 63.7405 30.461 63.6772 30.4259 63.6011L28.4385 59.5089H28.4147L27.8975 63.4119C27.8856 63.5129 27.7916 63.6139 27.6737 63.6139H26.2863C26.1447 63.6139 26.0393 63.5001 26.0625 63.3359L27.3916 54.8485Z" fill="#4B4F54"/>
<path fill-rule="evenodd" clip-rule="evenodd" d="M41.6096 55.0131C41.6096 54.8865 41.7037 54.7734 41.8334 54.7734H46.702C46.8312 54.7734 46.9252 54.8865 46.9252 55.0131V56.39C46.9252 56.5159 46.8312 56.6297 46.702 56.6297H43.444V58.1957H46.1259C46.2431 58.1957 46.3491 58.3095 46.3491 58.4361V59.813C46.3491 59.9517 46.2431 60.0526 46.1259 60.0526H43.444V61.7574H46.702C46.8312 61.7574 46.9252 61.8712 46.9252 61.9978V63.3746C46.9252 63.5005 46.8312 63.6143 46.702 63.6143H41.8334C41.7037 63.6143 41.6096 63.5005 41.6096 63.3746V55.0131Z" fill="#4B4F54"/>
<path fill-rule="evenodd" clip-rule="evenodd" d="M21.9551 8.45331C22.9418 8.45331 23.7424 7.59421 23.7424 6.53379C23.7424 5.47337 22.9418 4.61426 21.9551 4.61426C20.9677 4.61426 20.1677 5.47337 20.1677 6.53379C20.1677 7.59421 20.9677 8.45331 21.9551 8.45331Z" fill="#4B4F54"/>
<path fill-rule="evenodd" clip-rule="evenodd" d="M26.7069 4.76327C27.8466 4.76327 28.7707 3.77086 28.7707 2.54683C28.7707 1.3228 27.8466 0.331055 26.7069 0.331055C25.5671 0.331055 24.6431 1.3228 24.6431 2.54683C24.6431 3.77086 25.5671 4.76327 26.7069 4.76327Z" fill="#4B4F54"/>
<path fill-rule="evenodd" clip-rule="evenodd" d="M29.3872 39.8916H17.9824C16.7066 39.8916 15.9555 38.3538 16.6809 37.2267L22.5143 28.1596C23.1513 27.1692 24.5192 27.1847 25.1361 28.1892L30.7075 37.2563C31.4021 38.3861 30.6473 39.8916 29.3872 39.8916ZM36.3275 37.5606L28.2209 23.1807V15.1498H28.4177C29.5907 15.1498 30.5417 14.1277 30.5417 12.868C30.5417 11.6083 29.5907 10.5869 28.4177 10.5869H18.9682C17.7953 10.5869 16.8442 11.6083 16.8442 12.868C16.8442 14.1277 17.7953 15.1498 18.9682 15.1498H19.1651V23.1807L11.0584 37.5606C9.63784 40.6241 11.7129 44.2228 14.8995 44.2228H32.4858C35.673 44.2228 37.7475 40.6241 36.3275 37.5606Z" fill="#4B4F54"/>
</svg>
