<svg width="309" height="34" viewBox="0 0 309 34" fill="none" xmlns="http://www.w3.org/2000/svg">
<path d="M19.9358 1.50586V5.17995H22.5838V26.4361H26.6479V1.50586H19.9358Z" fill="#00873E"/>
<path d="M15.8247 8.04915V9.34303C14.3733 8.2978 12.6614 7.67382 10.8779 7.53994C9.09435 7.40605 7.30849 7.76747 5.71735 8.58431C4.12622 9.40115 2.79166 10.6417 1.86092 12.169C0.930191 13.6963 0.439464 15.451 0.442889 17.2396C0.446314 19.0281 0.943757 20.781 1.88033 22.3047C2.81691 23.8285 4.15621 25.0639 5.75046 25.8746C7.34471 26.6853 9.13195 27.0399 10.915 26.8992C12.698 26.7585 14.4075 26.128 15.8548 25.0772V26.4932H19.8888V8.04915H15.8247ZM15.8247 17.2335C15.8147 18.7396 15.2082 20.1803 14.1379 21.24C13.0677 22.2997 11.621 22.8919 10.1149 22.8869C8.60881 22.8819 7.1661 22.2801 6.10289 21.2134C5.03967 20.1467 4.44266 18.702 4.44266 17.1959C4.44266 15.6898 5.03967 14.2451 6.10289 13.1783C7.1661 12.1116 8.60881 11.5098 10.1149 11.5048C11.621 11.4999 13.0677 12.0921 14.1379 13.1518C15.2082 14.2114 15.8147 15.6521 15.8247 17.1582V17.2335Z" fill="#00873E"/>
<path d="M62.9535 22.7471H53.8914L62.9234 11.8621H62.9301V8.17969H48.9836V11.8621H57.9939L48.9836 22.7471V26.4363H62.9535V22.7471Z" fill="#00873E"/>
<path d="M38.7963 8.32468H37.7703L43.0596 1.49707H38.2055L30.72 11.5401C29.2772 13.3244 28.4954 15.5526 28.5072 17.8472C28.5352 19.0789 28.8105 20.2924 29.3169 21.4156C29.8233 22.5388 30.5503 23.5487 31.4549 24.3852C33.2187 26.0287 35.5402 26.9421 37.951 26.9412H38.2272C40.7203 26.8945 43.0932 25.8608 44.825 24.0668C46.5569 22.2728 47.5064 19.865 47.4652 17.3718C47.4094 15.0541 46.4891 12.8411 44.8852 11.1671C43.2813 9.49322 41.1095 8.47937 38.7963 8.32468ZM38.1988 23.2052C37.5103 23.244 36.821 23.1433 36.1724 22.9092C35.5238 22.6751 34.9292 22.3123 34.4242 21.8426C33.878 21.3264 33.4404 20.7064 33.1368 20.0189C32.8333 19.3314 32.6701 18.5902 32.6567 17.8388C32.6122 17.0814 32.7185 16.3228 32.9693 15.6068C33.2201 14.8908 33.6106 14.2316 34.1179 13.6676C34.5851 13.1667 35.1473 12.7638 35.7718 12.4824C36.3962 12.2011 37.0705 12.0469 37.7552 12.0289H38.0079C39.3208 12.0191 40.5889 12.5058 41.5582 13.3914C42.1076 13.9069 42.5496 14.5261 42.8584 15.2133C43.1672 15.9005 43.3369 16.6421 43.3576 17.3952C43.4058 18.1094 43.3128 18.8261 43.084 19.5044C42.8552 20.1826 42.4951 20.8092 42.0241 21.3482C41.5531 21.8873 40.9806 22.3283 40.3392 22.646C39.6977 22.9638 39 23.1521 38.2858 23.2001L38.1988 23.2052Z" fill="#00873E"/>
<path d="M89.5726 26.4918H87.0502V5.08338L78.2206 19.8601H77.8591L69.0296 5.08338V26.4918H66.5071V1.26367H69.6422L78.0399 15.324L86.4375 1.26367H89.5726V26.4918Z" fill="#4B4F54"/>
<path d="M111.411 8.47161V26.4905H109.033V22.9587C107.526 25.3741 104.96 26.9241 101.752 26.9241C96.6715 26.9241 92.4534 22.8148 92.4534 17.4802C92.4534 12.1457 96.6715 8.03809 101.752 8.03809C104.96 8.03809 107.52 9.58807 109.033 12.0034V8.47161H111.411ZM109.033 17.4802C109.033 13.4798 105.933 10.3446 101.932 10.3446C97.9319 10.3446 94.8319 13.4798 94.8319 17.4802C94.8319 21.4807 97.9319 24.6192 101.932 24.6192C105.933 24.6192 109.033 21.4824 109.033 17.4802Z" fill="#4B4F54"/>
<path d="M123.086 8.18262V10.4892C120.204 10.4892 117.395 11.9956 117.395 16.4715V26.4911H115.013V8.47219H117.392V11.4634C118.654 8.9392 120.78 8.18262 123.086 8.18262Z" fill="#4B4F54"/>
<path d="M136.276 26.4918L127.266 17.8063V26.4918H124.887V1.26367H127.266V16.4371L135.844 8.47292H139.088L129.79 17.1217L139.448 26.4952L136.276 26.4918Z" fill="#4B4F54"/>
<path d="M156.712 17.5529C156.712 17.9145 156.675 18.3112 156.639 18.671H140.817C141.32 22.3535 144.165 24.6182 147.99 24.6182C150.835 24.6182 152.819 23.2791 153.793 21.5534L155.882 22.7787C154.376 25.2292 151.594 26.9231 147.953 26.9231C142.262 26.9231 138.367 22.9226 138.367 17.4793C138.367 12.1815 142.187 8.03711 147.774 8.03711C153.288 8.03878 156.712 12.6167 156.712 17.5529ZM140.811 16.3645H154.253C153.751 12.3991 150.866 10.3386 147.767 10.3386C143.989 10.3453 141.286 12.8327 140.817 16.3645H140.811Z" fill="#4B4F54"/>
<path d="M162.874 10.779V21.6991C162.874 24.7974 164.567 24.5447 168.062 24.4024V26.4913C163.197 27.2128 160.493 26.0227 160.493 21.6991V10.779H156.71V8.47242H160.493V4.14721L162.874 3.42578V8.47242H168.062V10.779H162.874Z" fill="#4B4F54"/>
<path d="M189.543 17.4802C189.543 22.8148 185.325 26.9241 180.243 26.9241C177.036 26.9241 174.477 25.3741 172.963 22.9587V33.6998H170.585V8.47161H172.963V12.0034C174.47 9.58807 177.036 8.03809 180.243 8.03809C185.325 8.03809 189.543 12.1474 189.543 17.4802ZM187.163 17.4802C187.163 13.4798 184.064 10.3446 180.064 10.3446C176.063 10.3446 172.963 13.4798 172.963 17.4802C172.963 21.4807 176.063 24.6192 180.061 24.6192C184.058 24.6192 187.163 21.4824 187.163 17.4802Z" fill="#4B4F54"/>
<path d="M192.064 0.181641H194.442V26.4911H192.064V0.181641Z" fill="#4B4F54"/>
<path d="M215.921 8.47161V26.4905H213.537V22.9587C212.031 25.3741 209.465 26.9241 206.258 26.9241C201.176 26.9241 196.958 22.8148 196.958 17.4802C196.958 12.1457 201.176 8.03809 206.258 8.03809C209.465 8.03809 212.024 9.58807 213.537 12.0034V8.47161H215.921ZM213.537 17.4802C213.537 13.4798 210.437 10.3446 206.437 10.3446C202.436 10.3446 199.337 13.4798 199.337 17.4802C199.337 21.4807 202.442 24.6192 206.442 24.6192C210.442 24.6192 213.537 21.4824 213.537 17.4802Z" fill="#4B4F54"/>
<path d="M218.444 17.4802C218.444 12.1474 222.479 8.03809 227.923 8.03809C231.49 8.03809 234.518 9.91279 235.815 12.76L233.868 13.8765C232.896 11.7507 230.624 10.3446 227.923 10.3446C223.92 10.3446 220.822 13.4798 220.822 17.4802C220.822 21.4807 223.915 24.6192 227.923 24.6192C230.661 24.6192 232.86 23.178 234.012 21.0874L235.996 22.2407C234.518 25.0862 231.454 26.9274 227.923 26.9274C222.479 26.9241 218.444 22.8148 218.444 17.4802Z" fill="#4B4F54"/>
<path d="M255.059 17.5522C255.059 17.9138 255.022 18.3105 254.987 18.6703H239.164C239.666 22.3528 242.512 24.6175 246.336 24.6175C249.182 24.6175 251.165 23.2784 252.14 21.5527L254.23 22.7796C252.724 25.2301 249.94 26.9241 246.301 26.9241C240.61 26.9241 236.713 22.9236 236.713 17.4802C236.713 12.1825 240.533 8.03809 246.12 8.03809C251.634 8.03809 255.059 12.616 255.059 17.5522ZM239.157 16.3638H252.602C252.099 12.3984 249.214 10.3379 246.114 10.3379C242.336 10.3446 239.633 12.832 239.164 16.3638H239.157Z" fill="#4B4F54"/>
<path d="M265.231 1.26367V26.4918H261.086V5.70605L256.005 7.14723L255 3.61375L261.632 1.27037L265.231 1.26367Z" fill="#4B4F54"/>
<path d="M267.547 13.8767C267.547 6.09166 271.116 0.793945 277.458 0.793945C283.8 0.793945 287.371 6.09166 287.371 13.8767C287.371 21.6618 283.802 26.9628 277.458 26.9628C271.114 26.9628 267.547 21.6618 267.547 13.8767ZM283.225 13.8767C283.225 8.07349 281.216 4.83795 277.458 4.83795C273.746 4.83795 271.692 8.08019 271.692 13.8767C271.692 19.6732 273.746 22.9238 277.458 22.9238C281.208 22.9238 283.225 19.6799 283.225 13.8767Z" fill="#4B4F54"/>
<path d="M289.178 13.8767C289.178 6.09166 292.745 0.793945 299.089 0.793945C305.433 0.793945 309 6.09166 309 13.8767C309 21.6618 305.431 26.9628 299.089 26.9628C292.747 26.9628 289.178 21.6618 289.178 13.8767ZM304.856 13.8767C304.856 8.07349 302.837 4.83795 299.089 4.83795C295.377 4.83795 293.323 8.08019 293.323 13.8767C293.323 19.6732 295.377 22.9238 299.089 22.9238C302.837 22.9238 304.856 19.6799 304.856 13.8767Z" fill="#4B4F54"/>
</svg>
