<svg width="151" height="57" viewBox="0 0 151 57" fill="none" xmlns="http://www.w3.org/2000/svg">
<path fill-rule="evenodd" clip-rule="evenodd" d="M46.7884 32.4966C48.1543 32.4966 49.4527 31.4003 49.8632 30.6694V28.3309C49.6579 28.185 48.7012 27.7466 47.4717 27.7466C45.8317 27.7466 44.7045 28.6599 44.7045 30.1581C44.7045 31.4733 45.5248 32.4966 46.7884 32.4966ZM47.1981 25.481C48.6328 25.481 49.8971 25.9194 49.8971 25.9194C49.9306 23.6174 49.5207 22.7041 47.7784 22.7041C46.2072 22.7041 44.6702 23.1425 43.9528 23.3614C43.5429 23.4708 43.3036 23.179 43.2013 22.7771L42.9279 21.4247C42.8255 20.9499 43.0643 20.6939 43.3718 20.5844C43.6111 20.4743 45.5581 19.7441 48.0866 19.7441C52.4591 19.7441 52.8689 22.594 52.8689 26.2484V34.0307C52.8689 34.3968 52.5608 34.7257 52.2198 34.7257H51.263C50.9555 34.7257 50.8191 34.5792 50.6827 34.2137L50.341 33.2275C49.5889 33.9949 48.2571 35.0905 46.139 35.0905C43.577 35.0905 41.7324 33.2275 41.7324 30.1946C41.7324 27.5271 43.7134 25.481 47.1981 25.481Z" fill="#4B4F54"/>
<path fill-rule="evenodd" clip-rule="evenodd" d="M63.3213 19.7441C65.4053 19.7441 67.0105 20.6574 68.2748 22.338C68.5135 22.6676 68.4453 23.106 68.1378 23.3614L67.0105 24.4577C66.6007 24.8596 66.3613 24.5678 66.0885 24.3118C65.4735 23.5809 64.4826 22.923 63.3554 22.923C61.1351 22.923 59.3927 24.9332 59.3927 27.4177C59.3927 29.9386 61.101 31.9488 63.3213 31.9488C65.0636 31.9488 65.781 30.9984 66.4984 30.2682C66.8059 29.9386 67.1128 29.9386 67.4204 30.1946L68.343 30.9984C68.6846 31.2909 68.821 31.6563 68.5823 32.0218C67.4886 33.8854 65.6446 35.0912 63.2872 35.0912C59.4609 35.0912 56.1475 31.8387 56.1475 27.4541C56.1475 23.1425 59.5298 19.7441 63.3213 19.7441Z" fill="#4B4F54"/>
<path fill-rule="evenodd" clip-rule="evenodd" d="M71.9978 20.804C71.9978 20.4385 72.3053 20.1096 72.6464 20.1096H73.6031C73.9112 20.1096 74.0818 20.2926 74.1841 20.548L74.5598 21.7909C74.8673 21.4612 76.4385 19.7441 79.0693 19.7441C81.0504 19.7441 82.4851 20.5844 83.476 22.0827C83.8517 21.6808 85.8327 19.7441 88.4288 19.7441C92.5967 19.7441 94.0656 22.8865 94.0656 26.6868V34.0313C94.0656 34.3968 93.7921 34.7257 93.4164 34.7257H91.5036C91.1278 34.7257 90.8544 34.3968 90.8544 34.0313V26.5409C90.8544 24.2388 89.8642 22.923 88.019 22.923C85.9356 22.923 84.7396 24.4948 84.5002 24.7137C84.5691 25.0427 84.6032 25.7371 84.6032 26.4679V34.0313C84.6032 34.3968 84.2956 34.7257 83.954 34.7257H82.1435C81.7677 34.7257 81.4943 34.3968 81.4943 34.0313V26.5409C81.4943 24.2017 80.5035 22.923 78.5907 22.923C76.5414 22.923 75.3795 24.6407 75.209 25.1156V34.0313C75.209 34.3968 74.9014 34.7257 74.5598 34.7257H72.6464C72.3053 34.7257 71.9978 34.3968 71.9978 34.0313V20.804Z" fill="#4B4F54"/>
<path fill-rule="evenodd" clip-rule="evenodd" d="M107.285 25.81C107.183 24.0564 105.816 22.5582 104.143 22.5582C102.298 22.5582 100.863 23.9828 100.658 25.81H107.285ZM104.177 19.7441C107.729 19.7441 110.462 22.5947 110.462 26.5044C110.462 26.7597 110.428 27.2353 110.394 27.4906C110.36 27.8567 110.086 28.1121 109.779 28.1121H100.487C100.59 30.0852 102.195 32.0218 104.415 32.0218C105.646 32.0218 106.773 31.4375 107.456 30.9619C107.866 30.7066 108.105 30.56 108.378 30.9255L109.335 32.3143C109.574 32.6067 109.676 32.8992 109.267 33.264C108.276 34.1779 106.499 35.0912 104.21 35.0912C100.077 35.0912 97.3445 31.6199 97.3445 27.4177C97.3445 23.2884 100.077 19.7441 104.177 19.7441Z" fill="#4B4F54"/>
<path fill-rule="evenodd" clip-rule="evenodd" d="M127.405 19.7441C129.489 19.7441 131.094 20.6574 132.358 22.338C132.597 22.6676 132.529 23.106 132.221 23.3614L131.094 24.4577C130.684 24.8596 130.445 24.5678 130.172 24.3118C129.557 23.5809 128.566 22.923 127.439 22.923C125.218 22.923 123.476 24.9332 123.476 27.4177C123.476 29.9386 125.184 31.9488 127.405 31.9488C129.147 31.9488 129.864 30.9984 130.582 30.2682C130.889 29.9386 131.196 29.9386 131.504 30.1946L132.426 30.9984C132.768 31.2909 132.904 31.6563 132.666 32.0218C131.572 33.8854 129.728 35.0912 127.37 35.0912C123.544 35.0912 120.231 31.8387 120.231 27.4541C120.231 23.1425 123.613 19.7441 127.405 19.7441Z" fill="#4B4F54"/>
<path fill-rule="evenodd" clip-rule="evenodd" d="M141.956 31.9488C144.109 31.9488 145.816 29.9021 145.816 27.3812C145.816 24.9332 144.109 22.923 141.956 22.923C139.804 22.923 138.096 24.9332 138.096 27.3812C138.096 29.9021 139.804 31.9488 141.956 31.9488ZM141.956 19.7441C145.782 19.7441 148.857 23.2526 148.857 27.3812C148.857 31.5834 145.782 35.0912 141.956 35.0912C138.13 35.0912 135.055 31.5834 135.055 27.3812C135.055 23.2526 138.13 19.7441 141.956 19.7441Z" fill="#4B4F54"/>
<mask id="mask0_630_12510" style="mask-type:alpha" maskUnits="userSpaceOnUse" x="1" y="0" width="27" height="57">
<path fill-rule="evenodd" clip-rule="evenodd" d="M27.9425 0.115234H1.16919L1.16919 56.0225H27.9425V0.115234V0.115234Z" fill="white"/>
</mask>
<g mask="url(#mask0_630_12510)">
<path fill-rule="evenodd" clip-rule="evenodd" d="M14.3426 27.4173C12.3628 27.3923 10.7399 25.6563 10.7165 23.5373C10.6938 21.4197 12.2807 19.7229 14.2605 19.7465C16.2409 19.7702 17.8645 21.5075 17.8872 23.6258C17.9106 25.7448 16.3236 27.4416 14.3426 27.4173ZM22.3756 35.3219C22.3756 35.3219 25.5243 11.1077 15.1008 2.04L14.5368 0.383707C14.4168 0.0317788 13.954 0.023673 13.8239 0.372224L13.21 2.0123C2.97153 10.8227 6.56919 35.128 6.56919 35.128C-1.34604 41.7815 0.579409 39.2883 5.09653 51.0229C5.95727 53.2634 7.46655 52.7352 8.1492 51.1181C8.83122 49.503 10.338 45.9351 10.338 45.9351H11.0535L13.8188 55.3858C14.067 56.2349 15.1904 56.2349 15.4392 55.3858L18.204 45.9351H18.8607C18.8607 45.9351 20.4963 49.6462 21.2137 51.2795C21.9311 52.9135 23.4511 53.4782 24.2651 51.2586C28.5309 39.6321 30.4355 42.1713 22.3756 35.3219Z" fill="#4B4F54"/>
</g>
</svg>
