<svg width="185" height="90" viewBox="0 0 185 90" fill="none" xmlns="http://www.w3.org/2000/svg">
<path fill-rule="evenodd" clip-rule="evenodd" d="M97.6337 55.1585C99.455 55.1585 101.185 53.7847 101.732 52.8681V49.9373C101.459 49.754 100.183 49.204 98.5438 49.204C96.3591 49.204 94.8561 50.3492 94.8561 52.2276C94.8561 53.8764 95.9485 55.1585 97.6337 55.1585ZM98.1803 46.3652C100.092 46.3652 101.777 46.9151 101.777 46.9151C101.822 44.0295 101.276 42.8844 98.9531 42.8844C96.8596 42.8844 94.8099 43.4343 93.8537 43.7082C93.3081 43.8462 92.9897 43.4796 92.8525 42.976L92.488 41.2809C92.3518 40.6856 92.6702 40.3654 93.0797 40.2274C93.3992 40.0904 95.9945 39.1738 99.3637 39.1738C105.192 39.1738 105.738 42.7463 105.738 47.327V57.0826C105.738 57.5409 105.328 57.9528 104.873 57.9528H103.598C103.189 57.9528 103.006 57.7695 102.824 57.3112L102.369 56.0744C101.367 57.0374 99.591 58.41 96.7684 58.41C93.3531 58.41 90.895 56.0744 90.895 52.2733C90.895 48.9294 93.5353 46.3652 98.1803 46.3652Z" fill="black"/>
<path fill-rule="evenodd" clip-rule="evenodd" d="M119.037 39.1738C121.725 39.1738 123.795 40.319 125.426 42.425C125.734 42.838 125.645 43.3879 125.249 43.7082L123.795 45.082C123.266 45.5855 122.958 45.22 122.606 44.8986C121.813 43.9832 120.535 43.1582 119.082 43.1582C116.218 43.1582 113.97 45.6772 113.97 48.7925C113.97 51.9519 116.173 54.472 119.037 54.472C121.284 54.472 122.209 53.2804 123.134 52.365C123.531 51.9519 123.927 51.9519 124.324 52.2733L125.513 53.2804C125.955 53.6471 126.13 54.1054 125.822 54.5637C124.412 56.8993 122.033 58.41 118.993 58.41C114.058 58.41 109.785 54.334 109.785 48.8378C109.785 43.4332 114.147 39.1738 119.037 39.1738Z" fill="black"/>
<path fill-rule="evenodd" clip-rule="evenodd" d="M131.374 40.5347C131.374 40.0652 131.788 39.6433 132.247 39.6433H133.534C133.948 39.6433 134.177 39.8774 134.315 40.2055L134.821 41.8016C135.235 41.3786 137.349 39.1738 140.886 39.1738C143.552 39.1738 145.482 40.253 146.815 42.1761C147.321 41.6602 149.985 39.1738 153.478 39.1738C159.084 39.1738 161.06 43.2088 161.06 48.0878V57.5175C161.06 57.987 160.693 58.41 160.187 58.41H157.614C157.109 58.41 156.741 57.987 156.741 57.5175V47.9011C156.741 44.9441 155.408 43.2552 152.926 43.2552C150.123 43.2552 148.515 45.2733 148.193 45.5538C148.285 45.9769 148.331 46.8683 148.331 47.8072V57.5175C148.331 57.987 147.918 58.41 147.458 58.41H145.023C144.517 58.41 144.149 57.987 144.149 57.5175V47.9011C144.149 44.8977 142.817 43.2552 140.244 43.2552C137.486 43.2552 135.924 45.4611 135.694 46.0708V57.5175C135.694 57.987 135.28 58.41 134.821 58.41H132.247C131.788 58.41 131.374 57.987 131.374 57.5175V40.5347Z" fill="black"/>
<path fill-rule="evenodd" clip-rule="evenodd" d="M178.401 46.7763C178.265 44.5775 176.438 42.7002 174.2 42.7002C171.732 42.7002 169.814 44.4859 169.539 46.7763H178.401ZM174.245 39.1738C178.995 39.1738 182.65 42.7463 182.65 47.6473C182.65 47.9676 182.604 48.5639 182.558 48.8841C182.513 49.3424 182.147 49.6627 181.736 49.6627H169.311C169.448 52.1364 171.594 54.5637 174.564 54.5637C176.208 54.5637 177.716 53.8304 178.63 53.2352C179.178 52.9149 179.498 52.7316 179.863 53.1888L181.143 54.9292C181.462 55.2969 181.599 55.6625 181.051 56.1208C179.726 57.2659 177.351 58.41 174.29 58.41C168.763 58.41 165.108 54.0601 165.108 48.7925C165.108 43.6165 168.763 39.1738 174.245 39.1738Z" fill="black"/>
<mask id="mask0_630_16709" style="mask-type:alpha" maskUnits="userSpaceOnUse" x="0" y="2" width="69" height="86">
<path fill-rule="evenodd" clip-rule="evenodd" d="M68.2818 2.26758H0.48999L0.48999 87.4398H68.2818V2.26758V2.26758Z" fill="white"/>
</mask>
<g mask="url(#mask0_630_16709)">
<path fill-rule="evenodd" clip-rule="evenodd" d="M61.9229 63.1054C61.9229 69.0339 57.1591 73.8836 51.3356 73.8836H17.4337C11.6102 73.8836 6.84636 69.0339 6.84636 63.1054V33.3822C6.84636 30.6932 9.00699 28.4936 11.6484 28.4936H57.1209C59.7623 28.4936 61.9229 30.6932 61.9229 33.3822V63.1054ZM62.066 21.5518H40.3365L51.4253 6.2579C52.232 5.14479 51.9998 3.57667 50.9064 2.75544C49.813 1.9342 48.2726 2.16947 47.4659 3.28258L34.2209 21.5518H33.4883L24.8599 12.7679C23.8995 11.7891 22.3417 11.7891 21.3802 12.7679C20.4198 13.7456 20.4198 15.3315 21.3802 16.3092L26.53 21.5518H6.70384C3.28519 21.5518 0.489014 24.3984 0.489014 27.8787V64.5724C0.489014 73.5128 7.67405 80.8274 16.4561 80.8274H25.1608L22.2349 82.7851C21.099 83.5441 20.7839 85.0978 21.5296 86.2531C22.2763 87.4095 23.8003 87.7313 24.9362 86.9723L34.1228 80.8274H34.6438L43.8849 87.0255C44.3013 87.3052 44.7711 87.4384 45.2355 87.4384C46.0357 87.4384 46.8195 87.0422 47.2926 86.3108C48.0404 85.1567 47.7265 83.603 46.5916 82.8417L43.5883 80.8274H52.3137C61.0958 80.8274 68.2808 73.5128 68.2808 64.5724V27.8787C68.2808 24.3984 65.4847 21.5518 62.066 21.5518Z" fill="#FF20B3"/>
</g>
</svg>
