<svg width="500" height="56" viewBox="0 0 500 56" fill="none" xmlns="http://www.w3.org/2000/svg">
<g clip-path="url(#clip0_427_20894)">
<path d="M31.6146 2.16406V8.25519H35.872V43.2792H42.4945V2.16406H31.6146Z" fill="white"/>
<path d="M24.9108 12.9837V15.1477C17.894 10.0183 8.03911 11.6212 2.91454 18.7542C-2.21002 25.8873 -0.554393 35.9056 6.46232 41.1151C11.9811 45.1224 19.392 45.1224 24.9108 41.1151V43.4393H31.5333V12.9837H24.9108ZM24.9108 28.0512C24.9108 33.2608 20.7323 37.4284 15.6077 37.3482C10.4831 37.3482 6.38348 33.1005 6.46232 27.8909C6.54116 22.6814 10.6408 18.594 15.7654 18.6741C20.8111 18.6741 24.9108 22.8417 24.9108 27.9711V28.0512Z" fill="white"/>
<path d="M101.309 37.188H86.6446L101.23 19.2352V13.144H78.6818V19.2352H93.2671L78.6818 37.188V43.2791H101.309V37.188Z" fill="white"/>
<path d="M62.1256 13.3846H60.4699L69.0634 2.16406H61.1795L49.0382 18.6742C46.673 21.6396 45.4116 25.2462 45.4904 29.0933C45.5693 33.1807 47.3037 37.1079 50.2996 39.8329C53.1379 42.5579 56.9221 44.0806 60.8641 44.0806H61.3372C69.773 43.9203 76.4743 36.8675 76.3167 28.2918C76.0013 20.4374 69.9307 13.9456 62.1256 13.3846ZM61.1795 37.9094C58.8931 38.0697 56.6856 37.2682 55.03 35.6653C53.2167 33.9822 52.1918 31.5778 52.1918 29.0933C52.0341 26.6087 52.9013 24.1242 54.557 22.2007C56.0549 20.5176 58.1836 19.5558 60.4699 19.4757H60.8641C62.9928 19.4757 65.0426 20.2772 66.6194 21.7198C68.4327 23.4029 69.4576 25.8073 69.5365 28.2918C69.8518 33.2609 66.2252 37.5086 61.3372 37.8292L61.1795 37.9094Z" fill="white"/>
<path d="M144.434 43.3592H140.334V8.09475L126.064 32.4593H125.513L111.164 8.09475V43.3592H107.064V1.76318H112.11L125.749 24.9255L139.388 1.76318H144.434V43.3592Z" fill="white"/>
<path d="M179.833 13.6249V43.2791H175.97V37.4284C173.526 41.4357 169.347 44.0004 164.144 44.0004C155.945 44.0004 149.086 37.2681 149.086 28.452C149.086 19.6359 155.945 12.9036 164.144 12.9036C169.347 12.9036 173.526 15.4682 175.97 19.4756V13.6249H179.833ZM175.97 28.5321C175.97 21.9601 170.924 16.7506 164.459 16.7506C157.994 16.7506 152.949 21.88 152.949 28.5321C152.949 35.1843 157.994 40.3136 164.459 40.3136C170.924 40.3136 175.97 35.1041 175.97 28.5321Z" fill="white"/>
<path d="M198.754 13.144V16.9109C194.103 16.9109 189.53 19.3955 189.53 26.7689V43.2791H185.667V13.6249H189.53V18.5139C191.58 14.4264 194.97 13.144 198.754 13.144Z" fill="white"/>
<path d="M220.12 43.3592L205.535 29.013V43.3592H201.671V1.76318H205.535V26.7689L219.41 13.6249H224.693L209.634 27.8909L225.323 43.3592H220.12Z" fill="white"/>
<path d="M253.233 28.6123C253.233 29.1733 253.154 29.8946 253.075 30.4556H227.452C228.24 36.5468 232.892 40.2335 239.041 40.2335C243.614 40.2335 246.847 37.9894 248.423 35.1843L251.813 37.1879C249.369 41.1952 244.876 44.0004 238.963 44.0004C229.738 44.0004 223.431 37.4284 223.431 28.452C223.431 19.716 229.66 12.9036 238.647 12.9036C247.714 12.9036 253.233 20.5175 253.233 28.6123ZM227.452 26.6887H249.212C248.423 20.1167 243.693 16.7506 238.726 16.7506C232.655 16.7506 228.24 20.8381 227.452 26.6887Z" fill="white"/>
<path d="M263.245 17.472V35.4248C263.245 40.5541 266.005 40.0733 271.681 39.913V43.3593C263.797 44.5615 259.382 42.5578 259.382 35.4248V17.472H253.233V13.625H259.382V6.57207L263.245 5.36987V13.625H271.681V17.3918H263.245V17.472Z" fill="white"/>
<path d="M306.449 28.5321C306.449 37.3482 299.59 44.0805 291.391 44.0805C286.187 44.0805 282.009 41.5158 279.565 37.5085V55.2209H275.702V13.6249H279.565V19.4756C282.009 15.4682 286.187 12.9036 291.391 12.9036C299.59 12.9036 306.449 19.716 306.449 28.5321ZM302.586 28.5321C302.586 21.9601 297.54 16.7506 291.075 16.7506C284.611 16.7506 279.565 21.88 279.565 28.5321C279.565 35.1843 284.611 40.3136 291.075 40.3136C297.54 40.3136 302.586 35.1041 302.586 28.5321Z" fill="white"/>
<path d="M310.549 0H314.412V43.3592H310.549V0Z" fill="white"/>
<path d="M349.18 13.6249V43.2791H345.317V37.4284C342.873 41.4357 338.694 44.0004 333.491 44.0004C325.292 44.0004 318.433 37.2681 318.433 28.452C318.433 19.6359 325.292 12.9036 333.491 12.9036C338.694 12.9036 342.873 15.4682 345.317 19.4756V13.6249H349.18ZM345.317 28.5321C345.317 21.9601 340.271 16.7506 333.806 16.7506C327.341 16.7506 322.296 21.88 322.296 28.5321C322.296 35.1843 327.341 40.3136 333.806 40.3136C340.271 40.3136 345.317 35.1041 345.317 28.5321Z" fill="white"/>
<path d="M353.28 28.532C353.28 19.7159 359.823 12.9836 368.654 12.9836C374.409 12.9836 379.376 16.1094 381.425 20.7578L378.272 22.6012C376.695 19.0748 372.99 16.7505 368.654 16.7505C362.189 16.7505 357.143 21.8799 357.143 28.532C357.143 35.1842 362.189 40.3136 368.654 40.3136C373.069 40.3136 376.616 37.9092 378.508 34.4629L381.741 36.3864C379.376 41.0349 374.409 44.0805 368.654 44.0805C359.823 44.0805 353.28 37.268 353.28 28.532Z" fill="white"/>
<path d="M412.567 28.6123C412.567 29.1733 412.488 29.8946 412.488 30.4556H386.865C387.654 36.5468 392.305 40.2335 398.455 40.2335C403.028 40.2335 406.26 37.9894 407.837 35.1843L411.227 37.1879C408.783 41.1952 404.289 44.0004 398.376 44.0004C389.152 44.0004 382.845 37.4284 382.845 28.452C382.845 19.716 389.073 12.9036 398.061 12.9036C407.048 12.9036 412.567 20.5175 412.567 28.6123ZM386.865 26.6887H408.625C407.837 20.1167 403.106 16.7506 398.139 16.7506C391.99 16.7506 387.575 20.8381 386.865 26.6887Z" fill="white"/>
<path d="M429.123 1.76318V43.3592H422.422V9.13665L414.223 11.541L412.567 5.69036L423.289 1.84333L429.123 1.76318Z" fill="white"/>
<path d="M432.829 22.6011C432.829 9.77771 438.584 1.04175 448.912 1.04175C459.24 1.04175 464.995 9.77771 464.995 22.6011C464.995 35.4246 459.161 44.0804 448.912 44.0804C438.663 44.0804 432.829 35.4246 432.829 22.6011ZM458.215 22.6011C458.215 13.0637 454.983 7.6939 448.833 7.6939C442.841 7.6939 439.451 13.0637 439.451 22.6011C439.451 32.1386 442.762 37.5084 448.833 37.5084C454.983 37.4282 458.215 32.1386 458.215 22.6011Z" fill="white"/>
<path d="M467.912 22.6011C467.912 9.77771 473.668 1.04175 483.996 1.04175C494.245 1.04175 500.079 9.77771 500.079 22.6011C500.079 35.4246 494.245 44.0804 483.996 44.0804C473.746 44.0804 467.912 35.4246 467.912 22.6011ZM493.299 22.6011C493.299 13.0637 490.066 7.6939 483.917 7.6939C477.925 7.6939 474.535 13.0637 474.535 22.6011C474.535 32.1386 477.846 37.5084 483.917 37.5084C490.066 37.4282 493.299 32.1386 493.299 22.6011Z" fill="white"/>
</g>
<defs>
<clipPath id="clip0_427_20894">
<rect width="500" height="55.2209" fill="white"/>
</clipPath>
</defs>
</svg>
