<svg width="141" height="42" viewBox="0 0 141 42" fill="none" xmlns="http://www.w3.org/2000/svg">
<path fill-rule="evenodd" clip-rule="evenodd" d="M4.53867 32.8574H2.90854C1.55779 32.8574 0.462402 31.6875 0.462402 30.245V11.9073C0.462402 10.4647 1.55779 9.29492 2.90854 9.29492H4.27067C5.62142 9.29492 6.71681 10.4647 6.71681 11.9073V30.5312C6.71681 31.8158 5.74152 32.8574 4.53867 32.8574Z" fill="#4B4F54"/>
<path fill-rule="evenodd" clip-rule="evenodd" d="M38.8954 41.9406H37.2652C35.9145 41.9406 34.8191 40.7708 34.8191 39.3283V2.82426C34.8191 1.38173 35.9145 0.211914 37.2652 0.211914H38.6274C39.9781 0.211914 41.0735 1.38173 41.0735 2.82426V39.6145C41.0735 40.8991 40.0982 41.9406 38.8954 41.9406Z" fill="#4B4F54"/>
<path fill-rule="evenodd" clip-rule="evenodd" d="M15.9908 41.9406H14.3607C13.0099 41.9406 11.9146 40.7708 11.9146 39.3283V2.82426C11.9146 1.38173 13.0099 0.211914 14.3607 0.211914H15.7228C17.0736 0.211914 18.169 1.38173 18.169 2.82426V39.6145C18.169 40.8991 17.1937 41.9406 15.9908 41.9406Z" fill="#4B4F54"/>
<path fill-rule="evenodd" clip-rule="evenodd" d="M50.3473 32.8574H48.7171C47.3664 32.8574 46.271 31.6875 46.271 30.245V11.9073C46.271 10.4647 47.3664 9.29492 48.7171 9.29492H50.0793C51.43 9.29492 52.5254 10.4647 52.5254 11.9073V30.5312C52.5254 31.8158 51.5501 32.8574 50.3473 32.8574Z" fill="#4B4F54"/>
<path fill-rule="evenodd" clip-rule="evenodd" d="M27.4432 33.5967H25.8131C24.4623 33.5967 23.3669 32.4269 23.3669 30.9843V13.167C23.3669 11.7238 24.4623 10.5547 25.8131 10.5547H27.1752C28.526 10.5547 29.6214 11.7238 29.6214 13.167V31.2705C29.6214 32.5551 28.6461 33.5967 27.4432 33.5967Z" fill="#4B4F54"/>
<path fill-rule="evenodd" clip-rule="evenodd" d="M80.092 23.0688L78.8032 20.0798H78.7861L77.5137 23.0688H80.092ZM73.1201 26.9455L78.4296 14.7538C78.4808 14.6451 78.5996 14.5547 78.7178 14.5547H78.8879C79.0061 14.5547 79.1249 14.6451 79.1761 14.7538L84.4855 26.9455C84.5873 27.181 84.4514 27.4166 84.1973 27.4166H82.3143C82.0091 27.4166 81.8732 27.3079 81.7202 26.9637L81.1096 25.5326H76.4961L75.8855 26.9819C75.8008 27.1993 75.6137 27.4166 75.2749 27.4166H73.4084C73.1543 27.4166 73.0184 27.181 73.1201 26.9455Z" fill="#4B4F54"/>
<path fill-rule="evenodd" clip-rule="evenodd" d="M97.8179 14.5547C99.5144 14.5547 100.77 15.1163 101.923 16.2396C102.076 16.3847 102.076 16.6014 101.94 16.7465L100.617 18.214C100.498 18.3409 100.311 18.3409 100.193 18.214C99.565 17.6159 98.7338 17.2899 97.9026 17.2899C95.9861 17.2899 94.5779 18.993 94.5779 21.0221C94.5779 23.0323 96.0032 24.699 97.9197 24.699C98.7167 24.699 99.582 24.3912 100.193 23.8295C100.311 23.7209 100.532 23.7209 100.634 23.8478L101.957 25.351C102.076 25.478 102.059 25.7135 101.94 25.8404C100.786 27.0359 99.3279 27.5975 97.8179 27.5975C94.4255 27.5975 91.6943 24.7172 91.6943 21.0943C91.6943 17.4715 94.4255 14.5547 97.8179 14.5547Z" fill="#4B4F54"/>
<path fill-rule="evenodd" clip-rule="evenodd" d="M111.931 14.8443C111.948 14.6809 112.1 14.5547 112.236 14.5547H112.507C112.592 14.5547 112.745 14.6269 112.796 14.7356L116.731 22.5612H116.765L120.7 14.7356C120.751 14.6269 120.904 14.5547 120.989 14.5547H121.26C121.396 14.5547 121.548 14.6809 121.565 14.8443L123.482 27.0177C123.516 27.2533 123.364 27.4159 123.16 27.4159H121.158C121.005 27.4159 120.853 27.2715 120.836 27.1264L120.072 21.529H120.039L117.189 27.3984C117.138 27.5071 116.985 27.5975 116.901 27.5975H116.595C116.494 27.5975 116.358 27.5071 116.307 27.3984L113.441 21.529H113.406L112.66 27.1264C112.643 27.2715 112.507 27.4159 112.338 27.4159H110.336C110.132 27.4159 109.98 27.2533 110.014 27.0177L111.931 14.8443Z" fill="#4B4F54"/>
<path fill-rule="evenodd" clip-rule="evenodd" d="M132.438 15.0796C132.438 14.8987 132.574 14.7354 132.761 14.7354H139.783C139.969 14.7354 140.105 14.8987 140.105 15.0796V17.0541C140.105 17.235 139.969 17.3983 139.783 17.3983H135.084V19.6448H138.952C139.122 19.6448 139.274 19.8075 139.274 19.9891V21.9635C139.274 22.1627 139.122 22.3078 138.952 22.3078H135.084V24.7534H139.783C139.969 24.7534 140.105 24.9161 140.105 25.097V27.0721C140.105 27.253 139.969 27.4164 139.783 27.4164H132.761C132.574 27.4164 132.438 27.253 132.438 27.0721V15.0796Z" fill="#4B4F54"/>
</svg>
