<svg width="234" height="56" viewBox="0 0 234 56" fill="none" xmlns="http://www.w3.org/2000/svg">
<path d="M122.234 26.6617C124.699 26.6617 125.577 28.0886 125.577 29.7672C125.577 32.6487 123.226 34.3833 119.543 34.3833C118.212 34.3833 116.399 34.0756 115.294 33.7399C115.747 31.1101 117.532 26.6617 122.234 26.6617ZM175.405 26.6617C177.672 26.6617 178.748 28.0886 178.748 29.7672C178.748 32.6487 176.398 34.3833 172.714 34.3833C171.383 34.3833 169.542 34.0756 168.465 33.7399C168.947 31.1101 170.958 26.6617 175.405 26.6617ZM225.828 26.8856H231.495C232.259 26.8856 232.742 26.5779 232.912 25.9064C233.166 24.9272 233.62 23.1926 233.76 22.717C233.932 22.1015 233.535 21.626 232.827 21.626H227.217C227.614 20.1153 229.2 15.1913 229.2 11.974C229.2 5.56735 223.449 0.111907 215.262 0.111907C206.028 0.111907 200.022 5.95903 200.022 14.2121C200.022 16.6181 200.957 19.4158 202.147 21.1783C201.666 21.1504 201.156 21.1224 200.618 21.1224C193.621 21.1224 189.201 24.7314 189.201 29.9629C189.201 34.8869 193.309 36.7894 197.161 38.0483C200.588 39.1674 203.733 39.6989 203.733 42.2447C203.733 43.9513 202.005 44.9585 198.605 44.9585C194.584 44.9585 192.346 43.168 191.808 42.4686C192.175 42.1888 192.743 41.5173 192.743 40.3703C192.743 38.8037 191.581 37.5168 189.399 37.5168C187.558 37.5168 186.001 38.9435 185.604 40.79C182.657 43.0841 179.429 44.5668 174.867 44.5668C170.363 44.5668 168.04 42.3566 168.04 37.6286C169.089 37.9364 171.836 38.3001 173.649 38.3001C181.269 38.3001 186.453 35.0269 186.453 28.4803C186.453 24.9551 183.195 21.2623 176.71 21.2623H176.68C168.182 21.2623 163.395 26.3541 161.327 31.9773C160.732 31.8375 160.165 31.7256 159.57 31.5857C160.052 30.3547 160.364 28.8999 160.364 27.3052C160.364 24.5355 158.551 21.2623 153.707 21.2623C150.335 21.2623 147.106 23.3606 144.897 26.4939C145.463 24.4517 145.803 23.0807 145.831 22.9967C145.973 22.4652 145.746 21.8497 144.868 21.8497H139.939C139.231 21.8497 138.721 22.0737 138.523 22.857C138.381 23.3606 136.682 29.7113 135.01 35.894C133.962 39.7548 128.523 44.5668 121.724 44.5668C117.22 44.5668 114.897 42.1888 114.897 37.4887C116.059 37.9364 118.693 38.3001 120.506 38.3001C128.438 38.3001 133.311 35.0269 133.311 28.4803C133.311 24.9551 130.053 21.2623 123.566 21.2623H123.538C113.963 21.2623 108.099 28.3123 107.079 36.2858C106.654 39.6149 103.708 44.1752 100.507 44.1752C98.949 44.1752 98.0708 43.252 98.0708 41.6573C98.0708 40.2863 99.0905 36.9572 100.195 32.7886C100.564 31.3898 101.13 29.2636 101.753 26.8856H106.966C107.731 26.8856 108.184 26.5779 108.382 25.9064C108.637 24.9272 109.09 23.1926 109.232 22.717C109.402 22.1015 109.034 21.626 108.297 21.626H103.17C103.17 21.626 105.521 12.7294 105.578 12.4776C105.804 11.5823 105.011 11.0508 104.161 11.2186C104.161 11.2186 100.195 11.946 99.4589 12.0859C98.7223 12.2258 98.1558 12.6175 97.8725 13.6246C97.8441 13.7645 95.7763 21.5979 95.7763 21.5979H91.6687C90.8755 21.5979 90.4507 21.9057 90.2524 22.5771C89.9974 23.5563 89.5442 25.2909 89.4025 25.7665C89.2325 26.382 89.6008 26.8576 90.3374 26.8576H94.3598C94.3316 26.9694 92.9151 32.1172 91.7537 36.7054C91.2154 38.9156 89.3741 44.0912 86.3997 44.0912C84.6152 44.0912 83.8786 43.2239 83.8786 41.4055C83.8786 38.5238 86.8531 31.3339 86.8531 28.0886C86.8813 23.7802 84.4169 21.2623 79.3462 21.2623C76.145 21.2623 72.8308 23.2207 71.4427 24.9272C71.4427 24.9272 71.8675 23.5284 72.0092 22.9967C72.1509 22.4374 71.8393 21.8778 71.0461 21.8778H66.0887C65.0406 21.8778 64.7572 22.4093 64.5873 22.9967C64.5307 23.2486 62.746 29.8511 61.018 36.2298C59.8566 40.5941 56.9954 44.2312 53.9645 44.2312C52.4064 44.2312 51.6982 43.3079 51.6982 41.7132C51.6982 40.3423 52.6331 36.9851 53.7378 32.8167C55.0975 27.7249 56.2873 23.5563 56.4007 23.0529C56.5706 22.4374 56.259 21.8778 55.4092 21.8778H50.4234C49.5169 21.8778 49.2054 22.3253 49.0071 22.9408C49.0071 22.9408 47.5906 27.9486 46.1177 33.5441C45.0411 37.6006 43.8514 41.7413 43.8514 43.6716C43.8514 47.1407 45.4944 49.7426 50.0268 49.7426C53.5111 49.7426 56.2873 48.0639 58.3835 45.9377C58.0719 47.0847 57.8736 47.8121 57.8454 47.8961C57.6754 48.5675 57.8736 49.1271 58.6952 49.1271H63.7942C64.6724 49.1271 65.0123 48.7913 65.2106 48.0639C65.3805 47.3646 69.2048 33.2083 69.2048 33.2083C70.2245 29.4036 72.6891 26.8856 76.2017 26.8856C77.8731 26.8856 79.2896 27.9207 79.1195 29.9351C78.9496 32.1731 76.1168 40.1466 76.1168 43.6435C76.1168 46.3014 77.1649 49.7426 82.4339 49.7426C86.0315 49.7426 88.6944 48.1199 90.6205 45.9937C91.3287 48.2317 93.1984 49.7426 96.6261 49.7426C102.32 49.7426 105.748 46.5532 107.759 43.3358C109.43 47.0568 113.368 49.7426 119.118 49.7426C124.982 49.7426 129.515 47.3925 132.716 44.2312C132.149 46.3854 131.753 47.8402 131.724 47.952C131.526 48.6235 131.838 49.155 132.687 49.155H137.73C138.41 49.155 138.919 48.8193 139.089 48.1199C139.174 47.7842 139.911 45.1263 140.931 41.3215C142.914 34.0756 146.058 26.5498 150.817 26.5498C152.489 26.5498 153.168 27.4452 153.168 28.844C153.168 29.5154 152.97 30.075 152.8 30.3827C150.506 29.9629 148.636 31.0261 148.636 33.3482C148.636 34.8589 150.307 36.2577 152.602 36.2577C154.33 36.2577 155.775 35.8661 156.936 35.1107C158.012 35.3345 159.145 35.5584 160.307 35.8102C160.137 36.9013 160.052 37.9643 160.052 38.9715C160.052 44.7907 164.669 49.7145 172.545 49.7145C178.72 49.7145 182.657 47.7562 186.368 44.8467C188.124 47.5603 192.572 49.7705 198.38 49.7705C206.34 49.7705 210.872 45.8537 210.872 40.6781C210.872 35.978 206.794 34.2714 202.601 32.8167C199.201 31.6416 196.34 31.0261 196.34 28.7321C196.34 26.8576 197.899 26.0183 200.561 26.0183C202.289 26.0183 203.591 26.382 204.272 26.5498C204.951 28.1726 206.367 29.991 208.804 29.991C210.872 29.991 211.778 28.4522 211.778 27.0255C211.778 22.9967 204.669 22.5771 204.669 13.9044C204.669 8.53289 207.898 4.08459 214.554 4.08459C219.173 4.08459 222.204 6.85429 222.204 11.3306C222.204 15.0235 219.824 21.5979 219.824 21.5979H215.858C215.093 21.5979 214.639 21.9057 214.441 22.5771C214.187 23.5563 213.733 25.2909 213.591 25.7665C213.421 26.382 213.79 26.8576 214.526 26.8576H218.464C218.464 26.8576 214.414 41.0418 214.414 43.6157C214.414 47.0847 216.482 49.6865 220.984 49.6865C227.387 49.6865 231.381 45.7699 233.109 40.0347C233.251 39.587 232.967 39.2233 232.515 39.2233H230.078C229.597 39.2233 229.313 39.4751 229.173 39.9226C228.604 41.965 227.245 44.0912 224.554 44.0912C222.997 44.0912 222.119 43.168 222.119 41.5733C222.119 40.2025 223.082 37.0131 224.242 32.7048C224.838 30.7184 225.828 26.8856 225.828 26.8856ZM59.1767 14.408C59.3468 11.9181 57.4488 9.90375 54.8992 9.90375C52.3497 9.90375 50.1685 11.9181 49.9702 14.408C49.8003 16.8979 51.6982 18.9122 54.2477 18.9122C56.7971 18.9402 59.0068 16.8979 59.1767 14.408ZM23.7104 0C8.21506 0 0 9.81981 0 20.5349C0 25.5147 2.80446 31.6976 7.28024 33.6838C7.96011 33.9916 8.32837 33.8518 8.47 33.2363C8.58332 32.7607 9.20653 30.4666 9.46149 29.3755C9.54647 29.0399 9.51814 28.7321 9.20653 28.3963C7.73348 26.6897 6.54372 23.5563 6.54372 20.6468C6.54372 13.149 12.5209 5.93106 22.7472 5.93106C31.5571 5.93106 37.7326 11.6103 37.7326 19.7516C37.7326 28.9278 32.8319 35.3066 26.4582 35.3066C22.9455 35.3066 20.311 32.5649 21.1326 29.1796C22.1523 25.151 24.1069 20.7867 24.1069 17.877C24.1069 15.2753 22.6339 13.0931 19.5744 13.0931C15.9769 13.0931 13.0874 16.6181 13.0874 21.3463C13.0874 24.3396 14.1639 26.382 14.1639 26.382C14.1639 26.382 10.6229 40.6221 9.97138 43.252C8.8666 47.7562 10.113 55.0301 10.2263 55.6735C10.283 56.0093 10.6796 56.1212 10.9062 55.8415C11.2461 55.3938 15.552 49.3228 16.7417 44.9305C17.1666 43.3358 18.9795 36.8453 18.9795 36.8453C20.1411 38.9715 23.5688 40.734 27.1948 40.734C38.0159 40.734 45.8061 31.3058 45.8061 19.6117C45.8061 8.393 36.1462 0 23.7104 0Z" fill="white"/>
</svg>
