<svg width="192" height="57" viewBox="0 0 192 57" fill="none" xmlns="http://www.w3.org/2000/svg">
<path d="M14.7475 34.9106C18.3296 35.3484 20.6684 37.4638 20.6684 41.0481C20.6684 45.4344 17.6614 48.4131 11.2372 48.4131H0V21.8171H10.9961C16.4941 21.8171 19.7253 24.3253 19.7253 28.8303C19.7253 32.1773 17.5853 34.3295 14.7432 34.8492L14.7475 34.9106ZM5.07512 33.3966H9.96838C12.8527 33.3966 14.5402 32.1691 14.5402 29.6118C14.5402 26.9809 12.8908 25.7042 10.0107 25.7042H5.07512V33.3966ZM5.07512 44.5547H10.5055C13.7578 44.5547 15.4072 43.2003 15.4072 40.7289C15.4072 38.2576 13.7155 36.8664 10.5055 36.8664H5.07512V44.5547Z" fill="white"/>
<path d="M25.7434 25.4666C24.0136 25.4666 22.5757 24.3087 22.5757 22.5165C22.5757 20.7244 24.0136 19.5664 25.7434 19.5664C27.4732 19.5664 28.9577 20.7244 28.9577 22.5165C28.9577 24.3087 27.4774 25.4666 25.7434 25.4666ZM28.281 48.421H23.2058V28.3635H28.281V48.421Z" fill="white"/>
<path d="M39.5061 56.7928C34.6425 56.7928 29.7788 55.3157 29.7788 51.4122C29.7788 49.219 31.6735 47.7297 34.3929 47.345C33.6296 47.153 32.9548 46.7189 32.4764 46.1122C31.998 45.5054 31.7436 44.7611 31.7539 43.998C31.7539 42.1241 33.2383 40.8515 35.0908 40.3728C33.9537 39.8796 32.9919 39.0733 32.3256 38.0546C31.6592 37.0358 31.3177 35.8498 31.3436 34.6444C31.3436 30.34 34.8032 27.9095 39.9925 27.9095C42.0364 27.8479 44.0549 28.361 45.8035 29.3866C46.6494 28.7074 46.9962 27.394 47.1611 26.1133L51.3904 27.5085C51.2401 28.4121 50.8113 29.2506 50.16 29.9143C49.5087 30.578 48.6654 31.0359 47.7405 31.2279C48.412 32.2365 48.7567 33.4163 48.7302 34.6158C48.7302 39.0021 45.0634 41.3507 39.9967 41.3507C39.0139 41.3557 38.0337 41.2541 37.0743 41.0479C36.2284 41.408 35.8393 41.9236 35.8393 42.6846C35.8393 43.5602 36.5372 43.9571 37.6114 43.9571H43.2533C48.3284 43.9571 50.9125 46.0316 50.9125 49.6569C50.9125 54.976 45.1057 56.7928 39.4934 56.7928H39.5061ZM39.5738 53.6012C43.4478 53.6012 46.3702 52.607 46.3702 50.4138C46.3702 49.0595 45.3002 48.3025 43.1179 48.3025H37.2392C35.4249 48.3025 34.1476 49.1781 34.1476 50.692C34.1476 52.7379 36.5372 53.6012 39.5865 53.6012H39.5738ZM40.0094 38.2983C42.3186 38.2983 43.7608 37.0258 43.7608 34.6158C43.7608 32.2058 42.3186 30.9906 40.0094 30.9906C37.7002 30.9906 36.2623 32.2672 36.2623 34.6158C36.2623 36.9644 37.7045 38.2983 40.0094 38.2983Z" fill="white"/>
<path d="M62.3227 48.7403C55.8984 48.1429 51.6987 43.0815 51.6987 35.1109C51.6987 26.5838 56.4736 21.3997 63.6422 21.3997C70.8108 21.3997 75.5476 26.5838 75.5476 35.1109C75.5476 43.2002 71.2633 48.2616 64.7545 48.7812C65.4565 51.7272 67.8038 52.9261 71.7159 52.607L71.2633 54.6773C65.6215 55.1152 62.9444 52.4474 62.3227 48.7403ZM54.287 35.1109C54.287 42.0668 57.6705 46.7886 63.638 46.7886C69.6055 46.7886 72.9423 42.0463 72.9423 35.1109C72.9423 28.1755 69.6139 23.4537 63.6422 23.4537C57.6705 23.4537 54.2913 28.1959 54.2913 35.1314" fill="white"/>
<path d="M92.3546 44.0392C91.4876 47.0261 88.9712 48.8183 85.5878 48.8183C82.0902 48.8183 79.2439 46.8666 79.2439 42.4434V28.4949H81.625V42.0834C81.625 45.234 83.3167 46.9075 86.1587 46.9075C89.5422 46.9075 92.1305 44.5547 92.1305 39.8125V28.4949H94.5623V48.4132H92.6676L92.3546 44.0392Z" fill="white"/>
<path d="M112.787 42.8807L114.901 43.4413C113.979 47.1852 110.972 48.8219 107.348 48.8219C101.913 48.8219 98.4663 45.2376 98.4663 38.4617C98.4663 32.005 102.01 28.1016 107.348 28.1016C112.334 28.1016 115.011 31.5672 115.011 36.0722C115.021 36.9164 114.925 37.7587 114.724 38.5804H100.767C100.809 43.8423 103.237 46.952 107.356 46.952C110.16 46.952 112.135 45.6344 112.795 42.8848L112.787 42.8807ZM112.63 36.8291C112.666 36.4319 112.68 36.0331 112.672 35.6344C112.672 32.4428 110.816 29.906 107.276 29.906C103.567 29.906 101.22 32.6147 100.847 36.8619L112.63 36.8291Z" fill="white"/>
<path d="M118.843 42.8034C119.338 45.4712 121.6 47.026 124.569 47.026C127.614 47.026 129.716 45.7126 129.716 43.2412C129.716 37.341 117.574 41.4573 117.574 33.7567C117.574 30.2092 120.623 28.0979 124.493 28.0979C128.697 28.0979 131.209 29.8901 131.704 33.5153L129.479 33.8344C129.056 31.3262 127.5 29.8901 124.493 29.8901C121.774 29.8901 119.841 31.2444 119.841 33.5971C119.841 39.3746 131.992 35.152 131.992 43.1226C131.992 46.7069 128.82 48.8182 124.578 48.8182C120.458 48.8182 117.324 46.9074 116.669 43.4008L118.843 42.8034Z" fill="white"/>
<path d="M145.487 47.3859C144.291 48.3236 142.796 48.8298 141.257 48.818C137.84 48.818 135.861 47.1077 135.861 43.6379V30.2867H132.9V28.4946H135.861V24.272L138.25 23.8628V28.4864H144.429V30.2867H138.242V43.4415C138.242 45.8965 139.561 46.8663 141.414 46.8663C142.718 46.8875 143.984 46.4333 144.958 45.5938L145.487 47.3859Z" fill="white"/>
<path d="M149.653 24.35C149.41 24.3535 149.17 24.3092 148.946 24.2199C148.722 24.1305 148.519 23.998 148.35 23.8303C148.18 23.6626 148.048 23.4633 147.961 23.2445C147.874 23.0258 147.833 22.7921 147.843 22.5578C147.846 22.2063 147.957 21.8636 148.162 21.5733C148.367 21.2829 148.656 21.0579 148.993 20.9268C149.33 20.7956 149.7 20.7642 150.056 20.8366C150.411 20.909 150.737 21.0818 150.991 21.3333C151.245 21.5847 151.416 21.9034 151.482 22.249C151.549 22.5947 151.508 22.9516 151.365 23.2747C151.221 23.5977 150.982 23.8724 150.678 24.0638C150.373 24.2552 150.016 24.3548 149.653 24.35ZM150.85 48.4132H148.447V28.4949H150.837L150.85 48.4132Z" fill="white"/>
<path d="M163.617 48.8219C158.305 48.8219 154.736 45.078 154.736 38.4617C154.736 31.8455 158.322 28.1016 163.617 28.1016C168.912 28.1016 172.499 31.8455 172.499 38.4617C172.499 45.078 168.912 48.8219 163.617 48.8219ZM163.617 29.9346C159.54 29.9346 157.108 32.9625 157.108 38.4617C157.108 43.9609 159.54 46.9888 163.617 46.9888C167.694 46.9888 170.084 43.92 170.084 38.4617C170.084 33.0034 167.694 29.9346 163.617 29.9346Z" fill="white"/>
<path d="M178.53 32.9996C179.477 30.0904 182.112 28.0896 185.656 28.0896C189.361 28.0896 192 30.2418 192 34.5054V48.4171H189.61V35.0291C189.61 31.9235 188.003 30.1191 184.996 30.1191C181.659 30.1191 178.775 32.3531 178.775 37.0749V48.413H176.39V28.4947H178.2L178.53 32.9996Z" fill="white"/>
<path d="M24.3771 0.949463H48.6362L47.3209 4.2801H55.4918L49.6935 18.9447H31.6261L32.9414 15.61H20.6257L29.651 8.31451L24.3771 0.949463Z" fill="white"/>
</svg>
