<svg width="137" height="29" viewBox="0 0 137 29" fill="none" xmlns="http://www.w3.org/2000/svg">
<path fill-rule="evenodd" clip-rule="evenodd" d="M69.5036 23.6205V6.16685L85.4408 17.2334C85.7611 17.4559 86.1274 17.5671 86.4938 17.5671C86.8602 17.5671 87.2265 17.4559 87.5468 17.2334L103.484 6.16685V23.6205H69.5036ZM98.9073 4.42836L86.4936 13.048L74.0799 4.42836H98.9073ZM103.484 0.307617H69.5035H67.5725H65.6421V23.6205V27.7412H69.5035H103.484H107.345V23.6205V0.307617H105.415H103.484Z" fill="#4B4F54"/>
<path fill-rule="evenodd" clip-rule="evenodd" d="M9.59019 17.2833L13.4466 5.92618L17.303 17.2833H9.59019ZM10.1461 0.307617L0.579346 26.7011H6.58658L8.14366 22.2298H18.7489L20.2693 26.7011H26.2766L16.7465 0.307617H10.1461Z" fill="#4B4F54"/>
<path fill-rule="evenodd" clip-rule="evenodd" d="M47.2224 5.29321C49.7813 5.29321 52.006 6.99463 53.0439 9.1315L57.5679 6.75734C55.8251 3.47316 52.6731 0.307617 47.2224 0.307617C39.8058 0.307617 34.0582 5.84732 34.0582 13.9594C34.0582 22.0714 39.8058 27.6111 47.2224 27.6111C52.6731 27.6111 55.7879 24.4058 57.5679 21.1216L53.0439 18.7872C52.006 20.9632 49.7813 22.6255 47.2224 22.6255C42.7356 22.6255 39.4723 18.945 39.4723 13.9594C39.4723 8.97309 42.7356 5.29321 47.2224 5.29321Z" fill="#4B4F54"/>
<path fill-rule="evenodd" clip-rule="evenodd" d="M135.574 5.25412V0.307617H118.071V26.7018H135.574V21.7553H123.337V15.7801H135.314V10.8336H123.337V5.25412H135.574Z" fill="#4B4F54"/>
</svg>
