<svg width="91" height="52" viewBox="0 0 91 52" fill="none" xmlns="http://www.w3.org/2000/svg">
<path fill-rule="evenodd" clip-rule="evenodd" d="M25.9843 20.3669L27.1177 28.7727H24.8509L25.9843 20.3669ZM24.3768 31.9035H27.5712L28.2868 36.804H31.5042L28.1047 15.4834H23.8956L20.4475 36.804H23.6332L24.3768 31.9035Z" fill="#4B4F54"/>
<path fill-rule="evenodd" clip-rule="evenodd" d="M37.7777 36.804C39.0894 36.804 40.2149 36.3222 41.1531 35.3585C42.0913 34.3941 42.5613 33.2205 42.5613 31.8349V28.9272H39.4255V31.8017C39.4255 32.3002 39.2547 32.7246 38.9137 33.073C38.5721 33.4221 38.1617 33.597 37.6818 33.597C37.202 33.597 36.7941 33.4221 36.458 33.073C36.1219 32.7246 35.9542 32.3002 35.9542 31.8017V20.4021C35.9542 19.9036 36.1219 19.4773 36.458 19.1225C36.7941 18.7683 37.202 18.5908 37.6818 18.5908C38.1617 18.5908 38.5721 18.7683 38.9137 19.1225C39.2547 19.4773 39.4255 19.9036 39.4255 20.4021V22.8451H42.5613V20.4684C42.5613 19.095 42.0968 17.9207 41.1691 16.9455C40.2414 15.971 39.1109 15.4834 37.7777 15.4834C36.4549 15.4834 35.3251 15.9678 34.3863 16.9372C33.4475 17.9067 32.9788 19.0842 32.9788 20.4684V31.8349C32.9788 33.209 33.4451 34.3807 34.3783 35.3502C35.3116 36.3196 36.4445 36.804 37.7777 36.804Z" fill="#4B4F54"/>
<path fill-rule="evenodd" clip-rule="evenodd" d="M47.7906 23.4404L50.7131 36.804H53.1406L55.7595 23.4065V36.804H58.7776V15.4834H54.6169L51.9164 30.7993L49.1037 15.4834H44.7725V36.804H47.7906V23.4404Z" fill="#4B4F54"/>
<path fill-rule="evenodd" clip-rule="evenodd" d="M69.8344 33.5738H64.5743V27.7591H68.4175V24.5283H64.5743V18.7136H69.8344V15.4834H61.7261V36.804H69.8344V33.5738Z" fill="#4B4F54"/>
<path fill-rule="evenodd" clip-rule="evenodd" d="M3.59891 48.5816H87.4201V3.70678H3.59891V48.5816ZM0.545166 51.8079H90.4732V0.480469H0.545166V51.8079Z" fill="#4B4F54"/>
</svg>
