<svg width="121" height="84" viewBox="0 0 121 84" fill="none" xmlns="http://www.w3.org/2000/svg">
<path d="M0.00168388 1.46484H18.3761V49.819C18.3761 57.4706 21.946 62.0288 24.7681 63.9821C21.7793 66.5871 12.6476 68.867 5.84137 63.3321C1.82532 60.0671 0 54.7023 0 49.6557V1.46484H0.00168388Z" fill="white"/>
<path d="M114.834 41.6321V36.5502H120.437V18.723H114.281C111.92 8.0203 102.203 0 90.5807 0C77.1939 0 66.3396 10.6421 66.3396 23.7696V65.4017C70.1536 65.9271 74.6984 65.3344 78.5645 62.1923C82.5789 58.9289 84.4025 53.5641 84.4025 48.5158V46.9835H93.5797V29.1563H84.4025V23.7696H84.4244C84.4244 20.4355 87.1809 17.7329 90.5807 17.7329C93.9821 17.7329 96.747 20.4355 96.747 23.7696V41.6321C96.747 54.7596 107.613 65.4017 121 65.4017V47.6672C117.6 47.6672 114.834 44.9645 114.834 41.6321Z" fill="white"/>
<path d="M45.2424 18.7227V44.885C45.2424 46.3719 43.9862 47.5742 42.4353 47.5742C40.8862 47.5742 39.6283 46.3719 39.6283 44.885V18.7227H21.4475V49.4921C21.4475 55.0287 23.3621 62.0286 32.0728 64.3085C40.7952 66.5902 45.8553 61.8669 45.8553 61.8669C45.3939 64.9787 42.405 67.257 37.5891 67.7453C33.9452 68.1158 29.2876 66.932 26.9639 65.9554V82.257C32.8861 83.9695 39.1484 84.5218 45.2794 83.3566C56.4031 81.2399 63.4232 72.1234 63.4232 59.9945V18.7227H45.244H45.2424Z" fill="white"/>
</svg>
