<svg width="93" height="46" viewBox="0 0 93 46" fill="none" xmlns="http://www.w3.org/2000/svg">
<path fill-rule="evenodd" clip-rule="evenodd" d="M49.4227 28.3082C50.3494 28.3082 51.2296 27.5729 51.5078 27.0823V25.5136C51.3687 25.4154 50.7197 25.1211 49.8858 25.1211C48.7743 25.1211 48.0096 25.734 48.0096 26.7394C48.0096 27.6219 48.5654 28.3082 49.4227 28.3082ZM49.7011 23.603C50.6735 23.603 51.5308 23.8973 51.5308 23.8973C51.5537 22.3528 51.2761 21.7399 50.0943 21.7399C49.0291 21.7399 47.9864 22.0343 47.4999 22.1808C47.2223 22.2547 47.0603 22.0585 46.9905 21.789L46.8051 20.8817C46.7358 20.5631 46.8978 20.3917 47.1061 20.3178C47.2686 20.2445 48.589 19.7539 50.3032 19.7539C53.2684 19.7539 53.546 21.666 53.546 24.1178V29.3393C53.546 29.5846 53.3377 29.8051 53.1059 29.8051H52.4574C52.2491 29.8051 52.1564 29.707 52.0637 29.4617L51.8319 28.7997C51.3225 29.3151 50.4188 30.0498 48.9828 30.0498C47.2452 30.0498 45.9946 28.7997 45.9946 26.7652C45.9946 24.9754 47.3379 23.603 49.7011 23.603Z" fill="#4B4F54"/>
<path fill-rule="evenodd" clip-rule="evenodd" d="M60.3127 19.7539C61.68 19.7539 62.7333 20.3668 63.5628 21.494C63.7196 21.7151 63.6747 22.0094 63.4731 22.1808L62.7333 22.9161C62.4641 23.1857 62.3074 22.99 62.1285 22.818C61.7248 22.328 61.0747 21.8865 60.3354 21.8865C58.8783 21.8865 57.7348 23.2347 57.7348 24.9021C57.7348 26.5932 58.8556 27.942 60.3127 27.942C61.4557 27.942 61.9264 27.3043 62.3971 26.8143C62.5987 26.5932 62.8003 26.5932 63.0024 26.7652L63.6071 27.3043C63.832 27.5005 63.9211 27.7458 63.7644 27.9911C63.0473 29.2412 61.8367 30.0498 60.29 30.0498C57.7796 30.0498 55.6055 27.8681 55.6055 24.9264C55.6055 22.0337 57.8245 19.7539 60.3127 19.7539Z" fill="#4B4F54"/>
<path fill-rule="evenodd" clip-rule="evenodd" d="M66.5894 20.4823C66.5894 20.231 66.7996 20.0052 67.0336 20.0052H67.688C67.8988 20.0052 68.0155 20.1305 68.0854 20.3061L68.343 21.1604C68.5533 20.934 69.6289 19.7539 71.4288 19.7539C72.785 19.7539 73.767 20.3315 74.4451 21.3608C74.7022 21.0847 76.0579 19.7539 77.8347 19.7539C80.6871 19.7539 81.6921 21.9136 81.6921 24.5249V29.5721C81.6921 29.8233 81.5056 30.0498 81.2479 30.0498H79.939C79.682 30.0498 79.4948 29.8233 79.4948 29.5721V24.425C79.4948 22.8424 78.8167 21.9384 77.554 21.9384C76.1278 21.9384 75.3099 23.0186 75.1458 23.1687C75.1926 23.3952 75.2163 23.8723 75.2163 24.3748V29.5721C75.2163 29.8233 75.006 30.0498 74.7721 30.0498H73.5331C73.276 30.0498 73.0889 29.8233 73.0889 29.5721V24.425C73.0889 22.8175 72.4107 21.9384 71.1018 21.9384C69.6988 21.9384 68.9039 23.1191 68.7872 23.4454V29.5721C68.7872 29.8233 68.5764 30.0498 68.343 30.0498H67.0336C66.7996 30.0498 66.5894 29.8233 66.5894 29.5721V20.4823Z" fill="#4B4F54"/>
<path fill-rule="evenodd" clip-rule="evenodd" d="M90.5148 23.825C90.4453 22.6478 89.5157 21.6426 88.377 21.6426C87.1218 21.6426 86.1456 22.5987 86.0061 23.825H90.5148ZM88.3999 19.7539C90.8168 19.7539 92.6761 21.666 92.6761 24.2892C92.6761 24.4606 92.6531 24.7798 92.6296 24.9512C92.6066 25.1965 92.4205 25.3679 92.2115 25.3679H85.8901C85.9595 26.6919 87.0517 27.9911 88.5624 27.9911C89.3991 27.9911 90.1662 27.5986 90.6313 27.28C90.9098 27.1086 91.0729 27.0105 91.2583 27.2552L91.9095 28.1867C92.072 28.3835 92.1415 28.5792 91.863 28.8245C91.1889 29.4374 89.9802 30.0498 88.4229 30.0498C85.611 30.0498 83.7517 27.7215 83.7517 24.9021C83.7517 22.1318 85.611 19.7539 88.3999 19.7539Z" fill="#4B4F54"/>
<mask id="mask0_598_11917" style="mask-type:alpha" maskUnits="userSpaceOnUse" x="0" y="0" width="35" height="46">
<path fill-rule="evenodd" clip-rule="evenodd" d="M34.4898 0H0L0 45.5871H34.4898V0V0Z" fill="white"/>
</mask>
<g mask="url(#mask0_598_11917)">
<path fill-rule="evenodd" clip-rule="evenodd" d="M31.2553 32.5626C31.2553 35.7357 28.8316 38.3314 25.8689 38.3314H8.62092C5.65816 38.3314 3.2345 35.7357 3.2345 32.5626V16.6536C3.2345 15.2144 4.33374 14.0371 5.67758 14.0371H28.8122C30.1561 14.0371 31.2553 15.2144 31.2553 16.6536V32.5626ZM31.3277 10.3226H20.2726L25.9141 2.1368C26.3245 1.54103 26.2064 0.701718 25.6501 0.262164C25.0939 -0.177391 24.3102 -0.0514643 23.8998 0.54431L17.1612 10.3226H16.7885L12.3987 5.62117C11.9101 5.09726 11.1176 5.09726 10.6284 5.62117C10.1398 6.14447 10.1398 6.99329 10.6284 7.5166L13.2484 10.3226H3.16161C1.42234 10.3226 -0.000244141 11.8462 -0.000244141 13.709V33.3487C-0.000244141 38.134 3.65522 42.049 8.1232 42.049H12.5518L11.0632 43.0968C10.4853 43.5031 10.325 44.3346 10.7044 44.953C11.0843 45.5719 11.8596 45.7442 12.4375 45.3379L17.1113 42.049H17.3764L22.0779 45.3664C22.2897 45.5161 22.5288 45.5874 22.765 45.5874C23.1721 45.5874 23.5709 45.3753 23.8116 44.9839C24.1921 44.3661 24.0323 43.5345 23.455 43.1271L21.927 42.049H26.3661C30.8341 42.049 34.4896 38.134 34.4896 33.3487V13.709C34.4896 11.8462 33.067 10.3226 31.3277 10.3226Z" fill="#4B4F54"/>
</g>
</svg>
