<svg width="61" height="81" viewBox="0 0 61 81" fill="none" xmlns="http://www.w3.org/2000/svg">
<mask id="mask0_630_12450" style="mask-type:alpha" maskUnits="userSpaceOnUse" x="0" y="0" width="61" height="64">
<path fill-rule="evenodd" clip-rule="evenodd" d="M60.7068 0.393555H0.893188L0.893188 63.7186H60.7068V0.393555V0.393555Z" fill="white"/>
</mask>
<g mask="url(#mask0_630_12450)">
<path fill-rule="evenodd" clip-rule="evenodd" d="M50.9124 46.2105C51.1645 44.8532 51.2981 43.4512 51.2981 42.0171C51.2981 38.4285 50.47 35.0408 49.0073 32.0556C50.47 29.071 51.2981 25.6833 51.2981 22.0946C51.2981 20.66 51.1645 19.2585 50.9124 17.9013C54.831 21.2288 57.3466 26.336 57.3466 32.0556C57.3466 37.7758 54.831 42.8823 50.9124 46.2105ZM30.8 60.1606C25.397 60.1606 20.5736 57.4973 17.43 53.3487C18.712 53.6155 20.0363 53.757 21.3908 53.757C24.7811 53.757 27.9804 52.8803 30.8 51.3317C33.6197 52.8803 36.819 53.757 40.2093 53.757C41.5638 53.757 42.8881 53.6155 44.1701 53.3487C41.0265 57.4973 36.2031 60.1606 30.8 60.1606ZM4.25331 32.0556C4.25331 26.336 6.76897 21.2288 10.6875 17.9013C10.4355 19.2585 10.3019 20.66 10.3019 22.0946C10.3019 25.6833 11.13 29.071 12.5927 32.0556C11.13 35.0408 10.3019 38.4285 10.3019 42.0171C10.3019 43.4512 10.4355 44.8532 10.6875 46.2105C6.76897 42.8823 4.25331 37.7758 4.25331 32.0556ZM41.5032 36.2489C41.7553 34.8916 41.8889 33.4902 41.8889 32.0555C41.8889 30.6215 41.7553 29.2194 41.5038 27.8622C42.9031 29.0511 44.1228 30.466 45.1135 32.0555C44.1228 33.6457 42.9031 35.0606 41.5032 36.2489ZM26.8391 43.3878C28.1211 43.6547 29.4454 43.7961 30.7999 43.7961C32.1545 43.7961 33.4788 43.6547 34.7608 43.3878C33.6383 44.8692 32.3019 46.1612 30.7999 47.2094C29.2979 46.1612 27.9615 44.8692 26.8391 43.3878ZM20.0966 27.8622C19.8446 29.2194 19.711 30.6215 19.711 32.0555C19.711 33.4902 19.8446 34.8916 20.0966 36.2489C18.6967 35.0606 17.477 33.6457 16.4863 32.0555C17.477 30.466 18.6967 29.0511 20.0966 27.8622ZM38.5288 32.0555C38.5288 34.4751 38.0755 36.7832 37.2601 38.8956C35.2649 39.7588 33.0847 40.2381 30.7999 40.2381C28.5152 40.2381 26.335 39.7588 24.3398 38.8956C23.5244 36.7832 23.071 34.4751 23.071 32.0555C23.071 29.6367 23.5244 27.3285 24.3398 25.2161C26.335 24.3529 28.5152 23.8736 30.7999 23.8736C33.0847 23.8736 35.2649 24.3529 37.2601 25.2161C38.0755 27.3285 38.5288 29.6367 38.5288 32.0555ZM34.7608 20.724C33.4788 20.4571 32.1545 20.3157 30.7999 20.3157C29.4454 20.3157 28.1211 20.4571 26.8391 20.724C27.9615 19.2419 29.2979 17.9506 30.7999 16.9018C32.3019 17.9506 33.6383 19.2419 34.7608 20.724ZM13.6624 22.0947C13.6624 19.6751 14.1151 17.367 14.9305 15.2546C16.9257 14.392 19.1059 13.9121 21.3907 13.9121C23.5225 13.9121 25.5631 14.3299 27.4477 15.0863C25.0826 17.0835 23.1429 19.6227 21.7969 22.5247C19.0564 23.9491 16.658 26.0026 14.7709 28.5066C14.0565 26.512 13.6624 24.3516 13.6624 22.0947ZM13.6624 42.0171C13.6624 39.7601 14.0565 37.5998 14.7709 35.6052C16.658 38.1092 19.0564 40.1626 21.7969 41.5871C23.1429 44.4891 25.0826 47.0276 27.4477 49.0255C25.5631 49.7818 23.5225 50.1997 21.3907 50.1997C19.1059 50.1997 16.9257 49.7198 14.9305 48.8565C14.1151 46.7442 13.6624 44.436 13.6624 42.0171ZM47.9376 42.0171C47.9376 44.436 47.4849 46.7442 46.6695 48.8565C44.6743 49.7198 42.4941 50.1997 40.2093 50.1997C38.0775 50.1997 36.0369 49.7818 34.1523 49.0255C36.5175 47.0276 38.4571 44.4891 39.8032 41.5871C42.5437 40.1626 44.9421 38.1092 46.8291 35.6052C47.5435 37.5998 47.9376 39.7601 47.9376 42.0171ZM47.9376 22.0947C47.9376 24.3516 47.5435 26.512 46.8291 28.5066C44.9421 26.0026 42.5437 23.9491 39.8032 22.5247C38.4571 19.6227 36.5175 17.0835 34.1523 15.0863C36.0369 14.3299 38.0775 13.9121 40.2093 13.9121C42.4941 13.9121 44.6743 14.392 46.6695 15.2546C47.4849 17.367 47.9376 19.6751 47.9376 22.0947ZM30.8 3.95117C36.2031 3.95117 41.0265 6.61386 44.1701 10.7624C42.8881 10.4956 41.5638 10.3548 40.2093 10.3548C36.819 10.3548 33.6197 11.2308 30.8 12.7801C27.9804 11.2308 24.7811 10.3548 21.3908 10.3548C20.0363 10.3548 18.712 10.4956 17.43 10.7624C20.5736 6.61386 25.397 3.95117 30.8 3.95117ZM60.7068 32.0559C60.7068 23.5079 56.0134 16.099 49.2117 12.5635C45.8728 5.36249 38.8746 0.393555 30.8 0.393555C22.7254 0.393555 15.7272 5.36249 12.3883 12.5635C5.58662 16.099 0.893188 23.5079 0.893188 32.0559C0.893188 40.6045 5.58662 48.0135 12.3883 51.549C15.7272 58.7499 22.7254 63.7189 30.8 63.7189C38.8746 63.7189 45.8728 58.7499 49.2117 51.549C56.0134 48.0135 60.7068 40.6045 60.7068 32.0559Z" fill="#4B4F54"/>
</g>
<path fill-rule="evenodd" clip-rule="evenodd" d="M5.74068 79.3228C6.45538 79.3228 7.13452 78.7793 7.34905 78.4172V77.2587C7.24179 77.186 6.74102 76.9686 6.09803 76.9686C5.24051 76.9686 4.65055 77.4217 4.65055 78.1637C4.65055 78.816 5.07961 79.3228 5.74068 79.3228ZM5.95523 75.8466C6.70549 75.8466 7.36655 76.0639 7.36655 76.0639C7.38463 74.9236 7.1701 74.4706 6.25895 74.4706C5.43698 74.4706 4.63249 74.6879 4.25767 74.7966C4.04314 74.8509 3.91839 74.7063 3.86476 74.5072L3.72134 73.837C3.66771 73.6019 3.79305 73.4756 3.95395 73.4212C4.07869 73.3669 5.09711 73.0049 6.41985 73.0049C8.70677 73.0049 8.9213 74.4163 8.9213 76.2269V80.082C8.9213 80.2634 8.7604 80.4263 8.58142 80.4263H8.08125C7.92036 80.4263 7.84925 80.3537 7.77754 80.1724L7.59916 79.684C7.20566 80.0643 6.50903 80.607 5.40083 80.607C4.06121 80.607 3.09583 79.684 3.09583 78.1817C3.09583 76.86 4.13232 75.8466 5.95523 75.8466Z" fill="#4B4F54"/>
<path fill-rule="evenodd" clip-rule="evenodd" d="M14.3883 73.0039C15.4785 73.0039 16.3179 73.4563 16.9796 74.2889C17.1043 74.4519 17.0688 74.6693 16.9079 74.7956L16.3179 75.3389C16.1034 75.538 15.9786 75.3933 15.8358 75.2663C15.514 74.9043 14.9958 74.5789 14.4064 74.5789C13.2446 74.5789 12.3334 75.5746 12.3334 76.8053C12.3334 78.0543 13.2271 79.05 14.3883 79.05C15.2995 79.05 15.6749 78.5793 16.0504 78.2173C16.2106 78.0543 16.3715 78.0543 16.5324 78.1807L17.0151 78.5793C17.1935 78.724 17.2652 78.9047 17.1399 79.086C16.568 80.009 15.6032 80.6061 14.3703 80.6061C12.369 80.6061 10.6359 78.9957 10.6359 76.8236C10.6359 74.6876 12.4051 73.0039 14.3883 73.0039Z" fill="#4B4F54"/>
<path fill-rule="evenodd" clip-rule="evenodd" d="M18.9268 73.5289C18.9268 73.3482 19.0877 73.1846 19.266 73.1846H19.7662C19.9277 73.1846 20.0169 73.2756 20.0705 73.4019L20.267 74.0179C20.4279 73.8549 21.2498 73.0039 22.6256 73.0039C23.6615 73.0039 24.4124 73.4202 24.9306 74.1626C25.1271 73.9636 26.1636 73.0039 27.5212 73.0039C29.7015 73.0039 30.4692 74.5606 30.4692 76.4433V80.0811C30.4692 80.2624 30.3264 80.4254 30.13 80.4254H29.1296C28.9332 80.4254 28.7904 80.2624 28.7904 80.0811V76.3706C28.7904 75.2303 28.2721 74.5789 27.3067 74.5789C26.2172 74.5789 25.5917 75.3573 25.4663 75.4653C25.5025 75.6289 25.52 75.9726 25.52 76.3346V80.0811C25.52 80.2624 25.3591 80.4254 25.1807 80.4254H24.2334C24.0369 80.4254 23.8941 80.2624 23.8941 80.0811V76.3706C23.8941 75.212 23.3759 74.5789 22.3755 74.5789C21.3035 74.5789 20.6954 75.4293 20.6062 75.6649V80.0811C20.6062 80.2624 20.4453 80.4254 20.267 80.4254H19.266C19.0877 80.4254 18.9268 80.2624 18.9268 80.0811V73.5289Z" fill="#4B4F54"/>
<path fill-rule="evenodd" clip-rule="evenodd" d="M37.3839 76.0097C37.3302 75.1407 36.6155 74.3981 35.7399 74.3981C34.7751 74.3981 34.0249 75.1041 33.9176 76.0097H37.3839ZM35.7582 73.0039C37.6161 73.0039 39.0461 74.4159 39.0461 76.3529C39.0461 76.4793 39.028 76.7143 39.0099 76.8413C38.9924 77.0226 38.8496 77.149 38.6887 77.149H33.8286C33.8823 78.1264 34.7217 79.086 35.8829 79.086C36.5265 79.086 37.1165 78.796 37.4732 78.561C37.6878 78.434 37.8131 78.362 37.9559 78.5427L38.4561 79.2307C38.5815 79.3754 38.6351 79.5201 38.4206 79.7014C37.9023 80.1537 36.9731 80.6061 35.7757 80.6061C33.6141 80.6061 32.1847 78.887 32.1847 76.8053C32.1847 74.7596 33.6141 73.0039 35.7582 73.0039Z" fill="#4B4F54"/>
<path fill-rule="evenodd" clip-rule="evenodd" d="M47.9078 73.0039C48.9979 73.0039 49.8373 73.4563 50.499 74.2889C50.6237 74.4519 50.5882 74.6693 50.4273 74.7956L49.8373 75.3389C49.6228 75.538 49.4981 75.3933 49.3552 75.2663C49.0334 74.9043 48.5152 74.5789 47.9258 74.5789C46.764 74.5789 45.8528 75.5746 45.8528 76.8053C45.8528 78.0543 46.7465 79.05 47.9078 79.05C48.8189 79.05 49.1943 78.5793 49.5698 78.2173C49.7301 78.0543 49.891 78.0543 50.0519 78.1807L50.5346 78.5793C50.7129 78.724 50.7846 78.9047 50.6593 79.086C50.0874 80.009 49.1226 80.6061 47.8897 80.6061C45.8884 80.6061 44.1553 78.9957 44.1553 76.8236C44.1553 74.6876 45.9246 73.0039 47.9078 73.0039Z" fill="#4B4F54"/>
<path fill-rule="evenodd" clip-rule="evenodd" d="M55.5192 79.0506C56.6449 79.0506 57.5386 78.0366 57.5386 76.7882C57.5386 75.5752 56.6449 74.5795 55.5192 74.5795C54.3936 74.5795 53.4999 75.5752 53.4999 76.7882C53.4999 78.0366 54.3936 79.0506 55.5192 79.0506ZM55.5191 73.0039C57.5204 73.0039 59.1287 74.7419 59.1287 76.7876C59.1287 78.8693 57.5204 80.6067 55.5191 80.6067C53.5178 80.6067 51.91 78.8693 51.91 76.7876C51.91 74.7419 53.5178 73.0039 55.5191 73.0039Z" fill="#4B4F54"/>
</svg>
