<svg width="91" height="30" viewBox="0 0 91 30" fill="none" xmlns="http://www.w3.org/2000/svg">
<path d="M-1.29116e-06 0.000104904C10.312 0.000104453 18.1832 9.07335 23.9294 17.636C28.7773 24.86 36.5289 29.5383 45.2642 29.5383C53.9995 29.5383 61.7511 24.86 66.5989 17.6359C72.3451 9.07334 80.2164 0.000101398 90.5283 0.000100947L-1.29116e-06 0.000104904Z" fill="#5BC2E7"/>
<path d="M53.6669 18.2491C53.982 18.5836 54.4922 18.5836 54.8073 18.2491C55.1219 17.9152 55.1224 17.3727 54.8073 17.0382L45.5921 7.25086C45.277 6.91638 44.7664 6.91638 44.4513 7.25086L35.2363 17.0379C34.9212 17.3724 34.9212 17.9144 35.2363 18.2489C35.5514 18.5834 36.0618 18.5834 36.3767 18.2496L45.0218 9.32352L53.6669 18.2491Z" fill="white"/>
</svg>
