<svg width="91" height="30" viewBox="0 0 91 30" fill="none" xmlns="http://www.w3.org/2000/svg">
<path d="M-1.29116e-06 0.000104904C10.312 0.000104453 18.1832 9.07335 23.9294 17.636C28.7773 24.86 36.5289 29.5383 45.2642 29.5383C53.9995 29.5383 61.7511 24.86 66.5989 17.6359C72.3451 9.07334 80.2164 0.000101398 90.5283 0.000100947L-1.29116e-06 0.000104904Z" fill="#5BC2E7"/>
<path d="M36.3761 9.25086C36.061 8.91638 35.5508 8.91638 35.2357 9.25086C34.9211 9.58485 34.9206 10.1273 35.2357 10.4618L44.4509 20.2491C44.766 20.5836 45.2766 20.5836 45.5917 20.2491L54.8066 10.4621C55.1217 10.1276 55.1217 9.5856 54.8066 9.25111C54.4915 8.91663 53.9811 8.91663 53.6663 9.25036L45.0212 18.1765L36.3761 9.25086Z" fill="white"/>
</svg>
