<svg width="1680" height="360" viewBox="0 0 1680 360" fill="none" xmlns="http://www.w3.org/2000/svg">
<path d="M33.4806 317.134C32.8323 315.609 31.7315 314.319 30.3267 313.439C18.3609 304.95 -10.9571 316.367 5.87538 324.584C7.02875 325.137 8.21177 325.625 9.41905 326.048C20.9124 330.121 35.9257 323.923 33.4806 317.134Z" stroke="#0C6F78" stroke-width="0.75" stroke-miterlimit="10"/>
<path d="M-7.77881 358.349C1.28119 358.656 8.68747 355.209 16.4363 352.848C24.1851 350.486 32.4891 348.609 40.0608 345.882C54.3654 340.723 69.1426 332.588 73.8793 322.659C78.297 313.379 72.698 300.05 62.2796 292.777C50.9044 284.785 33.7531 280.393 23.1338 271.833C17.2277 267.111 14.0857 261.349 8.59297 256.485C5.56903 253.817 4.6713 251.479 2.36791 248.799C-0.0772262 245.942 -2.35699 245.8 -7.74337 247.382" stroke="#0C6F78" stroke-width="0.75" stroke-miterlimit="10"/>
<path d="M-7.77881 392.14C-4.54225 387.051 6.69119 381.809 13.2942 377.972C20.6889 373.797 28.3386 370.091 36.1982 366.874C52.2392 360.086 68.0913 353.037 83.3054 345.623C101.024 337.04 112.482 328.516 107.981 314.254C104.438 302.955 95.4839 291.527 83.4236 282.53C71.8712 273.912 47.3844 268.634 46.1323 256.45C45.5299 250.63 48.92 244.644 51.9085 239.154C53.8339 235.612 56.1136 233.381 52.8889 229.91C50.2075 227.017 45.1519 224.633 41.4546 222.212C28.1304 213.464 17.8302 202.791 20.0745 190.56C22.5787 176.994 38.2181 171.375 53.9048 163.122C62.3033 158.706 68.0795 151.859 63.7444 145.259C60.3306 140.053 49.0027 135.094 47.6088 129.628C45.7543 122.308 61.7835 119.592 70.4655 120.561C80.128 121.623 89.6486 123.217 99.2756 124.398C118.577 126.759 138.445 128.494 157.664 125C175.499 121.701 192.524 114.972 207.795 105.189C235.932 86.6529 239.192 62.887 256.816 41.2579C273.849 20.3491 298.773 0.5618 332.863 -11.2444C347.179 -16.1913 370.319 -26.5926 387.719 -23.1215C404.398 -19.7804 418.124 -5.70731 425.943 3.07654C445.15 24.6466 450.631 47.8576 459.856 71.3048C468.928 94.3625 474.952 117.668 482.37 140.962C486.103 152.685 488.336 164.503 491.324 176.286C494.218 187.679 496.923 199.969 506.302 210.205C514.996 219.65 533.246 229.355 547.55 235.872C563.721 243.239 584.594 244.314 603.848 241.456C643.112 235.648 667.634 213.724 704.098 204.314C712.79 202.244 721.239 199.264 729.306 195.424C740.303 190.04 741.827 186.522 736.582 178.447C729.412 167.396 723.494 156.015 715.178 145.188C706.508 133.937 697.342 124.563 693.656 112.131C690.113 100.325 689.51 89.085 688.766 77.1135C687.278 53.1232 675.678 30.1601 669.866 6.61841C666.831 -5.54202 670.044 -16.4274 676.08 -28.0448C679.552 -34.7507 680.297 -39.9218 676.269 -46.6396C672.855 -52.3302 669.181 -57.9027 666.252 -63.6996C654.912 -86.0724 654.31 -110.382 655.621 -133.581C656.353 -146.308 657.038 -157.111 648.852 -169.118C641.375 -180.074 630.508 -189.79 621.105 -200.144C616.676 -205.02 614.254 -210.428 610.687 -215.493C604.462 -224.383 592.213 -230.935 610.344 -238.302C617.869 -241.36 626.728 -241.1 633.886 -245.091C641.978 -249.601 646.561 -257.039 649.75 -263.19C657.357 -277.794 650.931 -292.918 669.831 -305.196C677.97 -310.462 688.73 -314.039 697.861 -318.596C702.456 -320.958 708.303 -323.319 712.119 -326.082C717.564 -330.013 718.923 -332.681 728.124 -333.413C740.445 -334.393 753.072 -333.047 765.451 -334.169C776.701 -335.276 787.508 -339.119 796.931 -345.361C806.274 -351.43 812.606 -358.927 821.406 -365.278C831.387 -372.492 837.411 -380.095 836.903 -389.517" stroke="#0C6F78" stroke-width="0.75" stroke-miterlimit="10"/>
<path d="M437.957 87.3018L438.039 87.4788" stroke="#0C6F78" stroke-width="0.75" stroke-miterlimit="10"/>
<path d="M897.937 -389.481C895.74 -385.857 894.594 -381.217 890.578 -378.206C886.845 -375.385 880.904 -372.799 876.462 -370.379C866.504 -364.936 850.475 -361.383 844.286 -354.181C837.895 -346.719 834.174 -338.62 826.863 -331.371C811.152 -315.846 787.788 -308.207 760.017 -302.375C746.87 -299.612 733.262 -296.602 723.151 -290.651C713.04 -284.701 709.153 -275.646 705.681 -267.771C701.889 -259.152 707.027 -251.407 705.681 -242.871C704.334 -234.336 691.6 -230.924 683.722 -224.513C665.625 -209.838 672.831 -191.904 693.656 -179.519C703.354 -173.746 715.745 -168.551 714.717 -159.519C713.748 -150.972 706.685 -143.333 700.885 -135.683C688.766 -119.732 675.004 -106.438 680.284 -88.1388C682.671 -79.245 686.995 -70.9884 692.947 -63.9596C699.42 -56.3564 706.224 -49.3789 709.142 -40.9256C712.225 -31.9528 705.374 -24.6802 701.298 -16.3214C699.408 -12.4371 697.022 -8.05703 698.097 -4.05471C699.172 -0.0523903 701.381 4.13885 703.011 8.14117C709.744 24.6699 713.24 41.0806 717.186 57.9281C721.023 75.2869 727.459 91.9678 736.274 107.408C745.582 123.453 751.359 139.002 756.922 155.613C759.545 163.452 771.321 169.45 776.649 177.006C782.295 185.011 782.46 193.594 779.342 202C776.519 209.627 771.203 219.036 760.726 224.148C749.669 229.556 733.298 227.962 720.021 227.631C712.992 227.454 705.444 227.029 698.534 227.95C691.825 228.859 685.671 231.563 679.706 233.534C667.444 237.572 655.703 242.153 643.454 246.214C619.203 254.266 592.897 262.625 564.631 263.676C528.993 265.021 523.359 246.297 507.365 231.881C499.439 224.798 490.91 218.174 485.725 210.063C481.037 202.515 477.326 194.402 474.68 185.92C469.235 169.332 468.774 152.862 459.761 136.593C450.749 120.324 446.603 103.725 438.039 87.4909C430.751 73.7012 425.152 59.6046 418.135 45.7677C414.485 38.403 410.325 31.302 405.685 24.5164C403.378 21.106 400.878 17.8303 398.196 14.7054C391.038 6.54732 376.45 4.29231 362.251 7.01956C339.985 11.2816 326.815 23.076 313.632 33.7253C300.107 44.6579 287.645 56.6294 286.806 70.6434C286.417 77.0306 287.988 84.0789 290.055 90.3363C291.071 93.4885 293.091 95.4602 290.929 98.6006C289.216 101.104 285.46 103.878 282.767 106.074C276.943 110.796 266.454 115.188 258.433 118.707C249.456 122.638 240.018 126.44 230.627 130.005C211.385 137.313 192.639 145.259 173.054 152.189C162.423 155.955 153.529 157.349 141.161 157.301C129.715 157.301 118.872 157.136 107.957 159.45C96.4638 161.882 89.3528 165.825 80.222 170.406C70.8549 175.129 61.724 179.273 55.0973 185.565C41.0998 198.847 57.5779 207.49 69.272 218.776C81.6394 230.677 74.115 244.75 85.3131 257.159C96.1094 269.106 111.713 279.378 122.77 291.397C133.472 302.979 140.252 315.859 146.855 328.433C154.734 343.415 128.522 347.677 111.347 354.005C92.0933 361.089 72.6385 368.078 55.5698 377.027C38.3121 386.071 23.5704 393.981 20.9835 408.243C15.1365 440.415 73.1228 446.424 99.7358 467.038C113.603 477.782 109.753 493.012 103.953 505.326C97.2789 519.411 85.1949 528.738 70.3706 540.001C63.2832 545.42 63.8148 550.685 62.9643 557.167C62.1138 563.649 54.4831 568.761 47.4194 573.294C42.8244 576.222 40.9699 575.868 34.9102 577.084C30.4452 577.97 27.3267 580.118 23.7122 581.807C17.5698 584.746 5.29686 593.011 -2.78271 592.739" stroke="#0C6F78" stroke-width="0.75" stroke-miterlimit="10"/>
<path d="M31.5898 625.773C36.4211 618.004 49.1547 611.605 57.7658 605.336C66.3769 599.067 77.4214 592.939 82.5715 585.265C93.0962 569.492 96.51 552.432 108.216 536.801C119.792 521.323 127.446 504.948 131.049 488.159C132.927 479.434 135.774 470.981 129.289 462.74C123.926 455.963 107.484 450.792 96.6753 447.18C73.5824 439.47 40.6262 429.848 43.8746 410.816C46.7804 393.815 77.5631 382.835 99.274 374.488C121.209 366.059 154.614 358.29 165.257 342.942C175.617 328.007 161.82 307.276 152.028 293.356C141.054 277.736 122.154 264.608 111.098 249.024C99.8292 233.144 98.2464 216.545 83.1739 201.539C79.2168 197.607 77.2678 192.094 84.7568 189.331C90.5212 187.206 98.8252 186.533 105.192 185.01C118.268 181.858 131.285 179.107 144.905 176.923C172.793 172.401 198.06 165.778 224.118 158.399C249.337 151.244 278.891 147.844 301.594 138.021C313.229 133.003 325.042 127.112 331.597 119.273C337.952 111.681 339.145 103.216 339.618 94.8693C340.586 77.5968 335.023 60.3833 354.537 45.7435C365.168 37.7625 380.264 37.8097 387.257 47.5735C392.773 55.2712 391.509 64.3738 393.435 72.5673C395.407 80.9734 400.77 88.8245 404.325 97.0063C407.881 105.188 410.503 113.877 415.5 121.953C420.496 130.028 426.662 137.171 433.36 144.585C440.565 152.543 448.113 159.426 448.716 168.611C449.673 184.668 459.418 202.767 470.155 217.43C475.695 224.998 482.546 232.188 488.251 239.72C494.158 247.607 497.288 256.107 500.666 264.513C502.32 268.622 504.73 272.565 506.572 276.627C508.415 280.688 508.687 285.269 511.746 288.905C518.951 297.441 539.599 292.447 551.388 290.015C578.379 284.548 603.067 275.776 627.435 267.146C649.997 259.153 678.535 248.008 706.022 250.381C734.608 252.849 754.228 269.271 769.584 282.565C773.706 286.107 776.234 290.204 780.841 293.604C785.448 297.004 790.491 300.003 795.157 303.261C804.406 309.696 813.466 316.107 822.125 322.801C829.153 328.243 851.124 337.972 853.959 325.162C854.927 320.853 850.273 316.756 848.915 312.647C847.45 308.185 848.832 304.017 849.683 299.59C851.384 290.617 840.694 283.781 833.145 276.579C825.597 269.377 820.353 261.03 817.967 252.813C813.077 235.978 814.813 219.012 815.321 202.046C816.337 167.808 805.103 134.751 777.061 104.657C763.252 89.8517 749.432 74.4327 744.719 57.538C740.006 40.6432 737.112 23.6186 734.419 6.77111C731.726 -10.0764 737.962 -26.8059 732.304 -43.677C726.646 -60.5481 711.184 -75.3532 702.927 -91.7166C697.801 -101.846 709.082 -107.927 718.649 -115.648C726.918 -122.295 734.454 -129.237 740.159 -136.769C753.153 -153.971 744.884 -169.295 728.087 -184.183C719.453 -191.81 708.172 -198.351 715.389 -207.973C721.425 -216.06 731.17 -222.211 736.072 -230.818C744.707 -245.989 732.954 -268.326 763.89 -276.13C770.234 -277.736 777.699 -277.606 784.326 -276.732C792.015 -275.705 796.551 -272.47 803.544 -270.912C815.982 -268.137 829.744 -278.326 839.052 -282.47C861.944 -292.635 880.395 -305.54 899.412 -318.208C908.401 -324.193 917.579 -330.014 926.639 -335.917C936.089 -342.092 942.326 -349.589 954.174 -354.347C960.08 -356.708 965.171 -358.254 970.05 -361.43C974.928 -364.606 979.499 -367.971 984.567 -371.052C989.15 -373.874 995.34 -375.964 999.616 -378.892C1004.09 -381.961 1005.97 -386.188 1010.44 -389.411" stroke="#0C6F78" stroke-width="0.75" stroke-miterlimit="10"/>
<path d="M141.634 613.79C120.372 614.156 106.421 606.222 110.756 593.648C114.442 582.94 120.277 572.751 125.285 562.267C134.929 541.792 142.698 520.485 148.497 498.608C151.367 487.983 155.407 476.967 155.584 466.224C155.726 454.736 139.389 446.909 124.671 441.076C109.315 434.984 92.3175 431.253 76.7253 425.563C56.3255 418.101 61.3694 407.476 78.3554 399.813C106.953 386.909 140.96 376.496 165.589 360.735C193.241 343.025 189.58 321.101 178.748 299.543C168.117 278.445 145.567 260.948 133.92 240.252C128.463 230.559 125.652 217.714 134.31 208.434C143.618 198.387 160.699 194.09 177.555 189.674C210.912 180.926 245.156 173.275 281.042 169.226C299.209 167.183 316.372 164.81 333.937 161.315C353.226 157.478 368.287 154.61 386.49 161.8C415.902 173.417 429.522 198.163 445.067 216.108C453.335 225.707 464.143 234.774 470.239 244.986C476.475 255.435 479.381 266.308 482.653 277.194C485.819 287.713 490.768 298.929 504.246 306.521C518.267 314.407 538.395 314.336 555.629 310.759C590.027 303.616 616.451 286.592 647.092 275.446C661.514 270.205 680.686 263.959 698.203 265.683C715.721 267.406 730.935 276.828 738.755 285.895C742.948 290.724 745.582 295.977 749.327 300.924C753.071 305.871 758.505 310.145 763.501 314.785C773.769 324.448 785.021 333.011 797.072 340.334C808.967 347.512 823.437 357.11 840.659 359.365C859.818 361.88 872.245 348.409 877.797 339.365C884.258 328.834 880.974 317.996 879.533 307.111C878.092 296.225 876.273 285.741 871.182 275.021C861.33 254.231 850.876 233.074 849.258 211.268C848.443 200.406 850.652 189.544 850.723 178.694C850.817 166.557 854.609 158.14 867.26 148.695C874.347 143.429 878.883 138.884 870.804 133.087C864.898 128.848 856.416 126.357 849.837 122.532C837.08 115.082 826.165 105.932 814.731 97.668C803.084 89.2147 792.217 80.7024 783.393 71.0685C774.298 61.1512 770.919 51.0805 768.592 39.9708C766.189 29.2803 764.437 18.4537 763.348 7.55089C762.426 -3.33447 765.049 -14.2435 764.269 -25.0462C763.879 -30.4534 760.336 -35.6718 758.658 -40.9374C756.981 -46.203 755.197 -51.7637 753.272 -57.1474C749.504 -67.6785 743.822 -78.3278 743.763 -89.1895C743.704 -100.051 753.13 -110.181 760.985 -119.791C769.419 -130.098 775.975 -139.201 776.861 -150.818C777.747 -162.435 777.7 -171.798 768.132 -182.376C763.407 -187.547 758.481 -191.821 758.54 -197.925C758.599 -203.179 761.422 -208.374 764.186 -213.273C777.983 -237.925 811.849 -238.527 852.448 -234.253C872.351 -232.163 886.467 -228.35 904.102 -236.52C917.4 -242.467 929.593 -250.623 940.165 -260.64C949.745 -269.542 964.404 -277.003 975.602 -285.35C987.343 -294.134 997.774 -301.974 1006.74 -311.938C1015.7 -321.902 1029.54 -328.36 1043.59 -335.551C1050.8 -339.234 1056.98 -343.366 1063.92 -347.215C1070.35 -350.757 1078.01 -353.472 1084.61 -356.955C1090.85 -360.249 1096.08 -369.812 1105.62 -370.698C1122.06 -372.209 1119.58 -356.66 1124.06 -350.84C1133.99 -337.853 1170.52 -341.088 1191.15 -341.218C1212.22 -341.347 1218.25 -333.957 1235.15 -327.747C1250.33 -322.174 1268.33 -323.26 1271 -310.037C1273.73 -296.389 1280.19 -282.788 1278.57 -268.987C1277.32 -257.995 1275.83 -247.37 1280.1 -236.579C1284.26 -226.048 1290.16 -215.646 1295.81 -205.375C1300.69 -196.52 1296.87 -180.582 1309.79 -174.124C1325.27 -166.391 1346.97 -174.124 1361.35 -178.716C1378.79 -184.336 1385.9 -193.368 1392.93 -204.1C1399.63 -214.312 1407.75 -223.757 1415.6 -233.686C1423.24 -243.261 1430.54 -253.261 1435.95 -263.391C1438.49 -268.113 1441.74 -273.072 1443.32 -277.995C1447.37 -290.651 1452.37 -306.011 1474.16 -312.517C1485.77 -315.988 1494.09 -312.162 1505.19 -313.449C1511.39 -314.181 1513.3 -317.983 1518.46 -319.175C1529.19 -321.655 1539.26 -316.944 1549.17 -319.494C1559.08 -322.044 1558.99 -328.089 1560.39 -333.555C1561.96 -339.659 1561.57 -345.798 1563.67 -351.855C1565.65 -357.38 1561.17 -369.694 1571.85 -372.044C1579.56 -373.732 1591.93 -369.883 1601.19 -371.005C1609.46 -372.008 1630.45 -374.606 1624.22 -382.067C1619.81 -387.368 1611.09 -384.074 1604.66 -384.239C1595.92 -384.476 1566.69 -384.464 1563.65 -389.481" stroke="#0C6F78" stroke-width="0.75" stroke-miterlimit="10"/>
<path d="M452.037 615.419C457.553 611.617 461.746 606.789 462.42 601.747C463.695 592.196 455.037 580.083 445.788 572.515C423.191 553.991 370.497 553.873 337.552 560.449C299.576 568.04 262.474 575.526 222.312 577.887C208.574 578.702 178.004 581.004 169.795 572.55C161.585 564.097 163.239 549.871 163.074 540.556C162.849 528.749 164.42 516.849 166.511 505.137C168.602 493.425 172.972 481.453 172.004 469.718C171.035 457.983 165.59 448.561 153.34 439.27C143.265 431.631 124.625 423.992 120.55 414.571C118.187 408.998 119.368 406.507 123.692 401.324C128.015 396.142 136.071 391.879 143.111 388.078C157.912 380.203 173.646 373.355 185.741 363.828C211.079 343.887 210.547 322.423 200.389 299.106C195.129 287.465 188.89 276.291 181.737 265.706C174.65 255.01 163.404 244.455 158.609 233.298C153.399 221.161 169.582 213.664 185.836 208.576C203.623 202.9 221.722 198.248 240.042 194.644C275.479 187.891 321.405 182.932 357.255 190.89C376.037 195.057 390.081 203.7 404.032 211.905C417.599 219.695 430.503 228.587 442.611 238.493C454.423 248.445 458.321 259.602 461.864 271.408C465.408 283.215 469.365 294.383 477.15 305.34C484.237 315.233 495.6 327.063 512.976 331.514C530.694 336.048 553.622 333.309 570.454 328.728C607.391 318.681 628.571 296.485 663.051 284.443C680.994 278.185 699.669 277.359 715.497 286.166C729.022 293.699 735.507 306.166 741.319 316.343C748.004 328.055 754.537 337.051 769.432 345.859C783.276 354.017 797.143 362.824 812.83 369.731C828.517 376.638 845.645 380.357 862.949 373.521C878.164 367.464 890.885 358.787 898.977 348.987C907.245 338.928 904.729 328.22 902.154 317.606C899.343 305.965 896.721 294.36 895.067 282.636C893.413 270.913 891.783 259.236 890.189 247.536C888.594 235.836 884.802 224.077 885.747 212.425C886.716 200.512 894.157 189.001 906.513 179.698C918.16 170.926 931.968 163.924 937.934 153.015C943.485 142.862 937.426 132.355 926.665 124.126C914.475 114.799 896.992 110.289 883.55 101.977C876.333 97.5025 871.809 94.8933 862.442 92.0126C853.938 89.5782 845.614 86.5564 837.53 82.969C822.363 75.8852 810.255 65.3304 803.404 54.634C789.418 32.8514 789.938 8.02292 788.532 -14.9638C787.091 -38.6708 775.267 -61.7992 777.464 -85.636C778.563 -97.584 784.256 -108.965 790.21 -120.311C795.68 -131.108 799.79 -142.541 802.447 -154.348C805.152 -165.423 805.341 -178.291 815.181 -188.15C825.753 -198.775 845.763 -202.317 865.276 -203.026C875.092 -203.38 885.357 -202.683 895.032 -204.017C904.706 -205.351 913.648 -208.504 922.4 -211.101C939.942 -216.19 954.92 -223.911 971.74 -229.66C980.092 -232.529 988.644 -234.383 995.908 -238.314C1003.17 -242.246 1005.48 -247.098 1008.1 -252.718C1013.17 -263.58 1020.02 -274.607 1031.3 -283.769C1041.56 -292.116 1059.23 -301.017 1074.53 -305.893C1083.53 -308.767 1092.88 -310.357 1102.32 -310.616C1112.2 -311.006 1118.16 -314.24 1127.24 -315.433C1135.88 -316.614 1146.34 -316.389 1155.22 -316.614C1165.1 -316.909 1174.56 -317.133 1184.33 -316.035C1193.05 -315.055 1200.86 -312.281 1209.07 -310.321C1218.27 -308.148 1226.16 -304.701 1232.08 -299.967C1237.45 -295.681 1238.5 -291.159 1241.53 -286.319C1245.08 -280.723 1249.8 -275.693 1252.59 -269.79C1257.92 -258.633 1259.59 -246.933 1264.11 -235.646C1273.28 -212.671 1274.61 -189.85 1271.49 -166.414C1270.13 -156.249 1275.96 -145.163 1290.62 -139.366C1306.44 -133.05 1326.76 -136.663 1341.16 -142.908C1355.97 -149.343 1368.89 -159.272 1380.2 -167.784C1391.36 -176.181 1401.05 -186.389 1408.84 -197.984C1416.07 -208.504 1421.57 -220.782 1433.65 -229.767C1440.12 -234.562 1447.24 -238.428 1454.79 -241.254C1458.91 -242.777 1463.61 -243.71 1467.28 -245.634C1486.77 -255.882 1506.84 -241.833 1524.86 -249.235C1531.11 -251.797 1530.77 -255.138 1539.04 -252.104C1543.76 -250.416 1543.22 -245.304 1549.34 -244.454C1559.46 -243.025 1559.02 -251.691 1559.67 -255.304C1560.99 -262.694 1558.99 -276.555 1573.35 -276.035C1578.52 -275.858 1582.4 -271.726 1589.3 -271.75C1600.74 -271.75 1607.66 -275.776 1620.47 -274.111C1631.97 -272.635 1643.33 -269.92 1653.89 -272.281C1665.27 -274.819 1676.46 -285.268 1688.25 -285.162" stroke="#0C6F78" stroke-width="0.75" stroke-miterlimit="10"/>
<path d="M508.25 611.487C505.686 599.964 489.728 591.299 479.499 581.901C468.466 571.759 459.784 558.159 443.637 550.449C428.092 543.011 400.924 543.649 382.024 543.649C336.759 543.731 296.362 558.005 251.451 559.587C231.654 560.331 211.928 557.816 199.903 547.616C188.882 538.265 186.236 525.75 185.551 514.558C184.027 489.623 195.922 465.834 179.078 441.867C171.766 431.489 158.324 421.808 152.984 410.958C147.645 400.108 173.561 390.545 184.629 383.544C212.813 365.693 234.796 345.032 229.339 319.72C224.13 295.54 208.077 272.589 203.352 248.339C198.284 222.2 250.4 208.823 286.404 206.191C307.749 204.632 329.66 205.978 348.56 212.342C357.596 215.388 364.199 220.157 372.929 223.416C381.351 226.556 390.505 228.87 398.916 232.058C415.086 238.174 428.801 246.568 436.715 257.076C445.479 268.658 447.169 281.503 452.638 293.675C462.749 316.107 468.903 346.295 513.695 352.482C557.306 358.503 598.743 351.042 626.868 330.204C640.677 319.979 681.665 275.068 708.786 297.146C720.114 306.379 722.406 317.559 725.867 328.492C729.859 341.112 740.809 350.026 757.157 358.137C782.14 370.522 815.793 402.765 855.128 392.729C873.78 388.007 889.573 377.641 903.405 369.117C915.052 361.927 932.628 349.92 931.601 339.223C931.081 333.745 926.687 327.984 924.171 322.695C921.133 316.612 918.517 310.328 916.339 303.887C912.205 290.806 913.126 277.914 915.772 264.738C918.3 252.141 920.946 239.744 920.497 227.029C920.06 215.506 922.257 204.491 938.216 196.734C953.572 189.272 967.167 181.386 981.555 173.322C989.091 169.072 996.722 164.987 1004.9 161.197C1011.91 157.95 1019.86 152.496 1020.74 146.935C1022.61 135.129 1001.28 127.053 989.245 119.911C983.067 116.239 976.381 112.969 970.286 109.285C963.577 105.165 956.477 100.194 948.906 96.6995C941.334 93.2049 931.305 92.1895 922.257 90.6547C912.323 88.9546 902.472 86.6996 892.975 84.2675C873.697 79.3089 853.616 73.7482 841.261 63.2052C816.691 42.2491 816.963 14.953 813.431 -9.663C809.627 -36.1444 800.756 -62.7911 805.824 -89.4142C808.316 -102.472 813.726 -115.234 818.239 -128.068C822.479 -140.134 824.535 -152.861 832.106 -164.443C839.383 -175.541 852.341 -183.841 871.736 -187.418C891.9 -191.137 913.611 -191.361 933.833 -195.21C953.442 -198.953 969.471 -207.583 988.914 -211.739C1008.36 -215.895 1029 -215.918 1047.85 -220.794C1055.73 -222.654 1063.04 -226.434 1069.11 -231.798C1074.21 -236.331 1073.93 -242.99 1075.27 -248.326C1078.1 -259.436 1078.13 -270.439 1088.86 -280.203C1094.56 -285.386 1100.17 -288.904 1110.53 -290.345C1120.48 -291.738 1129.09 -292.989 1138.52 -295.173C1154.38 -298.869 1178.31 -297.724 1193.55 -293.544C1211.63 -288.586 1219.69 -279.023 1229.38 -269.282C1240.01 -258.586 1245.28 -245.091 1249.46 -233.014C1258.08 -207.914 1254.18 -182.908 1256.14 -157.536C1257.03 -145.73 1263.8 -136.285 1272.38 -125.825C1280.65 -115.766 1281.1 -101.197 1293.58 -92.6255C1308.23 -82.5548 1332.41 -92.2241 1346.84 -97.5959C1362.71 -103.499 1363.37 -117.667 1369.82 -127.218C1385.45 -150.547 1408.9 -171.893 1425.83 -194.927C1433.4 -205.245 1440.34 -216.638 1456.99 -222.978C1474.44 -229.625 1492.56 -228.61 1502.48 -217.17C1511.63 -206.544 1517.33 -197.618 1536.6 -192.447C1548.08 -189.366 1553 -192.742 1563.77 -193.215C1575.69 -193.734 1588.18 -190.759 1600.13 -190.346C1611.36 -189.956 1621 -191.798 1632.24 -190.995C1644.88 -190.086 1656.94 -187.595 1669.82 -188.008C1676 -188.197 1682.81 -187.477 1686.82 -184.679C1689.06 -183.147 1691.54 -181.98 1694.15 -181.22" stroke="#0C6F78" stroke-width="0.75" stroke-miterlimit="10"/>
<path d="M540.238 652.632C561.382 631.05 533.931 604.557 510.802 587.592C498.515 578.702 487.043 568.738 476.523 557.816C464.925 545.514 449.481 537.528 432.735 535.172C392.408 528.891 352.187 532.704 312.77 538.997C293.598 542.055 273.577 545.254 253.555 544.759C230.627 544.133 217.339 535.384 209.731 523.011C195.758 500.261 211.929 475.173 204.51 451.725C200.813 440.084 191.978 428.951 189.875 417.145C187.643 404.677 200.506 394.123 212.472 384.63C224.438 375.138 236.852 365.87 247.909 355.977C259.65 345.445 259.284 332.825 254.559 321.006C245.771 299 227.036 273.014 237.585 250.228C248.842 225.919 297.674 214.266 335.319 225.022C344.521 227.654 351.774 231.798 360.35 234.998C368.925 238.197 378.387 240.075 387.246 242.932C405.425 248.835 418.726 257.69 426.616 269.094C434.341 280.263 437.472 292.79 440.507 304.678C443.543 316.567 447.193 328.008 451.138 339.684C453.04 345.304 454.859 350.841 456.312 356.508C458.025 363.226 461.179 365.953 472.849 366.98C492.729 368.822 512.586 370.616 532.312 373.001C552.039 375.386 571.588 378.904 591.374 381.502C613.97 384.512 626.917 376.059 642.78 367.747C650.698 363.43 658.872 359.597 667.255 356.272C678.182 352.092 683.332 351.868 694.424 355.717C712 361.821 729.86 367.925 747.035 374.512C763.289 380.746 775.03 391.183 789.843 398.656C804.089 405.834 824.441 415.763 844.309 411.832C862.689 408.196 878.766 398.396 893.306 391.112C908.662 383.45 925.199 375.835 938.37 366.838C951.541 357.842 957.364 345.127 952.025 333.627C946.556 321.821 936.161 311.266 931.743 299.094C927.326 286.922 933.338 275.564 940.012 264.065C946.45 253.002 952.781 240.984 954.931 229.307C956.112 223.168 956.407 217.501 962.633 212.165C968.113 207.442 978.473 203.534 985.938 199.863C1001.66 192.129 1016.65 185.211 1034.37 179.249C1050.69 173.794 1069.55 167.124 1074.7 155.743C1079.85 144.361 1070.43 132.13 1055.72 124.869C1040.01 117.16 1023.77 110.23 1007.03 103.276C990.781 96.5225 975.602 88.5532 958.026 83.0279C924.42 72.4731 870.721 74.3149 854.456 49.9704C847.085 38.9198 846.057 26.3579 843.707 14.6816C841.273 2.55654 838.557 -9.53306 835.663 -21.6227C829.981 -45.4595 826.036 -69.1782 832.202 -93.1331C835.249 -104.939 839.466 -116.746 842.726 -128.552C845.904 -140.157 847.333 -153.534 857.574 -163.864C869.115 -175.505 885.664 -179.319 907.576 -180.393C917.51 -180.877 927.763 -180.393 937.555 -181.574C947.548 -182.754 956.1 -186.036 964.889 -188.953C982.808 -194.856 1000.8 -200.759 1021.27 -202.967C1040.95 -205.033 1060.86 -199.318 1078.92 -195.47C1088.09 -193.51 1098.08 -192.01 1104.13 -197.831C1109.16 -202.553 1107.95 -208.775 1109.44 -214.1C1111.11 -220.121 1114.25 -225.646 1113.52 -231.809C1112.79 -237.972 1109.36 -243.344 1112.12 -249.519C1117.72 -262.222 1125.67 -271.478 1144.8 -278.763C1161.91 -285.28 1185.73 -279.943 1200.02 -272.86C1215.13 -265.481 1224.59 -252.411 1230.26 -241.479C1236.26 -229.92 1238.91 -218.185 1240.89 -206.202C1244.93 -182.211 1237.92 -157.572 1246.52 -133.912C1250.91 -121.81 1253.96 -110.76 1253.01 -98.316C1252.56 -92.3421 1250.53 -86.4035 1250.25 -80.4414C1249.97 -74.4792 1252.61 -68.5289 1255.33 -62.8501C1257.91 -56.968 1260.8 -51.2226 1263.97 -45.6366C1266.76 -40.9849 1268.13 -33.2046 1278.48 -32.7795C1296.2 -32.0712 1306.98 -49.2257 1314.91 -56.1677C1325.99 -65.8725 1340.64 -74.8452 1355.6 -82.4366C1371.83 -90.701 1380.9 -100.229 1390.02 -111.456C1398.82 -122.295 1405.07 -134.361 1411.08 -145.836C1417.1 -157.312 1425.26 -168.268 1434.35 -178.894C1442.45 -188.492 1451.64 -202.872 1470.17 -206.827C1489.42 -210.936 1495.2 -190.299 1499.46 -182.53C1504.27 -173.817 1508.12 -158.363 1522.12 -153.227C1539.39 -146.875 1560.58 -154.467 1578.19 -152.212C1588 -150.96 1595.24 -153.475 1604.96 -153.168C1613.43 -152.896 1623.21 -153.557 1631.22 -152.141C1641.85 -150.252 1650.26 -151.078 1660.75 -150.594C1666.56 -150.323 1668.1 -149.909 1673.49 -151.362C1677.92 -152.542 1680.5 -153.404 1685.62 -152.247" stroke="#0C6F78" stroke-width="0.75" stroke-miterlimit="10"/>
<path d="M1685.71 176.144C1665.2 178.411 1631.57 184.515 1613.45 176.262C1595.13 167.903 1583.13 152.39 1561.06 147.29C1539.26 142.249 1511.85 138.329 1488.48 139.521C1465.1 140.714 1441.43 146.251 1419.46 150.973C1407.99 153.441 1394.82 155.283 1384.28 158.99C1373.37 162.827 1367.17 169.037 1360.22 175.046C1353.92 180.489 1346.41 187.443 1336.01 190.028C1330.44 191.536 1324.68 192.267 1318.91 192.201C1312.5 192.024 1307.01 189.922 1300.62 189.934C1287.27 189.934 1276.64 190.654 1263.49 187.974C1251.68 185.554 1241.77 181.977 1229.02 181.339C1217.21 180.749 1205.48 180.513 1193.72 179.639C1181.03 178.706 1170.09 179.639 1157.49 180.206C1143.01 180.808 1133.28 178.376 1126.78 170.607C1121.27 164.102 1118.71 156.959 1115.87 149.899C1113.13 143.063 1109.6 136.322 1106.65 129.51C1102.93 120.915 1100.14 117.101 1086.94 112.65C1065.38 105.378 1042.61 99.7814 1021.88 91.5407C1001.8 83.5596 982.678 75.2362 960.223 69.6873C938.004 64.2092 911.686 61.1396 891.712 52.9342C879.994 48.1173 877.667 43.383 875.812 35.2249C874.159 28.0349 873.828 20.774 872.091 13.584C865.122 -15.235 848.313 -42.8381 852.011 -72.4009C853.853 -87.2059 860.161 -101.385 864.862 -115.907C869.41 -129.956 869.221 -144.454 876.58 -158.126C880.348 -165.115 889.68 -171.007 902.791 -170.676C915.348 -170.369 927.597 -167.902 940.26 -169.342C963.388 -171.987 983.564 -182.329 1005.17 -187.594C1032.18 -194.147 1050.5 -185.658 1073.8 -178.244C1083.78 -175.068 1097.17 -171.632 1106.66 -177.122C1115.06 -181.975 1118.93 -190.239 1120.83 -196.898C1125.03 -211.431 1125.56 -226.343 1129.27 -240.888C1132.63 -254.253 1148.97 -271.265 1175.34 -266.2C1199.81 -261.478 1211.95 -246.201 1219.04 -232.6C1222.58 -225.788 1224.08 -218.905 1225.49 -211.856C1226.9 -204.808 1230.39 -197.524 1230.84 -190.369C1231.77 -175.67 1227.78 -160.853 1229.49 -146.143C1231.18 -131.692 1232.6 -117.808 1229.49 -103.38C1223.16 -74.6323 1224.49 -45.4118 1224.77 -16.4393C1224.85 -6.59286 1230.26 20.3254 1256.36 13.0763C1267.23 10.0303 1274.71 2.86393 1283.38 -1.9176C1292.05 -6.69913 1300.92 -11.2091 1308.35 -16.8289C1323.46 -28.2573 1333.16 -42.0824 1345.81 -54.5144C1358.14 -66.6867 1371.93 -79.095 1388.24 -89.4845C1404.88 -100.11 1423.62 -109.614 1432.28 -123.723C1440.54 -137.17 1438.36 -153.451 1450.15 -165.954C1457.71 -173.982 1469.65 -171.396 1472.7 -163.085C1474.85 -157.182 1469.63 -148.528 1468.87 -142.27C1468.04 -134.801 1468.24 -127.253 1469.47 -119.838C1470.3 -114.561 1471.62 -104.644 1478.92 -100.771C1488.82 -95.4939 1503.46 -100.996 1512.86 -103.664C1523.49 -106.686 1534.69 -108.953 1545.5 -111.81C1568.56 -117.903 1592.05 -122.302 1615.76 -124.974C1626.94 -126.273 1638.28 -124.667 1649.73 -125.623C1661.63 -126.627 1673.53 -127.371 1685.78 -126.544" stroke="#0C6F78" stroke-width="0.75" stroke-miterlimit="10"/>
<path d="M584.014 623.4C573.643 615.974 562.752 608.701 552.334 601.228C541.454 593.435 531.556 585.206 520.322 577.615C514.7 573.802 508.404 570.154 503.254 566.104C498.103 562.054 496.403 557.119 492.623 552.574C459.985 512.645 368.818 518.619 308.989 526.695C292.629 528.903 274.958 531.771 258.067 530.237C239.734 528.56 228.737 519.812 224.449 509.528C220.409 499.812 222.996 489.67 226.28 480.013C229.895 469.387 229.824 460.202 225.477 449.635C221.39 439.801 216.476 430.013 216.11 419.801C215.743 409.589 222.394 399.931 231.903 391.395C242.041 382.214 253.551 374.669 266.016 369.034C279.589 363.013 292.003 355.835 295.984 345.693C299.965 335.552 288.59 326.272 281.809 317.559C274.722 308.397 268.379 299.212 264.481 289.354C256.791 269.921 260.937 245.151 295.748 236.226C312.628 231.893 327.794 236.143 342.737 241.113C357.679 246.084 373.945 250.027 387.895 255.883C418.335 268.646 422.552 289.507 424.986 310.003C426.167 320.121 428.529 330.073 430.892 340.156C432.959 349.117 430.774 361.785 438.865 369.672C448.988 379.518 466.246 380.297 483.657 382.352C500.513 384.323 517.405 386.366 533.446 390.12C548.346 393.436 562.752 398.675 576.301 405.704C582.821 409.246 588.644 413.189 595.354 416.531C601.26 419.482 606.977 424.795 614.785 425.976C629.515 428.136 642.591 413.367 650.139 407.629C660.51 399.742 674.319 392.588 691.482 391.242C725.052 388.609 757.43 404.5 781.196 416.625C794.189 423.284 806.675 430.627 823.271 434.004C843.246 438.065 852.743 432.198 864.685 423.461C885.474 408.231 913.706 393.024 943.473 384.335C958.108 380.061 977.385 376.614 987.367 386.224C996.287 394.616 1004.7 403.529 1012.56 412.918C1028.14 431.926 1027.92 452.209 1018.57 472.173C1009.54 491.382 998.057 510.922 994.277 530.827C990.592 550.236 992.269 572.066 1000.29 591.039C1004.32 600.555 1020.37 608.158 1031.18 615.206" stroke="#0C6F78" stroke-width="0.75" stroke-miterlimit="10"/>
<path d="M1685.71 156.168C1678.54 163.051 1670.5 163.865 1657.56 165.081C1646.66 166.097 1633.5 166.899 1622.87 164.798C1612.23 162.696 1604.52 156.817 1596.74 152.212C1588.65 147.34 1580.25 143.002 1571.59 139.226C1553.28 131.445 1528.85 129.91 1510.02 122.036C1500.7 118.151 1493.39 112.968 1484.89 108.506C1474.17 102.886 1464.68 105.294 1459.36 112.98C1455.3 118.883 1451.02 125.542 1441.43 129.001C1431.84 132.461 1419.32 134.019 1408.72 136.286C1398.13 138.553 1387.14 140.607 1377.17 143.653C1366.63 146.864 1361.05 152.649 1353.09 157.608C1337.39 167.372 1319.11 176.12 1295.02 175.4C1283.44 175.046 1273.15 172.425 1262.9 169.497C1252.65 166.569 1243.16 162.413 1231.61 162.342C1209.47 162.177 1186.26 168.151 1164.62 162.814C1142.73 157.348 1137.68 141.185 1130.66 129.249C1123.76 117.561 1111.53 102.485 1091.46 97.03C1081.42 94.3028 1070.19 93.193 1060.12 90.3949C1050.15 87.6577 1040.38 84.2578 1030.87 80.218C1011.89 72.0835 994.253 64.2087 972.531 58.7188C951.115 53.2997 930.822 50.5961 916.245 39.0259C903.004 28.5066 901.397 12.5918 895.515 0.171621C889.431 -12.6618 882.321 -24.8813 877.796 -38.0334C873.154 -51.7168 870.78 -64.9044 875.174 -78.7531C879.332 -91.8108 888.168 -104.089 892.503 -117.076C895.975 -127.572 892.136 -150.134 912.843 -154.077C923.616 -156.155 935.192 -156.06 945.989 -158.162C956.785 -160.263 966.884 -163.239 977.09 -166.037C987.296 -168.835 997.466 -171.786 1007.8 -174.384C1020.07 -177.453 1027.88 -177.926 1039.8 -174.112C1049.75 -170.925 1059.53 -167.548 1069.4 -164.278C1078.68 -161.22 1091.3 -156.627 1102.16 -159.036C1122.12 -163.439 1129.33 -182.058 1132.62 -192.908C1136.73 -206.426 1137.54 -220.062 1143.61 -233.391C1146.43 -239.59 1150.08 -246.638 1159.41 -250.487C1169.88 -254.82 1180.82 -250.758 1188.67 -246.012C1205.11 -236.071 1209.56 -221.42 1211.11 -208.067C1211.94 -201.29 1216.19 -194.974 1217.02 -188.209C1217.8 -181.727 1216.41 -175.222 1216.7 -168.717C1217.34 -155.045 1217.88 -141.314 1215.52 -127.702C1213.16 -114.373 1205.73 -101.61 1203.47 -88.3044C1201.22 -74.9988 1201.72 -61.0438 1202.14 -47.6319C1202.55 -34.22 1200.96 -20.6664 1201.83 -7.20728C1202.74 5.85043 1203.6 20.4429 1214.71 32.0367C1219.87 37.4203 1228.56 43.8429 1238.86 45.7201C1252.54 48.1876 1257.49 41.0802 1263.32 35.0945C1274.78 23.4299 1286.8 12.2258 1302.92 2.6037C1319.04 -7.01839 1330.68 -18.5059 1342.92 -29.8989C1349.19 -35.743 1356.19 -41.3037 1362.81 -47.018C1369.08 -52.4488 1372.95 -58.8242 1378.52 -64.503C1390.14 -76.4273 1405.23 -86.1439 1429.51 -88.0211C1443.15 -89.0836 1451 -85.9904 1460.53 -80.8192C1469.71 -75.837 1480.13 -74.9869 1491.99 -76.5218C1513.39 -79.2844 1534.2 -85.2702 1554.59 -90.0281C1566.05 -92.7199 1576.83 -92.7435 1588.53 -94.2902C1599.94 -95.7896 1610.77 -95.2465 1621.81 -96.6514C1627.53 -97.3834 1630.72 -96.191 1636.31 -95.8604C1642.12 -95.6498 1647.94 -95.7641 1653.74 -96.2028C1664.44 -96.9056 1675.18 -96.0747 1685.64 -93.7353" stroke="#0C6F78" stroke-width="0.75" stroke-miterlimit="10"/>
<path d="M603.009 611.334C591.08 606.817 579.639 601.105 568.86 594.286C549.299 581.96 526.69 567.993 515.787 552.126C512.929 547.982 511.747 543.613 507.223 539.942C502.392 536.177 497.125 533.006 491.537 530.497C479.022 524.677 465.934 520.178 452.485 517.073C425.991 510.981 393.708 509.47 365.476 509.611C335.202 509.777 306.285 514.735 276.329 515.963C260.111 516.636 246.976 514.464 242.771 504.251C238.802 494.653 243.149 486.743 251.63 478.585C255.174 475.161 263.56 472.304 263.241 468.467C262.922 464.63 257.134 459.789 254.17 456.471C247.582 449.092 242.602 440.424 239.546 431.017C233.64 413.084 245.854 395.799 269.289 384.288C281.031 378.538 296.457 376.272 307.903 370.321C318.145 364.997 321.795 354.076 324.441 346.366C330.985 326.992 306.285 313.746 293.386 297.866C286.984 289.98 283.547 280.665 286.582 271.999C289.24 264.419 296.398 253.9 309.427 250.748C322.184 247.654 340.682 254.419 352.4 257.253C366.079 260.57 380.348 263.959 391.026 270.24C414.651 284.207 405.461 303.061 406.949 320.617C407.693 329.472 411.438 338.185 413.611 346.933C415.856 355.929 417.486 364.772 425.046 372.789C440.307 388.975 473.346 392.375 500.727 397.582C529.076 402.966 556.032 412.068 573.218 426.956C586.72 438.644 589.756 469.388 624.011 464.523C638.434 462.469 649.514 454.76 657.239 447.652C665.425 440.108 674.603 432.942 680.757 424.701C684.065 420.262 686.663 416.803 695.629 416.968C702.905 417.109 709.969 418.892 716.69 420.356C729.388 423.142 747.461 425.079 758.033 430.285C769.987 436.188 776.46 444.028 791.178 448.313C805.128 452.318 819.793 453.177 834.116 450.828C865.04 445.586 878.908 429.317 900.583 416.673C921.999 404.193 951.683 392.659 977.729 407.771C1024.98 435.149 998.093 475.48 988.537 508.431C979.087 541.04 973.559 583.696 1009.48 611.476" stroke="#0C6F78" stroke-width="0.75" stroke-miterlimit="10"/>
<path d="M1685.71 -24.2324C1683.78 -20.9149 1682.52 -18.0932 1682.75 -14.5749C1682.97 -11.5053 1684.44 -8.5301 1682.4 -5.59035C1677.75 1.06837 1668.72 3.99632 1669.73 12.119C1670.13 15.3539 1672.44 18.0221 1673.88 21.1154C1675.54 24.6572 1674.08 27.2428 1673.07 30.7139C1670.86 38.1754 1677.18 42.5791 1685.71 47.644" stroke="#0C6F78" stroke-width="0.75" stroke-miterlimit="10"/>
<path d="M1009.83 56.4643L1008.7 56.0039" stroke="#0C6F78" stroke-width="0.75" stroke-miterlimit="10"/>
<path d="M1270.96 149.037C1257.42 144.314 1247.67 135.944 1233.16 132.236C1217.54 128.258 1201.95 127.514 1189.63 119.946C1178.5 113.11 1164.66 109.061 1154.48 101.339C1143.67 93.1577 1137.84 85.3656 1120.5 81.2688C1105.81 77.786 1089.79 76.8769 1075.27 73.0871C1061.73 69.4258 1048.69 64.0791 1036.47 57.1723C1024.39 50.49 1014.09 43.1701 1000.54 37.4558C987.663 32.0132 974.15 26.9837 964.558 19.3451C954.967 11.7064 948.872 2.81631 942.907 -6.00296C936.941 -14.8222 928.236 -23.2637 923.168 -32.3545C912.537 -51.4924 915.254 -69.2962 925.082 -88.2807C929.807 -97.5014 934.532 -106.285 937.461 -115.813C938.642 -119.78 938.831 -125.706 942.895 -129.083C946.958 -132.46 956.892 -134.301 963.047 -136.167C993.144 -145.175 1022.82 -148.906 1055.88 -143.947C1086.69 -139.343 1121.6 -132.613 1142.82 -151.243C1147.24 -155.102 1151.4 -159.243 1155.29 -163.64C1158.83 -167.701 1164.62 -171.397 1165.1 -176.096C1165.57 -180.794 1162.3 -185.623 1161.34 -190.322C1160.38 -195.021 1161.42 -199.637 1162.92 -204.194C1164.65 -209.425 1168.02 -211.089 1174.88 -214.194C1184.33 -206.662 1188.02 -197.571 1185.51 -188.339C1184.33 -183.876 1180.78 -179.083 1180.18 -174.691C1179.66 -170.677 1184.67 -165.895 1186.01 -161.786C1189.24 -151.881 1189.04 -144.573 1183.94 -134.809C1179.38 -126.096 1172.94 -117.607 1169.15 -108.765C1161.7 -91.4094 1165.74 -71.7401 1165.87 -53.9481C1166 -35.7665 1167.67 -17.5258 1168.17 0.679385C1168.43 9.87645 1166.83 18.9791 1166.87 28.1525C1166.87 36.9127 1165.4 47.0425 1168.52 55.6375C1172.06 65.5665 1185.49 70.0765 1198.57 75.3775C1211.35 80.5486 1223.44 86.2629 1238.99 88.1401C1253.07 89.8284 1271.37 87.9275 1283.64 83.4176C1297.23 78.4589 1300.42 68.4827 1302.73 59.746C1305.18 50.4663 1305.41 41.6471 1311.78 32.9104C1317.89 24.528 1326.56 16.8303 1335.4 9.35699C1344.25 1.88363 1352.7 -5.80226 1361.39 -13.3583C1370.08 -20.9143 1380.51 -27.7146 1389.28 -35.2588C1397.55 -42.3426 1404.21 -52.2835 1416.6 -57.2185C1429.78 -62.4722 1447.48 -56.6281 1460.05 -53.1453C1473.61 -49.3791 1491.02 -51.5869 1505.51 -52.2834C1520.85 -53.2272 1536.23 -53.3257 1551.58 -52.5786C1566.94 -51.6341 1582.13 -50.8313 1596.99 -48.1631C1609.58 -45.9081 1623.42 -37.5374 1631.84 -31.6343C1652.96 -16.7112 1640.44 4.51642 1628.74 20.3132C1621.72 29.7914 1612.42 37.3416 1601.7 42.261C1588.45 48.3176 1582.71 56.0389 1584.18 66.1686C1585.8 77.3256 1595.99 81.3751 1611.72 85.8496C1625.49 89.7575 1639.1 95.4481 1642.27 105.035C1645.01 113.299 1638.35 124.185 1625.74 128.647C1609.64 134.397 1596.74 129.356 1584.3 123.323C1571.86 117.29 1558.31 113.878 1545.32 108.825C1532.47 103.854 1522.37 96.4399 1513.43 89.1436C1504.48 81.8473 1496.23 73.8899 1484.34 67.8923C1468.99 60.1711 1458.29 69.3799 1444.68 73.9844C1430.37 78.8249 1424.44 86.9712 1415.73 94.7752C1406.41 103.17 1395.65 109.824 1383.98 114.421C1370.98 119.71 1359.17 124.798 1348.3 131.693C1337.78 138.399 1328.56 145.861 1314.05 149.781C1300.22 153.488 1284.08 153.736 1270.97 148.942" stroke="#0C6F78" stroke-width="0.75" stroke-miterlimit="10"/>
<path d="M1270.68 138.694C1262.14 131.198 1241.35 118.187 1253.48 108.931C1258.1 105.389 1271.96 104.02 1279.27 103.028C1288.79 101.765 1298.99 101.505 1306.51 97.3136C1320 89.8048 1320.89 75.2241 1323.56 65.0353C1326.47 53.902 1328.63 42.6861 1335.72 32.1785C1350.33 10.5259 1374.7 -6.07372 1397.25 -24.8102C1407.2 -33.0746 1418.68 -47.2421 1438.59 -46.4039C1448.33 -45.9906 1457.27 -42.862 1466.94 -42.0946C1476.28 -41.2918 1485.84 -41.5633 1495.29 -41.5397C1514.63 -41.5397 1533.62 -41.3862 1552.58 -38.8006C1569.91 -36.4394 1591.49 -32.8975 1602.88 -24.0664C1616.17 -13.7596 1615.87 -3.38189 1609.97 8.47158C1606.85 14.6091 1602.29 19.897 1596.68 23.8787C1590.9 28.2116 1583.06 31.3284 1577.85 35.9683C1566.64 45.9446 1564.52 57.1369 1565.58 68.8605C1566.14 75.2949 1577.21 100.844 1556.68 97.9511C1547.62 96.676 1541.55 91.4341 1535.25 87.7741C1528.46 83.6908 1521.9 79.2165 1515.62 74.374C1504.25 65.9444 1489.06 55.8382 1468.62 58.6127C1459.51 59.8524 1451.77 63.9491 1444.29 67.0778C1436.55 70.3127 1427.82 73.1462 1420.57 76.7353C1405.8 84.0315 1396.55 94.7398 1381.13 101.717C1365.45 108.801 1347.16 112.119 1336.05 122.508C1326.2 131.717 1316.29 143.83 1295.56 144.94C1285.99 145.459 1277.66 142.284 1270.75 138.647" stroke="#0C6F78" stroke-width="0.75" stroke-miterlimit="10"/>
<path d="M1084.42 66.1918C1055.52 58.4823 1037.68 44.551 1016.77 31.1627C1006.47 24.5748 993.38 20.0058 982.879 13.5478C973.46 7.68202 965.278 0.0339812 958.793 -8.96677C946.568 -25.3775 933.456 -42.1423 937.153 -60.5719C940.905 -79.4152 949.075 -97.1008 960.99 -112.177C974.362 -128.788 1007.57 -135.789 1036.93 -135.034C1051.93 -134.656 1066.67 -132.578 1081.36 -130.866C1096.23 -129.131 1111.99 -128.623 1126.61 -126.392C1144.16 -123.723 1146.88 -114.892 1148.2 -105.388C1149.3 -96.4782 1149.95 -87.5172 1150.13 -78.541C1150.75 -60.442 1151.04 -42.4493 1152.62 -24.3621C1154.2 -6.27492 1155.54 11.2809 1152.23 29.2501C1150.62 37.9631 1148.69 47.3136 1142.78 55.4363C1136.06 64.716 1122.39 67.6322 1106.38 68.2107C1098.82 68.494 1091.34 68.2107 1084.38 66.2272" stroke="#0C6F78" stroke-width="0.75" stroke-miterlimit="10"/>
<path d="M1279.33 128.328C1279.53 122.968 1280.05 117.514 1290.54 116.144C1300.63 114.834 1309.56 118.222 1309.57 124.586C1309.57 128.517 1303.5 134.397 1297.55 136.392C1289.91 138.895 1282.78 131.917 1279.33 128.375" stroke="#0C6F78" stroke-width="0.75" stroke-miterlimit="10"/>
<path d="M1344.16 86.9001C1343.84 72.0243 1349.12 57.0185 1354.26 42.4732C1356.82 34.8599 1360.56 27.6909 1365.32 21.222C1370.76 13.9965 1379.36 8.75456 1387.49 2.61531C1395.13 -3.13433 1402.58 -8.99022 1409.68 -14.976C1416.78 -20.9618 1423.85 -28.6594 1434.48 -32.4965C1440.79 -34.7751 1445.46 -33.5 1452.04 -32.4374C1458.2 -31.4339 1463.94 -31.6464 1470.29 -31.6818C1482.99 -31.6818 1495.54 -31.4103 1508.18 -30.6311C1530.71 -29.238 1561.65 -27.9983 1578.61 -17.6442C1599.87 -4.65734 1588.82 10.4547 1572.08 22.6151C1563.92 28.5182 1556.82 34.4213 1551.06 41.2808C1548.01 44.9053 1545.15 47.6089 1544.63 51.7647C1544.13 55.4719 1545.4 59.2735 1544.34 62.9452C1540.65 75.6842 1525.62 62.0598 1518.99 58.2227C1509.65 52.8745 1497.87 51.139 1485.22 50.8202C1458.44 50.0646 1441.87 63.5238 1418.88 69.7929C1407.34 72.9452 1396.44 76.2037 1387.7 81.8588C1380.21 86.7112 1370.45 95.9555 1357.42 94.2436C1352.23 93.6333 1347.49 91.0137 1344.21 86.9474" stroke="#0C6F78" stroke-width="0.75" stroke-miterlimit="10"/>
<path d="M1085.62 55.8268C1060.74 51.0335 1042.8 36.9368 1027.39 25.1306C1011.1 12.7222 988.324 5.35511 975.531 -8.94225C963.494 -22.3896 954.718 -37.6196 955.261 -53.015C955.805 -68.4103 963.672 -84.5022 974.161 -98.3746C985.146 -112.967 1005.17 -123.569 1032.83 -124.348C1056.6 -125.021 1087.55 -123.038 1109.02 -116.544C1134.43 -108.859 1134.23 -89.6498 1134.33 -74.8211C1134.46 -59.107 1134.42 -43.5936 1136.98 -27.9267C1139.46 -12.7439 1143.61 2.557 1140.69 17.8107C1138 31.8955 1131.15 51.6828 1104.76 56.488C1098.43 57.6529 1091.92 57.4314 1085.68 55.8386" stroke="#0C6F78" stroke-width="0.75" stroke-miterlimit="10"/>
<path d="M1384.12 55.8262C1371.89 33.8902 1399.89 18.2705 1420.32 2.47377C1429.13 -4.35024 1435.95 -17.3607 1450.32 -20.0998C1465.8 -23.0513 1485.69 -21.7644 1501.38 -20.0998C1526.03 -17.4552 1591.47 -13.1813 1564.18 9.85268C1555.11 17.5149 1541.95 26.2752 1528.83 31.4935C1514.07 37.3967 1500.88 40.36 1483.46 41.8004C1474.16 42.5796 1464.05 43.4887 1455.77 46.334C1446.89 49.3682 1444.68 55.3303 1436.55 58.9194C1424.27 64.3621 1393.54 64.0551 1384.18 55.8144" stroke="#0C6F78" stroke-width="0.75" stroke-miterlimit="10"/>
<path d="M1059.61 35.1178C1043.07 25.9207 1032.22 14.1027 1014.63 5.5077C997.041 -3.08724 985.276 -14.5629 978.011 -27.4199C970.924 -40.0172 971.904 -54.043 977.362 -66.7701C982.63 -79.0959 990.686 -93.287 1004.53 -103.157C1020.7 -114.727 1042.83 -113.546 1066.19 -112.744C1076.64 -112.389 1089.25 -112.378 1098.25 -108.812C1108.42 -104.774 1112.9 -98.7178 1115.4 -91.9174C1120.12 -78.9306 1116.16 -65.1055 1116.58 -51.9179C1117.01 -38.7303 1121.23 -25.5781 1125.01 -12.426C1128.79 0.726172 1131.55 14.4214 1123.54 27.184C1114.79 41.1271 1096.15 49.852 1072.54 41.1035C1068.11 39.4374 1063.81 37.4446 1059.67 35.1414" stroke="#0C6F78" stroke-width="0.75" stroke-miterlimit="10"/>
<path d="M1424.77 51.1155C1424.3 51.1506 1423.81 51.1506 1423.33 51.1155C1415.97 50.3717 1415.15 40.4898 1417.03 37.4556C1421.02 30.9622 1428.26 25.8501 1435.15 20.5255C1447.16 11.2458 1448.3 -8.99015 1471.95 -9.75755C1483.04 -10.1107 1494.12 -8.84598 1504.84 -6.00317C1509 -4.71884 1513.02 -2.99732 1516.82 -0.867448C1521.75 1.78896 1525.55 2.8043 1524.62 6.62953C1521.08 21.1748 1500.29 28.6482 1478.06 31.9185C1466.77 33.5714 1453.09 34.9409 1443.34 38.9196C1437.34 41.3399 1432.32 50.7259 1424.77 51.1155Z" stroke="#0C6F78" stroke-width="0.75" stroke-miterlimit="10"/>
<path d="M1062.15 24.7638C1050.41 16.0626 1040.2 6.65298 1026.29 -0.914821C1012.37 -8.48263 1001.64 -15.2712 994.891 -26.0621C981.662 -47.2071 999.002 -70.5245 1019.61 -87.7262C1031.24 -97.4191 1049.5 -99.2727 1068.48 -99.6741C1092.91 -100.182 1098.08 -91.5396 1096.83 -78.4228C1095.77 -67.4784 1093.62 -56.5223 1095.58 -45.5779C1097.72 -34.4898 1101.64 -23.8208 1107.19 -13.9843C1113.42 -2.5677 1119.88 10.6553 1111.28 22.2136C1108.63 25.701 1105.22 28.5452 1101.32 30.5343C1097.41 32.5233 1093.11 33.6058 1088.73 33.7011C1078.71 33.7719 1068.78 28.6952 1062.17 24.752" stroke="#0C6F78" stroke-width="0.75" stroke-miterlimit="10"/>
<path d="M1068.39 14.4105C1064.81 6.96612 1059.68 0.369528 1053.35 -4.93991C1046.02 -10.843 1036.25 -13.346 1026.95 -17.7379C1006.02 -27.6197 1003.85 -42.224 1020.93 -54.3373C1027.85 -59.2723 1039.83 -64.8921 1050.86 -61.1849C1060.08 -58.0798 1063.25 -48.3987 1065.51 -42.7081C1071.08 -28.6705 1073.67 -15.9079 1089.76 -4.50309C1097.58 1.03404 1105.51 10.054 1098.72 17.0197C1089.97 26.0279 1076.89 20.5616 1068.39 14.4577" stroke="#0C6F78" stroke-width="0.75" stroke-miterlimit="10"/>
<path d="M1470.35 11.9904C1472.71 5.92198 1488.44 0.243171 1494.36 8.03529C1501.27 17.1379 1477.36 16.8546 1470.35 11.9904Z" stroke="#0C6F78" stroke-width="0.75" stroke-miterlimit="10"/>
<path d="M1682.62 130.843C1667.53 140.147 1641.28 150.04 1618.84 146.286C1596.4 142.532 1577.61 131.056 1557.25 124.409C1535.57 117.325 1517.91 110.69 1502.7 98.7658C1495.61 93.2169 1490.13 86.9596 1482.41 81.7412C1471.01 73.9727 1463.96 77.7979 1451.97 82.6503C1446.89 84.7046 1442.1 85.5546 1439.45 88.9666C1436.98 92.1425 1436.5 96.0504 1434.46 99.3561C1430.16 106.31 1424.01 112.237 1414.58 117.148C1396.77 126.404 1373.89 130.69 1356.7 140.761C1339.51 150.831 1323.26 161.776 1297.5 162.248C1285.92 162.355 1274.39 160.572 1263.38 156.971C1252.64 153.559 1244.61 148.317 1232.05 147.325C1219.48 146.333 1206.24 148.872 1194.07 150.702C1187.79 151.658 1179.26 153.653 1173 151.717C1167.09 149.887 1165.84 145.353 1163.62 141.953C1153.86 126.888 1144.15 110.36 1123.27 99.5214C1112.74 94.0433 1099.64 91.8473 1087.89 87.6561C1074.84 82.9927 1061.74 78.3882 1048.78 73.6421C1040.39 70.5725 1033.58 68.5654 1026.19 64.5749C1018.18 60.163 1009.89 56.2516 1001.39 52.8631C985.891 46.7947 967.865 43.2646 953.254 36.3344C937.673 28.9555 931.484 13.0643 924.432 2.35599C909.56 -20.1939 886.29 -46.6399 894.901 -71.5157C899.201 -83.9123 906.631 -95.7067 911.781 -107.962C916.754 -119.768 914.793 -135.411 934.401 -142.778C951.671 -149.283 975.024 -153.156 994.348 -156.946C1016.89 -161.385 1035.11 -160.086 1056.95 -154.962C1076.34 -150.417 1098.67 -142.873 1117.59 -152.058C1124.34 -155.203 1130.29 -159.841 1134.98 -165.621C1139.68 -171.4 1143 -178.172 1144.69 -185.422C1147.48 -198.031 1148.49 -211.243 1155.4 -223.368C1158.21 -228.314 1164.53 -237.901 1175.57 -234.902C1179.46 -233.806 1183.08 -231.894 1186.17 -229.295C1189.27 -226.696 1191.77 -223.468 1193.53 -219.826C1199.54 -207.828 1202.74 -194.615 1202.87 -181.196C1202.79 -168.528 1205.42 -155.659 1203.37 -143.038C1201.25 -130.193 1195.23 -118.174 1188.08 -106.061C1180.56 -93.31 1183.99 -81.0788 1183.55 -67.9384C1183.1 -55.3411 1184.3 -42.7321 1183.68 -30.1584C1183.04 -17.1715 1182.49 -4.10204 1183.58 8.95567C1184.12 15.2366 1181.08 21.5766 1183.13 27.7512C1185.19 33.9259 1187.86 40.6555 1192.05 46.2634C1199.93 56.8891 1221.1 67.1133 1239.93 70.2655C1246.4 71.3449 1253.04 70.9943 1259.37 69.2384C1268.82 66.6056 1271.4 60.2066 1274.83 54.9883C1279.83 47.4246 1285.35 40.2244 1291.37 33.4419C1316.99 4.39849 1357.11 -18.73 1383.5 -47.4309C1389.87 -54.373 1395.13 -63.3694 1406.03 -68.2926C1417.5 -73.4874 1433.28 -72.9088 1446 -69.8156C1452.6 -68.2099 1457.61 -65.8605 1463.6 -63.7118C1470.29 -61.3505 1476.31 -61.6811 1483.78 -62.2714C1497.46 -63.3694 1510.95 -64.9396 1524.55 -66.3682C1538.16 -67.7967 1551.96 -68.0565 1565.65 -69.06C1579.11 -70.0281 1593.37 -71.4212 1606.68 -69.4614C1614.27 -68.3398 1622.49 -67.6314 1628.93 -64.857C1635.04 -62.2124 1639.3 -58.2101 1645.46 -55.6835C1651.96 -53.0389 1659.78 -51.5159 1666.47 -49.0366C1673.68 -46.3566 1676.29 -41.7758 1685.74 -41.5751" stroke="#0C6F78" stroke-width="0.75" stroke-miterlimit="10"/>
<path d="M995.743 610.649C978.792 593.282 972.922 572.255 971.634 552.42C970.335 532.279 974.197 512.067 978.095 492.079C981.993 472.091 993.451 451.418 979.501 432.162C973.595 423.968 960.247 413.402 943.355 413.886C927.397 414.346 912.171 424.511 902.603 431.217C891.582 438.962 881.542 447.144 869.269 454.24C857.221 461.205 842.857 466.27 829.107 471.831C814.874 477.58 799.742 482.457 786.016 488.631C779.945 491.382 772.208 495.361 764.305 495.62C753.981 495.951 750.709 490.485 747.497 485.739C741.118 476.353 731.054 467.699 716.962 461.949C699.87 454.983 686.12 458.407 672.394 466.14C646.49 480.756 609.482 487.391 585.751 467.392C575.924 459.127 572.191 448.691 563.686 439.942C555.181 431.194 542.613 423.827 527.919 418.691C500.337 409.045 467.381 402.28 439.126 393.367C417.167 386.436 399.614 374.158 396.602 358.869C395.338 352.422 394.594 345.953 389.337 340.085C383.679 333.792 377.265 325.067 378.34 317.759C379.71 308.444 392.184 300.581 392.267 290.735C392.397 275.989 363.433 272.329 343.718 271.845C332.024 271.562 321.145 272.128 314.282 278.492C307.608 284.678 315.735 289.601 322.019 294.725C328.303 299.849 334.611 305.221 341.687 309.944C354.302 318.361 361.838 330.439 354.68 341.584C350.829 347.487 348.396 353.875 343.718 359.601C333.737 371.867 318.417 379.27 298.69 385.799C280.027 391.973 262.297 400.675 258.139 413.898C254.099 426.743 262.084 439.541 272.798 450.497C278.373 456.282 282.803 461.559 285.673 468.088C287.681 472.669 286.004 476.459 284.492 480.933C278.786 497.002 318.239 495.809 335.462 496.825C356.972 498.088 378.553 498.832 400.063 500.107C441.571 502.574 487.473 508.371 518.185 526.801C533.01 535.679 536.719 549.811 546.913 560.543C557.485 571.688 572.439 581.971 588.362 590.531C604.096 598.984 622.925 604.946 638.245 613.671" stroke="#0C6F78" stroke-width="0.75" stroke-miterlimit="10"/>
</svg>
