<svg width="297" height="186" viewBox="0 0 297 186" fill="none" xmlns="http://www.w3.org/2000/svg">
<g clip-path="url(#clip0_2501_6090)">
<g style="mix-blend-mode:multiply">
<path d="M-94.9769 448.399C-92.8285 443.437 -90.3486 438.591 -88.6113 433.488C-85.7778 425.202 -79.8631 419.834 -73.2545 414.558C-60.3068 404.223 -46.1523 395.429 -34.4335 383.479C-27.6171 376.53 -22.3964 368.935 -19.6248 359.579C-17.1316 351.169 -12.4989 344.592 -4.90887 339.542C2.60601 334.55 9.18814 328.185 18.0071 325.344C23.2763 323.644 28.5279 321.856 33.8723 320.409C43.624 317.753 48.3495 311.114 50.2812 301.532C52.465 290.724 55.4311 280.075 57.5662 269.253C59.3345 260.198 58.6449 255.675 48.2478 252.842C35.7908 249.447 23.3824 245.844 11.1155 241.883C5.66501 240.113 1.58929 235.966 -1.23984 231.031C-5.1299 224.232 -8.31266 217.031 -12.2558 210.26C-20.9863 195.3 -16.3801 181.296 -6.25272 170.59C-0.532573 164.517 4.79859 158.197 6.61542 149.743C8.30406 141.98 9.95143 134.207 11.5576 126.423C12.0261 124.135 12.2118 121.793 12.5743 119.483C13.9004 111.122 10.6115 103.824 7.06629 96.6894C4.52008 91.5685 4.38747 86.2042 4.70133 80.7868C4.94888 76.4981 8.13606 73.6079 11.6283 72.5059C22.3966 69.1023 33.2623 65.7208 44.3401 63.6937C50.1354 62.6315 56.3329 65.3358 60.0241 70.4522C63.5605 75.3208 67.1455 80.6319 68.843 86.306C72.2512 97.7073 80.6369 102.24 90.8704 105.085C94.6544 106.134 98.4295 106.639 102.275 105.116C107.138 103.196 109.468 99.3626 108.707 94.1798C108.389 92.0288 108.305 89.7981 107.668 87.7444C105.52 80.7957 108.11 74.9091 112.805 70.4832C118.698 64.9374 125.443 60.2636 132.034 55.5101C136.972 51.9428 142.201 48.8092 147.365 45.5428C153.934 41.3692 156.718 43.9451 160.684 47.0919C168.963 53.6601 174.316 62.5828 179.042 71.8464C181.358 76.3919 183.37 81.0878 185.509 85.7262C185.726 86.1998 186.066 86.7575 185.978 87.2045C183.927 97.5613 191.198 103.417 196.901 110.042C197.975 111.295 198.868 112.698 199.889 113.999C206.007 121.798 214.375 124.179 223.649 122.789C230.183 121.807 236.778 121.019 243.055 118.098C259.46 110.397 270.533 98.3801 275.051 80.7426C275.666 78.3393 274.923 75.3517 274.114 72.8599C272.094 66.6636 269.304 60.7947 264.765 55.9793C260.15 51.0886 253.956 51.9251 248.457 52.7129C242.534 53.5627 236.858 56.1165 231.08 57.9577C226.996 59.2634 225.484 62.3483 224.485 66.367C223.701 69.1686 222.156 71.697 220.02 73.6699C218.946 74.6613 215.927 74.4621 214.3 73.7009C211.917 72.5811 212.315 70.0406 213.274 67.9073C213.752 66.8318 214.344 65.5748 215.259 64.9684C220.617 61.4276 221.209 56.1873 220.661 50.5309C219.693 40.5415 222.871 32.1277 229.502 24.6655C233.154 20.5494 234.307 15.3976 234.665 9.82086C235.288 0.00746354 234.64 -9.84529 232.738 -19.4923C231.98 -23.6097 232.315 -27.8542 233.711 -31.801C239.015 -45.9951 233.215 -57.684 225.449 -68.4524C219.348 -76.9104 211.493 -76.4457 203.965 -69.4128C199.376 -65.1285 196.065 -59.419 192.472 -54.161C188.581 -48.478 182.702 -46.1588 176.558 -44.8664C167.898 -43.0961 159.075 -42.0781 150.317 -40.7857C136.3 -38.7144 120.258 -48.6197 116.209 -62.1366C115.166 -65.611 115.059 -69.3819 114.657 -73.0289C113.618 -82.4518 113.331 -92.0207 111.492 -101.271C109.282 -112.385 99.4153 -119.05 87.3871 -119.187C80.2523 -119.267 73.3652 -120.072 67.0217 -124.056C60.6783 -128.039 57.7829 -134.718 53.4375 -140.202C52.1953 -141.769 53.3977 -145.787 54.2641 -148.421C58.0437 -159.893 62.1326 -171.263 66.0713 -182.682C69.3823 -192.269 73.3873 -194.46 83.4307 -192.658C88.837 -191.665 94.2994 -191.006 99.7866 -190.684C109.242 -190.167 117.177 -193.986 122.446 -201.621C128.458 -210.331 133.559 -219.679 138.908 -228.832C144.257 -237.985 142.887 -247.903 141.746 -257.579C140.973 -264.155 144.398 -275.194 149.809 -277.982C153.668 -279.969 156.829 -278.96 159.185 -275.902C162.767 -271.31 166.075 -266.51 169.091 -261.526C173.149 -254.733 177.146 -247.85 180.439 -240.676C183.432 -234.165 188.537 -230.173 194.951 -229.655C199.77 -229.266 205.119 -231.337 209.734 -233.413C220.785 -238.387 229.52 -236.095 235.558 -225.844C237.985 -221.724 236.257 -218.896 230.607 -217.386C226.116 -216.182 221.523 -215.147 217.253 -213.367C203.823 -207.782 197.308 -196.549 194.014 -183.156C192.122 -175.463 189.55 -168.068 185.416 -161.402C181.517 -155.126 180.412 -149.213 185.023 -142.995C192.759 -132.554 200.238 -121.905 208.412 -111.818C213.668 -105.334 221.673 -102.855 229.63 -102.47C242.6 -101.846 254.513 -98.8101 265.33 -91.4409C271.32 -87.3646 276.245 -89.0199 280.21 -95.3313C285.073 -103.117 286.699 -111.637 283.936 -120.117C280.577 -130.403 282.796 -138.905 288.454 -147.558C291.703 -152.524 295.969 -156.923 297.149 -163.323C298.608 -171.29 298.405 -179.009 295.987 -186.657C293.83 -193.486 291.221 -200.174 289.175 -207.016C288.436 -209.49 288.733 -212.283 288.587 -214.93C291.398 -215.094 294.227 -215.541 296.986 -215.324C298.918 -215.094 300.774 -214.434 302.419 -213.394C309.231 -209.322 316.675 -209.26 324.247 -209.437C332.46 -209.623 340.161 -206.932 348.052 -205.073C353.087 -203.883 358.347 -202.356 363.382 -202.719C376.201 -203.652 387.969 -199.231 400.041 -196.469C407.256 -194.818 413.78 -195.119 419.898 -199.532C421.623 -200.826 423.447 -201.981 425.353 -202.989C430.698 -205.684 435.64 -204.728 440.206 -201.041C445.033 -197.142 449.202 -191.694 455.589 -190.799C463.409 -189.706 471.419 -189.711 479.35 -189.737C482.983 -189.737 486.613 -190.977 490.251 -191.605C496.793 -192.734 500.281 -197.045 502.129 -203.024C502.885 -205.476 503.853 -207.955 504.034 -210.468C504.317 -214.337 504.52 -218.103 501.227 -221.454C491.329 -231.51 479.717 -238.427 466.513 -243.336C451.602 -248.877 438.752 -257.415 430.737 -271.954C425.959 -280.616 426.423 -289.485 429.411 -298.24C432.156 -306.264 436.771 -313.346 442.611 -319.666C448.216 -325.734 455.43 -328.274 462.945 -330.589C466.724 -331.677 470.37 -333.184 473.815 -335.082C474.984 -335.725 476.002 -336.612 476.799 -337.683C477.597 -338.754 478.156 -339.983 478.439 -341.288C478.722 -342.594 478.721 -343.945 478.439 -345.25C478.156 -346.555 477.597 -347.785 476.799 -348.855C471.998 -355.583 466.831 -362.045 462.008 -368.772C458.534 -373.61 455.749 -378.987 451.978 -383.564C445.537 -391.371 436.011 -393.695 426.741 -395.81C424.442 -396.333 421.056 -394.611 418.97 -392.929C415.915 -390.464 412.967 -387.45 411.053 -384.077C405.638 -374.508 397.911 -368.684 387.182 -366.192C375.388 -363.457 363.753 -360.27 351.486 -360.301C343.149 -360.301 335.705 -363.032 328.69 -367.272C323.615 -370.339 318.589 -373.282 312.917 -375.433C304.337 -378.682 297.163 -376.726 290.063 -372.198C288.909 -371.463 288.167 -370.104 287.048 -369.281C280.117 -364.196 272.624 -362.7 264.804 -366.847C259.738 -369.533 254.491 -369.414 249.434 -368.144C239.939 -365.762 230.373 -365.156 220.666 -365.249C215.529 -365.298 213.982 -369.166 212.85 -372.773C210.494 -380.262 207.727 -387.866 207.103 -395.585C206.591 -401.998 208.394 -409.062 214.344 -413.227C215.931 -414.337 219.587 -413.864 221.567 -412.784C228.724 -408.885 232.11 -401.241 237.543 -395.598C243.506 -389.402 248.188 -381.678 257.281 -379.04C258.899 -378.571 259.69 -378.204 261.339 -379.089C266.148 -381.674 271.506 -383.334 276.072 -386.255C281.854 -389.942 283.671 -396.346 281.881 -402.44C279.326 -411.142 276.391 -419.781 270.856 -427.425C266.307 -433.71 260.11 -436.631 253.329 -438.632C241.231 -442.212 229.619 -447.266 218.752 -453.68C211.144 -458.159 205.419 -465.077 201.016 -472.53C195.084 -482.568 187.286 -485.87 176.045 -483.493C169.648 -482.139 163.119 -482.059 157.152 -478.549C154.057 -476.73 152.682 -474.053 152.461 -471.428C151.652 -461.691 151.551 -451.706 158.336 -443.739C164.242 -436.799 163.667 -429.691 161.285 -421.804C158.699 -413.253 155.932 -404.622 156.312 -395.536C156.723 -385.768 157.713 -376.022 158.164 -366.254C158.282 -362.924 157.951 -359.594 157.178 -356.353C155.6 -349.55 149.8 -345.102 141.883 -344.465C135.619 -343.96 129.276 -344.173 123.074 -343.31C117.992 -342.566 113.009 -341.252 108.221 -339.393C92.6209 -333.431 79.9297 -337.007 72.1451 -349.47C68.7325 -354.941 67.119 -361.509 64.0069 -367.205C57.3762 -379.333 51.7886 -392.34 40.2202 -400.874C36.9667 -403.273 32.7539 -404.414 28.8948 -405.924C22.1181 -408.548 21.3534 -410.31 23.3957 -417.378C24.7218 -421.919 26.0789 -426.593 26.2955 -431.258C26.7376 -440.924 21.6009 -447.09 12.5919 -450.732C4.02498 -454.18 -3.73303 -451.759 -11.7518 -449.192C-16.0442 -447.82 -20.3762 -445.585 -25.1062 -447.661C-26.4589 -448.249 -28.1519 -448.643 -29.0095 -449.683C-35.238 -457.247 -43.805 -460.593 -52.8803 -462.417C-63.3569 -464.524 -67.6934 -471.937 -70.6773 -480.895C-72.5825 -486.609 -72.0034 -492.27 -69.6915 -497.754C-66.3231 -505.751 -68.0073 -513.926 -68.7367 -522.066C-68.9002 -523.902 -69.5545 -525.695 -69.6694 -527.527C-70.0849 -534.14 -70.1645 -540.774 -70.748 -547.369C-71.4553 -555.442 -81.4855 -561.32 -89.0269 -558.279C-96.7318 -555.181 -102.894 -548.055 -102.501 -538.933C-102.213 -532.263 -104.795 -526.54 -110.86 -523.106C-116.655 -519.835 -120.284 -514.878 -121.61 -508.646C-123.069 -501.795 -127.242 -499.236 -133.581 -497.581C-140.72 -495.718 -147.59 -492.677 -154.406 -489.743C-158.169 -488.094 -162.234 -487.251 -166.342 -487.269C-170.979 -487.193 -175.609 -486.878 -180.213 -486.326C-188.957 -485.405 -190.61 -480.307 -192.507 -471.941C-194.788 -461.872 -193.108 -451.79 -191.76 -441.681C-190.959 -435.666 -191.127 -429.412 -191.724 -423.353C-192.648 -413.979 -189.837 -405.406 -186.495 -397.112C-183.467 -389.587 -180.695 -381.842 -174.842 -375.637C-167.968 -368.352 -161.727 -365.236 -150.499 -368.321C-142.984 -370.379 -135.659 -373.048 -128.166 -375.141C-125.272 -375.944 -122.268 -376.281 -119.268 -376.137C-106.205 -375.447 -93.9469 -378.323 -82.0866 -383.621C-70.3237 -388.875 -58.9895 -388.932 -47.8365 -381.275C-40.1448 -375.995 -31.264 -374.977 -22.1444 -377.212C-11.9021 -379.718 -8.44085 -378.775 -5.34649 -366.772C-3.78163 -360.712 -2.94175 -354.467 -1.27522 -348.444C1.2931 -339.149 6.50048 -331.952 15.452 -327.469C20.0759 -325.154 24.2488 -321.826 28.3643 -318.617C38.0143 -311.093 40.9009 -299.776 44.1632 -288.861C47.4875 -277.748 51.5499 -267.307 58.8305 -257.906C62.2078 -253.542 64.2589 -247.324 62.2476 -240.716C60.7667 -235.847 61.0717 -230.443 60.0064 -225.402C59.1511 -221.453 57.832 -217.62 56.0765 -213.983C53.9856 -209.61 49.5121 -209.349 45.2861 -208.371C37.506 -206.578 29.8408 -204.387 21.99 -207.547C19.541 -208.534 16.9904 -209.76 15.094 -211.531C7.13704 -218.949 -0.59445 -226.477 -4.41819 -237.201C-6.73454 -243.721 -6.46048 -249.767 -4.33863 -256.114C-2.48201 -261.668 -0.408791 -267.249 0.523937 -272.99C2.21699 -283.271 -3.69322 -290.379 -10.7351 -296.793C-19.6822 -304.936 -30.0793 -303.839 -40.4542 -301.152C-48.8532 -298.979 -56.9206 -295.673 -65.2798 -293.411C-70.4165 -292.026 -75.8183 -291.641 -81.1097 -290.84C-87.0774 -289.954 -91.6217 -286.684 -93.8761 -281.355C-97.7264 -272.259 -103.951 -267.019 -113.795 -265.421C-121.487 -264.169 -129.063 -262.089 -136.596 -260.022C-143.824 -258.039 -149.928 -260.508 -154.831 -265.16C-160.922 -270.941 -165.882 -277.88 -171.863 -283.82C-178.595 -290.534 -186.999 -294.133 -196.569 -294.814C-205.49 -295.447 -214.401 -296.248 -223.331 -296.717C-226.002 -296.892 -228.681 -296.547 -231.222 -295.704C-236.133 -293.964 -237.729 -289.459 -238.104 -284.878C-238.988 -273.919 -245.071 -266.922 -254.566 -262.611C-264.207 -258.238 -274.149 -254.533 -283.742 -250.085C-293.75 -245.451 -303.011 -239.556 -310.508 -231.288C-314.986 -226.353 -320.184 -222.613 -326.895 -221.994C-330.467 -221.666 -334.175 -222.374 -337.778 -222.914C-342.101 -223.561 -346.345 -225.003 -350.673 -225.251C-359.859 -225.787 -365.154 -217.798 -362.564 -208.977C-360.354 -201.453 -355.518 -196.474 -348.215 -193.539C-341.496 -190.839 -335.108 -187.285 -328.323 -184.78C-322.576 -182.651 -316.652 -183.138 -311.003 -186.108C-301.888 -190.923 -292.154 -194.238 -281.797 -193.437C-271.342 -192.627 -260.202 -192.437 -253.108 -182.62C-250.084 -178.433 -247.542 -173.848 -245.151 -169.249C-235.646 -150.957 -222.08 -136.249 -206.029 -123.547C-200.552 -119.209 -190.557 -118.346 -184.691 -124.158C-180.855 -127.931 -177.222 -131.907 -173.808 -136.068C-169.657 -141.171 -164.476 -141.105 -159.861 -136.068C-157.337 -133.306 -154.371 -130.938 -151.993 -128.075C-143.687 -118.072 -131.004 -117.917 -120.284 -125.198C-114.255 -129.296 -108.734 -134.138 -102.867 -138.476C-100.564 -140.231 -98.0747 -141.728 -95.4454 -142.941C-90.216 -145.278 -86.8033 -144.026 -84.1333 -138.516C-81.0699 -132.191 -78.2231 -125.738 -75.7078 -119.174C-72.3217 -110.322 -65.9341 -107.224 -56.8234 -107.158C-46.9082 -107.069 -37.0018 -105.529 -27.0866 -105.44C-18.8468 -105.365 -11.1727 -107.817 -5.27135 -114.221C0.439954 -120.418 6.19987 -126.548 12.0924 -132.558C14.8685 -135.395 17.7639 -138.241 21.0263 -140.454C27.4626 -144.818 34.5398 -145.531 41.7762 -142.486C45.5513 -140.897 46.0818 -138.166 45.4496 -134.05C44.4948 -127.853 45.7591 -121.874 49.1231 -116.16C56.2489 -104.046 64.7408 -92.5651 68.0473 -78.5127C68.7457 -75.5428 69.1436 -72.4845 70.0807 -69.5988C72.3618 -62.6264 76.048 -56.1971 80.911 -50.7087C90.9102 -39.2676 98.5135 -26.627 99.7468 -11.0211C100.047 -7.22801 100.503 -3.38184 100.189 0.380234C99.5037 8.32485 93.284 12.0693 87.3473 15.6941C84.4695 17.4645 81.0524 18.2833 77.989 19.7616C70.6024 23.3023 70.5272 22.7137 66.0979 14.7646C63.4853 10.0687 60.8507 5.34175 55.1659 3.92544C52.2543 3.20681 49.2612 2.8735 46.263 2.93403C38.9691 3.08894 32.0201 1.25215 24.9119 0.163365C13.5644 -1.57604 2.48223 0.415665 -6.76991 8.31602C-15.1689 15.4772 -23.3071 22.9483 -32.1348 29.5164C-38.1062 33.9066 -44.5812 37.5649 -51.4215 40.4132C-60.0239 44.0292 -62.3579 50.8983 -62.6408 58.9358C-62.8662 65.1986 -61.686 71.51 -61.8672 77.7816C-62.04 85.4697 -63.6566 93.0566 -66.6325 100.146C-70.9602 110.374 -74.9121 120.873 -76.3576 131.898C-76.8704 135.815 -74.9254 140.444 -73.0113 144.193C-70.0894 149.947 -66.0402 155.077 -62.7911 160.662C-57.9285 168.992 -59.6349 177.105 -64.2455 184.943C-65.3373 186.802 -66.3629 188.745 -67.7376 190.383C-74.2049 198.079 -71.8974 205.998 -68.1399 213.699C-63.8874 222.48 -56.3814 226.189 -46.9215 228.34C-29.9644 232.195 -20.4912 241.573 -17.304 258.906C-14.8374 272.316 -12.9542 285.966 -12.5077 299.567C-12.2292 308.167 -14.108 317.147 -20.0978 324.379C-25.1593 330.442 -32.7758 332.27 -43.385 327.76C-46.9215 326.269 -50.0865 323.967 -53.3179 321.865C-61.0273 316.85 -69.3644 314.279 -78.5812 313.279C-90.2425 312.017 -101.983 311.097 -113.375 307.72C-116.244 306.87 -119.97 306.511 -123.374 309.291C-126.676 311.991 -131.119 312.234 -135.646 310.57C-142.944 307.888 -150.552 306.047 -157.854 303.373C-159.552 302.754 -161.528 300.275 -161.629 298.553C-161.762 296.292 -159.746 294.729 -156.926 294.499C-154.574 294.309 -152.315 293.171 -149.977 292.631C-142.316 290.83 -139.288 287.232 -139.102 279.216C-138.979 274.091 -139.2 268.957 -139.049 263.836C-138.837 256.724 -138.466 249.611 -138.068 242.503C-137.838 238.365 -137.409 234.235 -137.1 230.11C-136.6 223.471 -139.752 219.196 -145.499 216.151C-150.065 213.73 -155.273 212.672 -159.021 208.379C-163.415 203.346 -166.109 197.052 -166.717 190.396C-167.88 179.468 -170.453 169.178 -175.059 159.065C-181.248 145.472 -189.373 133.128 -196.719 120.271C-202.051 110.945 -205.804 100.071 -202.36 88.7403C-201.379 85.5049 -199.266 82.3935 -196.958 79.8397C-191.813 74.0859 -187.856 68.2613 -188.497 59.9228C-189.156 51.3807 -183.635 45.7243 -177.707 40.5902C-173.286 36.7529 -168.702 33.066 -164.357 29.1446C-160.118 25.3117 -159.211 21.0539 -161.152 15.2117C-163.804 7.21836 -165.241 -1.21308 -166.744 -9.53832C-168.534 -19.4392 -172.61 -27.0032 -183.135 -29.9686C-188.992 -31.6239 -193.271 -35.957 -195.955 -41.3168C-200.764 -50.8503 -208.871 -57.1264 -216.842 -63.6015C-219.123 -65.456 -221.841 -66.9255 -223.685 -69.1384C-226.611 -72.6394 -229.06 -71.5108 -232.238 -69.6297C-237.706 -66.3988 -243.471 -63.6768 -249.036 -60.6096C-256.343 -56.582 -263.584 -56.52 -270.847 -60.6096C-275.48 -63.2386 -280.105 -65.8854 -284.723 -68.5498C-291.836 -72.6438 -298.608 -71.3912 -305.018 -67.0228C-309.107 -64.2345 -313.098 -61.2691 -316.9 -58.0868C-321.931 -53.891 -324.415 -48.5179 -324.455 -41.755C-324.53 -32.934 -324.791 -24.1484 -322.885 -15.4558C-320.878 -6.30294 -314.889 -0.442984 -307.639 5.04079C-300.173 10.6883 -291.15 12.4454 -283.22 16.7607C-275.546 20.9344 -267.872 25.1701 -262.002 31.7383C-257.939 36.2882 -255.724 41.5241 -257.864 48.0789C-259.973 54.5453 -260.87 61.41 -263.027 67.8586C-265.432 75.0552 -263.213 81.6632 -259.712 87.0894C-253.815 96.229 -250.61 105.754 -249.92 116.504C-249.553 122.258 -246.207 127.021 -242.591 131.385C-237.905 137.041 -234.793 143.605 -234.418 150.761C-234.161 155.657 -235.951 160.724 -237.194 165.624C-241.004 180.672 -250.822 191.117 -263.407 199.381C-264.292 199.964 -265.12 200.628 -265.883 201.364C-273.99 209.122 -282.124 216.854 -290.16 224.684C-298.873 233.173 -303.948 243.853 -306.269 255.484C-307.427 261.304 -305.782 267.669 -305.561 273.79C-305.415 277.919 -305.119 282.111 -305.672 286.183C-306.052 289.082 -308.324 290.834 -311.458 291.737C-319.787 294.15 -328.031 296.863 -336.24 299.655C-338.537 300.493 -340.703 301.655 -342.672 303.108C-350.005 308.308 -356.888 314.248 -364.588 318.802C-375.14 325.052 -380.551 342.154 -376.723 354.117C-373.407 364.469 -369.027 374.538 -364.385 384.382C-360.305 393.03 -352.79 395.867 -342.698 393.867C-339.237 393.181 -335.78 392.424 -332.292 391.902C-321.683 390.321 -317.806 382.859 -316.498 373.512C-314.959 362.526 -308.983 355.586 -298.595 352.192C-295.469 351.169 -292.287 350.297 -289.188 349.191C-282.181 346.695 -280.099 343.207 -280.736 335.816C-281.178 330.531 -281.279 325.22 -281.792 319.944C-282.234 315.129 -282.57 310.207 -283.843 305.582C-286.071 297.615 -284.44 294.862 -276.346 294.605C-274.366 294.543 -272.279 294.999 -270.423 294.517C-265.967 293.357 -262.669 291.246 -260.777 286.24C-258.147 279.309 -254.076 272.918 -250.57 266.323C-247.918 261.349 -245.814 256.299 -246.074 250.443C-246.366 243.924 -246.472 237.36 -244.125 231.102C-242.538 226.875 -240.443 223.06 -236.743 220.134C-229.033 214.044 -217.116 217.355 -212.452 225.653C-208.646 232.425 -206.559 239.489 -208.345 247.495C-209.313 251.815 -209.367 256.396 -209.406 260.862C-209.53 274.755 -209.795 288.657 -209.322 302.537C-209.022 310.704 -208.022 318.83 -206.334 326.826C-204.177 337.126 -197.024 343.048 -187.171 346.301C-181.566 348.146 -176.314 351.041 -170.775 353.117C-162.929 356.051 -160.759 365.81 -162.094 371.467C-164.339 381 -162.27 389.268 -156.298 396.221C-148.352 405.398 -141.367 415.365 -135.451 425.968C-129.492 436.706 -118.41 440.782 -107.372 444.433C-99.4814 447.045 -91.6968 449.744 -84.4781 454.17C-77.2594 458.596 -75.9421 464.841 -76.7025 472.175C-77.2329 477.278 -83.3023 480.585 -90.5166 480.142C-92.8244 479.963 -94.9927 478.966 -96.6319 477.329C-98.2711 475.693 -99.2736 473.525 -99.4593 471.215C-100.162 463.465 -97.7308 456.401 -94.9769 449.382" stroke="#0C6F78" stroke-width="0.55057" stroke-miterlimit="10"/>
<path d="M991.219 767.414C987.586 769.233 984.01 771.189 980.305 772.849C968.6 778.103 956.368 782.329 946.568 791.172C944.459 793.071 941.648 794.178 939.194 795.7C930.428 801.144 921.72 806.677 912.897 812.019C910.956 813.192 908.6 813.648 906.491 814.564C898.702 817.95 895.719 824.301 895.577 832.409C895.414 841.611 894.251 850.556 890.776 859.262C888.345 865.4 887.364 872.097 885.662 878.55C883.297 887.473 877.077 892.58 868.842 895.962C856.394 901.069 843.305 903.415 830.211 906.031C825.34 907.082 820.791 909.289 816.949 912.466C811.428 917.078 806.981 922.96 801.92 928.13C798.971 931.131 795.674 933.782 792.539 936.601C788.901 939.881 784.848 939.111 781.722 936.499C774.207 930.197 766.657 923.783 759.987 916.613C755.305 911.581 750.328 907.27 744.471 903.862C735.895 898.874 727.151 894.16 718.783 888.849C715.821 886.968 713.434 883.905 711.335 880.989C705.751 873.226 698.458 867.308 690.912 861.74C681.355 854.69 674.286 845.594 668.756 835.335C664.689 827.811 659.805 821.641 651.317 818.999C639.422 815.294 636.875 805.207 634.961 794.709C634.413 791.708 633.891 788.672 632.932 785.795C631.902 782.697 629.498 781.927 626.562 783.303C622.08 785.405 617.796 788.088 613.133 789.606C608.208 791.208 602.966 791.819 597.811 792.704C589.412 794.116 580.788 794.696 572.592 796.882C563.698 799.254 560.188 807.38 556.678 815.029C554.243 820.34 552.028 825.784 549.186 830.869C544.495 839.278 536.366 841.438 527.459 842.377C513.817 843.837 501.227 839.212 488.293 836.41C483.581 835.388 478.731 834.945 473.931 834.388C467.499 833.644 460.85 833.821 454.653 832.214C443.438 829.311 435.269 822.088 431.405 811.019C426.936 798.223 434.058 783.095 445.706 779.855C450.06 778.647 454.604 778.129 459.069 777.315C467.91 775.699 475.261 771.039 482.339 765.874C486.901 762.545 491.14 758.757 495.768 755.53C502.253 751.007 504.291 744.434 505.166 737.127C506.094 729.346 506.771 721.512 508.26 713.829C509.472 707.473 513.724 703.277 520.041 701.405C529.063 698.727 533.002 691.46 527.958 682.555C525.372 677.992 522.654 677.186 518.582 680.112C514.966 682.714 511.594 685.666 508.15 688.521C502.169 693.46 494.888 694.399 487.864 693.27C477.476 691.597 467.441 692.071 458.167 696.598C445.825 702.627 434.022 709.761 421.919 716.25C418.802 717.918 415.337 720.021 412.039 720.003C407.694 720.003 404.007 717.502 402.044 712.864C399.564 707.013 396.147 701.697 391.241 697.426C379.181 686.919 370.34 673.65 360.46 661.266C357.768 657.893 354.457 655.03 351.62 651.772C349.736 649.617 348.72 647.377 353.069 646.815C354.25 646.66 355.412 645.824 356.54 645.93C362.101 646.372 366.777 644.602 370.928 640.929C379.106 633.71 387.32 626.38 390.617 615.572C393.031 607.65 394.335 599.391 396.196 591.3C397.115 587.317 397.407 582.935 399.326 579.483C402.65 573.512 406.102 571.153 415.505 573.95C420.16 575.331 424.757 576.92 429.385 578.376C437.019 580.811 444.375 579.598 451.152 575.836C463.087 569.197 475.907 565.568 489.319 563.332C495.361 562.328 501.166 559.96 503.791 553.104C507.142 544.363 514.299 539.468 522.512 535.648C530.027 532.156 530.438 528.62 529.93 524.304C529.65 522.598 529.16 520.933 528.471 519.347C525.708 512.217 522.552 505.22 520.183 497.965C518.68 493.362 516.43 489.401 513.11 486.139C505.953 479.159 499.508 471.781 494.65 462.872C491.539 457.142 486.54 452.67 480.504 450.218C475.226 448.005 470.412 444.597 465.598 441.406C458.353 436.599 453.57 423.91 455.67 415.647C457.354 409.008 458.565 402.249 464.038 397.235C468.065 393.543 472.852 391.866 477.967 390.879C482.387 390.025 486.87 389.047 491.339 388.976C496.696 388.887 502.142 389.613 506.187 393.844C510.886 398.735 515.187 404.024 520.138 408.649C528.891 416.789 534.284 414.306 539.889 407.711C540.954 406.439 541.947 405.11 542.864 403.728C548.819 394.898 554.698 386.068 557.297 375.468C559.251 367.501 559.017 359.57 557.686 351.647C556.263 343.176 553.946 334.829 552.939 326.317C552.125 319.444 547.714 316.054 542.329 314.611C528.489 310.893 516.491 303.816 504.702 296.097C498.182 291.826 490.936 288.48 485.035 283.505C476.892 276.636 472.043 267.461 472.605 256.387C472.861 251.395 473.931 246.411 475.045 241.511C476.229 236.2 475.177 231.854 470.474 229.19C465.061 226.157 459.449 223.495 453.676 221.223C440.856 216.098 432.064 207.166 426.896 194.393C424.417 188.263 425.906 182.681 429.009 177.574C432.965 171.068 437.256 164.771 441.864 158.71C449.079 149.186 459.047 143.379 470.072 139.365C477.9 136.514 485.8 133.832 494.336 133.823C501.851 133.823 511.337 138.488 513.189 150.23C514.029 155.541 514.476 161.065 516.284 166.049C518.684 172.595 521.862 178.402 529.93 180.725C541.931 184.177 550.812 192.233 557.916 202.709C562.297 209.166 567.915 214.686 576.509 216.527C579.339 217.196 582.314 216.842 584.908 215.527C594.456 210.454 603.814 204.581 609.11 194.786C612.399 188.701 614.079 181.708 616.183 175.029C618.672 167.146 620.917 159.184 623.141 151.222C625.059 144.339 631.124 142.432 636.553 139.843C651.229 132.836 667.403 129.132 680.709 119.067C685.855 115.172 692.645 116.456 697.949 121.475C705.849 128.825 711.777 138.045 715.189 148.287C717.917 156.493 723.049 162.596 729.706 167.549C736.779 172.82 740.13 179.69 740.09 188.435C740.024 203.413 744.298 217.08 752.432 229.637C756.097 235.297 759.545 241.113 762.834 247.004C766.582 253.727 772.687 255.714 779.72 255.856C785.984 255.998 792.305 256.392 798.069 252.939C803.971 249.399 808.374 244.866 810.509 238.05C814.045 226.751 819.827 216.806 828.726 208.702C835.98 202.085 840.047 193.317 841.899 183.916C842.624 180.252 841.147 175.737 839.521 172.13C837.2 166.987 836.714 162.468 839.043 157.117C841.695 151.014 840.453 144.866 836.709 139.311C835.507 137.541 834.136 135.771 833.283 133.836C831.033 128.68 833.96 123.528 839.68 122.997C851.032 121.953 859.13 115.296 866.274 107.413C868.183 105.302 869.244 102.102 868.214 98.0614C866.415 91.0197 863.352 83.8983 864.974 76.3122C865.65 73.1343 865.986 69.6732 867.538 66.9424C872.785 57.6965 875.495 47.5567 878.872 37.6248C881.082 31.0832 883.819 24.7231 886.245 18.2523C892.116 2.63749 884.84 -4.94863 870.902 -9.05593C859.687 -12.3621 851.239 -8.27696 845.196 0.937902C835.33 15.9862 828.049 32.3623 821.348 49.0172C819.756 52.9696 819.832 56.6387 822.232 60.4938C824.084 63.4724 824.853 67.1017 826.33 70.3371C828.394 74.8516 826.772 78.7819 823.708 81.6366C820.433 84.6861 816.004 84.6241 811.954 82.7077C809.355 81.4773 806.65 80.145 804.559 78.2198C797.773 71.9349 790.205 70.2043 781.183 72.2226C772.877 74.0815 764.359 74.9578 755.937 76.3166C752.295 76.9052 748.529 77.2018 745.067 78.3791C738.799 80.4947 734.211 84.9118 732.283 91.2144C731.023 95.3438 729.887 99.252 725.21 100.022C719.274 101 714.058 98.9598 709.898 94.6135C708.533 93.1218 707.364 91.462 706.419 89.6742C700.548 79.1049 691.071 75.5951 678.194 79.9016C672.147 81.9199 666.404 85.0712 660.857 88.2888C655.309 91.5065 652.639 90.8116 648.811 85.2924C645.354 80.3177 645.69 74.6392 645.151 69.3236C644.121 59.1438 644.019 48.8357 644.045 38.5852C644.045 30.7158 646.119 23.382 650.738 16.6501C653.059 13.2731 656.043 11.3389 659.354 9.89164C669.472 5.42584 678.313 -0.611179 685.647 -8.98511C688.76 -12.4522 692.205 -15.6053 695.933 -18.3991C700.685 -22.0417 700.579 -26.627 698.78 -31.3318C696.46 -37.4308 694.143 -43.6272 690.797 -49.1463C685.651 -57.6398 685.97 -65.2215 691.871 -73.0776C697.131 -80.0794 696.959 -87.4664 690.483 -94.4196C685.09 -100.209 680.815 -106.657 681.492 -115.222C682.044 -122.153 685.36 -127.889 688.923 -133.594C691.862 -138.303 695.553 -142.862 697.145 -148.031C699.664 -156.29 696.207 -163.367 688.874 -167.683C683.812 -170.661 678.048 -172.441 672.593 -174.764C662.868 -178.898 653.209 -183.302 643.329 -187.091C633.449 -190.879 623.057 -193.729 613.199 -197.757C608.876 -199.527 605.684 -197.757 602.267 -196.5C597.011 -194.539 592.038 -191.848 586.857 -189.675C578.144 -186.015 569.516 -186.878 560.564 -189.498C551.612 -192.118 542.595 -195.283 532.852 -194.708C525.655 -194.265 519.024 -192.756 513.026 -188.671C507.964 -185.223 502.417 -183.417 496.188 -183.643C489.752 -183.873 483.289 -183.953 476.866 -183.621C470.903 -183.311 464.975 -182.293 459.02 -181.726C453.614 -181.224 448.169 -182.081 443.177 -184.218C437.789 -186.458 433.16 -185.387 428.757 -181.753C426.83 -180.164 424.646 -178.655 422.326 -177.823C416.791 -175.818 412.371 -179.062 407.999 -181.717C399.657 -186.754 391.333 -191.8 381.714 -194.075C380.255 -194.416 378.761 -194.583 377.263 -194.57C364.39 -194.46 351.734 -194.933 339.017 -198.226C330.489 -200.439 321.304 -198.536 313.333 -193.61C311.68 -192.655 310.309 -191.279 309.359 -189.622C308.408 -187.964 307.913 -186.085 307.923 -184.174C307.79 -178.225 307.737 -172.264 307.923 -166.315C308.161 -158.831 305.841 -152.201 301.942 -145.956C297.389 -138.679 294.427 -130.978 294.966 -122.144C295.774 -108.976 293.764 -95.7876 289.069 -83.4609C285.091 -72.8386 280.493 -68.6914 269.796 -72.7235C266.087 -74.1221 263.001 -77.3663 259.858 -80.0352C257.206 -82.3013 254.85 -84.9347 252.392 -87.4398C250.765 -89.1411 248.722 -90.3864 246.465 -91.0518C244.208 -91.7173 241.817 -91.7797 239.528 -91.2329C234.591 -90.153 231.956 -88.0418 234.135 -82.0048C236.164 -76.3882 239.241 -71.1523 241.416 -65.5755C244.493 -57.715 249.36 -50.2661 248.37 -41.2947C248.025 -38.1168 246.809 -35.0319 246.517 -31.8541C246.217 -28.5435 246.075 -25.2151 248.843 -22.3648C251.61 -19.5145 254.465 -21.0105 256.799 -22.0683C262.581 -24.7017 268.527 -25.0027 274.698 -24.9894C280.476 -24.9894 286.253 -25.702 292.04 -25.8746C299.647 -26.1136 306.278 -23.4536 312.396 -19.0276C314.416 -17.5671 314.164 -16.0976 313.28 -14.522C312.144 -12.4374 310.69 -10.5386 309.359 -8.54695C302.994 0.915775 299.904 11.3035 300.96 22.7092C301.623 29.7023 305.823 34.6594 311.331 38.5763C313.753 40.3069 316.711 41.4975 318.669 43.6308C323.753 49.1544 326.736 55.488 324.778 63.4149C323.987 66.6104 324.606 70.1955 323.602 73.2848C320.57 82.6192 314.266 89.2847 304.85 92.0686C293.525 95.4146 282.863 99.4511 274.548 108.445C271.396 111.853 266.94 114.021 263.275 117C252.794 125.538 240.063 128.879 227.593 132.903C224.017 134.058 220.405 135.443 217.218 137.391C208.983 142.418 206.697 142.06 200.791 134.363C197.145 129.614 193.347 124.962 189.391 120.474C184.276 114.676 174.657 114.097 167.642 116.544C166.647 116.894 165.259 118.129 165.251 118.961C165.224 126.773 164.38 134.695 169.088 141.821C172.708 147.3 177.867 149.509 184.007 149.668C191.398 149.858 198.758 150.071 205.875 146.893C209.155 145.428 211.105 148.743 212.731 151.222C215.224 155.032 214.942 159.396 214.667 163.614C214.225 169.585 212.767 175.542 212.899 181.478C213.081 189.263 221.78 195.614 231.558 190.383C233.649 189.263 235.537 187.771 237.517 186.444C244.011 182.075 248.383 182.54 254.417 187.373C259.279 191.268 263.7 195.716 270.167 197.553C274.344 198.748 277.868 198.518 281.068 196.278C286.072 192.777 290.559 188.546 295.545 185.014C299.232 182.398 303.118 180.322 307.839 179.26C315.924 177.49 321.449 180.588 325.079 186.984C329.118 193.952 334.177 200.276 340.086 205.745C344.693 210.083 346.213 215.367 346.677 221.626C347.38 231.097 349.166 240.489 350.475 249.916C350.841 252.572 351.261 255.201 351.452 257.857C352.159 267.726 347.986 273.086 337.094 275.689C330.551 277.256 323.775 278.614 319.854 284.713C317.321 288.661 315.614 293.176 313.842 297.549C310.747 305.197 306.826 312.154 298.414 314.81C293.238 316.399 287.941 317.561 282.575 318.284C276.157 319.17 270.799 322.268 266.334 326.415C259.673 332.611 252.87 338.954 247.605 346.296C240.682 355.945 237.774 366.926 242.371 378.925C244.758 385.152 250.46 387.741 254.863 391.76C255.823 392.645 257.401 392.88 258.267 393.813C267.387 403.683 284.927 400.328 293.941 393.72C299.612 389.56 305.279 385.24 310.235 380.279C316.202 374.295 323.054 373.197 330.635 374.968C342.252 377.716 353.728 381.071 365.358 383.758C371.547 385.187 374.916 389.334 376.1 394.787C378.585 406.219 383.041 416.957 386.519 428.035C387.793 432.089 387.611 436.599 388.137 440.87C389.552 452.427 390.118 455.941 402.044 459.096C406.465 460.26 411.252 460.03 415.88 460.19C422.715 460.429 427.285 462.996 428.7 468.156C429.454 470.893 429.788 473.729 429.69 476.566C429.323 485.285 432.869 493.154 434.809 501.351C435.826 505.658 435.251 509.579 432.157 512.168C427.431 516.112 422.153 519.458 416.849 522.622C413.829 524.424 410.266 525.278 406.995 526.69C399.352 529.961 396.09 536.555 394.118 544.049C393.106 547.881 391.599 551.276 387.664 552.98C383.076 554.972 379.522 552.538 379.186 547.518C378.801 541.765 380.512 537.016 384.146 532.594C390.246 525.185 390.295 521.883 385.702 513.27C382.121 506.552 378.412 499.864 375.393 492.911C373.439 488.392 372.334 483.43 371.37 478.562C369.332 468.254 360.982 462.491 352.481 463.182C343.729 463.894 334.959 464.368 326.224 465.231C320.101 465.833 314.973 468.298 311.804 474.083C309.032 479.155 306.177 484.223 302.866 488.945C297.866 496.062 300.235 503.024 303.025 509.787C305.894 516.749 310.358 523.127 312.622 530.239C315.212 538.374 315.88 547.102 317.887 555.468C319.213 560.938 318.921 565.966 316.295 570.865C312.494 577.947 305.598 580.041 298.458 581.227C287.849 582.997 277.302 582.997 266.728 580.417C262.44 579.368 257.838 579.496 253.374 579.337C246.646 579.102 246.128 578.354 246.38 571.861C246.871 559.168 246.168 546.602 243.153 534.112C241.699 528.075 239.683 522.074 241.235 515.244C243.206 506.574 248.374 501.418 255.31 496.868C262.736 491.999 270.857 488.923 279.11 485.94C281.629 485.033 284.308 483.497 285.966 481.474C289.436 477.234 288.685 473.109 283.53 470.285C278.226 467.382 272.479 465.16 266.732 463.292C257.843 460.411 249.05 457.981 243.361 449.386C238.295 441.747 230.449 440.764 221.656 441.189C208.656 441.818 197.251 446.699 186.014 452.347C176.709 457.025 166.979 457.215 157.28 455.126C149.085 453.356 141.159 454.073 133.525 456.454C128.273 458.096 125.74 463.031 125.568 468.661C125.126 481.523 120.515 492.464 111.196 501.413C105.892 506.512 99.3893 508.442 92.343 508.782C86.8956 509.099 81.4345 509.099 75.9871 508.782C65.4751 508.079 57.1955 512.575 49.7204 519.272C46.237 522.394 42.7699 525.536 39.3189 528.699C35.9107 531.828 29.0368 531.404 26.4287 527.699C24.1079 524.402 21.4247 521.286 19.5636 517.741C14.1883 507.503 8.43278 497.496 5.38705 486.086C3.84429 480.306 6.56732 476.296 8.12335 471.649C9.80314 466.643 11.7216 461.712 13.5473 456.755C16.1421 449.7 13.6932 444.553 8.18964 439.773C3.27402 435.506 -1.6018 430.801 -5.12495 425.393C-12.9316 413.443 -6.50855 406.215 4.64883 403.781C9.29037 402.767 14.2104 403.042 18.9934 402.661C22.3043 402.4 25.6021 401.993 28.9086 401.687C39.9599 400.656 50.2862 403.604 60.6523 407.038C71.2085 410.535 81.5879 414.217 90.8665 420.511C91.8877 421.201 93.1475 421.56 94.319 422.02C97.8554 423.41 100.861 423.591 104.827 421.759C114.914 417.098 125.47 413.412 135.956 409.667C147.233 405.64 157.333 399.563 166.594 392.167C172.562 387.4 173.561 379.947 175.117 372.914C178.424 357.954 181.505 342.123 193.683 332.062C205.464 322.325 214.676 309.902 227.956 301.731C237.208 296.035 237.38 290.144 231.05 281.137C226.7 274.941 222.238 268.824 217.665 262.787C214.239 258.268 208.275 256.741 202.343 258.83C197.167 260.649 192.176 262.964 186.955 264.699C179.852 267.155 178.415 272.83 178.083 279.216C177.721 285.997 178.234 292.937 176.89 299.518C174.945 309.038 172.438 318.461 163.779 324.954C152.524 333.386 130.342 330.748 124.595 316.403C121.774 309.419 119.306 302.298 117.2 295.066C115.405 288.838 113.018 283.045 108.659 278.247C101.737 270.612 95.2694 262.504 84.4259 259.773C76.8314 257.861 71.4605 259.264 69.1972 266.372C65.9393 276.596 63.5566 287.112 61.1872 297.593C59.7859 303.789 59.3394 310.189 58.0928 316.421C56.4175 324.759 51.745 328.468 43.2797 328.309C28.0687 328.026 15.2669 332.815 4.48967 344.079C-3.35675 352.28 -10.0229 360.791 -14.3417 371.445C-19.9292 385.232 -31.0866 394.393 -43.5171 401.63C-53.9937 407.729 -62.9674 415.35 -71.1674 424.114C-76.5295 429.867 -77.1793 435.466 -73.1257 442.924C-68.4798 451.479 -66.2784 460.628 -65.7877 470.237C-65.2484 480.731 -68.9837 489.228 -78.1076 495.071C-82.9437 498.169 -86.2281 502.152 -83.5802 508.437C-78.0458 521.587 -79.8935 535.436 -79.6018 549.121C-79.5538 550.783 -79.3884 552.439 -79.1067 554.078C-78.2226 559.579 -73.9214 562.77 -70.1154 565.882C-63.1221 571.605 -62.1584 577.009 -64.3377 585.799C-65.9159 592.181 -68.3162 598.36 -70.1463 604.684C-70.6273 606.624 -70.8004 608.626 -70.6591 610.619C-70.4469 615.754 -70.0711 620.879 -69.6998 626.004C-68.9749 636.016 -71.0658 637.835 -81.1622 640.681C-90.4718 643.305 -100.294 644.049 -109.825 645.948C-112.269 646.439 -114.572 648.001 -116.756 649.364C-119.612 651.135 -117.782 653.516 -117.313 655.778C-115.103 666.515 -117.092 677.27 -117.234 688.021C-117.415 701.772 -114.188 705.375 -100.436 707.354C-92.8545 708.442 -85.0876 708.717 -77.6833 710.514C-68.8422 712.66 -61.2345 717.662 -54.8734 724.261C-48.5583 730.888 -40.4732 735.557 -31.5817 737.711C-20.4288 740.526 -10.3323 735.587 -6.29195 724.734C-4.62983 720.273 -2.36653 715.927 -1.4559 711.315C0.754354 700.02 11.2177 695.983 21.9507 702.419C30.3497 707.442 37.8646 713.444 41.7325 722.778C45.9143 732.812 43.6289 739.247 35.7692 745.005C29.7927 749.382 23.2282 752.972 17.013 757.017C11.7084 760.478 5.37379 763.479 4.31286 770.419C3.49949 775.73 3.87081 781.4 4.75492 786.738C6.20042 795.475 4.27307 803.446 -1.02713 809.917C-5.34155 815.183 -11.3579 819.061 -16.6979 823.46C-21.5604 827.443 -26.7722 831.489 -27.8862 837.897C-28.8366 843.355 -29.2123 849.405 -27.8066 854.659C-26.0163 861.421 -28.0807 867.087 -31.259 871.964C-36.5902 880.139 -43.7382 886.406 -53.8037 889.137C-62.0126 891.35 -68.524 897.104 -75.1901 902.322C-82.621 908.124 -90.5381 913.135 -99.945 915.272C-106.66 916.799 -113.83 915.467 -116.389 906.863C-120.403 893.333 -124.85 879.922 -125.182 865.653C-125.46 853.641 -121.552 844.045 -108.861 840.372C-97.4253 837.065 -91.2012 829.147 -87.961 818.056C-86.5553 813.254 -84.2654 808.682 -82.064 804.154C-79.1421 798.143 -78.1563 791.841 -78.6735 785.286C-79.1155 779.692 -84.9506 774.858 -91.9925 772.787C-101.019 770.131 -109.75 771.411 -118.807 772.659C-128.214 773.96 -137.78 773.203 -146.537 768.432C-154.238 764.241 -162.296 761.492 -171.292 761.886C-177.224 762.143 -182.785 763.214 -186.065 768.467C-190.698 775.863 -196.343 783.17 -198.673 791.341C-202.43 804.521 -206.709 817.653 -208.703 831.387C-209.459 836.574 -212.421 841.806 -215.524 846.209C-222.269 855.792 -228.113 865.684 -231.296 877.054C-233.506 884.976 -239.607 888.716 -247.077 891.031C-252.44 892.695 -257.528 895.015 -261.51 899.361C-266.373 904.672 -267.279 910.151 -263.959 916.764C-262.735 919.207 -261.546 921.681 -260.503 924.208C-258.92 928.05 -257.802 931.843 -260.945 935.636C-264.269 939.651 -268.928 939.27 -272.814 938.349C-277.234 937.305 -280.771 938.022 -284.807 939.46C-289.912 941.284 -295.327 942.244 -300.623 943.541C-302.259 943.939 -304.137 943.829 -305.534 944.612C-309.955 947.095 -308.704 953.464 -303.629 956.509C-299.487 959.005 -294.934 959.041 -290.743 958.257C-284.223 957.031 -278.543 958.762 -273.433 962.015C-265.011 967.375 -256.268 971.836 -246.596 974.266C-240.38 975.828 -234.099 977.302 -227.76 978.165C-223.048 978.807 -220.055 981.294 -218.437 985.247C-214.653 994.506 -208.226 999.928 -198.655 1003.39C-190.658 1006.29 -183.524 1011.77 -176.292 1016.54C-170.713 1020.22 -165.435 1021.02 -159.896 1016.95C-150.427 1010 -140.154 1003.98 -133.13 994.143C-131.477 991.828 -129.39 989.717 -128.267 987.159C-124.563 978.856 -117.998 974.417 -109.953 970.619C-97.9602 964.958 -85.26 962.002 -72.6837 958.443C-60.598 955.018 -48.6847 956.854 -37.0367 960.488C-28.7217 963.077 -23.2535 969.247 -19.1557 976.767C-14.2931 985.667 -9.95656 994.966 -9.55429 1005.09C-9.30232 1011.48 -10.9026 1018.42 -13.462 1024.33C-17.2769 1033.14 -21.7859 1042.13 -31.1176 1046.65C-35.7812 1048.91 -41.0063 1049.98 -45.9219 1051.74C-51.6155 1053.78 -56.3852 1056.85 -58.3612 1063.11C-59.4708 1066.62 -57.9191 1069.49 -56.8494 1072.56C-54.4269 1079.49 -54.701 1086.72 -54.8867 1093.89C-54.953 1096.37 -58.6485 1097.2 -62.291 1095.9C-69.6733 1093.24 -74.6154 1087.88 -78.6204 1081.48C-85.5253 1070.45 -96.2097 1065.8 -108.331 1069.69C-119.382 1073.23 -130.615 1075.02 -142.059 1074.42C-156.245 1073.66 -160.625 1082.6 -162.893 1092.89C-164.896 1102.03 -163.335 1110.52 -160.139 1119.28C-157.646 1126.13 -157.266 1133.75 -155.935 1141.02C-154.857 1146.93 -152.677 1151.78 -146.573 1154.53C-138.77 1158.04 -131.269 1162.25 -123.745 1166.36C-117.22 1169.92 -110.099 1170.87 -102.92 1171.8C-94.7995 1172.85 -87.2316 1175.44 -82.1922 1182.26C-78.3331 1187.49 -77.4136 1194.48 -83.7217 1200.41C-91.1614 1207.42 -99.3438 1213.82 -110.351 1214.46C-114.484 1214.7 -118.657 1214.81 -122.728 1215.51C-128.214 1216.45 -130.84 1220.35 -131.229 1225.85C-131.923 1235.61 -128.78 1244.75 -127.167 1254.13C-126.724 1256.65 -125.88 1259.1 -125.221 1261.58" stroke="#0C6F78" stroke-width="0.55057" stroke-miterlimit="10"/>
<path d="M-330.352 -228.827C-322.837 -228.987 -317.178 -232.811 -312.537 -238.277C-301.857 -250.847 -287.707 -257.37 -272.394 -262.133C-265.967 -264.133 -259.911 -267.108 -255.03 -271.994C-249.346 -277.686 -249.186 -283.355 -253.992 -289.892C-257.868 -295.168 -261.506 -300.648 -264.897 -306.269C-270.48 -315.492 -278.318 -320.755 -289.21 -320.573C-296.835 -320.445 -303.02 -316.218 -308.435 -311.58C-318.315 -303.113 -329.176 -305.516 -336.284 -315.669C-339.281 -319.954 -343.065 -323.919 -345.028 -328.642C-348.529 -337.051 -354.824 -337.852 -361.998 -336.241C-373.518 -333.656 -384.684 -332.829 -396.275 -335.396C-403.569 -337.011 -411.194 -337.1 -418.528 -338.587C-427.796 -340.421 -436.274 -345.07 -442.809 -351.9C-448.68 -357.986 -456.464 -360.482 -464.169 -362.129C-482.165 -365.979 -493.583 -376.584 -499.865 -393.553C-502.177 -399.794 -504.697 -406.034 -507.902 -411.841C-509.784 -415.113 -512.487 -417.837 -515.744 -419.741C-527.785 -426.673 -539.827 -433.741 -552.434 -439.477C-560.13 -442.973 -568.891 -441.566 -575.199 -430.833C-580.089 -422.517 -583.475 -413.758 -586.149 -404.525C-588.359 -396.903 -593.054 -390.486 -597.784 -384.05C-604.565 -374.831 -610.78 -365.152 -616.633 -355.282C-620.461 -348.837 -621.098 -341.517 -619.78 -334.002C-618.803 -328.438 -618.277 -322.777 -617.76 -317.143C-616.876 -307.641 -620.916 -299.174 -627.874 -294.128C-639.089 -286.024 -642.904 -274.614 -646.507 -262.562C-647.966 -257.694 -649.871 -252.989 -651.369 -248.156C-652.241 -245.399 -652.902 -242.581 -653.345 -239.724C-653.845 -236.48 -652.192 -235.298 -648.925 -235.201C-637.166 -234.785 -626.168 -238.02 -615.223 -241.707C-601.36 -246.376 -587.506 -251.077 -573.586 -255.551C-568.905 -257.056 -564.051 -258.079 -559.224 -259.048C-549.415 -261.013 -542.656 -267.971 -534.911 -273.401C-525.796 -279.788 -524.072 -289.366 -522.533 -299.258C-521.839 -303.644 -520.266 -307.809 -517.136 -311.172C-513.573 -315.005 -510.112 -315.466 -505.744 -312.655C-503.742 -311.367 -501.492 -310.305 -499.843 -308.645C-491.886 -300.652 -482.519 -300.727 -472.529 -303.197C-469.427 -303.894 -466.286 -304.397 -463.122 -304.702C-456.049 -305.538 -450.952 -301.657 -449.418 -295.261C-447.173 -285.967 -445.882 -276.46 -444.348 -267.01C-443.61 -262.46 -445.413 -258.654 -448.768 -255.613C-455.019 -249.966 -461.468 -244.526 -467.551 -238.697C-475.344 -231.226 -476.392 -221.989 -471.061 -212.442C-467.082 -205.339 -463.303 -198.12 -459.126 -191.136C-454.745 -183.82 -447.57 -179.752 -440.369 -175.685C-428.571 -169.046 -418.634 -160.287 -408.736 -150.833C-393.998 -136.758 -379.433 -121.976 -360.667 -112.517C-352.945 -108.622 -346.637 -102.006 -339.184 -97.4691C-330.241 -92.0074 -320.883 -87.1742 -311.432 -82.6243C-308.358 -81.2508 -304.924 -80.9077 -301.64 -81.6462C-292.357 -83.9831 -285.532 -79.6899 -278.808 -74.5248C-274.755 -71.4266 -270.745 -68.3285 -265.427 -67.5539C-257.873 -66.4651 -251.949 -68.7047 -248.086 -75.5207C-245.752 -79.6412 -243.351 -83.7353 -241.168 -87.9355C-238.171 -93.6893 -233.365 -97.801 -228.18 -101.213C-222.876 -104.683 -215.396 -102.218 -212.571 -95.8049C-210.109 -90.206 -208.633 -84.0539 -207.572 -77.9948C-206.365 -71.0682 -203.363 -65.3144 -196.998 -62.7695C-184.696 -57.8168 -174.409 -49.6996 -163.353 -42.7862C-159.074 -40.1306 -158.124 -35.9437 -157.903 -31.3672C-157.527 -23.5686 -158.142 -15.8453 -156.232 -7.97154C-154.627 -1.35472 -150.87 2.95618 -146.507 7.33346C-139.903 13.9724 -133.006 20.3104 -126.813 27.2946C-124.064 30.3928 -123.6 33.2342 -128.71 34.9869C-132.953 36.443 -137.551 37.1645 -142.051 37.5186C-152.492 38.3418 -162.385 43.7149 -165.842 54.4611C-167.796 60.5823 -171.169 65.796 -175.709 70.3946C-180.814 75.5243 -185.726 80.8532 -190.588 86.2396C-195.694 91.9048 -194.465 98.7474 -194.16 105.572C-193.488 120.744 -183.511 131.495 -176.703 143.755C-173.07 150.297 -169.25 156.741 -165.303 163.101C-161.613 168.925 -159.465 175.593 -159.061 182.478C-158.398 195.508 -151.546 203.479 -140.61 209.352C-130.337 214.849 -128.215 221.546 -130.027 233.593C-131.439 242.777 -132.084 252.062 -131.954 261.353C-131.804 269.227 -129.218 276.539 -122.296 281.77C-114.617 287.568 -107.708 294.45 -99.7996 299.85C-95.4498 302.811 -89.8004 304.697 -84.5444 305.307C-73.6301 306.604 -63.0253 308.295 -53.3179 313.885C-50.0688 315.757 -46.245 316.607 -42.9783 318.47C-33.3548 323.989 -24.8056 316.81 -22.2947 309.428C-19.3639 300.802 -19.7795 291.808 -20.9155 282.66C-21.9632 274.25 -25.2167 267.129 -28.9388 259.8C-32.7625 252.275 -38.7478 248.319 -46.4042 245.946C-58.4633 242.215 -67.7907 235.24 -72.693 223.157C-74.585 218.492 -76.1852 213.619 -78.7226 209.321C-83.4437 201.319 -81.733 194.344 -76.6803 187.404C-75.1199 185.262 -73.9308 182.836 -72.7019 180.477C-68.3079 172.139 -71.663 164.247 -74.8237 156.732C-77.56 150.217 -81.4898 144.388 -81.8037 136.815C-82.0663 131.305 -81.4621 125.788 -80.0134 120.466C-77.4274 111.096 -74.1562 101.921 -71.2077 92.6484C-67.6978 81.6277 -73.6832 68.5313 -80.672 65.5349C-84.2615 63.9947 -88.5096 63.7911 -92.5013 63.4547C-100.502 62.7776 -107.739 60.7416 -112.292 53.4565C-115.13 48.9243 -115.828 43.7946 -115.214 38.5985C-114.829 35.5003 -112.062 34.3319 -109.343 33.6458C-101.263 31.6099 -93.1556 29.6625 -85.066 27.6664C-81.2556 26.7192 -77.4981 25.0727 -73.6611 24.878C-70.0672 24.6965 -66.018 25.2453 -62.8397 26.8254C-53.0394 31.694 -44.5078 29.1225 -36.5509 23.1475C-30.3622 18.5002 -24.6155 13.2908 -18.6654 8.32488C-12.7994 3.42533 -7.68051 -2.74004 0.183584 -4.51043C7.03538 -6.03739 14.0198 -7.71483 20.9821 -7.88302C33.5187 -8.18398 46.1393 -7.98038 58.614 -6.82521C64.8557 -6.2454 70.8809 -3.1561 76.968 -1.09803C83.4617 1.11496 88.7486 -2.52318 88.8326 -9.55162C88.9564 -19.4171 85.7692 -28.4328 80.8492 -36.7846C78.7229 -40.3962 75.6949 -43.4855 72.9983 -46.7519C67.2517 -53.6918 64.427 -61.871 63.1583 -70.5813C61.9471 -78.9021 58.5697 -86.3068 53.0662 -92.2685C45.7989 -100.169 37.8287 -107.454 29.8364 -114.642C24.4257 -119.51 19.6339 -119.404 13.5513 -115.195C7.89743 -111.278 2.15518 -107.467 -3.24669 -103.245C-8.43637 -99.1952 -14.802 -98.549 -20.637 -96.3626C-24.2574 -95.0038 -28.0767 -94.0566 -31.4982 -92.3128C-38.4738 -88.772 -40.2729 -85.1516 -38.907 -77.5124C-37.8947 -71.8338 -35.7773 -66.3147 -35.1982 -60.614C-34.8357 -56.905 -35.9806 -52.9217 -37.1963 -49.2924C-37.6118 -48.0487 -40.6531 -46.5173 -41.8953 -46.9289C-47.6419 -48.8321 -53.7025 -50.5981 -58.6932 -53.8777C-65.7661 -58.5471 -65.8766 -66.0712 -62.6938 -73.9981C-61.4074 -77.1893 -59.0645 -79.9422 -57.3626 -82.9828C-56.5051 -84.5275 -55.1524 -86.5236 -55.537 -87.8514C-56.2531 -90.3255 -58.8037 -90.5778 -61.2836 -90.4229C-68.1354 -89.9803 -75.1641 -90.2636 -79.452 -96.4555C-81.9982 -100.133 -82.9884 -104.918 -84.5532 -109.247C-86.7326 -115.261 -88.682 -121.298 -94.4375 -125.18C-97.4302 -127.198 -100.578 -127.331 -103.336 -125.977C-107.381 -123.994 -111.492 -121.661 -114.71 -118.572C-126.203 -107.529 -140.318 -110.189 -151.948 -117.196C-154.159 -118.523 -156.267 -120.139 -158.402 -121.622C-164.025 -125.605 -169.6 -125.543 -175.262 -121.622C-178.998 -119.05 -182.777 -116.505 -186.663 -114.19C-195.628 -108.879 -207.505 -111.181 -214.574 -117.948C-227.442 -130.265 -236.433 -145.389 -247.18 -159.256C-251.724 -165.066 -256.693 -170.531 -262.046 -175.605C-267.722 -181.022 -275.577 -181.669 -282.778 -183.625C-291.553 -186.006 -299.134 -183.01 -306.596 -178.717C-315.384 -173.662 -324.379 -173.888 -333.331 -178.646C-341.553 -183.014 -350.204 -186.697 -358.011 -191.707C-367.616 -197.868 -371.834 -207.64 -370.83 -218.834C-369.981 -228.093 -361.826 -236.785 -347.702 -232.78C-342.154 -231.209 -336.478 -230.093 -330.864 -228.77" stroke="#0C6F78" stroke-width="0.55057" stroke-miterlimit="10"/>
<path d="M610.653 -61.6319C611.126 -53.8732 616.369 -49.3808 622.588 -46.9067C638.533 -40.5731 645.575 -27.459 650.827 -12.5346C651.821 -9.89607 653.159 -7.40042 654.805 -5.11228C656.348 -2.8993 661.644 -2.27081 666.656 -4.03234C674.56 -6.81185 678.53 -13.2738 682.57 -19.9127C685.041 -23.9802 687.283 -28.0034 687.433 -32.8542C687.667 -39.4932 683.835 -44.5167 680.506 -49.7216C677.854 -53.8555 675.201 -57.9761 672.584 -62.1143C670.454 -65.5002 671.647 -68.4036 674.074 -71.0282C675.502 -72.5729 677.045 -74.0113 678.521 -75.5073C684.935 -81.9958 684.462 -85.5543 681.028 -92.8837C678.782 -97.6726 676.426 -102.284 675.241 -107.684C674.056 -113.084 675.192 -117.864 676.249 -122.591C677.765 -129.385 680.67 -135.869 682.977 -142.485C683.998 -145.446 685.718 -148.381 682.977 -151.43C680.037 -154.723 676.094 -154.312 672.576 -153.758C667.541 -152.966 662.718 -150.696 657.674 -150.045C648.745 -148.894 641.508 -154.843 639.908 -165.315C638.807 -172.529 636.168 -176.437 626.514 -178.867C615.984 -181.523 606.232 -178.424 596.83 -175.441C584.541 -171.555 573.746 -172.839 562.443 -178.486C556.095 -181.66 548.766 -183.147 541.711 -184.51C535.747 -185.656 529.678 -184.218 524.431 -181.12C513.145 -174.454 501.484 -175.025 489.168 -177.49C482.308 -178.867 475.266 -176.827 468.352 -174.91C460.802 -172.812 452.814 -172.343 445.131 -170.657C441.038 -169.772 436.732 -168.466 433.297 -166.173C421.521 -158.317 417.746 -161.867 409.427 -168.284C403.645 -172.746 397.933 -177.331 392.059 -181.642C386.798 -185.493 380.486 -186.758 374.231 -187.498C370.694 -187.914 366.932 -186.44 363.352 -186.754C356.381 -187.36 349.493 -189.104 342.522 -189.48C335.551 -189.857 328.253 -191.025 322.656 -184.7C321.026 -182.914 319.834 -180.771 319.178 -178.441C318.522 -176.112 318.419 -173.662 318.877 -171.285C321.184 -158.45 318.585 -146.761 312.365 -135.506C308.458 -128.424 305.173 -121.25 304.691 -112.725C303.847 -97.7213 302.247 -82.6774 294.909 -69.0808C292.919 -65.4191 290.614 -61.9375 288.022 -58.6754C281.895 -50.9388 285.811 -41.268 296.014 -39.9225C307.83 -38.3557 319.779 -37.1253 331.674 -37.0634C338.937 -37.0235 346.744 -38.2097 353.361 -41.0467C365.173 -46.1233 365.977 -52.2311 358.874 -64.0618C356.566 -67.9035 353.569 -71.3115 351.018 -75.0205C346.81 -81.1726 345.245 -87.9 346.479 -95.3799C347.151 -99.4562 347.327 -103.63 347.504 -107.773C347.911 -117.222 351.085 -122.445 359.952 -125.034C373.271 -128.902 386.661 -132.66 400.55 -134.094C406.01 -134.66 411.478 -135.249 416.906 -136.108C422.808 -137.037 428.324 -135.501 432.139 -131.469C439.862 -123.303 447.346 -114.788 453.915 -105.679C459.48 -97.9603 456.713 -88.024 448.61 -82.5225C445.267 -80.3295 441.797 -78.3373 438.218 -76.5563C432.71 -73.7148 429.301 -69.187 426.786 -63.6501C424.09 -57.7016 421.8 -51.585 417.017 -46.6721C411.836 -41.361 405.444 -39.0329 398.579 -37.9087C384.734 -35.6426 380.99 -31.4734 379.288 -17.4829C378.775 -13.5305 378.625 -9.5471 378.244 -5.56372C377.586 1.34079 381.215 5.22236 386.719 6.67408C397.637 9.55538 408.861 11.2638 419.872 13.8486C429.858 16.1943 437.696 11.3302 445.631 6.80243C454.428 1.77453 463.865 -1.23957 473.896 -0.943025C483.329 -0.664189 492.727 0.915884 502.143 1.86747C506.267 2.27908 510.4 2.5712 514.52 2.86331C519.52 3.22181 522.919 5.70922 524.961 10.2989C526.396 13.5514 528.065 16.6948 529.956 19.7041C532.441 23.5813 534.753 23.6875 537.843 20.7398C542.418 16.3448 543.647 7.88236 536.3 4.45666C524.037 -1.26169 520.651 -12.9684 516.05 -23.9315C512.257 -32.9649 506.492 -40.1969 497.687 -44.7335C494.933 -46.1543 492.059 -47.3493 489.288 -48.7169C482.33 -52.1692 479.47 -58.1133 478.267 -65.5356C477.096 -72.7853 479.196 -78.6232 483.828 -83.9167C490.229 -91.2284 493.434 -100.235 496.064 -109.26C498.783 -118.612 504.755 -123.821 513.561 -126.583C519.347 -128.393 525.395 -129.65 530.801 -132.253C534.001 -133.793 537.29 -133.054 538.647 -131.837C546.843 -124.49 557.213 -122.772 567.027 -119.488C570.793 -118.231 574.365 -115.739 577.406 -113.101C583.759 -107.591 589.342 -101.151 595.915 -95.9464C602.833 -90.4627 611.007 -87.3247 620.095 -87.3866C620.59 -87.3866 621.09 -87.4264 621.581 -87.3866C624.458 -87.0989 628.092 -87.1786 628.817 -83.8768C629.436 -81.0708 626.487 -79.65 624.083 -78.424C621.841 -77.2866 619.746 -75.8481 617.624 -74.4893C613.106 -71.6036 611.272 -67.1909 610.68 -62.0966" stroke="#0C6F78" stroke-width="0.55057" stroke-miterlimit="10"/>
<path d="M191.438 53.9699C203.541 52.0845 208.465 48.2693 210.472 35.071C212.453 22.0056 216.002 9.63499 220.613 -2.61166C222.894 -8.66196 223.239 -14.907 221.89 -21.4973C221.135 -25.2107 222.408 -29.4419 223.217 -33.35C224.671 -40.4714 224.927 -47.1635 220.785 -53.767C216.953 -59.8704 212.081 -61.4284 206.335 -56.1615C205.047 -54.9543 203.884 -53.6197 202.865 -52.1781C197.56 -44.8841 190.337 -41.1486 181.544 -39.7323C172.916 -38.3381 164.375 -36.3862 155.764 -34.8637C139.7 -31.9868 125.094 -36.3464 111.775 -44.9151C107.107 -47.9115 104.557 -53.0367 104.703 -59.149C104.897 -68.4081 105.016 -77.685 104.641 -86.9308C104.451 -91.5869 103.315 -96.2519 102.218 -100.811C100.742 -106.861 95.9632 -109.517 90.3668 -110.105C86.4812 -110.517 82.3701 -109.981 78.511 -109.158C73.5026 -108.087 71.0713 -103.776 72.0836 -98.3454C73.4097 -91.2063 74.9834 -84.1115 76.5041 -77.0078C78.2213 -68.523 83.2144 -61.0599 90.3978 -56.2411C99.6543 -49.9253 104.199 -40.8343 106.108 -30.3492C108.049 -19.6826 109.203 -8.87441 110.657 1.88069C111.541 8.51965 108.098 12.9102 103.261 16.7962C96.2196 22.4526 88.9921 27.9629 82.5558 34.2655C78.3872 38.3418 75.2929 43.5955 72.0747 48.5525C69.1793 53.0139 69.2412 58.0462 71.0713 62.8883C73.5468 69.4254 75.673 76.206 80.9379 81.2605C85.659 85.7882 89.7303 85.5359 92.7407 79.7246C98.2486 69.1023 106.997 61.7242 116.054 54.3904C125.43 46.7999 134.89 39.1429 141.357 28.649C142.905 26.1439 144.054 23.3865 145.336 20.7309C147.104 17.1282 148.837 13.4856 153.766 13.7954C158.549 14.0964 162.2 16.3094 164.136 20.7486C166.27 25.6437 168.253 30.6038 170.086 35.6287C172.518 42.3031 176.898 47.477 182.592 51.3719C184.891 52.9431 188.122 53.1423 190.929 53.9744" stroke="#0C6F78" stroke-width="0.55057" stroke-miterlimit="10"/>
<path d="M215.214 227.618C206.493 220.94 197.431 214.504 193.952 203.276C192.665 199.115 191.238 195.096 192.771 190.343C195.296 182.509 192.396 171.617 186.879 168.731C182.706 166.544 177.777 165.633 173.078 164.681C169.201 163.907 165.17 163.721 161.2 163.641C153.305 163.49 149.419 166.394 147.39 174.033C146.67 176.742 146.506 179.632 146.365 182.442C145.949 190.71 145.773 198.987 145.3 207.228C145.087 210.986 146.241 214.279 148.871 216.593C156.97 223.719 164.935 231.106 173.706 237.333C181.826 243.087 191.087 241.525 199.827 237.931C203.774 236.307 207.487 234.089 211.236 232.018C213.734 230.637 216.063 230.362 217.655 233.053C220.435 237.767 224.029 242.348 225.408 247.478C228.613 259.379 233.86 269.966 242.533 278.61C249.195 285.249 253.293 293.078 255.91 301.975C257.532 307.507 259.004 308.848 264.751 308.299C272.708 307.538 280.881 307.967 288.591 304.577C296.3 301.187 301.056 295.203 300.893 287.112C300.782 281.651 300.415 276.185 299.907 270.736C299.337 264.566 302.391 260.556 307.422 257.901C311.095 255.98 314.897 254.316 318.8 252.922C327.288 249.801 328.91 247.088 326.695 238.497C325.325 233.186 324.339 227.645 322.147 222.666C315.56 207.724 308.045 207.325 296.061 210.499C288.131 212.592 280.36 214.283 272.19 214.212C263.991 214.094 255.859 215.702 248.32 218.93C242.246 221.515 235.16 221.612 228.626 223.228C224.232 224.317 220.02 226.131 215.723 227.618" stroke="#0C6F78" stroke-width="0.55057" stroke-miterlimit="10"/>
<path d="M86.3881 168.08C92.232 166.452 94.0356 161.096 96.7056 156.617C97.1477 155.834 96.8515 153.838 96.1884 153.342C95.5253 152.846 93.8544 153.258 92.8509 153.74C88.7885 155.696 86.4102 159.286 84.4298 163.132C83.4043 165.128 83.3557 167.04 85.893 168.08" stroke="#0C6F78" stroke-width="0.55057" stroke-miterlimit="10"/>
<path d="M191.437 -34.837C187.804 -34.1776 184.152 -33.6022 180.541 -32.8365C169.794 -30.566 159.101 -28.0388 148.315 -25.9851C142.613 -24.8963 136.751 -23.9403 130.987 -24.0775C122.384 -24.2811 118.848 -18.5672 119.569 -11.5166C120.687 -0.920845 128.074 3.87248 137.936 0.433501C140.19 -0.295307 142.51 -0.799363 144.863 -1.07133C152.192 -2.08045 158.283 1.14166 164.176 4.86832C170.659 8.94317 177.099 13.0814 183.494 17.2832C186.853 19.4962 189.841 19.2129 192.41 16.2475C198.09 9.69263 204.018 3.30153 209.172 -3.66937C213.84 -9.96752 212.51 -23.688 208.222 -30.3491C206.158 -33.5447 202.789 -34.9787 198.873 -34.868C196.561 -34.8016 194.249 -34.868 191.932 -34.868" stroke="#0C6F78" stroke-width="0.55057" stroke-miterlimit="10"/>
<path d="M184.502 -26.9014C181.363 -26.2375 178.074 -25.9631 175.126 -24.8167C171.497 -23.4093 167.726 -21.7894 164.777 -19.3418C160.074 -15.4337 160.286 -12.7825 164.172 -8.03789C168.831 -2.35494 174.989 0.632586 182.031 1.8276C190.235 3.23063 201.861 -6.79862 201.843 -14.9911C201.843 -19.8597 197.029 -25.1443 191.933 -25.9011C189.625 -26.2463 187.309 -26.565 184.997 -26.8969" stroke="#0C6F78" stroke-width="0.55057" stroke-miterlimit="10"/>
<path d="M281.625 -8.04669C277.545 -6.08156 273.155 -5.27603 269.588 -1.74411C263.903 3.8813 264.151 16.1501 274.667 18.3365C278.796 19.1996 282.292 18.186 285.007 15.6809C289.471 11.5382 292.026 6.20051 292.031 -0.102075C292.031 -6.86938 290.864 -8.03784 284.1 -8.03784H282.12" stroke="#0C6F78" stroke-width="0.55057" stroke-miterlimit="10"/>
<path d="M10.077 8.82074C3.56562 10.8655 -1.4163 15.0525 -6.38496 19.6157C-12.3615 25.0862 -19.1602 29.6582 -25.6009 34.6197C-32.0416 39.5812 -38.5221 44.4763 -44.9097 49.5264C-50.2939 53.793 -52.3362 59.8876 -52.7827 66.3805C-53.6668 78.9192 -56.3191 91.0774 -59.8246 103.076C-61.9508 110.397 -64.3556 117.66 -66.7471 124.914C-69.09 131.995 -67.9229 138.271 -62.7686 143.782C-59.5726 147.199 -56.5092 150.744 -53.3352 154.183C-42.085 166.399 -43.0708 172.701 -51.3991 185.917C-53.2778 188.9 -55.5676 191.635 -57.8221 194.362C-61.3585 198.633 -61.8005 203.55 -59.6522 208.211C-57.3005 213.345 -52.3451 215.699 -46.8946 216.142C-35.9891 217.027 -29.6059 210.534 -29.0224 198.845C-28.4433 187.24 -25.1721 176.791 -16.2383 168.51C-8.4626 161.295 -1.38978 153.594 1.79299 142.821C5.60348 129.986 5.90407 117.89 -0.160875 105.484C-4.33384 96.9506 -5.90755 87.3861 -5.19142 77.7906C-4.70075 71.3597 -0.585242 66.9868 5.15259 64.4552C8.95865 62.7777 13.0565 61.7686 17.0128 60.4143C25.5135 57.502 32.9267 52.6777 39.805 47.0213C42.4573 44.8393 43.2044 41.9004 43.2972 38.5898C43.8586 18.8721 30.323 9.23235 10.5854 8.82074" stroke="#0C6F78" stroke-width="0.55057" stroke-miterlimit="10"/>
<path d="M120.081 22.7139C111.364 27.0248 103.195 32.1589 96.3432 39.1342C94.645 40.8209 93.325 42.8501 92.4708 45.0871C91.9265 46.8598 92.1012 48.7758 92.9571 50.4204C94.2832 52.6334 96.4625 51.4207 98.2617 50.4957C98.9203 50.1637 99.7072 49.969 100.224 49.4866C107.686 42.5688 115.254 35.766 122.468 28.5916C124.869 26.2148 123.755 23.6566 120.559 22.7139" stroke="#0C6F78" stroke-width="0.55057" stroke-miterlimit="10"/>
<path d="M-5.77955 38.5897C-13.3342 40.4043 -19.2047 44.4054 -23.7578 50.8983C-26.1139 54.2576 -29.6017 57.0947 -33.1072 59.3077C-37.9079 62.3704 -40.2949 66.7477 -41.9482 71.8287C-44.6005 79.9282 -47.3545 87.9968 -49.8432 96.1494C-52.1508 103.705 -50.7274 111.361 -49.8432 118.956C-49.3747 122.94 -48.8973 126.994 -47.8231 130.845C-45.6526 138.656 -40.6132 144.6 -34.5129 149.712C-34.0708 150.093 -33.4697 150.323 -33.0409 150.722C-25.8664 157.361 -22.604 157.763 -13.8072 151.071C-3.30848 143.105 0.280973 131.544 -5.96522 118.554C-10.2045 109.733 -11.6146 100.5 -13.1706 91.1702C-14.0548 85.9121 -14.6869 80.6054 -15.1555 75.2943C-15.8716 67.1637 -12.2821 61.0603 -5.78397 56.4352C-2.60562 54.178 0.608095 51.9428 3.6052 49.4599C5.83756 47.601 7.58366 45.3747 6.14258 42.0464C4.76338 38.8198 2.16411 38.4525 -0.819736 38.5764C-2.30503 38.6339 -3.79474 38.5764 -5.28003 38.5764" stroke="#0C6F78" stroke-width="0.55057" stroke-miterlimit="10"/>
<path d="M149.814 59.4272C142.05 61.6103 134.775 65.2577 128.378 70.1735C119.979 76.6089 116.722 81.9599 121.726 93.5913C127.561 107.157 122.645 108.834 112.115 112.406C96.9088 117.558 82.2725 115.504 68.5335 107.095C64.3473 104.528 62.5747 100.381 61.1911 96.1318C59.4715 90.8472 58.2559 85.5095 54.2597 81.1942C50.6526 77.2816 44.119 74.5552 39.3316 76.361C35.11 77.9366 30.9857 79.8133 26.9542 81.7961C19.6426 85.3811 18.7364 87.6605 20.9909 95.6582C21.5037 97.4729 21.9015 99.3273 22.4983 101.111C25.0047 108.635 22.5779 115.593 19.9565 122.431C16.7704 130.69 14.9229 139.405 14.4839 148.248C14.0861 156.051 12.004 163.296 6.1866 169.147C2.72975 172.63 -0.139158 176.702 -3.28656 180.495C-9.01113 187.4 -8.73706 195.424 -5.54103 202.727C-1.87642 211.087 3.01709 219.028 8.22887 226.556C14.895 236.187 25.5927 239.538 36.3787 241.91C42.1917 243.189 48.2345 243.578 54.1978 243.937C60.36 244.309 65.0148 241.64 68.1224 236.094C70.3306 232.124 72.8043 228.307 75.5268 224.671C82.3123 215.682 91.7722 211.835 102.739 211.269C105.869 211.11 109.017 211.269 112.155 211.269C121.482 211.269 126.403 207.184 127.441 197.863C128.157 191.458 127.981 184.957 128.555 178.526C129.355 169.581 130.372 160.645 131.521 151.735C132.295 145.756 133.316 139.785 134.496 133.881C135.496 128.875 135.624 123.108 140.486 120.121C143.833 118.062 147.917 116.921 151.82 116.137C154.915 115.522 159.039 116.544 160.48 113.415C161.767 110.627 161.829 106.71 161.059 103.638C159.088 95.8043 161.249 88.6209 163.168 81.2694C165.82 71.0897 160.175 61.627 150.309 59.445" stroke="#0C6F78" stroke-width="0.55057" stroke-miterlimit="10"/>
<path d="M304.416 65.3801C302.272 67.1992 299.996 68.8899 298.046 70.9081C297.339 71.6428 295.77 73.2672 297.998 74.263C299.023 74.7056 300.451 75.0818 301.415 74.7056C305.283 73.2937 307.577 69.8857 306.821 66.8672C306.666 66.2432 305.575 65.8537 304.916 65.358" stroke="#0C6F78" stroke-width="0.55057" stroke-miterlimit="10"/>
<path d="M239.011 90.1877C235.044 91.843 231.08 93.4983 227.119 95.1536C226.434 95.4329 225.772 95.7659 225.139 96.1495C220.984 98.7298 218.451 102.828 219.742 105.541C221.58 109.41 225.046 110.184 229.1 110.091C237.463 109.901 243.219 106.475 245.946 99.615C248.245 93.8303 245.8 90.2541 239.506 90.1877" stroke="#0C6F78" stroke-width="0.55057" stroke-miterlimit="10"/>
<path d="M291.535 114.004C283.189 116.323 276.024 120.391 271.223 127.897C268.438 132.243 268.571 134.058 272.222 137.802C277.787 143.512 283.671 148.796 291.531 151.222C296.186 152.656 298.895 151.85 299.267 147.239C299.952 138.692 299.66 130.048 299.382 121.457C299.24 117.093 296.137 114.863 292.03 114.013" stroke="#0C6F78" stroke-width="0.55057" stroke-miterlimit="10"/>
<path d="M105.215 121.94C101.582 122.603 97.9657 123.365 94.31 123.896C91.03 124.369 87.6041 124.188 84.4301 125.016C80.0096 126.162 76.4113 128.419 73.8783 132.783C69.5904 140.17 63.7112 146.141 55.6791 149.761C47.5011 153.448 42.4794 150.248 42.1965 141.294C42.0369 137.427 41.3726 133.597 40.2205 129.902C38.1341 123.051 34.2528 122.015 29.4389 126.936C24.3023 132.19 22.481 138.218 24.3111 145.804C27.2684 158.1 23.5243 168.487 13.5781 176.578C10.8306 178.765 8.34718 181.264 6.17815 184.027C2.58869 188.736 1.06804 194.123 3.68056 199.801C7.13299 207.325 10.2273 215.146 14.7319 222.033C19.842 229.876 28.4355 233.253 37.3649 234.948C42.093 235.836 46.909 236.166 51.7139 235.93C58.7027 235.585 63.0216 230.46 65.9435 225.047C73.0959 211.751 85.2523 206.608 98.7791 203.315C101.736 202.594 104.751 202.089 107.691 201.302C116.147 199.036 119.485 194.849 119.578 186.439C119.64 180.818 119.211 175.162 119.684 169.576C120.276 162.597 121.872 155.705 122.464 148.726C122.937 143.14 123.251 137.377 122.385 131.907C121.306 125.055 116.523 122.006 109.181 121.957H105.71" stroke="#0C6F78" stroke-width="0.55057" stroke-miterlimit="10"/>
<path d="M100.282 131.863C95.123 133.332 89.6726 134.098 85.4156 137.811C76.9105 145.207 68.043 152.222 62.0753 162.096C60.4788 164.853 58.4538 167.338 56.0766 169.457C55.0965 170.347 53.9051 170.971 52.6159 171.269C51.3268 171.567 49.9828 171.53 48.7121 171.161C42.8858 169.59 37.1436 170.223 32.9352 175.073C27.9268 180.827 23.2101 186.873 18.5376 192.91C14.7979 197.725 16.0224 203.435 17.7021 208.206C23.3737 224.312 33.2358 228.158 47.7307 226.897C50.8251 226.627 55.029 224.193 56.4391 221.542C62.5748 209.972 72.795 203.67 83.9391 198.385C89.288 195.849 94.6545 193.074 100.322 191.578C106.559 189.945 109.958 184.341 109.737 178.499C109.375 169.028 111.386 159.844 113.654 150.717C116.138 140.732 110.148 131.96 100.772 131.863" stroke="#0C6F78" stroke-width="0.55057" stroke-miterlimit="10"/>
<path d="M152.789 148.73C145.274 150.872 143.01 157.458 140.447 163.637C138.029 169.466 137.228 175.622 137.379 181.973C137.622 192.242 136.145 202.333 133.528 212.256C132.773 215.12 132.75 218.187 132.481 221.17C132.003 226.481 129.218 228.42 124.082 226.583C120.01 225.205 116.04 223.544 112.199 221.612C100.441 215.46 83.2981 221.661 78.4532 234.554C76.0352 241.003 78.2499 247.23 85.4686 249.793C95.7728 253.453 103.19 260.353 110.268 268.231C117.491 276.26 122.99 285.014 125.598 295.575C126.761 300.464 128.259 305.267 130.08 309.95C132.826 316.802 137.361 321.754 145.371 322.405C155.096 323.193 161.444 318.824 166.298 310.539C172.743 299.545 173.512 288.6 169.299 276.685C167.173 270.688 166.43 264.181 165.228 257.874C164.583 254.506 166.377 252.962 169.648 252.922C169.98 252.922 170.312 252.922 170.639 252.922C181.637 253.732 192.299 252.037 202.878 249.045C211.833 246.504 217.624 248.159 221.444 256.016C226.328 266.12 233.078 274.786 239.643 283.594C246.375 292.614 244.506 301.196 235.085 306.525C228.136 310.451 221.846 315.018 216.541 321.245C211.882 326.72 205.751 330.921 200.367 335.789C190.907 344.336 185.492 355.184 183.082 367.541C182.262 371.618 181.936 375.779 182.11 379.934C182.587 389.596 178.286 395.735 170.254 400.97C159.822 407.778 150.154 415.802 140.46 423.68C135.871 427.411 136.207 432.47 140.389 436.515C145.252 441.185 151.754 441.619 157.726 443.495C166.152 446.151 174.171 443.3 181.968 441.282C194.54 438.029 206.794 433.537 219.185 429.571C220.33 429.208 221.585 429.084 222.637 428.549C229.905 424.857 232.362 417.448 223.703 412.589C219.225 410.07 215.144 406.68 211.325 403.206C206.745 399.045 206.405 394.628 210.361 389.45C213.014 385.949 216.077 382.284 219.786 380.124C227.601 375.57 232.163 369.214 234.648 360.65C237.259 351.336 242.354 342.91 249.386 336.276C255.495 330.496 261.153 324.233 267.311 318.51C271.661 314.465 277.558 313.788 283.11 312.482C290.01 310.853 296.973 309.41 301.972 303.59C306.066 298.828 308.117 293.295 308.864 287.214C309.306 283.753 309.434 280.257 309.898 276.8C310.782 270.303 315.645 266.656 323.743 265.828C327.096 265.464 330.41 264.8 333.645 263.845C337.982 262.593 340.351 259.025 340.621 254.471C340.943 248.912 339.489 243.778 337.703 238.568C335.077 230.903 333.508 222.847 330.546 215.332C327.342 207.193 320.866 201.218 313.718 196.61C308.988 193.565 303.343 195.22 298.493 197.938C294.289 200.293 290.377 203.205 286.054 205.285C277.248 209.525 267.766 208.051 259.465 204.993C250.867 201.824 243.215 202.948 235.041 204.82C227.845 206.467 220.931 207.109 213.637 203.59C206.816 200.244 204.668 194.512 202.984 188.382C201.865 184.302 201.741 179.805 201.932 175.547C202.374 165.496 198.24 161.26 189.899 160.034C176.947 158.135 165.144 153.594 153.284 148.748" stroke="#0C6F78" stroke-width="0.55057" stroke-miterlimit="10"/>
<path d="M264.778 165.602C261.613 168.886 261.113 172.927 264.402 176.401C266.413 178.526 268.606 181.712 272.722 180.026C276.435 178.499 277.668 175.817 277.142 172.059C276.762 169.2 273.035 165.916 269.707 165.633C268.23 165.504 266.736 165.633 265.251 165.633" stroke="#0C6F78" stroke-width="0.55057" stroke-miterlimit="10"/>
<path d="M168.646 174.533C163.381 175.782 158.16 177.609 157.864 183.965C157.515 191.547 157.249 199.314 158.518 206.732C159.402 212.043 164.526 215.341 169.667 217.111C174.052 218.625 177.182 215.987 177.968 209.746C178.994 201.523 179.569 193.229 179.98 184.961C180.289 178.765 177.548 176.158 171.139 175.503C170.454 175.432 169.813 174.874 169.154 174.547" stroke="#0C6F78" stroke-width="0.55057" stroke-miterlimit="10"/>
</g>
</g>
<defs>
<clipPath id="clip0_2501_6090">
<rect width="543.963" height="352.365" fill="white" transform="translate(-93.5967 -24.2251)"/>
</clipPath>
</defs>
</svg>
