<?xml version="1.0" encoding="utf-8"?>
<!-- Generator: Adobe Illustrator 23.0.1, SVG Export Plug-In . SVG Version: 6.00 Build 0)  -->
<svg version="1.1" id="Layer_1" xmlns="http://www.w3.org/2000/svg" xmlns:xlink="http://www.w3.org/1999/xlink" x="0px" y="0px"
	 viewBox="0 0 1680 360" style="enable-background:new 0 0 1680 360;" xml:space="preserve">
<style type="text/css">
	.st0{fill:none;stroke:#5F636A;stroke-width:0.75;stroke-miterlimit:10;}
</style>
<path class="st0" d="M43.7,281.9c-0.6-1.5-1.7-2.8-3.1-3.6c-11.8-8.4-40.7,2.9-24.1,11c1.1,0.5,2.3,1,3.5,1.4
	C31.3,294.7,46.1,288.6,43.7,281.9z"/>
<path class="st0" d="M3,322.5c8.9,0.3,16.2-3.1,23.9-5.4c7.6-2.3,15.8-4.2,23.3-6.9c14.1-5.1,28.7-13.1,33.3-22.9
	c4.4-9.1-1.2-22.3-11.4-29.4c-11.2-7.9-28.1-12.2-38.6-20.6c-5.8-4.7-8.9-10.3-14.3-15.1c-3-2.6-3.9-4.9-6.1-7.6
	c-2.4-2.8-4.7-3-10-1.4"/>
<path class="st0" d="M3,355.8c3.2-5,14.3-10.2,20.8-14c7.3-4.1,14.8-7.8,22.6-10.9c15.8-6.7,31.4-13.6,46.4-20.9
	c17.5-8.5,28.7-16.9,24.3-30.9c-3.5-11.1-12.3-22.4-24.2-31.3c-11.4-8.5-35.5-13.7-36.7-25.7c-0.6-5.7,2.7-11.6,5.7-17
	c1.9-3.5,4.1-5.7,1-9.1c-2.6-2.9-7.6-5.2-11.3-7.6c-13.1-8.6-23.3-19.1-21.1-31.2c2.5-13.4,17.9-18.9,33.3-27
	c8.3-4.4,14-11.1,9.7-17.6c-3.4-5.1-14.5-10-15.9-15.4c-1.8-7.2,14-9.9,22.5-8.9c9.5,1,18.9,2.6,28.4,3.8c19,2.3,38.6,4,57.5,0.6
	c17.6-3.3,34.4-9.9,49.4-19.5c27.7-18.3,30.9-41.7,48.3-63c16.8-20.6,41.3-40.1,74.9-51.7c14.1-4.9,36.9-15.1,54.1-11.7
	c16.4,3.3,30,17.2,37.7,25.8c18.9,21.3,24.3,44.1,33.4,67.2c8.9,22.7,14.9,45.7,22.2,68.6c3.7,11.6,5.9,23.2,8.8,34.8
	c2.9,11.2,5.5,23.3,14.8,33.4c8.6,9.3,26.5,18.9,40.6,25.3c15.9,7.3,36.5,8.3,55.5,5.5c38.7-5.7,62.9-27.3,98.8-36.6
	c8.6-2,16.9-5,24.8-8.8c10.8-5.3,12.3-8.8,7.2-16.7c-7.1-10.9-12.9-22.1-21.1-32.8c-8.5-11.1-17.6-20.3-21.2-32.6
	c-3.5-11.6-4.1-22.7-4.8-34.5c-1.5-23.6-12.9-46.3-18.6-69.5c-3-12,0.2-22.7,6.1-34.2c3.4-6.6,4.2-11.7,0.2-18.3
	c-3.4-5.6-7-11.1-9.9-16.8c-11.2-22-11.8-46-10.5-68.9c0.7-12.5,1.4-23.2-6.7-35c-7.4-10.8-18.1-20.4-27.3-30.6
	c-4.4-4.8-6.8-10.1-10.3-15.1c-6.1-8.8-18.2-15.2-0.3-22.5c7.4-3,16.1-2.8,23.2-6.7c8-4.4,12.5-11.8,15.6-17.8
	c7.5-14.4,1.2-29.3,19.8-41.4c8-5.2,18.6-8.7,27.6-13.2c4.5-2.3,10.3-4.7,14-7.4c5.4-3.9,6.7-6.5,15.8-7.2c12.1-1,24.6,0.4,36.8-0.7
	c11.1-1.1,21.7-4.9,31-11c9.2-6,15.4-13.4,24.1-19.6c9.8-7.1,15.8-14.6,15.3-23.9"/>
<path class="st0" d="M442.2,55.4l0.1,0.2"/>
<path class="st0" d="M895.5-414.4c-2.2,3.6-3.3,8.1-7.3,11.1c-3.7,2.8-9.5,5.3-13.9,7.7c-9.8,5.4-25.6,8.9-31.7,16
	c-6.3,7.4-10,15.3-17.2,22.5c-15.5,15.3-38.5,22.8-65.9,28.6c-13,2.7-26.4,5.7-36.3,11.6c-10,5.9-13.8,14.8-17.2,22.5
	c-3.7,8.5,1.3,16.1,0,24.5c-1.3,8.4-13.9,11.8-21.6,18.1c-17.8,14.5-10.7,32.1,9.8,44.3c9.6,5.7,21.8,10.8,20.8,19.7
	c-1,8.4-7.9,15.9-13.6,23.5c-11.9,15.7-25.5,28.8-20.3,46.8c2.4,8.8,6.6,16.9,12.5,23.8c6.4,7.5,13.1,14.4,16,22.7
	c3,8.8-3.7,16-7.7,24.2c-1.9,3.8-4.2,8.1-3.2,12.1c1.1,3.9,3.2,8.1,4.8,12c6.6,16.3,10.1,32.5,14,49.1c3.8,17.1,10.1,33.5,18.8,48.8
	c9.2,15.8,14.9,31.1,20.3,47.5c2.6,7.7,14.2,13.6,19.4,21.1c5.6,7.9,5.7,16.3,2.7,24.6c-2.8,7.5-8,16.8-18.3,21.8
	c-10.9,5.3-27,3.8-40.1,3.4c-6.9-0.2-14.4-0.6-21.2,0.3c-6.6,0.9-12.7,3.6-18.6,5.5c-12.1,4-23.7,8.5-35.7,12.5
	c-23.9,7.9-49.8,16.2-77.7,17.2c-35.1,1.3-40.7-17.1-56.4-31.3c-7.8-7-16.2-13.5-21.3-21.5c-4.6-7.4-8.3-15.4-10.9-23.8
	c-5.4-16.3-5.8-32.6-14.7-48.6c-8.9-16-13-32.4-21.4-48.4c-7.2-13.6-12.7-27.5-19.6-41.1c-3.6-7.3-7.7-14.3-12.3-20.9
	c-2.3-3.4-4.7-6.6-7.4-9.7c-7.1-8-21.4-10.3-35.4-7.6c-21.9,4.2-34.9,15.8-47.9,26.3c-13.3,10.8-25.6,22.6-26.4,36.4
	c-0.4,6.3,1.2,13.2,3.2,19.4c1,3.1,3,5,0.9,8.1c-1.7,2.5-5.4,5.2-8,7.4c-5.7,4.7-16.1,9-24,12.4c-8.8,3.9-18.1,7.6-27.4,11.1
	c-19,7.2-37.4,15-56.7,21.9c-10.5,3.7-19.2,5.1-31.4,5c-11.3,0-22-0.2-32.7,2.1c-11.3,2.4-18.3,6.3-27.3,10.8
	C80.5,142,71.5,146,65,152.2c-13.8,13.1,2.4,21.6,14,32.7c12.2,11.7,4.8,25.6,15.8,37.8c10.6,11.8,26,21.9,36.9,33.7
	c10.5,11.4,17.2,24.1,23.7,36.5c7.8,14.8-18.1,19-35,25.2c-19,7-38.1,13.9-55,22.7c-17,8.9-31.5,16.7-34.1,30.8
	c-5.8,31.7,51.4,37.6,77.6,57.9c13.7,10.6,9.9,25.6,4.2,37.7c-6.6,13.9-18.5,23.1-33.1,34.2c-7,5.3-6.5,10.5-7.3,16.9
	c-0.8,6.4-8.4,11.4-15.3,15.9c-4.5,2.9-6.4,2.5-12.3,3.7c-4.4,0.9-7.5,3-11,4.7c-6.1,2.9-18.1,11-26.1,10.8"/>
<path class="st0" d="M41.8,586c4.8-7.7,17.3-14,25.8-20.1c8.5-6.2,19.4-12.2,24.4-19.8c10.4-15.5,13.7-32.4,25.3-47.8
	c11.4-15.3,18.9-31.4,22.5-47.9c1.9-8.6,4.7-16.9-1.7-25c-5.3-6.7-21.5-11.8-32.1-15.3c-22.8-7.6-55.2-17.1-52-35.8
	c2.9-16.8,33.2-27.6,54.6-35.8c21.6-8.3,54.5-16,65-31.1c10.2-14.7-3.4-35.1-13-48.9c-10.8-15.4-29.4-28.3-40.3-43.7
	c-11.1-15.6-12.7-32-27.5-46.8c-3.9-3.9-5.8-9.3,1.6-12c5.7-2.1,13.9-2.8,20.1-4.3c12.9-3.1,25.7-5.8,39.1-8
	c27.5-4.5,52.4-11,78.1-18.3c24.8-7.1,54-10.4,76.3-20.1c11.5-4.9,23.1-10.7,29.6-18.5c6.3-7.5,7.4-15.8,7.9-24
	c1-17-4.5-34,14.7-48.4c10.5-7.9,25.4-7.8,32.2,1.8c5.4,7.6,4.2,16.6,6.1,24.6c1.9,8.3,7.2,16,10.7,24.1c3.5,8.1,6.1,16.6,11,24.6
	c4.9,8,11,15,17.6,22.3c7.1,7.8,14.5,14.6,15.1,23.7c0.9,15.8,10.5,33.7,21.1,48.1c5.5,7.5,12.2,14.5,17.8,22
	c5.8,7.8,8.9,16.1,12.2,24.4c1.6,4,4,7.9,5.8,11.9c1.8,4,2.1,8.5,5.1,12.1c7.1,8.4,27.4,3.5,39.1,1.1c26.6-5.4,50.9-14,74.9-22.5
	c22.2-7.9,50.4-18.9,77.4-16.5c28.2,2.4,47.5,18.6,62.6,31.7c4.1,3.5,6.6,7.5,11.1,10.9s9.5,6.3,14.1,9.5c9.1,6.3,18,12.7,26.6,19.3
	c6.9,5.4,28.6,14.9,31.4,2.3c1-4.2-3.6-8.3-5-12.3c-1.4-4.4-0.1-8.5,0.8-12.9c1.7-8.8-8.9-15.6-16.3-22.7
	c-7.4-7.1-12.6-15.3-15-23.4c-4.8-16.6-3.1-33.3-2.6-50c1-33.7-10.1-66.3-37.7-96c-13.6-14.6-27.2-29.8-31.9-46.4
	c-4.6-16.6-7.5-33.4-10.1-50s3.5-33.1-2.1-49.7c-5.6-16.6-20.8-31.2-28.9-47.3c-5.1-10,6.1-16,15.5-23.6
	c8.1-6.5,15.6-13.4,21.2-20.8c12.8-16.9,4.7-32-11.9-46.7c-8.5-7.5-19.6-14-12.5-23.4c5.9-8,15.5-14,20.4-22.5
	c8.5-14.9-3.1-37,27.4-44.6c6.2-1.6,13.6-1.5,20.1-0.6c7.6,1,12,4.2,18.9,5.7c12.3,2.7,25.8-7.3,35-11.4
	c22.6-10,40.7-22.7,59.5-35.2c8.9-5.9,17.9-11.6,26.8-17.4c9.3-6.1,15.5-13.5,27.1-18.2c5.8-2.3,10.8-3.9,15.6-7s9.3-6.4,14.3-9.5
	c4.5-2.8,10.6-4.8,14.8-7.7c4.4-3,6.3-7.2,10.7-10.4"/>
<path class="st0" d="M150.2,574.2c-21,0.4-34.7-7.5-30.4-19.8c3.6-10.6,9.4-20.6,14.3-30.9c9.5-20.2,17.2-41.2,22.9-62.7
	c2.8-10.5,6.8-21.3,7-31.9c0.1-11.3-16-19-30.5-24.8c-15.1-6-31.9-9.7-47.2-15.3c-20.1-7.4-15.1-17.8,1.6-25.4
	c28.2-12.7,61.7-23,86-38.5c27.2-17.5,23.6-39.1,13-60.3c-10.5-20.8-32.7-38-44.2-58.4c-5.4-9.6-8.1-22.2,0.4-31.4
	c9.2-9.9,26-14.1,42.6-18.5c32.9-8.6,66.6-16.2,102-20.1c17.9-2,34.8-4.4,52.1-7.8c19-3.8,33.8-6.6,51.8,0.5
	c29,11.4,42.4,35.8,57.7,53.5c8.1,9.5,18.8,18.4,24.8,28.5c6.1,10.3,9,21,12.2,31.7c3.1,10.4,8,21.4,21.3,28.9
	c13.8,7.8,33.6,7.7,50.6,4.2c33.9-7,59.9-23.8,90.1-34.8c14.2-5.2,33.1-11.3,50.4-9.6c17.3,1.7,32.3,11,40,19.9
	c4.1,4.8,6.7,9.9,10.4,14.8c3.7,4.9,9,9.1,14,13.7c10.1,9.5,21.2,18,33.1,25.2c11.7,7.1,26,16.5,42.9,18.8
	c18.9,2.5,31.1-10.8,36.6-19.7c6.4-10.4,3.1-21.1,1.7-31.8c-1.4-10.7-3.2-21.1-8.2-31.6c-9.7-20.5-20-41.3-21.6-62.8
	c-0.8-10.7,1.4-21.4,1.4-32.1c0.1-12,3.8-20.3,16.3-29.6c7-5.2,11.5-9.7,3.5-15.4c-5.8-4.2-14.2-6.6-20.7-10.4
	c-12.6-7.3-23.3-16.4-34.6-24.5c-11.5-8.3-22.2-16.7-30.9-26.2c-9-9.8-12.3-19.7-14.6-30.6c-2.4-10.5-4.1-21.2-5.2-31.9
	c-0.9-10.7,1.7-21.5,0.9-32.1c-0.4-5.3-3.9-10.5-5.5-15.7c-1.7-5.2-3.4-10.7-5.3-16c-3.7-10.4-9.3-20.9-9.4-31.6
	c-0.1-10.7,9.2-20.7,17-30.2c8.3-10.2,14.8-19.1,15.6-30.6c0.9-11.4,0.8-20.7-8.6-31.1c-4.7-5.1-9.5-9.3-9.5-15.3
	c0.1-5.2,2.8-10.3,5.6-15.1c13.6-24.3,47-24.9,87-20.7c19.6,2.1,33.5,5.8,50.9-2.2c13.1-5.9,25.1-13.9,35.5-23.8
	c9.4-8.8,23.9-16.1,34.9-24.3c11.6-8.7,21.8-16.4,30.7-26.2c8.8-9.8,22.5-16.2,36.3-23.3c7.1-3.6,13.2-7.7,20-11.5
	c6.3-3.5,13.9-6.2,20.4-9.6c6.2-3.2,11.3-12.7,20.7-13.5c16.2-1.5,13.8,13.8,18.2,19.6c9.8,12.8,45.8,9.6,66.1,9.5
	c20.8-0.1,26.7,7.2,43.4,13.3c15,5.5,32.7,4.4,35.3,17.5c2.7,13.4,9.1,26.8,7.5,40.4c-1.2,10.8-2.7,21.3,1.5,31.9
	c4.1,10.4,9.9,20.6,15.5,30.7c4.8,8.7,1.1,24.4,13.8,30.8c15.2,7.6,36.6,0,50.8-4.5c17.2-5.5,24.2-14.4,31.1-25
	c6.6-10.1,14.6-19.4,22.3-29.2c7.5-9.4,14.7-19.3,20-29.3c2.5-4.7,5.7-9.5,7.3-14.4c4-12.5,8.9-27.6,30.4-34
	c11.4-3.4,19.6,0.3,30.6-0.9c6.1-0.7,8-4.5,13.1-5.6c10.6-2.4,20.5,2.2,30.3-0.3c9.8-2.5,9.7-8.5,11.1-13.9c1.6-6,1.2-12.1,3.2-18
	c1.9-5.4-2.5-17.6,8.1-19.9c7.6-1.7,19.8,2.1,28.9,1c8.2-1,28.8-3.5,22.7-10.9c-4.4-5.2-12.9-2-19.3-2.1c-8.6-0.2-37.4-0.2-40.4-5.2
	"/>
<path class="st0" d="M456.1,575.8c5.4-3.7,9.6-8.5,10.2-13.5c1.3-9.4-7.3-21.3-16.4-28.8c-22.3-18.3-74.2-18.4-106.6-11.9
	c-37.4,7.5-74,14.9-113.6,17.2c-13.5,0.8-43.7,3.1-51.7-5.3c-8.1-8.3-6.5-22.3-6.6-31.5c-0.2-11.6,1.3-23.4,3.4-34.9
	c2.1-11.5,6.4-23.3,5.4-34.9c-1-11.6-6.3-20.8-18.4-30c-9.9-7.5-28.3-15.1-32.3-24.3c-2.3-5.5-1.2-7.9,3.1-13.1
	c4.3-5.1,12.2-9.3,19.1-13.1c14.6-7.8,30.1-14.5,42-23.9c25-19.6,24.4-40.8,14.4-63.8c-5.2-11.5-11.3-22.5-18.4-32.9
	c-7-10.5-18.1-20.9-22.8-31.9c-5.1-12,10.8-19.3,26.8-24.4c17.5-5.6,35.4-10.2,53.4-13.7c34.9-6.7,80.2-11.5,115.5-3.7
	c18.5,4.1,32.3,12.6,46.1,20.7c13.4,7.7,26.1,16.4,38,26.2c11.6,9.8,15.5,20.8,19,32.4c3.5,11.6,7.4,22.6,15.1,33.4
	c7,9.7,18.2,21.4,35.3,25.8c17.5,4.5,40,1.8,56.6-2.7c36.4-9.9,57.3-31.8,91.2-43.6c17.7-6.2,36.1-7,51.7,1.7
	c13.3,7.4,19.7,19.7,25.4,29.7c6.6,11.5,13,20.4,27.7,29.1c13.6,8,27.3,16.7,42.8,23.5c15.5,6.8,32.3,10.5,49.4,3.7
	c15-6,27.5-14.5,35.5-24.2c8.1-9.9,5.7-20.5,3.1-30.9c-2.8-11.5-5.4-22.9-7-34.5c-1.6-11.6-3.2-23.1-4.8-34.6
	c-1.6-11.5-5.3-23.1-4.4-34.6c1-11.7,8.3-23.1,20.5-32.2c11.5-8.6,25.1-15.5,31-26.3c5.5-10-0.5-20.4-11.1-28.5
	c-12-9.2-29.2-13.6-42.5-21.8c-7.1-4.4-11.6-7-20.8-9.8c-8.4-2.4-16.6-5.4-24.5-8.9c-14.9-7-26.9-17.4-33.6-27.9
	C788.5,1.8,789-22.7,787.6-45.4c-1.4-23.4-13.1-46.1-10.9-69.6c1.1-11.8,6.7-23,12.6-34.2c5.4-10.6,9.4-21.9,12.1-33.5
	c2.7-10.9,2.9-23.6,12.5-33.3c10.4-10.5,30.1-14,49.4-14.7c9.7-0.3,19.8,0.3,29.3-1c9.5-1.3,18.3-4.4,27-7c17.3-5,32-12.6,48.6-18.3
	c8.2-2.8,16.7-4.7,23.8-8.5c7.2-3.9,9.4-8.7,12-14.2c5-10.7,11.7-21.6,22.9-30.6c10.1-8.2,27.5-17,42.6-21.8
	c8.9-2.8,18.1-4.4,27.4-4.7c9.7-0.4,15.6-3.6,24.6-4.7c8.5-1.2,18.8-0.9,27.6-1.2c9.7-0.3,19.1-0.5,28.7,0.6
	c8.6,1,16.3,3.7,24.4,5.6c9.1,2.1,16.8,5.5,22.7,10.2c5.3,4.2,6.3,8.7,9.3,13.4c3.5,5.5,8.2,10.5,10.9,16.3
	c5.2,11,6.9,22.5,11.3,33.6c9.1,22.6,10.3,45.1,7.3,68.2c-1.3,10,4.4,20.9,18.8,26.7c15.6,6.2,35.6,2.7,49.8-3.5
	c14.6-6.3,27.3-16.1,38.5-24.5c11-8.3,20.5-18.3,28.2-29.8c7.1-10.4,12.6-22.5,24.4-31.3c6.4-4.7,13.4-8.5,20.8-11.3
	c4.1-1.5,8.7-2.4,12.3-4.3c19.2-10.1,39,3.7,56.7-3.5c6.2-2.5,5.8-5.8,14-2.8c4.7,1.7,4.1,6.7,10.1,7.5c10,1.4,9.5-7.1,10.2-10.7
	c1.3-7.3-0.7-20.9,13.5-20.4c5.1,0.2,8.9,4.2,15.7,4.2c11.3,0,18.1-4,30.7-2.3c11.3,1.5,22.5,4.1,32.9,1.8
	c11.2-2.5,22.2-12.8,33.9-12.7"/>
<path class="st0" d="M511.5,571.9c-2.5-11.4-18.2-19.9-28.3-29.2c-10.9-10-19.4-23.4-35.3-31c-15.3-7.3-42.1-6.7-60.7-6.7
	c-44.6,0.1-84.4,14.1-128.7,15.7c-19.5,0.7-38.9-1.7-50.8-11.8c-10.9-9.2-13.5-21.5-14.1-32.6c-1.5-24.6,10.2-48-6.4-71.6
	c-7.2-10.2-20.4-19.8-25.7-30.5c-5.3-10.7,20.3-20.1,31.2-27c27.8-17.6,49.4-37.9,44.1-62.9c-5.1-23.8-20.9-46.4-25.6-70.3
	c-5-25.8,46.4-38.9,81.8-41.5c21-1.5,42.6-0.2,61.2,6.1c8.9,3,15.4,7.7,24,10.9c8.3,3.1,17.3,5.4,25.6,8.5
	c15.9,6,29.4,14.3,37.2,24.7c8.6,11.4,10.3,24.1,15.7,36.1c10,22.1,16,51.8,60.2,57.9c43,5.9,83.8-1.4,111.5-22
	c13.6-10.1,54-54.3,80.7-32.6c11.2,9.1,13.4,20.1,16.8,30.9c3.9,12.4,14.7,21.2,30.8,29.2c24.6,12.2,57.8,44,96.5,34.1
	c18.4-4.7,33.9-14.9,47.6-23.3c11.5-7.1,28.8-18.9,27.8-29.5c-0.5-5.4-4.8-11.1-7.3-16.3c-3-6-5.6-12.2-7.7-18.5
	c-4.1-12.9-3.2-25.6-0.6-38.6c2.5-12.4,5.1-24.6,4.7-37.2c-0.4-11.4,1.7-22.2,17.5-29.9c15.1-7.4,28.5-15.1,42.7-23.1
	c7.4-4.2,14.9-8.2,23-11.9c6.9-3.2,14.8-8.6,15.6-14.1c1.8-11.6-19.2-19.6-31-26.6c-6.1-3.6-12.7-6.8-18.7-10.5
	c-6.6-4.1-13.6-9-21.1-12.4c-7.5-3.4-17.3-4.4-26.3-6c-9.8-1.7-19.5-3.9-28.9-6.3c-19-4.9-38.8-10.4-51-20.8
	c-24.2-20.6-23.9-47.5-27.4-71.8c-3.7-26.1-12.5-52.3-7.5-78.6c2.5-12.9,7.8-25.4,12.2-38.1c4.2-11.9,6.2-24.4,13.7-35.8
	c7.2-10.9,19.9-19.1,39-22.6c19.9-3.7,41.3-3.9,61.2-7.7c19.3-3.7,35.1-12.2,54.3-16.3c19.2-4.1,39.5-4.1,58.1-8.9
	c7.8-1.8,15-5.6,20.9-10.8c5-4.5,4.8-11,6.1-16.3c2.8-10.9,2.8-21.8,13.4-31.4c5.6-5.1,11.2-8.6,21.4-10c9.8-1.4,18.3-2.6,27.6-4.8
	c15.6-3.6,39.2-2.5,54.2,1.6c17.8,4.9,25.8,14.3,35.3,23.9c10.5,10.5,15.7,23.8,19.8,35.7c8.5,24.7,4.7,49.4,6.6,74.4
	c0.9,11.6,7.5,20.9,16,31.2c8.2,9.9,8.6,24.3,20.9,32.7c14.4,9.9,38.3,0.4,52.5-4.9c15.7-5.8,16.3-19.8,22.7-29.2
	c15.4-23,38.5-44,55.2-66.7c7.5-10.2,14.3-21.4,30.7-27.6c17.2-6.5,35.1-5.5,44.8,5.7c9,10.5,14.6,19.3,33.6,24.4
	c11.3,3,16.2-0.3,26.8-0.8c11.7-0.5,24,2.4,35.8,2.8c11.1,0.4,20.6-1.4,31.7-0.6c12.4,0.9,24.3,3.3,37,2.9
	c6.1-0.2,12.8,0.5,16.8,3.3c2.2,1.5,4.7,2.7,7.2,3.4"/>
<path class="st0" d="M543,612.5c20.8-21.3-6.2-47.4-29-64.1c-12.1-8.8-23.4-18.6-33.8-29.3c-11.4-12.1-26.6-20-43.1-22.3
	c-39.7-6.2-79.4-2.4-118.2,3.8c-18.9,3-38.6,6.2-58.3,5.7c-22.6-0.6-35.7-9.2-43.2-21.4c-13.8-22.4,2.2-47.1-5.1-70.2
	c-3.6-11.5-12.3-22.4-14.4-34.1c-2.2-12.3,10.5-22.7,22.3-32c11.8-9.4,24-18.5,34.9-28.2c11.6-10.4,11.2-22.8,6.6-34.5
	c-8.7-21.7-27.1-47.3-16.7-69.7c11.1-24,59.2-35.4,96.3-24.8c9.1,2.6,16.2,6.7,24.7,9.8c8.4,3.2,17.8,5,26.5,7.8
	c17.9,5.8,31,14.5,38.8,25.8c7.6,11,10.7,23.3,13.7,35.1c3,11.7,6.6,23,10.5,34.5c1.9,5.5,3.7,11,5.1,16.6
	c1.7,6.6,4.8,9.3,16.3,10.3c19.6,1.8,39.2,3.6,58.6,5.9c19.4,2.4,38.7,5.8,58.2,8.4c22.3,3,35-5.4,50.7-13.6
	c7.8-4.3,15.9-8,24.1-11.3c10.8-4.1,15.8-4.3,26.8-0.5c17.3,6,34.9,12,51.8,18.5c16,6.1,27.6,16.4,42.2,23.8
	c14,7.1,34.1,16.9,53.7,13c18.1-3.6,34-13.2,48.3-20.4c15.1-7.6,31.4-15.1,44.4-23.9c13-8.9,18.7-21.4,13.5-32.7
	c-5.4-11.6-15.6-22-20-34c-4.4-12,1.6-23.2,8.1-34.5c6.3-10.9,12.6-22.7,14.7-34.2c1.2-6,1.5-11.6,7.6-16.9
	c5.4-4.7,15.6-8.5,23-12.1c15.5-7.6,30.3-14.4,47.7-20.3c16.1-5.4,34.7-11.9,39.7-23.2c5.1-11.2-4.2-23.3-18.7-30.4
	c-15.5-7.6-31.5-14.4-48-21.3c-16-6.7-31-14.5-48.3-20c-33.1-10.4-86-8.6-102.1-32.6c-7.3-10.9-8.3-23.3-10.6-34.8
	c-2.4-11.9-5.1-23.9-7.9-35.8c-5.6-23.5-9.5-46.9-3.4-70.5c3-11.6,7.2-23.3,10.4-34.9c3.1-11.4,4.5-24.6,14.6-34.8
	c11.4-11.5,27.7-15.2,49.3-16.3c9.8-0.5,19.9,0,29.5-1.2c9.8-1.2,18.3-4.4,26.9-7.3c17.7-5.8,35.4-11.6,55.5-13.8
	c19.4-2,39,3.6,56.8,7.4c9,1.9,18.9,3.4,24.8-2.3c5-4.7,3.8-10.8,5.2-16c1.7-5.9,4.8-11.4,4-17.4c-0.7-6.1-4.1-11.4-1.4-17.5
	c5.5-12.5,13.3-21.6,32.2-28.8c16.9-6.4,40.3-1.2,54.4,5.8c14.9,7.3,24.2,20.1,29.8,30.9c5.9,11.4,8.5,23,10.5,34.8
	c4,23.6-2.9,47.9,5.5,71.2c4.3,11.9,7.3,22.8,6.4,35.1c-0.4,5.9-2.4,11.7-2.7,17.6s2.3,11.7,5,17.3c2.5,5.8,5.4,11.5,8.5,17
	c2.7,4.6,4.1,12.2,14.3,12.7c17.5,0.7,28.1-16.2,35.9-23c10.9-9.6,25.3-18.4,40.1-25.9c16-8.1,24.9-17.5,33.9-28.6
	c8.7-10.7,14.8-22.6,20.8-33.9c5.9-11.3,14-22.1,22.9-32.6c8-9.5,17-23.6,35.3-27.5c19-4,24.7,16.3,28.9,23.9
	c4.7,8.6,8.5,23.8,22.3,28.9c17,6.3,37.9-1.2,55.2,1c9.7,1.2,16.8-1.2,26.4-0.9c8.3,0.3,18-0.4,25.9,1c10.5,1.9,18.8,1,29.1,1.5
	c5.7,0.3,7.2,0.7,12.6-0.8c4.4-1.2,6.9-2,12-0.9"/>
<path class="st0" d="M1671.7,143c-20.2,2.2-53.3,8.2-71.2,0.1c-18-8.2-29.9-23.5-51.6-28.5c-21.5-5-48.5-8.8-71.5-7.7
	c-23,1.2-46.4,6.6-68,11.3c-11.3,2.4-24.3,4.2-34.7,7.9c-10.8,3.8-16.9,9.9-23.7,15.8c-6.2,5.4-13.6,12.2-23.9,14.8
	c-5.5,1.5-11.2,2.2-16.8,2.1c-6.3-0.2-11.7-2.2-18-2.2c-13.2,0-23.6,0.7-36.6-1.9c-11.6-2.4-21.4-5.9-34-6.5
	c-11.6-0.6-23.2-0.8-34.8-1.7c-12.5-0.9-23.3,0-35.7,0.6c-14.3,0.6-23.8-1.8-30.3-9.5c-5.4-6.4-7.9-13.4-10.8-20.4
	c-2.7-6.7-6.2-13.4-9.1-20.1c-3.7-8.5-6.4-12.2-19.4-16.6c-21.2-7.2-43.7-12.7-64.1-20.8c-19.8-7.9-38.6-16.1-60.8-21.5
	c-21.9-5.4-47.8-8.4-67.5-16.5c-11.5-4.7-13.8-9.4-15.7-17.4c-1.6-7.1-2-14.2-3.7-21.3c-6.9-28.4-23.4-55.6-19.8-84.7
	c1.8-14.6,8-28.6,12.7-42.9c4.5-13.8,4.3-28.1,11.5-41.6c3.7-6.9,12.9-12.7,25.8-12.4c12.4,0.3,24.4,2.7,36.9,1.3
	c22.8-2.6,42.7-12.8,64-18c26.6-6.5,44.7,1.9,67.6,9.2c9.8,3.1,23,6.5,32.4,1.1c8.3-4.8,12.1-12.9,14-19.5c4.1-14.3,4.7-29,8.3-43.3
	c3.3-13.2,19.4-29.9,45.4-24.9c24.1,4.7,36.1,19.7,43.1,33.1c3.5,6.7,5,13.5,6.3,20.4c1.4,6.9,4.8,14.1,5.3,21.2
	c0.9,14.5-3,29.1-1.3,43.6c1.7,14.2,3.1,27.9,0,42.1c-6.2,28.3-4.9,57.1-4.7,85.7c0.1,9.7,5.4,36.2,31.1,29.1
	c10.7-3,18.1-10.1,26.6-14.8c8.5-4.7,17.3-9.2,24.6-14.7c14.9-11.3,24.5-24.9,36.9-37.1c12.2-12,25.7-24.2,41.8-34.5
	c16.4-10.5,34.9-19.8,43.4-33.7c8.2-13.3,6-29.3,17.6-41.6c7.5-7.9,19.2-5.4,22.2,2.8c2.1,5.8-3,14.3-3.8,20.5
	c-0.8,7.4-0.6,14.8,0.6,22.1c0.8,5.2,2.1,15,9.3,18.8c9.8,5.2,24.2-0.2,33.4-2.9c10.5-3,21.5-5.2,32.2-8c22.7-6,45.9-10.3,69.2-13
	c11-1.3,22.2,0.3,33.5-0.6c11.7-1,23.5-1.7,35.5-0.9"/>
<path class="st0" d="M586.1,583.7c-10.2-7.3-21-14.5-31.2-21.8c-10.7-7.7-20.5-15.8-31.5-23.3c-5.5-3.8-11.7-7.4-16.8-11.3
	c-5.1-4-6.8-8.9-10.5-13.3c-32.2-39.3-122-33.5-180.9-25.5c-16.1,2.2-33.5,5-50.2,3.5c-18.1-1.7-28.9-10.3-33.1-20.4
	c-4-9.6-1.4-19.6,1.8-29.1c3.6-10.5,3.5-19.5-0.8-29.9c-4-9.7-8.9-19.3-9.2-29.4c-0.4-10.1,6.2-19.6,15.6-28c10-9,21.3-16.5,33.6-22
	c13.4-5.9,25.6-13,29.5-23c3.9-10-7.3-19.1-14-27.7c-7-9-13.2-18.1-17.1-27.8c-7.6-19.1-3.5-43.6,30.8-52.3
	c16.6-4.3,31.6-0.1,46.3,4.8c14.7,4.9,30.8,8.8,44.5,14.6c30,12.6,34.1,33.1,36.5,53.3c1.2,10,3.5,19.8,5.8,29.7
	c2,8.8-0.1,21.3,7.9,29.1c10,9.7,27,10.5,44.1,12.5c16.6,1.9,33.3,4,49.1,7.7c14.7,3.3,28.9,8.4,42.2,15.4
	c6.4,3.5,12.2,7.4,18.8,10.7c5.8,2.9,11.5,8.1,19.1,9.3c14.5,2.1,27.4-12.4,34.8-18.1c10.2-7.8,23.8-14.8,40.7-16.1
	c33.1-2.6,65,13.1,88.4,25c12.8,6.6,25.1,13.8,41.5,17.1c19.7,4,29-1.8,40.8-10.4c20.5-15,48.3-30,77.6-38.6
	c14.4-4.2,33.4-7.6,43.3,1.9c8.8,8.3,17.1,17.1,24.8,26.3c15.3,18.7,15.1,38.7,5.9,58.4c-8.9,18.9-20.2,38.2-23.9,57.8
	c-3.6,19.1-2,40.6,5.9,59.3c4,9.4,19.8,16.9,30.4,23.8"/>
<path class="st0" d="M1671.7,123.3c-7.1,6.8-15,7.6-27.7,8.8c-10.7,1-23.7,1.8-34.2-0.3c-10.5-2.1-18.1-7.9-25.8-12.4
	c-8-4.8-16.2-9.1-24.8-12.8c-18-7.7-42.1-9.2-60.7-16.9c-9.2-3.8-16.4-8.9-24.8-13.3c-10.6-5.5-19.9-3.2-25.2,4.4
	c-4,5.8-8.2,12.4-17.7,15.8c-9.4,3.4-21.8,4.9-32.2,7.2c-10.4,2.2-21.3,4.3-31.1,7.3c-10.4,3.2-15.9,8.9-23.7,13.8
	c-15.5,9.6-33.5,18.2-57.2,17.5c-11.4-0.3-21.5-2.9-31.6-5.8c-10.1-2.9-19.4-7-30.8-7.1c-21.8-0.2-44.7,5.7-66,0.5
	c-21.6-5.4-26.5-21.3-33.5-33.1c-6.8-11.5-18.8-26.4-38.6-31.7c-9.9-2.7-20.9-3.8-30.9-6.5c-9.8-2.7-19.4-6-28.8-10
	c-18.7-8-36.1-15.8-57.5-21.2c-21.1-5.3-41.1-8-55.5-19.4c-13-10.4-14.6-26-20.4-38.3c-6-12.6-13-24.7-17.5-37.6
	c-4.6-13.5-6.9-26.5-2.6-40.1c4.1-12.9,12.8-25,17.1-37.8c3.4-10.3-0.4-32.6,20-36.5c10.6-2,22-2,32.7-4s20.6-5,30.6-7.8
	c10.1-2.8,20.1-5.7,30.3-8.2c12.1-3,19.8-3.5,31.5,0.3c9.8,3.1,19.4,6.5,29.2,9.7c9.1,3,21.6,7.5,32.3,5.2
	c19.7-4.3,26.8-22.7,30-33.4c4.1-13.3,4.8-26.8,10.8-39.9c2.8-6.1,6.4-13.1,15.6-16.8c10.3-4.3,21.1-0.3,28.8,4.4
	c16.2,9.8,20.6,24.2,22.1,37.4c0.8,6.7,5,12.9,5.8,19.6c0.8,6.4-0.6,12.8-0.3,19.2c0.6,13.5,1.2,27-1.2,40.4
	c-2.3,13.1-9.7,25.7-11.9,38.8s-1.7,26.9-1.3,40.1c0.4,13.2-1.2,26.6-0.3,39.8c0.9,12.9,1.8,27.2,12.7,38.7
	c5.1,5.3,13.7,11.6,23.8,13.5c13.5,2.4,18.3-4.6,24.1-10.5c11.3-11.5,23.1-22.5,39-32s27.3-20.8,39.4-32
	c6.2-5.8,13.1-11.2,19.6-16.9c6.2-5.4,10-11.6,15.5-17.2c11.4-11.7,26.3-21.3,50.2-23.2c13.4-1,21.2,2,30.6,7.1
	c9,4.9,19.3,5.7,31,4.2c21.1-2.7,41.6-8.6,61.7-13.3c11.3-2.7,21.9-2.7,33.4-4.2c11.2-1.5,21.9-0.9,32.8-2.3
	c5.6-0.7,8.8,0.5,14.3,0.8c5.7,0.2,11.5,0.1,17.2-0.3c10.5-0.7,21.1,0.1,31.4,2.4"/>
<path class="st0" d="M604.8,571.8c-11.8-4.5-23-10.1-33.6-16.8c-19.3-12.1-41.6-25.9-52.3-41.5c-2.8-4.1-4-8.4-8.4-12
	c-4.8-3.7-10-6.8-15.5-9.3c-12.3-5.7-25.2-10.2-38.5-13.2c-26.1-6-57.9-7.5-85.7-7.4c-29.8,0.2-58.3,5-87.8,6.3
	c-16,0.7-28.9-1.5-33.1-11.5c-3.9-9.5,0.4-17.3,8.7-25.3c3.5-3.4,11.8-6.2,11.4-10c-0.3-3.8-6-8.6-8.9-11.8
	c-6.5-7.3-11.4-15.8-14.4-25.1c-5.8-17.7,6.2-34.7,29.3-46c11.6-5.7,26.8-7.9,38-13.8c10.1-5.2,13.7-16,16.3-23.6
	c6.4-19.1-17.9-32.1-30.6-47.8c-6.3-7.8-9.7-17-6.7-25.5c2.6-7.5,9.7-17.8,22.5-20.9c12.6-3,30.8,3.6,42.3,6.4
	c13.5,3.3,27.5,6.6,38.1,12.8c23.3,13.8,14.2,32.3,15.7,49.6c0.7,8.7,4.4,17.3,6.6,25.9c2.2,8.9,3.8,17.6,11.3,25.5
	c15,15.9,47.6,19.3,74.6,24.4c27.9,5.3,54.5,14.3,71.4,28.9c13.3,11.5,16.3,41.8,50,37c14.2-2,25.1-9.6,32.7-16.6
	c8.1-7.4,17.1-14.5,23.2-22.6c3.3-4.4,5.8-7.8,14.7-7.6c7.2,0.1,14.1,1.9,20.8,3.3c12.5,2.7,30.3,4.7,40.7,9.8
	c11.8,5.8,18.2,13.5,32.7,17.8c13.7,3.9,28.2,4.8,42.3,2.5c30.5-5.2,44.1-21.2,65.5-33.7c21.1-12.3,50.4-23.7,76-8.8
	c46.6,27,20.1,66.7,10.7,99.2c-9.3,32.1-14.8,74.2,20.6,101.5"/>
<path class="st0" d="M1671.7-54.5c-1.9,3.3-3.1,6-2.9,9.5c0.2,3,1.7,6-0.3,8.9c-4.6,6.6-13.5,9.4-12.5,17.4c0.4,3.2,2.7,5.8,4.1,8.9
	c1.6,3.5,0.2,6-0.8,9.5c-2.2,7.4,4.1,11.7,12.5,16.7"/>
<path class="st0" d="M1671.7,96.3l-3,2"/>
<path class="st0" d="M1005.7,25l-1.1-0.5"/>
<path class="st0" d="M664.8,571c-15.4-7.6-32.4-13.2-48.7-20.1c-16-6.7-31.1-16-41.9-25.7c-11.2-10-16.5-20.6-22.5-31.9
	c-6.8-12.8-18.1-20.1-38.2-26.1c-36.7-10.8-74.6-14.5-114.9-16.6c-19.3-1-40.5-2.6-58.1-7.9c-18.5-5.5-27.4-16.5-37.2-26.8
	c-9.4-9.9-21.7-20.7-22.4-32.5c-0.7-13.3,16.4-21.1,34.5-26.5c16.2-4.9,35.8-13.8,54.2-14.7c19.1-0.9,36.8,10.8,51,17.1
	c15.7,7,32.3,14.4,50,19.5c17.5,5,36.2,8.5,53.3,14.1c17.8,5.8,32,15.1,38.5,26.7c6,10.6,7.9,24.2,21.6,32.6c6.5,4,17.2,7.3,26,9.1
	c9.4,1.9,19.5-1.4,29.1-2.3c19.1-2,40.6-2.7,57.5,3.8c8.4,3.3,15.8,7.5,24.8,10.3c9.2,2.7,18.6,4.9,28.1,6.5
	c18.5,3.5,39.2,4.1,56.6-1.9c17-5.8,27.8-17.9,39.8-26.8c12.4-9.2,27.2-17.1,39.9-26.1c12.8-9,22.1-20.6,37.6-28
	c20.3-9.8,36.2,1.5,39.6,14c3.1,11.6-4.4,24.1-5,35.8c-0.6,11.7,0.4,23.2-0.4,34.8c-1.7,24.4,0,47,11.4,70.6
	c5.9,12.4,14.1,23.6,24.2,32.9"/>
<path class="st0" d="M1263,116.2c-13.3-4.7-22.9-12.9-37.2-16.6c-15.4-3.9-30.8-4.7-42.9-12.1c-11-6.7-24.6-10.7-34.6-18.3
	c-10.7-8.1-16.4-15.7-33.5-19.8c-14.5-3.4-30.3-4.3-44.6-8.1c-13.3-3.6-26.2-8.9-38.2-15.7c-11.9-6.6-22-13.8-35.4-19.4
	c-12.7-5.4-26-10.3-35.5-17.8c-9.5-7.5-15.5-16.3-21.3-25c-5.9-8.7-14.5-17-19.4-26c-10.5-18.9-7.8-36.4,1.9-55.1
	c4.7-9.1,9.3-17.7,12.2-27.1c1.2-3.9,1.4-9.7,5.4-13.1c4-3.3,13.8-5.1,19.9-7c29.7-8.9,58.9-12.6,91.5-7.7
	c30.4,4.5,64.8,11.2,85.7-7.2c4.4-3.8,8.5-7.9,12.3-12.2c3.5-4,9.2-7.6,9.7-12.3c0.5-4.6-2.8-9.4-3.7-14c-0.9-4.6,0.1-9.2,1.6-13.7
	c1.7-5.2,5-6.8,11.8-9.9c9.3,7.4,13,16.4,10.5,25.5c-1.2,4.4-4.7,9.1-5.2,13.4c-0.5,4,4.4,8.7,5.8,12.7c3.2,9.8,3,17-2.1,26.6
	c-4.5,8.6-10.8,16.9-14.6,25.7c-7.3,17.1-3.4,36.5-3.2,54c0.1,17.9,1.8,35.9,2.3,53.8c0.3,9.1-1.3,18-1.3,27.1
	c0,8.6-1.4,18.6,1.6,27.1c3.5,9.8,16.7,14.2,29.6,19.5c12.6,5.1,24.5,10.7,39.8,12.6c13.9,1.7,31.9-0.2,44-4.7
	c13.4-4.9,16.5-14.7,18.8-23.3c2.4-9.1,2.6-17.8,8.9-26.4c6-8.3,14.6-15.8,23.3-23.2c8.7-7.4,17-14.9,25.6-22.4
	c8.6-7.4,18.8-14.1,27.5-21.6c8.2-7,14.7-16.8,26.9-21.6c13-5.2,30.4,0.6,42.8,4c13.4,3.7,30.5,1.5,44.8,0.8
	c15.1-0.9,30.3-1,45.4-0.3c15.1,0.9,30.1,1.7,44.7,4.4c12.4,2.2,26.1,10.5,34.3,16.3c20.8,14.7,8.5,35.6-3.1,51.2
	c-6.9,9.3-16.1,16.8-26.6,21.6c-13.1,6-18.7,13.6-17.3,23.6c1.6,11,11.6,15,27.1,19.4c13.6,3.9,27,9.5,30.1,18.9
	c2.7,8.1-3.9,18.9-16.3,23.3c-15.9,5.7-28.6,0.7-40.8-5.2c-12.3-5.9-25.6-9.3-38.4-14.3c-12.7-4.9-22.6-12.2-31.4-19.4
	c-8.8-7.2-16.9-15-28.7-20.9c-15.1-7.6-25.7,1.5-39.1,6c-14.1,4.8-19.9,12.8-28.5,20.5c-9.2,8.3-19.8,14.8-31.3,19.4
	c-12.8,5.2-24.4,10.2-35.2,17c-10.4,6.6-19.4,14-33.8,17.8C1291.8,120.6,1275.9,120.9,1263,116.2"/>
<path class="st0" d="M475.1,442.8c-39.8-7.8-84.7,1.1-121-13.1c-17.4-6.8-29.1-16.6-40.1-26.9c-9.3-8.7-27.4-24.3-7-32.4
	c7.9-3.2,19.6-4.4,28.6-6.2c9.9-2,19.9-4,30.4-4.4c20.4-0.7,39.9,5.7,55.9,12.7c16.6,7.2,30.8,16.5,48.9,22.4
	c18.1,5.8,40.1,6.2,58,12.4c20.4,7,26.3,24.4,11.9,35.9C526,454.7,493.8,445.4,475.1,442.8"/>
<path class="st0" d="M1262.7,106.1c-8.4-7.4-28.9-20.2-16.9-29.3c4.5-3.5,18.2-4.8,25.4-5.8c9.4-1.2,19.4-1.5,26.8-5.6
	c13.3-7.4,14.2-21.8,16.8-31.8c2.9-11,5-22,12-32.4c14.4-21.3,38.4-37.7,60.6-56.2c9.8-8.1,21.1-22.1,40.7-21.3
	c9.6,0.4,18.4,3.5,27.9,4.2c9.2,0.8,18.6,0.5,27.9,0.5c19.1,0,37.8,0.2,56.4,2.7c17.1,2.3,38.3,5.8,49.6,14.5
	c13.1,10.2,12.8,20.4,7,32.1c-3.1,6-7.6,11.3-13.1,15.2c-5.7,4.3-13.4,7.3-18.5,11.9c-11,9.8-13.1,20.9-12.1,32.4
	c0.6,6.3,11.5,31.5-8.8,28.7c-8.9-1.3-14.9-6.4-21.1-10c-6.7-4-13.2-8.4-19.3-13.2c-11.2-8.3-26.2-18.3-46.3-15.5
	c-9,1.2-16.6,5.3-24,8.3c-7.6,3.2-16.2,6-23.4,9.5c-14.6,7.2-23.7,17.7-38.9,24.6c-15.4,7-33.5,10.2-44.4,20.5
	c-9.7,9.1-19.5,21-39.9,22.1C1277.8,112.7,1269.6,109.6,1262.7,106.1"/>
<path class="st0" d="M1079.2,34.6c-28.5-7.6-46.1-21.3-66.7-34.5c-10.1-6.5-23-11-33.4-17.4c-9.3-5.8-17.3-13.3-23.7-22.2
	c-12-16.2-25-32.7-21.3-50.8c3.7-18.6,11.7-36,23.5-50.8c13.2-16.4,45.9-23.3,74.8-22.5c14.8,0.4,29.3,2.4,43.8,4.1
	c14.7,1.7,30.2,2.2,44.6,4.4c17.3,2.6,20,11.3,21.3,20.7c1.1,8.8,1.7,17.6,1.9,26.5c0.6,17.8,0.9,35.6,2.5,53.4
	c1.6,17.8,2.9,35.1-0.4,52.8c-1.6,8.6-3.5,17.8-9.3,25.8c-6.6,9.1-20.1,12-35.9,12.6C1093.4,36.9,1086,36.6,1079.2,34.6"/>
<path class="st0" d="M1271.3,95.8c0.2-5.3,0.7-10.7,11-12c9.9-1.3,18.7,2,18.8,8.3c0,3.9-6,9.7-11.9,11.6
	C1281.7,106.3,1274.7,99.4,1271.3,95.8"/>
<path class="st0" d="M1335.1,55c-0.3-14.7,4.9-29.4,9.9-43.8c2.5-7.5,6.2-14.6,10.9-20.9c5.3-7.1,13.8-12.3,21.8-18.3
	c7.5-5.7,14.9-11.4,21.9-17.3c7-5.9,14-13.5,24.5-17.3c6.2-2.2,10.8-1,17.3,0.1c6.1,1,11.7,0.8,18,0.7c12.5,0,24.9,0.3,37.3,1
	c22.2,1.4,52.7,2.6,69.4,12.8c20.9,12.8,10.1,27.7-6.4,39.7c-8,5.8-15,11.6-20.7,18.4c-3,3.6-5.8,6.2-6.3,10.3
	c-0.5,3.7,0.8,7.4-0.3,11c-3.6,12.6-18.4-0.9-25-4.7c-9.2-5.3-20.8-7-33.3-7.3c-26.4-0.7-42.7,12.5-65.4,18.7
	c-11.4,3.1-22.1,6.3-30.7,11.9c-7.4,4.8-17,13.9-29.8,12.2C1343.1,61.7,1338.4,59.1,1335.1,55"/>
<path class="st0" d="M1080.4,24.4c-24.5-4.7-42.2-18.6-57.4-30.2c-16-12.2-38.5-19.5-51.1-33.6c-11.9-13.3-20.5-28.3-20-43.4
	c0.5-15.2,8.3-31,18.6-44.7c10.8-14.4,30.6-24.8,57.8-25.6c23.4-0.7,53.9,1.3,75.1,7.7c25,7.6,24.8,26.5,24.9,41.1
	c0.1,15.5,0.1,30.8,2.6,46.2c2.4,15,6.5,30,3.7,45.1c-2.7,13.9-9.4,33.4-35.4,38.1C1093,26.2,1086.6,26,1080.4,24.4"/>
<path class="st0" d="M1374.5,24.4c-12.1-21.6,15.5-37,35.7-52.6c8.7-6.7,15.4-19.5,29.6-22.2c15.2-2.9,34.8-1.6,50.3,0
	c24.3,2.6,88.8,6.8,61.9,29.5c-8.9,7.6-21.9,16.2-34.8,21.3c-14.5,5.8-27.5,8.7-44.7,10.2c-9.2,0.8-19.1,1.7-27.3,4.5
	c-8.8,3-10.9,8.9-18.9,12.4C1414.1,32.8,1383.8,32.5,1374.5,24.4"/>
<path class="st0" d="M1054.8,4c-16.3-9.1-27-20.7-44.3-29.2c-17.3-8.5-28.9-19.8-36.1-32.4c-7-12.4-6-26.2-0.6-38.8
	c5.2-12.1,13.1-26.1,26.8-35.9c15.9-11.4,37.7-10.2,60.8-9.4c10.3,0.3,22.7,0.4,31.6,3.9c10,4,14.4,9.9,16.9,16.6
	c4.7,12.8,0.7,26.4,1.2,39.4s4.6,26,8.3,38.9c3.7,13,6.4,26.5-1.4,39c-8.6,13.7-27,22.3-50.2,13.7C1063.1,8.3,1058.9,6.3,1054.8,4"
	/>
<path class="st0" d="M1414.6,19.8c-0.5,0-0.9,0-1.4,0c-7.2-0.7-8.1-10.5-6.2-13.5c3.9-6.4,11.1-11.4,17.9-16.7
	c11.8-9.1,13-29.1,36.3-29.8c10.9-0.3,21.8,0.9,32.4,3.7c4.1,1.3,8.1,3,11.8,5.1c4.9,2.6,8.6,3.6,7.7,7.4
	c-3.5,14.3-24,21.7-45.9,24.9c-11.1,1.6-24.6,3-34.2,6.9C1426.9,10.1,1422,19.4,1414.6,19.8z"/>
<path class="st0" d="M1057.3-6.2c-11.6-8.6-21.6-17.8-35.3-25.3c-13.7-7.5-24.3-14.1-30.9-24.8c-13-20.8,4-43.8,24.4-60.8
	c11.5-9.6,29.5-11.4,48.2-11.8c24.1-0.5,29.2,8,27.9,20.9c-1.1,10.8-3.2,21.6-1.2,32.4c2.1,10.9,6,21.4,11.4,31.1
	c6.1,11.2,12.5,24.3,4,35.7c-2.6,3.4-6,6.2-9.8,8.2s-8.1,3-12.4,3.1C1073.6,2.7,1063.8-2.3,1057.3-6.2"/>
<path class="st0" d="M1668.6,98.3c-14.9,9.2-40.7,18.9-62.8,15.2c-22.1-3.7-40.6-15-60.7-21.6c-21.4-7-38.8-13.5-53.8-25.3
	c-7-5.5-12.4-11.6-20-16.8c-11.2-7.7-18.2-3.9-30,0.9c-5,2-9.7,2.9-12.3,6.2c-2.4,3.1-2.9,7-4.9,10.2c-4.2,6.9-10.3,12.7-19.6,17.5
	c-17.6,9.1-40.1,13.3-57,23.3c-16.9,9.9-32.9,20.7-58.3,21.2c-11.4,0.1-22.8-1.7-33.6-5.2c-10.6-3.4-18.5-8.5-30.9-9.5
	c-12.4-1-25.4,1.5-37.4,3.3c-6.2,0.9-14.6,2.9-20.8,1c-5.8-1.8-7-6.3-9.2-9.6c-9.6-14.8-19.2-31.1-39.8-41.8
	c-10.4-5.4-23.3-7.6-34.9-11.7c-12.9-4.6-25.8-9.1-38.5-13.8c-8.3-3-15-5-22.2-8.9c-7.9-4.3-16.1-8.2-24.4-11.5
	c-15.3-6-33-9.5-47.4-16.3c-15.4-7.3-21.5-22.9-28.4-33.5c-14.7-22.2-37.6-48.3-29.1-72.8c4.2-12.2,11.6-23.8,16.6-35.9
	c4.9-11.6,3-27,22.3-34.3c17-6.4,40-10.2,59.1-14c22.2-4.4,40.2-3.1,61.7,2c19.1,4.5,41.1,11.9,59.7,2.9c6.7-3.1,12.5-7.7,17.1-13.4
	c4.6-5.7,7.9-12.4,9.6-19.5c2.8-12.4,3.7-25.4,10.6-37.4c2.8-4.9,9-14.3,19.9-11.4c3.8,1.1,7.4,3,10.4,5.5c3.1,2.6,5.5,5.7,7.2,9.3
	c5.9,11.8,9.1,24.8,9.2,38.1c-0.1,12.5,2.5,25.2,0.5,37.6c-2.1,12.7-8,24.5-15.1,36.4c-7.4,12.6-4,24.6-4.5,37.6
	c-0.4,12.4,0.8,24.8,0.1,37.2c-0.6,12.8-1.2,25.7-0.1,38.5c0.5,6.2-2.5,12.4-0.4,18.5c2,6.1,4.7,12.7,8.8,18.2
	c7.8,10.5,28.6,20.5,47.2,23.7c6.4,1.1,12.9,0.7,19.2-1c9.3-2.6,11.9-8.9,15.2-14c4.9-7.5,10.4-14.5,16.3-21.2
	c25.2-28.6,64.8-51.4,90.8-79.7c6.3-6.8,11.4-15.7,22.2-20.6c11.3-5.1,26.8-4.5,39.4-1.5c6.5,1.6,11.5,3.9,17.3,6
	c6.6,2.3,12.5,2,19.9,1.4c13.5-1.1,26.8-2.6,40.2-4c13.4-1.4,27-1.7,40.5-2.7c13.3-1,27.3-2.3,40.4-0.4c7.5,1.1,15.6,1.8,21.9,4.5
	c6,2.6,10.2,6.5,16.3,9c6.4,2.6,14.1,4.1,20.7,6.5c7.1,2.6,9.7,7.2,19,7.4"/>
<path class="st0" d="M991.8,571.1c-16.7-17.1-22.5-37.8-23.8-57.4c-1.3-19.8,2.5-39.8,6.4-59.5s15.1-40.1,1.4-59
	c-5.8-8.1-19-18.5-35.6-18c-15.7,0.5-30.7,10.5-40.2,17.1c-10.9,7.6-20.8,15.7-32.8,22.7c-11.9,6.9-26,11.9-39.6,17.3
	c-14,5.7-28.9,10.5-42.5,16.6c-6,2.7-13.6,6.6-21.4,6.9c-10.2,0.3-13.4-5.1-16.6-9.7c-6.3-9.2-16.2-17.8-30.1-23.4
	c-16.8-6.9-30.4-3.5-43.9,4.1c-25.5,14.4-62,20.9-85.4,1.2c-9.7-8.1-13.4-18.4-21.7-27c-8.4-8.6-20.8-15.9-35.2-20.9
	c-27.2-9.5-59.7-16.2-87.5-25c-21.6-6.8-38.9-18.9-41.9-34c-1.2-6.4-2-12.7-7.2-18.5c-5.6-6.2-11.9-14.8-10.8-22
	c1.4-9.2,13.6-16.9,13.7-26.6c0.1-14.5-28.4-18.1-47.8-18.6c-11.5-0.3-22.2,0.3-29,6.5c-6.6,6.1,1.4,10.9,7.6,16
	c6.2,5,12.4,10.3,19.4,15c12.4,8.3,19.9,20.2,12.8,31.2c-3.8,5.8-6.2,12.1-10.8,17.8c-9.8,12.1-24.9,19.4-44.4,25.8
	c-18.4,6.1-35.9,14.7-40,27.7c-4,12.7,3.9,25.3,14.4,36.1c5.5,5.7,9.9,10.9,12.7,17.3c2,4.5,0.3,8.2-1.2,12.7
	c-5.6,15.8,33.3,14.7,50.2,15.7c21.2,1.2,42.5,2,63.7,3.2c40.9,2.4,86.1,8.1,116.4,26.3c14.6,8.7,18.3,22.7,28.3,33.2
	c10.4,11,25.2,21.1,40.8,29.5c15.5,8.3,34.1,14.2,49.2,22.8"/>
</svg>
