<svg width="1055" height="481" viewBox="0 0 1055 481" fill="none" xmlns="http://www.w3.org/2000/svg">
<path fill-rule="evenodd" clip-rule="evenodd" d="M332.693 68.4816C331.739 65.3968 329.414 62.7602 326.268 61.3464C321.618 59.3559 316.147 58.2616 311.087 59.1614C305.479 60.127 300.899 63.983 295.976 66.6161C295.155 67.0677 294.061 67.6444 293.924 68.4816C293.037 73.1712 292.353 78.0554 292.9 82.745C293.104 84.1589 294.678 85.1211 295.976 85.7638C300.833 88.2719 305.616 91.6137 311.157 92.1903C316.284 92.7705 321.618 91.0996 326.268 88.9771C329.003 87.6918 330.985 85.4442 331.942 82.745C333.376 78.1839 333.923 73.1052 332.693 68.4816V68.4816Z" stroke="#868B90" stroke-width="0.385202" stroke-miterlimit="18.4975"/>
<path fill-rule="evenodd" clip-rule="evenodd" d="M343.978 68.4821C343.771 66.5542 342.54 64.8173 341.379 63.2123C339.121 59.9991 336.522 56.9804 333.513 54.2812C331.466 52.5443 329.004 50.8734 326.268 50.2967C321.274 49.2685 316.147 49.1399 311.157 49.8451C306.507 50.4878 302.337 52.6728 297.961 54.2152C297.277 54.4723 296.593 54.8578 295.976 55.3094C291.122 59.5475 285.925 63.5979 281.756 68.4821C280.728 69.6389 281.138 71.5009 280.865 72.9772C280.318 76.1905 279.294 79.4038 279.294 82.683C279.294 83.7078 280.114 84.6076 280.865 85.3787C284.491 89.4292 288.32 93.2851 292.353 96.9465C293.447 97.7177 294.678 98.2944 295.976 98.5514C300.97 99.8367 305.96 101.445 311.157 101.765C316.218 102.022 321.345 101.574 326.268 100.417C328.73 99.7742 330.918 98.6174 332.693 96.9465C335.909 93.9278 338.847 90.6485 341.446 87.1156C342.54 85.8303 343.224 84.288 343.568 82.6831C344.318 77.99 344.388 73.2343 343.978 68.4821V68.4821Z" stroke="#868B90" stroke-width="0.385202" stroke-miterlimit="18.4975"/>
<path fill-rule="evenodd" clip-rule="evenodd" d="M352.798 68.4827C351.704 63.4699 348.968 58.7768 346.3 54.2817C345.072 52.2252 343.431 50.4883 341.38 49.1404C336.659 46.1182 331.806 42.8424 326.268 41.4946C321.345 40.3378 316.081 40.8519 311.087 41.8802C305.823 42.9084 300.833 45.156 295.976 47.4695C292.146 49.46 288.457 51.7111 285.038 54.2817C283.463 55.4385 282.096 56.7238 280.865 58.1341C277.719 61.542 274.03 64.5607 271.908 68.5452C269.583 72.9152 267.258 77.862 267.739 82.7461C268.215 87.9499 271.431 92.7056 274.577 97.0096C275.945 98.9376 278.61 99.7748 280.865 100.803C285.722 103.245 290.779 105.302 295.976 107.035C300.9 108.643 305.96 109.668 311.087 110.12C316.148 110.505 321.411 110.696 326.268 109.349C331.739 107.806 336.593 104.593 341.38 101.574C343.224 100.417 344.729 98.8091 345.823 97.0096C348.488 92.4485 351.223 87.8214 352.454 82.7461C353.685 78.119 353.822 73.2348 352.798 68.4827V68.4827Z" stroke="#868B90" stroke-width="0.385202" stroke-miterlimit="18.4975"/>
<path fill-rule="evenodd" clip-rule="evenodd" d="M360.934 68.4817C360.25 63.7261 357.995 59.29 356.558 54.6664C356.491 54.5379 356.421 54.4093 356.354 54.2808C351.978 49.5251 347.601 44.707 343.021 40.0798C342.541 39.5657 341.993 39.1801 341.38 38.9856C336.386 37.1862 331.533 34.8101 326.269 34.1014C321.275 33.3962 316.081 33.9729 311.087 34.8726C305.89 35.8383 301.037 38.0859 295.976 39.6942C295.773 39.7568 295.566 39.8853 295.363 40.0138C290.509 43.0986 285.585 46.0548 280.865 49.3306C278.677 50.8105 276.695 52.4154 274.851 54.2148C271.635 57.5566 268.696 61.1555 265.687 64.6258C264.593 65.9111 263.292 67.0019 262.612 68.4817C260.353 73.1054 257.688 77.67 257.004 82.6827C256.25 87.5008 256.797 92.385 258.575 96.9462C259.74 99.6453 263.089 101.122 265.687 102.793C270.541 105.749 275.738 108.128 280.799 110.695C281.209 110.89 281.619 111.019 282.029 111.147C286.68 112.366 291.26 113.652 295.976 114.551C300.97 115.646 306.027 116.351 311.087 116.802C316.148 117.122 321.275 117.379 326.269 116.545C331.466 115.708 336.386 113.461 341.38 111.79C341.79 111.661 342.13 111.467 342.404 111.147C346.984 106.457 351.567 101.764 356.01 96.9462C356.217 96.5606 356.421 96.175 356.491 95.7269C357.925 91.4193 359.91 87.1778 360.661 82.6827C361.481 77.9896 361.548 73.2339 360.934 68.4817V68.4817Z" stroke="#868B90" stroke-width="0.385202" stroke-miterlimit="18.4975"/>
<path fill-rule="evenodd" clip-rule="evenodd" d="M368.866 68.4822C368.319 63.598 367.018 58.8423 364.967 54.2812C362.849 49.4596 359.429 45.218 356.557 40.7229C356.42 40.4659 356.147 40.2713 355.873 40.0803C351.086 36.7385 346.78 32.688 341.38 30.2494C336.659 28.1269 331.532 26.779 326.268 26.3934C321.208 25.9419 316.011 26.713 311.087 27.8073C305.89 29.0266 300.833 30.7635 295.976 32.9451C291.396 34.939 287.226 37.6382 282.916 40.0803C282.166 40.4658 281.482 40.914 280.798 41.3656C275.671 45.4751 270.748 49.7166 265.687 53.8956C265.55 54.0241 265.414 54.1527 265.277 54.2812C261.381 59.0334 257.207 63.532 253.722 68.4821C252.284 70.4726 251.67 72.8487 250.576 74.9052C249.138 77.5418 247.157 79.9839 246.133 82.7456C244.285 87.3727 241.346 92.0624 242.03 96.9466C242.714 102.279 247.02 106.52 249.822 111.21C249.959 111.405 250.302 111.339 250.576 111.405C255.566 112.624 260.627 113.718 265.687 114.875C270.748 116.094 275.738 117.317 280.798 118.474C285.925 119.631 290.849 120.721 295.976 121.621C300.97 122.583 306.027 123.292 311.087 123.806C316.148 124.192 321.208 124.577 326.268 123.935C331.466 123.42 336.593 122.069 341.38 120.079C346.507 117.831 350.746 114.232 355.326 111.21C355.807 110.824 356.217 110.439 356.491 109.925C359.226 105.687 362.438 101.574 364.49 96.9466C366.471 92.3854 367.839 87.6298 368.523 82.6831C369.343 77.99 369.414 73.2343 368.866 68.4822V68.4822Z" stroke="#868B90" stroke-width="0.385202" stroke-miterlimit="18.4975"/>
<path fill-rule="evenodd" clip-rule="evenodd" d="M378.3 68.4828C377.889 63.7272 377.002 58.9715 375.635 54.2819C374.744 51.0686 373.036 48.0464 371.668 44.9651C370.984 43.2282 370.097 41.6233 368.933 40.0809C365.103 35.5163 360.797 31.2123 356.557 27.0368C356.01 26.5227 355.326 26.1371 354.642 25.814C350.266 23.7575 346.096 21.1869 341.379 19.773C336.522 18.3627 331.395 17.5915 326.268 17.463C321.138 17.463 316.081 18.1056 311.087 19.2624C305.89 20.4157 300.97 22.4722 295.976 24.2716C294.952 24.7232 293.995 25.2373 293.037 25.814C288.934 28.065 284.765 30.0555 280.865 32.5601C277.242 34.8112 273.96 37.4443 270.611 40.0149C268.899 41.3002 267.258 42.6516 265.754 44.0654C262.131 47.4037 258.575 50.7455 255.156 54.2819C253.515 55.9528 252.147 57.8808 250.576 59.6767C248.048 62.6329 245.242 65.3981 242.917 68.4828C240.182 72.0157 237.993 75.8716 235.395 79.533C234.644 80.6273 233.62 81.5895 232.8 82.7463C229.244 87.436 225.754 92.1916 222.335 96.9473C221.721 98.038 221.038 99.0663 220.287 100.095C216.868 103.888 213.105 107.487 209.549 111.211C208.115 112.691 206.61 114.233 205.106 115.775C202.097 118.989 199.021 122.198 196.012 125.412C193.961 127.663 191.98 129.91 189.995 132.161C187.806 134.666 185.755 137.237 183.363 139.613C180.628 142.506 177.689 145.139 174.817 147.901C172.832 149.895 170.781 151.886 168.799 153.88C165.72 156.836 162.645 159.792 159.706 162.873C158.131 164.482 156.216 166.087 155.259 168.081C153.207 172.642 149.929 177.46 150.886 182.344C151.636 186.005 155.876 188.833 159.706 189.927C164.493 191.275 170.03 190.57 174.817 189.156C178.92 187.933 182.062 184.786 185.415 182.344C187.123 181.059 188.627 179.582 189.995 177.911C192.527 174.761 194.645 171.294 197.243 168.081C199.772 164.93 202.577 162.102 205.106 159.021C206.473 157.35 207.497 155.484 209.002 153.88C212.558 149.958 216.387 146.168 220.217 142.506C221.378 141.478 222.609 140.512 223.91 139.613C227.669 137.042 231.158 134.023 235.395 132.161C240.181 130.105 245.312 128.625 250.506 127.725C255.5 126.826 260.56 126.44 265.687 126.44C270.748 126.44 275.738 127.277 280.798 127.791C285.859 128.305 290.849 129.205 295.909 129.848C300.97 130.424 306.027 131.133 311.087 131.519C316.081 132.033 321.138 132.161 326.198 132.033C331.329 131.776 336.386 131.005 341.309 129.782C345.209 128.819 348.761 127.02 352.317 125.412C353.822 124.835 355.26 123.998 356.491 123.036C360.523 119.308 364.353 115.39 367.772 111.211C369.48 109.154 370.437 106.65 371.602 104.336C372.833 101.96 373.857 99.5179 374.677 97.0098C376.111 92.3202 377.139 87.5645 377.823 82.6838C378.507 77.9907 378.643 73.235 378.3 68.4828V68.4828Z" stroke="#868B90" stroke-width="0.385202" stroke-miterlimit="18.4975"/>
<path d="M0.798939 5.38086C3.33099 4.16158 5.92959 2.81026 8.39146 1.46239C10.3728 0.305647 12.3578 -1.10821 14.0655 -2.58805C17.348 -5.22118 20.4937 -7.92037 23.5026 -10.8105C25.3471 -12.676 26.9883 -14.6665 28.356 -16.8515L28.9031 -17.7512" stroke="#868B90" stroke-width="0.385202" stroke-miterlimit="18.4975"/>
<path fill-rule="evenodd" clip-rule="evenodd" d="M389.378 68.4828C389.171 63.7272 388.624 58.9715 387.874 54.2819C387.6 52.9305 387.26 51.5827 386.78 50.2974C385.756 46.8896 385.138 43.2942 383.567 40.0809C381.106 35.1967 378.233 30.4411 375.017 25.88C374.13 24.5286 372.97 23.3093 371.669 22.3436C366.815 18.7482 361.618 15.4689 356.557 12.1931C356.01 11.9361 355.533 11.7415 354.986 11.613C350.473 10.3277 346.03 8.52825 341.38 7.69453C336.386 6.86081 331.329 6.53779 326.269 6.73229C321.138 7.05186 316.081 7.82305 311.087 9.0424C308.559 9.62253 306.097 10.7793 303.635 11.613C301.107 12.5127 298.438 13.0928 295.976 14.2497C290.779 16.6257 285.789 19.3909 280.865 22.1525C279.02 23.3093 277.309 24.5286 275.601 25.8799C272.319 28.256 268.9 30.5696 265.687 33.0742C262.882 35.3252 260.353 37.7013 257.755 40.0809C255.226 42.457 252.968 44.708 250.576 47.0181C248.185 49.3317 245.586 51.7737 243.191 54.2818C240.526 57.1095 238.064 60.1282 235.395 62.956C233.687 64.8839 231.706 66.5548 229.928 68.4828C226.645 72.0782 223.636 75.8716 220.287 79.4704C219.193 80.6272 217.892 81.5895 216.731 82.6837C212.832 86.4076 209.072 90.201 205.176 93.9285C204.012 94.9567 202.714 95.8564 201.55 96.9472C197.654 100.48 193.824 104.079 189.995 107.678C188.764 108.835 187.533 109.925 186.372 111.148C182.473 115.133 178.647 119.18 174.884 123.164C174.2 123.869 173.586 124.64 172.902 125.412C168.526 129.91 164.149 134.409 159.773 138.907C159.499 139.164 159.296 139.421 159.089 139.613C154.372 144.368 149.585 149.124 144.869 153.814C144.732 153.942 144.662 154.008 144.595 154.137C141.176 158.764 137.143 163.068 134.271 168.08C132.082 171.87 131.055 176.174 129.484 180.225C129.074 180.868 128.867 181.573 128.8 182.281C128.867 183.31 129.074 184.272 129.484 185.172C130.715 188.962 131.192 193.203 133.587 196.545C136.526 200.401 140.218 203.614 144.595 205.99C148.835 208.432 153.825 209.203 158.475 210.746C158.885 210.937 159.296 211.003 159.773 211.065C162.168 211.065 164.56 210.874 167.021 210.746C169.62 210.617 172.422 211.131 174.884 210.298C180.218 208.432 185.278 205.928 189.995 202.905C192.594 201.235 194.371 198.73 196.49 196.482C199.432 193.269 202.441 190.056 205.176 186.714C206.27 185.363 207.021 183.695 208.045 182.281C211.464 177.46 214.953 172.77 218.509 168.014C219.056 167.309 219.67 166.601 220.287 165.958C224.113 161.845 227.943 157.798 231.909 153.814C232.937 152.723 234.097 151.695 235.395 150.857C240.252 147.581 245.312 144.625 250.576 141.992C253.175 140.769 256.25 140.384 259.056 139.613C261.244 138.97 263.429 138.07 265.687 137.879C270.748 137.494 275.808 137.428 280.865 137.685C285.925 137.879 290.916 138.584 295.976 139.036C297.617 139.227 299.259 139.422 300.9 139.613C304.319 139.936 307.738 140.384 311.157 140.641C316.218 140.964 321.208 141.478 326.269 141.478C331.329 141.478 336.386 140.964 341.446 140.45C342.677 140.255 343.842 139.998 345.002 139.613C348.898 138.456 353.001 138.008 356.557 136.08C362.028 133.189 366.678 129.077 371.739 125.54C371.739 125.478 371.805 125.412 371.805 125.349C374.814 120.593 378.3 116.095 380.762 111.148C383.02 106.587 384.455 101.703 386.029 96.8812C386.369 95.5994 386.643 94.3141 386.85 92.9627C387.463 89.5584 388.351 86.1506 388.694 82.6837C389.242 77.9906 389.515 73.235 389.378 68.4828V68.4828Z" stroke="#868B90" stroke-width="0.385202" stroke-miterlimit="18.4975"/>
<path d="M0.79877 18.1689C3.33083 16.9496 5.85927 15.7268 8.39133 14.4416C9.96232 13.6078 11.4668 12.6421 12.901 11.6139C16.5273 9.17177 20.1498 6.79568 23.5025 4.09656C26.0309 2.04004 28.356 -0.207534 30.474 -2.58708C33.3462 -5.86288 36.015 -9.33326 38.6136 -12.8036C39.6376 -14.0889 40.4582 -15.4367 41.2086 -16.8505L41.6189 -17.7503" stroke="#868B90" stroke-width="0.385202" stroke-miterlimit="18.4975"/>
<path fill-rule="evenodd" clip-rule="evenodd" d="M398.061 54.2807C397.448 44.4498 394.916 34.81 390.676 25.8128C389.652 23.6278 388.351 21.5713 386.78 19.7093C384.662 16.8191 382.266 14.1199 379.601 11.6119C377.206 9.42682 374.541 7.56488 371.669 6.0225C366.882 3.58042 361.755 1.58989 356.558 0.110043C351.567 -1.10923 346.507 -1.94641 341.38 -2.26598C336.386 -2.7176 331.329 -2.7176 326.269 -2.26598C321.138 -1.81789 316.081 -0.980718 311.087 0.304617C305.96 1.65241 300.9 3.38936 295.976 5.44581C292.01 7.17931 288.387 9.55533 284.628 11.6119C283.327 12.192 282.096 12.8972 280.865 13.6058C275.738 17.0102 270.678 20.609 265.687 24.2705C265.07 24.7846 264.457 25.2987 263.91 25.8788C259.466 29.7973 255.02 33.6532 250.576 37.6377C249.685 38.4089 248.869 39.2426 247.978 40.0797C243.808 44.1928 239.635 48.3683 235.465 52.4813C234.852 53.1239 234.098 53.7006 233.484 54.2807C229.107 58.6473 224.731 63.0833 220.354 67.3874C219.944 67.839 219.397 68.1586 218.986 68.5442C214.406 72.7197 209.823 77.0272 205.176 81.2027C204.559 81.7829 203.809 82.231 203.125 82.7451C198.748 86.4065 194.438 90.1339 190.065 93.7988C188.764 94.8896 187.467 95.8553 186.236 97.0086C182.406 100.545 178.647 104.144 174.954 107.805C173.79 108.899 172.629 110.053 171.535 111.21C167.635 115.517 163.673 119.821 159.773 124.125C159.363 124.577 159.089 125.025 158.679 125.477C154.099 130.232 149.519 134.922 144.935 139.677C144.798 139.74 144.732 139.869 144.662 139.935C140.355 144.624 135.979 149.185 131.739 153.878C130.918 154.841 130.168 155.806 129.484 156.835C126.952 160.559 123.943 164.095 121.895 168.142C119.637 172.64 117.245 177.396 116.698 182.343C116.217 187.227 116.971 192.111 118.886 196.61C121.211 201.876 125.791 206.055 129.277 210.807C129.347 210.873 129.414 210.936 129.484 211.002C134.545 213.829 139.261 217.171 144.662 219.356C149.519 221.347 154.576 222.698 159.773 223.403C164.767 224.237 169.894 224.366 174.954 223.789C180.218 223.146 185.345 221.541 190.065 219.162C193.961 217.105 196.697 213.635 199.909 210.807C201.824 209.14 203.602 207.403 205.176 205.475C207.361 202.647 209.002 199.5 210.917 196.544C213.996 191.854 217.208 187.227 220.354 182.6C220.354 182.471 220.424 182.409 220.491 182.343C224.113 177.587 227.669 172.769 231.499 168.079C232.663 166.666 234.031 165.314 235.465 164.095C239.705 160.559 244.285 157.283 248.732 153.941C249.275 153.427 249.892 153.041 250.576 152.722C255.567 150.665 260.424 148.157 265.754 146.938C270.611 145.718 275.738 145.781 280.865 145.718C285.996 145.652 290.986 146.104 295.976 146.49C301.037 146.875 306.097 147.514 311.158 147.966C316.218 148.352 321.208 148.928 326.269 149.057C331.329 149.314 336.386 149.251 341.446 148.866C346.573 148.352 351.704 147.771 356.558 146.167C361.411 144.624 365.721 141.862 370.301 139.677C370.781 139.42 371.258 139.097 371.669 138.712C375.701 134.408 379.805 130.038 383.497 125.411C384.798 123.549 385.893 121.558 386.85 119.502C388.214 116.802 389.378 114.037 390.473 111.21C392.114 106.52 393.548 101.764 394.712 96.9461C395.873 92.1904 396.694 87.5008 397.311 82.6826C397.925 77.861 398.335 73.2339 398.472 68.4817C398.608 63.726 398.472 59.0329 398.061 54.2807V54.2807Z" stroke="#868B90" stroke-width="0.385202" stroke-miterlimit="18.4975"/>
<path d="M54.6121 -17.7517L54.2683 -16.852C54.1316 -16.5324 53.9282 -16.2093 53.7915 -15.9523C51.1263 -11.5197 48.6645 -6.89258 45.7221 -2.58856C43.604 0.433654 41.2087 3.32389 38.6137 6.08899C36.9023 8.07953 34.9875 9.87894 32.936 11.6124C29.9271 14.249 26.7814 16.8196 23.5026 19.1332C20.0834 21.5718 16.3204 23.6283 12.6978 25.8133C11.2636 26.7131 9.89587 27.6128 8.39143 28.3839C5.79281 29.6067 3.33093 30.892 0.798871 32.0488" stroke="#868B90" stroke-width="0.385202" stroke-miterlimit="18.4975"/>
<path fill-rule="evenodd" clip-rule="evenodd" d="M409.96 40.0807C409.96 35.3251 409.89 30.5694 409.616 25.8138C409.48 21.0581 409.003 16.3059 408.319 11.6128C407.498 6.79462 406.267 2.03898 404.556 -2.58814C404.079 -3.6789 403.122 -4.51615 401.957 -4.96424C397.104 -7.02076 392.043 -8.62567 386.85 -9.97692C381.856 -11.1337 376.796 -11.9675 371.739 -12.6101C366.678 -13.2528 361.618 -13.6384 356.557 -13.8954C351.497 -14.1525 346.437 -14.2185 341.446 -14.09C336.386 -13.9615 331.329 -13.6384 326.269 -13.0617C321.208 -12.4191 316.148 -11.4533 311.157 -10.234C306.027 -8.82018 300.97 -7.14929 296.046 -5.15875C294.335 -4.38757 292.694 -3.55039 291.052 -2.58815C287.637 -0.851275 284.081 0.625113 280.865 2.6191C276.629 5.38075 272.866 8.65655 268.833 11.6128C267.805 12.384 266.711 12.9641 265.754 13.7978C261.107 17.7197 256.661 21.8293 252.081 25.8138C251.6 26.2653 251.053 26.7135 250.576 27.165C245.996 31.4066 241.483 35.7106 236.899 40.0807C236.422 40.5288 235.942 41.043 235.395 41.4945C230.885 45.7986 226.302 50.0401 221.722 54.2817C221.241 54.7298 220.835 55.2439 220.354 55.6955C215.293 59.9995 210.233 64.1751 205.176 68.4166L205.106 68.4826C200.046 72.2725 195.122 76.1284 190.065 79.8559C188.697 80.8841 187.26 81.7178 185.962 82.7461C182.199 85.7023 178.577 88.787 174.884 91.8718C172.969 93.5427 170.988 95.1476 169.14 96.947C165.927 100.094 162.852 103.374 159.773 106.587C158.405 108.063 157.037 109.668 155.74 111.211C151.977 115.452 148.288 119.76 144.595 124.064C144.251 124.449 143.911 124.963 143.501 125.411C139.054 130.167 134.611 134.857 130.168 139.612C129.961 139.869 129.687 140.127 129.484 140.384C125.654 144.882 121.758 149.252 118.065 153.813C116.698 155.55 115.467 157.478 114.373 159.34C112.458 162.23 110.336 164.93 108.902 168.08C106.784 172.641 104.596 177.331 103.775 182.281C102.954 187.033 103.091 191.855 104.252 196.545C105.483 201.557 108.152 206.185 110.746 210.746C111.637 212.288 112.868 213.636 114.303 214.793C118.476 218.329 122.852 221.671 127.159 225.009C127.843 225.523 128.593 225.975 129.414 226.36C134.408 228.674 139.328 231.116 144.525 232.978C149.519 234.715 154.575 236.129 159.706 237.22C164.149 238.248 168.663 238.567 173.176 239.21C173.723 239.405 174.27 239.467 174.817 239.533C176.458 239.533 178.029 239.339 179.6 239.21C183.02 239.019 186.783 239.724 189.995 238.505C195.532 236.257 200.389 232.659 205.106 229.06C206.407 228.031 206.747 226.36 207.568 225.009C210.44 220.257 213.312 215.501 216.184 210.808C217.552 208.627 218.986 206.504 220.217 204.257C221.651 201.749 222.746 199.049 224.183 196.545C227.056 191.727 230.131 187.033 233.21 182.344C233.894 181.382 234.578 180.544 235.395 179.711C239.088 175.789 242.78 171.87 246.61 168.143C247.774 166.924 249.072 165.895 250.506 164.996C255.43 162.23 260.217 159.149 265.687 157.35C270.474 155.741 275.671 155.356 280.798 154.97C285.859 154.779 290.916 154.842 295.91 155.227C300.97 155.55 306.027 156.127 311.087 156.641C316.148 157.093 321.138 157.798 326.198 158.121C331.259 158.506 336.319 158.892 341.38 158.826C346.437 158.826 351.497 158.441 356.491 157.735C360.727 156.898 364.764 155.227 368.933 153.879C369.891 153.685 370.781 153.365 371.602 152.851C376.866 148.867 381.719 144.368 386.78 140.127C386.916 139.998 386.987 139.807 387.053 139.678C389.789 134.923 392.864 130.362 395.189 125.411C397.448 120.85 399.089 115.966 400.867 111.211C401.277 109.991 401.551 108.772 401.891 107.487C402.778 104.016 403.806 100.546 404.556 97.0096C405.513 92.2574 406.404 87.5017 407.088 82.7461C407.838 78.0564 408.385 73.3008 408.796 68.5451C409.276 63.7895 409.55 59.0338 409.687 54.2817C409.823 49.5885 410.027 44.8364 409.96 40.0807V40.0807Z" stroke="#868B90" stroke-width="0.385202" stroke-miterlimit="18.4975"/>
<path d="M68.1484 -17.7505C68.0116 -17.4309 67.9452 -17.1078 67.8084 -16.8508C65.6903 -12.0952 63.7053 -7.21101 61.1769 -2.58734C58.9886 1.33458 56.3198 5.06199 53.7914 8.85194C53.1778 9.81418 52.4237 10.7799 51.6031 11.6136C47.3633 15.9837 42.9867 20.2252 38.6137 24.4007C38.0667 24.9148 37.4494 25.429 36.8358 25.8146C32.3889 28.8993 28.0123 31.984 23.5026 34.8743C20.5603 36.7397 17.3481 38.3446 14.3391 40.0815C12.3578 41.1723 10.3728 42.3291 8.32128 43.4233C5.79291 44.7712 3.26086 46.0565 0.732433 47.3418" stroke="#868B90" stroke-width="0.385202" stroke-miterlimit="18.4975"/>
<path d="M81.7588 -17.7511C81.6886 -17.4315 81.6221 -17.1084 81.4853 -16.8514C79.9106 -12.0957 78.4062 -7.27757 76.4913 -2.58792C74.4398 2.2337 71.8412 6.86082 69.4496 11.613C69.3128 11.9361 69.1058 12.1931 68.9025 12.5127C65.6201 16.9488 62.5446 21.5725 59.0552 25.814C57.4842 27.6794 55.7061 29.4129 53.7914 30.9552C49.8953 34.1685 45.7922 37.0587 41.7557 40.0809C40.7318 40.7861 39.7078 41.4288 38.6137 42.0089C33.6198 44.8991 28.5593 47.7893 23.5026 50.617C21.244 51.8398 18.9891 52.9966 16.8008 54.2819C13.9287 55.8868 11.1268 57.4952 8.39141 59.1001C5.7928 60.5764 3.33092 62.1188 0.798862 63.5986" stroke="#868B90" stroke-width="0.385202" stroke-miterlimit="18.4975"/>
<path d="M335.089 618.39C332.08 616.205 329.071 614.02 326.269 611.772C325.378 610.935 324.557 610.035 323.807 609.073C319.567 604.64 315.327 600.142 311.087 595.643C310.884 595.386 310.677 595.129 310.404 594.872C305.89 590.116 301.447 585.361 296.934 580.605C296.66 580.285 296.32 580.028 295.976 579.709C290.986 575.853 286.133 571.74 280.865 568.203C279.498 567.307 277.72 566.984 276.082 566.407C272.663 565.185 269.38 563.066 265.754 562.743C260.697 562.295 255.567 563.194 250.576 564.094C248.388 564.414 246.473 565.636 244.422 566.407C241.413 567.564 238.267 568.461 235.465 569.874C230.202 572.511 225.344 575.658 220.288 578.552C219.193 579.257 218.099 579.966 217.005 580.671C213.105 582.919 209.209 585.361 205.176 587.417C200.253 589.925 195.122 592.173 190.065 594.486C189.655 594.615 189.174 594.743 188.764 594.872C184.184 596.348 179.671 598.148 174.884 599.242C169.96 600.527 164.904 601.298 159.773 601.556C154.646 601.747 149.519 601.232 144.595 599.947C140.969 599.047 137.96 596.671 134.748 594.872C132.903 593.972 131.125 592.815 129.484 591.468C125.791 588.126 122.579 584.332 119.226 580.671C117.519 578.743 115.877 576.815 114.303 574.825C112.114 572.059 110.133 569.232 108.082 566.407C105.073 562.294 102.134 558.181 99.125 554.068C98.7147 553.426 98.0974 552.849 97.6206 552.207C93.6543 547.451 89.6214 542.695 85.5848 538.006C85.1746 537.297 84.6275 536.654 84.0138 536.078C79.0902 532.479 74.1 529.008 68.9028 525.733C67.4685 524.833 65.6905 524.447 64.1158 523.739C60.6966 522.134 57.2108 520.525 53.7251 518.92C48.7311 516.607 43.5339 514.488 38.6139 512.046C37.2463 511.337 36.0153 510.437 34.9212 509.475C31.0214 506.324 27.0551 503.243 23.4326 499.773C22.2017 498.421 21.1075 496.879 20.2204 495.274C17.3482 490.647 14.6794 485.891 12.358 481.007C10.58 477.155 9.62259 472.913 8.32144 468.863C8.04791 468.22 7.91111 467.515 7.77438 466.806C7.50086 462.117 7.29751 457.361 7.4343 452.609C7.57103 451.066 7.84463 449.524 8.32144 448.044C9.00529 444.831 9.48586 441.489 10.6465 438.408C12.5613 433.524 14.8161 428.768 17.3482 424.207C19.1928 420.994 21.1778 417.909 23.4326 414.953C24.8705 413.219 26.3713 411.482 28.0828 409.94C31.5019 406.598 34.9877 403.385 38.5437 400.238C40.3883 398.633 42.3733 397.219 44.288 395.739C47.4337 393.234 50.646 390.855 53.6548 388.288C56.3902 386.103 59.0554 383.789 61.7243 381.476C64.1158 379.482 66.5777 377.491 68.8325 375.372C71.5679 372.801 74.1 369.974 76.7652 367.275C79.1604 364.961 81.6223 362.776 83.9437 360.4C86.2687 358.086 88.3203 355.387 90.7156 353.074C93.3807 350.374 96.2529 347.932 99.0548 345.428C101.724 343.177 104.459 340.992 107.194 338.807C109.519 337.011 111.774 335.145 114.236 333.474C118.816 330.39 123.673 327.562 128.39 324.609C128.73 324.352 129.004 324.095 129.347 323.901C134.408 320.559 139.398 317.217 144.525 313.941C146.373 312.722 148.698 311.951 150.269 310.342C153.825 306.938 156.561 302.825 159.706 299.035C160.457 298.135 161.895 297.364 161.961 296.141C162.168 291.386 161.141 286.634 160.457 281.94C160.39 281.555 159.98 281.298 159.706 281.041C155.33 276.542 151.023 271.981 146.44 267.677C145.893 267.225 145.209 266.906 144.525 266.649C139.535 264.012 134.474 261.379 129.414 258.808C125.858 257.009 122.372 255.209 118.75 253.476C117.312 252.767 115.741 252.125 114.236 251.419C109.176 248.849 104.115 246.344 99.125 243.645C96.5264 242.36 93.9981 240.88 91.6027 239.209C88.9376 237.219 86.339 234.971 84.0139 232.591C81.4153 230.215 78.4064 228.03 76.6986 225.008C74.2367 220.575 72.5253 215.757 71.7047 210.807C70.8176 206.117 71.2279 201.299 71.7047 196.544C72.1853 191.725 73.2091 186.97 74.6471 182.343C76.4251 177.458 78.4766 172.703 80.8682 168.079C81.6888 166.214 83.0565 164.48 84.0804 162.681C85.7919 159.791 87.2261 156.706 89.0744 153.878C92.22 148.994 95.8426 144.367 99.1916 139.611C102.884 134.922 106.577 130.232 110.133 125.41C111.638 123.42 112.935 121.235 114.373 119.178C116.217 116.479 118.132 113.846 120.047 111.209C123.193 106.714 126.338 102.15 129.414 97.6511C129.621 97.394 129.758 97.203 129.961 96.9459C133.861 92.1903 137.757 87.3721 141.79 82.745C142.68 81.8453 143.568 80.9456 144.595 80.2403C149.585 76.3844 154.646 72.7856 159.706 69.0581C159.98 68.8671 160.253 68.6725 160.527 68.4815C165.244 65.9109 170.097 63.4028 174.884 60.8322C178.921 58.6471 182.953 56.4656 187.056 54.2806C188.014 53.7664 189.038 53.3808 189.995 52.8667C195.122 49.8445 200.183 46.8257 205.106 43.6125C206.681 42.5217 208.045 41.2364 209.483 40.0796C213.105 37.1859 216.732 34.2957 220.288 31.3395C222.336 29.54 224.25 27.6781 226.235 25.8127C229.381 22.8564 232.39 19.8377 235.465 16.8189C237.173 15.0821 239.088 13.4111 240.729 11.6117C244.148 7.9503 247.227 4.09436 250.576 0.432934C251.534 -0.595292 252.695 -1.56106 253.722 -2.58928C257.755 -6.63627 261.585 -10.8778 265.688 -14.7962C266.575 -15.5674 267.532 -16.2101 268.56 -16.8528L269.857 -17.7525" stroke="#868B90" stroke-width="0.385202" stroke-miterlimit="18.4975"/>
<path d="M96.4558 -17.7519C96.3893 -17.4324 96.3191 -17.1093 96.2525 -16.8522C95.1584 -12.0966 94.1344 -7.34096 92.9035 -2.58877C91.7392 2.10434 90.5082 6.92251 88.9372 11.6122C87.5696 15.7251 85.7213 19.6471 84.0801 23.6941C83.8066 24.3993 83.4665 25.1705 83.0561 25.8792C79.8439 30.6973 76.7648 35.5155 73.2088 40.0801C71.9779 41.4939 70.5437 42.7792 68.9024 43.8075C63.9788 47.1458 58.8517 50.2306 53.7913 53.3153C53.1777 53.7009 52.6306 54.024 52.0133 54.3436C47.5702 56.4661 43.1233 58.5851 38.6136 60.7041C33.6197 63.0837 28.4927 65.3313 23.5025 67.6448C22.9554 67.9019 22.4084 68.2249 21.9278 68.5445C17.4144 71.4347 12.8345 74.2624 8.39138 77.2846C5.79278 79.0181 3.26073 80.8175 0.935645 82.8115L0.798848 82.874" stroke="#868B90" stroke-width="0.385202" stroke-miterlimit="18.4975"/>
<path d="M0.798998 424.721L1.00604 424.141C3.19432 419.451 5.92966 415.015 8.39154 410.454C8.4581 410.263 8.59483 410.068 8.66507 409.94C12.4909 405.184 16.3205 400.432 20.15 395.739C21.1776 394.325 22.3383 393.04 23.5027 391.754C27.1917 388.221 31.158 384.946 34.9211 381.475C36.152 380.318 37.3126 378.967 38.6138 377.876C42.7132 374.277 47.0233 370.807 51.1263 367.274C52.0837 366.437 52.8341 365.603 53.7915 364.766C58.1681 360.848 62.5447 356.929 66.9213 353.007C67.5349 352.431 68.2188 351.788 68.9026 351.208C73.7561 347.032 78.6132 342.919 83.4667 338.806L84.0803 338.292C89.1408 334.183 94.1346 330.004 99.1914 325.891C99.8087 325.443 100.422 325.057 101.04 324.609C105.483 321.073 109.859 317.411 114.373 313.941C116.014 312.655 117.995 311.822 119.433 310.342C123.126 306.615 126.131 302.373 129.484 298.392C130.098 297.621 131.399 297.107 131.399 296.141C131.399 293.508 130.234 291 129.484 288.495C128.867 286.248 129.003 283.677 127.432 281.94C123.74 278.022 118.816 275.513 114.373 272.495C111.841 270.761 109.176 269.153 106.44 267.677C104.115 266.391 101.653 265.426 99.1914 264.397C94.2012 262.212 89.1408 260.031 84.0803 257.974C80.1177 256.366 76.0812 255.018 72.1149 253.41C71.0207 253.024 69.9265 252.51 68.9027 251.933C63.7756 248.529 58.6449 245.059 53.7915 241.331C53.0411 240.817 52.4238 240.046 52.0837 239.209C50.509 234.585 48.8013 229.829 48.3909 225.008C47.9807 220.256 48.731 215.434 49.5517 210.744C50.3058 205.926 51.8767 201.233 53.1077 196.543C53.2444 195.967 53.5882 195.453 53.7915 194.938C55.2257 190.759 56.3901 186.455 58.0979 182.342C60.0829 177.524 62.4745 172.769 64.9363 168.079C66.1007 165.828 67.6052 163.643 68.9027 161.458C70.4071 158.953 71.638 156.32 73.209 153.878C76.2179 149.056 79.5004 144.367 82.5759 139.611C83.1229 138.84 83.6035 138.135 84.0803 137.363C86.7492 133.316 89.551 129.461 92.0129 125.41C94.545 121.363 96.7998 116.864 99.2617 112.623C99.5352 112.109 99.8753 111.661 100.082 111.209C102.337 106.457 104.389 101.635 106.714 96.9456C109.039 92.256 111.637 87.5003 114.166 82.6821C114.236 82.6162 114.303 82.5536 114.303 82.4876C117.995 77.798 121.348 72.9138 125.311 68.4812C126.542 67.3244 127.909 66.3587 129.484 65.5875C134.408 62.6973 139.464 59.9322 144.595 57.365C146.987 56.2082 149.449 55.18 151.977 54.2803C154.509 53.3145 157.174 52.5433 159.773 51.6436C164.833 49.9102 169.894 48.1107 174.884 46.1828C179.737 44.2548 184.458 42.0698 189.245 40.0133C189.518 39.9508 189.792 39.8223 189.995 39.6937C195.122 36.7375 200.253 33.9098 205.176 30.7626C207.294 29.2202 209.346 27.5492 211.327 25.8124C214.336 23.2417 217.345 20.6086 220.288 17.9094C222.542 15.8529 224.731 13.7965 226.712 11.5489C229.791 8.2071 232.527 4.67419 235.395 1.20389C236.489 -0.0814483 237.654 -1.30418 238.748 -2.65205C242.507 -7.3417 246.2 -12.0973 249.822 -16.853C250.096 -17.1761 250.233 -17.4956 250.506 -17.7527" stroke="#868B90" stroke-width="0.385202" stroke-miterlimit="18.4975"/>
<path d="M0.798749 401.204C2.02966 399.405 3.26063 397.539 4.49153 395.74C5.72244 393.878 6.95335 391.884 8.39129 390.15C10.7164 387.194 13.3113 384.433 15.7066 381.476C18.3052 378.263 20.767 374.793 23.5025 371.645C24.8702 370.037 26.5779 368.818 28.0121 367.275C31.6384 363.291 35.0576 359.115 38.6135 355.193C39.2974 354.422 40.1846 353.78 40.8684 353.008C45.245 348.385 49.4146 343.692 53.7913 339.002C53.8615 338.936 53.928 338.873 53.9982 338.807L68.9024 324.673L69.0391 324.61C74.0294 320.111 79.0233 315.613 84.0135 311.114C84.3536 310.857 84.7639 310.729 84.9709 310.343C87.7728 305.653 93.177 301.474 92.9701 296.142C92.8333 291.772 87.4328 289.073 84.0135 286.054C81.962 284.321 79.6369 282.907 77.0383 281.879C74.5099 280.722 71.5675 280.27 68.9024 279.436C63.8419 277.828 58.5782 276.609 53.7913 274.424C49.8249 272.69 46.4057 269.991 42.7832 267.678C41.3453 266.712 39.7077 265.941 38.6136 264.655C35.6712 261.189 33.2094 257.461 31.2946 253.411C29.1063 248.916 27.6018 244.094 26.8514 239.21C26.1676 234.52 26.5779 229.702 27.125 225.009C27.7386 220.191 28.696 215.435 29.9269 210.745C31.2281 205.927 32.799 201.234 34.5105 196.544C35.6712 193.203 37.2459 190.055 38.6136 186.842C39.2272 185.3 39.7743 183.757 40.4581 182.281C42.713 177.525 44.9013 172.77 47.3631 168.08C49.3481 164.415 51.6732 161.011 53.7913 157.412C54.4751 156.255 55.0222 155.036 55.706 153.879C58.5079 149.123 61.3136 144.368 64.1155 139.612C65.7567 136.913 67.3314 134.151 68.9024 131.39C70.1333 129.462 71.294 127.468 72.2514 125.411C74.3029 120.787 75.8776 116.032 77.0383 111.148C78.066 106.52 79.2266 101.636 78.4762 96.9466C77.5854 91.9339 75.057 87.2443 72.4584 82.7457C71.7043 81.5264 70.4069 80.6267 68.9689 80.3036C63.9787 79.0843 58.9183 78.5042 53.7913 78.5702C48.6643 78.7612 43.6704 80.1751 38.6801 81.2693C37.3827 81.6549 36.1518 82.169 34.9873 82.7457C31.1578 84.4166 27.125 85.7019 23.5025 87.7584C18.989 90.4575 14.9526 93.8619 10.7164 97.0092C9.89575 97.5893 9.07517 98.2319 8.32108 98.9371C5.79271 101.574 3.26065 104.207 0.798775 106.906" stroke="#868B90" stroke-width="0.385202" stroke-miterlimit="18.4975"/>
<path d="M111.911 -17.7512C111.911 -17.4316 111.84 -17.1085 111.774 -16.8515C111.293 -12.0959 110.883 -7.34025 110.746 -2.58807C110.609 2.16757 110.746 6.86067 111.293 11.6128C111.84 15.7918 113.141 19.7729 114.302 23.8233C114.439 24.5945 114.849 25.2997 115.396 25.8138C119.91 29.1556 124.149 33.0741 129.483 34.9395C134.2 36.6104 139.534 36.0963 144.595 36.0963C149.655 36.0303 154.712 35.6447 159.772 34.9395C164.833 34.2309 169.893 33.2026 174.883 31.7922C180.01 30.3784 185.004 28.3844 189.995 26.5225C190.475 26.3279 190.885 26.1369 191.225 25.8138C195.876 22.9861 200.729 20.353 205.176 17.2683C207.497 15.5973 209.686 13.7354 211.671 11.6788C214.68 8.65663 217.481 5.38084 220.287 2.23356C221.651 0.69119 222.952 -0.917168 224.183 -2.58806C227.466 -7.21172 230.678 -12.0333 233.824 -16.789C234.031 -17.1085 234.167 -17.3656 234.371 -17.6887" stroke="#868B90" stroke-width="0.385202" stroke-miterlimit="18.4975"/>
<path d="M0.798941 378.196C3.19426 374.601 5.51935 370.936 7.91092 367.275C8.04771 366.952 8.18451 366.632 8.39148 366.375C11.1934 361.876 14.4056 357.635 16.8675 353.008C19.1926 348.384 21.1776 343.628 22.9555 338.807C23.2956 337.973 23.2291 337.202 23.5026 336.368C24.8001 332.446 26.7814 328.656 27.5354 324.609C28.4226 319.916 28.9697 315.032 28.2858 310.342C27.602 305.653 25.0736 301.54 23.5026 297.107C23.3658 296.784 23.3658 296.464 23.2291 296.141C21.3808 291.386 19.2628 286.696 17.4848 281.94C15.7068 277.122 14.0656 272.495 12.7644 267.677C11.5372 262.984 10.5798 258.232 9.96248 253.476C9.27863 248.72 8.86831 243.965 8.80182 239.209C8.66502 234.519 8.93855 229.764 9.21208 225.008C9.55216 220.256 10.0993 215.5 10.7166 210.807C11.3302 206.055 12.0843 201.299 12.9012 196.544C13.7218 191.854 14.6792 187.032 15.7068 182.343C16.7307 177.587 17.7583 172.769 19.126 168.079C20.3569 163.9 22.0647 159.916 23.5027 155.806C23.7762 155.164 23.9795 154.521 24.1865 153.878C25.0071 149.123 26.6446 144.433 26.5078 139.677C26.4413 137.426 25.8942 133.574 23.5027 133.574C19.4661 133.574 16.8009 137.812 13.1747 139.677C11.7405 140.382 9.89594 140.448 8.3915 141.22C5.79289 142.505 3.26084 143.919 0.798962 145.395" stroke="#868B90" stroke-width="0.385202" stroke-miterlimit="18.4975"/>
<path d="M213.105 -17.7513C212.968 -17.4317 212.831 -17.1086 212.628 -16.8516C210.37 -12.8046 207.841 -8.94868 205.176 -5.09275C204.492 -4.19304 203.672 -3.35933 202.781 -2.58814C198.611 0.625125 194.711 4.16149 189.995 6.73208C185.962 8.97966 181.312 10.0079 177.005 11.6128C176.322 11.9359 175.638 12.1269 174.884 12.1929C169.823 12.384 164.766 12.2555 159.772 12.0644C159.159 12.0644 158.612 11.8698 158.131 11.6128C153.618 9.29922 148.698 7.37129 144.595 4.35253C142.199 2.49059 140.285 0.110972 139.054 -2.58814C136.869 -7.14928 135.431 -11.9049 134.681 -16.8516C134.681 -17.1086 134.611 -17.4317 134.544 -17.6888" stroke="#868B90" stroke-width="0.385202" stroke-miterlimit="18.4975"/>
<path d="M1046.05 370.745C1041.88 360.206 1031.56 356.35 1026.64 339.578C1024.31 331.484 1010.02 320.302 1015.69 312.465C1018.29 308.866 1023.97 306.487 1027.73 303.982C1032.65 300.703 1037.17 296.784 1041.06 292.48C1044.21 289.01 1047.08 285.091 1048.04 280.593C1051.32 264.526 1028.41 255.404 1015.97 250.52C988.141 239.532 1012.21 224.175 1012.21 224.175C1012.21 224.175 1035.32 198.149 1039.9 180.609C1044.41 163.129 1042.63 153.684 1054.94 152.336" stroke="#868B90" stroke-width="0.385202" stroke-miterlimit="18.4975"/>
<path d="M1054.94 343.373C1050.23 338.169 1036.48 335.276 1033.4 329.106C1030.74 323.454 1032.04 316.771 1035.25 311.438C1038.46 306.103 1050.09 301.218 1054.94 297.109" stroke="#868B90" stroke-width="0.385202" stroke-miterlimit="18.4975"/>
<path d="M858.776 -17.6897C863.63 -14.0249 868.28 -10.169 873.34 -6.69858C875.048 -5.41677 877.029 -4.57953 878.944 -3.48877C882.09 -1.56084 885.169 0.561672 888.448 2.23256C893.371 4.73718 898.502 6.92222 903.559 9.23578C904.927 9.81246 906.294 10.198 907.595 10.8407C911.355 12.3205 914.981 14.054 918.74 15.4678C923.664 17.3958 928.724 19.1327 933.851 20.8661C938.021 22.2799 942.331 23.5652 946.501 24.9791C947.321 25.2987 948.208 25.6217 948.962 26.0073C954.023 28.2549 959.15 30.3774 964.14 32.816C968.177 34.744 972.139 36.8665 975.969 39.2426C977.2 40.1423 978.294 41.108 979.251 42.2648C982.807 45.9262 986.977 49.202 989.646 53.4435C992.107 57.2994 992.791 61.8606 994.362 66.0396C994.706 66.5537 994.909 67.1303 995.046 67.7105C995.183 72.4001 994.98 77.1557 994.773 81.9114C994.706 82.231 994.569 82.5541 994.362 82.8111C992.037 87.2437 990.329 92.1279 987.184 96.1124C985.203 98.6795 981.987 100.159 979.251 102.021C975.011 104.915 970.705 107.677 966.328 110.376C965.645 110.761 964.824 110.952 964.14 111.338C959.013 114.294 953.953 117.25 948.962 120.401C946.911 121.683 944.926 123.225 942.878 124.577C939.936 126.567 936.79 128.367 933.851 130.423C929.818 133.122 925.852 135.95 921.886 138.84C920.792 139.611 919.764 140.449 918.74 141.282C913.887 145.204 908.963 149.057 904.176 153.041C903.969 153.298 903.766 153.493 903.629 153.812C900.073 158.311 895.013 162.038 893.031 167.242C891.32 171.741 892.14 176.816 893.031 181.509C893.918 186.456 896.177 191.145 898.228 195.71C899.733 199.114 901.851 202.133 903.629 205.412C904.379 206.955 905.2 208.497 906.091 209.973C909.713 214.792 913.543 219.485 917.372 224.174C917.783 224.689 918.26 225.074 918.74 225.46C923.73 228.479 928.381 232.143 933.918 234.328C938.705 236.128 943.835 237.153 949.029 237.219C954.16 237.347 959.287 236.576 964.14 235.034C969.544 233.363 974.398 230.344 979.321 227.707C981.099 226.679 982.741 225.522 984.312 224.174C987.797 221.09 991.15 217.876 994.433 214.535C995.937 213.121 997.305 211.578 998.536 209.911C1001.81 205.284 1004.82 200.528 1007.77 195.71C1008.45 194.425 1009.06 193.073 1009.61 191.788C1011.11 188.318 1012.76 184.979 1014.05 181.443C1015.9 176.816 1017.27 171.998 1018.91 167.242C1020.55 162.486 1022.26 157.734 1023.97 153.041C1024.17 152.336 1024.45 151.693 1024.72 151.051C1026.84 146.938 1028.48 142.568 1031.22 138.778C1033.54 135.564 1036.35 132.351 1039.83 130.423C1044.55 127.919 1049.61 126.248 1054.94 125.477" stroke="#868B90" stroke-width="0.385202" stroke-miterlimit="18.4975"/>
<path d="M889.952 -17.6889C894.536 -15.4379 898.979 -13.0618 903.559 -10.9394C908.553 -8.69178 913.613 -6.63526 918.67 -4.51627C919.627 -4.13064 920.655 -3.80755 921.612 -3.48798C925.645 -1.9456 929.682 -0.274711 933.851 1.13914C938.842 2.81004 943.902 4.4184 948.962 5.96077C954.023 7.49969 959.08 8.78495 964.074 10.1988C964.824 10.3934 965.578 10.5219 966.328 10.7789C970.568 12.2553 975.011 13.6066 979.251 15.2116C984.382 17.2055 989.439 19.262 994.362 21.4435C996.824 22.4718 999.219 23.6286 1001.47 25.0424C1004.28 26.8418 1006.95 28.8358 1009.54 30.9548C1012.89 33.5254 1016.18 36.3531 1019.18 39.2433C1021.3 41.2998 1022.81 43.7419 1024.65 45.9895C1026.71 48.4976 1028.89 50.8737 1030.81 53.5103C1033.95 57.7518 1036.82 62.1844 1039.77 66.4884C1040.11 66.874 1040.38 67.2596 1040.72 67.7112C1044.41 72.4634 1048.04 77.285 1051.93 81.9121C1052.83 82.9404 1053.85 83.8367 1054.94 84.6738" stroke="#868B90" stroke-width="0.385202" stroke-miterlimit="18.4975"/>
<path fill-rule="evenodd" clip-rule="evenodd" d="M976.86 167.308C976.243 163.966 975.012 160.367 972.413 158.054C969.338 155.355 964.758 154.521 960.792 153.041C959.698 152.593 958.467 152.398 957.236 152.336C956.552 152.464 955.938 152.721 955.321 153.041C950.944 154.969 946.228 156.383 942.125 158.891C938.295 161.139 934.876 163.966 932.074 167.308C929.682 170.198 928.518 173.926 927.014 177.33C926.4 178.681 925.579 180.029 925.579 181.509C925.579 184.337 926.4 187.161 927.014 189.926C927.424 191.854 927.221 194.168 928.588 195.71C932.414 200.271 936.38 205.475 942.125 207.726C946.775 209.588 952.656 209.14 957.236 207.146C962.636 204.898 966.056 199.819 970.092 195.71C971.116 194.553 971.866 193.268 972.413 191.854C973.918 188.446 975.696 185.108 976.313 181.509C977.337 176.816 977.474 171.998 976.86 167.308L976.86 167.308Z" stroke="#868B90" stroke-width="0.385202" stroke-miterlimit="18.4975"/>
<path d="M936.04 -17.6887C940.346 -16.2089 944.586 -14.538 948.962 -13.1902C953.953 -11.5818 959.013 -10.234 964.074 -8.94864C969.201 -7.66331 974.191 -6.63508 979.251 -5.47834C982.397 -4.77314 985.543 -4.193 988.688 -3.42182C990.603 -2.97373 992.518 -2.45958 994.362 -1.87944C999.423 -0.33707 1004.55 1.07678 1009.54 2.93873C1014.67 4.8042 1019.66 7.11423 1024.65 9.29927C1025.61 9.75089 1026.57 10.265 1027.46 10.8416C1031.63 13.6694 1035.73 16.563 1039.77 19.5817C1042.09 21.3152 1044.41 23.1146 1046.53 25.0426C1049.47 27.6792 1052.14 30.5069 1054.94 33.2686" stroke="#868B90" stroke-width="0.385202" stroke-miterlimit="18.4975"/>
<path d="M788.759 -17.7527C788.759 -17.7527 759.494 -10.298 749.647 9.23529C742.675 22.9221 718.947 15.0818 718.947 15.0818C699.53 9.04078 685.169 15.0818 669.855 20.6086C664.794 22.4706 659.667 24.3985 654.81 26.6495C637.104 34.7435 621.786 46.6309 604.83 55.9511C593.959 61.9261 582.404 66.8103 570.368 70.4717C557.309 74.5187 543.839 77.1553 530.162 78.3746C523.327 79.0832 516.489 79.3403 509.584 79.0832C503.359 78.6976 496.798 75.7414 490.78 74.1331L490.643 74.1331C486.196 71.6284 481.479 69.4434 477.24 66.6157C473.137 63.854 469.241 60.7693 465.618 57.4275C462.062 54.0857 458.643 50.5528 455.497 46.8254C455.497 46.8254 431.703 7.56436 413.993 -10.1069C410.371 -13.7683 406.951 -16.4675 404.079 -17.7528" stroke="#868B90" stroke-width="0.385202" stroke-miterlimit="18.4975"/>
<path d="M423.77 -17.6887C428.08 -13.7043 432.179 -9.46279 436.009 -5.03017C441.48 1.26784 446.47 7.88542 451.053 14.8261C455.977 22.3435 460.831 30.955 467.052 37.5101C473.48 44.3847 481.002 50.3597 489.685 54.6012C499.529 59.2909 510.47 61.6044 521.478 62.1185C539.735 62.8897 558.402 59.4854 575.428 53.3819C588.418 48.7548 600.52 42.2657 612.145 35.068C623.7 27.9362 634.505 19.9014 646.471 13.4123C647.768 12.7071 649.069 11.9985 650.367 11.3558C665.888 3.51888 679.291 -5.28726 702.468 1.33385C702.468 1.33385 721.206 5.50935 730.162 1.33385C741.991 -4.32149 763.526 -17.7512 763.526 -17.7512" stroke="#868B90" stroke-width="0.385202" stroke-miterlimit="18.4975"/>
<path d="M442.574 -17.6889C452.351 -5.41597 468.146 14.2493 468.283 14.4404C476.626 24.2087 484.898 32.7543 497.071 38.4096C509.447 44.1276 522.916 45.7324 536.59 45.2183C550.06 44.7702 563.736 42.3941 576.112 37.3814C577.136 36.9958 578.094 36.5442 579.051 36.1586C600.11 26.7793 618.026 12.4499 637.444 0.562489C653.442 -9.20583 678.881 -17.7514 703.426 -15.0523C703.426 -15.0523 722.913 -12.6762 730.709 -14.2186C737.478 -15.5039 738.501 -17.8175 738.501 -17.8175" stroke="#868B90" stroke-width="0.385202" stroke-miterlimit="18.4975"/>
<path d="M1054.94 242.68C1054.94 242.68 1031.56 242.103 1036.62 233.748C1041.61 225.394 1054.94 201.3 1054.94 201.3" stroke="#868B90" stroke-width="0.385202" stroke-miterlimit="18.4975"/>
<path d="M626.846 629.764C626.092 627.579 625.341 625.331 624.657 623.146C620.965 611.387 615.22 599.948 613.649 587.998C611.938 574.631 619.324 562.615 630.675 554.969C648.659 542.825 658.436 526.762 663.086 507.034C666.161 493.733 671.288 481.074 681.339 471.049C696.11 456.271 706.505 456.334 722.366 468.415C734.331 477.475 745.41 487.501 756.895 497.074C760.998 500.479 764.894 504.14 769.407 506.905C777 511.532 784.589 513.975 793.475 508.125C798.946 504.526 805.921 502.535 812.486 500.802C828.074 496.817 844.416 510.053 845.033 526.824C845.373 535.241 844.689 543.787 846.264 552.013C848.792 565.443 862.602 571.289 870.945 580.8C872.997 583.114 875.185 585.233 877.647 587.098C881.34 589.989 883.391 590.76 889.202 587.227C900.28 580.477 914.501 599.371 930.362 589.346C930.362 589.346 941.167 579.967 948.893 548.542C950.671 541.282 963.867 524.577 966.809 505.04C968.177 495.789 953.406 475.419 953.816 465.907C954.363 455.243 968.998 439.628 968.654 429.154C968.314 420.671 956.141 415.659 955.391 407.565C950.944 356.864 936.927 317.669 936.927 317.669C925.169 292.286 864.791 286.183 869.374 158.954C870.879 117.446 964.14 104.787 968.517 73.4291C972.55 44.4505 931.937 48.1119 878.261 18.2961C859.39 7.82255 824.998 -1.68865 813.717 -1.56013C797.578 -1.43161 766.879 13.7976 755.05 24.9138C741.307 37.8294 709.647 38.4721 709.647 38.4721L694.535 39.2433C680.108 40.0144 667.049 42.7796 653.922 48.4975C640.246 54.5384 627.87 62.6325 614.88 69.7676C610.981 71.9492 607.018 73.9432 602.982 75.8712C590.402 81.8461 577.343 86.7928 563.873 90.7147C550.333 94.7617 536.249 98.4891 522.025 99.2603C516.965 99.5799 511.908 99.3228 506.914 98.6177C506.914 98.6177 464.523 86.4072 445.309 88.7868C426.095 91.1003 389.378 151.566 389.378 151.566C360.113 168.528 353.411 174.183 298.574 169.365C238.13 164.096 250.849 193.46 221.721 224.175C192.593 254.891 209.275 285.606 209.275 285.606C199.021 329.557 161.687 331.485 138.643 337.783C109.996 345.557 74.6464 380.382 61.243 404.094C50.782 422.728 37.7927 441.941 42.0991 463.403C44.7642 476.384 46.8157 491.482 57.4135 500.222C72.4581 512.88 110.132 533.636 122.168 547.966C142.406 572.126 165.38 592.173 192.116 578.039C223.226 561.587 249.411 530.486 283.873 549.894C317.789 569.041 331.395 606.374 367.772 622.632C382.539 629.249 415.294 618.328 445.923 604.189C476.489 590.054 500.486 567.69 523.53 569.232C546.503 570.775 594.982 618.39 594.982 618.39" stroke="#868B90" stroke-width="0.385202" stroke-miterlimit="18.4975"/>
<path d="M945.406 624.055C949.236 615.102 950.533 604.985 951.491 595.604C953.816 572.428 957.716 550.601 969.408 529.569C975.765 517.981 983.698 511.484 997.441 507.559C1009.61 504.062 1020.96 500.999 1031.76 494.559C1040.45 489.348 1048.24 482.971 1054.94 475.738" stroke="#868B90" stroke-width="0.385202" stroke-miterlimit="18.4975"/>
<path d="M1054.94 456.399C1054.6 456.913 1054.33 457.428 1053.99 457.942C1045.3 472.528 1031.35 486.02 1014.53 491.995C1006.33 494.889 996.004 496.88 987.594 493.409C978.294 489.491 976.653 480.045 975.695 471.562C974.738 462.954 973.851 454.471 976.586 445.988C977.473 442.903 985.132 419.323 1054.94 381.348" stroke="#868B90" stroke-width="0.385202" stroke-miterlimit="18.4975"/>
<path d="M1054.94 429.925C1052.62 434.486 1045.64 447.339 1043.04 451.581C1036.69 461.926 1028.62 474.004 1017 479.594C1011.18 482.359 1004.41 484.992 997.989 482.421C991.9 479.851 987.457 474.713 985.953 468.544C983.151 456.399 983.972 428.445 1054.94 392.655" stroke="#868B90" stroke-width="0.385202" stroke-miterlimit="18.4975"/>
<path d="M1054.94 412.126C1053.03 414.44 1029.65 442.518 1027.18 444.575C1023.56 447.726 1022.47 451.325 1020.76 455.563C1018.23 462.118 1014.12 472.977 1004.96 472.143C992.791 471.049 994.022 461.027 1001.47 454.791C1006.6 450.425 1007.36 438.086 1054.94 403.386" stroke="#868B90" stroke-width="0.385202" stroke-miterlimit="18.4975"/>
<path fill-rule="evenodd" clip-rule="evenodd" d="M958.807 381.347C958.807 381.347 966.947 413.282 985.133 406.665C1003.32 400.047 1028.34 382.567 1026.23 368.237C1024.18 353.974 991.972 336.883 995.801 324.672C999.627 312.465 1026.09 295.308 1014.33 282.583C1002.64 269.862 976.243 247.887 958.807 247.887C941.304 247.887 909.441 260.48 910.945 271.981C912.45 283.549 952.859 304.43 954.024 323.967C955.118 343.5 954.844 370.617 958.807 381.347V381.347Z" stroke="#868B90" stroke-width="0.385202" stroke-miterlimit="18.4975"/>
</svg>
