<svg width="297" height="186" viewBox="0 0 297 186" fill="none" xmlns="http://www.w3.org/2000/svg">
<g clip-path="url(#clip0_2501_4774)">
<g style="mix-blend-mode:multiply">
<path d="M-96.439 254.121C-95.391 252.292 -91.7538 250.407 -89.6158 249.027C-87.2215 247.526 -84.7446 246.193 -82.1998 245.037C-77.0059 242.596 -71.8732 240.062 -66.947 237.396C-61.21 234.31 -57.5001 231.245 -58.9573 226.117C-60.1047 222.054 -63.0038 217.945 -66.9088 214.711C-70.6493 211.612 -78.5778 209.714 -78.9832 205.333C-79.1783 203.241 -78.0806 201.088 -77.113 199.114C-76.4895 197.841 -75.7514 197.039 -76.7955 195.791C-77.6637 194.751 -79.3007 193.893 -80.4978 193.023C-84.812 189.877 -88.1471 186.04 -87.4204 181.642C-86.6096 176.764 -81.5457 174.744 -76.4666 171.777C-73.7473 170.189 -71.877 167.727 -73.2807 165.354C-74.386 163.482 -78.0538 161.699 -78.5051 159.734C-79.1056 157.102 -73.9155 156.125 -71.1044 156.473C-67.9759 156.855 -64.8932 157.428 -61.7761 157.853C-55.5266 158.702 -49.0935 159.326 -42.8708 158.069C-37.0959 156.883 -31.5833 154.464 -26.6389 150.946C-17.5286 144.282 -16.473 135.736 -10.7666 127.96C-5.25145 120.442 2.81858 113.327 13.8565 109.082C18.492 107.303 25.9845 103.564 31.6183 104.812C37.0187 106.013 41.4629 111.073 43.9949 114.231C50.2137 121.987 51.9884 130.333 54.9755 138.763C57.9128 147.054 59.8634 155.433 62.2653 163.809C63.4738 168.024 64.1967 172.273 65.1643 176.51C66.1014 180.606 66.9772 185.025 70.014 188.706C72.829 192.102 78.7381 195.591 83.3697 197.934C88.6057 200.583 95.3639 200.969 101.598 199.942C114.311 197.854 122.251 189.971 134.058 186.587C136.872 185.843 139.608 184.772 142.22 183.391C145.78 181.455 146.274 180.19 144.576 177.287C142.254 173.313 140.338 169.221 137.645 165.328C134.838 161.283 131.87 157.912 130.677 153.442C129.53 149.197 129.334 145.156 129.094 140.852C128.612 132.226 124.856 123.969 122.974 115.505C121.991 111.132 123.031 107.219 124.986 103.041C126.11 100.63 126.351 98.771 125.047 96.3556C123.942 94.3095 122.752 92.3058 121.804 90.2215C118.132 82.1773 117.937 73.4368 118.362 65.0954C118.599 60.5192 118.82 56.6351 116.17 52.3179C113.749 48.3785 110.23 44.8849 107.186 41.162C105.752 39.4088 104.968 37.4646 103.812 35.6435C101.797 32.447 97.8308 30.091 103.702 27.4422C106.138 26.3427 109.006 26.4361 111.324 25.0013C113.944 23.3797 115.428 20.7053 116.461 18.4937C118.924 13.2426 116.843 7.80477 122.963 3.38996C125.598 1.49669 129.082 0.210453 132.038 -1.42812C133.526 -2.27712 135.419 -3.12612 136.655 -4.11945C138.418 -5.53304 138.858 -6.49241 141.837 -6.7556C145.826 -7.10794 149.915 -6.624 153.923 -7.02728C157.566 -7.42548 161.065 -8.8071 164.116 -11.0515C167.141 -13.2335 169.191 -15.9291 172.041 -18.2129C175.272 -20.8066 177.223 -23.5404 177.059 -26.9279" stroke="#0C6F78" stroke-width="0.55057" stroke-miterlimit="10"/>
<path d="M47.8848 144.515L47.9115 144.579" stroke="#0C6F78" stroke-width="0.55057" stroke-miterlimit="10"/>
<path d="M196.82 -26.9151C196.109 -25.6119 195.738 -23.9436 194.438 -22.8611C193.229 -21.8466 191.305 -20.9169 189.867 -20.0467C186.643 -18.0897 181.453 -16.812 179.449 -14.2225C177.38 -11.5397 176.175 -8.62762 173.807 -6.02118C168.721 -0.439003 161.155 2.30752 152.164 4.40455C147.907 5.39788 143.501 6.48036 140.227 8.61984C136.953 10.7593 135.695 14.0152 134.57 16.8467C133.343 19.9455 135.006 22.7302 134.57 25.7994C134.134 28.8685 130.011 30.0953 127.46 32.4004C121.601 37.6769 123.934 44.1251 130.677 48.5781C133.817 50.6539 137.829 52.5217 137.496 55.7691C137.183 58.8425 134.895 61.589 133.017 64.3398C129.093 70.0748 124.638 74.8546 126.347 81.4344C127.12 84.6322 128.52 87.6009 130.447 90.1282C132.543 92.862 134.746 95.3708 135.691 98.4102C136.689 101.636 134.471 104.251 133.151 107.257C132.539 108.653 131.767 110.228 132.115 111.667C132.463 113.106 133.178 114.613 133.706 116.052C135.886 121.995 137.018 127.896 138.296 133.954C139.538 140.195 141.622 146.193 144.476 151.744C147.49 157.513 149.36 163.104 151.162 169.077C152.011 171.895 155.824 174.052 157.549 176.769C159.377 179.647 159.431 182.733 158.421 185.755C157.507 188.498 155.786 191.881 152.393 193.719C148.813 195.663 143.512 195.09 139.213 194.971C136.938 194.908 134.494 194.755 132.256 195.086C130.084 195.413 128.091 196.385 126.16 197.094C122.19 198.546 118.388 200.193 114.422 201.653C106.57 204.548 98.0524 207.553 88.9 207.931C77.361 208.415 75.5367 201.683 70.3581 196.499C67.7917 193.952 65.0303 191.571 63.3513 188.655C61.8334 185.94 60.6318 183.024 59.7753 179.974C58.0121 174.009 57.8629 168.088 54.9447 162.238C52.0265 156.388 50.684 150.42 47.9112 144.583C45.5513 139.625 43.7385 134.556 41.4666 129.581C40.2847 126.933 38.9377 124.38 37.4354 121.94C36.6884 120.714 35.8788 119.536 35.0106 118.413C32.6929 115.479 27.9694 114.669 23.3721 115.649C16.1627 117.182 11.8982 121.422 7.62985 125.251C3.25061 129.182 -0.784397 133.487 -1.05595 138.525C-1.18216 140.822 -0.673482 143.356 -0.00416664 145.606C0.324754 146.74 0.978773 147.448 0.27886 148.578C-0.275715 149.478 -1.49196 150.475 -2.36398 151.265C-4.24954 152.963 -7.64584 154.542 -10.2428 155.807C-13.1495 157.22 -16.2054 158.587 -19.246 159.869C-25.4764 162.497 -31.5461 165.354 -37.8874 167.846C-41.3296 169.2 -44.2096 169.701 -48.214 169.684C-51.9201 169.684 -55.4311 169.624 -58.9651 170.456C-62.6865 171.331 -64.9889 172.749 -67.9454 174.396C-70.9784 176.094 -73.9348 177.584 -76.0805 179.846C-80.6127 184.622 -75.2773 187.729 -71.4909 191.788C-67.4865 196.067 -69.9228 201.127 -66.297 205.588C-62.8012 209.884 -57.7489 213.577 -54.169 217.899C-50.7038 222.063 -48.5085 226.694 -46.3705 231.215C-43.8195 236.602 -52.3064 238.135 -57.8674 240.41C-64.1016 242.957 -70.4008 245.47 -75.9275 248.688C-81.5153 251.939 -86.2885 254.783 -87.1261 259.911C-89.0193 271.479 -70.244 273.64 -61.6271 281.051C-57.1369 284.914 -58.3838 290.391 -60.2617 294.818C-62.4226 299.882 -66.3352 303.236 -71.1352 307.286C-73.43 309.234 -73.2579 311.127 -73.5332 313.458C-73.8086 315.788 -76.2793 317.626 -78.5665 319.257C-80.0543 320.309 -80.6548 320.182 -82.6168 320.619C-84.0625 320.938 -85.0722 321.71 -86.2426 322.317C-88.2314 323.374 -92.2052 326.346 -94.8213 326.248" stroke="#0C6F78" stroke-width="0.55057" stroke-miterlimit="10"/>
<path d="M-83.6919 338.126C-82.1276 335.332 -78.0046 333.032 -75.2164 330.778C-72.4283 328.523 -68.8522 326.32 -67.1847 323.561C-63.7769 317.89 -62.6716 311.756 -58.8813 306.135C-55.1332 300.57 -52.6548 294.682 -51.4883 288.646C-50.8801 285.509 -49.9584 282.469 -52.0581 279.506C-53.7945 277.07 -59.1185 275.21 -62.618 273.911C-70.0952 271.139 -80.766 267.68 -79.7143 260.837C-78.7734 254.724 -68.8063 250.776 -61.7766 247.775C-54.6742 244.744 -43.8581 241.951 -40.4121 236.432C-37.0578 231.062 -41.525 223.608 -44.6957 218.603C-48.2488 212.987 -54.3682 208.267 -57.9481 202.663C-61.5968 196.954 -62.1093 190.985 -66.9896 185.59C-68.2709 184.176 -68.9019 182.194 -66.4771 181.201C-64.6107 180.436 -61.9219 180.194 -59.8604 179.647C-55.6266 178.513 -51.4118 177.524 -47.0019 176.739C-37.9719 175.113 -29.791 172.732 -21.3538 170.079C-13.1881 167.506 -3.61884 166.284 3.73215 162.752C7.49944 160.948 11.3241 158.829 13.4468 156.011C15.5045 153.281 15.8907 150.237 16.0437 147.236C16.3573 141.026 14.5559 134.837 20.8743 129.573C24.3165 126.703 29.2044 126.72 31.4686 130.231C33.2547 132.998 32.8455 136.271 33.4689 139.217C34.1076 142.24 35.844 145.063 36.9952 148.005C38.1464 150.946 38.9955 154.071 40.6133 156.974C42.2312 159.878 44.2276 162.446 46.3962 165.112C48.7293 167.973 51.1732 170.448 51.3683 173.751C51.6781 179.524 54.8334 186.031 58.31 191.304C60.1038 194.025 62.3221 196.61 64.1694 199.318C66.0817 202.154 67.0953 205.21 68.1891 208.233C68.7246 209.71 69.5048 211.128 70.1015 212.588C70.6981 214.048 70.7861 215.695 71.7767 217.003C74.1097 220.072 80.7952 218.276 84.6122 217.402C93.3516 215.436 101.345 212.282 109.235 209.179C116.54 206.305 125.781 202.298 134.681 203.151C143.937 204.039 150.289 209.943 155.261 214.723C156.596 215.997 157.415 217.47 158.906 218.692C160.398 219.915 162.031 220.993 163.542 222.165C166.536 224.478 169.47 226.783 172.273 229.19C174.549 231.147 181.663 234.645 182.581 230.039C182.894 228.49 181.388 227.017 180.948 225.54C180.473 223.935 180.921 222.437 181.196 220.845C181.747 217.618 178.286 215.161 175.842 212.571C173.398 209.982 171.7 206.98 170.927 204.026C169.344 197.973 169.906 191.872 170.07 185.772C170.399 173.462 166.762 161.576 157.682 150.755C153.211 145.432 148.736 139.888 147.21 133.814C145.684 127.739 144.747 121.618 143.875 115.56C143.003 109.502 145.023 103.487 143.191 97.4211C141.359 91.355 136.352 86.0318 133.679 80.1482C132.019 76.506 135.671 74.3198 138.769 71.5436C141.447 69.1536 143.887 66.6575 145.734 63.9492C149.941 57.7643 147.264 52.2542 141.825 46.9013C139.029 44.159 135.377 41.8073 137.714 38.3476C139.668 35.4398 142.824 33.2281 144.411 30.1335C147.207 24.6787 143.401 16.6471 153.418 13.8412C155.472 13.2639 157.889 13.3106 160.034 13.6247C162.524 13.994 163.993 15.1572 166.257 15.7175C170.285 16.7151 174.74 13.0516 177.754 11.5616C185.166 7.90668 191.14 3.26689 197.298 -1.288C200.209 -3.44022 203.18 -5.533 206.114 -7.65551C209.174 -9.87564 211.193 -12.5712 215.029 -14.282C216.942 -15.131 218.59 -15.6871 220.17 -16.829C221.749 -17.9709 223.229 -19.1807 224.87 -20.2886C226.354 -21.3032 228.358 -22.0546 229.743 -23.1073C231.192 -24.211 231.8 -25.7307 233.246 -26.8896" stroke="#0C6F78" stroke-width="0.55057" stroke-miterlimit="10"/>
<path d="M-48.0614 333.817C-54.9458 333.949 -59.4627 331.096 -58.059 326.575C-56.8657 322.725 -54.9764 319.061 -53.3547 315.292C-50.2321 307.93 -47.7167 300.269 -45.8393 292.403C-44.9099 288.582 -43.6018 284.622 -43.5445 280.759C-43.4986 276.628 -48.7881 273.814 -53.5536 271.717C-58.5256 269.526 -64.0293 268.185 -69.0779 266.139C-75.6831 263.456 -74.0499 259.635 -68.5501 256.88C-59.2906 252.241 -48.2794 248.497 -40.305 242.83C-31.3514 236.462 -32.5371 228.579 -36.0443 220.828C-39.4865 213.242 -46.7878 206.951 -50.5589 199.509C-52.3259 196.024 -53.2361 191.406 -50.4327 188.069C-47.4188 184.456 -41.8884 182.911 -36.4306 181.324C-25.6298 178.178 -14.5421 175.427 -2.92275 173.971C2.95957 173.237 8.51681 172.384 14.2041 171.127C20.4497 169.747 25.3262 168.716 31.22 171.301C40.7434 175.478 45.1532 184.376 50.1865 190.828C52.8637 194.279 56.3633 197.54 58.3368 201.211C60.3562 204.968 61.2971 208.878 62.3565 212.792C63.3815 216.574 64.9841 220.607 69.348 223.336C73.8879 226.172 80.4051 226.147 85.9853 224.86C97.1227 222.292 105.678 216.171 115.6 212.164C120.27 210.279 126.477 208.033 132.149 208.653C137.821 209.273 142.747 212.66 145.279 215.92C146.637 217.657 147.49 219.546 148.702 221.324C149.914 223.103 151.674 224.64 153.292 226.308C156.616 229.782 160.259 232.861 164.161 235.494C168.013 238.075 172.698 241.526 178.274 242.337C184.478 243.241 188.501 238.398 190.299 235.146C192.391 231.359 191.328 227.463 190.861 223.549C190.395 219.635 189.806 215.865 188.157 212.011C184.967 204.535 181.583 196.928 181.059 189.088C180.795 185.182 181.51 181.277 181.533 177.376C181.563 173.012 182.791 169.985 186.887 166.589C189.182 164.696 190.651 163.062 188.035 160.977C186.122 159.453 183.376 158.558 181.246 157.182C177.115 154.504 173.581 151.214 169.879 148.242C166.108 145.203 162.589 142.142 159.732 138.678C156.787 135.112 155.694 131.492 154.94 127.497C154.162 123.653 153.595 119.76 153.242 115.84C152.944 111.926 153.793 108.004 153.54 104.12C153.414 102.176 152.267 100.299 151.724 98.4059C151.18 96.5127 150.603 94.5133 149.979 92.5775C148.759 88.791 146.92 84.962 146.901 81.0566C146.881 77.1512 149.934 73.509 152.477 70.0535C155.208 66.3477 157.33 63.0748 157.617 58.8977C157.904 54.7206 157.889 51.3543 154.791 47.5508C153.261 45.6915 151.666 44.1548 151.685 41.9601C151.704 40.0711 152.618 38.2033 153.513 36.4416C157.981 27.578 168.946 27.3615 182.091 28.8982C188.536 29.6496 193.106 31.0207 198.817 28.0832C203.122 25.9447 207.07 23.0124 210.493 19.4106C213.595 16.2099 218.341 13.5271 221.967 10.5258C225.769 7.36756 229.146 4.54888 232.049 0.966097C234.952 -2.61669 239.431 -4.9387 243.982 -7.52391C246.315 -8.84835 248.315 -10.3341 250.564 -11.718C252.645 -12.9915 255.127 -13.9678 257.261 -15.2201C259.284 -16.4045 260.975 -19.8429 264.065 -20.1613C269.389 -20.7047 268.586 -15.114 270.036 -13.0212C273.252 -8.35169 285.078 -9.51482 291.76 -9.56152C298.583 -9.60821 300.533 -6.95084 306.006 -4.71796C310.921 -2.71432 316.75 -3.10486 317.614 1.64954C318.498 6.55677 320.59 11.447 320.066 16.4094C319.66 20.3615 319.179 24.182 320.559 28.062C321.906 31.8485 323.818 35.5884 325.646 39.2815C327.226 42.4653 325.99 48.196 330.174 50.518C335.185 53.2985 342.211 50.518 346.869 48.8667C352.514 46.8461 354.817 43.5987 357.092 39.74C359.261 36.068 361.892 32.672 364.432 29.102C366.906 25.6593 369.27 22.0638 371.022 18.4216C371.844 16.7236 372.896 14.9407 373.408 13.1705C374.72 8.61984 376.338 3.09709 383.395 0.758093C387.154 -0.489938 389.847 0.885443 393.442 0.422737C395.45 0.159547 396.066 -1.20735 397.737 -1.63609C401.214 -2.52754 404.472 -0.833785 407.681 -1.75071C410.89 -2.66763 410.859 -4.84107 411.315 -6.80651C411.823 -9.00117 411.697 -11.2086 412.378 -13.3863C413.017 -15.3729 411.567 -19.8005 415.025 -20.6452C417.522 -21.2523 421.526 -19.8684 424.525 -20.2717C427.202 -20.6325 433.999 -21.5664 431.983 -24.2492C430.553 -26.1552 427.73 -24.9709 425.649 -25.0303C422.819 -25.1152 413.353 -25.111 412.37 -26.9151" stroke="#0C6F78" stroke-width="0.55057" stroke-miterlimit="10"/>
<path d="M52.4434 334.403C54.2296 333.036 55.5873 331.3 55.8053 329.487C56.2184 326.053 53.4149 321.697 50.4202 318.976C43.1036 312.316 26.0418 312.273 15.3748 314.638C3.07856 317.367 -8.93469 320.059 -21.9385 320.908C-26.3866 321.201 -36.2848 322.028 -38.943 318.989C-41.6011 315.95 -41.0657 310.834 -41.1192 307.485C-41.1919 303.24 -40.6832 298.961 -40.0062 294.75C-39.3293 290.539 -37.9141 286.235 -38.2278 282.015C-38.5414 277.796 -40.3045 274.408 -44.2707 271.067C-47.5331 268.321 -53.5685 265.574 -54.888 262.187C-55.6529 260.183 -55.2704 259.287 -53.8706 257.424C-52.4708 255.56 -49.8624 254.028 -47.5829 252.661C-42.7906 249.829 -37.6961 247.367 -33.7797 243.942C-25.5758 236.772 -25.7479 229.054 -29.0371 220.67C-30.7399 216.485 -32.7603 212.467 -35.0762 208.661C-37.371 204.815 -41.0121 201.02 -42.5649 197.009C-44.2516 192.645 -39.0118 189.949 -33.7491 188.12C-27.9897 186.079 -22.1297 184.407 -16.1977 183.111C-4.72374 180.683 10.1465 178.9 21.7544 181.761C27.8356 183.259 32.3831 186.367 36.9 189.317C41.2931 192.118 45.471 195.315 49.3914 198.877C53.216 202.455 54.4781 206.467 55.6255 210.712C56.7729 214.957 58.0542 218.972 60.5747 222.912C62.8694 226.469 66.5488 230.723 72.1748 232.323C77.9118 233.953 85.3355 232.968 90.7856 231.321C102.745 227.709 109.603 219.728 120.767 215.398C126.577 213.148 132.624 212.851 137.749 216.018C142.128 218.726 144.228 223.209 146.109 226.868C148.274 231.079 150.389 234.314 155.212 237.481C159.695 240.414 164.185 243.581 169.264 246.064C174.343 248.547 179.889 249.885 185.492 247.427C190.418 245.249 194.537 242.129 197.157 238.606C199.834 234.989 199.02 231.139 198.186 227.322C197.276 223.137 196.427 218.964 195.891 214.749C195.356 210.533 194.828 206.335 194.312 202.128C193.795 197.922 192.567 193.693 192.873 189.504C193.187 185.22 195.597 181.082 199.597 177.737C203.368 174.582 207.839 172.065 209.771 168.143C211.568 164.492 209.606 160.714 206.122 157.755C202.175 154.402 196.515 152.78 192.162 149.792C189.825 148.183 188.36 147.245 185.327 146.209C182.574 145.334 179.879 144.247 177.261 142.957C172.35 140.41 168.43 136.615 166.212 132.769C161.683 124.937 161.852 116.01 161.396 107.745C160.93 99.2209 157.101 90.9049 157.813 82.3343C158.168 78.0383 160.012 73.9461 161.94 69.8667C163.711 65.9845 165.042 61.8738 165.902 57.6283C166.778 53.6465 166.839 49.0195 170.025 45.4749C173.448 41.6544 179.927 40.3809 186.245 40.1262C189.424 39.9988 192.747 40.2493 195.88 39.7696C199.012 39.2899 201.907 38.1565 204.741 37.2226C210.421 35.393 215.271 32.6168 220.717 30.5495C223.421 29.5179 226.19 28.8515 228.542 27.4379C230.894 26.0243 231.64 24.2796 232.489 22.259C234.13 18.3536 236.348 14.3887 240.001 11.0946C243.324 8.09338 249.046 4.89264 253.999 3.13946C256.912 2.10611 259.942 1.53446 262.999 1.44145C266.196 1.30137 268.127 0.138237 271.065 -0.290508C273.864 -0.715009 277.249 -0.634354 280.125 -0.715009C283.323 -0.821134 286.386 -0.901789 289.549 -0.507003C292.376 -0.154668 294.904 0.842908 297.562 1.54758C300.541 2.32866 303.096 3.5682 305.012 5.27045C306.749 6.81139 307.089 8.43722 308.072 10.1777C309.22 12.1898 310.749 13.9982 311.652 16.1207C313.377 20.1322 313.92 24.339 315.381 28.3972C318.353 36.658 318.781 44.8636 317.771 53.2899C317.332 56.9449 319.221 60.931 323.967 63.0152C329.089 65.2863 335.667 63.9874 340.329 61.7417C345.125 59.4282 349.31 55.8582 352.97 52.7975C356.586 49.7782 359.721 46.1078 362.245 41.9388C364.585 38.1565 366.368 33.7417 370.276 30.5112C372.374 28.7872 374.678 27.397 377.123 26.3809C378.457 25.8333 379.98 25.4979 381.165 24.806C387.476 21.1213 393.974 26.1729 399.81 23.5112C401.834 22.5901 401.723 21.3887 404.4 22.4797C405.93 23.0867 405.754 24.9248 407.735 25.2305C411.013 25.7441 410.871 22.6283 411.082 21.3293C411.51 18.6719 410.86 13.6883 415.511 13.8751C417.186 13.9387 418.44 15.4245 420.674 15.416C424.38 15.416 426.621 13.9685 430.767 14.567C434.492 15.0976 438.168 16.074 441.587 15.225C445.274 14.3123 448.896 10.5555 452.713 10.5937" stroke="#0C6F78" stroke-width="0.55057" stroke-miterlimit="10"/>
<path d="M70.6446 332.989C69.8146 328.846 64.6475 325.73 61.3353 322.351C57.7631 318.705 54.952 313.814 49.7237 311.042C44.6904 308.368 35.8937 308.597 29.7743 308.597C15.1182 308.627 2.03782 313.759 -12.5035 314.328C-18.9137 314.596 -25.3008 313.691 -29.1943 310.024C-32.7627 306.662 -33.6195 302.162 -33.8413 298.138C-34.3347 289.172 -30.4832 280.619 -35.9372 272.001C-38.3047 268.27 -42.6571 264.789 -44.3859 260.888C-46.1146 256.987 -37.7233 253.548 -34.1396 251.031C-25.014 244.612 -17.8963 237.184 -19.6633 228.082C-21.35 219.389 -26.5477 211.136 -28.0775 202.417C-29.7183 193.019 -12.8439 188.209 -1.18636 187.262C5.7248 186.702 12.8195 187.186 18.939 189.474C21.8649 190.569 24.0028 192.284 26.8293 193.456C29.5562 194.585 32.5204 195.417 35.2435 196.563C40.4795 198.762 44.9199 201.78 47.4824 205.558C50.3203 209.723 50.8672 214.341 52.6381 218.718C55.912 226.783 57.9046 237.638 72.4077 239.862C86.5284 242.027 99.9453 239.344 109.052 231.852C113.523 228.176 126.794 212.028 135.576 219.966C139.244 223.285 139.986 227.306 141.106 231.236C142.399 235.774 145.944 238.979 151.238 241.896C159.327 246.349 170.223 257.942 182.959 254.333C188.999 252.635 194.112 248.908 198.591 245.843C202.362 243.258 208.053 238.941 207.72 235.095C207.552 233.125 206.129 231.054 205.315 229.152C204.331 226.965 203.484 224.706 202.779 222.39C201.44 217.686 201.739 213.051 202.595 208.313C203.414 203.784 204.27 199.327 204.125 194.755C203.984 190.612 204.695 186.651 209.862 183.862C214.834 181.179 219.236 178.344 223.895 175.444C226.335 173.916 228.806 172.447 231.452 171.085C233.724 169.917 236.298 167.956 236.581 165.957C237.189 161.712 230.282 158.808 226.385 156.24C224.384 154.92 222.22 153.744 220.246 152.419C218.074 150.938 215.775 149.151 213.323 147.894C210.872 146.638 207.625 146.273 204.695 145.721C201.478 145.109 198.289 144.299 195.214 143.424C188.972 141.641 182.47 139.642 178.469 135.851C170.514 128.316 170.602 118.502 169.458 109.651C168.227 100.129 165.355 90.5484 166.995 80.9759C167.802 76.2809 169.554 71.6921 171.015 67.0778C172.388 62.7394 173.054 58.1633 175.505 53.9989C177.861 50.0086 182.057 47.0244 188.337 45.7381C194.866 44.4009 201.895 44.3203 208.443 42.9364C214.792 41.5907 219.982 38.4876 226.278 36.9934C232.573 35.4992 239.258 35.4907 245.359 33.7375C247.912 33.0687 250.277 31.7096 252.243 29.7811C253.895 28.1511 253.804 25.7569 254.24 23.8381C255.154 19.8436 255.165 15.8872 258.638 12.3766C260.485 10.5131 262.302 9.24805 265.656 8.73016C268.877 8.22925 271.665 7.77928 274.717 6.99395C279.853 5.66526 287.602 6.07703 292.536 7.57976C298.392 9.36266 301 12.8011 304.136 16.3032C307.578 20.1492 309.284 25.0013 310.638 29.3439C313.43 38.3688 312.168 47.3597 312.803 56.4822C313.09 60.7272 315.281 64.1232 318.062 67.8843C320.739 71.5011 320.884 76.7394 324.923 79.8213C329.67 83.4423 337.499 79.9656 342.169 78.0341C347.309 75.9116 347.523 70.8176 349.611 67.3834C354.671 58.9953 362.263 51.3203 367.744 43.0383C370.196 39.3282 372.445 35.2317 377.834 32.9522C383.486 30.5622 389.353 30.9273 392.562 35.0407C395.526 38.8612 397.374 42.0704 403.612 43.9297C407.329 45.0377 408.92 43.8236 412.408 43.6538C416.267 43.467 420.314 44.5368 424.181 44.6854C427.818 44.8254 430.939 44.1632 434.58 44.4519C438.672 44.7787 442.577 45.6744 446.746 45.5259C448.746 45.4579 450.953 45.7169 452.25 46.723C452.978 47.2737 453.779 47.6934 454.625 47.9667" stroke="#0C6F78" stroke-width="0.55057" stroke-miterlimit="10"/>
<path d="M81.0022 347.783C87.8483 340.023 78.9598 330.497 71.4711 324.397C67.4927 321.201 63.7783 317.618 60.372 313.691C56.6168 309.268 51.6162 306.397 46.194 305.549C33.1366 303.291 20.1136 304.662 7.35073 306.925C1.1433 308.024 -5.3395 309.175 -11.8223 308.996C-19.246 308.771 -23.5487 305.626 -26.0118 301.177C-30.5364 292.997 -25.3004 283.976 -27.7023 275.546C-28.8994 271.36 -31.7602 267.357 -32.441 263.112C-33.1639 258.629 -28.9988 254.834 -25.1245 251.421C-21.2501 248.008 -17.2304 244.676 -13.6505 241.119C-9.84877 237.332 -9.96733 232.794 -11.4972 228.545C-14.3427 220.632 -20.4087 211.289 -16.9932 203.096C-13.3483 194.356 2.46281 190.166 14.652 194.033C17.6314 194.98 19.9798 196.47 22.7565 197.62C25.5332 198.771 28.5967 199.445 31.4652 200.473C37.3514 202.595 41.6579 205.779 44.2128 209.88C46.7141 213.895 47.7277 218.399 48.7106 222.674C49.6935 226.949 50.8753 231.062 52.1528 235.261C52.7686 237.281 53.3576 239.272 53.828 241.31C54.3826 243.725 55.4037 244.706 59.1825 245.075C65.6194 245.737 72.0487 246.383 78.4359 247.24C84.823 248.098 91.1529 249.363 97.5592 250.296C104.876 251.379 109.068 248.339 114.204 245.351C116.768 243.798 119.414 242.421 122.129 241.225C125.667 239.722 127.334 239.641 130.925 241.025C136.617 243.22 142.399 245.415 147.961 247.783C153.223 250.025 157.025 253.777 161.821 256.464C166.434 259.045 173.023 262.615 179.457 261.202C185.408 259.894 190.613 256.371 195.321 253.752C200.293 250.997 205.648 248.259 209.912 245.024C214.177 241.789 216.062 237.218 214.334 233.083C212.563 228.838 209.197 225.043 207.767 220.666C206.336 216.29 208.283 212.206 210.444 208.071C212.528 204.094 214.578 199.772 215.275 195.574C215.657 193.367 215.753 191.329 217.768 189.41C219.543 187.712 222.897 186.307 225.314 184.987C230.405 182.207 235.258 179.719 240.995 177.575C246.281 175.614 252.385 173.216 254.053 169.123C255.72 165.031 252.672 160.633 247.91 158.023C242.824 155.251 237.565 152.759 232.145 150.259C226.882 147.83 221.968 144.965 216.277 142.978C205.395 139.183 188.009 139.846 182.742 131.092C180.355 127.119 180.023 122.602 179.262 118.404C178.474 114.044 177.594 109.698 176.657 105.351C174.817 96.78 173.54 88.2518 175.536 79.6387C176.523 75.3937 177.888 71.1487 178.944 66.9037C179.973 62.7309 180.436 57.9213 183.752 54.2069C187.488 50.0213 192.847 48.6502 199.941 48.2639C203.158 48.0898 206.478 48.2639 209.648 47.8394C212.884 47.4149 215.653 46.2348 218.499 45.1863C224.301 43.0637 230.126 40.9412 236.754 40.1474C243.126 39.4046 249.574 41.4591 255.422 42.843C258.39 43.5477 261.626 44.0868 263.584 41.994C265.213 40.296 264.819 38.0589 265.301 36.1444C265.844 33.9794 266.862 31.9928 266.624 29.7769C266.387 27.561 265.278 25.6295 266.169 23.4094C267.982 18.8417 270.556 15.5137 276.752 12.8945C282.29 10.5513 290.005 12.47 294.632 15.017C299.524 17.6701 302.588 22.3693 304.423 26.3002C306.366 30.4561 307.223 34.6756 307.866 38.9843C309.174 47.6101 306.902 56.4695 309.686 64.9765C311.109 69.3276 312.096 73.3009 311.79 77.7752C311.644 79.9231 310.987 82.0584 310.895 84.2021C310.803 86.3458 311.66 88.4853 312.539 90.5271C313.377 92.6421 314.311 94.7079 315.339 96.7164C316.242 98.3889 316.685 101.186 320.036 101.339C325.773 101.594 329.265 95.4259 331.831 92.9298C335.419 89.4404 340.161 86.2142 345.007 83.4847C350.262 80.5132 353.199 77.0875 356.152 73.0505C359.001 69.1535 361.025 64.8152 362.971 60.689C364.918 56.5629 367.561 52.6235 370.506 48.803C373.126 45.3518 376.101 40.1814 382.102 38.7593C388.337 37.282 390.207 44.7023 391.588 47.4955C393.144 50.6283 394.391 56.1851 398.923 58.0316C404.515 60.3155 411.376 57.5859 417.079 58.3967C420.253 58.8467 422.598 57.9425 425.746 58.0529C428.488 58.1505 431.655 57.9128 434.248 58.4222C437.69 59.1014 440.413 58.8042 443.809 58.9783C445.691 59.0759 446.188 59.2245 447.936 58.7023C449.37 58.2778 450.204 57.968 451.864 58.384" stroke="#0C6F78" stroke-width="0.55057" stroke-miterlimit="10"/>
<path d="M451.891 176.459C445.251 177.274 434.362 179.468 428.495 176.501C422.563 173.496 418.677 167.918 411.533 166.084C404.473 164.271 395.599 162.862 388.03 163.291C380.461 163.72 372.797 165.71 365.683 167.408C361.969 168.296 357.705 168.958 354.293 170.291C350.759 171.67 348.751 173.903 346.502 176.064C344.464 178.021 342.031 180.521 338.662 181.451C336.858 181.993 334.996 182.256 333.127 182.232C331.051 182.168 329.272 181.413 327.203 181.417C322.881 181.417 319.439 181.676 315.182 180.712C311.358 179.842 308.149 178.556 304.022 178.327C300.197 178.114 296.399 178.029 292.59 177.715C288.482 177.38 284.941 177.715 280.86 177.919C276.171 178.136 273.023 177.261 270.916 174.468C269.133 172.129 268.303 169.561 267.385 167.022C266.498 164.564 265.355 162.14 264.398 159.691C263.194 156.601 262.291 155.23 258.019 153.629C251.035 151.014 243.665 149.002 236.953 146.039C230.451 143.169 224.259 140.177 216.988 138.182C209.794 136.212 201.272 135.108 194.805 132.158C191.011 130.426 190.257 128.724 189.657 125.79C189.121 123.205 189.014 120.594 188.452 118.009C186.196 107.647 180.753 97.7224 181.95 87.0929C182.547 81.7697 184.589 76.6714 186.111 71.4501C187.584 66.3985 187.523 61.1856 189.905 56.2699C191.126 53.7569 194.147 51.6386 198.392 51.7575C202.458 51.8679 206.424 52.7551 210.524 52.2372C218.013 51.2863 224.545 47.5677 231.541 45.6744C240.288 43.3184 246.22 46.3706 253.762 49.0364C256.994 50.1784 261.331 51.4136 264.402 49.4397C267.122 47.695 268.376 44.7235 268.992 42.3293C270.35 37.1037 270.522 31.7423 271.723 26.5124C272.813 21.7071 278.102 15.59 286.639 17.4112C294.563 19.1092 298.495 24.6022 300.79 29.4924C301.937 31.9418 302.423 34.4166 302.878 36.9509C303.333 39.4852 304.466 42.1044 304.611 44.6768C304.913 49.9619 303.62 55.2893 304.175 60.5786C304.722 65.7745 305.181 70.7666 304.175 75.954C302.125 86.2906 302.553 96.797 302.645 107.214C302.672 110.755 304.423 120.433 312.872 117.827C316.395 116.732 318.816 114.155 321.623 112.436C324.43 110.716 327.303 109.095 329.708 107.074C334.6 102.965 337.74 97.9941 341.836 93.5241C345.829 89.1475 350.293 84.686 355.574 80.9504C360.963 77.1299 367.029 73.7127 369.833 68.6399C372.51 63.8048 371.802 57.951 375.619 53.4555C378.067 50.5689 381.934 51.4985 382.921 54.487C383.617 56.6095 381.926 59.7211 381.682 61.971C381.413 64.6567 381.478 67.3707 381.877 70.0365C382.144 71.934 382.573 75.4998 384.936 76.8922C388.141 78.7897 392.88 76.8115 395.925 75.8521C399.367 74.7654 402.993 73.9504 406.492 72.9231C413.961 70.7325 421.564 69.1506 429.241 68.1899C432.863 67.723 436.535 68.3003 440.241 67.9564C444.096 67.5956 447.948 67.3282 451.914 67.6253" stroke="#0C6F78" stroke-width="0.55057" stroke-miterlimit="10"/>
<path d="M451.89 169.276C449.569 171.751 446.968 172.044 442.776 172.481C439.246 172.846 434.985 173.135 431.543 172.379C428.101 171.624 425.603 169.51 423.083 167.854C420.463 166.102 417.743 164.542 414.94 163.185C409.012 160.387 401.103 159.835 395.006 157.004C391.988 155.607 389.621 153.744 386.867 152.139C383.398 150.119 380.323 150.985 378.602 153.748C377.286 155.871 375.902 158.265 372.796 159.509C369.691 160.752 365.637 161.313 362.206 162.128C358.775 162.943 355.218 163.681 351.99 164.777C348.579 165.931 346.769 168.011 344.192 169.794C339.109 173.305 333.192 176.45 325.39 176.191C321.641 176.064 318.31 175.122 314.99 174.069C311.671 173.016 308.599 171.522 304.859 171.496C297.691 171.437 290.176 173.585 283.169 171.666C276.082 169.701 274.445 163.889 272.173 159.598C269.94 155.395 265.977 149.974 259.479 148.013C256.228 147.032 252.595 146.633 249.332 145.627C246.106 144.643 242.942 143.421 239.863 141.968C233.716 139.043 228.006 136.212 220.973 134.238C214.039 132.29 207.468 131.317 202.748 127.157C198.461 123.375 197.941 117.653 196.036 113.187C194.066 108.573 191.764 104.179 190.299 99.4502C188.796 94.5302 188.027 89.7886 189.45 84.8092C190.796 80.1142 193.657 75.6994 195.061 71.0299C196.185 67.2561 194.942 59.1439 201.647 57.7261C205.135 56.9789 208.883 57.0129 212.379 56.2573C215.874 55.5017 219.144 54.4319 222.449 53.4259C225.753 52.4198 229.047 51.3585 232.393 50.4246C236.367 49.3209 238.895 49.1511 242.754 50.5223C245.974 51.6684 249.141 52.8825 252.339 54.0584C255.341 55.1578 259.43 56.8091 262.944 55.9432C269.408 54.3598 271.741 47.6654 272.808 43.7642C274.139 38.9037 274.399 34.0007 276.365 29.2081C277.279 26.9795 278.461 24.4452 281.483 23.0613C284.871 21.5034 288.413 22.9637 290.956 24.6702C296.28 28.2445 297.718 33.5125 298.223 38.3136C298.491 40.7503 299.868 43.0214 300.135 45.4537C300.388 47.7843 299.937 50.1232 300.032 52.4622C300.239 57.378 300.415 62.3149 299.65 67.2094C298.885 72.002 296.479 76.5909 295.749 81.375C295.018 86.1591 295.182 91.1767 295.316 95.999C295.45 100.821 294.934 105.695 295.217 110.534C295.511 115.229 295.791 120.476 299.386 124.644C301.057 126.58 303.872 128.889 307.207 129.564C311.636 130.451 313.239 127.896 315.128 125.744C318.838 121.55 322.728 117.521 327.948 114.062C333.169 110.602 336.936 106.471 340.899 102.375C342.93 100.274 345.198 98.2743 347.339 96.2198C349.37 94.2671 350.625 91.9748 352.426 89.9329C356.19 85.6455 361.074 82.1518 368.937 81.4769C373.355 81.0948 375.894 82.207 378.981 84.0663C381.953 85.8577 385.326 86.1633 389.166 85.6115C396.096 84.6182 402.835 82.4659 409.437 80.7552C413.146 79.7873 416.638 79.7789 420.425 79.2228C424.119 78.6836 427.627 78.8789 431.203 78.3738C433.054 78.1106 434.086 78.5393 435.896 78.6582C437.778 78.7339 439.663 78.6928 441.541 78.5351C445.003 78.2824 448.481 78.5811 451.867 79.4223" stroke="#0C6F78" stroke-width="0.55057" stroke-miterlimit="10"/>
<path d="M233.051 133.427L232.684 133.262" stroke="#0C6F78" stroke-width="0.55057" stroke-miterlimit="10"/>
<path d="M317.599 166.712C313.216 165.014 310.061 162.005 305.361 160.672C300.304 159.241 295.256 158.974 291.267 156.253C287.664 153.795 283.181 152.339 279.884 149.562C276.385 146.621 274.499 143.819 268.885 142.346C264.127 141.094 258.941 140.767 254.24 139.404C249.853 138.088 245.632 136.165 241.676 133.682C237.763 131.279 234.428 128.647 230.041 126.593C225.873 124.636 221.497 122.827 218.392 120.081C215.286 117.334 213.312 114.138 211.381 110.967C209.45 107.796 206.631 104.761 204.99 101.492C201.548 94.6108 202.427 88.2094 205.61 81.3834C207.139 78.0681 208.669 74.9098 209.618 71.484C210 70.0577 210.061 67.9267 211.377 66.7127C212.693 65.4986 215.909 64.8364 217.902 64.1657C227.647 60.9267 237.255 59.5853 247.96 61.3682C257.935 63.0238 269.24 65.4434 276.11 58.7448C277.541 57.3573 278.89 55.8685 280.148 54.2875C281.296 52.8273 283.17 51.4986 283.323 49.8091C283.476 48.1195 282.416 46.3833 282.107 44.6938C281.797 43.0043 282.133 41.3445 282.619 39.706C283.178 37.8254 284.271 37.2269 286.49 36.1104C289.549 38.8187 290.747 42.0874 289.932 45.407C289.549 47.0116 288.402 48.7351 288.207 50.3142C288.039 51.7575 289.66 53.4767 290.096 54.954C291.14 58.5156 291.075 61.1432 289.423 64.6538C287.947 67.7867 285.862 70.8388 284.635 74.0183C282.225 80.2585 283.533 87.3307 283.575 93.7279C283.617 100.265 284.157 106.824 284.317 113.37C284.401 116.676 283.885 119.949 283.897 123.248C283.897 126.397 283.422 130.04 284.432 133.13C285.579 136.7 289.928 138.322 294.162 140.228C298.3 142.087 302.213 144.142 307.25 144.816C311.809 145.424 317.733 144.74 321.707 143.118C326.105 141.336 327.138 137.749 327.888 134.607C328.679 131.271 328.756 128.1 330.817 124.958C332.795 121.944 335.602 119.177 338.467 116.49C341.331 113.802 344.066 111.039 346.881 108.322C349.696 105.605 353.073 103.16 355.911 100.448C358.588 97.9007 360.745 94.3264 364.758 92.552C369.026 90.663 374.755 92.7643 378.825 94.0165C383.215 95.3707 388.853 94.5769 393.546 94.3264C398.512 93.9871 403.492 93.9517 408.462 94.2203C413.434 94.5599 418.353 94.8486 423.164 95.8079C427.241 96.6187 431.723 99.6284 434.45 101.751C441.289 107.117 437.235 114.749 433.445 120.429C431.173 123.837 428.161 126.552 424.69 128.32C420.399 130.498 418.54 133.274 419.018 136.917C419.542 140.928 422.843 142.384 427.933 143.993C432.393 145.398 436.799 147.444 437.828 150.891C438.715 153.863 436.558 157.776 432.473 159.381C427.26 161.448 423.084 159.636 419.056 157.467C415.029 155.297 410.642 154.071 406.435 152.254C402.274 150.467 399.004 147.801 396.108 145.177C393.213 142.554 390.54 139.693 386.692 137.536C381.72 134.76 378.255 138.071 373.849 139.727C369.217 141.467 367.297 144.396 364.474 147.202C361.456 150.221 357.974 152.613 354.194 154.266C349.987 156.168 346.162 157.997 342.643 160.476C339.236 162.887 336.252 165.57 331.552 166.98C327.073 168.313 321.849 168.402 317.603 166.678" stroke="#0C6F78" stroke-width="0.55057" stroke-miterlimit="10"/>
<path d="M257.2 136.925C247.845 134.153 242.066 129.144 235.296 124.33C231.961 121.961 227.723 120.319 224.323 117.997C221.273 115.888 218.624 113.138 216.525 109.901C212.566 104.001 208.321 97.9729 209.518 91.3464C210.733 84.5712 213.378 78.2123 217.236 72.7915C221.566 66.8188 232.317 64.3015 241.825 64.5732C246.682 64.709 251.455 65.4562 256.209 66.0717C261.025 66.6957 266.127 66.8782 270.862 67.6805C276.545 68.6399 277.425 71.8152 277.853 75.2324C278.21 78.4361 278.418 81.6581 278.477 84.8855C278.679 91.3931 278.771 97.8625 279.284 104.366C279.796 110.869 280.228 117.182 279.157 123.642C278.637 126.775 278.01 130.137 276.098 133.058C273.921 136.394 269.496 137.443 264.31 137.651C261.862 137.753 259.441 137.651 257.188 136.938" stroke="#0C6F78" stroke-width="0.55057" stroke-miterlimit="10"/>
<path d="M257.59 133.198C249.536 131.475 243.726 126.406 238.735 122.161C233.46 117.699 226.087 115.051 221.944 109.91C218.047 105.075 215.205 99.5988 215.381 94.0633C215.557 88.5278 218.104 82.7419 221.501 77.754C225.058 72.5071 231.54 68.6951 240.498 68.415C248.193 68.173 258.214 68.8862 265.167 71.2209C273.394 73.9844 273.329 80.891 273.363 86.2228C273.405 91.8729 273.39 97.4508 274.22 103.084C275.023 108.543 276.366 114.045 275.421 119.529C274.549 124.593 272.33 131.708 263.786 133.436C261.736 133.855 259.629 133.775 257.609 133.202" stroke="#0C6F78" stroke-width="0.55057" stroke-miterlimit="10"/>
<path d="M249.168 125.752C243.813 122.445 240.299 118.196 234.604 115.106C228.909 112.015 225.099 107.889 222.747 103.266C220.452 98.737 220.77 93.6939 222.537 89.1178C224.243 84.686 226.851 79.5835 231.334 76.0347C236.57 71.8746 243.733 72.2991 251.298 72.5877C254.683 72.7151 258.764 72.7193 261.678 74.0013C264.971 75.4531 266.421 77.6308 267.232 80.0759C268.762 84.7454 267.477 89.7163 267.614 94.458C267.752 99.1997 269.121 103.929 270.345 108.658C271.569 113.386 272.46 118.311 269.867 122.9C267.033 127.913 260.998 131.05 253.356 127.904C251.92 127.305 250.527 126.589 249.187 125.761" stroke="#0C6F78" stroke-width="0.55057" stroke-miterlimit="10"/>
<path d="M249.991 122.029C246.189 118.901 242.884 115.517 238.379 112.796C233.873 110.075 230.397 107.634 228.213 103.755C223.929 96.1517 229.544 87.7678 236.218 81.5829C239.981 78.0977 245.894 77.4313 252.041 77.2869C259.95 77.1044 261.625 80.2117 261.22 84.9279C260.876 88.8631 260.179 92.8024 260.814 96.7375C261.507 100.724 262.777 104.56 264.574 108.097C266.59 112.202 268.682 116.956 265.897 121.112C265.039 122.366 263.936 123.389 262.672 124.104C261.408 124.819 260.015 125.208 258.596 125.243C255.353 125.268 252.136 123.443 249.998 122.025" stroke="#0C6F78" stroke-width="0.55057" stroke-miterlimit="10"/>
<path d="M252.01 118.307C250.851 115.63 249.191 113.258 247.142 111.349C244.767 109.226 241.604 108.326 238.594 106.747C231.816 103.194 231.113 97.9432 236.643 93.5878C238.884 91.8134 242.762 89.7928 246.335 91.1257C249.322 92.2422 250.347 95.7231 251.077 97.7692C252.882 102.816 253.72 107.405 258.929 111.506C261.461 113.497 264.031 116.74 261.832 119.245C258.998 122.484 254.764 120.518 252.01 118.323" stroke="#0C6F78" stroke-width="0.55057" stroke-miterlimit="10"/>
<path d="M450.892 160.171C446.004 163.516 437.506 167.073 430.239 165.723C422.972 164.373 416.891 160.247 410.297 157.857C403.279 155.31 397.561 152.924 392.635 148.637C390.34 146.642 388.566 144.392 386.064 142.516C382.374 139.722 380.09 141.098 376.208 142.843C374.564 143.581 373.015 143.887 372.154 145.114C371.355 146.256 371.202 147.661 370.54 148.849C369.148 151.35 367.155 153.481 364.103 155.246C358.336 158.575 350.927 160.115 345.362 163.736C339.797 167.357 334.535 171.293 326.193 171.462C322.443 171.501 318.712 170.86 315.148 169.565C311.667 168.338 309.07 166.453 305.001 166.097C300.931 165.74 296.644 166.653 292.704 167.311C290.67 167.655 287.908 168.372 285.881 167.676C283.969 167.018 283.563 165.388 282.844 164.165C279.685 158.749 276.541 152.806 269.779 148.909C266.372 146.939 262.13 146.149 258.325 144.642C254.098 142.966 249.857 141.31 245.661 139.604C242.946 138.5 240.739 137.778 238.348 136.343C235.752 134.757 233.07 133.351 230.317 132.132C225.299 129.95 219.462 128.681 214.731 126.189C209.686 123.536 207.682 117.823 205.399 113.972C200.584 105.864 193.049 96.3555 195.837 87.4113C197.229 82.954 199.635 78.7133 201.303 74.307C202.913 70.062 202.278 64.4373 208.627 61.7885C214.219 59.4495 221.78 58.0571 228.037 56.6944C235.335 55.0983 241.236 55.5653 248.308 57.4076C254.584 59.0419 261.816 61.7545 267.94 58.4519C270.126 57.3211 272.052 55.6536 273.573 53.5754C275.094 51.4972 276.169 49.0626 276.717 46.4555C277.62 41.9218 277.945 37.1717 280.182 32.8121C281.093 31.0334 283.139 27.5865 286.715 28.6647C287.975 29.0589 289.145 29.7462 290.147 30.6808C291.15 31.6154 291.961 32.776 292.529 34.0856C294.477 38.3994 295.511 43.1501 295.554 47.9752C295.527 52.5301 296.38 57.1572 295.714 61.6951C295.03 66.3136 293.079 70.635 290.765 74.9904C288.329 79.575 289.442 83.9728 289.297 88.6975C289.151 93.227 289.541 97.7606 289.339 102.282C289.132 106.951 288.956 111.65 289.308 116.345C289.484 118.604 288.497 120.883 289.163 123.103C289.828 125.323 290.693 127.743 292.05 129.759C294.601 133.58 301.455 137.256 307.552 138.39C309.649 138.778 311.798 138.652 313.847 138.02C316.907 137.074 317.744 134.773 318.854 132.897C320.471 130.177 322.261 127.588 324.208 125.149C332.504 114.707 345.496 106.391 354.041 96.0711C356.102 93.5751 357.804 90.3404 361.334 88.5702C365.048 86.7024 370.158 86.9104 374.277 88.0226C376.415 88.5999 378.036 89.4447 379.976 90.2172C382.14 91.0662 384.091 90.9474 386.508 90.7351C390.937 90.3404 395.305 89.7758 399.711 89.2621C404.117 88.7485 408.584 88.6551 413.017 88.2943C417.377 87.9462 421.993 87.4453 426.304 88.1499C428.759 88.5532 431.421 88.8079 433.505 89.8055C435.487 90.7564 436.863 92.1954 438.86 93.1039C440.964 94.0547 443.495 94.6023 445.66 95.4938C447.997 96.4574 448.842 98.1045 451.902 98.1766" stroke="#0C6F78" stroke-width="0.55057" stroke-miterlimit="10"/>
</g>
</g>
<defs>
<clipPath id="clip0_2501_4774">
<rect width="543.963" height="352.365" fill="white" transform="translate(-93.5967 -24.2251)"/>
</clipPath>
</defs>
</svg>
