<svg width="391" height="228" viewBox="0 0 391 228" fill="none" xmlns="http://www.w3.org/2000/svg">
<g clip-path="url(#clip0_2643_3521)">
<path d="M371.833 -7.91313C371.589 -6.46728 372.33 -5.37733 372.447 -3.98708C372.56 -2.64967 372.569 -1.50689 373.046 -0.208406C373.494 1.03588 374.196 2.17303 375.107 3.13051C376.018 4.08798 377.118 4.84476 378.337 5.35257C380.76 6.3897 383.231 6.97638 385.571 8.23594C388.249 9.67901 390.376 9.51497 393.273 8.72253" stroke="#D0D0CE" stroke-width="0.75" stroke-miterlimit="10"/>
<path d="M349.404 -7.91309C349.66 -3.09451 354.895 0.428353 353.449 5.57781C352.108 10.3602 353.407 15.5069 358.212 17.8648C360.53 19.0048 362.97 17.2225 364.932 16.1325C367.011 14.9786 369.39 14.0583 371.786 14.0611C373.956 14.0611 376.946 14.1917 378.861 15.3123C380.66 16.3661 381.118 18.4014 382.017 20.1114C384.429 24.6964 386.916 26.6789 391.666 28.1748" stroke="#D0D0CE" stroke-width="0.75" stroke-miterlimit="10"/>
<path d="M368.236 55.393C372.832 58.7074 377.829 55.671 380.915 51.8701C382.426 50.0258 383.81 48.0805 385.057 46.0478C385.704 44.9718 386.423 43.943 387.05 42.8641C387.677 41.7853 387.949 40.5841 388.563 39.5498C389.54 37.9093 392.099 35.0593 390.345 32.9879C389.171 31.5976 386.936 32.1954 385.529 32.846C383.122 33.9582 381.845 36.5163 379.58 37.7842C377.637 38.8714 375.361 38.774 373.265 39.6582C370.334 40.89 368.491 42.3776 367.916 45.6752C367.458 48.2833 366.356 53.1825 368.236 55.393" stroke="#D0D0CE" stroke-width="0.75" stroke-miterlimit="10"/>
<path d="M303.968 -7.9131C304.914 -5.38563 306.541 -3.18627 308.32 -1.1732C310.033 0.75924 311.929 3.13377 314.78 2.90577C317.12 2.7167 319.862 0.289337 321.836 -0.878468C324.126 -2.22978 326.416 -3.55051 328.82 -4.68217C331.223 -5.81383 334.157 -6.93716 336.622 -5.21604C337.774 -4.4097 338.288 -2.99164 339.121 -1.90168C339.953 -0.811734 340.733 0.200357 341.538 1.25416C343.193 3.34006 344.3 5.8069 344.761 8.4306C345.219 11.111 345.716 13.7135 347.14 16.0853C348.489 18.3236 350.668 20.2755 352.666 21.9243C354.665 23.5731 356.708 25.4361 359.051 26.6734C360.222 27.2982 361.438 27.8335 362.69 28.2749C364.019 28.7309 365.341 28.831 366.415 29.832C368.605 31.8618 368.358 34.798 366.579 36.9945C364.855 39.1216 363.006 40.9095 361.485 43.2173C360.002 45.4299 358.814 47.8276 357.952 50.3492C357.078 52.9275 356.361 55.5561 355.803 58.2208C355.201 61.2793 356.342 63.4509 359.273 64.6632C364.164 66.6846 370.007 64.0515 374.731 62.386C377.213 61.5129 379.625 60.27 382.023 59.194C384.491 58.0818 387.147 57.6202 389.676 56.6915C390.922 56.2221 392.128 55.655 393.285 54.9954" stroke="#D0D0CE" stroke-width="0.75" stroke-miterlimit="10"/>
<path d="M293.966 -7.91309C294.557 -5.29665 294.746 -2.38826 295.567 0.150322C296.1 1.79359 297.186 2.15504 298.712 2.67777C300.059 3.13933 300.966 4.08192 302.099 4.93831C306.446 8.31543 311.642 10.4194 317.11 11.0164C319.695 11.314 322.831 10.9414 325.205 12.1092C327.775 13.3743 328.955 16.0269 329.982 18.5488C330.551 19.939 331.353 20.8371 332.222 22.0439C333.288 23.5259 333.715 24.5074 335.731 24.2071C338.57 23.7844 341.099 23.5036 343.839 24.5602C346.394 25.4891 348.698 27.0019 350.567 28.9784C352.294 30.8246 354.453 33.5189 354.845 36.0797C355.239 38.7462 354.012 41.7214 353.457 44.3044C352.874 46.9431 352.563 49.6986 351.561 52.2177C350.533 54.7651 348.942 57.0465 346.909 58.8908C345.193 60.4952 342.168 62.6723 342.101 65.2665C341.946 71.3474 353.482 68.8394 356.857 68.9451C359.633 69.0313 362.223 69.1036 364.962 68.6253C367.63 68.1582 370.217 67.274 372.882 66.7819C378.317 65.7781 383.724 64.538 389.259 64.3851C390.603 64.3489 391.943 64.2516 393.284 64.1599" stroke="#D0D0CE" stroke-width="0.75" stroke-miterlimit="10"/>
<path d="M285.561 -7.91312C287.562 -5.24107 287.898 -2.90824 287.359 0.306004C286.835 3.44517 287.193 5.98376 289.119 8.57796C293.005 13.8025 299.137 14.1862 304.977 15.4958C310.465 16.7248 316.552 18.7879 319.881 23.6204C321.688 26.2424 322.751 28.8533 325.565 30.5716C328.078 32.1083 330.786 33.2997 333.615 34.1139C336.472 34.9481 339.231 35.2567 341.665 37.1475C344.016 38.9715 345.243 41.6546 346.04 44.4713C346.764 47.0404 347.83 51.0916 345.762 53.1575C343.694 55.2234 341.443 57.0335 339.378 59.0521C337.451 60.9206 335.075 63.1784 334.356 65.8449C333.524 68.9034 335.297 71.4058 337.89 72.8517C343.358 75.9102 349.271 73.4078 355.019 72.8072C357.912 72.5014 360.801 72.6209 363.674 72.1232C366.384 71.6533 369.254 70.3715 372.002 70.3826C374.875 70.3826 377.775 70.7636 380.668 70.7858C383.561 70.8275 386.44 71.2007 389.248 71.898C390.64 72.215 391.998 72.6657 393.303 73.2438" stroke="#D0D0CE" stroke-width="0.75" stroke-miterlimit="10"/>
<path d="M263.355 -7.91312C262.522 -6.25873 262.502 -3.7563 262.836 -1.93786C263.257 0.358825 265.139 0.992778 267.224 1.20966C270.763 1.57946 275.354 1.15959 277.772 4.37662C280.07 7.43515 281.658 11.0136 283.962 14.1083C285.12 15.6626 286.183 17.2531 287.213 18.888C288.242 20.5229 288.548 22.5471 289.547 24.0625C290.849 26.0366 293.516 24.6436 295.157 23.8901C296.942 23.0559 298.821 22.3219 300.783 22.0744C304.561 21.599 308.353 23.156 311.64 24.8799C313.341 25.7725 315.062 26.5482 316.189 28.1442C317.316 29.7402 318.357 31.3835 319.676 32.8349C322.252 35.671 325.621 37.7758 328.93 39.6415C332.158 41.46 335.842 43.2562 337.691 46.6595C339.911 50.7524 337.463 53.8749 334.298 56.4385C331.362 58.8186 328.039 60.7399 325.033 63.0393C323.39 64.2961 322.851 66.0979 321.88 67.8691C320.939 69.5707 319.978 71.1028 318.612 72.4902C317.411 73.7136 315.587 75.4932 315.387 77.2893C315.154 79.3831 317.23 80.8873 319.134 80.8901C321.039 80.8929 322.954 80.0337 324.797 79.675C326.768 79.2885 328.517 79.105 330.512 79.4248C334.193 80.0087 338.065 80.9401 341.813 80.6259C345.56 80.3117 349.074 77.9428 352.683 76.8973C356.591 75.7656 360.177 76.6776 364.124 76.2967C366.281 76.0854 367.858 75.2985 370.037 75.9686C371.922 76.5497 373.876 77.0641 375.866 76.9946C379.655 76.8611 383.686 75.9797 387.247 77.7759C391.075 79.7084 392.521 83.0005 391.899 87.1462C391.588 89.1982 391.98 90.7358 393.287 92.3624" stroke="#D0D0CE" stroke-width="0.75" stroke-miterlimit="10"/>
<path d="M253.773 -7.9131C253.098 -3.4393 253.898 2.73895 256.407 6.54543C259.521 11.2723 264.421 11.4502 269.273 13.2186C271.613 14.0722 273.622 15.3012 275.657 16.722C277.645 18.1123 279.932 19.5553 281.486 21.421C283.041 23.2868 283.835 25.6891 285.436 27.5576C287.005 29.3844 289.342 30.9804 291.721 31.4503C294.291 31.9702 296.556 31.4169 299.071 30.9887C301.672 30.5438 303.79 30.5271 306.188 31.7839C310.568 34.0917 314.324 37.5506 318.124 40.6815C321.177 43.1839 327.839 47.616 325.952 52.2928C325.047 54.545 322.857 56.369 321.252 58.1318C319.613 59.9418 318.076 61.843 316.65 63.8262C310.904 71.7256 303.69 79.397 294.444 83.0116C289.955 84.7745 284.356 85.1109 280.565 88.1472C275.568 92.1483 287.801 94.8426 290.169 95.3208C294.985 96.294 300.073 97.2338 304.961 96.3441C307.301 95.9187 309.716 94.9955 311.901 94.0529C314.227 93.0464 315.873 91.3725 318.041 90.1352C326.923 85.0664 337.688 88.1889 347.087 84.5326C349.505 83.5955 351.464 82.2748 353.552 80.7733C354.612 80.0087 355.459 79.3831 356.755 79.7807C357.979 80.1422 359.203 80.6343 360.086 81.5964C361.704 83.3759 362.359 86.1842 364.563 87.4576C366.448 88.5448 369.901 87.0711 371.875 86.5262C374.228 85.8828 376.519 85.0285 378.72 83.9737C381.16 82.7947 383.231 81.7493 385.782 83.0339C388.48 84.3963 387.117 87.0684 386.922 89.5096C386.753 92.0358 387.346 94.5547 388.624 96.7389C389.898 98.8771 391.772 100.39 393.293 102.325" stroke="#D0D0CE" stroke-width="0.75" stroke-miterlimit="10"/>
<path d="M246.017 -7.91314C246.658 -4.72392 248.071 -1.75158 248.62 1.49047C248.898 3.15876 248.717 4.84652 249.07 6.49534C249.398 8.0552 250.064 9.55387 250.672 11.0164C251.968 14.1556 253.386 16.9917 256.459 18.71C259.335 20.3171 262.497 21.0401 265.6 22.0466C268.757 23.0706 271.732 24.5911 274.413 26.551C277.006 28.4501 279.057 30.9386 281.325 33.188C285.808 37.6368 291.318 42.0466 297.469 43.8512C302.26 45.2748 313.108 45.0663 314.707 51.1833C315.539 54.3503 312.236 57.5228 310.657 59.9502C309.799 61.2682 309.483 63.0365 308.558 64.2544C307.634 65.4723 305.866 66.1813 304.672 67.071C299.326 71.0833 294.588 75.0399 288.195 77.3366C282.023 79.561 275.843 81.764 269.653 83.9458C266.56 85.033 263.629 86.6484 260.473 87.4659C257.317 88.2834 254.053 89.0925 250.785 89.0953C249.12 89.0953 247.557 88.3696 245.875 88.4168C244.273 88.4613 242.719 89.0119 241.226 89.529C238.053 90.6635 235.022 91.1111 231.73 91.6589C228.796 92.1482 225.068 93.5607 223.075 95.8546C222.05 97.0363 221.084 98.6184 221.737 100.201C222.442 101.911 223.816 102.861 225.556 102.589C228.84 102.075 231.616 100.415 234.569 98.9743C237.623 97.4979 240.723 97.1559 244.068 97.3061C250.566 97.5841 257.067 97.9428 263.56 98.396C266.782 98.6184 270.099 98.713 273.275 99.308C276.451 99.903 279.551 101.018 282.771 101.555C289.258 102.633 295.634 102.989 302.185 103.345C303.978 103.443 305.438 103.554 307.14 102.873C308.633 102.272 309.968 101.396 311.378 100.634C314.299 99.055 317.235 97.7481 319.9 95.7295C322.754 93.5719 325.335 92.493 328.919 93.266C330.584 93.6219 332.105 94.178 333.818 93.9C335.445 93.5884 337.046 93.1562 338.609 92.607C341.642 91.5827 344.788 90.9292 347.977 90.6607C351.564 90.3826 354.323 91.1612 357.623 92.443C360.649 93.6163 363.88 93.7554 367.061 93.2187C370.162 92.6932 373.837 91.7923 376.946 92.6932C380.174 93.6247 381.973 96.7027 382.811 99.7473C383.608 102.642 383.272 106.957 385.537 109.17C387.713 111.297 390.672 113.041 393.256 114.623" stroke="#D0D0CE" stroke-width="0.75" stroke-miterlimit="10"/>
<path d="M179.717 -0.47259C180.128 -0.567823 180.51 -0.763651 180.827 -1.04259C183.392 -3.20025 179.942 -8.49431 177.46 -5.45523C177.296 -5.25388 177.147 -5.04007 177.016 -4.81572C175.792 -2.74147 177.666 -0.0388325 179.717 -0.47259Z" stroke="#D0D0CE" stroke-width="0.75" stroke-miterlimit="10"/>
<path d="M131.94 -7.91308C132.609 -5.17987 131.033 -0.450273 129.645 1.85475C127.163 5.98376 124.34 3.1143 124.054 -0.808959C123.988 -1.71818 123.416 -2.55232 122.93 -3.29471C121.85 -4.963 120.912 -6.63129 120.912 -8.64992" stroke="#D0D0CE" stroke-width="0.75" stroke-miterlimit="10"/>
<path d="M167.262 -7.91306C167.167 -6.27814 168.211 -4.94074 168.927 -3.54216C169.643 -2.14358 170.21 -0.644901 171.031 0.714752C172.591 3.29781 175.051 5.96707 178.051 6.8318C180.855 7.63258 184.883 6.61215 187.084 4.73811C189.496 2.68612 190.823 -0.411344 193.413 -2.32987C194.853 -3.39758 196.58 -3.96201 198.051 -4.95464C198.859 -5.51074 199.564 -5.66088 200.374 -6.06683C201.238 -6.50893 201.282 -6.91766 200.799 -7.89082" stroke="#D0D0CE" stroke-width="0.75" stroke-miterlimit="10"/>
<path d="M234.558 -7.91308C235.133 -6.26147 237.204 -5.33002 238.581 -4.36519C240.015 -3.35195 241.252 -2.08564 242.233 -0.628218C244.26 2.35246 243.938 6.02827 244.177 9.46773C244.415 12.8488 244.407 16.4885 245.495 19.7305C246.669 23.2339 249.248 25.3749 252.485 26.9348C255.621 28.4446 258.963 29.2731 262.2 30.5021C265.429 31.7378 268.504 33.3475 271.36 35.2985C277.006 39.13 282.163 44.2989 284.978 50.5911C285.716 52.24 286.446 53.5579 288.001 54.5506C289.469 55.4904 291.082 56.2828 292.442 57.3616C295.376 59.6722 296.328 63.2868 294.047 66.4538C292.004 69.2816 288.409 70.6245 285.303 71.8924C282.036 73.2382 278.774 74.5895 275.482 75.8741C262.469 80.9568 248.793 82.4083 235.036 84.096C231.66 84.5103 228.31 84.9997 224.943 85.4334C223.192 85.6614 221.529 86.2064 219.844 86.7152C218.242 87.1963 216.219 87.313 214.847 88.3196C212.302 90.1936 210.245 93.7221 208.813 96.4831C207.064 99.8614 206.553 103.304 209.521 106.015C212.005 108.281 214.614 110.566 216.893 113.044C218.792 115.107 222.198 119.881 225.39 118.327C228.582 116.772 231.247 114.339 234.467 112.835C237.542 111.375 240.84 110.444 244.224 110.08C247.707 109.715 251.244 109.871 254.738 109.688C258.133 109.512 261.5 109.07 264.859 108.575C268.334 108.055 271.799 107.408 275.318 107.644C278.705 107.872 282.047 108.567 285.425 108.906C288.939 109.257 292.417 108.929 295.92 108.573C299.282 108.228 302.727 108.233 306.063 107.675C307.802 107.422 309.504 106.955 311.129 106.284C312.75 105.575 314.052 104.338 315.662 103.64C317.2 102.981 318.993 102.806 320.611 102.386C322.229 101.966 323.942 101.09 325.624 100.882C327.342 100.668 329.099 101.085 330.826 101.024C332.615 100.964 334.386 100.641 336.081 100.064C339.412 98.9021 342.032 96.6388 345.71 96.5081C349.81 96.3663 351.558 99.1385 353.896 101.938C355.092 103.37 356.555 104.366 358.504 103.835C360.077 103.406 361.393 101.941 362.792 101.115C365.54 99.4916 369.26 97.573 372.507 98.3544C376.802 99.3804 376.069 103.359 376.035 106.86C376.002 110.675 378.065 113.208 380.879 115.532C383.694 117.857 385.981 119.945 387.408 123.362C388.044 124.88 388.649 126.421 389.24 127.958C389.49 128.614 389.709 129.905 390.42 130.233C391.13 130.561 392.574 129.888 393.262 129.696" stroke="#D0D0CE" stroke-width="0.75" stroke-miterlimit="10"/>
<path d="M110.319 -7.9131C109.942 -6.1614 110.597 -4.52647 111.582 -3.10008C112.043 -2.44389 112.62 -1.9434 113.137 -1.3456C113.811 -0.569846 113.85 0.0919042 114.314 0.942732C115.008 2.21897 116.645 3.56195 117.694 4.62965C118.875 5.82567 120.254 6.80697 121.769 7.5297C124.623 8.91994 128.337 9.54832 131.318 8.21647C134.58 6.75949 136.315 3.97902 137.653 0.773127C138.342 -0.968134 139.403 -2.53762 140.761 -3.8258C142.185 -5.15766 143.954 -6.02795 144.742 -7.91033" stroke="#D0D0CE" stroke-width="0.75" stroke-miterlimit="10"/>
<path d="M157.041 -7.91302C158.579 -7.32912 160.164 -5.30215 161.33 -4.10932C162.557 -2.82224 163.682 -1.44075 164.694 0.0224814C166.745 2.91975 168.874 5.76975 171.103 8.528C173.699 11.7339 176.275 13.7942 180.585 12.9768C184.088 12.2842 187.374 10.7648 190.173 8.54468C192.774 6.45931 194.373 2.03833 198.053 1.81033C199.813 1.70189 201.629 2.3136 203.28 2.85301C204.349 3.20336 205.024 3.61487 206.076 3.03097C206.95 2.54717 207.669 1.64073 208.402 0.96507C211.044 -1.44005 214.27 -3.3002 217.97 -2.89425C222.067 -2.44103 223.763 0.381167 226.258 3.22282C227.596 4.74097 229.662 5.77809 231.657 4.99678C233.231 4.38229 234.73 2.33862 236.376 2.0856C238.597 1.75194 239.405 4.63809 239.116 6.21185C238.794 7.95799 238.314 9.67632 237.956 11.4141C237.239 14.8981 236.718 18.4849 237.772 21.9577C238.802 25.3444 241.151 28.6309 243.76 31.0054C249.364 36.0798 256.548 36.6693 263.085 39.8502C269.405 42.9282 275.393 47.427 278.957 53.5802C280.456 56.1661 283.601 60.3424 282.549 63.4871C281.541 66.4956 277.275 68.9758 274.632 70.3855C268.112 73.8527 261.097 74.8343 254.014 76.5025C247.044 78.143 239.999 79.2302 232.967 80.5676C229.423 81.2433 225.853 81.6464 222.289 82.1859C218.85 82.7086 215.133 83.198 212.041 84.8913C209.176 86.4595 206.253 89.7543 204.282 92.3374C202.062 95.2569 201.731 99.0245 202.595 102.503C204.352 109.59 210.978 114.022 213.82 120.601C214.483 122.244 215.383 123.779 216.493 125.158C218.12 127.144 219.183 127.419 221.626 126.471C224.957 125.175 228.41 124.107 231.674 122.606C235.074 121.04 237.911 119.386 241.667 118.713C245.248 118.076 248.631 117.968 252.251 117.832C259.501 117.554 266.438 115.468 273.552 114.412C277.228 113.856 280.517 114.445 284.031 115.524C286.057 116.152 287.62 116.286 289.649 115.56C291.37 114.943 293.055 114.281 294.807 113.75C301.569 111.704 308.913 111.592 315.925 111.834C319.772 111.965 323.037 112.087 326.665 110.611C329.973 109.265 332.927 107.302 336.052 105.606C337.526 104.808 339.161 104.369 340.705 103.726C343.394 102.614 345.371 100.39 347.6 103.662C348.524 105.022 348.432 106.621 349.651 107.914C351.014 109.376 353.26 110.202 355.119 110.778C359.533 112.151 364.107 110.986 367.816 114.409C369.409 115.877 370.489 117.823 371.866 119.469C372.56 120.304 373.295 121.355 374.128 122.044C375.311 123.023 376.107 123.268 376.329 124.936C376.626 127.16 376.218 129.44 376.56 131.676C376.901 133.911 378.272 135.849 379.938 137.379C381.77 139.066 384.035 140.209 385.956 141.799C388.135 143.601 390.433 144.688 393.281 144.597" stroke="#D0D0CE" stroke-width="0.75" stroke-miterlimit="10"/>
<path d="M249.179 72.5542L249.123 72.5709" stroke="#D0D0CE" stroke-width="0.75" stroke-miterlimit="10"/>
<path d="M393.262 155.605C392.151 155.21 390.764 155.001 389.853 154.276C389.001 153.6 388.221 152.529 387.485 151.726C385.845 149.93 384.768 147.032 382.594 145.917C380.335 144.763 377.875 144.093 375.699 142.773C371 139.937 368.699 135.716 366.936 130.705C366.103 128.334 365.19 125.876 363.391 124.049C361.593 122.222 358.858 121.521 356.477 120.896C353.873 120.212 351.53 121.138 348.954 120.896C346.378 120.654 345.346 118.354 343.403 116.931C338.962 113.664 333.546 114.965 329.801 118.724C328.058 120.473 326.47 122.714 323.756 122.528C321.171 122.35 318.865 121.077 316.553 120.025C311.731 117.84 307.714 115.354 302.182 116.305C299.617 116.747 297.186 117.417 294.876 118.594C292.567 119.77 290.468 120.99 287.915 121.516C285.203 122.072 283.004 120.835 280.478 120.101C279.304 119.761 277.98 119.328 276.773 119.522C275.565 119.717 274.294 120.117 273.086 120.409C268.09 121.627 263.129 122.258 258.039 122.964C252.948 123.671 247.971 124.727 243.091 126.418C238.211 128.108 233.545 129.14 228.524 130.144C226.153 130.619 224.343 132.743 222.061 133.705C219.641 134.726 217.046 134.754 214.506 134.192C212.199 133.683 209.357 132.721 207.811 130.83C206.178 128.834 206.659 125.878 206.758 123.482C206.811 122.214 206.942 120.851 206.661 119.603C206.381 118.354 205.57 117.281 204.976 116.202C203.755 113.978 202.37 111.87 201.143 109.66C198.711 105.281 196.183 100.531 195.869 95.4265C195.467 88.9925 201.121 87.9748 205.479 85.0859C207.636 83.6567 209.623 82.1163 212.074 81.1932C214.447 80.3213 216.889 79.6535 219.374 79.1968C224.371 78.2153 229.367 78.1235 234.281 76.5025C239.194 74.8815 244.218 74.128 249.12 72.582C253.284 71.2668 257.547 70.2548 261.733 68.9896C263.901 68.3307 266.052 67.5994 268.148 66.7402C269.147 66.3259 270.149 65.9061 271.11 65.3889C273.578 64.096 274.258 61.4629 273.436 58.8993C272.145 54.8787 268.584 52.5041 265.364 50.1212C262.061 47.68 258.441 45.4306 254.205 45.2749C252.206 45.2528 250.21 45.4505 248.254 45.8643C247.302 46.0478 246.708 46.4204 245.756 46.0228C244.998 45.7114 244.157 45.033 243.493 44.5464C242.061 43.4981 240.74 41.6018 239.677 40.156C238.489 38.535 237.339 36.8194 236.262 35.1344C234.042 31.6616 231.655 28.275 229.556 24.741C228.479 23.0212 227.941 21.0172 228.013 18.9881C228.029 16.9222 228.063 14.962 227.363 12.9906C226.628 10.9192 225.437 9.63457 224.052 7.98574C222.63 6.29521 221.373 4.64915 219.472 3.44798C215.458 0.923301 212.843 3.89563 209.434 6.01159C205.826 8.23598 201.582 6.88467 197.834 8.90608C194.226 10.8524 191.117 13.6746 187.5 15.671C184 17.6007 180.105 18.8269 176.308 20.0197C171.783 21.4322 170.495 16.7053 168.583 13.5968C166.437 10.1184 164.328 6.60662 161.621 3.52306C158.915 0.439501 156.497 -2.25201 152.183 -2.71914C142.468 -3.77572 140.642 6.6956 134.418 11.5003C131.173 14.0027 126.552 13.3076 122.846 12.2594C118.591 11.0554 115.771 8.87272 112.365 6.19789C110.73 4.91052 109.136 5.0134 107.179 4.86048C105.27 4.71033 103.676 3.3312 102.308 2.05217C101.42 1.21803 101.525 0.889931 101.161 -0.205581C100.884 -1.01192 100.243 -1.57359 99.7208 -2.227C98.8354 -3.3392 96.3371 -5.56357 96.4149 -7.00943" stroke="#D0D0CE" stroke-width="0.75" stroke-miterlimit="10"/>
<path d="M86.4395 -0.811847C88.7878 0.0612267 90.717 2.35791 92.6184 3.91498C94.5198 5.47206 96.3629 7.46288 98.6946 8.39156C103.463 10.2934 108.615 10.894 113.34 13.0239C118.009 15.1089 122.958 16.4972 128.029 17.1445C130.664 17.4838 133.217 18.0037 135.71 16.8276C137.758 15.8572 139.318 12.8904 140.412 10.9385C142.741 6.76777 145.653 0.817511 151.404 1.40419C156.54 1.92971 159.859 7.4879 162.383 11.414C164.934 15.3761 167.274 21.407 171.912 23.3283C176.425 25.1996 182.69 22.7083 186.901 20.9399C191.62 18.9602 195.589 15.5513 200.297 13.5521C205.086 11.5168 210.112 11.2305 214.648 8.51114C215.839 7.79655 217.499 7.43787 218.337 8.78919C218.981 9.82909 219.17 11.3277 219.645 12.4789C220.601 14.8172 221.417 17.2109 222.087 19.647C223.453 24.6824 225.454 29.2452 227.689 33.9498C229.848 38.5015 230.875 43.84 233.843 47.9385C235.361 50.0405 237.143 52.1704 239.508 53.3548C241.807 54.5032 244.366 54.7173 246.886 54.8035C252.108 54.9787 257.307 53.9693 261.731 57.4978C264.146 59.4219 264.13 62.1412 261.176 63.4035C258.847 64.3989 256.096 64.1709 253.62 64.5157C251.081 64.8716 248.707 65.842 246.234 66.4843C243.716 67.1377 241.135 67.5965 238.695 68.5002C236.342 69.4119 234.056 70.4897 231.855 71.7255C229.449 73.0268 227.37 74.3892 224.594 74.4893C219.742 74.6617 214.273 76.4218 209.84 78.3598C207.55 79.3607 205.38 80.5981 203.104 81.6268C200.719 82.7029 198.149 83.259 195.609 83.8679C194.368 84.1654 193.177 84.6048 191.95 84.944C190.724 85.2832 189.338 85.3249 188.239 85.8782C185.66 87.1767 187.182 90.9053 187.903 93.0352C189.555 97.9094 192.206 102.367 194.815 106.765C197.23 110.839 200.597 115.991 199.881 120.946C199.134 126.106 194.16 129.649 190.166 132.421C189.086 133.166 187.853 133.625 186.835 134.456C185.816 135.287 184.892 136.197 183.914 137.039C181.971 138.707 180.028 140.345 178.008 141.908C176.37 143.187 173.419 147.155 177.305 147.666C178.61 147.841 179.845 147.002 181.089 146.757C182.438 146.479 183.695 146.74 185.033 146.893C187.742 147.202 189.81 145.272 191.986 143.915C194.189 142.557 196.627 141.627 199.173 141.174C204.258 140.29 209.385 140.618 214.518 140.696C224.88 140.882 234.864 138.852 243.941 133.789C248.416 131.286 253.076 128.801 258.181 127.95C263.236 127.116 268.432 126.576 273.534 126.09C278.636 125.603 283.682 126.726 288.781 125.709C293.881 124.691 298.355 121.897 303.302 120.404C306.355 119.48 308.201 121.516 310.533 123.245C312.518 124.765 314.658 126.07 316.917 127.138C322.116 129.493 326.746 127.997 331.243 124.958C333.552 123.398 335.515 121.363 338.438 122.664C340.88 123.754 342.737 125.514 345.341 126.401C349.924 127.961 356.675 125.845 359.034 131.423C359.52 132.568 359.481 133.925 359.215 135.112C358.906 136.503 357.929 137.32 357.458 138.582C356.625 140.829 359.7 143.309 360.949 144.977C364.022 149.112 367.922 152.44 371.75 155.877C373.56 157.501 375.323 159.158 377.118 160.793C378.984 162.497 381.249 163.623 382.687 165.764C383.397 166.821 383.866 167.75 384.813 168.631C385.76 169.513 386.789 170.344 387.722 171.25C388.574 172.084 389.207 173.197 390.09 173.967C391.02 174.776 392.31 175.115 393.271 175.913" stroke="#D0D0CE" stroke-width="0.75" stroke-miterlimit="10"/>
</g>
<defs>
<clipPath id="clip0_2643_3521">
<rect width="390" height="228" fill="white" transform="matrix(1 0 0 -1 0.367188 228)"/>
</clipPath>
</defs>
</svg>
