<svg width="297" height="186" viewBox="0 0 297 186" fill="none" xmlns="http://www.w3.org/2000/svg">
<g clip-path="url(#clip0_2501_5470)">
<g style="mix-blend-mode:multiply">
<path d="M217.725 340.971C210.17 314.993 234.377 330.489 244.016 318.574C249.763 309.845 255.167 300.725 261.228 292.142C265.37 284.076 264.704 277.202 275.707 283.035C285.302 288.503 296.595 286.657 305.763 281.224C308.874 279.6 311.985 278.203 314.051 275.28C319.513 266.084 327.886 259.242 337.281 254.33C369.479 237.49 351.578 225.958 330.17 211.699C324.962 206.948 323.833 199.242 318.469 194.481C316.278 192.257 312.949 189.009 312.585 185.734C312.843 176.289 323.957 179.657 329.744 181.392C333.335 182.091 336.525 182.424 340.165 181.837C359.039 177.833 363.195 179.079 380.607 186.442C387.718 188.502 394.29 186.838 401.463 187.536C405.396 187.919 408.272 189.356 412.245 188.132C415.676 187.074 419.244 186.135 422.862 186.264C436.528 188.453 454.793 185.881 452.073 167.765C451.509 164.028 452.22 161.225 454.62 158.262" stroke="#A25C28" stroke-width="0.55057" stroke-miterlimit="10"/>
<path d="M200.277 340.971C198.232 317.311 205.89 307.416 228.537 302.442C236.869 298.963 244.44 293.887 250.824 287.498C253.7 284.058 255.108 279.716 258.033 276.313C271.018 261.226 282.329 275.049 295.861 268.593C303.861 264.385 310.696 258.085 317.638 252.381C323.202 247.812 335.334 239.746 331.908 231.221C330.254 227.119 326.264 223.796 323.335 220.597C309.22 203.54 296.123 183.336 274.449 175.27C253.269 169.931 229.306 161.18 266.632 152.843C275.409 151.063 284.689 149.359 293.604 150.978C302.519 152.482 310.247 157.114 317.442 162.292C337.516 173.268 363.897 163.293 382.18 179.354C384.113 180.743 385.66 181.859 388.019 181.161C395.783 180.049 396.512 170.928 402.241 167.173C407.729 164.606 422.342 171.177 428.048 173.517C432.492 175.666 436.27 177.579 440.936 175.235C450.331 169.006 432.768 160.935 454.628 140.087" stroke="#A25C28" stroke-width="0.55057" stroke-miterlimit="10"/>
<path d="M186.135 340.971C187.304 335.156 189.882 329.746 190.886 323.837C191.162 313.102 195.379 298.295 205.174 292.44C215.84 287.022 228.368 285.914 237.905 278.146C242.629 274.684 246.371 270.137 250.504 266.053C275.898 236.783 304.483 250.682 311.389 233.295C312.905 227.511 306.887 221.727 304.007 217.318C302.443 214.916 301.865 211.695 300.181 209.475C288.208 200.741 277.2 190.958 263.072 185.637C246.14 179.773 229.297 173.379 212.529 167.182C203.614 164.464 195.068 163.511 185.918 165.451C177.149 164.085 169.074 160.241 160.142 159.516C152.747 158.182 140.036 153.288 141.921 143.945C146.458 134.028 158.662 143.54 165.319 146.169C181.118 152.691 201.272 147.175 218.169 147.228C230.168 147.228 241.634 144.238 253.206 141.471C265.032 139.504 276.658 138.855 288.604 138.21C291.87 138.032 294.532 137.827 297.63 139.068C305.518 143.202 313.58 146.965 320.9 152.082C330.997 160.313 335.614 155.512 346.267 155.419C360.466 159.151 375.443 165.006 389.673 158.053C401.067 152.767 413.293 160.277 424.897 157.608C439.367 152.785 433.572 136.083 440.554 127.581C444.522 123.71 449.917 120.534 454.628 117.646" stroke="#A25C28" stroke-width="0.55057" stroke-miterlimit="10"/>
<path d="M165.248 340.971C166.292 337.963 170.066 336.264 172.577 334.502C187.753 324.861 180.1 305.058 185.193 290.599C187.336 284.219 192.037 280.312 197.939 277.474C203.654 274.72 209.752 273.216 215.645 270.974C232.977 264.136 249.198 251.54 257.157 234.38C258.491 231.377 259.824 228.979 262.668 227.168C270.863 223.209 280.751 215.072 273.712 205.479C265.664 196.136 250.78 193.565 239.87 188.31C204.65 173.362 164.955 177.788 129.322 165.62C121.7 158.742 109.683 142.374 119.616 133.378C124.166 129.267 128.899 125.103 133.055 120.587C151.351 96.7045 151.72 123.341 182.882 125.993C189.233 126.651 195.677 126.371 202.055 126.7C214.658 127.025 226.942 130.913 239.568 130.437C245.745 130.019 251.838 128.756 257.993 128.137C270.525 127.407 283.16 129.227 295.621 130.384C302.208 130.94 307.621 134.468 313.123 137.72C319.095 139.358 325.331 141.102 331.281 142.743C354.186 140.964 350.867 147.637 367.883 150.707C379.558 152.073 381.087 135.398 391.206 137.36C399.063 141.284 407.112 149.452 416.764 147.344C430.581 143.086 415.382 127.407 432.026 116.045C451.304 102.057 443.096 84.6165 454.602 90.2401" stroke="#A25C28" stroke-width="0.55057" stroke-miterlimit="10"/>
<path d="M23.9375 340.971C34.959 333.759 40.9452 320.719 49.5624 311.006C58.0996 297.659 73.943 302.771 84.3245 310.971C89.0708 314.766 91.9817 322.823 98.6968 323.237C107.438 323.864 110.665 316.154 117.558 324.776C129.113 335.707 141.467 333.639 150.116 320.679C152.551 317.916 156.337 316.02 159.959 317.444C162.826 318.565 165.559 322.294 168.576 322.747C172.603 323.361 174.101 318.098 173.572 315.233C168.883 297.659 167.088 283.28 182.038 270.053C192.259 260.812 205.347 259.735 217.266 253.943C228.79 248.337 239.709 240.151 246.207 228.921C248.935 224.214 254.651 216.602 252.753 210.876C239.421 188.337 186.851 185.881 162.359 179.733C141.521 175.729 123.331 178.398 110.065 158.293C96.777 138.984 119.669 122.838 127.455 106.795C128.664 103.799 130.311 100.999 132.343 98.4886C135.308 94.8715 137.232 94.3732 141.676 96.0995C147.769 98.4574 154.049 100.406 159.999 103.142C166.221 105.99 171.367 109.011 178.194 110.221C184.727 111.382 190.895 111.582 197.49 111.827C210.711 112.316 223.355 116.134 236.327 118.055C247.376 120.649 256.553 112.868 265.659 115.947C280.698 122.358 297.385 123.51 313.562 122.736C320.575 122.496 326.526 122.269 333.143 124.96C341.982 128.609 349.52 134.722 358.737 137.511C363.625 139.558 367.243 143.589 371.305 137.627C374.371 129.503 376.238 127.247 385.015 124.662C400.521 121.526 405.76 124.217 415.546 108.828C416.813 107.315 418.151 105.394 419.67 104.134C421.826 102.355 423.279 101.91 423.67 98.8623C424.004 90.5114 422.746 82.1294 430.234 76.2478C433.576 73.1691 437.705 71.0869 441.207 68.1906C445.18 64.9072 449.371 62.9273 454.539 63.092" stroke="#A25C28" stroke-width="0.55057" stroke-miterlimit="10"/>
<path d="M454.602 43.0312C444.433 44.3659 442.478 55.7777 435.154 60.6762C420.711 65.7525 411.067 73.3826 406.605 88.3982C405.085 92.7227 403.423 97.1984 400.147 100.526C396.872 103.854 391.881 105.131 387.535 106.274C382.793 107.516 378.522 105.83 373.82 106.274C369.118 106.719 367.234 110.901 363.71 113.5C355.617 119.448 345.738 117.059 338.916 110.23C335.734 107.04 332.868 102.96 327.895 103.298C313.967 105.256 303.39 117.406 288.56 114.63C279.018 113.74 271.632 107.364 262.548 105.136C255.384 103.601 249.304 109.344 242.234 108.77C222.04 103.093 200.681 103.231 180.82 96.2107C171.981 93.1498 163.412 91.2456 154.262 89.417C149.938 88.5539 146.64 84.6832 142.476 82.9303C134.068 79.638 122.886 81.7558 116.496 88.1668C113.523 91.8062 114.394 97.194 114.58 101.558C116.22 111.293 108.314 118.603 104.359 126.745C99.9146 134.726 95.3193 143.38 94.7327 152.678C93.9816 164.415 104.292 166.252 112.234 171.533C127.099 184.084 147.08 182.055 164.746 187.194C185.344 193.111 206.418 197.369 226.488 204.99C255.304 214.778 216.267 243.857 201.072 244.102C197.552 244.231 193.673 243.697 190.22 243.034C188.486 242.696 187.402 242.033 185.664 242.74C184.282 243.31 182.753 244.52 181.54 245.41C171.159 255.714 164.306 269.434 156.133 281.5C151.578 287.987 154.644 295.835 152.133 302.909C150.8 306.686 148.622 309.027 146.098 312.03C143.507 315.113 141.21 318.116 137.748 320.296C130.428 324.901 125.659 319.482 119.447 315.629C112.891 311.558 105.132 314.036 98.2969 310.352C91.7151 306.793 86.0533 301.668 79.4582 298.029C73.0764 294.509 65.9791 292.276 59.0551 290.105C50.7979 287.511 48.4514 296.138 44.9628 301.788C41.0608 308.119 37.2077 314.512 32.2747 320.131C27.3417 325.751 22.942 330.653 15.0803 331.508C-2.64734 333.43 -5.95823 314.352 -17.3175 305.596C-23.2326 301.036 -31.6587 302.3 -38.4138 304.213C-46.1733 306.406 -51.3018 310.384 -57.5236 315.26C-60.5101 317.604 -63.4121 317.413 -66.9807 317.693C-70.4605 317.969 -73.367 320.483 -75.869 322.81C-77.4867 324.318 -77.2911 324.932 -77.9578 326.921C-78.4511 328.393 -79.6332 329.417 -80.5843 330.609C-82.1975 332.629 -86.7527 336.669 -86.6105 339.325" stroke="#A25C28" stroke-width="0.55057" stroke-miterlimit="10"/>
<path d="M-104.792 328.028C-96.3476 324.162 -91.0147 314.997 -82.4508 311.26C-73.7581 307.794 -64.3631 306.677 -55.7504 302.807C-47.2377 299.008 -38.2151 296.478 -28.97 295.297C-16.9397 292.894 -11.6867 295.715 -6.3982 306.606C5.15657 331.605 21.3332 327.962 33.6569 305.752C38.3054 298.536 42.5762 287.546 51.029 284.045C69.8499 278.755 86.8355 294.527 102.794 301.89C111.523 305.601 120.686 306.121 128.957 311.077C131.126 312.377 134.157 313.035 135.681 310.557C141.721 295.386 145.098 279.289 152.729 264.709C156.666 256.416 158.542 246.691 163.95 239.221C176.887 217.581 198.357 233.695 214.796 221.803C219.195 218.297 219.169 213.35 213.791 211.045C209.543 209.23 204.53 209.644 200.014 209.012C190.895 206.894 181.793 204.34 172.798 201.751C163.808 199.024 156.56 191.714 147.094 190.842C138.245 190.522 128.277 187.318 120.193 183.786C116.025 181.962 112.065 179.71 107.914 177.833C99.2346 174.274 89.7197 172.89 80.8359 170.087C76.134 167.72 78.9071 160.927 80.2226 157.047C84.9334 139.273 102.67 125.187 102.061 106.177C100.008 94.2442 87.5732 87.5261 78.2449 81.5644C72.9786 76.9329 67.7301 72.2481 62.1571 67.9815C59.1573 65.6724 53.7977 58.4427 60.8506 57.5084C63.2282 57.1925 65.4813 58.723 67.7479 59.1679C70.2055 59.6528 72.4986 59.199 74.9429 58.9187C79.8804 58.3582 83.649 61.8774 87.6176 64.3466C99.8524 72.0345 114.909 70.3305 128.69 70.2104C147.582 69.8767 165.79 73.5695 182.353 82.7968C190.508 87.3393 199.006 91.8862 208.312 93.4389C217.529 94.9738 226.977 95.9393 236.31 96.8246C245.642 97.71 254.815 95.6634 264.112 97.5231C273.409 99.3828 281.564 104.464 290.582 107.186C296.163 108.868 299.51 105.158 303.767 102.012C307.384 99.247 311.284 96.8742 315.402 94.9338C335.112 85.8577 343.974 107.44 354.635 103.084C359.079 101.1 362.479 97.8924 367.225 96.2774C375.58 93.4389 387.886 97.3051 392.188 87.1302C394.166 82.4942 391.641 77.9562 389.313 74.0856C387.748 64.7426 417.96 40.9535 425.155 33.5992C428.559 30.4849 432.71 28.4428 435.309 24.5454C436.607 22.619 437.46 20.9239 439.189 19.3222C442.745 16.4481 445.855 13.0268 448.811 9.59659C450.5 8.12396 452.811 7.50554 454.588 6.03735" stroke="#A25C28" stroke-width="0.55057" stroke-miterlimit="10"/>
<path d="M-98.1919 291.831C-98.1119 309.124 -79.5265 299.67 -69.7983 297.21C-52.5194 292.601 -34.7207 288.663 -16.8819 287.257C-3.94498 288.356 -0.43855 303.981 5.52104 313.2C23.6443 335.89 28.9506 260.852 74.9563 279.641C91.5374 283.938 107.279 301.361 125.175 294.256C130.708 291.195 133.081 285.576 135.512 280.019C143.649 263.731 146.178 245.863 151.133 228.57C161.048 208.207 135.232 198.89 120.971 192.012C110.621 185.401 99.5546 181.063 87.3155 179.648C74.5208 178.158 63.4016 169.651 68.8234 155.623C74.6541 136.613 111.932 111.64 82.4936 95.3476C71.3032 91.042 61.1002 84.5114 52.5001 76.1499C41.9941 66.7446 35.279 55.9068 53.0378 49.598C76.9473 44.2592 99.8568 58.0512 123.584 58.9855C135.139 58.2203 148.574 60.952 158.057 53.046C160.959 50.7103 163.466 49.2198 166.661 51.8982C172.243 58.9766 178.931 64.9962 186.215 70.3706C190.877 74.2057 195.57 77.7738 200.881 80.6835C211.627 86.2671 224.075 86.147 235.879 87.2726C244.887 87.5484 253.895 85.7466 262.597 88.8164C279.245 91.6816 290.048 98.0838 306.038 88.0511C311.722 85.2749 316.735 83.1216 323.139 82.828C338.387 81.3687 338.623 87.1124 349.093 88.8564C386.735 83.7712 360.328 53.7089 370.358 40.9713C374.216 35.9661 378.358 32.5181 383.642 29.1057C393.152 22.0228 401.156 12.7109 411.916 7.22082C417.369 4.29334 420.959 -0.293625 424.919 -4.91619C429.097 -9.23621 433.185 -13.5162 436.714 -18.4101C438.527 -20.4656 443.825 -22.1829 444.269 -25.324C445.104 -30.734 436.536 -29.9154 433.323 -31.3925C426.212 -34.6581 427.954 -46.6705 428.026 -53.4598C428.101 -60.3958 424.026 -62.3579 420.604 -67.9325C417.529 -72.9288 418.133 -78.8505 410.827 -79.727C403.321 -80.6168 395.832 -82.7523 388.219 -82.2273C376.1 -80.3988 364.483 -83.8557 353.173 -87.891C336.383 -89.8975 328.49 -91.5926 338.507 -109.451C341.618 -115.186 346.582 -117.526 352.493 -119.84C366.048 -125.436 378.807 -133.067 393.206 -136.426C400.183 -137.76 408.645 -139.402 412.231 -146.574C414.142 -150.396 412.036 -153.127 412.742 -156.78C413.142 -158.822 415.244 -159.449 415.898 -161.145C417.262 -164.677 414.671 -167.987 416.071 -171.231C417.471 -174.474 420.808 -174.461 423.821 -174.923C427.186 -175.439 430.568 -175.288 433.905 -176C436.945 -176.65 443.736 -175.177 445.016 -178.692C445.949 -181.228 443.825 -185.294 444.447 -188.342C444.998 -191.069 446.429 -197.969 450.54 -195.905C453.459 -194.45 451.646 -191.581 451.744 -189.467C451.873 -186.593 451.864 -176.974 454.628 -175.978" stroke="#A25C28" stroke-width="0.55057" stroke-miterlimit="10"/>
<path d="M121.837 -216.121C122.682 -210.573 122.944 -204.554 123.171 -198.944C123.06 -188.924 132.948 -173.362 120.566 -167.489C112.26 -165.447 97.9013 -178.425 91.6795 -183.772C84.7111 -191.883 74.0629 -204.1 63.5303 -193.707C55.3353 -184.2 65.4946 -171.831 66.7701 -161.483C66.7701 -155.588 68.37 -150.222 70.5387 -144.799C72.0586 -139.126 71.9031 -133.098 75.3251 -128.048C85.2711 -117.224 90.7951 -116.383 90.7907 -99.3917C91.6529 -91.4947 89.4219 -89.2257 82.1157 -86.7876C67.7256 -80.728 57.0952 -108.757 44.0428 -92.2955C19.1111 -67.4654 27.5994 -69.1916 20.2088 -39.1071C14.3203 -11.7677 -4.1584 -27.7843 -20.9261 -18.3478C-34.2586 -7.48772 -50.7508 0.471633 -68.394 -2.56707C-80.2643 -4.3111 -87.1394 -14.5128 -96.7832 -20.5323" stroke="#A25C28" stroke-width="0.55057" stroke-miterlimit="10"/>
<path d="M-99.0894 189.716C-92.4543 183.314 -81.9439 187.127 -75.4465 191.772C-53.9102 211.913 -78.0686 241.485 -78.3885 265.292C-78.833 269.808 -80.104 279.863 -75.4465 282.568C-70.7891 285.273 -62.9496 284.726 -57.8166 284.792C-44.7375 285.317 -31.7917 281.896 -18.7837 281.852C3.30366 280.784 7.26783 313.551 26.2043 291.355C45.3808 264.465 66.0105 267.472 93.6264 278.653C105.372 283.382 117.594 293.953 125.104 277.318C133.619 260.674 140.916 239.443 134.832 220.917C129.433 209.159 118.54 200.723 108.612 192.84C97.6617 185.343 83.6004 187.029 71.7834 181.477C57.5089 176.178 52.2292 164.846 58.8954 150.778C64.415 134.984 96.0618 121.65 82.3427 103.067C78.1963 98.6176 71.3257 96.482 65.7172 94.5689C52.9758 91.1031 44.4208 80.8525 36.3236 71.0424C26.3954 59.6706 37.0214 48.0897 47.7273 42.6886C59.3532 37.9726 72.2101 43.9076 84.2892 43.9654C90.7332 44.4993 97.1773 45.0466 103.63 45.5716C116.278 47.151 130.522 49.242 141.005 40.2015C145.845 36.3709 149.703 31.8329 155.72 29.8664C168.972 25.7733 176.567 39.3963 183.842 47.756C188.815 51.8002 190.402 57.9888 194.317 62.8828C207.045 78.8994 229.662 78.3699 248.269 78.9972C267.686 80.4654 287.449 86.396 306.314 78.45C323.98 71.2159 350.875 79.7313 351.889 53.7533C350.373 40.1348 359.888 29.5639 366.554 18.7393C369.074 13.0579 372.59 7.68789 379.256 6.77583C394.073 3.30558 409.414 -8.20856 411.156 -24.2251C411.369 -27.4729 413.147 -29.4394 413.822 -32.4203C414.449 -35.2677 414.356 -38.7023 414.498 -41.6254C415.427 -50.7148 412.382 -60.8808 405.33 -66.9138C400.054 -69.77 394.281 -71.3628 388.717 -73.6719C382.567 -75.4248 376.123 -75.9765 369.901 -77.458C357.244 -80.4789 344.667 -80.9149 331.757 -79.8872C326.157 -79.4423 320.073 -81.3598 316.851 -86.187C307.838 -102.328 336.752 -119.893 349.151 -125.076C359.986 -128.635 370.421 -133.294 375.407 -144.292C381.051 -150.703 373.314 -157.305 377.389 -163.231C378.803 -165.291 380.629 -165.184 378.976 -167.903C378.038 -169.438 375.225 -169.277 374.754 -171.288C374.096 -178.22 392.446 -171.364 392.157 -179.19C392.055 -180.889 389.784 -182.166 389.793 -184.435C389.793 -188.204 392.015 -190.477 391.126 -194.69C386.171 -209.457 394.566 -207.215 397.219 -216.989" stroke="#A25C28" stroke-width="0.55057" stroke-miterlimit="10"/>
<path d="M129.237 -216.121C124.3 -178.171 142.125 -191.42 143.823 -158.853C145.041 -150.129 140.059 -146.396 131.753 -147.824C125.087 -148.184 118.549 -150.258 112.136 -151.886C109.208 -153.221 107.852 -157.225 105.914 -159.61C99.4749 -167.516 88.9112 -170.968 84.8937 -180.863C82.3516 -186.584 78.4586 -195.331 70.4858 -192.559C62.2063 -189.685 65.5972 -181.29 69.0103 -175.942C78.543 -160.815 69.077 -161.171 75.7432 -147.246C76.6765 -133.164 87.0135 -122.967 98.3461 -115.809C101.613 -113.735 101.684 -110.701 102.528 -107.213C104.066 -100.842 107.999 -93.915 107.834 -87.3215C107.674 -80.8259 105.279 -74.1078 104.128 -67.7145C103.586 -64.6847 103.261 -60.2846 101.461 -57.6953C99.746 -55.2171 95.2174 -54.7544 92.4665 -53.9002C86.3114 -51.9916 79.6451 -49.1798 73.0145 -50.2698C63.9929 -51.3643 64.7128 -58.812 61.6464 -65.2586C58.3488 -71.2649 57.9355 -78.806 50.1805 -80.8659C44.0253 -82.5076 36.5814 -75.8919 33.155 -71.385C28.9508 -65.8504 29.853 -58.4338 29.653 -51.9115C29.4486 -45.1489 29.3597 -38.5376 29.653 -31.7706C29.7908 -28.6118 30.2174 -24.839 28.8086 -21.8938C17.8938 -5.60578 -3.85583 -18.7082 -18.837 -11.4785C-37.5291 -1.09 -53.7236 7.04287 -75.922 2.28683C-88.9745 -1.97981 -95.8718 -15.6028 -109.062 -19.9228" stroke="#A25C28" stroke-width="0.55057" stroke-miterlimit="10"/>
<path d="M-96.9165 171.226C-90.5747 172.067 -85.8061 177.317 -80.6154 180.685C-75.0291 184.311 -67.5407 187.171 -63.2832 192.479C-47.8221 215.899 -81.8909 257.115 -61.7278 272.66C-43.8223 283.538 -22.2371 271.392 -3.50952 279.511C2.26786 281.936 7.57417 286.341 13.5515 288.094C24.1419 290.652 35.7722 258.961 63.8237 262.979C77.1561 264.692 89.7952 269.982 103.159 271.53C124.74 272.224 131.686 239.434 122.989 223.76C121.313 220.788 118.682 218.617 116.891 215.752C112.531 207.352 107.487 198.619 98.3413 194.748C81.1869 187.011 52.5667 191.087 45.7849 169.424C42.4696 155.076 46.5804 141.44 58.0596 132.19C77.7827 119.875 93.3061 104.499 59.0018 99.6231C52.0556 98.2884 47.1404 94.7069 42.674 89.328C35.8478 81.1106 18.0801 70.0414 23.6086 57.1035C27.8972 48.5035 42.9273 32.0287 53.1 31.9397C84.9422 41.5986 84.4489 36.6423 114.9 35.6057C121.255 35.7525 127.344 35.0318 131.597 29.7686C137.739 22.0628 145.076 15.5716 151.151 7.83475C159.275 -3.02983 167.781 5.40113 173.941 12.9734C177.94 17.596 182.776 21.6313 186.758 26.2405C192.513 38.0038 193.801 53.3307 205.205 61.6549C216.76 69.7388 231.79 69.6632 245.358 70.811C259.948 72.0612 274.627 74.9754 289.297 73.3114C296.497 72.4928 303.518 70.7132 310.598 69.2272C322.819 66.8647 339.152 65.7836 343.298 51.6312C345.347 44.9977 345.471 37.8391 347.595 31.2011C349.658 24.75 354.413 19.4779 356.728 13.0802C359.044 6.68245 359.03 -0.106805 361.715 -6.30878C367.199 -19.776 384.446 -12.6576 394.423 -19.776C400.739 -23.0016 400.201 -30.3692 402.672 -36.113C410.085 -58.6207 386.828 -69.4808 368.416 -72.5951C348.893 -77.4268 327.53 -70.0058 309.362 -80.1585C294.124 -85.2883 281.036 -85.9423 293.808 -104.628C297.066 -109.847 304.834 -110.074 310.122 -112.192C322.975 -117.33 334.739 -125.045 347.431 -130.611C353.115 -133.102 359.39 -135.389 362.888 -140.844C372.558 -156.731 350.302 -155.525 346.062 -167.035C344.365 -170.812 346.227 -172.427 346.507 -175.933C346.8 -179.857 345.173 -183.968 344.929 -187.892C344.716 -191.594 345.729 -194.762 345.284 -198.463C344.787 -202.619 343.414 -206.587 343.64 -210.823C343.747 -212.856 343.347 -215.094 341.805 -216.415C341.016 -217.083 340.369 -217.903 339.903 -218.826" stroke="#A25C28" stroke-width="0.55057" stroke-miterlimit="10"/>
<path d="M135.521 -216.121C132.81 -198.156 133.508 -192.057 147.4 -179.982C156.56 -170.083 154.067 -152.985 152.667 -140.768C151.165 -134.166 142.503 -130.815 136.388 -132.826C129.819 -134.472 122.811 -135.496 118.669 -141.529C114.225 -146.841 107.63 -149.159 102.635 -153.861C97.6083 -158.435 89.6444 -161.83 85.4758 -154.306C77.3652 -140.772 89.1333 -127.888 100.493 -121.361C103.386 -119.533 106.159 -117.593 107.874 -114.527C109.532 -111.569 110.256 -108.152 112.021 -105.22C113.785 -102.288 115.976 -99.7254 117.602 -96.7134C121.767 -87.3704 120.713 -76.666 122.349 -66.7179C123.909 -59.4838 121.904 -52.8324 114.616 -49.9316C102.39 -44.0723 88.4178 -44.0456 75.1031 -42.6797C68.4947 -42.6797 60.6686 -43.8898 57.6421 -50.5768C54.6512 -58.3582 54.3268 -76.6348 41.5099 -69.9791C37.4701 -68.4174 36.8657 -66.4198 36.5235 -62.2511C35.968 -55.4307 35.7991 -48.6948 37.5057 -42.0212C42.7764 -25.671 44.4519 -17.3868 28.9952 -6.42884C17.4982 1.3303 2.21922 -8.60887 -10.7443 -5.85936C-17.5039 -4.96955 -23.659 -1.73954 -29.983 0.618453C-42.6666 5.61919 -55.7591 9.38309 -69.5759 7.9238C-87.7346 8.91149 -91.0678 -2.30902 -103.938 -11.0736" stroke="#A25C28" stroke-width="0.55057" stroke-miterlimit="10"/>
<path d="M-119.59 160.704C-99.6406 150.778 -83.495 173.606 -67.3228 181.655C-47.5863 191.767 -52.5193 217.839 -56.9501 235.528C-70.3359 279.574 -38.2181 269.265 -8.89119 271.147C-2.47829 272.362 3.65906 275.267 10.1608 275.961C23.7955 276.295 32.7904 263.095 43.8608 256.879C62.1573 246.513 82.8581 266.48 102.128 260.274C115.518 256.577 121.944 240.493 116.016 228.125C112.501 222.501 108.603 217.287 106.15 211.041C99.817 198.294 85.0135 195.202 72.1255 193.525C62.5262 192.146 53.1357 189.89 43.5675 188.319C39.8699 187.754 38.39 186.718 37.7901 182.878C36.0524 169.691 33.1015 156.749 29.7906 143.891C27.4886 132.978 39.0167 127.407 43.6963 118.928C45.9984 115.333 46.1228 113.642 44.003 109.994C40.6388 104.21 37.2701 98.3284 33.6481 92.6826C26.9819 82.6277 10.4497 74.6729 13.0806 60.6851C15.085 54.6388 20.489 49.3489 24.4976 44.5661C28.724 39.5254 32.9193 34.0842 37.8745 29.7374C57.4643 14.0278 69.7079 41.2027 94.5018 29.1902C100.599 27.0725 107.216 24.9903 113.652 24.2963C117.034 23.927 120.18 23.8069 123.095 21.7603C130.126 14.8732 136.099 6.58459 141.232 -1.81966C144.241 -7.18521 147.898 -13.3872 154.187 -15.0823C168.586 -18.3835 175.767 -2.24232 183.074 7.16297C186.793 12.5018 191.189 17.507 194.233 23.2908C200.046 34.3467 199.032 52.0094 212.454 57.3571C225.111 61.4859 238.865 61.0766 251.9 63.5413C271.628 67.234 291.355 65.5656 310.816 61.2189C333.637 58.7141 339.792 53.5621 340.054 30.0222C347.165 11.3362 357.973 5.22319 347.707 -16.4837C346.631 -19.5002 345.805 -22.7836 348.978 -24.7767C351.613 -26.4318 355.004 -26.0314 357.942 -26.5208C361.261 -27.0725 364.301 -28.1046 367.719 -27.8555C371.136 -27.6063 374.074 -26.4896 377.496 -27.4106C405.405 -34.4979 397.095 -60.4759 373.087 -66.2775C353.875 -72.7286 333.361 -68.1105 313.82 -71.6163C304.043 -74.1523 294.306 -74.1301 284.36 -72.8487C277.765 -72.9733 271.436 -75.4826 265.179 -77.3645C249.1 -81.1062 263.846 -90.5337 270.983 -94.1196C282.067 -101.492 288.626 -114.096 301.488 -118.856C313.558 -124.484 326.962 -126.9 338.663 -133.445C343.947 -136.114 351.875 -139.131 354.053 -145.226C356.142 -156.348 328.917 -153.724 324.517 -162.315C321.024 -167.996 325.197 -174.968 323.962 -180.765C323.273 -183.986 324.659 -186.366 324.486 -189.565C324.762 -195.838 322.873 -201.764 323.068 -207.94C322.055 -211.116 325.055 -213.025 323.957 -216.121" stroke="#A25C28" stroke-width="0.55057" stroke-miterlimit="10"/>
<path d="M142.947 -216.121C135.366 -186.335 146.792 -194.535 158.849 -175.119C167.95 -153.906 160.577 -136.906 152.4 -116.965C147.432 -108.797 133.632 -106.759 134.104 -95.4588C136.201 -89.3013 134.361 -83.4463 136.432 -77.2177C137.766 -73.3159 139.734 -70.0725 140.085 -65.8771C140.592 -57.9755 141.805 -50.2431 140.712 -42.346C138.934 -28.7675 159.604 -29.3014 168.643 -25.5998C173.381 -24.3852 175.479 -23.4687 177.941 -19.1264C184.54 -4.3467 194.637 8.11508 201.61 22.5611C204.605 29.8709 206.312 38.5066 210.827 45.0778C215.614 52.3075 225.084 49.9717 232.484 51.5333C248.362 53.8246 263.593 59.3548 279.863 58.1447C288.022 57.5396 295.83 55.4752 303.839 53.9181C311.576 52.4232 319.562 52.4855 327.095 50.0652C337.965 46.7017 332.121 37.0962 333.277 29.1146C338.819 10.1706 352.386 5.90391 338.165 -14.8153C336.419 -18.0987 334.525 -22.5077 337.548 -25.6265C347.258 -33.2522 361.204 -30.6628 372.683 -33.0698C397.037 -37.9148 386.78 -58.3671 368.15 -62.6159C360.55 -64.5557 352.595 -65.4677 344.867 -66.491C336.77 -66.798 328.606 -65.4811 320.5 -66.0461C312.54 -66.5978 304.892 -67.0694 296.946 -66.0461C284.204 -65.3966 206.49 -55.9023 241.047 -83.7578C248.5 -93.43 259.655 -98.4396 270.028 -104.299C276.734 -108.357 283.569 -112.89 289.297 -118.26C295.141 -123.732 300.408 -129.894 308.127 -132.742C315.536 -135.469 324.508 -134.744 331.401 -138.623C335.819 -141.11 334.397 -145.039 329.815 -146.044C326.584 -146.752 321.815 -145.03 318.349 -144.781C314.223 -144.507 310.082 -144.574 305.967 -144.981C303.057 -145.253 297.595 -145.689 295.461 -148.073C292.559 -151.33 295.586 -156.144 297.057 -159.24C298.723 -162.751 299.972 -166.421 301.546 -169.976C306.434 -180.929 309.652 -192.221 309.158 -204.265C309.709 -208.18 310.118 -212.091 309.661 -216.121" stroke="#A25C28" stroke-width="0.55057" stroke-miterlimit="10"/>
<path d="M-103.48 146.307C-93.1523 155.383 -82.1397 163.721 -71.8826 172.868C-43.9645 180.876 -44.1778 213.763 -50.1996 236.77C-53.3105 247.723 -54.9327 261.502 -40.7425 264.581C-29.6544 267.179 -18.8195 260.616 -7.75808 264.247C11.8806 270.6 23.3509 266.685 36.6567 250.9C45.0517 239.221 53.1356 238.38 65.0192 245.708C78.7472 252.559 101.461 258.472 109.843 241.121C112.234 235.568 109.887 230.576 107.15 225.665C104.412 220.753 102.261 215.396 99.0125 210.809C88.2398 195.932 68.4545 199.98 52.5845 196.666C47.6426 195.99 40.6653 196.706 36.3323 194.045C27.7684 188.733 29.7283 172.071 25.0619 162.929C17.0269 139.682 -8.54913 139.424 15.4448 124.542C19.7867 121.13 23.7287 116.587 24.4709 110.937C26.3952 92.9139 7.18758 82.3786 0.916893 67.5811C-1.30518 61.0143 1.90794 57.8866 6.72539 53.9581C14.7248 47.3245 39.2921 23.1795 27.244 13.6007C13.2894 3.98189 -3.33615 -2.39804 -20.1172 3.35903C-41.0625 10.2417 -63.7721 15.2736 -85.5972 9.36079C-90.8413 8.02608 -95.0277 2.74951 -98.9074 -0.796387" stroke="#A25C28" stroke-width="0.55057" stroke-miterlimit="10"/>
<path d="M38.0563 14.5796C40.7006 17.9297 46.1402 17.8674 50.0555 18.4458C58.5305 19.3356 66.4099 22.4499 74.3738 25.284C79.0224 26.9034 82.3733 26.2094 86.8396 24.3942C102.163 18.4547 119.944 12.9779 127.304 -3.25224C145.107 -40.1793 112.042 -41.0291 84.8398 -36.5667C80.7467 -36.0284 76.6492 -35.6547 72.5206 -35.4634C64.0012 -35.3922 53.3797 -36.8781 51.051 -26.1693C47.1801 -10.2283 37.8474 -8.74681 36.9719 8.59113C36.5808 10.6866 35.6609 13.3828 38.0563 14.5929" stroke="#A25C28" stroke-width="0.55057" stroke-miterlimit="10"/>
<path d="M153.942 -216.121C150.147 -213.763 149.703 -211.125 149.054 -206.863C147.25 -198.045 149.183 -192.475 156.142 -186.842C165.986 -178.558 166.808 -168.659 172.768 -158.315C175.91 -153.368 188.14 -146.009 177.763 -141.649C174.528 -140.314 170.839 -138.904 168.933 -135.749C165.488 -129.102 164.364 -121.268 160.862 -114.607C154.498 -105.936 142.472 -100.099 143.37 -87.584C143.428 -79.8693 149.912 -74.1701 150.587 -66.7224C150.676 -59.4437 147.383 -51.8092 150.329 -44.6907C153.311 -37.4788 162.217 -35.8237 168.781 -33.5147C182.234 -28.9455 186.442 -23.6066 190.193 -10.3084C194.922 0.026716 203.361 7.85704 207.637 18.4858C213.832 37.9415 220.853 40.1927 239.892 43.8187C267.997 52.7969 276.272 53.7757 304.497 44.7931C310.274 43.6496 322.691 44.9132 324.886 38.1195C326.282 26.7655 331.393 17.1289 336.072 6.86491C341.961 -4.48907 325.406 -12.9957 327.628 -24.1761C335.766 -37.5233 355.6 -33.4702 368.603 -37.8169C393.255 -44.8909 368.746 -60.952 354.649 -60.0399C347.431 -61.5437 340.361 -62.4958 332.966 -61.8729C317.922 -63.1809 303.31 -60.338 288.662 -57.4995C281.303 -56.7521 273.641 -56.9256 266.25 -57.0546C250.287 -58.0957 223.675 -52.0183 214.818 -69.1338C213.458 -73.6317 217.369 -75.2645 220.645 -77.1821C227.071 -80.9504 233.244 -84.9012 238.546 -90.2045C246.621 -98.1371 256.931 -103.107 265.89 -109.905C268.881 -111.969 272.379 -113.246 275.525 -115.075C284.991 -119.724 294.04 -133.133 284.507 -142.058C281.765 -145.075 281.298 -148.5 282.143 -152.402C284.534 -163.227 291.071 -172.948 291.92 -184.146C292.471 -189.507 293.817 -194.637 292.777 -199.86C292.595 -205.248 293.968 -210.907 291.609 -216.099" stroke="#A25C28" stroke-width="0.55057" stroke-miterlimit="10"/>
<path d="M-96.8364 140.052C-88.5836 151.646 -77.0821 162.564 -64.2164 168.748C-59.3767 170.012 -55.1903 172.605 -52.2661 176.721C-35.9961 196.741 -40.9779 224.072 -44.2666 247.518C-46.0843 260.301 -31.7741 261.48 -23.6724 255.647C-21.7837 254.477 -20.2105 251.723 -18.095 251.825C-1.55839 259.54 13.9517 266.445 28.2618 249.836C31.4349 245.979 32.6793 240.898 35.9591 237.139C60.8462 219.369 69.4057 247.794 90.1376 244.168C103.981 240.832 104.519 234.189 98.257 222.515C96.4305 218.017 94.564 213.323 91.0886 209.808C83.3914 202.022 73.0054 205.057 63.3305 204.572C37.1812 201.013 27.6485 202.347 20.929 173.722C11.6274 139.206 -18.5883 150.373 -15.9574 133.169C-13.2243 124.164 -1.65172 118.963 5.98332 114.483C8.43204 113.393 10.3341 112.557 10.2408 109.589C10.1697 107.195 9.18754 104.869 8.37426 102.662C6.84103 98.4842 5.75222 92.5402 2.90797 89.0789C-0.322925 85.1459 -4.64708 83.0148 -7.02914 78.1743C-14.9619 62.7138 -0.0251628 51.2219 10.4052 42.1859C17.2848 35.1386 23.6399 25.3729 15.2938 16.8041C-12.5665 -8.82691 -62.452 33.4924 -96.9297 6.37549" stroke="#A25C28" stroke-width="0.55057" stroke-miterlimit="10"/>
<path d="M49.4691 11.7321C55.8687 12.573 62.1838 13.2226 68.4234 14.9666C74.5296 16.6706 80.8136 17.636 86.911 15.3047C102.99 10.1038 127.882 -6.09964 115.918 -25.5286C106.816 -36.0862 91.4751 -30.0711 79.7737 -28.643C73.8274 -27.7532 66.3391 -27.682 61.1439 -24.3007C55.282 -20.4701 53.7977 -11.8167 49.9491 -6.2954C45.8071 -0.351471 40.5675 7.38542 49.4691 11.7321Z" stroke="#A25C28" stroke-width="0.55057" stroke-miterlimit="10"/>
<path d="M208.885 6.21976L209.143 6.59348" stroke="#A25C28" stroke-width="0.55057" stroke-miterlimit="10"/>
<path d="M9.78765 165.598L9.30322 164.753" stroke="#A25C28" stroke-width="0.55057" stroke-miterlimit="10"/>
<path d="M66.5881 -0.253605C72.1121 5.1075 80.6626 7.56338 87.4 2.89187C93.8573 -0.493854 101.883 -3.36794 106.719 -9.06717C112.167 -15.4783 110.39 -25.8045 100.492 -24.9013C92.9951 -24.2162 86.0401 -19.7449 78.7161 -18.1655C74.5075 -17.2757 70.5478 -16.1946 67.7124 -12.6709C65.3881 -9.77457 63.6149 -3.26116 66.5881 -0.253605" stroke="#A25C28" stroke-width="0.55057" stroke-miterlimit="10"/>
<path d="M-96.4276 120.035C-88.3082 130.451 -82.5086 143.17 -70.8205 150.289C-65.2298 154.017 -59.3057 155.792 -52.9906 157.812C-32.8942 164.882 -31.6231 190.837 -29.1122 208.941C-28.5345 215.401 -27.6412 222.457 -24.7036 228.325C-21.5927 234.523 -15.4687 237.455 -9.71352 240.716C2.73008 248.835 15.7381 253.413 23.2531 236.654C25.9729 231.248 30.9771 224.686 31.4792 218.546C31.9992 212.166 25.4441 206.262 21.911 201.529C18.0002 196.288 13.836 190.74 11.0006 184.831C8.16527 178.923 6.22762 172.743 3.13894 167.035C-6.47819 147.241 -28.7789 158.426 -35.1118 138.294C-36.1962 135.18 -34.3385 131.794 -33.7786 128.573C-31.1743 115.711 -34.5785 111.039 -41.6669 101.114C-51.244 81.3152 -47.6221 71.0735 -29.2722 59.5683C-24.1125 55.4351 -19.7084 50.5011 -14.6732 46.2211C-9.63797 41.9412 -3.17619 38.8402 1.00131 33.6526C6.45871 26.8811 0.139145 21.5512 -6.82927 20.43C-13.2999 19.3889 -20.3172 21.9071 -26.8501 22.1073C-52.9684 22.1073 -81.0687 25.1816 -104.178 10.3396" stroke="#A25C28" stroke-width="0.55057" stroke-miterlimit="10"/>
<path d="M157.884 -79.6825C160.511 -75.2334 165.101 -72.0212 167.137 -67.2563C169.337 -62.1176 169.741 -56.9879 173.91 -52.9348C177.678 -49.2732 179.914 -44.7218 184.162 -41.3672C188.673 -37.808 192.971 -35.8949 195.237 -30.1912C198.281 -19.6737 200.223 -10.5353 208.516 -2.5493C212.192 1.42815 216.227 4.81833 219.378 9.27183C222.373 13.5073 225.155 17.9564 229.359 21.1108C233.563 24.2651 238.474 26.2717 243.318 28.2292C248.162 30.1868 252.829 33.052 257.842 34.7204C273.578 40.6554 288.475 33.4124 303.825 30.0177C310.616 29.5328 312.669 28.1046 315.029 21.6001C330.375 -2.7673 305.67 -24.4698 323.335 -37.5366C327.779 -40.0548 332.072 -43.6941 337.032 -44.8642C343.956 -44.3348 353.355 -40.86 358.022 -48.0853C351.591 -53.4242 343.547 -51.7602 336.245 -49.8293C334.023 -49.6558 331.406 -51.302 329.135 -51.7469C318.838 -54.4964 309.58 -48.8594 299.923 -46.1945C290.36 -43.7475 279.52 -45.0778 269.703 -45.1178C259.686 -45.1623 249.633 -45.7095 239.607 -45.8786C229.581 -46.0476 219.271 -44.4237 209.347 -45.9898C203.872 -47.1777 201.388 -51.5734 198.468 -55.8756C191.926 -63.8839 188.18 -74.3258 194.024 -83.8646C200.37 -92.6425 213.027 -88.9098 221.853 -93.1186C235.341 -99.9657 247.305 -109.607 259.415 -118.598C270.57 -125.152 276.876 -128.386 269.268 -141.88C267.197 -146.329 268.414 -152.068 268.797 -156.838C269.721 -166.897 269.125 -177.134 266.526 -186.918C265.286 -191.055 260.682 -195.611 257.402 -198.383C245.914 -207.45 225.226 -198.147 216.676 -188.471C213.338 -184.111 209.085 -182.22 203.503 -182.687C191.566 -183.132 193.464 -199.905 182.091 -201.818C177.527 -202.708 171.541 -200.532 169.07 -196.394C165.906 -191.1 168.683 -186.856 172.008 -182.762C175.332 -178.669 177.207 -174.229 180.007 -169.927C185.567 -161.211 195.882 -157.47 202.557 -149.871C206.81 -144.825 201.739 -141.297 199.197 -136.822C196.53 -132.114 192.086 -130.148 187.74 -127.296C178.674 -122.033 174.883 -112.04 167.404 -105.118C159.8 -99.2983 152.018 -89.3502 157.898 -79.6869" stroke="#A25C28" stroke-width="0.55057" stroke-miterlimit="10"/>
<path d="M-24.7121 183.359C-19.5524 206.205 -27.5919 223.369 -2.34915 237.134C2.5394 240.249 11.2099 246.282 15.7874 239.461C22.107 224.864 25.1956 214.684 14.6186 201.142C10.57 195.611 5.3792 190.878 2.1172 184.809C-1.1448 178.741 -1.32256 171.426 -4.79788 165.438C-8.74872 158.64 -18.4947 156.664 -24.8543 161.434C-31.3872 166.354 -26.1875 177.103 -24.7121 183.341" stroke="#A25C28" stroke-width="0.55057" stroke-miterlimit="10"/>
<path d="M203.534 -18.3168C207.778 -8.80914 215.453 -2.94084 222.831 3.92849C229.621 11.4919 234.87 19.3444 244.94 23.0016C262.93 33.5058 283.604 31.0098 301.825 22.2764C321.882 11.3184 312.153 -14.406 309.642 -32.1978C306.976 -42.2571 291.328 -38.8981 283.298 -39.9347C263.472 -39.7078 243.691 -42.4173 223.906 -40.6287C209.32 -39.512 198.712 -35.2498 203.534 -18.3168" stroke="#A25C28" stroke-width="0.55057" stroke-miterlimit="10"/>
<path d="M209.241 -18.7127C211.907 -10.5265 219.68 -4.62703 226.128 0.444883C245.847 22.8325 265.677 30.9431 294.199 17.9741C312.154 11.1893 310.82 -11.7322 304.221 -26.3918C299.99 -34.7471 289.404 -34.6804 281.236 -34.7204C264.139 -33.7594 247.22 -37.8347 230.19 -36.8115C220.929 -36.282 204.948 -30.8497 209.241 -18.7127Z" stroke="#A25C28" stroke-width="0.55057" stroke-miterlimit="10"/>
<path d="M220.653 -10.1572C225.724 -4.72042 232.208 -1.14339 236.968 4.64038C241.727 10.4241 248.029 14.2993 255.109 16.7062C269.023 20.9506 285.329 16.3013 296.839 7.99941C303.212 2.66055 302.563 -4.6003 302.123 -12.2883C302.443 -20.4167 299.239 -27.108 290.644 -28.4783C283.507 -30.0489 275.872 -28.7275 268.61 -28.8788C261.242 -29.0389 254.095 -30.4137 246.86 -31.6372C232.372 -36.1396 203.57 -28.6163 220.64 -10.1394" stroke="#A25C28" stroke-width="0.55057" stroke-miterlimit="10"/>
<path d="M226.381 -10.9936C231.177 -7.1274 236.354 -3.77281 240.527 0.805257C244.7 5.38333 248.415 8.91588 254.379 11.136C266.032 15.4871 278.876 9.80123 288.355 2.99864C293.688 -0.818645 294.719 -6.83376 294.937 -13.0758C295.328 -29.0167 274.738 -19.5402 265.13 -21.9739C252.522 -22.2097 240.243 -31.7618 227.768 -27.1392C219.324 -23.4954 220.213 -16.506 226.377 -10.9847" stroke="#A25C28" stroke-width="0.55057" stroke-miterlimit="10"/>
<path d="M232.066 -13.0446C235.559 -12.048 239.816 -10.264 242.732 -8.09726C245.971 -5.68143 247.358 -2.46922 249.78 0.591729C255.224 7.47441 263.268 8.18626 269.974 2.56711C278.911 -5.18758 273.085 -10.6466 263.566 -12.1148C255.833 -13.9478 248.793 -14.7842 242.514 -20.0919C239.465 -22.6634 234.514 -25.275 230.652 -23.0416C225.693 -20.1586 228.728 -15.8609 232.07 -13.0624" stroke="#A25C28" stroke-width="0.55057" stroke-miterlimit="10"/>
<path d="M167.906 -215.089C151.636 -198.93 161.084 -189.218 171.461 -173.829C175.359 -166.71 179.016 -160.887 185.593 -155.881C191.553 -151.076 202.401 -147.873 194.482 -139.193C192.811 -134.949 189.224 -134.41 185.278 -133.431C173.083 -129.779 170.386 -116.32 162.466 -107.867C153.431 -100.099 146.467 -88.7363 153.538 -77.1687C155.418 -73.6362 158.306 -70.9935 158.871 -66.8603C160.733 -57.8332 149.729 -46.8396 161.831 -44.3481C188.607 -35.3521 185.829 -27.8866 199.441 -6.57123C202.383 -0.70738 207.312 3.52367 210.872 9.00045C214.218 14.0991 216.165 20.0297 219.978 24.8346C224.049 29.9599 232.808 31.9976 238.705 34.32C251.149 39.214 265.699 46.8619 279.405 44.0189C286.235 42.5997 292.737 40.1571 299.488 38.462C305.994 36.8292 314.598 37.4699 318.673 31.0232C324.766 18.8195 331.503 4.12875 325.393 -9.28514C316.025 -26.4095 324.882 -35.3477 342.174 -38.1506C383.131 -40.6198 374.861 -56.3917 339.836 -57.2815C325.766 -58.1713 311.652 -57.931 298.444 -52.4142C284.8 -48.9039 270.552 -51.8492 256.62 -50.9683C249.434 -50.7547 242.261 -50.5634 235.07 -50.9327C221.249 -48.8416 205.294 -54.9368 201.295 -69.4719C199.455 -75.6205 204.272 -79.6291 209.738 -80.9504C213.79 -82.544 217.751 -84.359 221.604 -86.3872C237.603 -94.8137 250.349 -108.014 266.166 -116.681C269.992 -118.781 274.947 -120.507 277.663 -124.093C280.52 -127.87 280.205 -133.058 278.498 -137.244C277.609 -139.42 276.321 -141.066 275.138 -143.028C272.472 -149.346 276.076 -156.531 276.596 -163.08C277.329 -171.978 279.729 -181.205 278.303 -190.099C277.672 -195.998 274.538 -198.846 270.712 -202.872C269.254 -205.008 268.419 -207.579 267.05 -209.782C265.575 -212.157 263.05 -213.012 262.944 -216.121" stroke="#A25C28" stroke-width="0.55057" stroke-miterlimit="10"/>
<path d="M-96.459 10.8557C-76.6292 21.8982 -52.7686 19.1042 -31.1301 16.6617C-20.1753 15.3848 -8.72273 11.5898 1.88544 16.2168C6.40069 18.1744 12.2225 22.5522 11.9559 28.1046C9.76935 39.4186 -3.32309 44.3971 -10.2648 52.4765C-14.1046 56.4406 -16.8955 61.1655 -19.962 65.6991C-23.1262 70.384 -25.8016 75.3625 -29.2191 79.8782C-33.5655 84.8167 -35.4409 90.289 -27.6192 92.5491C-22.4596 94.6357 -17.6821 97.9458 -14.5179 102.582C-10.6737 108.205 -12.558 112.73 -16.8244 117.264C-24.8772 125.784 -28.5392 137.956 -17.5088 145.764C-12.9491 148.994 -7.21171 150.213 -2.39871 153.021C12.267 161.563 15.449 180.16 23.2618 194.001C31.8256 209.177 39.2607 205.871 52.6153 210.378C66.3655 218.106 67.5165 211.383 79.809 209.408C90.0306 208.692 93.9814 230.345 86.5641 235.066C78.0936 239.906 66.521 215.436 51.7976 221.794C24.6083 227.854 31.5323 248.043 11.9514 253.551C-2.22984 257.062 -11.8114 241.339 -24.9572 244.885C-41.4361 249.685 -26.7348 188.217 -50.2577 168.009C-55.1462 163.115 -62.9324 161.91 -68.8431 158.56C-81.66 151.851 -89.2861 139.335 -98.1211 128.511" stroke="#A25C28" stroke-width="0.55057" stroke-miterlimit="10"/>
</g>
</g>
<defs>
<clipPath id="clip0_2501_5470">
<rect width="543.963" height="352.365" fill="white" transform="translate(-93.5967 -24.2251)"/>
</clipPath>
</defs>
</svg>
