<svg width="297" height="186" viewBox="0 0 297 186" fill="none" xmlns="http://www.w3.org/2000/svg">
<g style="mix-blend-mode:multiply">
<path d="M404.603 -48.9191C393.639 -47.2212 379.228 -43.3252 371.099 -39.1081C361.033 -33.86 362.605 -29.3867 360.326 -24.1169C359.226 -21.5792 357.094 -19.1373 354.538 -16.5842C352.018 -14.0836 349.494 -11.2866 345.661 -8.92806C341.828 -6.56947 336.41 -4.62147 332.591 -2.21966C328.856 0.126579 325.989 3.04703 325.793 5.43032C325.583 8.0081 327.818 9.75234 329.853 11.793C331.963 13.9015 332.862 15.8063 330.814 18.5847C327.066 23.7063 320.313 28.8588 314.369 33.8908C309.61 37.9227 301.708 46.1777 289.777 46.897C284.035 47.2397 278.795 46.2148 273.951 45.6622C268.978 45.1096 263.841 44.7113 258.539 44.4273C237.353 43.3345 216.113 40.803 203.741 34.3694C197.727 31.2452 194.673 26.389 185.889 24.5368C174.315 22.0948 172.801 34.4774 172.614 36.8514C172.222 41.6767 172.026 46.7303 176.118 50.6634C178.072 52.5466 181.251 54.2414 184.38 55.714C187.719 57.2853 189.237 58.3597 193.061 59.6717L200.184 65.1514C200.184 65.1514 202.668 68.075 198.404 69.4951C194.139 70.9152 180.641 72.2179 180.641 72.2179L170.517 75.2032C166.11 79.3709 152.795 78.3737 148.49 79.1887C144.185 80.0037 144.18 76.8394 135.664 79.3771C127.148 81.9147 129.089 82.5537 128.198 86.8542C127.308 91.1546 128.772 92.6055 128.728 96.5602C128.683 100.515 127.054 102.571 123.893 106.069C120.732 109.566 121.81 112.178 120.621 113.453C119.433 114.728 115.381 116.67 111.918 117.139C108.454 117.608 101.599 119.646 96.9775 121.535C92.7127 123.28 82.7316 127.969 76.2765 129.191C69.8213 130.414 68.6327 135.98 65.3829 138.57C62.133 141.16 55.2371 142.401 51.0524 144.436C46.8677 146.47 34.7988 157.383 27.2752 161.107C19.7516 164.83 10.6877 170.723 7.7539 172.078C4.82014 173.434 -1.14976 175.067 -4.89375 177.07C-8.63774 179.074 -12.6622 179.787 -16.8469 181.812C-21.0316 183.837 -26.1735 183.745 -29.6059 184.516C-33.0382 185.288 -34.8768 184.467 -39.0616 186.492C-43.2463 188.517 -52.8622 188.962 -59.865 189.011C-66.8677 189.061 -73.2205 187.218 -76.724 187.082C-80.2276 186.946 -101.881 185.538 -101.881 185.538" stroke="#A25C28" stroke-width="0.55057" stroke-miterlimit="10"/>
<path d="M401.482 -55.8835C394.119 -53.667 387.588 -50.8546 380.082 -48.6935C376.205 -47.5791 372.1 -46.8783 368.272 -45.7083C364.679 -44.6123 361.38 -43.2385 358.117 -41.945C351.141 -39.1666 344.935 -36.4314 342.091 -32.7885C339.419 -29.3926 338.974 -26.1696 337.795 -22.8633C336.615 -19.5569 334.184 -16.0376 330.574 -12.6294C327.043 -9.33535 321.928 -6.21423 317.463 -3.00358C308.639 3.30966 300.323 10.5398 298.485 16.9827C297.047 22.0086 301.913 31.6436 287.938 36.2342C280.704 38.6082 271.801 37.2777 265.363 37.1079C261.873 37.0153 257.524 37.6389 254.234 37.4382C251.028 37.2406 248.553 36.0089 245.949 35.4038C234.209 32.6685 222.857 30.4458 214.786 25.8891C207 21.4899 199.205 17.0722 191.538 12.636C187.697 10.4194 182.662 8.62266 179.438 6.20232C176.215 3.78199 172.97 1.26287 171.648 -1.65759C170.971 -3.16103 172.093 -4.92998 171.296 -6.41799C170.548 -7.83191 168.625 -8.94637 166.733 -10.0114C162.748 -12.2774 160.46 -14.7718 157.829 -17.4453C155.492 -19.844 150.613 -22.4712 144.331 -23.0701C141.099 -23.3788 136.932 -23.4344 133.415 -22.0359C129.613 -20.5201 127.895 -18.7975 129.248 -17.3743C131.799 -14.6916 136.874 -13.0523 141.478 -11.1321C146.232 -9.15321 148.302 -6.54147 149.286 -3.46357C151.205 2.52552 152.995 8.53931 154.526 14.6025C155.287 17.6125 156.396 20.641 156.258 23.8022C156.12 26.9635 154.695 30.3192 154.708 33.4866C154.74 39.8678 156.449 45.7797 158.239 51.846C158.728 53.5038 159.045 54.8745 161.355 56.0476C163.39 57.0818 166.021 57.832 168.407 58.7057C173.357 60.5147 177.662 62.4782 183.543 63.8365C183.543 63.8365 190.038 64.7627 180.707 67.9517C175.131 69.8457 169.773 72.0337 164.681 74.4965L152.923 75.367L146.286 74.7712L135.81 75.2744C135.81 75.2744 128.794 75.3053 128.042 76.5587C127.29 77.8121 121.885 80.8097 122.068 82.625C122.25 84.4402 124.445 88.8981 123.755 90.7565C123.065 92.615 122.735 98.1071 122.01 99.6599C121.135 101.421 119.979 103.109 118.564 104.692C117.375 105.967 118.119 108.974 116.521 110.558C114.922 112.141 110.618 112.972 108.507 113.984C106.397 114.997 102.551 115.79 100.864 116.479C99.1763 117.167 97.4312 117.254 94.9337 118.59C92.4362 119.927 82.8559 120.85 75.0429 122.894C72.4208 123.579 63.713 124.339 62.2083 126.845C60.7036 129.352 60.0136 130.711 57.5472 132.35C55.0809 133.989 53.6296 134.603 50.7537 136.567C47.8779 138.53 40.4255 141.506 38.0705 146.069C36.9219 148.301 33.2224 150.749 29.612 154.269C26.0016 157.788 22.8986 157.328 19.68 160.221C16.4613 163.113 0.982271 170.85 -0.624841 172.143C-2.23195 173.437 -14.9553 178.009 -16.1751 178.972C-17.3949 179.935 -25.7198 180.04 -28.2173 181.377C-30.7148 182.714 -36.3909 182.985 -38.0781 183.674C-39.7653 184.362 -44.4442 185.804 -46.6256 185.909C-48.807 186.014 -54.8882 186.61 -60.1903 186.255C-65.4925 185.9 -73.8753 185.39 -77.8908 184.671C-81.9064 183.952 -88.8646 184.588 -93.3209 183.89C-97.7772 183.192 -103.671 180.744 -103.671 180.744" stroke="#A25C28" stroke-width="0.55057" stroke-miterlimit="10"/>
<path d="M396.871 -66.1731C393.158 -64.8086 391.769 -62.4685 390.011 -60.7366C387.92 -58.7496 385.405 -56.9945 382.554 -55.5317C376.25 -52.179 367.342 -50.5768 359.222 -48.5886C351.239 -46.6345 342.541 -44.7667 335.235 -42.121C327.342 -39.2654 323.26 -35.8479 320.838 -32.1403C318.492 -28.5468 317.86 -25.117 316.226 -21.5822C314.592 -18.0474 311.934 -14.4601 308.449 -10.8944C301.562 -3.85261 291.287 3.43926 277.406 9.1999C273.76 10.7126 270.911 12.0463 269.161 13.9541C267.51 15.7539 266.263 17.6124 264.237 19.3999C259.897 23.2249 251.652 25.9447 243.167 25.5186C235.599 25.1389 230.951 22.5951 226.651 20.465C222.128 18.2237 217.582 15.9886 213.188 13.6948C195.826 4.62164 186.842 -6.91507 177.28 -18.4117C174.934 -21.2179 172.418 -23.9778 170.023 -26.7748C168.777 -28.2288 166.805 -29.4421 164.917 -30.6924C163.136 -31.884 162.028 -33.6437 159.067 -34.3537C153.569 -35.6751 144.314 -35.7059 137.142 -35.5701C128.363 -35.4034 119.94 -34.0913 114.66 -30.0317C110.24 -26.6358 105.832 -23.1134 100.829 -19.7916C96.6616 -17.0132 86.6316 -11.5119 91.6311 -9.44346C96.6305 -7.37506 103.513 -6.2359 108.401 -4.11811C113.116 -2.07441 116.681 0.336664 118.907 3.22316C121.178 6.16831 122.228 9.42217 124.072 12.4846C125.852 15.4421 128.265 18.2391 130.816 20.9959C133.452 23.8485 136.39 26.6176 137.245 29.9086C138.064 33.0698 137.743 36.4286 138.295 39.6362C138.869 42.9734 141.051 45.9278 143.317 48.8977C145.489 51.741 146.878 54.8374 149.549 57.5417C150.951 59.0517 152.766 60.3564 154.892 61.3822C157.238 62.4719 160.741 62.9998 163.034 64.0896C165.224 65.133 166.342 66.6643 168.02 67.8899C168.02 67.8899 165.95 69.2853 162.05 69.7761C158.15 70.267 141.714 72.5762 133.647 70.835C125.581 69.0939 125.189 60.8975 121.525 59.2489C117.861 57.6004 117.821 57.2978 112.777 55.106C107.733 52.9141 99.0745 49.6787 100.219 43.5415C101.363 37.4042 98.7718 37.8333 95.1124 31.9245C91.453 26.0157 83.5376 16.9672 74.8165 13.1268C66.0954 9.28634 69.7904 6.95245 59.894 4.38702C49.9975 1.82159 40.4751 -5.63081 39.1484 -10.1226" stroke="#A25C28" stroke-width="0.55057" stroke-miterlimit="10"/>
<path d="M339.148 -189.777C335.631 -189.101 331.34 -185.714 329.051 -184.35C327.716 -183.544 326.621 -182.673 324.8 -182.016C322.334 -181.124 321.488 -181.046 319.867 -179.824C317.365 -177.938 314.712 -175.795 315.122 -174.005C315.531 -172.214 316.431 -170.791 314.013 -168.658C308.987 -164.215 304.909 -160.557 303.743 -156.127C302.732 -152.259 302.928 -147.751 310.216 -146.124C324.199 -143.003 349.944 -146.76 351.333 -137.48C351.952 -133.371 346.552 -129.855 340.203 -125.799C333.855 -121.742 326.403 -118.081 318.941 -114.376C312.304 -111.064 301.517 -107.47 306.734 -104.136C311.111 -101.339 315.602 -98.471 321.626 -96.3224C327.858 -94.0996 335.827 -92.7629 341.935 -90.5216C348.279 -88.197 346.743 -83.6743 353.51 -81.5935C359.934 -79.6208 368.09 -78.8151 363.673 -73.8973C361.577 -71.5757 358.144 -69.5968 354.672 -67.4513C351.293 -65.3582 348.706 -63.6294 344.05 -61.8944C339.598 -60.252 334.928 -59.2765 329.986 -58.2237C324.644 -57.0938 320.985 -55.8868 316.867 -53.8801C309.299 -50.1663 302.176 -46.2672 294.75 -42.4978C291.135 -40.6455 287.525 -38.7499 284.128 -36.8452C281.101 -35.1472 277.103 -32.9862 275.171 -31.1586C274.281 -30.3127 272.994 -29.2106 272.558 -28.3802C272.01 -27.3244 273.119 -26.9755 273.942 -26.2192C275.576 -24.7065 277.13 -22.9468 277.74 -21.1778C279.075 -17.2942 275.158 -12.8857 270.652 -8.66559C266.263 -4.54732 262.016 -0.123402 252.93 3.10268C247.142 5.15873 240.571 5.90582 236.493 4.35298C234.967 3.75765 233.491 3.10208 232.073 2.38953C229.265 0.990054 226.607 -0.549359 224.122 -2.21651C219.412 -5.30984 215.285 -8.61309 210.468 -11.6817C204.801 -15.2906 200.963 -19.4243 195.127 -22.99C189.291 -26.5557 187.06 -30.995 182.693 -34.9929C180.497 -37.0671 177.908 -38.9268 174.996 -40.522C171.773 -42.2415 167.294 -43.2325 163.007 -44.4365C154.357 -46.8599 149.652 -51.4166 134.444 -47.7428C122.38 -44.8316 112.051 -40.1176 102.569 -35.6813C97.7788 -33.44 93.2736 -31.0969 88.4879 -28.871C86.1417 -27.7813 83.8179 -26.4661 81.0355 -25.6079C78.1641 -24.7157 74.8563 -24.1292 71.8024 -23.5241C66.0417 -22.3818 58.7852 -21.2921 54.6539 -18.7976C50.7586 -16.439 49.6056 -13.3889 49.3117 -11.055C48.9912 -8.48653 50.1086 -6.17115 53.5143 -4.52261C56.7285 -2.97903 62.5337 -2.4326 64.6216 -0.549435C69.0378 3.44535 73.4229 7.12524 79.3883 10.6168C85.0126 13.943 89.8235 17.8786 93.6342 22.2708C97.3737 26.4817 100.877 30.6062 105.792 34.4713C106.981 35.3974 108.437 36.3236 109.398 37.3238C110.36 38.3241 109.843 39.7226 109.505 40.9512C108.766 43.5969 106.691 46.1994 109.113 48.3604C111.397 50.3825 115.181 51.6452 118.907 53.1054C122.27 54.4256 125.145 56.2698 127.303 58.4925C127.303 58.4925 128.924 63.4319 131.666 64.5186C134.408 65.6053 139.172 69.3469 143.472 68.5319C146.589 67.9361 159.098 67.5101 156.009 66.7043C140.245 62.5922 135.437 53.8772 130.397 50.5523C128.421 49.2495 126.168 48.0826 124.005 46.8477C121.449 45.3998 121.142 43.9242 121.828 41.7817C123.012 38.0771 123.074 34.814 120.292 31.7978C114.901 25.9507 107.105 20.7983 103.544 14.4264C101.763 11.2466 100.147 8.25205 97.1823 5.37173C94.0883 2.35249 88.9909 0.657646 83.8847 -1.58981C78.9877 -3.75082 75.0478 -6.29156 70.6093 -8.62545C67.3639 -10.3327 67.5954 -11.4286 71.6822 -13.9107C74.6738 -15.7259 77.6877 -17.1059 81.4762 -18.6556C96.0515 -24.5922 103.971 -32.8226 120.207 -38.0492C128.167 -40.6146 137.302 -42.2631 145.173 -41.7537C152.131 -41.3123 161.2 -40.383 166.097 -38.6172C171.385 -36.7093 174.043 -33.6253 176.679 -30.8036C179.403 -27.8801 181.798 -24.8824 184.834 -22.0484C190.88 -16.439 196.307 -10.6722 203.025 -5.25735C209.854 0.250139 215.045 6.03855 225.947 10.1105C230.399 11.7683 238.016 14.3152 245.615 13.67C253.544 12.997 262.261 8.0236 267.83 5.35012C281.101 -1.01869 289.439 -8.71189 294.247 -15.9698C299.22 -23.4809 297.724 -30.2325 307.603 -37.8886C312.201 -41.4512 319.133 -45.2546 326.812 -47.925C334.679 -50.6571 343.458 -52.034 352.067 -53.1732C356.368 -53.7474 360.664 -54.1981 364.978 -54.8093C368.851 -55.3589 375.422 -57.5878 373.73 -59.3907C372.466 -60.749 366.977 -61.0423 364.875 -62.1383C362.204 -63.5275 363.86 -65.92 366.945 -67.8989C372.706 -71.6035 378.77 -74.5764 378.2 -78.4879C377.688 -82.0196 371.967 -83.9583 365.134 -85.0944C363.246 -85.4031 360.771 -85.5852 359.266 -86.1193C357.45 -86.7645 358.162 -87.5826 358.567 -88.7218C359.19 -90.4846 359.903 -92.4264 358.954 -93.9514C356.929 -97.1436 345.724 -96.3008 339.696 -97.5665C333.405 -98.8878 328.161 -101.163 325.25 -103.895C321.577 -107.35 325.463 -110.724 332.079 -114.7C337.768 -118.121 343.725 -121.492 349.819 -124.832C352.805 -126.427 355.652 -128.144 358.345 -129.972C360.722 -131.636 364.929 -134.103 365.708 -135.782" stroke="#A25C28" stroke-width="0.55057" stroke-miterlimit="10"/>
<path d="M320.326 -195.541C319.186 -192.984 314.476 -190.07 311.52 -187.563C308.564 -185.057 304.553 -182.368 303.271 -179.802C300.644 -174.554 301.25 -169.596 298.098 -164.265C294.982 -158.998 293.673 -153.842 294.158 -148.952C294.412 -146.412 294.189 -143.849 298.009 -142.219C301.147 -140.876 308.862 -141 313.969 -141.024C324.862 -141.08 340.234 -141.528 341.16 -136.06C341.975 -131.176 330.031 -125.336 321.684 -121.054C313.225 -116.732 299.781 -111.517 297.061 -106.365C294.389 -101.348 302.875 -97.0016 308.796 -94.1275C315.424 -90.9075 325.161 -89.0985 331.838 -85.8971C338.623 -82.6432 341.33 -78.278 349.646 -75.6045C351.827 -74.9037 353.358 -73.5948 350.447 -72.1438C348.221 -71.0293 344.717 -70.0785 342.158 -69.0566C336.9 -66.9882 331.616 -65.0433 326.011 -63.191C314.534 -59.3753 304.437 -55.2262 294.096 -50.8023C284.092 -46.5204 271.756 -42.8497 263.155 -38.077C258.753 -35.632 254.376 -32.9369 252.498 -30.2016C250.677 -27.5467 251.198 -25.1387 252.008 -22.8326C253.686 -18.0506 258.183 -13.8983 251.541 -8.11301C247.917 -4.95485 241.408 -3.56872 237.21 -5.5692C233.894 -7.14673 233.333 -9.73377 231.507 -11.7775C229.633 -13.8767 226.366 -15.5099 223.837 -17.4023C221.308 -19.2947 219.122 -21.4032 215.988 -23.1321C212.854 -24.8609 209.311 -26.2192 205.531 -27.6115C201.462 -29.1057 197.366 -30.2726 196.013 -32.7146C193.645 -36.981 187.243 -40.9882 180.828 -43.9704C177.52 -45.514 173.705 -46.826 170.317 -48.3418C166.787 -49.9255 164.423 -51.9476 161.952 -53.8987C160.741 -54.8588 159.219 -55.7016 157.91 -56.6308C156.601 -57.56 155.951 -58.7918 154.184 -59.4834C150.043 -61.1319 141.745 -57.8472 136.95 -56.0875C125.977 -52.1205 116.392 -47.4589 106.932 -42.8281C98.1751 -38.5617 87.2235 -32.8875 75.0745 -30.9765C62.4447 -28.9915 51.9829 -31.6341 43.7514 -33.8044C41.5255 -34.3909 39.9496 -35.2615 37.55 -35.7555C35.1505 -36.2494 32.6085 -36.5982 30.2001 -37.0459C25.4322 -37.935 20.7444 -38.8333 16.1946 -39.849C12.504 -40.6702 1.84635 -41.2722 2.17579 -37.5336C2.28708 -36.2741 4.78901 -35.5949 5.87526 -34.6039C7.05054 -33.5296 6.95706 -32.2731 7.13068 -30.9889C7.48682 -28.3987 12.9181 -27.5343 17.0449 -26.2779C21.1717 -25.0214 24.4527 -23.2463 26.4828 -21.2365C30.6363 -17.1244 31.9496 -12.3548 33.7971 -7.70243C37.5233 1.70106 46.3869 9.62581 62.1375 15.1796C69.8926 17.9148 77.7189 20.8168 81.8146 24.9628C85.9103 29.1089 89.218 33.4618 92.4322 37.793C95.6464 42.1243 94.9965 47.2336 99.4795 51.2901C103.962 55.3466 112.434 57.9275 117.99 61.6012C121.427 63.8764 117.3 66.5715 114.113 69.5568C111.37 72.1284 108.953 74.7124 107.404 77.2747C107.404 77.2747 102.311 81.288 101.714 83.1126C101.118 84.9371 109.558 93.8065 114.972 95.7853C117.621 96.7516 115.003 97.6068 115.715 99.2677C116.33 100.697 112.675 102.117 112.083 103.713C109.122 111.675 94.5914 114.981 76.557 117.605C67.7246 118.887 61.1759 119.177 54.556 123.02C49.6047 125.823 45.3423 129.165 41.9351 132.915C38.8856 136.221 33.4766 139.608 29.6703 142.911C25.6636 146.387 22.1289 149.483 19.4756 153.021C16.8223 156.559 11.6181 159.597 6.43174 162.854C3.76064 164.524 1.61041 166.222 -0.918227 167.911C-3.25544 169.473 -6.23817 170.921 -8.65551 172.473C-10.9482 173.949 -21.3432 177.648 -25.3499 178.771C-32.2591 180.71 -33.0827 176.258 -35.7226 175.095C-41.5768 172.511 -47.6402 176.15 -56.5216 178.101C-65.5944 180.086 -69.1069 178.639 -77.1202 178.521C-84.3455 178.416 -96.597 182.022 -99.3571 178.672C-102.193 175.227 -108.759 174.119 -109.752 170.22C-110.536 167.133 -104.437 160.486 -107.589 157.951C-110.665 155.482 -114.476 153.207 -118.157 150.944C-121.336 148.989 -121.634 144.309 -127.987 143.76C-135.604 143.099 -144.013 147.199 -149.672 149.795C-156.505 152.941 -158.477 156.053 -160.2 159.619C-161.843 163.014 -164.207 166.342 -166.397 169.76C-168.525 173.069 -170.466 176.459 -171.561 179.713C-172.078 181.256 -172.897 182.877 -172.968 184.344C-173.177 188.156 -173.462 192.79 -182.072 196.581C-186.662 198.6 -190.709 198.335 -195.343 199.715C-197.93 200.489 -198.29 201.7 -200.369 202.493" stroke="#A25C28" stroke-width="0.55057" stroke-miterlimit="10"/>
<path d="M274.325 -182.059C283.438 -184.131 290.432 -183.275 290.089 -179.46C289.8 -176.212 288.527 -172.903 287.636 -169.581C285.973 -163.169 285.212 -156.661 285.366 -150.147C285.415 -147.011 285.014 -143.633 286.256 -140.703C287.592 -137.573 295.605 -136.965 302.648 -136.749C310.011 -136.523 317.784 -137.092 325.214 -136.993C334.919 -136.863 334.033 -133.51 327.64 -129.852C316.867 -123.712 303.48 -117.726 294.773 -111.159C284.978 -103.787 289.248 -98.1933 296.553 -93.331C303.676 -88.5892 315.554 -85.9219 323.095 -81.4023C326.63 -79.2783 329.377 -76.046 326.795 -72.7304C324.003 -69.1401 317.156 -66.3832 310.425 -63.6202C297.101 -58.1498 283.269 -52.8893 268.275 -48.4592C260.685 -46.2148 253.584 -43.9766 246.421 -41.3958C238.555 -38.5618 232.411 -36.3853 223.681 -36.6539C209.578 -37.0676 200.701 -42.5195 191.819 -45.9154C187.06 -47.7677 181.327 -49.2279 177.453 -51.4321C173.491 -53.6888 170.923 -56.3716 168.185 -59.0204C165.54 -61.5796 162.041 -64.1666 155.306 -64.9724C148.298 -65.8121 139.626 -63.9228 132.628 -61.3512C118.663 -56.2172 109.336 -49.1415 97.4585 -43.2697C91.8714 -40.4912 84.3612 -37.0305 76.6016 -35.8605C68.8421 -34.6905 61.0959 -35.8605 56.5996 -37.58C54.2089 -38.5062 52.4327 -39.6824 50.2157 -40.6672C47.9986 -41.652 45.1539 -42.3404 42.4205 -43.1369C36.757 -44.8172 30.8623 -46.0946 24.8269 -46.9496C18.8258 -47.7924 11.4224 -49.0519 3.71628 -48.064C-4.84904 -46.9681 -8.56187 -42.1552 -9.86181 -39.1854C-11.371 -35.7277 -8.63755 -33.0913 -6.6921 -30.2696C-4.74665 -27.448 -2.68545 -24.7714 0.809234 -22.3356C7.58937 -17.6092 14.6678 -12.8396 18.0111 -7.08509C19.6805 -4.21403 20.0501 -1.05895 21.3366 1.89237C22.7746 5.19563 22.1647 7.83207 17.8286 11.5768C15.4112 13.6637 14.0089 15.3184 18.2248 16.1365C21.301 16.7354 25.2453 16.6243 28.5486 17.0627C34.9948 17.8993 40.8401 19.3719 46.7566 20.5573C52.8066 21.7675 58.5272 23.0734 63.5088 24.8794C68.6329 26.7317 71.3173 29.1458 73.6679 31.9428C75.999 34.6159 78.0722 37.3933 79.8738 40.2565C81.5966 43.1245 81.7836 46.3289 83.4352 49.1877C84.2633 50.6201 86.4268 51.7006 87.7891 52.9818C89.1514 54.2629 90.5982 55.5966 92.0851 56.8808C94.9922 59.3876 98.7629 61.7462 100.098 64.6914C101.434 67.6365 98.607 71.2608 96.39 74.5981C94.0039 78.1822 92.2855 81.2601 93.3138 84.4986C94.3422 87.737 95.5041 90.2685 100.918 92.2473C103.566 93.2167 106.229 93.9175 106.941 95.5784C107.555 97.0108 106.972 98.6841 106.375 100.28C103.419 108.242 88.8887 111.551 70.8543 114.172C62.0175 115.454 55.4733 115.744 48.8534 119.587C43.9021 122.39 39.6397 125.732 36.2324 129.482C33.1829 132.788 27.774 136.175 23.9677 139.478C19.961 142.954 16.4218 146.05 13.773 149.588C11.1241 153.126 5.91547 156.164 0.729091 159.421C-1.94201 161.091 -4.09223 162.789 -6.62087 164.478C-8.95808 166.04 -11.9408 167.488 -14.3582 169.04C-16.6553 170.516 -17.7416 173.6 -21.7527 174.724C-28.6619 176.666 -29.481 172.214 -32.121 171.047C-37.9751 168.463 -53.3428 172.717 -62.2242 174.668C-71.3015 176.663 -74.7962 175.215 -82.8407 175.101C-90.066 174.999 -97.6964 176.953 -100.457 173.616C-103.31 170.143 -107.749 167.052 -108.728 163.156C-109.516 160.069 -110.166 157.034 -113.318 154.512C-116.394 152.042 -120.205 149.767 -123.891 147.504C-127.07 145.553 -127.363 140.87 -133.721 140.321C-141.333 139.66 -149.747 143.76 -155.401 146.356C-162.244 149.502 -164.216 152.589 -165.939 156.167C-167.586 159.563 -169.945 162.891 -172.135 166.308C-174.263 169.618 -176.204 173.007 -177.3 176.261C-177.816 177.805 -178.635 179.426 -178.706 180.907C-178.916 184.72 -179.201 189.354 -187.81 193.145C-192.4 195.164 -196.447 194.898 -201.081 196.278C-203.668 197.053 -204.028 198.263 -206.107 199.057" stroke="#A25C28" stroke-width="0.55057" stroke-miterlimit="10"/>
<path d="M140.245 -153.657C138.327 -152.113 137.129 -150.415 137.432 -148.98C138.042 -146.269 143.246 -143.787 148.156 -142.59C160.176 -139.663 182.88 -144.528 196.307 -149.381C211.764 -154.966 226.86 -160.436 243.897 -164.817C249.725 -166.311 262.626 -169.778 267.198 -168.247C271.77 -166.716 272.781 -162.69 273.987 -160.189C275.519 -156.994 276.284 -153.629 276.814 -150.24C277.33 -146.899 276.908 -143.213 278.742 -140.129C280.576 -137.045 284.084 -134.98 290.499 -133.6C295.77 -132.461 304.745 -132.121 307.643 -129.941C309.361 -128.654 309.13 -127.861 307.897 -126.052C306.704 -124.298 303.716 -122.325 301.13 -120.652C295.708 -117.142 289.756 -113.833 285.704 -110.113C277.201 -102.345 280.037 -96.5661 287.258 -91.1852C290.968 -88.4948 295.019 -86.041 299.363 -83.8532C303.712 -81.6027 309.856 -79.7874 313.275 -77.2035C317.001 -74.3942 310.933 -70.8563 304.54 -67.9636C297.536 -64.7681 290.295 -61.8302 282.846 -59.1621C268.396 -54.0405 249.164 -48.425 232.728 -47.2519C224.122 -46.6344 217.013 -47.6779 209.997 -48.6102C202.98 -49.5425 196.223 -50.7002 190.132 -52.2438C183.806 -53.8429 180.784 -56.5133 177.832 -59.3906C174.881 -62.2678 171.8 -64.9258 167.108 -67.1764C162.874 -69.2077 156.512 -71.3595 148.477 -70.9551C140.294 -70.5414 130.727 -67.6642 124.027 -64.8579C109.314 -58.6836 102.881 -50.7095 89.4677 -44.2388C82.4961 -40.8707 74.5229 -38.9134 66.6387 -39.8334C59.8942 -40.6206 55.5803 -43.4022 51.8363 -45.6249C47.5314 -48.1811 43.6138 -50.018 36.1258 -51.0151C29.1632 -51.9413 22.1115 -53.0434 14.5033 -53.4601C6.89512 -53.8769 -0.944562 -53.3089 -7.56889 -49.8327C-13.3963 -46.7764 -17.8081 -43.2385 -20.1275 -39.8303C-22.4825 -36.3264 -20.0874 -33.656 -17.6834 -31.0134C-15.0207 -28.1638 -12.5849 -25.2152 -10.3869 -22.181C-8.26338 -19.1556 -6.12205 -16.1333 -4.01188 -13.1048C-1.90171 -10.0763 1.16116 -7.23919 2.17172 -3.98841C3.20009 -0.666624 1.3882 3.14911 -2.80988 6.81665C-6.7631 10.2804 -11.8649 13.4633 -13.1159 16.9765C-14.2778 20.252 -10.3869 22.5334 -4.74641 23.7683C1.65087 25.1667 9.73538 24.7685 16.5422 25.7749C20.2016 26.3182 22.4765 26.6177 26.8616 26.5189C30.8091 26.3904 34.7644 26.4369 38.7034 26.6578C46.1024 27.1703 52.611 28.9115 56.8669 31.1743C65.5435 35.7897 68.3393 42.5752 71.7405 48.6847C75.2441 54.9825 83.155 60.1659 85.096 66.8372C86.0709 70.1837 84.998 73.8018 83.8139 77.4354C82.6475 81.0104 82.4783 84.4062 82.6697 87.8083C82.8523 91.0653 84.3302 94.5753 81.2896 98.1657C78.0176 102.025 69.8217 104.856 61.4924 106.856C57.2987 107.866 52.7801 108.631 48.7779 109.891C44.7757 111.15 41.2944 112.836 37.8264 114.342C30.8949 117.359 25.3969 120.825 18.8216 123.974C15.5673 125.518 12.0993 126.821 9.47272 128.568C6.7571 130.359 6.40987 131.84 5.96023 133.612C5.09658 137.03 3.48502 140.657 -0.272329 144.192C-3.68688 147.412 -10.2266 151.469 -16.2321 154.216C-19.7818 155.836 -23.6165 157.133 -27.6422 158.075C-31.8581 159.1 -34.0395 160.545 -37.8057 161.696C-41.3983 162.808 -45.9259 163.731 -49.7277 164.629C-53.9481 165.626 -58.0037 166.568 -62.3442 167.176C-66.2307 167.723 -69.9123 167.689 -73.7142 167.926C-77.9523 168.189 -81.772 167.988 -84.9016 167.253C-87.733 166.586 -88.7391 165.457 -90.6579 164.432C-92.8838 163.243 -95.5237 162.298 -97.4291 160.977C-101.084 158.443 -103.216 155.42 -106.546 152.778C-113.3 147.406 -116.652 141.333 -118.152 134.684C-118.802 131.8 -122.662 129.343 -129.696 129.127C-137.264 128.883 -145.607 131.748 -151.065 134.783C-156.67 137.904 -161.037 141.8 -164.865 145.158C-168.614 148.417 -171.549 152.088 -173.551 156.019C-175.39 159.548 -176.267 163.388 -180.371 166.948C-182.613 168.874 -185.213 170.586 -188.104 172.038C-189.698 172.835 -191.608 173.526 -192.961 174.388" stroke="#A25C28" stroke-width="0.55057" stroke-miterlimit="10"/>
<path d="M116.481 -147.381C118.987 -144.494 126.921 -143.624 132.476 -142.022C138.469 -140.296 143.869 -137.413 151.771 -136.817C159.383 -136.246 171.016 -138.944 179.167 -140.71C198.68 -144.939 214.372 -152.564 233.546 -157.167C242.005 -159.192 250.815 -160.341 257.234 -158.692C263.124 -157.18 265.786 -154.028 267.434 -151.067C271.129 -144.442 268.889 -136.882 279.066 -131.942C283.518 -129.781 290.463 -128.41 294.082 -125.959C297.702 -123.508 287.694 -118.507 283.772 -115.58C273.786 -108.115 266.815 -100.453 272.242 -94.1028C277.428 -88.0211 287.155 -83.2977 292.132 -77.1419C297.501 -70.52 276.645 -62.0488 261.442 -58.0015C252.422 -55.5966 242.811 -53.9265 233.88 -53.8956C229.615 -53.8956 226.187 -54.5655 222.025 -54.6365C218.018 -54.7075 213.78 -54.4853 209.756 -54.5686C202.036 -54.7261 195.105 -55.7294 190.39 -57.841C185.204 -60.1687 182.916 -63.4998 179.078 -66.2906C171.982 -71.4492 165.665 -79.0621 145.596 -76.5801C126.052 -74.1628 109.091 -68.2849 99.4884 -60.0175C94.7783 -55.9609 82.5714 -39.9509 68.1786 -43.4363C62.1687 -44.8873 59.8181 -47.712 56.9957 -50.3577C53.7636 -53.3986 47.9362 -54.8002 39.8962 -55.4855C27.618 -56.5259 9.17853 -62.1538 -6.56314 -55.7757C-14.0289 -52.7503 -19.5847 -48.4807 -24.5129 -44.878C-28.6576 -41.8434 -34.7833 -36.9626 -33.0471 -34.1409C-32.1567 -32.7023 -29.5569 -31.5477 -27.834 -30.3529C-25.7912 -28.9931 -23.8969 -27.5299 -22.1668 -25.9754C-18.8012 -22.8079 -17.617 -19.2206 -17.1585 -15.4018C-16.7133 -11.7497 -16.3527 -8.13774 -14.5987 -4.73261C-13.0049 -1.64545 -12.6132 1.54976 -18.5697 5.1463C-24.2992 8.60083 -29.1962 11.9905 -34.4182 15.5284C-37.1517 17.3807 -39.9474 19.1991 -43.0103 20.9865C-45.6413 22.5301 -48.4059 24.7374 -48.1121 26.3273C-47.4799 29.7232 -37.303 29.9177 -31.2441 30.7389C-28.1278 31.1618 -24.8468 31.4273 -21.7662 31.8749C-18.3739 32.3689 -14.71 33.0604 -11.0194 33.3043C-7.32886 33.5482 -2.87259 32.8906 1.20974 32.4708C5.70609 32.0077 10.2292 31.7051 14.6187 31.4829C23.5223 31.0352 32.8712 30.6802 39.4821 32.3936C52.6284 35.7894 55.8248 43.2326 60.3434 49.586C65.2048 56.4209 72.2698 62.8299 73.3205 70.5262C73.8369 74.3018 73.0489 78.2688 72.6661 82.1709C72.301 85.8385 72.9688 89.4967 71.1079 93.331C69.3272 97.0356 64.7418 100.475 56.8087 103.25C48.5639 106.13 39.2239 108.208 30.988 111.135C22.9747 113.972 17.1161 117.803 9.2453 120.748C1.37446 123.693 -7.5381 125.607 -15.0751 128.682C-18.7166 130.167 -21.1162 131.791 -22.9058 133.643C-24.5574 135.35 -23.6226 137.129 -23.5602 138.697C-23.4267 141.972 -22.1 144.964 -25.5458 148.604C-27.3755 150.539 -29.3699 151.999 -33.6614 153.37C-37.7838 154.67 -41.3453 155.809 -45.1427 157.282C-51.5355 159.751 -61.9973 161.668 -69.0802 161.949C-77.4853 162.283 -82.1152 160.437 -87.4796 158.692C-93.3694 156.775 -97.2736 153.605 -100.537 150.709C-107.308 144.701 -108.693 137.558 -112.597 130.846C-114.409 127.734 -118.487 125.777 -123.455 123.746C-128.258 121.788 -130.208 117.88 -136.628 116.704C-144.196 115.33 -153.433 120.202 -158.998 123.002C-165.124 126.089 -163.708 129.973 -165.315 133.189C-169.215 140.969 -176.734 148.934 -181.235 156.769C-183.247 160.27 -184.859 164.008 -191.265 167.265" stroke="#A25C28" stroke-width="0.55057" stroke-miterlimit="10"/>
<path d="M97.6812 -155.58C91.186 -147.758 106.242 -143.114 118.284 -140.66C124.614 -139.4 130.772 -137.757 136.688 -135.752C142.271 -133.847 149.291 -132.664 158.324 -133.674C176.483 -135.715 193.369 -140.487 209.605 -145.856C217.502 -148.468 225.751 -151.197 234.446 -152.919C244.409 -154.895 251.198 -153.765 255.988 -151.104C264.781 -146.226 260.845 -137.919 266.909 -132.241C269.914 -129.423 275.078 -127.222 277.424 -124.215C279.904 -121.041 275.643 -116.979 271.637 -113.289C267.63 -109.6 263.401 -105.933 259.848 -102.225C256.064 -98.2765 257.76 -94.8868 261.233 -92.1145C267.701 -86.959 278.938 -81.646 277.157 -74.4807C275.256 -66.8369 255.61 -59.1375 238.07 -58.5726C233.783 -58.4305 230.15 -58.8813 226.05 -58.9523C221.95 -59.0233 217.654 -58.6436 213.482 -58.6065C204.93 -58.5108 198.11 -59.6901 193.324 -62.0487C188.637 -64.3641 185.756 -67.4728 183.005 -70.418C180.254 -73.3631 177.284 -76.1292 174.159 -78.9324C172.655 -80.2815 171.199 -81.6151 169.885 -83.0167C168.327 -84.6807 166.64 -85.116 161.48 -84.3226C152.679 -82.9735 143.9 -81.6182 135.099 -80.4327C126.231 -79.2349 117.443 -78.3798 108.597 -77.256C98.4826 -75.9718 93.9283 -72.4771 88.0964 -68.7447C85.1931 -66.8284 82.1342 -65.0287 78.9346 -63.3546C74.732 -61.1935 72.5418 -60.6687 67.2886 -60.6811C58.9592 -60.7058 50.5096 -60.7027 42.3093 -60.8972C34.5409 -61.0793 28.2104 -62.8205 20.9094 -63.4719C13.8933 -64.0893 3.90787 -64.9012 -4.18556 -61.99C-11.6691 -59.2949 -17.4119 -55.1396 -22.7987 -51.8024C-28.4703 -48.2985 -34.6806 -44.7019 -39.2704 -41.0251C-43.8603 -37.3483 -44.8219 -33.3721 -41.1224 -30.7449C-37.3383 -28.0498 -31.5688 -26.1574 -28.1809 -23.2554C-24.7931 -20.3535 -26.0129 -16.7199 -27.5042 -12.9752C-28.9377 -9.37557 -30.2065 -5.52589 -29.7079 -2.17014C-29.4497 -0.401201 -28.9066 1.18252 -30.95 3.19843C-32.7307 4.97355 -36.7373 7.01108 -39.5064 8.70284C-45.3472 12.2593 -50.9476 15.5286 -57.8924 18.7948C-64.263 21.7955 -71.5863 25.355 -72.4232 28.9237C-73.2602 32.4925 -67.7087 34.9684 -60.4879 35.5519C-52.7728 36.1847 -44.9065 36.5583 -36.8664 36.8886C-29.0312 37.2128 -21.5165 37.966 -13.2717 37.8333C2.50554 37.574 25.4592 32.085 35.4135 37.185C39.941 39.4973 41.9131 42.8129 44.3438 45.7642C46.8636 48.8267 49.508 51.8582 52.2236 54.8682C57.5658 60.811 62.1601 66.8804 62.4094 73.9561C62.534 77.457 62.1423 81.0319 62.1823 84.5482C62.2179 87.9935 63.2285 91.7567 60.0677 95.5138C56.5062 99.7432 49.8285 102.306 40.5108 104.649C36.2905 105.704 31.8119 106.535 27.7296 107.761C23.5627 108.995 20.2728 110.693 16.836 112.302C9.82881 115.58 2.79046 118.859 -5.77487 121.341C-14.0152 123.73 -23.2973 124.03 -31.5554 124.663C-35.749 124.971 -40.2409 125.506 -42.1508 127.63C-43.7356 129.395 -42.4669 130.954 -42.4579 132.538C-42.4579 134.329 -43.1346 136.119 -42.0617 137.737C-40.9888 139.355 -38.8698 140.481 -39.2971 142.426C-40.1875 146.396 -42.4713 149.644 -49.8391 153.398C-56.4189 156.757 -67.3259 157.51 -74.3598 156.942C-81.7721 156.325 -87.4437 153.67 -91.2144 151.231C-95.221 148.653 -97.7808 145.714 -100.118 142.645C-104.775 136.514 -104.748 129.173 -111.332 123.551C-114.702 120.674 -117.356 117.957 -118.455 114.491C-118.985 112.827 -118.834 111.03 -119.435 109.384C-120.036 107.739 -121.923 106.374 -123.766 105.081C-125.604 103.719 -127.548 102.428 -129.589 101.213C-131.37 100.209 -132.892 98.2243 -137.407 99.0733C-145.126 100.524 -147.699 106.174 -150.272 108.801C-153.874 112.465 -159.1 116.263 -164.634 119.711C-170.608 123.449 -173.377 126.892 -175.951 130.785C-178.43 134.545 -179.654 138.401 -180.848 142.077C-182.041 145.754 -184.267 149.471 -186.862 153.216C-189.181 156.572 -191.398 161.332 -198.913 164.126" stroke="#A25C28" stroke-width="0.55057" stroke-miterlimit="10"/>
<path d="M-220.553 62.2588C-215.901 60.5238 -210.443 58.8012 -206.352 56.8161C-202.114 54.7601 -200.191 52.4941 -197.925 50.2219C-195.872 48.1597 -193.473 45.5727 -189.301 43.9056C-187.067 42.9807 -184.674 42.2546 -182.178 41.7446C-179.392 41.1982 -176.769 41.2568 -174.014 40.6579C-168.258 39.4231 -163.775 38.2376 -157.765 37.7436C-152.351 37.296 -147.663 37.3516 -142.09 36.3421C-136.93 35.4159 -131.85 34.3786 -126.655 33.5235C-121.073 32.5973 -116.483 31.3223 -111.096 30.0041C-104.926 28.4945 -100.438 28.2506 -96.6588 29.751C-93.498 31.0044 -91.5213 32.7054 -89.4423 34.357C-87.4257 35.9593 -85.084 37.4596 -82.9827 39.0341C-80.3339 41.0222 -78.6689 41.7971 -72.4319 41.7786C-62.2506 41.7508 -51.7487 41.1611 -41.8078 41.4698C-32.1784 41.7786 -22.9142 42.2509 -12.5548 41.6705C-2.31556 41.0932 9.41946 39.4817 19.0087 39.8583C24.6447 40.0775 26.2251 41.1457 28.0103 43.177C29.5951 44.9738 30.6235 46.9156 32.244 48.7031C38.757 55.8776 49.3613 61.8111 51.3869 70.1743C52.393 74.3635 51.3869 78.7967 51.1331 83.1774C50.8794 87.413 52.7269 91.3306 51.2132 95.7236C50.4386 97.9711 47.1309 100.438 41.4192 101.568C35.9613 102.648 30.3653 103.111 25.0899 104.686C15.4384 107.551 7.99488 112.237 -0.686192 115.667C-11.5353 119.958 -20.4746 119.371 -31.4038 119.507C-36.0961 119.572 -42.293 119.884 -45.7165 122.255C-48.7482 124.351 -49.4159 126.956 -49.4337 128.938C-49.4738 133.26 -47.9112 137.376 -47.7242 141.664C-47.5506 145.603 -52.5278 151.74 -64.5254 152.818C-75.655 153.818 -82.778 150.795 -87.4702 147.758C-89.8519 146.22 -91.3388 144.491 -92.8079 142.71C-94.277 140.929 -96.6632 139.274 -97.7049 137.376C-99.8952 133.473 -99.9709 129.08 -102.5 125.246C-104.984 121.48 -107.285 117.837 -107.673 113.632C-108.438 105.244 -112.57 97.4339 -116.198 89.5956C-117.435 86.9314 -123.036 80.1273 -133.404 84.5296C-137.731 86.3664 -140.082 89.0059 -143.238 91.1083C-146.395 93.2107 -149.685 95.2605 -152.222 97.4771C-157.351 101.981 -159.87 106.643 -163.797 111.184C-167.639 115.633 -172.073 120.282 -177.847 124.619C-183.737 129.046 -190.659 133.368 -192.685 137.987C-194.621 142.405 -191.696 146.631 -195.258 151.11C-197.542 153.988 -203.009 154.398 -205.337 152.422C-206.975 151.033 -205.782 148.187 -206.227 146.418C-206.781 144.311 -207.791 142.274 -209.223 140.376" stroke="#A25C28" stroke-width="0.55057" stroke-miterlimit="10"/>
<path d="M-214.134 65.2504C-209.865 63.6605 -205.346 62.0706 -201.42 60.311C-197.266 58.4587 -195.561 56.3717 -192.73 54.2848C-187.147 50.1758 -180.327 46.1038 -169.847 44.0632C-164.808 43.0846 -160.053 42.8284 -155.268 42.6925C-150.567 42.5505 -145.919 42.779 -140.902 41.7293C-131.339 39.7165 -122.053 35.9378 -112.072 35.3791C-101.961 34.8141 -97.8258 38.7317 -93.3472 41.3126C-88.9533 43.8471 -81.8392 46.8015 -72.526 46.4157C-67.8605 46.2242 -62.9011 45.4895 -58.2 45.3074C-53.5865 45.1246 -48.9611 45.1401 -44.3503 45.3537C-35.1707 45.7951 -26.6187 46.2983 -16.5754 45.7673C-6.67896 45.2487 2.40278 44.0941 10.1 45.8816C17.0894 47.5054 19.7115 51.6793 23.7627 54.5009C27.9474 57.4214 32.4972 60.0763 36.023 63.2314C39.6869 66.5131 42.3179 69.8719 42.0997 74.0365C41.8994 77.9664 39.5711 82.1248 39.2907 86.0486C39.0636 89.2191 43.462 94.9767 35.0125 97.9836C30.6229 99.5457 25.6191 100.595 21.2118 102.167C16.8045 103.738 12.8067 105.495 8.75999 107.208C4.71328 108.921 0.666565 110.663 -3.4959 112.333C-8.41962 114.308 -11.6784 115.157 -17.3322 115.235C-22.0111 115.293 -26.641 115.284 -31.2976 115.315C-35.6693 115.346 -41.6704 115.272 -46.0599 116.933C-54.1355 119.986 -54.9635 125.703 -55.0793 128.972C-55.2128 133.02 -53.8995 136.798 -54.8967 140.982C-55.3419 142.923 -56.0809 145.174 -59.6379 147.088C-63.6446 149.249 -68.8354 149.147 -72.802 148.588C-81.1002 147.421 -84.7997 143.856 -87.1191 140.383C-88.2944 138.617 -90.8942 137.295 -92.0695 135.542C-93.1958 133.85 -93.4051 131.955 -94.2954 130.22C-96.232 126.568 -98.1196 122.888 -98.7473 118.97C-99.3616 115.139 -97.6966 110.981 -98.3377 107.159C-98.9788 103.337 -100.898 99.5982 -102.709 95.9954C-104.521 92.3927 -105.465 88.543 -107.5 84.9805C-109.476 81.5197 -111.626 77.6423 -117.823 75.5245C-120.704 74.5428 -125.236 73.6043 -129.906 74.055C-136.103 74.657 -137.376 77.0434 -139.17 79.1982C-142.691 83.4307 -146.511 87.586 -152.298 91.695C-158.086 95.804 -161.701 100.003 -165.596 104.232C-167.595 106.393 -169.937 108.554 -172.091 110.715C-174.139 112.774 -175.038 114.855 -176.743 116.92C-180.305 121.242 -185.647 125.274 -195.886 128.034C-201.642 129.578 -205.404 129.476 -210.132 128.96" stroke="#A25C28" stroke-width="0.55057" stroke-miterlimit="10"/>
<path d="M-156.265 48.9904C-149.846 49.0243 -144.628 50.3796 -137.933 50.04C-130.707 49.6695 -123.891 48.4223 -117.659 49.3299C-112.032 50.1542 -105.568 49.9659 -100.234 51.1143C-94.5762 52.3338 -91.1171 53.8928 -83.1394 53.4143C-76.3816 52.9944 -69.3655 51.7534 -62.6388 51.4354C-56.3963 51.1658 -50.1298 51.4051 -43.9678 52.1485C-37.9445 52.837 -32.6112 53.8681 -26.0759 54.1613C-19.8433 54.4423 -13.4193 54.5503 -8.34869 55.7358C-3.27806 56.9213 0.42587 58.7674 4.06747 60.6012C7.70906 62.4349 12.4903 63.9229 15.7847 65.9234C22.7028 70.125 23.6911 75.2127 21.759 81.2759C20.8197 84.2241 19.8848 87.0396 19.7646 89.8983C19.7157 91.09 20.379 92.7138 19.0345 94.0073C17.6901 95.3008 13.6345 96.724 11.2038 97.7983C-0.682637 103.047 -13.0276 106.807 -27.8922 108.532C-41.7374 110.144 -57.6171 111.561 -64.5041 118.59C-65.9322 120.038 -67.2245 121.547 -68.3727 123.11C-69.4189 124.546 -71.4578 126.086 -71.0883 127.404C-70.7188 128.722 -68.7244 129.729 -67.7406 130.914C-66.7567 132.1 -66.6409 133.452 -66.7344 134.829C-66.8457 136.406 -68.1012 137.172 -70.6788 138.654C-75.6515 137.484 -78.3671 135.36 -78.4027 132.622C-78.4027 131.3 -77.4812 129.67 -77.7661 128.423C-78.0287 127.284 -80.7666 126.453 -81.8484 125.462C-84.4483 123.076 -85.2452 121.072 -84.2301 117.948C-83.3398 115.17 -81.5813 112.259 -81.0204 109.505C-79.9208 104.105 -84.0565 99.1382 -86.2735 94.3222C-88.5395 89.3982 -91.4733 84.6038 -93.904 79.7107C-95.1327 77.241 -95.5556 74.6169 -96.6819 72.1317C-97.7593 69.7577 -98.3513 66.8619 -100.738 64.8244C-103.502 62.4658 -109.815 62.4812 -116.096 62.259C-122.24 62.0429 -128.143 61.6138 -135.083 62.5677C-141.365 63.4167 -149.022 65.6301 -153.781 67.9887C-159.034 70.5974 -159.199 73.6012 -159.123 76.1882C-159.052 78.9327 -158.086 81.3469 -159.769 84.3105C-161.38 87.1538 -164.189 90.0496 -167.079 92.8959C-169.968 95.7423 -172.692 98.6164 -175.537 101.475C-178.382 104.334 -182.041 107.146 -184.886 110.008C-187.588 112.709 -189.258 116.019 -194.008 118.51C-199.052 121.159 -207.394 121.214 -213.24 121.437" stroke="#A25C28" stroke-width="0.55057" stroke-miterlimit="10"/>
<path d="M-65.7372 54.1459C-52.3372 53.5532 -42.9439 55.674 -32.2995 57.3689C-27.0553 58.1993 -20.8583 58.224 -15.5428 59.002C-10.8489 59.693 -6.39223 61.0076 -2.41884 62.8733C4.851 66.192 12.5438 69.5261 13.1937 74.87C13.8454 80.4242 12.4674 86.0028 9.18708 91.0899C5.43864 96.8413 -8.03261 101.824 -20.7871 104.349C-27.309 105.64 -33.9155 106.445 -40.4597 107.347C-47.0841 108.258 -53.9399 109.582 -60.5197 110.335C-68.4172 111.24 -70.6565 109.1 -72.3838 106.631C-73.9409 104.32 -75.3054 101.949 -76.4706 99.5302C-78.9458 94.6772 -81.2563 89.8211 -84.1367 85.0576C-87.017 80.2941 -89.7326 75.6665 -90.4761 70.4708C-90.8456 67.9548 -91.1527 65.2226 -89.5857 62.4874C-87.805 59.3447 -82.2713 57.2824 -75.4378 55.637C-72.2102 54.859 -68.947 54.2447 -65.7105 54.1335" stroke="#A25C28" stroke-width="0.55057" stroke-miterlimit="10"/>
<path d="M-64.9938 57.0694C-53.6817 56.0599 -44.2216 58.2333 -36.1504 59.9899C-27.6163 61.8422 -16.8963 61.728 -9.63977 64.4169C-2.81066 66.9483 2.82536 70.2825 4.45918 74.4995C6.093 78.7166 4.66396 83.8258 1.84595 88.5615C-1.11896 93.5442 -8.46003 98.2799 -20.2975 101.065C-30.4654 103.457 -44.0569 105.794 -54.1047 106.026C-65.9955 106.3 -68.2481 101.068 -70.1001 97.0543C-72.0589 92.8033 -73.9287 88.5831 -76.9381 84.5698C-79.8585 80.68 -83.5001 76.9137 -84.0966 72.5021C-84.6487 68.4271 -84.0966 62.4195 -73.3009 58.6686C-70.7097 57.7633 -67.8872 57.2199 -64.9938 57.0694" stroke="#A25C28" stroke-width="0.55057" stroke-miterlimit="10"/>
<path d="M-214.308 70.9831C-207.75 66.8123 -198.401 63.5245 -192.235 59.2117C-186.07 54.899 -180.362 50.401 -169.313 47.8819C-164.345 46.7802 -159.169 46.1945 -153.954 46.1438C-148.906 46.0728 -144.806 46.7612 -139.263 45.8505C-133.654 44.9429 -128.325 43.035 -123.299 41.405C-120.703 40.5653 -117.271 39.244 -114.333 39.173C-111.564 39.1205 -110.469 40.235 -109.102 40.9543C-103.07 44.1094 -96.8728 47.6966 -86.5401 48.7061C-81.3359 49.2186 -75.4105 48.595 -69.8413 48.6413C-63.6488 48.6938 -57.434 48.7278 -51.2682 48.8111C-47.2616 48.8667 -44.0963 48.7771 -40.428 49.1754C-36.4134 49.6285 -32.3644 49.9202 -28.3012 50.0491C-20.8756 50.2559 -12.6753 49.5397 -5.53011 50.0491C2.08697 50.6078 6.68571 54.3464 11.0351 56.5969C20.1881 61.3357 33.4368 66.3493 32.7334 73.9066C32.3772 77.6699 30.6099 81.5628 29.8798 85.3662C29.1719 89.0337 31.9142 93.0841 24.3595 96.9183C17.6817 100.286 8.09695 103.506 0.221658 106.337C-8.95357 109.634 -16.9802 110.968 -27.0057 111.613C-35.9094 112.178 -46.4736 112.206 -53.5119 116.457C-59.5397 120.094 -61.4585 124.536 -61.1468 128.031C-60.8174 131.711 -59.6466 135.387 -61.1468 139.324C-61.7612 140.926 -63.3193 144.115 -68.4478 144.328C-70.197 144.409 -71.9512 144.235 -73.598 143.819C-75.2448 143.402 -76.7477 142.751 -78.0104 141.908C-82.0571 139.24 -85.2624 135.662 -86.736 132.291C-88.2496 128.846 -90.9474 125.601 -91.5929 121.983C-92.2562 118.3 -91.1076 114.478 -89.4961 110.527C-87.7999 106.365 -90.7738 103.364 -92.1672 99.7585C-93.5027 96.2947 -95.5595 92.9853 -96.8194 89.5184C-98.1282 85.9157 -99.4593 82.3284 -101.534 78.8924C-102.531 77.2346 -101.979 75.231 -103.626 73.7461C-105.273 72.2612 -107.254 70.6867 -109.725 69.5445C-114.417 67.3835 -124.79 66.5839 -133.289 67.4761C-136.215 67.786 -139.023 68.4953 -141.551 69.563C-145.291 71.1498 -145.647 73.1317 -146.488 74.8667C-147.732 77.3992 -149.238 79.866 -150.994 82.2481C-158.513 92.5129 -173.008 102.515 -180.883 112.755C-182.789 115.225 -183.964 118.161 -188.064 120.51C-192.382 122.98 -199.256 124.292 -205.119 124.635C-208.164 124.814 -210.608 124.635 -213.453 124.616" stroke="#A25C28" stroke-width="0.55057" stroke-miterlimit="10"/>
</g>
</svg>
