<svg width="297" height="186" viewBox="0 0 297 186" fill="none" xmlns="http://www.w3.org/2000/svg">
<g clip-path="url(#clip0_2501_9837)">
<g style="mix-blend-mode:multiply">
<path d="M273.212 340.369C272.051 337.812 272.024 333.945 272.488 331.135C273.077 327.585 275.702 326.606 278.609 326.27C283.546 325.699 289.949 326.348 293.322 321.376C296.527 316.649 298.742 311.119 301.955 306.336C303.57 303.934 305.053 301.476 306.489 298.949C307.925 296.422 308.351 293.294 309.745 290.952C311.561 287.901 315.281 290.054 317.57 291.219C320.059 292.508 322.68 293.642 325.417 294.025C330.687 294.759 335.975 292.353 340.559 289.689C342.933 288.309 345.333 287.111 346.905 284.644C348.477 282.177 349.929 279.638 351.768 277.395C355.36 273.012 360.061 269.759 364.676 266.875C369.178 264.065 374.316 261.289 376.894 256.029C379.992 249.704 376.577 244.878 372.163 240.916C368.067 237.238 363.433 234.269 359.24 230.715C356.948 228.773 356.197 225.988 354.842 223.251C353.529 220.621 352.19 218.253 350.285 216.109C348.608 214.218 346.065 211.468 345.786 208.692C345.461 205.457 348.357 203.132 351.013 203.128C353.669 203.123 356.34 204.451 358.911 205.005C361.66 205.603 364.099 205.886 366.882 205.392C372.016 204.49 377.417 203.05 382.644 203.536C387.871 204.021 392.772 207.682 397.805 209.298C403.256 211.047 408.258 209.638 413.764 210.226C416.772 210.553 418.971 211.769 422.01 210.733C424.639 209.835 427.365 209.04 430.141 209.148C435.426 209.354 441.047 210.716 446.015 207.94C451.353 204.954 453.371 199.866 452.503 193.459C452.07 190.288 452.616 187.911 454.439 185.398" stroke="#83A33F" stroke-width="0.55057" stroke-miterlimit="10"/>
<path d="M259.847 340.369C258.907 333.455 260.022 323.907 263.522 318.024C267.866 310.719 274.699 310.444 281.467 307.711C284.73 306.392 287.533 304.492 290.371 302.297C293.143 300.148 296.334 297.918 298.502 295.034C300.67 292.151 301.777 288.438 304.011 285.551C306.198 282.727 309.458 280.261 312.776 279.535C316.361 278.731 319.521 279.586 323.028 280.248C326.656 280.936 329.61 280.961 332.955 279.019C339.065 275.452 344.303 270.107 349.603 265.268C353.862 261.401 363.154 254.551 360.521 247.323C359.259 243.843 356.204 241.024 353.967 238.299C351.68 235.502 349.536 232.564 347.547 229.499C339.533 217.291 329.471 205.435 316.574 199.849C310.314 197.124 302.505 196.604 297.216 191.912C290.247 185.728 307.31 181.564 310.612 180.825C317.329 179.321 324.426 177.869 331.244 179.244C334.508 179.901 337.876 181.328 340.923 182.785C344.167 184.34 346.463 186.927 349.487 188.84C361.876 196.673 376.89 191.847 390 197.498C393.372 198.946 396.105 200.987 399.017 203.308C400.496 204.49 401.677 205.456 403.485 204.842C405.192 204.283 406.899 203.523 408.131 202.036C410.388 199.286 411.301 194.946 414.376 192.978C417.004 191.297 421.821 193.575 424.573 194.417C427.856 195.412 431.051 196.732 434.121 198.362C437.524 200.184 440.412 201.8 443.97 199.814C447.733 197.709 445.832 193.579 445.561 189.806C445.325 185.902 446.152 182.009 447.935 178.634C449.712 175.329 452.325 172.992 454.447 170.001" stroke="#83A33F" stroke-width="0.55057" stroke-miterlimit="10"/>
<path d="M249.03 340.369C249.925 335.44 251.895 330.847 252.662 325.836C253.049 323.258 252.797 320.65 253.289 318.101C253.746 315.691 254.675 313.375 255.523 311.114C257.331 306.263 259.309 301.88 263.595 299.224C267.606 296.74 272.016 295.623 276.345 294.068C280.749 292.485 284.898 290.135 288.637 287.106C292.253 284.171 295.114 280.325 298.277 276.849C304.53 269.974 312.215 263.158 320.795 260.37C327.477 258.169 342.607 258.492 344.838 249.038C345.999 244.144 341.392 239.241 339.189 235.489C337.992 233.452 337.551 230.719 336.262 228.837C334.973 226.955 332.506 225.859 330.842 224.484C323.385 218.283 316.776 212.169 307.86 208.619C299.252 205.182 290.631 201.777 281.997 198.405C277.684 196.725 273.596 194.228 269.194 192.965C264.792 191.701 260.239 190.451 255.682 190.447C253.359 190.447 251.179 191.568 248.833 191.495C246.599 191.426 244.431 190.576 242.348 189.776C237.923 188.023 233.695 187.331 229.103 186.485C225.011 185.728 219.811 183.545 217.031 180C215.603 178.174 214.255 175.729 215.165 173.284C216.149 170.641 218.065 169.172 220.493 169.593C225.073 170.388 228.944 172.953 233.064 175.179C237.323 177.461 241.647 177.989 246.312 177.757C255.376 177.328 264.443 176.773 273.499 176.073C277.994 175.729 282.621 175.583 287.05 174.663C291.479 173.744 295.803 172.021 300.295 171.191C309.342 169.524 318.236 168.974 327.373 168.424C329.874 168.273 331.91 168.102 334.283 169.154C336.366 170.083 338.229 171.436 340.195 172.614C344.268 175.054 348.365 177.074 352.081 180.194C356.061 183.528 359.662 185.196 364.66 184.001C366.983 183.451 369.105 182.591 371.494 183.021C373.763 183.503 375.996 184.171 378.176 185.019C382.407 186.602 386.794 187.612 391.243 188.027C396.245 188.457 400.093 187.254 404.697 185.273C408.917 183.46 413.423 183.245 417.86 184.074C422.185 184.886 427.311 186.278 431.647 184.886C436.15 183.447 438.659 178.69 439.828 173.984C440.939 169.511 440.47 162.842 443.63 159.421C446.665 156.134 450.792 153.44 454.397 150.995" stroke="#83A33F" stroke-width="0.55057" stroke-miterlimit="10"/>
<path d="M233.048 340.369C233.849 337.817 236.738 336.377 238.658 334.886C240.658 333.32 242.385 331.363 243.753 329.111C246.579 324.504 246.13 318.823 246.463 313.508C246.796 308.283 246.785 302.658 248.302 297.647C249.94 292.233 253.537 288.924 258.051 286.513C262.426 284.18 267.087 282.899 271.602 281C276.106 279.09 280.394 276.603 284.378 273.587C292.253 267.666 299.446 259.678 303.372 249.953C304.402 247.405 305.42 245.368 307.588 243.834C309.636 242.382 311.886 241.157 313.783 239.49C317.875 235.919 319.203 230.333 316.021 225.438C313.171 221.068 308.158 218.992 303.825 217.033C299.268 214.953 294.719 212.865 290.127 210.88C271.977 203.024 252.902 200.781 233.714 198.173C229.006 197.533 224.333 196.776 219.637 196.106C217.194 195.754 214.875 194.911 212.525 194.125C210.291 193.382 207.468 193.201 205.556 191.646C202.005 188.749 199.136 183.296 197.139 179.029C194.7 173.808 193.987 168.488 198.126 164.299C201.591 160.796 205.23 157.264 208.409 153.435C211.057 150.247 215.808 142.869 220.26 145.271C224.712 147.673 228.429 151.433 232.92 153.758C237.209 156.014 241.81 157.454 246.529 158.016C251.388 158.579 256.32 158.339 261.195 158.622C265.93 158.893 270.626 159.576 275.311 160.341C280.158 161.145 284.99 162.146 289.899 161.781C294.622 161.428 299.284 160.354 303.996 159.83C308.897 159.288 313.748 159.795 318.634 160.345C323.323 160.878 328.127 160.87 332.781 161.733C335.207 162.124 337.58 162.845 339.847 163.882C342.108 164.978 343.924 166.89 346.169 167.968C348.314 168.987 350.815 169.258 353.072 169.906C355.329 170.555 357.718 171.909 360.064 172.231C362.461 172.562 364.912 171.917 367.32 172.012C369.815 172.104 372.285 172.604 374.649 173.494C379.295 175.291 382.95 178.789 388.079 178.991C393.798 179.21 396.237 174.925 399.497 170.598C401.166 168.385 403.206 166.847 405.924 167.668C408.119 168.329 409.954 170.594 411.905 171.87C415.738 174.38 420.926 177.345 425.456 176.137C431.445 174.552 430.423 168.402 430.377 162.992C430.33 157.097 433.207 153.182 437.133 149.59C441.059 145.997 444.249 142.77 446.239 137.489C447.126 135.143 447.97 132.762 448.794 130.386C449.143 129.372 449.449 127.378 450.44 126.871C451.431 126.364 453.444 127.403 454.404 127.7" stroke="#83A33F" stroke-width="0.55057" stroke-miterlimit="10"/>
<path d="M124.929 340.369C127.074 339.467 129.285 336.334 130.911 334.491C132.623 332.502 134.192 330.367 135.603 328.105C138.464 323.628 141.434 319.223 144.543 314.96C148.163 310.006 151.756 306.821 157.768 308.085C162.653 309.155 167.238 311.503 171.141 314.934C174.769 318.157 176.999 324.99 182.132 325.342C184.587 325.51 187.119 324.564 189.423 323.731C190.913 323.189 191.854 322.553 193.321 323.456C194.541 324.203 195.544 325.604 196.566 326.648C200.252 330.365 204.75 333.24 209.911 332.613C215.626 331.912 217.991 327.551 221.472 323.159C223.338 320.813 226.219 319.21 229.002 320.418C231.197 321.367 233.288 324.526 235.584 324.917C238.681 325.432 239.808 320.972 239.405 318.54C238.956 315.841 238.286 313.186 237.787 310.5C236.788 305.116 236.06 299.572 237.531 294.205C238.968 288.971 242.243 283.892 245.883 280.222C253.699 272.38 263.719 271.469 272.837 266.553C281.652 261.796 290.004 254.843 294.975 245.334C297.065 241.338 301.452 234.883 299.985 230.023C298.579 225.374 292.629 221.541 288.943 219.362C279.848 214.003 270.065 212.487 260.184 209.908C250.463 207.373 240.637 205.693 230.83 203.626C225.886 202.582 220.907 201.959 215.936 201.125C211.139 200.317 205.955 199.561 201.642 196.944C197.646 194.52 193.569 189.428 190.82 185.436C187.723 180.924 187.262 175.102 188.466 169.726C190.917 158.772 200.159 151.923 204.123 141.756C205.047 139.218 206.304 136.844 207.852 134.713C210.12 131.645 211.603 131.219 215.01 132.685C219.656 134.687 224.472 136.337 229.026 138.658C233.768 141.077 237.725 143.634 242.963 144.674C247.958 145.658 252.677 145.825 257.726 146.036C267.839 146.466 277.514 149.688 287.437 151.321C292.563 152.181 297.151 151.27 302.052 149.602C304.878 148.631 307.058 148.425 309.888 149.547C312.289 150.501 314.639 151.523 317.082 152.344C326.513 155.507 336.757 155.679 346.537 155.305C351.903 155.103 356.456 154.914 361.516 157.195C366.131 159.275 370.251 162.309 374.61 164.93C376.666 166.164 378.946 166.843 381.099 167.835C384.851 169.554 387.607 172.992 390.716 167.934C392.005 165.833 391.878 163.362 393.577 161.364C395.478 159.103 398.61 157.827 401.204 156.938C407.36 154.815 413.741 156.615 418.913 151.326C421.135 149.057 422.642 146.049 424.562 143.505C425.53 142.216 426.556 140.591 427.717 139.526C429.366 138.013 430.478 137.635 430.787 135.057C431.202 131.619 430.633 128.095 431.109 124.64C431.585 121.186 433.498 118.19 435.821 115.827C438.376 113.219 441.535 111.453 444.214 108.995C447.253 106.21 450.459 104.53 454.431 104.672" stroke="#83A33F" stroke-width="0.55057" stroke-miterlimit="10"/>
<path d="M454.404 87.6593C452.856 88.2695 450.92 88.5918 449.65 89.7133C448.461 90.7575 447.373 92.4119 446.348 93.6538C444.059 96.4298 442.557 100.907 439.526 102.631C436.374 104.414 432.944 105.449 429.909 107.491C423.354 111.874 420.144 118.397 417.686 126.14C416.524 129.806 415.251 133.604 412.742 136.427C410.233 139.251 406.419 140.334 403.098 141.3C399.466 142.357 396.198 140.927 392.606 141.3C389.013 141.674 387.572 145.228 384.862 147.428C378.668 152.477 371.114 150.466 365.891 144.656C363.46 141.954 361.245 138.49 357.459 138.778C353.854 139.053 350.637 141.021 347.412 142.645C340.687 146.023 335.085 149.865 327.369 148.395C323.791 147.712 320.4 146.676 317.179 144.858C313.957 143.041 311.03 141.154 307.469 140.342C303.686 139.483 300.62 141.395 297.096 142.529C295.459 143.054 293.612 143.724 291.928 143.423C290.244 143.122 288.47 142.504 286.786 142.052C279.817 140.17 272.899 139.195 265.798 138.103C258.698 137.012 251.756 135.379 244.95 132.766C238.143 130.154 231.635 128.559 224.631 127.008C221.325 126.273 218.801 122.99 215.618 121.504C212.242 119.926 208.622 119.883 205.08 120.752C201.862 121.538 197.898 123.025 195.741 125.947C193.465 129.032 194.135 133.6 194.274 137.304C194.347 139.264 194.529 141.369 194.138 143.299C193.747 145.228 192.617 146.887 191.788 148.554C190.085 151.992 188.153 155.249 186.442 158.665C183.05 165.433 179.523 172.773 179.086 180.662C178.524 190.606 186.411 192.178 192.489 196.643C195.497 198.852 198.269 201.232 201.688 202.659C204.997 204.007 208.404 205.039 211.87 205.744C218.839 207.261 225.808 207.403 232.661 209.908C239.514 212.414 246.521 213.578 253.359 215.967C259.166 218 265.113 219.564 270.951 221.519C273.975 222.538 276.976 223.668 279.899 224.996C281.293 225.636 282.69 226.285 284.03 227.084C287.472 229.082 288.42 233.152 287.274 237.113C285.474 243.327 280.507 246.997 276.015 250.68C271.408 254.452 266.36 257.929 260.452 258.169C257.663 258.203 254.879 257.898 252.151 257.258C250.823 256.975 249.994 256.399 248.666 257.014C247.609 257.495 246.436 258.543 245.511 259.295C243.513 260.915 241.67 263.846 240.187 266.08C238.53 268.586 236.928 271.237 235.425 273.841C232.328 279.208 228.998 284.442 226.072 289.904C224.569 292.562 223.819 295.659 223.919 298.794C223.942 301.987 223.989 305.017 223.013 308.063C221.987 311.265 220.326 313.25 218.394 315.798C216.412 318.411 214.658 320.955 212.006 322.811C206.408 326.713 202.761 322.119 198.006 318.849C192.973 315.412 187.053 317.5 181.827 314.376C176.794 311.368 172.457 307.006 167.413 303.921C162.53 300.939 157.099 299.044 151.802 297.2C145.491 295.017 143.695 302.322 141.027 307.127C138.035 312.502 135.092 317.93 131.317 322.695C127.543 327.461 124.17 331.62 118.154 332.342C104.603 333.975 102.056 317.792 93.3756 310.367C88.8496 306.499 82.4034 307.574 77.2348 309.194C71.2996 311.054 67.366 314.427 62.6155 318.561C60.3351 320.551 58.1128 320.392 55.3833 320.628C52.7196 320.86 50.4973 322.992 48.5886 324.968C47.3497 326.257 47.4968 326.765 46.9897 328.458C46.6025 329.704 45.7081 330.572 44.9803 331.582C43.7452 333.3 40.2608 336.738 40.3692 338.973" stroke="#83A33F" stroke-width="0.55057" stroke-miterlimit="10"/>
<path d="M26.4546 329.394C29.73 328.045 32.4208 324.496 35.0728 322.089C37.7249 319.683 40.2956 316.606 43.5478 315.171C50.1993 312.232 57.385 311.303 63.9745 308.012C70.4871 304.79 77.39 302.644 84.4631 301.644C88.1373 301.119 91.6992 300.316 95.1759 302.133C98.0332 303.633 100.209 308.218 101.734 311.235C104.983 317.68 109.044 326.876 117.066 325.97C124.229 325.157 128.859 316.567 132.378 310.5C135.936 304.377 139.2 295.056 145.67 292.087C151.965 289.195 160.703 293.045 166.576 295.778C173.158 298.838 178.695 304.106 185.261 307.195C191.939 310.341 198.951 310.784 205.277 314.986C206.938 316.09 209.253 316.645 210.422 314.556C211.321 312.949 211.584 310.633 212.246 308.854C213.58 305.24 214.718 301.541 215.653 297.776C217.558 289.994 220.349 282.942 223.466 275.672C226.478 268.637 227.911 260.387 232.049 254.053C234.167 250.804 236.653 247.513 239.951 245.682C243.157 243.907 246.727 243.576 250.242 243.443C257.525 243.172 264.776 244.732 270.948 239.279C274.316 236.306 274.293 232.103 270.173 230.152C266.925 228.614 263.088 228.966 259.635 228.433C256.092 227.883 252.782 226.384 249.332 225.391C245.821 224.381 242.22 223.672 238.817 222.276C235.535 220.867 232.347 219.201 229.277 217.291C225.921 215.28 223.021 213.174 219.149 213.02C212.382 212.753 204.754 210.033 198.571 207.038C195.377 205.491 192.35 203.579 189.175 201.989C185.849 200.326 182.264 199.466 178.722 198.525C176.991 198.066 175.33 197.387 173.619 196.862C171.908 196.338 169.976 196.274 168.442 195.418C164.846 193.412 166.967 187.649 167.974 184.358C170.278 176.825 173.975 169.936 177.614 163.138C180.983 156.843 185.679 148.881 184.68 141.223C183.639 133.248 176.701 127.773 171.129 123.489C169.623 122.337 167.904 121.628 166.483 120.343C165.063 119.058 163.773 117.653 162.41 116.351C159.7 113.773 156.99 111.242 154.172 108.827C151.887 106.85 147.772 100.718 153.192 99.9276C155.012 99.6569 156.735 100.955 158.469 101.333C160.351 101.763 162.105 101.359 163.971 101.122C167.749 100.645 170.634 103.627 173.669 105.724C176.741 107.824 180.141 109.261 183.693 109.961C190.786 111.328 197.937 110.821 205.095 110.701C219.548 110.413 233.474 113.55 246.134 121.375C252.375 125.242 258.876 129.084 265.996 130.399C273.046 131.688 280.294 132.521 287.41 133.273C294.526 134.025 301.564 132.289 308.677 133.862C315.789 135.435 322.03 139.753 328.929 142.061C333.188 143.488 335.762 140.342 339.015 137.669C341.783 135.321 344.768 133.304 347.919 131.653C355.171 128.014 361.629 130.326 367.901 135.022C371.122 137.433 373.859 140.578 377.936 138.567C381.343 136.883 383.933 134.163 387.565 132.792C393.957 130.381 403.373 133.652 406.663 125.031C407.341 123.261 407.287 121.164 406.915 119.329C406.485 117.181 405.123 115.917 404.464 113.966C403.303 110.494 407.593 106.661 409.335 104.083C413.621 97.6931 419.06 92.5495 424.399 87.2382C426.924 84.7287 429.382 82.1676 431.887 79.6409C434.489 77.0067 437.648 75.2664 439.654 71.9576C440.645 70.3247 441.299 68.8894 442.619 67.5273C443.939 66.1651 445.376 64.8802 446.677 63.4794C447.865 62.1902 448.748 60.4714 449.979 59.2811C451.276 58.0306 453.076 57.5063 454.416 56.2731" stroke="#83A33F" stroke-width="0.55057" stroke-miterlimit="10"/>
</g>
</g>
<defs>
<clipPath id="clip0_2501_9837">
<rect width="543.963" height="352.365" fill="white" transform="translate(-93.5967 -24.2251)"/>
</clipPath>
</defs>
</svg>
