<?xml version="1.0" standalone="no"?>
<!DOCTYPE svg PUBLIC "-//W3C//DTD SVG 1.1//EN" "http://www.w3.org/Graphics/SVG/1.1/DTD/svg11.dtd" >
<svg xmlns="http://www.w3.org/2000/svg" xmlns:xlink="http://www.w3.org/1999/xlink" version="1.1">
<metadata>
Created by FontForge 20170731 at Tue Oct 24 15:39:45 2017
 By Aleksey,,,
Copyright (c) Mark Simonson, 2005. All rights reserved.
</metadata>
<defs>
<font id="ProximaNova-ExtrabldIt" horiz-adv-x="589" >
  <font-face 
    font-family="Proxima Nova Extrabold"
    font-weight="800"
    font-style="italic"
    font-stretch="normal"
    units-per-em="1000"
    panose-1="2 0 5 6 3 0 0 2 0 4"
    ascent="790"
    descent="-210"
    x-height="483"
    cap-height="667"
    bbox="-446 -383 1231 1079"
    underline-thickness="104"
    underline-position="-340"
    slope="-12.5"
    unicode-range="U+000D-FB04"
  />
<missing-glyph horiz-adv-x="471" 
d="M80 -90v842h351v-842h-351zM399 722h-288v-782h288v782z" />
    <glyph glyph-name="f_f_j" unicode="ffj" horiz-adv-x="964" 
d="M906 544q-34 0 -57 22t-23 53q0 46 31.5 73.5t68.5 27.5q34 0 57 -22t23 -53q0 -46 -31.5 -73.5t-68.5 -27.5zM35 0l77 349h-80l30 134h79l6 26q18 76 68 122t126 46q70 0 114 -27l-51 -102q-17 12 -43 12q-48 0 -60 -51l-6 -26h99l-30 -134h-98l-77 -349h-154zM384 0
l77 349h-80l30 134h79l6 26q18 76 68 122t126 46q70 0 114 -27l-51 -102q-17 12 -43 12q-48 0 -60 -51l-6 -26h99l-30 -134h-98l-77 -349h-154zM572 -187l30 124q12 -4 29 -4q53 0 69 71l107 479h154l-107 -479q-43 -200 -202 -200q-46 0 -80 9z" />
    <glyph glyph-name="f_j" unicode="fj" horiz-adv-x="615" 
d="M557 544q-34 0 -57 22t-23 53q0 46 31.5 73.5t68.5 27.5q34 0 57 -22t23 -53q0 -46 -31.5 -73.5t-68.5 -27.5zM35 0l77 349h-80l30 134h79l6 26q18 76 68 122t126 46q70 0 114 -27l-51 -102q-17 12 -43 12q-48 0 -60 -51l-6 -26h99l-30 -134h-98l-77 -349h-154zM223 -187
l30 124q12 -4 29 -4q53 0 69 71l107 479h154l-107 -479q-43 -200 -202 -200q-46 0 -80 9z" />
    <glyph glyph-name="f_f" unicode="ff" horiz-adv-x="698" 
d="M35 0l77 349h-80l30 134h79l6 26q18 76 68 122t126 46q70 0 114 -27l-51 -102q-17 12 -43 12q-48 0 -60 -51l-6 -26h99l-30 -134h-98l-77 -349h-154zM384 0l77 349h-80l30 134h79l6 26q18 76 68 122t126 46q70 0 114 -27l-51 -102q-17 12 -43 12q-48 0 -60 -51l-6 -26h99
l-30 -134h-98l-77 -349h-154z" />
    <glyph glyph-name="fi" unicode="fi" horiz-adv-x="615" 
d="M477 619q0 46 31.5 73.5t68.5 27.5q34 0 57 -22t23 -53q0 -46 -31.5 -73.5t-68.5 -27.5q-34 0 -57 22t-23 53zM35 0l77 349h-80l30 134h79l6 26q18 76 68 122t126 46q70 0 114 -27l-51 -102q-17 12 -43 12q-48 0 -60 -51l-6 -26h99l-30 -134h-98l-77 -349h-154zM351 0
l107 483h154l-107 -483h-154z" />
    <glyph glyph-name="fl" unicode="fl" horiz-adv-x="615" 
d="M35 0l77 349h-80l30 134h79l6 26q18 76 68 122t126 46q70 0 114 -27l-51 -102q-17 12 -43 12q-48 0 -60 -51l-6 -26h99l-30 -134h-98l-77 -349h-154zM351 0l147 667h154l-147 -667h-154z" />
    <glyph glyph-name="f_f_i" unicode="ffi" horiz-adv-x="964" 
d="M826 619q0 46 31.5 73.5t68.5 27.5q34 0 57 -22t23 -53q0 -46 -31.5 -73.5t-68.5 -27.5q-34 0 -57 22t-23 53zM35 0l77 349h-80l30 134h79l6 26q18 76 68 122t126 46q70 0 114 -27l-51 -102q-17 12 -43 12q-48 0 -60 -51l-6 -26h99l-30 -134h-98l-77 -349h-154zM384 0
l77 349h-80l30 134h79l6 26q18 76 68 122t126 46q70 0 114 -27l-51 -102q-17 12 -43 12q-48 0 -60 -51l-6 -26h99l-30 -134h-98l-77 -349h-154zM700 0l107 483h154l-107 -483h-154z" />
    <glyph glyph-name="f_f_l" unicode="ffl" horiz-adv-x="964" 
d="M35 0l77 349h-80l30 134h79l6 26q18 76 68 122t126 46q70 0 114 -27l-51 -102q-17 12 -43 12q-48 0 -60 -51l-6 -26h99l-30 -134h-98l-77 -349h-154zM384 0l77 349h-80l30 134h79l6 26q18 76 68 122t126 46q70 0 114 -27l-51 -102q-17 12 -43 12q-48 0 -60 -51l-6 -26h99
l-30 -134h-98l-77 -349h-154zM700 0l147 667h154l-147 -667h-154z" />
    <glyph glyph-name="f_b" unicode="fb" horiz-adv-x="940" 
d="M35 0l77 349h-80l30 134h79l6 26q18 76 68 122t126 46q70 0 114 -27l-51 -102q-17 12 -43 12q-48 0 -60 -51l-6 -26h99l-30 -134h-98l-77 -349h-154zM517 57l-12 -57h-154l147 667h154l-53 -240q59 68 138 68q83 0 132.5 -53t49.5 -148q0 -73 -27.5 -141t-87.5 -116.5
t-140 -48.5q-98 0 -147 69zM760 262q0 43 -27 70t-67 27q-50 0 -92 -45l-32 -146q34 -44 96 -44q52 0 87 40.5t35 97.5z" />
    <glyph glyph-name="f_h" unicode="fh" horiz-adv-x="943" 
d="M35 0l77 349h-80l30 134h79l6 26q18 76 68 122t126 46q70 0 114 -27l-51 -102q-17 12 -43 12q-48 0 -60 -51l-6 -26h99l-30 -134h-98l-77 -349h-154zM679 0l59 274q5 23 5 32q0 27 -19 40t-47 13q-56 0 -103 -47l-68 -312h-154l147 667h154l-55 -243q77 71 157 71
q72 0 113.5 -34.5t41.5 -90.5q0 -15 -5 -40l-72 -330h-154z" />
    <glyph glyph-name="f_k" unicode="fk" horiz-adv-x="895" 
d="M35 0l77 349h-80l30 134h79l6 26q18 76 68 122t126 46q70 0 114 -27l-51 -102q-17 12 -43 12q-48 0 -60 -51l-6 -26h99l-30 -134h-98l-77 -349h-154zM662 0l-70 174l-62 -58l-25 -116h-154l147 667h154l-82 -369l183 185h192l-227 -220l129 -263h-185z" />
    <glyph glyph-name=".notdef" horiz-adv-x="471" 
d="M80 -90v842h351v-842h-351zM399 722h-288v-782h288v782z" />
    <glyph glyph-name=".null" horiz-adv-x="0" 
 />
    <glyph glyph-name="nonmarkingreturn" horiz-adv-x="333" 
 />
    <glyph glyph-name="NULL" horiz-adv-x="0" 
 />
    <glyph glyph-name="NULL" horiz-adv-x="0" 
 />
    <glyph glyph-name="CR" unicode="&#xd;" horiz-adv-x="0" 
 />
    <glyph glyph-name="space" unicode=" " horiz-adv-x="256" 
 />
    <glyph glyph-name="exclam" unicode="!" horiz-adv-x="270" 
d="M62 233l73 434h184l-119 -434h-138zM5 74q0 42 30.5 72t72.5 30q35 0 60 -25.5t25 -61.5q0 -41 -31 -71t-72 -30q-36 0 -60.5 25t-24.5 61z" />
    <glyph glyph-name="quotedbl" unicode="&#x22;" horiz-adv-x="438" 
d="M111 357l3 227q1 39 28 66t65 27q29 0 50 -21t21 -52q0 -14 -8 -33l-94 -214h-65zM312 357l3 227q0 40 26.5 66.5t65.5 26.5q29 0 50 -21t21 -52q0 -14 -8 -33l-94 -214h-64z" />
    <glyph glyph-name="numbersign" unicode="#" horiz-adv-x="632" 
d="M193 0l91 164h-87l-90 -164h-110l91 164h-92l52 95h93l82 148h-93l51 94h94l92 166h110l-91 -166h86l91 166h111l-92 -166h93l-50 -94h-95l-83 -148h96l-51 -95h-98l-90 -164h-111zM419 407h-86l-82 -148h85z" />
    <glyph glyph-name="dollar" unicode="$" horiz-adv-x="625" 
d="M369 414q45 -15 76.5 -28.5t68.5 -37.5t57 -58t20 -77q0 -94 -74 -159.5t-197 -65.5h-3l-19 -88h-111l22 100q-137 30 -207 115l103 121q36 -46 98 -73.5t129 -27.5q40 0 59.5 16.5t19.5 38.5t-24.5 37t-75.5 33q-37 13 -59.5 21.5t-57 27.5t-53.5 38.5t-34 51t-15 68.5
q0 79 72.5 144t195.5 66l20 91h111l-23 -104q105 -26 173 -97l-103 -118q-35 40 -90 61.5t-106 21.5q-33 0 -52.5 -15t-19.5 -36q0 -20 24.5 -34.5t74.5 -32.5z" />
    <glyph glyph-name="percent" unicode="%" horiz-adv-x="771" 
d="M79 483q0 85 55 139.5t133 54.5q69 0 117.5 -38t48.5 -102q0 -85 -55.5 -139.5t-133.5 -54.5q-68 0 -116.5 38t-48.5 102zM76 0l573 667h87l-574 -667h-86zM326 527q0 25 -17.5 41.5t-44.5 16.5q-33 0 -56 -25.5t-23 -66.5q0 -26 17.5 -42t45.5 -16q33 0 55.5 25t22.5 67
zM377 128q0 85 55 139.5t133 54.5q69 0 117.5 -38t48.5 -102q0 -84 -55.5 -139t-133.5 -55q-68 0 -116.5 38t-48.5 102zM624 172q0 25 -17.5 41.5t-44.5 16.5q-33 0 -56 -25t-23 -67q0 -25 17.5 -41.5t45.5 -16.5q33 0 55.5 25.5t22.5 66.5z" />
    <glyph glyph-name="ampersand" unicode="&#x26;" horiz-adv-x="649" 
d="M627 262q-61 -83 -127 -145q41 -62 81 -117h-179l-22 30q-79 -42 -157 -42q-101 0 -162 44t-61 136q0 88 51 138t138 82q-15 57 -15 99q0 81 61 135.5t151 54.5q79 0 133.5 -37.5t54.5 -105.5q0 -34 -12.5 -61.5t-29 -45.5t-47.5 -34.5t-54 -25.5t-61 -22q12 -26 29 -56
q19 -36 39 -69q50 53 81 110zM327 488q0 -25 8 -55q51 17 77.5 36.5t26.5 49.5q0 24 -13 36.5t-34 12.5q-26 0 -45.5 -21t-19.5 -59zM249 107q32 0 66 17q-31 49 -47 78q-19 36 -42 85q-59 -38 -59 -100q0 -38 23.5 -59t58.5 -21z" />
    <glyph glyph-name="quotesingle" unicode="'" horiz-adv-x="239" 
d="M111 357l3 227q1 39 28 66t65 27q29 0 50 -21t21 -52q0 -14 -8 -33l-94 -214h-65z" />
    <glyph glyph-name="parenleft" unicode="(" horiz-adv-x="322" 
d="M110 -199q-42 57 -64.5 141t-22.5 173q0 156 76 310t205 260l81 -82q-95 -110 -148.5 -247t-53.5 -280q0 -102 40 -211z" />
    <glyph glyph-name="parenright" unicode=")" horiz-adv-x="322" 
d="M210 685q43 -57 65.5 -140.5t22.5 -173.5q0 -156 -76.5 -309.5t-204.5 -260.5l-81 82q95 109 148 246t53 280q0 101 -39 212z" />
    <glyph glyph-name="asterisk" unicode="*" horiz-adv-x="357" 
d="M165 355l30 111l-104 -46l-20 65l105 38l-84 58l50 57l76 -66l19 105h74l-31 -112l103 47l22 -65l-104 -38l83 -58l-51 -57l-77 65l-17 -104h-74z" />
    <glyph glyph-name="plus" unicode="+" horiz-adv-x="507" 
d="M315 291l-44 -198h-102l44 198h-174l21 92h174l42 191h101l-42 -191h174l-20 -92h-174z" />
    <glyph glyph-name="comma" unicode="," horiz-adv-x="270" 
d="M35 -136l-53 55q79 34 105 84q-3 -1 -12 -1q-30 0 -50.5 19.5t-20.5 55.5q0 40 31.5 69.5t71.5 29.5q37 0 63.5 -24.5t26.5 -68.5q0 -62 -46 -123.5t-116 -95.5z" />
    <glyph glyph-name="hyphen" unicode="-" horiz-adv-x="300" 
d="M15 178l29 129h240l-29 -129h-240z" />
    <glyph glyph-name="period" unicode="." horiz-adv-x="270" 
d="M5 74q0 42 30.5 72t72.5 30q35 0 60 -25.5t25 -61.5q0 -41 -31 -71t-72 -30q-36 0 -60.5 25t-24.5 61z" />
    <glyph glyph-name="slash" unicode="/" horiz-adv-x="346" 
d="M-61 -20l393 707h114l-394 -707h-113z" />
    <glyph glyph-name="zero" unicode="0" horiz-adv-x="624" 
d="M36 261q0 171 97 293.5t243 122.5q113 0 181.5 -71t68.5 -201q0 -171 -96.5 -294t-242.5 -123q-113 0 -182 71.5t-69 201.5zM453 413q0 52 -23 82t-71 30q-46 0 -82 -44.5t-52.5 -105t-16.5 -121.5q0 -53 23.5 -83.5t71.5 -30.5q46 0 81.5 44.5t52 105.5t16.5 123z" />
    <glyph glyph-name="one" unicode="1" horiz-adv-x="447" 
d="M161 0l98 447l-136 -113l-76 103l284 230h149l-147 -667h-172z" />
    <glyph glyph-name="two" unicode="2" horiz-adv-x="607" 
d="M-10 0l34 157q241 131 326 190.5t85 113.5q0 30 -30 48t-78 18q-89 0 -164 -58l-69 124q46 39 112 61.5t135 22.5q115 0 194.5 -55t79.5 -149q0 -90 -81 -169t-245 -154h258l-34 -150h-523z" />
    <glyph glyph-name="three" unicode="3" horiz-adv-x="602" 
d="M-17 127l108 102q32 -45 89.5 -69.5t110.5 -24.5q48 0 73 21t25 51q0 57 -108 57q-69 0 -89 -2l33 148q12 -1 94 -1q116 0 116 59q0 28 -32 45.5t-88 17.5q-88 0 -160 -52l-60 117q45 36 108.5 58.5t128.5 22.5q130 0 205.5 -47t75.5 -130q0 -60 -55.5 -106t-124.5 -56
q126 -31 126 -148q0 -88 -78.5 -145t-188.5 -57q-99 0 -183.5 36t-125.5 103z" />
    <glyph glyph-name="four" unicode="4" horiz-adv-x="616" 
d="M287 0l27 122h-320l33 148l332 397h248l-88 -394h81l-33 -151h-81l-26 -122h-173zM402 517l-208 -244h153z" />
    <glyph glyph-name="five" unicode="5" horiz-adv-x="617" 
d="M10 114l115 104q28 -38 75 -60.5t105 -22.5q50 0 78 25.5t28 60.5t-30.5 55.5t-81.5 20.5q-63 0 -115 -40l-110 42l80 368h484l-32 -145h-319l-28 -131q53 40 133 40q87 0 143 -50t56 -138q0 -107 -80 -181t-207 -74q-198 0 -294 126z" />
    <glyph glyph-name="six" unicode="6" horiz-adv-x="617" 
d="M32 253q0 178 101.5 301t271.5 123q142 0 234 -86l-100 -119q-52 58 -144 58q-59 0 -103.5 -36.5t-64.5 -88.5q-5 -10 -11 -32q27 28 71.5 45t92.5 17q92 0 154 -50t62 -135q0 -108 -84.5 -185t-201.5 -77q-130 0 -204 70t-74 195zM416 225q0 35 -34 56.5t-83 21.5
q-56 0 -98 -34q-2 -16 -2 -30q0 -46 32.5 -75t80.5 -29q44 0 74 25.5t30 64.5z" />
    <glyph glyph-name="seven" unicode="7" horiz-adv-x="560" 
d="M60 0l337 517h-316l33 150h523l-27 -119l-353 -548h-197z" />
    <glyph glyph-name="eight" unicode="8" horiz-adv-x="618" 
d="M7 171q0 62 45.5 113.5t130.5 76.5q-41 20 -67 54.5t-26 76.5q0 62 42.5 105.5t102.5 61.5t130 18t130.5 -17.5t103 -58t42.5 -98.5q0 -63 -45 -110.5t-120 -64.5q104 -58 104 -148q0 -89 -85.5 -140.5t-202.5 -51.5q-119 0 -202 46t-83 137zM457 472q0 27 -29 44.5
t-73 17.5q-38 0 -65 -17t-27 -45q0 -23 24 -41.5t57 -25.5q52 2 82.5 21t30.5 46zM405 198q0 26 -24.5 46t-65.5 29q-55 -2 -90.5 -23.5t-35.5 -54.5q0 -31 29 -47.5t80 -16.5q46 0 76.5 18.5t30.5 48.5z" />
    <glyph glyph-name="nine" unicode="9" horiz-adv-x="617" 
d="M623 413q0 -179 -101.5 -301.5t-271.5 -122.5q-143 0 -234 86l100 119q50 -58 144 -58q58 0 102.5 36.5t65.5 88.5q8 17 11 32q-28 -28 -72.5 -45.5t-91.5 -17.5q-93 0 -155 50.5t-62 135.5q0 108 85 185t202 77q130 0 204 -70t74 -195zM238 441q0 -35 34.5 -57t83.5 -22
q54 0 97 34q2 8 2 31q0 46 -32.5 75t-79.5 29q-44 0 -74.5 -25.5t-30.5 -64.5z" />
    <glyph glyph-name="colon" unicode=":" horiz-adv-x="270" 
d="M73 389q0 41 31 71.5t72 30.5q36 0 61 -25.5t25 -61.5q0 -42 -30.5 -72t-72.5 -30q-36 0 -61 25.5t-25 61.5zM5 74q0 42 30.5 72t72.5 30q35 0 60 -25.5t25 -61.5q0 -41 -31 -71t-72 -30q-36 0 -60.5 25t-24.5 61z" />
    <glyph glyph-name="semicolon" unicode=";" horiz-adv-x="270" 
d="M73 389q0 41 31 71.5t72 30.5q36 0 61 -25.5t25 -61.5q0 -42 -30.5 -72t-72.5 -30q-36 0 -61 25.5t-25 61.5zM35 -136l-53 55q79 34 105 84q-3 -1 -12 -1q-30 0 -50.5 19.5t-20.5 55.5q0 40 31.5 69.5t71.5 29.5q37 0 63.5 -24.5t26.5 -68.5q0 -62 -46 -123.5t-116 -95.5
z" />
    <glyph glyph-name="less" unicode="&#x3c;" horiz-adv-x="507" 
d="M36 279l25 111l491 190l-25 -114l-375 -137l315 -134l-24 -105z" />
    <glyph glyph-name="equal" unicode="=" horiz-adv-x="507" 
d="M59 381l20 92h449l-20 -92h-449zM18 195l20 92h449l-20 -92h-449z" />
    <glyph glyph-name="greater" unicode="&#x3e;" horiz-adv-x="507" 
d="M-6 90l26 114l375 134l-315 137l23 105l407 -190l-25 -111z" />
    <glyph glyph-name="question" unicode="?" horiz-adv-x="453" 
d="M159 214q-14 30 -14 70q0 33 10 58.5t30.5 43.5t35 27.5t39.5 22.5q45 25 53 37q5 9 5 17q0 37 -62 37q-57 0 -105 -40l-72 119q89 71 204 71q91 0 154 -40t63 -108q0 -36 -10.5 -64.5t-32 -48.5t-38.5 -31.5t-46 -26.5q-21 -12 -31.5 -19t-24 -18.5t-19.5 -23.5t-6 -27
q0 -13 8 -22zM97 74q0 42 30.5 72t72.5 30q35 0 60 -25.5t25 -61.5q0 -41 -30.5 -71t-72.5 -30q-35 0 -60 25.5t-25 60.5z" />
    <glyph glyph-name="at" unicode="@" horiz-adv-x="783" 
d="M55 244q0 158 120 276t277 118q141 0 228 -87.5t87 -213.5q0 -62 -20 -112t-52 -79.5t-68 -45t-70 -15.5q-83 0 -101 70l-1 7q-26 -37 -62.5 -57t-74.5 -20q-72 0 -114 48t-42 123q0 97 67.5 169t154.5 72q86 0 123 -61l10 48h136l-49 -230q-2 -10 -2 -26q0 -41 32 -41
q33 0 60 39.5t27 110.5q0 118 -74 188.5t-199 70.5q-141 0 -246 -104.5t-105 -244.5q0 -118 79.5 -197t200.5 -79q94 0 180 54l23 -32q-98 -63 -208 -63q-136 0 -226.5 90.5t-90.5 223.5zM467 245l22 106q-22 40 -70 40q-51 0 -84 -37t-33 -86q0 -35 19.5 -55.5t53.5 -20.5
q52 0 92 53z" />
    <glyph glyph-name="A" unicode="A" horiz-adv-x="697" 
d="M476 0l-13 101h-276l-57 -101h-195l398 667h216l105 -667h-178zM417 522l-153 -276h186z" />
    <glyph glyph-name="B" unicode="B" horiz-adv-x="680" 
d="M6 0l147 667h348q89 0 138 -48t49 -115q0 -65 -45.5 -116t-105.5 -56q45 -12 70 -50t25 -83q0 -36 -13 -70t-39.5 -63.5t-73.5 -47.5t-109 -18h-391zM504 475q0 20 -14.5 34.5t-39.5 14.5h-156l-26 -115h164q38 0 55 19.5t17 46.5zM460 212q0 24 -15.5 39.5t-41.5 15.5
h-166l-28 -124h170q37 0 59 20t22 49z" />
    <glyph glyph-name="C" unicode="C" horiz-adv-x="692" 
d="M36 291q0 171 114.5 279t279.5 108q125 0 202 -58.5t107 -146.5l-166 -54q-14 50 -54.5 78.5t-96.5 28.5q-87 0 -147 -65.5t-60 -158.5q0 -69 46.5 -115.5t122.5 -46.5q41 0 82 21.5t63 55.5l134 -88q-55 -75 -133 -108t-156 -33q-145 0 -241.5 83.5t-96.5 219.5z" />
    <glyph glyph-name="D" unicode="D" horiz-adv-x="727" 
d="M428 667q117 0 206.5 -81t89.5 -206q0 -54 -14 -105.5t-47 -102t-82 -88.5t-125.5 -61t-170.5 -23h-279l147 667h275zM317 150q104 0 166.5 63t62.5 155q0 63 -42 106t-107 43h-105l-81 -367h106z" />
    <glyph glyph-name="E" unicode="E" 
d="M6 0l147 667h489l-32 -145h-317l-24 -111h309l-32 -146h-309l-27 -120h317l-32 -145h-489z" />
    <glyph glyph-name="F" unicode="F" horiz-adv-x="582" 
d="M6 0l147 667h489l-32 -145h-317l-24 -111h309l-32 -146h-309l-59 -265h-172z" />
    <glyph glyph-name="G" unicode="G" horiz-adv-x="723" 
d="M36 291q0 167 115.5 277t295.5 110q104 0 176.5 -48.5t104.5 -120.5l-158 -66q-14 36 -55.5 59.5t-92.5 23.5q-85 0 -146 -65t-61 -159q0 -68 45.5 -115t123.5 -47q63 0 115 40l12 56h-154l33 144h322l-59 -263q-49 -61 -121 -95t-158 -34q-143 0 -240.5 82.5
t-97.5 220.5z" />
    <glyph glyph-name="H" unicode="H" horiz-adv-x="741" 
d="M455 0l59 268h-277l-59 -268h-172l147 667h172l-55 -249h277l55 249h172l-147 -667h-172z" />
    <glyph glyph-name="I" unicode="I" horiz-adv-x="292" 
d="M6 0l147 667h172l-147 -667h-172z" />
    <glyph glyph-name="J" unicode="J" horiz-adv-x="492" 
d="M-33 59l91 129q36 -48 97 -48q83 0 102 91l96 436h172l-97 -438q-27 -125 -89 -183t-171 -58q-133 0 -201 71z" />
    <glyph glyph-name="K" unicode="K" horiz-adv-x="654" 
d="M407 0l-124 257l-62 -62l-43 -195h-172l147 667h172l-57 -261l253 261h221l-327 -312l194 -355h-202z" />
    <glyph glyph-name="L" unicode="L" horiz-adv-x="529" 
d="M6 0l147 667h172l-114 -517h268l-33 -150h-440z" />
    <glyph glyph-name="M" unicode="M" horiz-adv-x="877" 
d="M591 0l98 444l-267 -444h-76l-70 444l-98 -444h-172l147 667h233l57 -372l222 372h245l-147 -667h-172z" />
    <glyph glyph-name="N" unicode="N" horiz-adv-x="740" 
d="M460 0l-189 424l-93 -424h-172l147 667h177l181 -405l89 405h173l-147 -667h-166z" />
    <glyph glyph-name="O" unicode="O" horiz-adv-x="766" 
d="M36 291q0 162 113 274.5t281 112.5q145 0 241.5 -83.5t96.5 -217.5q0 -163 -113 -276t-281 -113q-146 0 -242 84t-96 219zM589 364q0 72 -47 117t-122 45q-87 0 -146 -65.5t-59 -158.5q0 -72 47 -117t122 -45q87 0 146 65.5t59 158.5z" />
    <glyph glyph-name="P" unicode="P" horiz-adv-x="643" 
d="M6 0l147 667h312q94 0 150.5 -55t56.5 -136q0 -41 -14.5 -82t-45 -81.5t-89.5 -66t-137 -25.5h-159l-49 -221h-172zM393 372q46 0 73.5 24t27.5 62q0 29 -20 46.5t-53 17.5h-128l-33 -150h133z" />
    <glyph glyph-name="Q" unicode="Q" horiz-adv-x="766" 
d="M768 377q0 -93 -39.5 -173.5t-109.5 -134.5l31 -51l-137 -63l-29 48q-51 -15 -110 -15q-146 0 -242 84t-96 219q0 162 113 274.5t281 112.5q145 0 241.5 -83.5t96.5 -217.5zM483 297l52 -86q54 64 54 153q0 72 -47 117t-122 45q-87 0 -146 -65.5t-59 -158.5
q0 -72 47 -117t122 -45q11 0 17 1l-56 92z" />
    <glyph glyph-name="R" unicode="R" horiz-adv-x="661" 
d="M385 0l-62 226h-95l-50 -226h-172l147 667h304q89 0 152.5 -54t63.5 -141t-51 -151.5t-127 -84.5l80 -236h-190zM393 372q47 0 74 22.5t27 60.5q0 30 -21 48.5t-52 18.5h-128l-33 -150h133z" />
    <glyph glyph-name="S" unicode="S" horiz-adv-x="606" 
d="M-10 115l103 121q36 -46 98 -73.5t129 -27.5q40 0 59.5 16.5t19.5 38.5t-24.5 37t-75.5 33q-37 13 -59.5 21.5t-57 27.5t-53.5 38.5t-34 51t-15 68.5q0 79 73 144.5t197 65.5q82 0 155.5 -28.5t123.5 -81.5l-103 -118q-35 40 -90 61.5t-106 21.5q-33 0 -52.5 -15
t-19.5 -36q0 -20 24.5 -34.5t74.5 -32.5q45 -15 76.5 -28.5t68.5 -37.5t57 -58t20 -77q0 -94 -74 -159.5t-197 -65.5q-101 0 -186 34.5t-132 92.5z" />
    <glyph glyph-name="T" unicode="T" 
d="M155 0l113 517h-187l34 150h545l-33 -150h-187l-113 -517h-172z" />
    <glyph glyph-name="U" unicode="U" horiz-adv-x="739" 
d="M350 -12q-139 0 -213.5 65t-74.5 173q0 31 10 74l81 367h175l-83 -374q-6 -27 -6 -48q1 -47 32 -77t90 -30q119 0 149 136l87 393h175l-88 -396q-29 -134 -106.5 -208.5t-227.5 -74.5z" />
    <glyph glyph-name="V" unicode="V" horiz-adv-x="697" 
d="M186 0l-104 667h186l59 -481l270 481h204l-399 -667h-216z" />
    <glyph glyph-name="W" unicode="W" horiz-adv-x="936" 
d="M515 0l-9 418l-193 -418h-182l-44 667h189l3 -445l212 445h131l16 -445l199 445h198l-338 -667h-182z" />
    <glyph glyph-name="X" unicode="X" horiz-adv-x="676" 
d="M438 0l-103 214l-187 -214h-213l315 352l-153 315h194l92 -200l168 200h213l-295 -335l163 -332h-194z" />
    <glyph glyph-name="Y" unicode="Y" horiz-adv-x="655" 
d="M188 0l59 269l-165 398h185l91 -246l197 246h204l-340 -398l-59 -269h-172z" />
    <glyph glyph-name="Z" unicode="Z" horiz-adv-x="596" 
d="M-15 0l30 137l359 380h-275l33 150h511l-30 -137l-360 -380h283l-33 -150h-518z" />
    <glyph glyph-name="bracketleft" unicode="[" horiz-adv-x="298" 
d="M-47 -190l194 868h230l-22 -99h-122l-148 -670h121l-22 -99h-231z" />
    <glyph glyph-name="backslash" unicode="\" horiz-adv-x="346" 
d="M98 687h109l80 -707h-109z" />
    <glyph glyph-name="bracketright" unicode="]" horiz-adv-x="298" 
d="M-78 -190l21 99h122l149 670h-122l22 99h230l-193 -868h-229z" />
    <glyph glyph-name="asciicircum" unicode="^" horiz-adv-x="445" 
d="M341 333l-43 231l-144 -231h-116l223 334h111l73 -334h-104z" />
    <glyph glyph-name="underscore" unicode="_" horiz-adv-x="564" 
d="M-88 -139l23 99h569l-23 -99h-569z" />
    <glyph glyph-name="grave" unicode="`" horiz-adv-x="263" 
d="M228 556l-127 144h136l95 -144h-104z" />
    <glyph glyph-name="a" unicode="a" horiz-adv-x="591" 
d="M421 426l13 57h153l-107 -483h-153l12 56q-59 -68 -138 -68q-83 0 -132 52.5t-49 147.5q0 73 27.5 141.5t87 117t139.5 48.5q99 0 147 -69zM179 220q0 -43 27 -69.5t67 -26.5q53 0 91 45l33 146q-34 44 -96 44q-53 0 -87.5 -40.5t-34.5 -98.5z" />
    <glyph glyph-name="b" unicode="b" horiz-adv-x="591" 
d="M168 57l-12 -57h-154l147 667h154l-53 -240q60 68 138 68q83 0 132.5 -53t49.5 -148q0 -73 -27.5 -141t-87.5 -116.5t-140 -48.5q-98 0 -147 69zM411 262q0 43 -27 70t-67 27q-50 0 -92 -45l-32 -146q34 -44 96 -44q52 0 87 40.5t35 97.5z" />
    <glyph glyph-name="c" unicode="c" horiz-adv-x="500" 
d="M21 210q0 120 82.5 202.5t203.5 82.5q146 0 205 -98l-115 -87q-30 49 -91 49q-56 0 -92.5 -40.5t-36.5 -99.5q0 -44 30 -69.5t75 -25.5q53 0 91 43l83 -101q-30 -32 -79 -55t-110 -23q-112 0 -179 61.5t-67 160.5z" />
    <glyph glyph-name="d" unicode="d" horiz-adv-x="591" 
d="M421 426l54 241h153l-148 -667h-153l12 56q-59 -68 -138 -68q-83 0 -132 52.5t-49 147.5q0 73 27.5 141.5t87 117t139.5 48.5q99 0 147 -69zM179 220q0 -43 27 -69.5t67 -26.5q53 0 91 45l33 146q-34 44 -96 44q-53 0 -87.5 -40.5t-34.5 -98.5z" />
    <glyph glyph-name="e" unicode="e" horiz-adv-x="548" 
d="M21 207q0 119 80.5 203.5t202.5 84.5q95 0 158.5 -58t63.5 -160q0 -41 -10 -84h-342v-6q0 -24 31.5 -52t84.5 -28q72 0 113 30l47 -102q-69 -47 -172 -47q-117 0 -187 58t-70 161zM389 293q1 2 1 7q0 28 -23.5 52t-69.5 24q-41 0 -71 -26t-37 -57h200z" />
    <glyph glyph-name="f" unicode="f" horiz-adv-x="349" 
d="M35 0l77 349h-80l30 134h79l6 26q18 76 68 122t126 46q70 0 114 -27l-51 -102q-17 12 -43 12q-48 0 -60 -51l-6 -26h99l-30 -134h-98l-77 -349h-154z" />
    <glyph glyph-name="g" unicode="g" horiz-adv-x="590" 
d="M-30 -111l87 102q22 -29 64.5 -45t87.5 -16q100 0 126 113l8 35q-57 -70 -140 -70q-79 0 -131 48t-52 147q0 115 69 203.5t182 88.5q41 0 81.5 -18.5t66.5 -50.5l14 57h153l-98 -440q-15 -70 -45.5 -119.5t-70.5 -74t-78.5 -35t-81.5 -10.5q-157 0 -242 85zM367 189
l27 121q-32 49 -102 49q-49 0 -81 -35t-32 -91q0 -39 27 -64t70 -25q51 0 91 45z" />
    <glyph glyph-name="h" unicode="h" horiz-adv-x="594" 
d="M330 0l59 274q5 23 5 32q0 27 -19 40t-47 13q-56 0 -103 -47l-68 -312h-154l147 667h154l-55 -243q77 71 157 71q72 0 113.5 -34.5t41.5 -90.5q0 -15 -5 -40l-72 -330h-154z" />
    <glyph glyph-name="i" unicode="i" horiz-adv-x="266" 
d="M128 619q0 46 31.5 73.5t68.5 27.5q34 0 57 -22t23 -53q0 -46 -31.5 -73.5t-68.5 -27.5q-34 0 -57 22t-23 53zM2 0l107 483h154l-107 -483h-154z" />
    <glyph glyph-name="j" unicode="j" horiz-adv-x="266" 
d="M208 544q-34 0 -57 22t-23 53q0 46 31.5 73.5t68.5 27.5q34 0 57 -22t23 -53q0 -46 -31.5 -73.5t-68.5 -27.5zM-126 -187l30 124q12 -4 29 -4q53 0 69 71l107 479h154l-107 -479q-43 -200 -202 -200q-46 0 -80 9z" />
    <glyph glyph-name="k" unicode="k" horiz-adv-x="546" 
d="M313 0l-70 174l-62 -58l-25 -116h-154l147 667h154l-82 -369l183 185h192l-227 -220l129 -263h-185z" />
    <glyph glyph-name="l" unicode="l" horiz-adv-x="266" 
d="M2 0l147 667h154l-147 -667h-154z" />
    <glyph glyph-name="m" unicode="m" horiz-adv-x="875" 
d="M611 0l60 273q0 1 2.5 14t2.5 20q0 25 -18 38.5t-45 13.5q-45 0 -84 -47l-69 -312h-154l60 273q6 30 6 36q0 23 -16.5 36.5t-46.5 13.5q-43 0 -84 -47l-69 -312h-154l107 483h154l-14 -59q68 71 145 71q35 0 63.5 -11.5t44 -27.5t24 -29.5t8.5 -20.5v-3q76 92 165 92
q60 0 102 -33.5t42 -91.5q0 -5 -5 -40l-74 -330h-153z" />
    <glyph glyph-name="n" unicode="n" horiz-adv-x="593" 
d="M329 0l60 271q5 23 5 35q0 27 -19 40t-47 13q-56 0 -103 -47l-69 -312h-154l107 483h154l-14 -59q77 71 157 71q72 0 113.5 -34.5t41.5 -90.5q0 -15 -5 -40l-73 -330h-154z" />
    <glyph glyph-name="o" unicode="o" horiz-adv-x="576" 
d="M20 210q0 115 81 200t203 85q118 0 183.5 -62.5t65.5 -160.5q0 -115 -81 -199.5t-203 -84.5q-118 0 -183.5 62.5t-65.5 159.5zM396 265q0 44 -26 69t-71 25q-53 0 -87 -42t-34 -99q0 -44 26 -69t71 -25q52 0 86.5 42t34.5 99z" />
    <glyph glyph-name="p" unicode="p" 
d="M168 57l-53 -241h-154l148 667h154l-13 -56q60 68 138 68q83 0 132.5 -53t49.5 -148q0 -73 -27.5 -141t-87.5 -116.5t-140 -48.5q-98 0 -147 69zM411 262q0 43 -27 70t-67 27q-50 0 -92 -45l-32 -146q34 -44 96 -44q52 0 87 40.5t35 97.5z" />
    <glyph glyph-name="q" unicode="q" 
d="M421 426l13 57h153l-148 -667h-153l53 240q-59 -68 -138 -68q-83 0 -132 52.5t-49 147.5q0 73 27.5 141.5t87 117t139.5 48.5q99 0 147 -69zM179 220q0 -43 27 -69.5t67 -26.5q53 0 91 45l33 146q-34 44 -96 44q-53 0 -87.5 -40.5t-34.5 -98.5z" />
    <glyph glyph-name="r" unicode="r" horiz-adv-x="375" 
d="M2 0l107 483h154l-14 -60q67 72 167 72l-33 -151q-24 6 -50 6q-66 0 -111 -47l-66 -303h-154z" />
    <glyph glyph-name="s" unicode="s" horiz-adv-x="484" 
d="M-14 76l79 97q25 -27 75.5 -50t98.5 -23q23 0 37 10.5t14 26.5q0 25 -80 50q-26 8 -43.5 14.5t-42 19t-39 26t-25 34t-10.5 44.5q0 70 55.5 120t151.5 50q61 0 118 -20.5t97 -57.5l-73 -94q-20 22 -60.5 40.5t-81.5 18.5q-26 0 -40 -9.5t-14 -24.5q0 -22 73 -44
q29 -9 45.5 -14.5t43 -18t41.5 -26t26.5 -35.5t11.5 -48q0 -75 -59.5 -124.5t-159.5 -49.5q-68 0 -131.5 23t-107.5 65z" />
    <glyph glyph-name="t" unicode="t" horiz-adv-x="360" 
d="M61 102q0 15 3 35l47 213h-80l30 133h80l29 132h154l-29 -132h98l-30 -133h-98l-36 -164q-3 -12 -3 -22q0 -40 46 -40q20 0 30 8l2 -123q-27 -21 -83 -21q-73 0 -116.5 28.5t-43.5 85.5z" />
    <glyph glyph-name="u" unicode="u" horiz-adv-x="592" 
d="M262 483l-61 -279q-4 -18 -4 -26q0 -54 71 -54q49 0 99 48l68 311h154l-107 -483h-154l14 59q-77 -71 -157 -71q-72 0 -113.5 34.5t-41.5 90.5q0 15 5 40l74 330h153z" />
    <glyph glyph-name="v" unicode="v" horiz-adv-x="524" 
d="M126 0l-83 483h158l40 -306l179 306h167l-297 -483h-164z" />
    <glyph glyph-name="w" unicode="w" horiz-adv-x="787" 
d="M430 0l-25 299l-156 -299h-166l-36 483h154l11 -296l162 296h137l29 -296l143 296h163l-250 -483h-166z" />
    <glyph glyph-name="x" unicode="x" horiz-adv-x="512" 
d="M300 0l-61 146l-126 -146h-173l219 248l-102 235h165l53 -131l111 131h174l-207 -235l111 -248h-164z" />
    <glyph glyph-name="y" unicode="y" horiz-adv-x="524" 
d="M1 -52q17 -7 50 -7q37 0 55 26l19 31l-82 485h158l40 -306l179 306h167l-341 -552q-43 -70 -90 -98.5t-115 -28.5q-51 0 -89 12z" />
    <glyph glyph-name="z" unicode="z" horiz-adv-x="483" 
d="M-16 0l24 113l242 236h-189l30 134h403l-25 -109l-246 -241h197l-29 -133h-407z" />
    <glyph glyph-name="braceleft" unicode="{" horiz-adv-x="302" 
d="M144 -190q-63 0 -107.5 39.5t-44.5 99.5q0 17 4 32l35 156q2 12 2 18q0 21 -11 34.5t-29 13.5l19 82q52 0 66 66l35 155q38 172 208 172h60l-22 -99h-60q-61 0 -78 -73l-41 -183q-16 -76 -65 -90q29 -17 29 -57q0 -18 -4 -34l-36 -160q-2 -12 -2 -18q0 -24 15.5 -39.5
t39.5 -15.5h54l-23 -99h-44z" />
    <glyph glyph-name="bar" unicode="|" horiz-adv-x="219" 
d="M80 -20v707h99v-707h-99z" />
    <glyph glyph-name="braceright" unicode="}" horiz-adv-x="302" 
d="M157 678q63 0 107.5 -39.5t44.5 -99.5q0 -18 -4 -33l-35 -155q-2 -12 -2 -18q0 -22 10.5 -35t29.5 -13l-19 -82q-52 0 -66 -66l-34 -155q-39 -172 -209 -172h-60l22 99h60q61 0 78 72l41 184q16 76 65 90q-29 17 -29 57q0 18 4 34l36 160q2 12 2 17q0 25 -15.5 40.5
t-39.5 15.5h-54l23 99h44z" />
    <glyph glyph-name="asciitilde" unicode="~" horiz-adv-x="514" 
d="M579 655q-54 -248 -194 -248q-33 0 -54.5 10t-31.5 30.5t-13.5 35.5t-6.5 40q-3 19 -4.5 27.5t-7.5 17t-15 8.5q-25 0 -51 -52.5t-38 -117.5l-100 12q51 249 195 249q33 0 54.5 -10t32 -31t14 -35.5t6.5 -40.5q2 -18 3.5 -27.5t7.5 -17.5t15 -8q26 0 52.5 53.5
t37.5 116.5z" />
    <glyph glyph-name="uni00A0" unicode="&#xa0;" horiz-adv-x="256" 
 />
    <glyph glyph-name="exclamdown" unicode="&#xa1;" horiz-adv-x="270" 
d="M262 408q0 -41 -31 -71t-72 -30q-36 0 -61 25.5t-25 60.5q0 42 30.5 72t72.5 30q36 0 61 -25.5t25 -61.5zM204 250l-73 -434h-184l119 434h138z" />
    <glyph glyph-name="cent" unicode="&#xa2;" horiz-adv-x="500" 
d="M282 124q53 0 91 43l83 -101q-64 -70 -169 -77l-20 -89h-109l22 100q-75 21 -117 77t-42 133q0 115 77 196.5t192 88.5l16 70h109l-18 -82q78 -24 115 -86l-115 -87q-30 49 -91 49q-56 0 -92.5 -40.5t-36.5 -99.5q0 -44 30 -69.5t75 -25.5z" />
    <glyph glyph-name="sterling" unicode="&#xa3;" horiz-adv-x="565" 
d="M396 140q43 0 76 35l36 -136q-44 -51 -127 -51q-51 0 -139 25q-58 18 -85 18q-50 0 -110 -38l-32 115q56 25 90.5 66.5t34.5 88.5v6h-111l22 96h62q-24 58 -24 95q0 91 80 154t192 63q94 0 161 -36.5t89 -104.5l-155 -63q-6 31 -29.5 48t-57.5 17q-40 0 -66.5 -28
t-26.5 -71q0 -24 13 -59q4 -10 5 -15h139l-22 -96h-112q-10 -35 -34 -65t-48 -42q25 7 43 7q26 0 71 -15q40 -14 65 -14z" />
    <glyph glyph-name="currency" unicode="&#xa4;" horiz-adv-x="635" 
d="M584 455q20 -43 20 -95q0 -103 -69 -180l55 -69l-101 -81l-60 76q-51 -21 -110 -21q-79 0 -142 33l-98 -79l-79 98l89 72q-21 42 -21 95q0 105 68 181l-55 72l101 81l60 -78q55 21 112 21q82 0 145 -36l94 76l78 -95zM224 314q0 -41 26.5 -67.5t76.5 -26.5q52 0 87 37.5
t35 90.5q0 43 -26.5 70t-78.5 27q-53 0 -86.5 -38.5t-33.5 -92.5z" />
    <glyph glyph-name="yen" unicode="&#xa5;" horiz-adv-x="655" 
d="M759 667l-261 -306h160l-21 -92h-217l-15 -66h217l-20 -92h-217l-24 -111h-172l24 111h-219l20 92h219l15 66h-219l21 92h160l-128 306h186l90 -246l198 246h203z" />
    <glyph glyph-name="brokenbar" unicode="&#xa6;" horiz-adv-x="219" 
d="M80 371v316h99v-316h-99zM80 -20v316h99v-316h-99z" />
    <glyph glyph-name="section" unicode="&#xa7;" horiz-adv-x="492" 
d="M370 189q57 -34 57 -98q0 -75 -60.5 -123.5t-153.5 -48.5q-160 0 -250 85l82 91q29 -32 75 -51.5t93 -19.5q27 0 44 13t17 30q0 20 -20.5 32t-64.5 26q-36 13 -54 20.5t-45 24.5t-39.5 40.5t-12.5 55.5q0 104 118 144q-64 32 -64 104q0 73 59 118t149 45q145 0 221 -73
l-77 -84q-22 23 -60 37t-78 14q-31 0 -46.5 -11.5t-15.5 -29.5t20.5 -29t61.5 -24q28 -9 43.5 -14.5t40.5 -18t38 -25.5t23.5 -34t10.5 -47q0 -49 -31.5 -90t-80.5 -59zM266 361q-74 -12 -74 -65q0 -39 70 -60q30 8 45.5 26.5t15.5 40.5q0 42 -57 58z" />
    <glyph glyph-name="dieresis" unicode="&#xa8;" horiz-adv-x="428" 
d="M182 544q-29 0 -49.5 20t-20.5 49q0 34 27.5 61t61.5 27q30 0 50 -20t20 -50q0 -34 -27 -60.5t-62 -26.5zM396 544q-30 0 -50 20t-20 49q0 34 27 61t62 27q30 0 49.5 -20t19.5 -50q0 -34 -26.5 -60.5t-61.5 -26.5z" />
    <glyph glyph-name="copyright" unicode="&#xa9;" horiz-adv-x="778" 
d="M408 -11q-142 0 -243 101t-101 244t100.5 244t243.5 101t244.5 -101t101.5 -244t-101.5 -244t-244.5 -101zM408 640q-126 0 -215.5 -90t-89.5 -216t89.5 -216t215.5 -90t216.5 90t90.5 216t-90.5 216t-216.5 90zM535 179q-64 -55 -141 -55q-86 0 -138.5 51.5t-52.5 131.5
q0 100 69.5 168.5t162.5 68.5q110 0 161 -81l-42 -29q-37 67 -122 67q-68 0 -123.5 -56t-55.5 -136q0 -59 38.5 -100.5t103.5 -41.5q61 0 112 49z" />
    <glyph glyph-name="ordfeminine" unicode="&#xaa;" horiz-adv-x="415" 
d="M457 640l-69 -314h-110l7 35q-37 -43 -89 -43t-87.5 35t-35.5 97q0 84 49 141t118 57q68 0 100 -43l8 35h109zM186 464q0 -29 16.5 -44t42.5 -15q33 0 56 25l25 111q-19 21 -56 21q-35 0 -59.5 -29t-24.5 -69z" />
    <glyph glyph-name="guillemotleft" unicode="&#xab;" horiz-adv-x="571" 
d="M149 63l-120 180l200 177h143l-204 -182l116 -175h-135zM361 63l-120 180l200 177h143l-204 -182l116 -175h-135z" />
    <glyph glyph-name="logicalnot" unicode="&#xac;" horiz-adv-x="521" 
d="M467 195h-94l40 186h-354l20 92h449z" />
    <glyph glyph-name="uni00AD" unicode="&#xad;" horiz-adv-x="300" 
d="M15 178l29 129h240l-29 -129h-240z" />
    <glyph glyph-name="registered" unicode="&#xae;" horiz-adv-x="494" 
d="M295 253q-88 0 -149.5 62t-61.5 150t62 150t150 62t150 -61.5t62 -150.5q0 -88 -62.5 -150t-150.5 -62zM295 643q-74 0 -126 -51.5t-52 -126.5q0 -74 52 -126.5t126 -52.5t126.5 52.5t52.5 126.5q0 75 -52 126.5t-127 51.5zM328 343l-42 96h-42l-21 -96h-36l53 243h94
q32 0 52 -18.5t20 -45.5q0 -34 -24.5 -58t-55.5 -24l44 -97h-42zM326 556h-56l-19 -86h63q25 0 39.5 14.5t14.5 35.5q0 36 -42 36z" />
    <glyph glyph-name="macron" unicode="&#xaf;" horiz-adv-x="363" 
d="M76 556l21 85h349l-21 -85h-349z" />
    <glyph glyph-name="degree" unicode="&#xb0;" horiz-adv-x="321" 
d="M224 393q-59 0 -100 41.5t-41 100.5t41.5 100.5t99.5 41.5q59 0 101 -41.5t42 -100.5t-42 -100.5t-101 -41.5zM224 598q-25 0 -43 -18.5t-18 -44.5t17.5 -44t42.5 -18q26 0 45 18.5t19 43.5t-18.5 44t-44.5 19z" />
    <glyph glyph-name="plusminus" unicode="&#xb1;" horiz-adv-x="507" 
d="M322 327l-44 -198h-101l44 198h-174l20 92h174l43 190h101l-43 -190h174l-20 -92h-174zM-25 0l20 92h449l-20 -92h-449z" />
    <glyph glyph-name="uni00B2" unicode="&#xb2;" horiz-adv-x="402" 
d="M83 421l19 86q158 91 203.5 125.5t45.5 63.5q0 19 -16 30t-43 11q-67 0 -112 -43l-46 76q30 27 75 42t88 15q76 0 124 -33t48 -87q0 -49 -47 -94t-153 -102h160l-20 -90h-326z" />
    <glyph glyph-name="uni00B3" unicode="&#xb3;" horiz-adv-x="402" 
d="M275 414q-63 0 -114 20t-74 54l69 70q40 -54 113 -54q28 0 42 12t14 29q0 34 -84 34q-29 0 -35 -1l19 89q10 -1 67 -1q62 0 62 36q0 17 -21 26t-52 9q-59 0 -102 -34l-36 71q61 53 150 53q82 0 129.5 -29t47.5 -80q0 -38 -28.5 -66.5t-81.5 -32.5q35 -9 56.5 -31
t21.5 -56q0 -47 -44.5 -82.5t-118.5 -35.5z" />
    <glyph glyph-name="acute" unicode="&#xb4;" horiz-adv-x="263" 
d="M173 556h-106l159 144h138z" />
    <glyph glyph-name="uni00B5" unicode="&#xb5;" horiz-adv-x="606" 
d="M113 -184h-153l151 667h154l-63 -280q-9 -38 8 -58.5t53 -20.5q56 0 103 47l69 312h153l-70 -321q-4 -18 4 -28t24 -10q12 0 20 3l-19 -130q-29 -9 -71 -9q-113 0 -123 87q-63 -87 -146 -87q-37 0 -51 17z" />
    <glyph glyph-name="paragraph" unicode="&#xb6;" horiz-adv-x="449" 
d="M267 -100l154 696h-73l-155 -696h-71l94 423q-57 0 -97 44.5t-40 111.5q0 73 56.5 130.5t137.5 57.5h235l-170 -767h-71z" />
    <glyph glyph-name="periodcentered" unicode="&#xb7;" horiz-adv-x="270" 
d="M40 238q0 41 31 71.5t72 30.5q36 0 60.5 -25.5t24.5 -61.5q0 -42 -30.5 -72t-71.5 -30q-36 0 -61 25.5t-25 61.5z" />
    <glyph glyph-name="cedilla" unicode="&#xb8;" horiz-adv-x="229" 
d="M-89 -155l39 54q39 -36 85 -36q44 0 44 30q0 20 -26 20q-16 0 -27 -13l-46 30l49 81h71l-39 -60q16 10 30 10q26 0 43 -17.5t17 -46.5q0 -43 -33.5 -69t-82.5 -26q-81 0 -124 43z" />
    <glyph glyph-name="uni00B9" unicode="&#xb9;" horiz-adv-x="311" 
d="M176 421l55 251l-82 -66l-51 69l182 146h98l-88 -400h-114z" />
    <glyph glyph-name="ordmasculine" unicode="&#xba;" horiz-adv-x="405" 
d="M73 465q0 78 58 130.5t136 52.5q77 0 122.5 -41.5t45.5 -106.5q0 -78 -58 -130t-136 -52q-77 0 -122.5 41.5t-45.5 105.5zM322 502q0 27 -15.5 42t-42.5 15q-38 0 -58 -29.5t-20 -67.5q0 -27 15.5 -42t42.5 -15q38 0 58 29.5t20 67.5z" />
    <glyph glyph-name="guillemotright" unicode="&#xbb;" horiz-adv-x="571" 
d="M212 420l120 -180l-200 -177h-143l204 182l-116 175h135zM424 420l120 -180l-200 -177h-143l204 182l-116 175h135z" />
    <glyph glyph-name="onequarter" unicode="&#xbc;" horiz-adv-x="842" 
d="M142 267l55 251l-82 -66l-51 69l182 146h98l-88 -400h-114zM180 0h-86l573 667h88zM736 78l-16 -78h-113l16 78h-196l17 77l204 245h160l-52 -233h50l-20 -89h-50zM673 301l-114 -134h84z" />
    <glyph glyph-name="onehalf" unicode="&#xbd;" horiz-adv-x="892" 
d="M142 267l55 251l-82 -66l-51 69l182 146h98l-88 -400h-114zM180 0h-86l573 667h88zM480 0l19 86q158 91 203.5 125.5t45.5 63.5q0 19 -16 30t-43 11q-67 0 -112 -43l-46 76q30 27 75 42t88 15q76 0 124 -33t48 -87q0 -49 -47 -94t-153 -102h160l-20 -90h-326z" />
    <glyph glyph-name="threequarters" unicode="&#xbe;" horiz-adv-x="924" 
d="M241 260q-63 0 -114 20t-74 54l69 70q40 -54 113 -54q28 0 42 12t14 29q0 34 -84 34q-29 0 -35 -1l19 89q10 -1 67 -1q62 0 62 36q0 17 -21 26t-52 9q-59 0 -102 -34l-36 71q61 53 150 53q82 0 129.5 -29t47.5 -80q0 -38 -28.5 -66.5t-81.5 -32.5q35 -9 56.5 -31
t21.5 -56q0 -47 -44.5 -82.5t-118.5 -35.5zM262 0h-86l573 667h88zM818 78l-16 -78h-113l16 78h-196l17 77l204 245h160l-52 -233h50l-20 -89h-50zM755 301l-114 -134h84z" />
    <glyph glyph-name="questiondown" unicode="&#xbf;" horiz-adv-x="399" 
d="M355 408q0 -42 -30.5 -72t-72.5 -30q-36 0 -60.5 25.5t-24.5 61.5q0 41 30.5 71t71.5 30q36 0 61 -25.5t25 -60.5zM293 268q13 -27 13 -70q0 -33 -10 -58.5t-30 -43.5t-35 -27.5t-40 -22.5q-17 -10 -22.5 -13t-16.5 -11t-14.5 -15t-3.5 -15q0 -37 62 -37q57 0 105 40
l72 -119q-89 -71 -204 -71q-91 0 -154 39.5t-63 108.5q0 36 10.5 64t32 49t38 32t45.5 27q28 16 42 25t27 25.5t13 36.5q0 13 -8 22z" />
    <glyph glyph-name="Agrave" unicode="&#xc0;" horiz-adv-x="697" 
d="M403 723l-127 144h136l95 -144h-104zM476 0l-13 101h-276l-57 -101h-195l398 667h216l105 -667h-178zM417 522l-153 -276h186z" />
    <glyph glyph-name="Aacute" unicode="&#xc1;" horiz-adv-x="697" 
d="M504 723h-106l159 144h138zM476 0l-13 101h-276l-57 -101h-195l398 667h216l105 -667h-178zM417 522l-153 -276h186z" />
    <glyph glyph-name="Acircumflex" unicode="&#xc2;" horiz-adv-x="697" 
d="M525 723l-51 81l-84 -81h-93l122 144h135l61 -144h-90zM476 0l-13 101h-276l-57 -101h-195l398 667h216l105 -667h-178zM417 522l-153 -276h186z" />
    <glyph glyph-name="Atilde" unicode="&#xc3;" horiz-adv-x="697" 
d="M446 753q-25 23 -44 23q-26 0 -36 -49h-79q13 69 41.5 101.5t82.5 32.5q40 0 78 -32q27 -23 44 -23q25 0 37 49h79q-15 -69 -43.5 -101.5t-81.5 -32.5q-37 0 -78 32zM476 0l-13 101h-276l-57 -101h-195l398 667h216l105 -667h-178zM417 522l-153 -276h186z" />
    <glyph glyph-name="Adieresis" unicode="&#xc4;" horiz-adv-x="697" 
d="M355 711q-29 0 -49.5 20t-20.5 49q0 34 27.5 61t61.5 27q30 0 50 -20t20 -50q0 -34 -27 -60.5t-62 -26.5zM569 711q-30 0 -50 20t-20 49q0 34 27 61t62 27q30 0 49.5 -20t19.5 -50q0 -34 -26.5 -60.5t-61.5 -26.5zM476 0l-13 101h-276l-57 -101h-195l398 667h216
l105 -667h-178zM417 522l-153 -276h186z" />
    <glyph glyph-name="Aring" unicode="&#xc5;" horiz-adv-x="697" 
d="M363 791q0 48 35.5 83t83.5 35q44 0 71.5 -27.5t27.5 -71.5q0 -48 -35.5 -83t-83.5 -35q-44 0 -71.5 27.5t-27.5 71.5zM512 804q0 16 -10 26.5t-27 10.5t-30 -13t-13 -30q0 -16 10 -26.5t27 -10.5t30 12.5t13 30.5zM476 0l-13 101h-276l-57 -101h-195l398 667h216
l105 -667h-178zM417 522l-153 -276h186z" />
    <glyph glyph-name="AE" unicode="&#xc6;" horiz-adv-x="979" 
d="M400 0l22 101h-222l-78 -101h-193l547 667h560l-33 -145h-316l-24 -111h309l-32 -146h-310l-26 -120h316l-31 -145h-489zM514 522l-204 -276h144z" />
    <glyph glyph-name="Ccedilla" unicode="&#xc7;" horiz-adv-x="692" 
d="M384 140q41 0 82 21.5t63 55.5l134 -88q-55 -75 -133 -108t-156 -33q-18 0 -27 1l-25 -38q16 10 30 10q26 0 43 -17.5t17 -46.5q0 -43 -33.5 -69t-82.5 -26q-81 0 -124 43l39 54q39 -36 85 -36q44 0 44 30q0 20 -26 20q-16 0 -27 -13l-46 30l41 68q-110 25 -178 102.5
t-68 190.5q0 171 114.5 279t279.5 108q125 0 202 -58.5t107 -146.5l-166 -54q-14 50 -54.5 78.5t-96.5 28.5q-87 0 -147 -65.5t-60 -158.5q0 -69 46.5 -115.5t122.5 -46.5z" />
    <glyph glyph-name="Egrave" unicode="&#xc8;" 
d="M366 723l-127 144h136l95 -144h-104zM6 0l147 667h489l-32 -145h-317l-24 -111h309l-32 -146h-309l-27 -120h317l-32 -145h-489z" />
    <glyph glyph-name="Eacute" unicode="&#xc9;" 
d="M467 723h-106l159 144h138zM6 0l147 667h489l-32 -145h-317l-24 -111h309l-32 -146h-309l-27 -120h317l-32 -145h-489z" />
    <glyph glyph-name="Ecircumflex" unicode="&#xca;" 
d="M488 723l-51 81l-84 -81h-93l122 144h135l61 -144h-90zM6 0l147 667h489l-32 -145h-317l-24 -111h309l-32 -146h-309l-27 -120h317l-32 -145h-489z" />
    <glyph glyph-name="Edieresis" unicode="&#xcb;" 
d="M318 711q-29 0 -49.5 20t-20.5 49q0 34 27.5 61t61.5 27q30 0 50 -20t20 -50q0 -34 -27 -60.5t-62 -26.5zM532 711q-30 0 -50 20t-20 49q0 34 27 61t62 27q30 0 49.5 -20t19.5 -50q0 -34 -26.5 -60.5t-61.5 -26.5zM6 0l147 667h489l-32 -145h-317l-24 -111h309l-32 -146
h-309l-27 -120h317l-32 -145h-489z" />
    <glyph glyph-name="Igrave" unicode="&#xcc;" horiz-adv-x="292" 
d="M201 723l-127 144h136l95 -144h-104zM6 0l147 667h172l-147 -667h-172z" />
    <glyph glyph-name="Iacute" unicode="&#xcd;" horiz-adv-x="292" 
d="M302 723h-106l159 144h138zM6 0l147 667h172l-147 -667h-172z" />
    <glyph glyph-name="Icircumflex" unicode="&#xce;" horiz-adv-x="292" 
d="M323 723l-51 81l-84 -81h-93l122 144h135l61 -144h-90zM6 0l147 667h172l-147 -667h-172z" />
    <glyph glyph-name="Idieresis" unicode="&#xcf;" horiz-adv-x="292" 
d="M153 711q-29 0 -49.5 20t-20.5 49q0 34 27.5 61t61.5 27q30 0 50 -20t20 -50q0 -34 -27 -60.5t-62 -26.5zM367 711q-30 0 -50 20t-20 49q0 34 27 61t62 27q30 0 49.5 -20t19.5 -50q0 -34 -26.5 -60.5t-61.5 -26.5zM6 0l147 667h172l-147 -667h-172z" />
    <glyph glyph-name="Eth" unicode="&#xd0;" horiz-adv-x="750" 
d="M451 667q117 0 206.5 -81t89.5 -206q0 -54 -14 -105.5t-47 -102t-82 -88.5t-125.5 -61t-170.5 -23h-279l58 265h-75l30 137h75l59 265h275zM340 150q104 0 166 63t62 155q0 63 -41.5 106t-107.5 43h-104l-25 -115h138l-30 -137h-139l-25 -115h106z" />
    <glyph glyph-name="Ntilde" unicode="&#xd1;" horiz-adv-x="740" 
d="M468 753q-25 23 -44 23q-26 0 -36 -49h-79q13 69 41.5 101.5t82.5 32.5q40 0 78 -32q27 -23 44 -23q25 0 37 49h79q-15 -69 -43.5 -101.5t-81.5 -32.5q-37 0 -78 32zM460 0l-189 424l-93 -424h-172l147 667h177l181 -405l89 405h173l-147 -667h-166z" />
    <glyph glyph-name="Ograve" unicode="&#xd2;" horiz-adv-x="766" 
d="M437 723l-127 144h136l95 -144h-104zM36 291q0 162 113 274.5t281 112.5q145 0 241.5 -83.5t96.5 -217.5q0 -163 -113 -276t-281 -113q-146 0 -242 84t-96 219zM589 364q0 72 -47 117t-122 45q-87 0 -146 -65.5t-59 -158.5q0 -72 47 -117t122 -45q87 0 146 65.5t59 158.5
z" />
    <glyph glyph-name="Oacute" unicode="&#xd3;" horiz-adv-x="766" 
d="M538 723h-106l159 144h138zM36 291q0 162 113 274.5t281 112.5q145 0 241.5 -83.5t96.5 -217.5q0 -163 -113 -276t-281 -113q-146 0 -242 84t-96 219zM589 364q0 72 -47 117t-122 45q-87 0 -146 -65.5t-59 -158.5q0 -72 47 -117t122 -45q87 0 146 65.5t59 158.5z" />
    <glyph glyph-name="Ocircumflex" unicode="&#xd4;" horiz-adv-x="766" 
d="M559 723l-51 81l-84 -81h-93l122 144h135l61 -144h-90zM36 291q0 162 113 274.5t281 112.5q145 0 241.5 -83.5t96.5 -217.5q0 -163 -113 -276t-281 -113q-146 0 -242 84t-96 219zM589 364q0 72 -47 117t-122 45q-87 0 -146 -65.5t-59 -158.5q0 -72 47 -117t122 -45
q87 0 146 65.5t59 158.5z" />
    <glyph glyph-name="Otilde" unicode="&#xd5;" horiz-adv-x="766" 
d="M480 753q-25 23 -44 23q-26 0 -36 -49h-79q13 69 41.5 101.5t82.5 32.5q40 0 78 -32q27 -23 44 -23q25 0 37 49h79q-15 -69 -43.5 -101.5t-81.5 -32.5q-37 0 -78 32zM36 291q0 162 113 274.5t281 112.5q145 0 241.5 -83.5t96.5 -217.5q0 -163 -113 -276t-281 -113
q-146 0 -242 84t-96 219zM589 364q0 72 -47 117t-122 45q-87 0 -146 -65.5t-59 -158.5q0 -72 47 -117t122 -45q87 0 146 65.5t59 158.5z" />
    <glyph glyph-name="Odieresis" unicode="&#xd6;" horiz-adv-x="766" 
d="M389 711q-29 0 -49.5 20t-20.5 49q0 34 27.5 61t61.5 27q30 0 50 -20t20 -50q0 -34 -27 -60.5t-62 -26.5zM603 711q-30 0 -50 20t-20 49q0 34 27 61t62 27q30 0 49.5 -20t19.5 -50q0 -34 -26.5 -60.5t-61.5 -26.5zM36 291q0 162 113 274.5t281 112.5q145 0 241.5 -83.5
t96.5 -217.5q0 -163 -113 -276t-281 -113q-146 0 -242 84t-96 219zM589 364q0 72 -47 117t-122 45q-87 0 -146 -65.5t-59 -158.5q0 -72 47 -117t122 -45q87 0 146 65.5t59 158.5z" />
    <glyph glyph-name="multiply" unicode="&#xd7;" horiz-adv-x="507" 
d="M265 268l-171 -139l-57 70l173 141l-105 134l73 60l103 -134l171 139l57 -70l-171 -141l104 -134l-73 -60z" />
    <glyph glyph-name="Oslash" unicode="&#xd8;" horiz-adv-x="766" 
d="M795 667l-99 -96q72 -82 72 -194q0 -163 -113 -276t-281 -113q-125 0 -213 62l-51 -50h-120l109 106q-63 79 -63 185q0 162 113 274.5t281 112.5q116 0 201 -54l44 43h120zM215 302q0 -38 14 -69l280 272q-39 21 -89 21q-87 0 -146 -65.5t-59 -158.5zM589 364
q0 46 -20 83l-286 -279q42 -28 101 -28q87 0 146 65.5t59 158.5z" />
    <glyph glyph-name="Ugrave" unicode="&#xd9;" horiz-adv-x="739" 
d="M424 723l-127 144h136l95 -144h-104zM350 -12q-139 0 -213.5 65t-74.5 173q0 31 10 74l81 367h175l-83 -374q-6 -27 -6 -48q1 -47 32 -77t90 -30q119 0 149 136l87 393h175l-88 -396q-29 -134 -106.5 -208.5t-227.5 -74.5z" />
    <glyph glyph-name="Uacute" unicode="&#xda;" horiz-adv-x="739" 
d="M525 723h-106l159 144h138zM350 -12q-139 0 -213.5 65t-74.5 173q0 31 10 74l81 367h175l-83 -374q-6 -27 -6 -48q1 -47 32 -77t90 -30q119 0 149 136l87 393h175l-88 -396q-29 -134 -106.5 -208.5t-227.5 -74.5z" />
    <glyph glyph-name="Ucircumflex" unicode="&#xdb;" horiz-adv-x="739" 
d="M546 723l-51 81l-84 -81h-93l122 144h135l61 -144h-90zM350 -12q-139 0 -213.5 65t-74.5 173q0 31 10 74l81 367h175l-83 -374q-6 -27 -6 -48q1 -47 32 -77t90 -30q119 0 149 136l87 393h175l-88 -396q-29 -134 -106.5 -208.5t-227.5 -74.5z" />
    <glyph glyph-name="Udieresis" unicode="&#xdc;" horiz-adv-x="739" 
d="M376 711q-29 0 -49.5 20t-20.5 49q0 34 27.5 61t61.5 27q30 0 50 -20t20 -50q0 -34 -27 -60.5t-62 -26.5zM590 711q-30 0 -50 20t-20 49q0 34 27 61t62 27q30 0 49.5 -20t19.5 -50q0 -34 -26.5 -60.5t-61.5 -26.5zM350 -12q-139 0 -213.5 65t-74.5 173q0 31 10 74l81 367
h175l-83 -374q-6 -27 -6 -48q1 -47 32 -77t90 -30q119 0 149 136l87 393h175l-88 -396q-29 -134 -106.5 -208.5t-227.5 -74.5z" />
    <glyph glyph-name="Yacute" unicode="&#xdd;" horiz-adv-x="655" 
d="M484 723h-106l159 144h138zM188 0l59 269l-165 398h185l91 -246l197 246h204l-340 -398l-59 -269h-172z" />
    <glyph glyph-name="Thorn" unicode="&#xde;" horiz-adv-x="643" 
d="M6 0l147 667h172l-22 -102h143q93 0 148.5 -55.5t55.5 -135.5q0 -44 -16 -87t-48 -81t-89 -61t-131 -23h-161l-27 -122h-172zM471 355q0 28 -19.5 46.5t-51.5 18.5h-129l-34 -153h136q45 0 71.5 25.5t26.5 62.5z" />
    <glyph glyph-name="germandbls" unicode="&#xdf;" horiz-adv-x="665" 
d="M424 -12q-138 0 -220 86l81 95q57 -64 142 -64q23 0 39 10.5t16 25.5q0 8 -4.5 14t-16.5 11.5t-20.5 8.5t-27.5 9q-25 8 -38 12t-35.5 15t-34 22.5t-21 31t-9.5 43.5q0 40 18.5 71.5t35.5 44.5t48 32q25 14 37.5 25t12.5 25q0 19 -20 32t-49 13q-80 0 -99 -88l-102 -463
h-154l102 463q21 95 87 154.5t181 59.5q88 0 153 -41.5t65 -107.5q0 -30 -9.5 -54t-29.5 -42t-34 -27.5t-38 -22.5q-27 -15 -40 -25.5t-13 -24.5q0 -10 14 -17t45 -16q26 -8 39.5 -12.5t38 -16.5t37.5 -25t23.5 -35t10.5 -49q0 -71 -60.5 -122t-150.5 -51z" />
    <glyph glyph-name="agrave" unicode="&#xe0;" horiz-adv-x="591" 
d="M316 556l-127 144h136l95 -144h-104zM421 426l13 57h153l-107 -483h-153l12 56q-59 -68 -138 -68q-83 0 -132 52.5t-49 147.5q0 73 27.5 141.5t87 117t139.5 48.5q99 0 147 -69zM179 220q0 -43 27 -69.5t67 -26.5q53 0 91 45l33 146q-34 44 -96 44q-53 0 -87.5 -40.5
t-34.5 -98.5z" />
    <glyph glyph-name="aacute" unicode="&#xe1;" horiz-adv-x="591" 
d="M417 556h-106l159 144h138zM421 426l13 57h153l-107 -483h-153l12 56q-59 -68 -138 -68q-83 0 -132 52.5t-49 147.5q0 73 27.5 141.5t87 117t139.5 48.5q99 0 147 -69zM179 220q0 -43 27 -69.5t67 -26.5q53 0 91 45l33 146q-34 44 -96 44q-53 0 -87.5 -40.5t-34.5 -98.5z
" />
    <glyph glyph-name="acircumflex" unicode="&#xe2;" horiz-adv-x="591" 
d="M438 556l-51 81l-84 -81h-93l122 144h135l61 -144h-90zM421 426l13 57h153l-107 -483h-153l12 56q-59 -68 -138 -68q-83 0 -132 52.5t-49 147.5q0 73 27.5 141.5t87 117t139.5 48.5q99 0 147 -69zM179 220q0 -43 27 -69.5t67 -26.5q53 0 91 45l33 146q-34 44 -96 44
q-53 0 -87.5 -40.5t-34.5 -98.5z" />
    <glyph glyph-name="atilde" unicode="&#xe3;" horiz-adv-x="591" 
d="M359 586q-25 23 -44 23q-26 0 -36 -49h-79q13 69 41.5 101.5t82.5 32.5q40 0 78 -32q27 -23 44 -23q25 0 37 49h79q-15 -69 -43.5 -101.5t-81.5 -32.5q-37 0 -78 32zM421 426l13 57h153l-107 -483h-153l12 56q-59 -68 -138 -68q-83 0 -132 52.5t-49 147.5
q0 73 27.5 141.5t87 117t139.5 48.5q99 0 147 -69zM179 220q0 -43 27 -69.5t67 -26.5q53 0 91 45l33 146q-34 44 -96 44q-53 0 -87.5 -40.5t-34.5 -98.5z" />
    <glyph glyph-name="adieresis" unicode="&#xe4;" horiz-adv-x="591" 
d="M268 544q-29 0 -49.5 20t-20.5 49q0 34 27.5 61t61.5 27q30 0 50 -20t20 -50q0 -34 -27 -60.5t-62 -26.5zM482 544q-30 0 -50 20t-20 49q0 34 27 61t62 27q30 0 49.5 -20t19.5 -50q0 -34 -26.5 -60.5t-61.5 -26.5zM421 426l13 57h153l-107 -483h-153l12 56
q-59 -68 -138 -68q-83 0 -132 52.5t-49 147.5q0 73 27.5 141.5t87 117t139.5 48.5q99 0 147 -69zM179 220q0 -43 27 -69.5t67 -26.5q53 0 91 45l33 146q-34 44 -96 44q-53 0 -87.5 -40.5t-34.5 -98.5z" />
    <glyph glyph-name="aring" unicode="&#xe5;" horiz-adv-x="591" 
d="M276 624q0 48 35.5 83t83.5 35q44 0 71.5 -27.5t27.5 -71.5q0 -48 -35.5 -83t-83.5 -35q-44 0 -71.5 27.5t-27.5 71.5zM425 637q0 17 -10.5 27t-26.5 10q-17 0 -30 -13t-13 -30t10.5 -27t26.5 -10q17 0 30 12.5t13 30.5zM421 426l13 57h153l-107 -483h-153l12 56
q-59 -68 -138 -68q-83 0 -132 52.5t-49 147.5q0 73 27.5 141.5t87 117t139.5 48.5q99 0 147 -69zM179 220q0 -43 27 -69.5t67 -26.5q53 0 91 45l33 146q-34 44 -96 44q-53 0 -87.5 -40.5t-34.5 -98.5z" />
    <glyph glyph-name="ae" unicode="&#xe6;" horiz-adv-x="902" 
d="M480 0h-153l12 56q-59 -68 -138 -68q-83 0 -132 52.5t-49 147.5q0 73 27.5 141.5t87 117t139.5 48.5q99 0 147 -69l13 57h153l-10 -47q59 59 133 59q171 0 171 -206q0 -49 -11 -96h-341v-6q0 -23 33.5 -50t89.5 -27q65 0 106 30l47 -105q-73 -47 -150 -47q-117 0 -160 78
zM744 293v6q0 29 -23 53t-68 24q-41 0 -70.5 -26t-37.5 -57h199zM179 220q0 -43 27 -69.5t67 -26.5q53 0 91 45l33 146q-34 44 -96 44q-53 0 -87.5 -40.5t-34.5 -98.5z" />
    <glyph glyph-name="ccedilla" unicode="&#xe7;" horiz-adv-x="500" 
d="M282 124q53 0 91 43l83 -101q-30 -32 -79 -55t-110 -23h-9l-24 -37q16 10 30 10q26 0 43 -17.5t17 -46.5q0 -43 -33.5 -69t-82.5 -26q-81 0 -124 43l39 54q39 -36 85 -36q44 0 44 30q0 20 -26 20q-16 0 -27 -13l-46 30l40 66q-80 19 -126 76.5t-46 137.5
q0 120 82.5 202.5t203.5 82.5q146 0 205 -98l-115 -87q-30 49 -91 49q-56 0 -92.5 -40.5t-36.5 -99.5q0 -44 30 -69.5t75 -25.5z" />
    <glyph glyph-name="egrave" unicode="&#xe8;" horiz-adv-x="548" 
d="M300 556l-127 144h136l95 -144h-104zM21 207q0 119 80.5 203.5t202.5 84.5q95 0 158.5 -58t63.5 -160q0 -41 -10 -84h-342v-6q0 -24 31.5 -52t84.5 -28q72 0 113 30l47 -102q-69 -47 -172 -47q-117 0 -187 58t-70 161zM389 293q1 2 1 7q0 28 -23.5 52t-69.5 24
q-41 0 -71 -26t-37 -57h200z" />
    <glyph glyph-name="eacute" unicode="&#xe9;" horiz-adv-x="548" 
d="M401 556h-106l159 144h138zM21 207q0 119 80.5 203.5t202.5 84.5q95 0 158.5 -58t63.5 -160q0 -41 -10 -84h-342v-6q0 -24 31.5 -52t84.5 -28q72 0 113 30l47 -102q-69 -47 -172 -47q-117 0 -187 58t-70 161zM389 293q1 2 1 7q0 28 -23.5 52t-69.5 24q-41 0 -71 -26
t-37 -57h200z" />
    <glyph glyph-name="ecircumflex" unicode="&#xea;" horiz-adv-x="548" 
d="M422 556l-51 81l-84 -81h-93l122 144h135l61 -144h-90zM21 207q0 119 80.5 203.5t202.5 84.5q95 0 158.5 -58t63.5 -160q0 -41 -10 -84h-342v-6q0 -24 31.5 -52t84.5 -28q72 0 113 30l47 -102q-69 -47 -172 -47q-117 0 -187 58t-70 161zM389 293q1 2 1 7q0 28 -23.5 52
t-69.5 24q-41 0 -71 -26t-37 -57h200z" />
    <glyph glyph-name="edieresis" unicode="&#xeb;" horiz-adv-x="548" 
d="M252 544q-29 0 -49.5 20t-20.5 49q0 34 27.5 61t61.5 27q30 0 50 -20t20 -50q0 -34 -27 -60.5t-62 -26.5zM466 544q-30 0 -50 20t-20 49q0 34 27 61t62 27q30 0 49.5 -20t19.5 -50q0 -34 -26.5 -60.5t-61.5 -26.5zM21 207q0 119 80.5 203.5t202.5 84.5q95 0 158.5 -58
t63.5 -160q0 -41 -10 -84h-342v-6q0 -24 31.5 -52t84.5 -28q72 0 113 30l47 -102q-69 -47 -172 -47q-117 0 -187 58t-70 161zM389 293q1 2 1 7q0 28 -23.5 52t-69.5 24q-41 0 -71 -26t-37 -57h200z" />
    <glyph glyph-name="igrave" unicode="&#xec;" horiz-adv-x="266" 
d="M151 556l-127 144h136l95 -144h-104zM2 0l107 483h154l-107 -483h-154z" />
    <glyph glyph-name="iacute" unicode="&#xed;" horiz-adv-x="266" 
d="M252 556h-106l159 144h138zM2 0l107 483h154l-107 -483h-154z" />
    <glyph glyph-name="icircumflex" unicode="&#xee;" horiz-adv-x="266" 
d="M273 556l-51 81l-84 -81h-93l122 144h135l61 -144h-90zM2 0l107 483h154l-107 -483h-154z" />
    <glyph glyph-name="idieresis" unicode="&#xef;" horiz-adv-x="266" 
d="M103 544q-29 0 -49.5 20t-20.5 49q0 34 27.5 61t61.5 27q30 0 50 -20t20 -50q0 -34 -27 -60.5t-62 -26.5zM317 544q-30 0 -50 20t-20 49q0 34 27 61t62 27q30 0 49.5 -20t19.5 -50q0 -34 -26.5 -60.5t-61.5 -26.5zM2 0l107 483h154l-107 -483h-154z" />
    <glyph glyph-name="eth" unicode="&#xf0;" horiz-adv-x="576" 
d="M464 567q97 -125 97 -260q0 -134 -78.5 -226.5t-210.5 -92.5q-115 0 -185 57.5t-70 154.5q0 105 69 177.5t171 72.5q119 0 163 -109q-12 76 -116 178l-163 -48l-16 69l118 35q-40 30 -48 37l107 111q63 -48 111 -98l107 31l17 -67zM275 124q50 0 82 31t32 79
q0 35 -27.5 58t-75.5 23q-49 0 -80 -31.5t-31 -77.5q0 -39 26 -60.5t74 -21.5z" />
    <glyph glyph-name="ntilde" unicode="&#xf1;" horiz-adv-x="593" 
d="M358 586q-25 23 -44 23q-26 0 -36 -49h-79q13 69 41.5 101.5t82.5 32.5q40 0 78 -32q27 -23 44 -23q25 0 37 49h79q-15 -69 -43.5 -101.5t-81.5 -32.5q-37 0 -78 32zM329 0l60 271q5 23 5 35q0 27 -19 40t-47 13q-56 0 -103 -47l-69 -312h-154l107 483h154l-14 -59
q77 71 157 71q72 0 113.5 -34.5t41.5 -90.5q0 -15 -5 -40l-73 -330h-154z" />
    <glyph glyph-name="ograve" unicode="&#xf2;" horiz-adv-x="576" 
d="M305 556l-127 144h136l95 -144h-104zM20 210q0 115 81 200t203 85q118 0 183.5 -62.5t65.5 -160.5q0 -115 -81 -199.5t-203 -84.5q-118 0 -183.5 62.5t-65.5 159.5zM396 265q0 44 -26 69t-71 25q-53 0 -87 -42t-34 -99q0 -44 26 -69t71 -25q52 0 86.5 42t34.5 99z" />
    <glyph glyph-name="oacute" unicode="&#xf3;" horiz-adv-x="576" 
d="M406 556h-106l159 144h138zM20 210q0 115 81 200t203 85q118 0 183.5 -62.5t65.5 -160.5q0 -115 -81 -199.5t-203 -84.5q-118 0 -183.5 62.5t-65.5 159.5zM396 265q0 44 -26 69t-71 25q-53 0 -87 -42t-34 -99q0 -44 26 -69t71 -25q52 0 86.5 42t34.5 99z" />
    <glyph glyph-name="ocircumflex" unicode="&#xf4;" horiz-adv-x="576" 
d="M427 556l-51 81l-84 -81h-93l122 144h135l61 -144h-90zM20 210q0 115 81 200t203 85q118 0 183.5 -62.5t65.5 -160.5q0 -115 -81 -199.5t-203 -84.5q-118 0 -183.5 62.5t-65.5 159.5zM396 265q0 44 -26 69t-71 25q-53 0 -87 -42t-34 -99q0 -44 26 -69t71 -25
q52 0 86.5 42t34.5 99z" />
    <glyph glyph-name="otilde" unicode="&#xf5;" horiz-adv-x="576" 
d="M348 586q-25 23 -44 23q-26 0 -36 -49h-79q13 69 41.5 101.5t82.5 32.5q40 0 78 -32q27 -23 44 -23q25 0 37 49h79q-15 -69 -43.5 -101.5t-81.5 -32.5q-37 0 -78 32zM20 210q0 115 81 200t203 85q118 0 183.5 -62.5t65.5 -160.5q0 -115 -81 -199.5t-203 -84.5
q-118 0 -183.5 62.5t-65.5 159.5zM396 265q0 44 -26 69t-71 25q-53 0 -87 -42t-34 -99q0 -44 26 -69t71 -25q52 0 86.5 42t34.5 99z" />
    <glyph glyph-name="odieresis" unicode="&#xf6;" horiz-adv-x="576" 
d="M257 544q-29 0 -49.5 20t-20.5 49q0 34 27.5 61t61.5 27q30 0 50 -20t20 -50q0 -34 -27 -60.5t-62 -26.5zM471 544q-30 0 -50 20t-20 49q0 34 27 61t62 27q30 0 49.5 -20t19.5 -50q0 -34 -26.5 -60.5t-61.5 -26.5zM20 210q0 115 81 200t203 85q118 0 183.5 -62.5
t65.5 -160.5q0 -115 -81 -199.5t-203 -84.5q-118 0 -183.5 62.5t-65.5 159.5zM396 265q0 44 -26 69t-71 25q-53 0 -87 -42t-34 -99q0 -44 26 -69t71 -25q52 0 86.5 42t34.5 99z" />
    <glyph glyph-name="divide" unicode="&#xf7;" horiz-adv-x="511" 
d="M245 504q0 30 22 52t53 22q25 0 43.5 -18.5t18.5 -44.5q0 -30 -22.5 -52t-52.5 -22q-25 0 -43.5 18.5t-18.5 44.5zM39 291l21 92h453l-21 -92h-453zM168 158q0 30 22 52t53 22q25 0 43.5 -18.5t18.5 -44.5q0 -30 -22.5 -52t-52.5 -22q-25 0 -43.5 18.5t-18.5 44.5z" />
    <glyph glyph-name="oslash" unicode="&#xf8;" horiz-adv-x="576" 
d="M601 483l-88 -79q40 -55 40 -132q0 -115 -81 -199.5t-203 -84.5q-100 0 -164 47l-38 -35h-95l87 80q-39 56 -39 130q0 115 81 200t203 85q99 0 163 -45l36 33h98zM178 218q0 -17 5 -28l168 156q-20 13 -52 13q-53 0 -87 -42t-34 -99zM396 265q0 16 -5 29l-170 -156
q22 -14 54 -14q52 0 86.5 42t34.5 99z" />
    <glyph glyph-name="ugrave" unicode="&#xf9;" horiz-adv-x="592" 
d="M314 556l-127 144h136l95 -144h-104zM262 483l-61 -279q-4 -18 -4 -26q0 -54 71 -54q49 0 99 48l68 311h154l-107 -483h-154l14 59q-77 -71 -157 -71q-72 0 -113.5 34.5t-41.5 90.5q0 15 5 40l74 330h153z" />
    <glyph glyph-name="uacute" unicode="&#xfa;" horiz-adv-x="592" 
d="M415 556h-106l159 144h138zM262 483l-61 -279q-4 -18 -4 -26q0 -54 71 -54q49 0 99 48l68 311h154l-107 -483h-154l14 59q-77 -71 -157 -71q-72 0 -113.5 34.5t-41.5 90.5q0 15 5 40l74 330h153z" />
    <glyph glyph-name="ucircumflex" unicode="&#xfb;" horiz-adv-x="592" 
d="M436 556l-51 81l-84 -81h-93l122 144h135l61 -144h-90zM262 483l-61 -279q-4 -18 -4 -26q0 -54 71 -54q49 0 99 48l68 311h154l-107 -483h-154l14 59q-77 -71 -157 -71q-72 0 -113.5 34.5t-41.5 90.5q0 15 5 40l74 330h153z" />
    <glyph glyph-name="udieresis" unicode="&#xfc;" horiz-adv-x="592" 
d="M266 544q-29 0 -49.5 20t-20.5 49q0 34 27.5 61t61.5 27q30 0 50 -20t20 -50q0 -34 -27 -60.5t-62 -26.5zM480 544q-30 0 -50 20t-20 49q0 34 27 61t62 27q30 0 49.5 -20t19.5 -50q0 -34 -26.5 -60.5t-61.5 -26.5zM262 483l-61 -279q-4 -18 -4 -26q0 -54 71 -54
q49 0 99 48l68 311h154l-107 -483h-154l14 59q-77 -71 -157 -71q-72 0 -113.5 34.5t-41.5 90.5q0 15 5 40l74 330h153z" />
    <glyph glyph-name="yacute" unicode="&#xfd;" horiz-adv-x="524" 
d="M381 556h-106l159 144h138zM1 -52q17 -7 50 -7q37 0 55 26l19 31l-82 485h158l40 -306l179 306h167l-341 -552q-43 -70 -90 -98.5t-115 -28.5q-51 0 -89 12z" />
    <glyph glyph-name="thorn" unicode="&#xfe;" 
d="M168 57l-53 -241h-154l188 851h154l-53 -240q60 68 138 68q83 0 132.5 -53t49.5 -148q0 -73 -27.5 -141t-87.5 -116.5t-140 -48.5q-98 0 -147 69zM411 262q0 43 -27 70t-67 27q-50 0 -92 -45l-32 -146q34 -44 96 -44q52 0 87 40.5t35 97.5z" />
    <glyph glyph-name="ydieresis" unicode="&#xff;" horiz-adv-x="524" 
d="M232 544q-29 0 -49.5 20t-20.5 49q0 34 27.5 61t61.5 27q30 0 50 -20t20 -50q0 -34 -27 -60.5t-62 -26.5zM446 544q-30 0 -50 20t-20 49q0 34 27 61t62 27q30 0 49.5 -20t19.5 -50q0 -34 -26.5 -60.5t-61.5 -26.5zM1 -52q17 -7 50 -7q37 0 55 26l19 31l-82 485h158
l40 -306l179 306h167l-341 -552q-43 -70 -90 -98.5t-115 -28.5q-51 0 -89 12z" />
    <glyph glyph-name="Amacron" unicode="&#x100;" horiz-adv-x="697" 
d="M280 723l21 85h349l-21 -85h-349zM476 0l-13 101h-276l-57 -101h-195l398 667h216l105 -667h-178zM417 522l-153 -276h186z" />
    <glyph glyph-name="amacron" unicode="&#x101;" horiz-adv-x="591" 
d="M193 556l21 85h349l-21 -85h-349zM421 426l13 57h153l-107 -483h-153l12 56q-59 -68 -138 -68q-83 0 -132 52.5t-49 147.5q0 73 27.5 141.5t87 117t139.5 48.5q99 0 147 -69zM179 220q0 -43 27 -69.5t67 -26.5q53 0 91 45l33 146q-34 44 -96 44q-53 0 -87.5 -40.5
t-34.5 -98.5z" />
    <glyph glyph-name="Abreve" unicode="&#x102;" horiz-adv-x="697" 
d="M456 718q-53 0 -94 23.5t-63 64.5l76 55q27 -58 96 -58q68 0 123 58l56 -55q-85 -88 -194 -88zM476 0l-13 101h-276l-57 -101h-195l398 667h216l105 -667h-178zM417 522l-153 -276h186z" />
    <glyph glyph-name="abreve" unicode="&#x103;" horiz-adv-x="591" 
d="M369 551q-53 0 -94 23.5t-63 64.5l76 55q27 -58 96 -58q68 0 123 58l56 -55q-85 -88 -194 -88zM421 426l13 57h153l-107 -483h-153l12 56q-59 -68 -138 -68q-83 0 -132 52.5t-49 147.5q0 73 27.5 141.5t87 117t139.5 48.5q99 0 147 -69zM179 220q0 -43 27 -69.5t67 -26.5
q53 0 91 45l33 146q-34 44 -96 44q-53 0 -87.5 -40.5t-34.5 -98.5z" />
    <glyph glyph-name="Aogonek" unicode="&#x104;" horiz-adv-x="697" 
d="M618 0q-46 -8 -75 -28.5t-29 -45.5q0 -10 7.5 -16.5t20.5 -6.5q14 0 28 6l9 -76q-41 -19 -102 -19q-46 0 -76 17t-30 50q0 41 38.5 71t101.5 48h-35l-13 101h-276l-57 -101h-195l398 667h216l105 -667h-36zM264 246h186l-33 276z" />
    <glyph glyph-name="aogonek" unicode="&#x105;" horiz-adv-x="591" 
d="M480 0q-46 -8 -75 -28.5t-29 -45.5q0 -10 7.5 -16.5t20.5 -6.5q14 0 28 6l9 -76q-41 -19 -102 -19q-46 0 -76 17t-30 50q0 41 38.5 71t101.5 48h-46l12 56q-59 -68 -138 -68q-83 0 -132 52.5t-49 147.5q0 73 27.5 141.5t87 117t139.5 48.5q99 0 147 -69l13 57h153z
M273 124q53 0 91 45l33 146q-34 44 -96 44q-53 0 -87.5 -40.5t-34.5 -98.5q0 -43 27 -69.5t67 -26.5z" />
    <glyph glyph-name="Cacute" unicode="&#x106;" horiz-adv-x="692" 
d="M531 723h-106l159 144h138zM36 291q0 171 114.5 279t279.5 108q125 0 202 -58.5t107 -146.5l-166 -54q-14 50 -54.5 78.5t-96.5 28.5q-87 0 -147 -65.5t-60 -158.5q0 -69 46.5 -115.5t122.5 -46.5q41 0 82 21.5t63 55.5l134 -88q-55 -75 -133 -108t-156 -33
q-145 0 -241.5 83.5t-96.5 219.5z" />
    <glyph glyph-name="cacute" unicode="&#x107;" horiz-adv-x="500" 
d="M405 556h-106l159 144h138zM21 210q0 120 82.5 202.5t203.5 82.5q146 0 205 -98l-115 -87q-30 49 -91 49q-56 0 -92.5 -40.5t-36.5 -99.5q0 -44 30 -69.5t75 -25.5q53 0 91 43l83 -101q-30 -32 -79 -55t-110 -23q-112 0 -179 61.5t-67 160.5z" />
    <glyph glyph-name="Ccircumflex" unicode="&#x108;" horiz-adv-x="692" 
d="M552 723l-51 81l-84 -81h-93l122 144h135l61 -144h-90zM36 291q0 171 114.5 279t279.5 108q125 0 202 -58.5t107 -146.5l-166 -54q-14 50 -54.5 78.5t-96.5 28.5q-87 0 -147 -65.5t-60 -158.5q0 -69 46.5 -115.5t122.5 -46.5q41 0 82 21.5t63 55.5l134 -88
q-55 -75 -133 -108t-156 -33q-145 0 -241.5 83.5t-96.5 219.5z" />
    <glyph glyph-name="ccircumflex" unicode="&#x109;" horiz-adv-x="500" 
d="M426 556l-51 81l-84 -81h-93l122 144h135l61 -144h-90zM21 210q0 120 82.5 202.5t203.5 82.5q146 0 205 -98l-115 -87q-30 49 -91 49q-56 0 -92.5 -40.5t-36.5 -99.5q0 -44 30 -69.5t75 -25.5q53 0 91 43l83 -101q-30 -32 -79 -55t-110 -23q-112 0 -179 61.5t-67 160.5z
" />
    <glyph glyph-name="Cdotaccent" unicode="&#x10a;" horiz-adv-x="692" 
d="M486 711q-30 0 -50 19.5t-20 49.5q0 34 27 61t62 27q30 0 50 -20.5t20 -49.5q0 -34 -27 -60.5t-62 -26.5zM36 291q0 171 114.5 279t279.5 108q125 0 202 -58.5t107 -146.5l-166 -54q-14 50 -54.5 78.5t-96.5 28.5q-87 0 -147 -65.5t-60 -158.5q0 -69 46.5 -115.5
t122.5 -46.5q41 0 82 21.5t63 55.5l134 -88q-55 -75 -133 -108t-156 -33q-145 0 -241.5 83.5t-96.5 219.5z" />
    <glyph glyph-name="cdotaccent" unicode="&#x10b;" horiz-adv-x="500" 
d="M360 544q-30 0 -50 19.5t-20 49.5q0 34 27 61t62 27q30 0 50 -20.5t20 -49.5q0 -34 -27 -60.5t-62 -26.5zM21 210q0 120 82.5 202.5t203.5 82.5q146 0 205 -98l-115 -87q-30 49 -91 49q-56 0 -92.5 -40.5t-36.5 -99.5q0 -44 30 -69.5t75 -25.5q53 0 91 43l83 -101
q-30 -32 -79 -55t-110 -23q-112 0 -179 61.5t-67 160.5z" />
    <glyph glyph-name="Ccaron" unicode="&#x10c;" horiz-adv-x="692" 
d="M414 723l-61 144h89l51 -81l84 81h94l-122 -144h-135zM36 291q0 171 114.5 279t279.5 108q125 0 202 -58.5t107 -146.5l-166 -54q-14 50 -54.5 78.5t-96.5 28.5q-87 0 -147 -65.5t-60 -158.5q0 -69 46.5 -115.5t122.5 -46.5q41 0 82 21.5t63 55.5l134 -88
q-55 -75 -133 -108t-156 -33q-145 0 -241.5 83.5t-96.5 219.5z" />
    <glyph glyph-name="ccaron" unicode="&#x10d;" horiz-adv-x="500" 
d="M288 556l-61 144h89l51 -81l84 81h94l-122 -144h-135zM21 210q0 120 82.5 202.5t203.5 82.5q146 0 205 -98l-115 -87q-30 49 -91 49q-56 0 -92.5 -40.5t-36.5 -99.5q0 -44 30 -69.5t75 -25.5q53 0 91 43l83 -101q-30 -32 -79 -55t-110 -23q-112 0 -179 61.5t-67 160.5z
" />
    <glyph glyph-name="Dcaron" unicode="&#x10e;" horiz-adv-x="727" 
d="M537 723h-135l-61 144h89l51 -81l84 81h94zM428 667q117 0 206.5 -81t89.5 -206q0 -54 -14 -105.5t-47 -102t-82 -88.5t-125.5 -61t-170.5 -23h-279l147 667h275zM317 150q104 0 166.5 63t62.5 155q0 63 -42 106t-107 43h-105l-81 -367h106z" />
    <glyph glyph-name="dcaron" unicode="&#x10f;" horiz-adv-x="713" 
d="M671 438l-41 41q63 29 82 67q-2 -1 -9 -1q-23 0 -38.5 15.5t-15.5 42.5q0 30 24.5 53t54.5 23q28 0 48 -19t20 -52q0 -48 -35.5 -96t-89.5 -74zM421 426l54 241h153l-148 -667h-153l12 56q-59 -68 -138 -68q-83 0 -132 52.5t-49 147.5q0 73 27.5 141.5t87 117t139.5 48.5
q99 0 147 -69zM179 220q0 -43 27 -69.5t67 -26.5q53 0 91 45l33 146q-34 44 -96 44q-53 0 -87.5 -40.5t-34.5 -98.5z" />
    <glyph glyph-name="Dcroat" unicode="&#x110;" horiz-adv-x="750" 
d="M451 667q117 0 206.5 -81t89.5 -206q0 -54 -14 -105.5t-47 -102t-82 -88.5t-125.5 -61t-170.5 -23h-279l58 265h-75l30 137h75l59 265h275zM340 150q104 0 166 63t62 155q0 63 -41.5 106t-107.5 43h-104l-25 -115h138l-30 -137h-139l-25 -115h106z" />
    <glyph glyph-name="dcroat" unicode="&#x111;" horiz-adv-x="596" 
d="M665 609l-18 -84h-51l-116 -525h-153l12 56q-59 -68 -138 -68q-83 0 -132 52.5t-49 147.5q0 73 27.5 141.5t87 117t139.5 48.5q99 0 147 -69l22 99h-142l18 84h143l13 58h153l-13 -58h50zM364 169l33 146q-34 44 -96 44q-53 0 -87.5 -40.5t-34.5 -98.5q0 -43 27 -69.5
t67 -26.5q53 0 91 45z" />
    <glyph glyph-name="Emacron" unicode="&#x112;" 
d="M243 723l21 85h349l-21 -85h-349zM6 0l147 667h489l-32 -145h-317l-24 -111h309l-32 -146h-309l-27 -120h317l-32 -145h-489z" />
    <glyph glyph-name="emacron" unicode="&#x113;" horiz-adv-x="548" 
d="M177 556l21 85h349l-21 -85h-349zM21 207q0 119 80.5 203.5t202.5 84.5q95 0 158.5 -58t63.5 -160q0 -41 -10 -84h-342v-6q0 -24 31.5 -52t84.5 -28q72 0 113 30l47 -102q-69 -47 -172 -47q-117 0 -187 58t-70 161zM389 293q1 2 1 7q0 28 -23.5 52t-69.5 24
q-41 0 -71 -26t-37 -57h200z" />
    <glyph glyph-name="Ebreve" unicode="&#x114;" 
d="M419 718q-53 0 -94 23.5t-63 64.5l76 55q27 -58 96 -58q68 0 123 58l56 -55q-85 -88 -194 -88zM6 0l147 667h489l-32 -145h-317l-24 -111h309l-32 -146h-309l-27 -120h317l-32 -145h-489z" />
    <glyph glyph-name="ebreve" unicode="&#x115;" horiz-adv-x="548" 
d="M353 551q-53 0 -94 23.5t-63 64.5l76 55q27 -58 96 -58q68 0 123 58l56 -55q-85 -88 -194 -88zM21 207q0 119 80.5 203.5t202.5 84.5q95 0 158.5 -58t63.5 -160q0 -41 -10 -84h-342v-6q0 -24 31.5 -52t84.5 -28q72 0 113 30l47 -102q-69 -47 -172 -47q-117 0 -187 58
t-70 161zM389 293q1 2 1 7q0 28 -23.5 52t-69.5 24q-41 0 -71 -26t-37 -57h200z" />
    <glyph glyph-name="Edotaccent" unicode="&#x116;" 
d="M422 711q-30 0 -50 19.5t-20 49.5q0 34 27 61t62 27q30 0 50 -20.5t20 -49.5q0 -34 -27 -60.5t-62 -26.5zM6 0l147 667h489l-32 -145h-317l-24 -111h309l-32 -146h-309l-27 -120h317l-32 -145h-489z" />
    <glyph glyph-name="edotaccent" unicode="&#x117;" horiz-adv-x="548" 
d="M356 544q-30 0 -50 19.5t-20 49.5q0 34 27 61t62 27q30 0 50 -20.5t20 -49.5q0 -34 -27 -60.5t-62 -26.5zM21 207q0 119 80.5 203.5t202.5 84.5q95 0 158.5 -58t63.5 -160q0 -41 -10 -84h-342v-6q0 -24 31.5 -52t84.5 -28q72 0 113 30l47 -102q-69 -47 -172 -47
q-117 0 -187 58t-70 161zM389 293q1 2 1 7q0 28 -23.5 52t-69.5 24q-41 0 -71 -26t-37 -57h200z" />
    <glyph glyph-name="Eogonek" unicode="&#x118;" 
d="M610 522h-317l-24 -111h309l-32 -146h-309l-27 -120h317l-32 -145q-46 -8 -75 -28.5t-29 -45.5q0 -10 7.5 -16.5t20.5 -6.5q15 0 28 6l9 -76q-41 -19 -102 -19q-46 0 -76 17t-30 50q0 41 38.5 71t101.5 48h-382l147 667h489z" />
    <glyph glyph-name="eogonek" unicode="&#x119;" horiz-adv-x="548" 
d="M188 -113q4 68 112 102q-8 -1 -22 -1q-117 0 -187 58t-70 161q0 119 80.5 203.5t202.5 84.5q95 0 158.5 -58t63.5 -160q0 -41 -10 -84h-342v-6q0 -24 31.5 -52t84.5 -28q72 0 113 30l47 -102q-115 -61 -119 -107q-1 -11 7 -18t21 -7q15 0 28 6l8 -76q-41 -19 -102 -19
q-46 0 -77 18t-28 55zM389 293q1 2 1 7q0 28 -23.5 52t-69.5 24q-41 0 -71 -26t-37 -57h200z" />
    <glyph glyph-name="Ecaron" unicode="&#x11a;" 
d="M350 723l-61 144h89l51 -81l84 81h94l-122 -144h-135zM6 0l147 667h489l-32 -145h-317l-24 -111h309l-32 -146h-309l-27 -120h317l-32 -145h-489z" />
    <glyph glyph-name="ecaron" unicode="&#x11b;" horiz-adv-x="548" 
d="M284 556l-61 144h89l51 -81l84 81h94l-122 -144h-135zM21 207q0 119 80.5 203.5t202.5 84.5q95 0 158.5 -58t63.5 -160q0 -41 -10 -84h-342v-6q0 -24 31.5 -52t84.5 -28q72 0 113 30l47 -102q-69 -47 -172 -47q-117 0 -187 58t-70 161zM389 293q1 2 1 7q0 28 -23.5 52
t-69.5 24q-41 0 -71 -26t-37 -57h200z" />
    <glyph glyph-name="Gcircumflex" unicode="&#x11c;" horiz-adv-x="723" 
d="M562 723l-51 81l-84 -81h-93l122 144h135l61 -144h-90zM36 291q0 167 115.5 277t295.5 110q104 0 176.5 -48.5t104.5 -120.5l-158 -66q-14 36 -55.5 59.5t-92.5 23.5q-85 0 -146 -65t-61 -159q0 -68 45.5 -115t123.5 -47q63 0 115 40l12 56h-154l33 144h322l-59 -263
q-49 -61 -121 -95t-158 -34q-143 0 -240.5 82.5t-97.5 220.5z" />
    <glyph glyph-name="gcircumflex" unicode="&#x11d;" horiz-adv-x="590" 
d="M438 556l-51 81l-84 -81h-93l122 144h135l61 -144h-90zM-30 -111l87 102q22 -29 64.5 -45t87.5 -16q100 0 126 113l8 35q-57 -70 -140 -70q-79 0 -131 48t-52 147q0 115 69 203.5t182 88.5q41 0 81.5 -18.5t66.5 -50.5l14 57h153l-98 -440q-15 -70 -45.5 -119.5
t-70.5 -74t-78.5 -35t-81.5 -10.5q-157 0 -242 85zM367 189l27 121q-32 49 -102 49q-49 0 -81 -35t-32 -91q0 -39 27 -64t70 -25q51 0 91 45z" />
    <glyph glyph-name="Gbreve" unicode="&#x11e;" horiz-adv-x="723" 
d="M493 718q-53 0 -94 23.5t-63 64.5l76 55q27 -58 96 -58q68 0 123 58l56 -55q-85 -88 -194 -88zM36 291q0 167 115.5 277t295.5 110q104 0 176.5 -48.5t104.5 -120.5l-158 -66q-14 36 -55.5 59.5t-92.5 23.5q-85 0 -146 -65t-61 -159q0 -68 45.5 -115t123.5 -47
q63 0 115 40l12 56h-154l33 144h322l-59 -263q-49 -61 -121 -95t-158 -34q-143 0 -240.5 82.5t-97.5 220.5z" />
    <glyph glyph-name="gbreve" unicode="&#x11f;" horiz-adv-x="590" 
d="M369 551q-53 0 -94 23.5t-63 64.5l76 55q27 -58 96 -58q68 0 123 58l56 -55q-85 -88 -194 -88zM-30 -111l87 102q22 -29 64.5 -45t87.5 -16q100 0 126 113l8 35q-57 -70 -140 -70q-79 0 -131 48t-52 147q0 115 69 203.5t182 88.5q41 0 81.5 -18.5t66.5 -50.5l14 57h153
l-98 -440q-15 -70 -45.5 -119.5t-70.5 -74t-78.5 -35t-81.5 -10.5q-157 0 -242 85zM367 189l27 121q-32 49 -102 49q-49 0 -81 -35t-32 -91q0 -39 27 -64t70 -25q51 0 91 45z" />
    <glyph glyph-name="Gdotaccent" unicode="&#x120;" horiz-adv-x="723" 
d="M496 711q-30 0 -50 19.5t-20 49.5q0 34 27 61t62 27q30 0 50 -20.5t20 -49.5q0 -34 -27 -60.5t-62 -26.5zM36 291q0 167 115.5 277t295.5 110q104 0 176.5 -48.5t104.5 -120.5l-158 -66q-14 36 -55.5 59.5t-92.5 23.5q-85 0 -146 -65t-61 -159q0 -68 45.5 -115t123.5 -47
q63 0 115 40l12 56h-154l33 144h322l-59 -263q-49 -61 -121 -95t-158 -34q-143 0 -240.5 82.5t-97.5 220.5z" />
    <glyph glyph-name="gdotaccent" unicode="&#x121;" horiz-adv-x="590" 
d="M372 544q-30 0 -50 19.5t-20 49.5q0 34 27 61t62 27q30 0 50 -20.5t20 -49.5q0 -34 -27 -60.5t-62 -26.5zM-30 -111l87 102q22 -29 64.5 -45t87.5 -16q100 0 126 113l8 35q-57 -70 -140 -70q-79 0 -131 48t-52 147q0 115 69 203.5t182 88.5q41 0 81.5 -18.5t66.5 -50.5
l14 57h153l-98 -440q-15 -70 -45.5 -119.5t-70.5 -74t-78.5 -35t-81.5 -10.5q-157 0 -242 85zM367 189l27 121q-32 49 -102 49q-49 0 -81 -35t-32 -91q0 -39 27 -64t70 -25q51 0 91 45z" />
    <glyph glyph-name="uni0122" unicode="&#x122;" horiz-adv-x="723" 
d="M36 291q0 167 115.5 277t295.5 110q104 0 176.5 -48.5t104.5 -120.5l-158 -66q-14 36 -55.5 59.5t-92.5 23.5q-85 0 -146 -65t-61 -159q0 -68 45.5 -115t123.5 -47q63 0 115 40l12 56h-154l33 144h322l-59 -263q-49 -61 -121 -95t-158 -34q-143 0 -240.5 82.5
t-97.5 220.5zM254 -290l-41 41q63 29 82 67q-2 -1 -9 -1q-23 0 -38.5 15.5t-15.5 42.5q0 30 24.5 53t54.5 23q28 0 48 -19t20 -52q0 -48 -35.5 -96t-89.5 -74z" />
    <glyph glyph-name="uni0123" unicode="&#x123;" horiz-adv-x="590" 
d="M424 787l41 -42q-64 -29 -84 -68h9q24 0 40 -15t16 -43q0 -31 -24.5 -54t-55.5 -23q-29 0 -49.5 19t-20.5 53q0 49 36.5 98t91.5 75zM-30 -111l87 102q22 -29 64.5 -45t87.5 -16q100 0 126 113l8 35q-57 -70 -140 -70q-79 0 -131 48t-52 147q0 115 69 203.5t182 88.5
q41 0 81.5 -18.5t66.5 -50.5l14 57h153l-98 -440q-15 -70 -45.5 -119.5t-70.5 -74t-78.5 -35t-81.5 -10.5q-157 0 -242 85zM367 189l27 121q-32 49 -102 49q-49 0 -81 -35t-32 -91q0 -39 27 -64t70 -25q51 0 91 45z" />
    <glyph glyph-name="Hcircumflex" unicode="&#x124;" horiz-adv-x="741" 
d="M548 723l-51 81l-84 -81h-93l122 144h135l61 -144h-90zM455 0l59 268h-277l-59 -268h-172l147 667h172l-55 -249h277l55 249h172l-147 -667h-172z" />
    <glyph glyph-name="hcircumflex" unicode="&#x125;" horiz-adv-x="594" 
d="M473 723l-51 81l-84 -81h-93l122 144h135l61 -144h-90zM330 0l59 274q5 23 5 32q0 27 -19 40t-47 13q-56 0 -103 -47l-68 -312h-154l147 667h154l-55 -243q77 71 157 71q72 0 113.5 -34.5t41.5 -90.5q0 -15 -5 -40l-72 -330h-154z" />
    <glyph glyph-name="Hbar" unicode="&#x126;" horiz-adv-x="748" 
d="M818 586l-19 -85h-59l-110 -501h-172l59 268h-277l-59 -268h-172l110 501h-59l19 85h59l18 81h172l-17 -81h276l18 81h172l-17 -81h58zM550 418l19 83h-277l-18 -83h276z" />
    <glyph glyph-name="hbar" unicode="&#x127;" horiz-adv-x="597" 
d="M409 495q72 0 113.5 -34.5t41.5 -90.5q0 -15 -5 -40l-72 -330h-154l59 274q5 23 5 32q0 27 -19 40t-47 13q-56 0 -103 -47l-68 -312h-154l116 525h-53l19 84h52l13 58h154l-13 -58h140l-19 -84h-140l-23 -101q77 71 157 71z" />
    <glyph glyph-name="Itilde" unicode="&#x128;" horiz-adv-x="292" 
d="M244 753q-25 23 -44 23q-26 0 -36 -49h-79q13 69 41.5 101.5t82.5 32.5q40 0 78 -32q27 -23 44 -23q25 0 37 49h79q-15 -69 -43.5 -101.5t-81.5 -32.5q-37 0 -78 32zM6 0l147 667h172l-147 -667h-172z" />
    <glyph glyph-name="itilde" unicode="&#x129;" horiz-adv-x="266" 
d="M194 586q-25 23 -44 23q-26 0 -36 -49h-79q13 69 41.5 101.5t82.5 32.5q40 0 78 -32q27 -23 44 -23q25 0 37 49h79q-15 -69 -43.5 -101.5t-81.5 -32.5q-37 0 -78 32zM2 0l107 483h154l-107 -483h-154z" />
    <glyph glyph-name="Imacron" unicode="&#x12a;" horiz-adv-x="292" 
d="M78 723l21 85h349l-21 -85h-349zM6 0l147 667h172l-147 -667h-172z" />
    <glyph glyph-name="imacron" unicode="&#x12b;" horiz-adv-x="266" 
d="M28 556l21 85h349l-21 -85h-349zM2 0l107 483h154l-107 -483h-154z" />
    <glyph glyph-name="Ibreve" unicode="&#x12c;" horiz-adv-x="292" 
d="M254 718q-53 0 -94 23.5t-63 64.5l76 55q27 -58 96 -58q68 0 123 58l56 -55q-85 -88 -194 -88zM6 0l147 667h172l-147 -667h-172z" />
    <glyph glyph-name="ibreve" unicode="&#x12d;" horiz-adv-x="266" 
d="M204 551q-53 0 -94 23.5t-63 64.5l76 55q27 -58 96 -58q68 0 123 58l56 -55q-85 -88 -194 -88zM2 0l107 483h154l-107 -483h-154z" />
    <glyph glyph-name="Iogonek" unicode="&#x12e;" horiz-adv-x="292" 
d="M178 0q-46 -8 -75 -28.5t-29 -45.5q0 -10 7.5 -16.5t20.5 -6.5q14 0 28 6l9 -76q-41 -19 -102 -19q-46 0 -76 17t-30 50q0 41 38.5 71t101.5 48h-65l147 667h172z" />
    <glyph glyph-name="iogonek" unicode="&#x12f;" horiz-adv-x="266" 
d="M228 720q34 0 57 -22t23 -53q0 -46 -31.5 -73.5t-68.5 -27.5q-34 0 -57 22t-23 53q0 46 31.5 73.5t68.5 27.5zM2 0l107 483h154l-107 -483q-46 -8 -75 -28.5t-29 -45.5q0 -10 7.5 -16.5t20.5 -6.5q14 0 28 6l9 -76q-41 -19 -102 -19q-46 0 -76 17t-30 50q0 41 38.5 71
t101.5 48h-47z" />
    <glyph glyph-name="Idotaccent" unicode="&#x130;" horiz-adv-x="292" 
d="M257 711q-30 0 -50 19.5t-20 49.5q0 34 27 61t62 27q30 0 50 -20.5t20 -49.5q0 -34 -27 -60.5t-62 -26.5zM6 0l147 667h172l-147 -667h-172z" />
    <glyph glyph-name="dotlessi" unicode="&#x131;" horiz-adv-x="266" 
d="M2 0l107 483h154l-107 -483h-154z" />
    <glyph glyph-name="IJ" unicode="&#x132;" horiz-adv-x="784" 
d="M6 0l147 667h172l-147 -667h-172zM259 59l91 129q36 -48 97 -48q83 0 102 91l96 436h172l-97 -438q-27 -125 -89 -183t-171 -58q-133 0 -201 71z" />
    <glyph glyph-name="ij" unicode="&#x133;" horiz-adv-x="532" 
d="M128 619q0 46 31.5 73.5t68.5 27.5q34 0 57 -22t23 -53q0 -46 -31.5 -73.5t-68.5 -27.5q-34 0 -57 22t-23 53zM474 544q-34 0 -57 22t-23 53q0 46 31.5 73.5t68.5 27.5q34 0 57 -22t23 -53q0 -46 -31.5 -73.5t-68.5 -27.5zM2 0l107 483h154l-107 -483h-154zM140 -187
l30 124q12 -4 29 -4q53 0 69 71l107 479h154l-107 -479q-43 -200 -202 -200q-46 0 -80 9z" />
    <glyph glyph-name="Jcircumflex" unicode="&#x134;" horiz-adv-x="492" 
d="M524 723l-51 81l-84 -81h-93l122 144h135l61 -144h-90zM-33 59l91 129q36 -48 97 -48q83 0 102 91l96 436h172l-97 -438q-27 -125 -89 -183t-171 -58q-133 0 -201 71z" />
    <glyph glyph-name="jcircumflex" unicode="&#x135;" horiz-adv-x="266" 
d="M273 556l-51 81l-84 -81h-93l122 144h135l61 -144h-90zM-126 -187l30 124q12 -4 29 -4q53 0 69 71l107 479h154l-107 -479q-43 -200 -202 -200q-46 0 -80 9z" />
    <glyph glyph-name="uni0136" unicode="&#x136;" horiz-adv-x="654" 
d="M407 0l-124 257l-62 -62l-43 -195h-172l147 667h172l-57 -261l253 261h221l-327 -312l194 -355h-202zM203 -290l-41 41q63 29 82 67q-2 -1 -9 -1q-23 0 -38.5 15.5t-15.5 42.5q0 30 24.5 53t54.5 23q28 0 48 -19t20 -52q0 -48 -35.5 -96t-89.5 -74z" />
    <glyph glyph-name="uni0137" unicode="&#x137;" horiz-adv-x="546" 
d="M313 0l-70 174l-62 -58l-25 -116h-154l147 667h154l-82 -369l183 185h192l-227 -220l129 -263h-185zM141 -290l-41 41q63 29 82 67q-2 -1 -9 -1q-23 0 -38.5 15.5t-15.5 42.5q0 30 24.5 53t54.5 23q28 0 48 -19t20 -52q0 -48 -35.5 -96t-89.5 -74z" />
    <glyph glyph-name="kgreenlandic" unicode="&#x138;" horiz-adv-x="546" 
d="M313 0l-70 174l-62 -58l-25 -116h-154l107 483h154l-42 -185l183 185h192l-227 -220l129 -263h-185z" />
    <glyph glyph-name="Lacute" unicode="&#x139;" horiz-adv-x="529" 
d="M302 723h-106l159 144h138zM6 0l147 667h172l-114 -517h268l-33 -150h-440z" />
    <glyph glyph-name="lacute" unicode="&#x13a;" horiz-adv-x="266" 
d="M290 723h-106l159 144h138zM2 0l147 667h154l-147 -667h-154z" />
    <glyph glyph-name="uni013B" unicode="&#x13b;" horiz-adv-x="529" 
d="M6 0l147 667h172l-114 -517h268l-33 -150h-440zM149 -290l-41 41q63 29 82 67q-2 -1 -9 -1q-23 0 -38.5 15.5t-15.5 42.5q0 30 24.5 53t54.5 23q28 0 48 -19t20 -52q0 -48 -35.5 -96t-89.5 -74z" />
    <glyph glyph-name="uni013C" unicode="&#x13c;" horiz-adv-x="266" 
d="M2 0l147 667h154l-147 -667h-154zM2 -290l-41 41q63 29 82 67q-2 -1 -9 -1q-23 0 -38.5 15.5t-15.5 42.5q0 30 24.5 53t54.5 23q28 0 48 -19t20 -52q0 -48 -35.5 -96t-89.5 -74z" />
    <glyph glyph-name="Lcaron" unicode="&#x13d;" horiz-adv-x="529" 
d="M406 440l-41 41q63 29 82 67q-2 -1 -9 -1q-23 0 -38.5 15.5t-15.5 42.5q0 30 24.5 53t54.5 23q28 0 48 -19t20 -52q0 -48 -35.5 -96t-89.5 -74zM6 0l147 667h172l-114 -517h268l-33 -150h-440z" />
    <glyph glyph-name="lcaron" unicode="&#x13e;" horiz-adv-x="386" 
d="M356 440l-41 41q63 29 82 67q-2 -1 -9 -1q-23 0 -38.5 15.5t-15.5 42.5q0 30 24.5 53t54.5 23q28 0 48 -19t20 -52q0 -48 -35.5 -96t-89.5 -74zM2 0l147 667h154l-147 -667h-154z" />
    <glyph glyph-name="Ldot" unicode="&#x13f;" horiz-adv-x="570" 
d="M6 0l147 667h172l-114 -517h268l-33 -150h-440zM359 336q0 41 31 71.5t72 30.5q36 0 60.5 -25.5t24.5 -61.5q0 -42 -30.5 -72t-71.5 -30q-36 0 -61 25.5t-25 61.5z" />
    <glyph glyph-name="ldot" unicode="&#x140;" horiz-adv-x="423" 
d="M2 0l147 667h154l-147 -667h-154zM250 238q0 41 31 71.5t72 30.5q36 0 60.5 -25.5t24.5 -61.5q0 -42 -30.5 -72t-71.5 -30q-36 0 -61 25.5t-25 61.5z" />
    <glyph glyph-name="Lslash" unicode="&#x141;" horiz-adv-x="544" 
d="M225 150h268l-33 -150h-440l47 213l-71 -36l30 138l72 37l69 315h172l-47 -215l74 38l-30 -139l-75 -38z" />
    <glyph glyph-name="lslash" unicode="&#x142;" horiz-adv-x="319" 
d="M363 476l-25 -109l-85 -43l-71 -324h-154l52 235l-85 -43l25 109l84 43l71 323h154l-52 -235z" />
    <glyph glyph-name="Nacute" unicode="&#x143;" horiz-adv-x="740" 
d="M526 723h-106l159 144h138zM460 0l-189 424l-93 -424h-172l147 667h177l181 -405l89 405h173l-147 -667h-166z" />
    <glyph glyph-name="nacute" unicode="&#x144;" horiz-adv-x="593" 
d="M416 556h-106l159 144h138zM329 0l60 271q5 23 5 35q0 27 -19 40t-47 13q-56 0 -103 -47l-69 -312h-154l107 483h154l-14 -59q77 71 157 71q72 0 113.5 -34.5t41.5 -90.5q0 -15 -5 -40l-73 -330h-154z" />
    <glyph glyph-name="uni0145" unicode="&#x145;" horiz-adv-x="740" 
d="M460 0l-189 424l-93 -424h-172l147 667h177l181 -405l89 405h173l-147 -667h-166zM239 -290l-41 41q63 29 82 67q-2 -1 -9 -1q-23 0 -38.5 15.5t-15.5 42.5q0 30 24.5 53t54.5 23q28 0 48 -19t20 -52q0 -48 -35.5 -96t-89.5 -74z" />
    <glyph glyph-name="uni0146" unicode="&#x146;" horiz-adv-x="593" 
d="M329 0l60 271q5 23 5 35q0 27 -19 40t-47 13q-56 0 -103 -47l-69 -312h-154l107 483h154l-14 -59q77 71 157 71q72 0 113.5 -34.5t41.5 -90.5q0 -15 -5 -40l-73 -330h-154zM165 -290l-41 41q63 29 82 67q-2 -1 -9 -1q-23 0 -38.5 15.5t-15.5 42.5q0 30 24.5 53t54.5 23
q28 0 48 -19t20 -52q0 -48 -35.5 -96t-89.5 -74z" />
    <glyph glyph-name="Ncaron" unicode="&#x147;" horiz-adv-x="740" 
d="M409 723l-61 144h89l51 -81l84 81h94l-122 -144h-135zM460 0l-189 424l-93 -424h-172l147 667h177l181 -405l89 405h173l-147 -667h-166z" />
    <glyph glyph-name="ncaron" unicode="&#x148;" horiz-adv-x="593" 
d="M299 556l-61 144h89l51 -81l84 81h94l-122 -144h-135zM329 0l60 271q5 23 5 35q0 27 -19 40t-47 13q-56 0 -103 -47l-69 -312h-154l107 483h154l-14 -59q77 71 157 71q72 0 113.5 -34.5t41.5 -90.5q0 -15 -5 -40l-73 -330h-154z" />
    <glyph glyph-name="napostrophe" unicode="&#x149;" horiz-adv-x="593" 
d="M156 534l-41 41q63 29 82 67q-2 -1 -9 -1q-23 0 -38.5 15.5t-15.5 42.5q0 30 24.5 53t54.5 23q28 0 48 -19t20 -52q0 -48 -35.5 -96t-89.5 -74zM329 0l60 271q5 23 5 35q0 27 -19 40t-47 13q-56 0 -103 -47l-69 -312h-154l107 483h154l-14 -59q77 71 157 71
q72 0 113.5 -34.5t41.5 -90.5q0 -15 -5 -40l-73 -330h-154z" />
    <glyph glyph-name="Eng" unicode="&#x14a;" horiz-adv-x="740" 
d="M600 667h173l-139 -623q-28 -125 -91 -182.5t-169 -57.5q-133 0 -200 71l87 114q15 -21 41.5 -35t55.5 -14q71 0 96 71l-183 413l-93 -424h-172l147 667h177l181 -405z" />
    <glyph glyph-name="eng" unicode="&#x14b;" horiz-adv-x="593" 
d="M483 4q-44 -200 -202 -200q-45 0 -80 9l30 124q12 -4 29 -4q53 0 69 71l62 276q3 14 3 24q0 28 -17 41.5t-41 13.5q-64 0 -111 -47l-69 -312h-154l107 483h154l-14 -59q77 71 157 71q69 0 112 -33.5t43 -91.5q0 -17 -5 -40z" />
    <glyph glyph-name="Omacron" unicode="&#x14c;" horiz-adv-x="766" 
d="M314 723l21 85h349l-21 -85h-349zM36 291q0 162 113 274.5t281 112.5q145 0 241.5 -83.5t96.5 -217.5q0 -163 -113 -276t-281 -113q-146 0 -242 84t-96 219zM589 364q0 72 -47 117t-122 45q-87 0 -146 -65.5t-59 -158.5q0 -72 47 -117t122 -45q87 0 146 65.5t59 158.5z
" />
    <glyph glyph-name="omacron" unicode="&#x14d;" horiz-adv-x="576" 
d="M182 556l21 85h349l-21 -85h-349zM20 210q0 115 81 200t203 85q118 0 183.5 -62.5t65.5 -160.5q0 -115 -81 -199.5t-203 -84.5q-118 0 -183.5 62.5t-65.5 159.5zM396 265q0 44 -26 69t-71 25q-53 0 -87 -42t-34 -99q0 -44 26 -69t71 -25q52 0 86.5 42t34.5 99z" />
    <glyph glyph-name="Obreve" unicode="&#x14e;" horiz-adv-x="766" 
d="M490 718q-53 0 -94 23.5t-63 64.5l76 55q27 -58 96 -58q68 0 123 58l56 -55q-85 -88 -194 -88zM36 291q0 162 113 274.5t281 112.5q145 0 241.5 -83.5t96.5 -217.5q0 -163 -113 -276t-281 -113q-146 0 -242 84t-96 219zM589 364q0 72 -47 117t-122 45q-87 0 -146 -65.5
t-59 -158.5q0 -72 47 -117t122 -45q87 0 146 65.5t59 158.5z" />
    <glyph glyph-name="obreve" unicode="&#x14f;" horiz-adv-x="576" 
d="M358 551q-53 0 -94 23.5t-63 64.5l76 55q27 -58 96 -58q68 0 123 58l56 -55q-85 -88 -194 -88zM20 210q0 115 81 200t203 85q118 0 183.5 -62.5t65.5 -160.5q0 -115 -81 -199.5t-203 -84.5q-118 0 -183.5 62.5t-65.5 159.5zM396 265q0 44 -26 69t-71 25q-53 0 -87 -42
t-34 -99q0 -44 26 -69t71 -25q52 0 86.5 42t34.5 99z" />
    <glyph glyph-name="Ohungarumlaut" unicode="&#x150;" horiz-adv-x="766" 
d="M455 723h-89l116 144h120zM608 723h-89l115 144h121zM36 291q0 162 113 274.5t281 112.5q145 0 241.5 -83.5t96.5 -217.5q0 -163 -113 -276t-281 -113q-146 0 -242 84t-96 219zM589 364q0 72 -47 117t-122 45q-87 0 -146 -65.5t-59 -158.5q0 -72 47 -117t122 -45
q87 0 146 65.5t59 158.5z" />
    <glyph glyph-name="ohungarumlaut" unicode="&#x151;" horiz-adv-x="576" 
d="M323 556h-89l116 144h120zM476 556h-89l115 144h121zM20 210q0 115 81 200t203 85q118 0 183.5 -62.5t65.5 -160.5q0 -115 -81 -199.5t-203 -84.5q-118 0 -183.5 62.5t-65.5 159.5zM396 265q0 44 -26 69t-71 25q-53 0 -87 -42t-34 -99q0 -44 26 -69t71 -25q52 0 86.5 42
t34.5 99z" />
    <glyph glyph-name="OE" unicode="&#x152;" horiz-adv-x="1073" 
d="M494 0l13 62q-71 -74 -192 -74q-116 0 -197.5 86t-81.5 217q0 170 111 278t268 108q140 0 208 -94l18 84h489l-32 -145h-317l-24 -111h309l-32 -146h-309l-27 -120h317l-32 -145h-489zM586 418q-18 51 -59.5 79t-98.5 28q-94 0 -153.5 -65.5t-59.5 -157.5
q0 -73 45.5 -117.5t115.5 -44.5q104 0 168 88z" />
    <glyph glyph-name="oe" unicode="&#x153;" horiz-adv-x="916" 
d="M548 193v-6q0 -26 31.5 -53t82.5 -27q71 0 112 30l46 -102q-68 -47 -170 -47q-67 0 -118 27t-75 64q-31 -29 -50.5 -44.5t-58 -31t-81.5 -15.5q-111 0 -179 59t-68 163q0 112 79 198.5t203 86.5q63 0 112 -27.5t74 -64.5q27 27 48.5 44t60 32.5t80.5 15.5
q92 0 155.5 -56.5t63.5 -161.5q0 -34 -10 -84h-338zM759 293q1 2 1 6q0 30 -22.5 53.5t-67.5 23.5q-41 0 -71 -26.5t-36 -56.5h196zM297 359q-50 0 -84.5 -40.5t-34.5 -100.5q0 -45 25 -69.5t70 -24.5q51 0 85 41.5t34 99.5q0 47 -26.5 70.5t-68.5 23.5z" />
    <glyph glyph-name="Racute" unicode="&#x154;" horiz-adv-x="661" 
d="M490 723h-106l159 144h138zM385 0l-62 226h-95l-50 -226h-172l147 667h304q89 0 152.5 -54t63.5 -141t-51 -151.5t-127 -84.5l80 -236h-190zM393 372q47 0 74 22.5t27 60.5q0 30 -21 48.5t-52 18.5h-128l-33 -150h133z" />
    <glyph glyph-name="racute" unicode="&#x155;" horiz-adv-x="375" 
d="M328 556h-106l159 144h138zM2 0l107 483h154l-14 -60q67 72 167 72l-33 -151q-24 6 -50 6q-66 0 -111 -47l-66 -303h-154z" />
    <glyph glyph-name="uni0156" unicode="&#x156;" horiz-adv-x="661" 
d="M385 0l-62 226h-95l-50 -226h-172l147 667h304q89 0 152.5 -54t63.5 -141t-51 -151.5t-127 -84.5l80 -236h-190zM393 372q47 0 74 22.5t27 60.5q0 30 -21 48.5t-52 18.5h-128l-33 -150h133zM203 -290l-41 41q63 29 82 67q-2 -1 -9 -1q-23 0 -38.5 15.5t-15.5 42.5
q0 30 24.5 53t54.5 23q28 0 48 -19t20 -52q0 -48 -35.5 -96t-89.5 -74z" />
    <glyph glyph-name="uni0157" unicode="&#x157;" horiz-adv-x="375" 
d="M2 0l107 483h154l-14 -60q67 72 167 72l-33 -151q-24 6 -50 6q-66 0 -111 -47l-66 -303h-154zM5 -290l-41 41q63 29 82 67q-2 -1 -9 -1q-23 0 -38.5 15.5t-15.5 42.5q0 30 24.5 53t54.5 23q28 0 48 -19t20 -52q0 -48 -35.5 -96t-89.5 -74z" />
    <glyph glyph-name="Rcaron" unicode="&#x158;" horiz-adv-x="661" 
d="M373 723l-61 144h89l51 -81l84 81h94l-122 -144h-135zM385 0l-62 226h-95l-50 -226h-172l147 667h304q89 0 152.5 -54t63.5 -141t-51 -151.5t-127 -84.5l80 -236h-190zM393 372q47 0 74 22.5t27 60.5q0 30 -21 48.5t-52 18.5h-128l-33 -150h133z" />
    <glyph glyph-name="rcaron" unicode="&#x159;" horiz-adv-x="375" 
d="M211 556l-61 144h89l51 -81l84 81h94l-122 -144h-135zM2 0l107 483h154l-14 -60q67 72 167 72l-33 -151q-24 6 -50 6q-66 0 -111 -47l-66 -303h-154z" />
    <glyph glyph-name="Sacute" unicode="&#x15a;" horiz-adv-x="606" 
d="M453 723h-106l159 144h138zM-10 115l103 121q36 -46 98 -73.5t129 -27.5q40 0 59.5 16.5t19.5 38.5t-24.5 37t-75.5 33q-37 13 -59.5 21.5t-57 27.5t-53.5 38.5t-34 51t-15 68.5q0 79 73 144.5t197 65.5q82 0 155.5 -28.5t123.5 -81.5l-103 -118q-35 40 -90 61.5
t-106 21.5q-33 0 -52.5 -15t-19.5 -36q0 -20 24.5 -34.5t74.5 -32.5q45 -15 76.5 -28.5t68.5 -37.5t57 -58t20 -77q0 -94 -74 -159.5t-197 -65.5q-101 0 -186 34.5t-132 92.5z" />
    <glyph glyph-name="sacute" unicode="&#x15b;" horiz-adv-x="484" 
d="M360 556h-106l159 144h138zM-14 76l79 97q25 -27 75.5 -50t98.5 -23q23 0 37 10.5t14 26.5q0 25 -80 50q-26 8 -43.5 14.5t-42 19t-39 26t-25 34t-10.5 44.5q0 70 55.5 120t151.5 50q61 0 118 -20.5t97 -57.5l-73 -94q-20 22 -60.5 40.5t-81.5 18.5q-26 0 -40 -9.5
t-14 -24.5q0 -22 73 -44q29 -9 45.5 -14.5t43 -18t41.5 -26t26.5 -35.5t11.5 -48q0 -75 -59.5 -124.5t-159.5 -49.5q-68 0 -131.5 23t-107.5 65z" />
    <glyph glyph-name="Scircumflex" unicode="&#x15c;" horiz-adv-x="606" 
d="M474 723l-51 81l-84 -81h-93l122 144h135l61 -144h-90zM-10 115l103 121q36 -46 98 -73.5t129 -27.5q40 0 59.5 16.5t19.5 38.5t-24.5 37t-75.5 33q-37 13 -59.5 21.5t-57 27.5t-53.5 38.5t-34 51t-15 68.5q0 79 73 144.5t197 65.5q82 0 155.5 -28.5t123.5 -81.5
l-103 -118q-35 40 -90 61.5t-106 21.5q-33 0 -52.5 -15t-19.5 -36q0 -20 24.5 -34.5t74.5 -32.5q45 -15 76.5 -28.5t68.5 -37.5t57 -58t20 -77q0 -94 -74 -159.5t-197 -65.5q-101 0 -186 34.5t-132 92.5z" />
    <glyph glyph-name="scircumflex" unicode="&#x15d;" horiz-adv-x="484" 
d="M381 556l-51 81l-84 -81h-93l122 144h135l61 -144h-90zM-14 76l79 97q25 -27 75.5 -50t98.5 -23q23 0 37 10.5t14 26.5q0 25 -80 50q-26 8 -43.5 14.5t-42 19t-39 26t-25 34t-10.5 44.5q0 70 55.5 120t151.5 50q61 0 118 -20.5t97 -57.5l-73 -94q-20 22 -60.5 40.5
t-81.5 18.5q-26 0 -40 -9.5t-14 -24.5q0 -22 73 -44q29 -9 45.5 -14.5t43 -18t41.5 -26t26.5 -35.5t11.5 -48q0 -75 -59.5 -124.5t-159.5 -49.5q-68 0 -131.5 23t-107.5 65z" />
    <glyph glyph-name="uni015E" unicode="&#x15e;" horiz-adv-x="606" 
d="M357 414q45 -15 76.5 -28.5t68.5 -37.5t57 -58t20 -77q0 -94 -74 -159.5t-197 -65.5q-26 0 -38 1l-25 -38q16 10 30 10q26 0 43 -17.5t17 -46.5q0 -43 -33.5 -69t-82.5 -26q-81 0 -124 43l39 54q39 -36 85 -36q44 0 44 30q0 20 -26 20q-16 0 -27 -13l-46 30l41 68
q-142 28 -215 117l103 121q36 -46 98 -73.5t129 -27.5q40 0 59.5 16.5t19.5 38.5t-24.5 37t-75.5 33q-37 13 -59.5 21.5t-57 27.5t-53.5 38.5t-34 51t-15 68.5q0 79 73 144.5t197 65.5q82 0 155.5 -28.5t123.5 -81.5l-103 -118q-35 40 -90 61.5t-106 21.5q-33 0 -52.5 -15
t-19.5 -36q0 -20 24.5 -34.5t74.5 -32.5z" />
    <glyph glyph-name="uni015F" unicode="&#x15f;" horiz-adv-x="484" 
d="M276 304q29 -9 45.5 -14.5t43 -18t41.5 -26t26.5 -35.5t11.5 -48q0 -75 -59.5 -124.5t-159.5 -49.5h-13l-24 -37q16 10 30 10q26 0 43 -17.5t17 -46.5q0 -43 -33.5 -69t-82.5 -26q-81 0 -124 43l39 54q39 -36 85 -36q44 0 44 30q0 20 -26 20q-16 0 -27 -13l-46 30l40 66
q-97 19 -161 80l79 97q25 -27 75.5 -50t98.5 -23q23 0 37 10.5t14 26.5q0 25 -80 50q-26 8 -43.5 14.5t-42 19t-39 26t-25 34t-10.5 44.5q0 70 55.5 120t151.5 50q61 0 118 -20.5t97 -57.5l-73 -94q-20 22 -60.5 40.5t-81.5 18.5q-26 0 -40 -9.5t-14 -24.5q0 -22 73 -44z
" />
    <glyph glyph-name="Scaron" unicode="&#x160;" horiz-adv-x="606" 
d="M336 723l-61 144h89l51 -81l84 81h94l-122 -144h-135zM-10 115l103 121q36 -46 98 -73.5t129 -27.5q40 0 59.5 16.5t19.5 38.5t-24.5 37t-75.5 33q-37 13 -59.5 21.5t-57 27.5t-53.5 38.5t-34 51t-15 68.5q0 79 73 144.5t197 65.5q82 0 155.5 -28.5t123.5 -81.5
l-103 -118q-35 40 -90 61.5t-106 21.5q-33 0 -52.5 -15t-19.5 -36q0 -20 24.5 -34.5t74.5 -32.5q45 -15 76.5 -28.5t68.5 -37.5t57 -58t20 -77q0 -94 -74 -159.5t-197 -65.5q-101 0 -186 34.5t-132 92.5z" />
    <glyph glyph-name="scaron" unicode="&#x161;" horiz-adv-x="484" 
d="M243 556l-61 144h89l51 -81l84 81h94l-122 -144h-135zM-14 76l79 97q25 -27 75.5 -50t98.5 -23q23 0 37 10.5t14 26.5q0 25 -80 50q-26 8 -43.5 14.5t-42 19t-39 26t-25 34t-10.5 44.5q0 70 55.5 120t151.5 50q61 0 118 -20.5t97 -57.5l-73 -94q-20 22 -60.5 40.5
t-81.5 18.5q-26 0 -40 -9.5t-14 -24.5q0 -22 73 -44q29 -9 45.5 -14.5t43 -18t41.5 -26t26.5 -35.5t11.5 -48q0 -75 -59.5 -124.5t-159.5 -49.5q-68 0 -131.5 23t-107.5 65z" />
    <glyph glyph-name="uni0162" unicode="&#x162;" 
d="M155 0l113 517h-187l34 150h545l-33 -150h-187l-113 -517h-172zM164 -290l-41 41q63 29 82 67q-2 -1 -9 -1q-23 0 -38.5 15.5t-15.5 42.5q0 30 24.5 53t54.5 23q28 0 48 -19t20 -52q0 -48 -35.5 -96t-89.5 -74z" />
    <glyph glyph-name="uni0163" unicode="&#x163;" horiz-adv-x="360" 
d="M61 102q0 15 3 35l47 213h-80l30 133h80l29 132h154l-29 -132h98l-30 -133h-98l-36 -164q-3 -12 -3 -22q0 -40 46 -40q20 0 30 8l2 -123q-27 -21 -83 -21q-73 0 -116.5 28.5t-43.5 85.5zM37 -290l-41 41q63 29 82 67q-2 -1 -9 -1q-23 0 -38.5 15.5t-15.5 42.5
q0 30 24.5 53t54.5 23q28 0 48 -19t20 -52q0 -48 -35.5 -96t-89.5 -74z" />
    <glyph glyph-name="Tcaron" unicode="&#x164;" 
d="M334 723l-61 144h89l51 -81l84 81h94l-122 -144h-135zM155 0l113 517h-187l34 150h545l-33 -150h-187l-113 -517h-172z" />
    <glyph glyph-name="tcaron" unicode="&#x165;" horiz-adv-x="391" 
d="M393 534l-41 41q63 29 82 67q-2 -1 -9 -1q-23 0 -38.5 15.5t-15.5 42.5q0 30 24.5 53t54.5 23q28 0 48 -19t20 -52q0 -48 -35.5 -96t-89.5 -74zM61 102q0 15 3 35l47 213h-80l30 133h80l29 132h154l-29 -132h98l-30 -133h-98l-36 -164q-3 -12 -3 -22q0 -40 46 -40
q20 0 30 8l2 -123q-27 -21 -83 -21q-73 0 -116.5 28.5t-43.5 85.5z" />
    <glyph glyph-name="Tbar" unicode="&#x166;" 
d="M627 517h-187l-40 -185h124l-18 -85h-125l-54 -247h-172l54 247h-125l19 85h125l40 185h-187l34 150h545z" />
    <glyph glyph-name="tbar" unicode="&#x167;" horiz-adv-x="360" 
d="M363 350h-98l-14 -65h66l-18 -85h-67l-3 -14q-3 -12 -3 -22q0 -40 46 -40q20 0 30 8l2 -123q-27 -21 -83 -21q-73 0 -116.5 28.5t-43.5 85.5q0 15 3 35l14 63h-80l18 85h81l14 65h-80l30 133h80l29 132h154l-29 -132h98z" />
    <glyph glyph-name="Utilde" unicode="&#x168;" horiz-adv-x="739" 
d="M467 753q-25 23 -44 23q-26 0 -36 -49h-79q13 69 41.5 101.5t82.5 32.5q40 0 78 -32q27 -23 44 -23q25 0 37 49h79q-15 -69 -43.5 -101.5t-81.5 -32.5q-37 0 -78 32zM350 -12q-139 0 -213.5 65t-74.5 173q0 31 10 74l81 367h175l-83 -374q-6 -27 -6 -48q1 -47 32 -77
t90 -30q119 0 149 136l87 393h175l-88 -396q-29 -134 -106.5 -208.5t-227.5 -74.5z" />
    <glyph glyph-name="utilde" unicode="&#x169;" horiz-adv-x="592" 
d="M357 586q-25 23 -44 23q-26 0 -36 -49h-79q13 69 41.5 101.5t82.5 32.5q40 0 78 -32q27 -23 44 -23q25 0 37 49h79q-15 -69 -43.5 -101.5t-81.5 -32.5q-37 0 -78 32zM262 483l-61 -279q-4 -18 -4 -26q0 -54 71 -54q49 0 99 48l68 311h154l-107 -483h-154l14 59
q-77 -71 -157 -71q-72 0 -113.5 34.5t-41.5 90.5q0 15 5 40l74 330h153z" />
    <glyph glyph-name="Umacron" unicode="&#x16a;" horiz-adv-x="739" 
d="M301 723l21 85h349l-21 -85h-349zM350 -12q-139 0 -213.5 65t-74.5 173q0 31 10 74l81 367h175l-83 -374q-6 -27 -6 -48q1 -47 32 -77t90 -30q119 0 149 136l87 393h175l-88 -396q-29 -134 -106.5 -208.5t-227.5 -74.5z" />
    <glyph glyph-name="umacron" unicode="&#x16b;" horiz-adv-x="592" 
d="M191 556l21 85h349l-21 -85h-349zM262 483l-61 -279q-4 -18 -4 -26q0 -54 71 -54q49 0 99 48l68 311h154l-107 -483h-154l14 59q-77 -71 -157 -71q-72 0 -113.5 34.5t-41.5 90.5q0 15 5 40l74 330h153z" />
    <glyph glyph-name="Ubreve" unicode="&#x16c;" horiz-adv-x="739" 
d="M477 718q-53 0 -94 23.5t-63 64.5l76 55q27 -58 96 -58q68 0 123 58l56 -55q-85 -88 -194 -88zM350 -12q-139 0 -213.5 65t-74.5 173q0 31 10 74l81 367h175l-83 -374q-6 -27 -6 -48q1 -47 32 -77t90 -30q119 0 149 136l87 393h175l-88 -396q-29 -134 -106.5 -208.5
t-227.5 -74.5z" />
    <glyph glyph-name="ubreve" unicode="&#x16d;" horiz-adv-x="592" 
d="M367 551q-53 0 -94 23.5t-63 64.5l76 55q27 -58 96 -58q68 0 123 58l56 -55q-85 -88 -194 -88zM262 483l-61 -279q-4 -18 -4 -26q0 -54 71 -54q49 0 99 48l68 311h154l-107 -483h-154l14 59q-77 -71 -157 -71q-72 0 -113.5 34.5t-41.5 90.5q0 15 5 40l74 330h153z" />
    <glyph glyph-name="Uring" unicode="&#x16e;" horiz-adv-x="739" 
d="M384 791q0 48 35.5 83t83.5 35q44 0 71.5 -27.5t27.5 -71.5q0 -48 -35.5 -83t-83.5 -35q-44 0 -71.5 27.5t-27.5 71.5zM533 804q0 16 -10.5 26.5t-26.5 10.5q-17 0 -30 -13t-13 -30q0 -16 10.5 -26.5t26.5 -10.5q17 0 30 12.5t13 30.5zM350 -12q-139 0 -213.5 65
t-74.5 173q0 31 10 74l81 367h175l-83 -374q-6 -27 -6 -48q1 -47 32 -77t90 -30q119 0 149 136l87 393h175l-88 -396q-29 -134 -106.5 -208.5t-227.5 -74.5z" />
    <glyph glyph-name="uring" unicode="&#x16f;" horiz-adv-x="592" 
d="M274 624q0 48 35.5 83t83.5 35q44 0 71.5 -27.5t27.5 -71.5q0 -48 -35.5 -83t-83.5 -35q-44 0 -71.5 27.5t-27.5 71.5zM423 637q0 17 -10.5 27t-26.5 10q-17 0 -30 -13t-13 -30t10.5 -27t26.5 -10q17 0 30 12.5t13 30.5zM262 483l-61 -279q-4 -18 -4 -26q0 -54 71 -54
q49 0 99 48l68 311h154l-107 -483h-154l14 59q-77 -71 -157 -71q-72 0 -113.5 34.5t-41.5 90.5q0 15 5 40l74 330h153z" />
    <glyph glyph-name="Uhungarumlaut" unicode="&#x170;" horiz-adv-x="739" 
d="M442 723h-89l116 144h120zM595 723h-89l115 144h121zM350 -12q-139 0 -213.5 65t-74.5 173q0 31 10 74l81 367h175l-83 -374q-6 -27 -6 -48q1 -47 32 -77t90 -30q119 0 149 136l87 393h175l-88 -396q-29 -134 -106.5 -208.5t-227.5 -74.5z" />
    <glyph glyph-name="uhungarumlaut" unicode="&#x171;" horiz-adv-x="592" 
d="M332 556h-89l116 144h120zM485 556h-89l115 144h121zM262 483l-61 -279q-4 -18 -4 -26q0 -54 71 -54q49 0 99 48l68 311h154l-107 -483h-154l14 59q-77 -71 -157 -71q-72 0 -113.5 34.5t-41.5 90.5q0 15 5 40l74 330h153z" />
    <glyph glyph-name="Uogonek" unicode="&#x172;" horiz-adv-x="739" 
d="M369 -72q-1 -11 7 -18t21 -7q15 0 27 6l10 -76q-41 -19 -103 -19q-46 0 -77 18t-28 54q3 37 36.5 63.5t86.5 38.5h-12q-118 2 -197.5 63t-79.5 175q0 19 5 44l88 397h175l-87 -393q-3 -7 -3 -28q1 -45 31.5 -76.5t90.5 -31.5q120 0 150 136l87 393h175l-88 -396
q-47 -215 -203 -266q-108 -34 -112 -77z" />
    <glyph glyph-name="uogonek" unicode="&#x173;" horiz-adv-x="592" 
d="M482 0q-46 -8 -75 -28.5t-29 -45.5q0 -10 7.5 -16.5t20.5 -6.5q14 0 28 6l9 -76q-41 -19 -102 -19q-46 0 -76 17t-30 50q0 41 38.5 71t101.5 48h-47l14 59q-77 -71 -157 -71q-72 0 -113.5 34.5t-41.5 90.5q0 15 5 40l74 330h153l-61 -279q-4 -18 -4 -26q0 -54 71 -54
q49 0 99 48l68 311h154z" />
    <glyph glyph-name="Wcircumflex" unicode="&#x174;" horiz-adv-x="936" 
d="M644 723l-51 81l-84 -81h-93l122 144h135l61 -144h-90zM515 0l-9 418l-193 -418h-182l-44 667h189l3 -445l212 445h131l16 -445l199 445h198l-338 -667h-182z" />
    <glyph glyph-name="wcircumflex" unicode="&#x175;" horiz-adv-x="787" 
d="M524 556l-51 81l-84 -81h-93l122 144h135l61 -144h-90zM430 0l-25 299l-156 -299h-166l-36 483h154l11 -296l162 296h137l29 -296l143 296h163l-250 -483h-166z" />
    <glyph glyph-name="Ycircumflex" unicode="&#x176;" horiz-adv-x="655" 
d="M505 723l-51 81l-84 -81h-93l122 144h135l61 -144h-90zM188 0l59 269l-165 398h185l91 -246l197 246h204l-340 -398l-59 -269h-172z" />
    <glyph glyph-name="ycircumflex" unicode="&#x177;" horiz-adv-x="524" 
d="M402 556l-51 81l-84 -81h-93l122 144h135l61 -144h-90zM1 -52q17 -7 50 -7q37 0 55 26l19 31l-82 485h158l40 -306l179 306h167l-341 -552q-43 -70 -90 -98.5t-115 -28.5q-51 0 -89 12z" />
    <glyph glyph-name="Ydieresis" unicode="&#x178;" horiz-adv-x="655" 
d="M335 711q-29 0 -49.5 20t-20.5 49q0 34 27.5 61t61.5 27q30 0 50 -20t20 -50q0 -34 -27 -60.5t-62 -26.5zM549 711q-30 0 -50 20t-20 49q0 34 27 61t62 27q30 0 49.5 -20t19.5 -50q0 -34 -26.5 -60.5t-61.5 -26.5zM188 0l59 269l-165 398h185l91 -246l197 246h204
l-340 -398l-59 -269h-172z" />
    <glyph glyph-name="Zacute" unicode="&#x179;" horiz-adv-x="596" 
d="M454 723h-106l159 144h138zM-15 0l30 137l359 380h-275l33 150h511l-30 -137l-360 -380h283l-33 -150h-518z" />
    <glyph glyph-name="zacute" unicode="&#x17a;" horiz-adv-x="483" 
d="M361 556h-106l159 144h138zM-16 0l24 113l242 236h-189l30 134h403l-25 -109l-246 -241h197l-29 -133h-407z" />
    <glyph glyph-name="Zdotaccent" unicode="&#x17b;" horiz-adv-x="596" 
d="M409 711q-30 0 -50 19.5t-20 49.5q0 34 27 61t62 27q30 0 50 -20.5t20 -49.5q0 -34 -27 -60.5t-62 -26.5zM-15 0l30 137l359 380h-275l33 150h511l-30 -137l-360 -380h283l-33 -150h-518z" />
    <glyph glyph-name="zdotaccent" unicode="&#x17c;" horiz-adv-x="483" 
d="M316 544q-30 0 -50 19.5t-20 49.5q0 34 27 61t62 27q30 0 50 -20.5t20 -49.5q0 -34 -27 -60.5t-62 -26.5zM-16 0l24 113l242 236h-189l30 134h403l-25 -109l-246 -241h197l-29 -133h-407z" />
    <glyph glyph-name="Zcaron" unicode="&#x17d;" horiz-adv-x="596" 
d="M337 723l-61 144h89l51 -81l84 81h94l-122 -144h-135zM-15 0l30 137l359 380h-275l33 150h511l-30 -137l-360 -380h283l-33 -150h-518z" />
    <glyph glyph-name="zcaron" unicode="&#x17e;" horiz-adv-x="483" 
d="M244 556l-61 144h89l51 -81l84 81h94l-122 -144h-135zM-16 0l24 113l242 236h-189l30 134h403l-25 -109l-246 -241h197l-29 -133h-407z" />
    <glyph glyph-name="longs" unicode="&#x17f;" horiz-adv-x="349" 
d="M35 0l77 349h-80l30 134h79l6 26q18 76 68 122t126 46q70 0 114 -27l-51 -102q-17 12 -43 12q-48 0 -60 -51l-112 -509h-154z" />
    <glyph glyph-name="uni018F" unicode="&#x18f;" horiz-adv-x="742" 
d="M407 678q144 0 240.5 -83t96.5 -219q0 -172 -114.5 -280t-279.5 -108q-69 0 -132 26t-110 76.5t-65 125t2 171.5h520q-8 61 -53.5 100t-114.5 39q-41 0 -82.5 -21.5t-63.5 -55.5l-134 88q55 75 133.5 108t156.5 33zM358 140q57 0 104 29.5t75 79.5h-328q11 -46 53 -77.5
t96 -31.5z" />
    <glyph glyph-name="uni0192" unicode="&#x192;" horiz-adv-x="465" 
d="M41 -161l87 392h-72l30 134h71l32 146q17 77 64.5 121.5t124.5 44.5q94 0 151 -51l-63 -121q-16 22 -48 22q-47 0 -60 -55l-25 -107h105l-30 -134h-104l-87 -392h-176z" />
    <glyph glyph-name="uni019D" unicode="&#x19d;" horiz-adv-x="740" 
d="M600 667h173l-147 -667h-166l-189 424l-84 -386q-27 -123 -88.5 -178.5t-170.5 -55.5q-61 0 -111 17l53 138q18 -9 44 -9q40 0 66 24t35 67l138 626h177l181 -405z" />
    <glyph glyph-name="Ohorn" unicode="&#x1a0;" horiz-adv-x="766" 
d="M828 682q0 -42 -29 -83t-76 -64q45 -70 45 -158q0 -163 -113 -276t-281 -113q-146 0 -242 84t-96 219q0 162 113 274.5t281 112.5q167 0 263 -104q48 25 61 54q-2 -1 -8 -1q-20 0 -34 13.5t-14 37.5q0 28 21 48t48 20q25 0 43 -17.5t18 -46.5zM384 140q87 0 146 65.5
t59 158.5q0 72 -47 117t-122 45q-87 0 -146 -65.5t-59 -158.5q0 -72 47 -117t122 -45z" />
    <glyph glyph-name="ohorn" unicode="&#x1a1;" horiz-adv-x="576" 
d="M613 549q0 -40 -28 -80.5t-72 -64.5q40 -57 40 -132q0 -115 -81 -199.5t-203 -84.5q-118 0 -183.5 62.5t-65.5 159.5q0 115 81 200t203 85q109 0 174 -54q48 25 60 54q-2 -1 -7 -1q-21 0 -34.5 13.5t-13.5 37.5q0 28 21 47.5t48 19.5q25 0 43 -17t18 -46zM275 124
q52 0 86.5 42t34.5 99q0 44 -26 69t-71 25q-53 0 -87 -42t-34 -99q0 -44 26 -69t71 -25z" />
    <glyph glyph-name="Uhorn" unicode="&#x1af;" horiz-adv-x="739" 
d="M890 742q0 -52 -39 -95.5t-99 -68.5l-68 -307q-29 -134 -106.5 -208.5t-227.5 -74.5q-139 0 -213.5 65t-74.5 173q0 31 10 74l81 367h175l-83 -374q-6 -27 -6 -48q1 -47 32 -77t90 -30q119 0 149 136l87 393h175l-6 -29q38 24 50 50q-3 -1 -8 -1q-20 0 -34 13.5t-14 37.5
q0 27 21.5 47t48.5 20q25 0 42.5 -17t17.5 -46z" />
    <glyph glyph-name="uhorn" unicode="&#x1b0;" horiz-adv-x="592" 
d="M681 565q0 -89 -107 -149l-92 -416h-154l14 59q-75 -71 -157 -71q-72 0 -113.5 34.5t-41.5 90.5q0 15 5 40l73 330h154l-62 -280q-3 -13 -3 -25q0 -54 74 -54q46 0 95 47l69 312h150q16 16 21 28q-2 -1 -8 -1q-20 0 -34 14t-14 38q0 27 21.5 47t48.5 20q25 0 43 -17
t18 -47z" />
    <glyph glyph-name="Gcaron" unicode="&#x1e6;" horiz-adv-x="723" 
d="M424 723l-61 144h89l51 -81l84 81h94l-122 -144h-135zM36 291q0 167 115.5 277t295.5 110q104 0 176.5 -48.5t104.5 -120.5l-158 -66q-14 36 -55.5 59.5t-92.5 23.5q-85 0 -146 -65t-61 -159q0 -68 45.5 -115t123.5 -47q63 0 115 40l12 56h-154l33 144h322l-59 -263
q-49 -61 -121 -95t-158 -34q-143 0 -240.5 82.5t-97.5 220.5z" />
    <glyph glyph-name="gcaron" unicode="&#x1e7;" horiz-adv-x="590" 
d="M300 556l-61 144h89l51 -81l84 81h94l-122 -144h-135zM-30 -111l87 102q22 -29 64.5 -45t87.5 -16q100 0 126 113l8 35q-57 -70 -140 -70q-79 0 -131 48t-52 147q0 115 69 203.5t182 88.5q41 0 81.5 -18.5t66.5 -50.5l14 57h153l-98 -440q-15 -70 -45.5 -119.5t-70.5 -74
t-78.5 -35t-81.5 -10.5q-157 0 -242 85zM367 189l27 121q-32 49 -102 49q-49 0 -81 -35t-32 -91q0 -39 27 -64t70 -25q51 0 91 45z" />
    <glyph glyph-name="uni01EA" unicode="&#x1ea;" horiz-adv-x="766" 
d="M438 -7q-34 -11 -54 -29t-20 -38q0 -10 7.5 -16.5t20.5 -6.5q14 0 28 6l9 -76q-41 -19 -102 -19q-46 0 -76 17t-30 50q0 69 109 109q-129 13 -211.5 95t-82.5 206q0 162 113 274.5t281 112.5q145 0 241.5 -83.5t96.5 -217.5q0 -146 -92.5 -254t-237.5 -130zM215 302
q0 -72 47 -117t122 -45q87 0 146 65.5t59 158.5q0 72 -47 117t-122 45q-87 0 -146 -65.5t-59 -158.5z" />
    <glyph glyph-name="uni01EB" unicode="&#x1eb;" horiz-adv-x="576" 
d="M312 -9q-32 -11 -50.5 -28.5t-18.5 -36.5q0 -10 7.5 -16.5t20.5 -6.5q15 0 28 6l9 -76q-41 -19 -102 -19q-46 0 -76 17t-30 50q0 71 114 111q-93 15 -143.5 74t-50.5 144q0 115 81 200t203 85q118 0 183.5 -62.5t65.5 -160.5q0 -104 -67.5 -185t-173.5 -96zM178 218
q0 -44 26 -69t71 -25q52 0 86.5 42t34.5 99q0 44 -26 69t-71 25q-53 0 -87 -42t-34 -99z" />
    <glyph glyph-name="Aringacute" unicode="&#x1fa;" horiz-adv-x="697" 
d="M551 935h-106l159 144h138zM363 791q0 48 35.5 83t83.5 35q44 0 71.5 -27.5t27.5 -71.5q0 -48 -35.5 -83t-83.5 -35q-44 0 -71.5 27.5t-27.5 71.5zM512 804q0 16 -10 26.5t-27 10.5t-30 -13t-13 -30q0 -16 10 -26.5t27 -10.5t30 12.5t13 30.5zM476 0l-13 101h-276
l-57 -101h-195l398 667h216l105 -667h-178zM417 522l-153 -276h186z" />
    <glyph glyph-name="aringacute" unicode="&#x1fb;" horiz-adv-x="591" 
d="M464 768h-106l159 144h138zM276 624q0 48 35.5 83t83.5 35q44 0 71.5 -27.5t27.5 -71.5q0 -48 -35.5 -83t-83.5 -35q-44 0 -71.5 27.5t-27.5 71.5zM425 637q0 17 -10.5 27t-26.5 10q-17 0 -30 -13t-13 -30t10.5 -27t26.5 -10q17 0 30 12.5t13 30.5zM421 426l13 57h153
l-107 -483h-153l12 56q-59 -68 -138 -68q-83 0 -132 52.5t-49 147.5q0 73 27.5 141.5t87 117t139.5 48.5q99 0 147 -69zM179 220q0 -43 27 -69.5t67 -26.5q53 0 91 45l33 146q-34 44 -96 44q-53 0 -87.5 -40.5t-34.5 -98.5z" />
    <glyph glyph-name="AEacute" unicode="&#x1fc;" horiz-adv-x="979" 
d="M694 723h-106l159 144h138zM400 0l22 101h-222l-78 -101h-193l547 667h560l-33 -145h-316l-24 -111h309l-32 -146h-310l-26 -120h316l-31 -145h-489zM514 522l-204 -276h144z" />
    <glyph glyph-name="aeacute" unicode="&#x1fd;" horiz-adv-x="902" 
d="M577 556h-106l159 144h138zM480 0h-153l12 56q-59 -68 -138 -68q-83 0 -132 52.5t-49 147.5q0 73 27.5 141.5t87 117t139.5 48.5q99 0 147 -69l13 57h153l-10 -47q59 59 133 59q171 0 171 -206q0 -49 -11 -96h-341v-6q0 -23 33.5 -50t89.5 -27q65 0 106 30l47 -105
q-73 -47 -150 -47q-117 0 -160 78zM744 293v6q0 29 -23 53t-68 24q-41 0 -70.5 -26t-37.5 -57h199zM179 220q0 -43 27 -69.5t67 -26.5q53 0 91 45l33 146q-34 44 -96 44q-53 0 -87.5 -40.5t-34.5 -98.5z" />
    <glyph glyph-name="Oslashacute" unicode="&#x1fe;" horiz-adv-x="766" 
d="M729 867l-191 -144h-106l159 144h138zM795 667l-99 -96q72 -82 72 -194q0 -163 -113 -276t-281 -113q-125 0 -213 62l-51 -50h-120l109 106q-63 79 -63 185q0 162 113 274.5t281 112.5q116 0 201 -54l44 43h120zM215 302q0 -38 14 -69l280 272q-39 21 -89 21
q-87 0 -146 -65.5t-59 -158.5zM589 364q0 46 -20 83l-286 -279q42 -28 101 -28q87 0 146 65.5t59 158.5z" />
    <glyph glyph-name="oslashacute" unicode="&#x1ff;" horiz-adv-x="576" 
d="M406 556h-106l159 144h138zM601 483l-88 -79q40 -55 40 -132q0 -115 -81 -199.5t-203 -84.5q-100 0 -164 47l-38 -35h-95l87 80q-39 56 -39 130q0 115 81 200t203 85q99 0 163 -45l36 33h98zM178 218q0 -17 5 -28l168 156q-20 13 -52 13q-53 0 -87 -42t-34 -99zM396 265
q0 16 -5 29l-170 -156q22 -14 54 -14q52 0 86.5 42t34.5 99z" />
    <glyph glyph-name="uni0218" unicode="&#x218;" horiz-adv-x="606" 
d="M-10 115l103 121q36 -46 98 -73.5t129 -27.5q40 0 59.5 16.5t19.5 38.5t-24.5 37t-75.5 33q-37 13 -59.5 21.5t-57 27.5t-53.5 38.5t-34 51t-15 68.5q0 79 73 144.5t197 65.5q82 0 155.5 -28.5t123.5 -81.5l-103 -118q-35 40 -90 61.5t-106 21.5q-33 0 -52.5 -15
t-19.5 -36q0 -20 24.5 -34.5t74.5 -32.5q45 -15 76.5 -28.5t68.5 -37.5t57 -58t20 -77q0 -94 -74 -159.5t-197 -65.5q-101 0 -186 34.5t-132 92.5zM166 -290l-41 41q63 29 82 67q-2 -1 -9 -1q-23 0 -38.5 15.5t-15.5 42.5q0 30 24.5 53t54.5 23q28 0 48 -19t20 -52
q0 -48 -35.5 -96t-89.5 -74z" />
    <glyph glyph-name="uni0219" unicode="&#x219;" horiz-adv-x="484" 
d="M-14 76l79 97q25 -27 75.5 -50t98.5 -23q23 0 37 10.5t14 26.5q0 25 -80 50q-26 8 -43.5 14.5t-42 19t-39 26t-25 34t-10.5 44.5q0 70 55.5 120t151.5 50q61 0 118 -20.5t97 -57.5l-73 -94q-20 22 -60.5 40.5t-81.5 18.5q-26 0 -40 -9.5t-14 -24.5q0 -22 73 -44
q29 -9 45.5 -14.5t43 -18t41.5 -26t26.5 -35.5t11.5 -48q0 -75 -59.5 -124.5t-159.5 -49.5q-68 0 -131.5 23t-107.5 65zM109 -290l-41 41q63 29 82 67q-2 -1 -9 -1q-23 0 -38.5 15.5t-15.5 42.5q0 30 24.5 53t54.5 23q28 0 48 -19t20 -52q0 -48 -35.5 -96t-89.5 -74z" />
    <glyph glyph-name="uni021A" unicode="&#x21a;" 
d="M155 0l113 517h-187l34 150h545l-33 -150h-187l-113 -517h-172zM164 -290l-41 41q63 29 82 67q-2 -1 -9 -1q-23 0 -38.5 15.5t-15.5 42.5q0 30 24.5 53t54.5 23q28 0 48 -19t20 -52q0 -48 -35.5 -96t-89.5 -74z" />
    <glyph glyph-name="uni021B" unicode="&#x21b;" horiz-adv-x="360" 
d="M61 102q0 15 3 35l47 213h-80l30 133h80l29 132h154l-29 -132h98l-30 -133h-98l-36 -164q-3 -12 -3 -22q0 -40 46 -40q20 0 30 8l2 -123q-27 -21 -83 -21q-73 0 -116.5 28.5t-43.5 85.5zM37 -290l-41 41q63 29 82 67q-2 -1 -9 -1q-23 0 -38.5 15.5t-15.5 42.5
q0 30 24.5 53t54.5 23q28 0 48 -19t20 -52q0 -48 -35.5 -96t-89.5 -74z" />
    <glyph glyph-name="uni0232" unicode="&#x232;" horiz-adv-x="655" 
d="M260 723l21 85h349l-21 -85h-349zM188 0l59 269l-165 398h185l91 -246l197 246h204l-340 -398l-59 -269h-172z" />
    <glyph glyph-name="uni0233" unicode="&#x233;" horiz-adv-x="524" 
d="M157 556l21 85h349l-21 -85h-349zM1 -52q17 -7 50 -7q37 0 55 26l19 31l-82 485h158l40 -306l179 306h167l-341 -552q-43 -70 -90 -98.5t-115 -28.5q-51 0 -89 12z" />
    <glyph glyph-name="uni0237" unicode="&#x237;" horiz-adv-x="266" 
d="M-126 -187l30 124q12 -4 29 -4q53 0 69 71l107 479h154l-107 -479q-43 -200 -202 -200q-46 0 -80 9z" />
    <glyph glyph-name="uni0259" unicode="&#x259;" horiz-adv-x="548" 
d="M526 276q0 -119 -80.5 -203.5t-202.5 -84.5q-95 0 -158 58t-63 160q0 50 10 84h341l1 6q0 24 -31.5 52t-84.5 28q-72 0 -113 -30l-48 102q70 47 172 47q117 0 187 -58t70 -161zM158 190v-7q0 -28 23.5 -52t68.5 -24q41 0 71 26t38 57h-201z" />
    <glyph glyph-name="uni0272" unicode="&#x272;" horiz-adv-x="593" 
d="M406 495q72 0 113.5 -34.5t41.5 -90.5q0 -15 -5 -40l-73 -330h-154l60 271q5 23 5 35q0 27 -19 40t-47 13q-56 0 -103 -47l-69 -308q-44 -200 -202 -200q-46 0 -80 9l30 124q12 -4 29 -4q53 0 69 71l107 479h154l-14 -59q77 71 157 71z" />
    <glyph glyph-name="uni02B0" unicode="&#x2b0;" horiz-adv-x="417" 
d="M280 326l39 179q2 12 2 17q0 34 -45 34q-30 0 -62 -32l-43 -198h-110l96 434h110l-35 -157q45 45 101 45q50 0 78 -22.5t28 -62.5q0 -12 -4 -29l-46 -208h-109z" />
    <glyph glyph-name="uni02BB" unicode="&#x2bb;" horiz-adv-x="268" 
d="M244 678l53 -55q-79 -34 -105 -84q3 1 12 1q30 0 50.5 -19.5t20.5 -55.5q0 -40 -31.5 -70t-71.5 -30q-38 0 -64 25t-26 69q0 62 46 123.5t116 95.5z" />
    <glyph glyph-name="uni02BC" unicode="&#x2bc;" horiz-adv-x="268" 
d="M145 364l-52 55q78 34 105 84q-4 -1 -12 -1q-30 0 -51 19.5t-21 55.5q0 40 32 70t72 30q37 0 63.5 -25t26.5 -68q0 -62 -46 -124t-117 -96z" />
    <glyph glyph-name="circumflex" unicode="&#x2c6;" horiz-adv-x="318" 
d="M297 556l-51 81l-84 -81h-93l122 144h135l61 -144h-90z" />
    <glyph glyph-name="caron" unicode="&#x2c7;" horiz-adv-x="318" 
d="M162 556l-61 144h89l51 -81l84 81h94l-122 -144h-135z" />
    <glyph glyph-name="uni02C9" unicode="&#x2c9;" horiz-adv-x="363" 
d="M76 556l19 85h348l-19 -85h-348z" />
    <glyph glyph-name="uni02CB" unicode="&#x2cb;" horiz-adv-x="263" 
d="M228 556l-127 144h136l95 -144h-104z" />
    <glyph glyph-name="breve" unicode="&#x2d8;" horiz-adv-x="351" 
d="M244 551q-53 0 -94 23.5t-63 64.5l76 55q27 -58 96 -58q68 0 123 58l56 -55q-85 -88 -194 -88z" />
    <glyph glyph-name="dotaccent" unicode="&#x2d9;" horiz-adv-x="176" 
d="M163 544q-30 0 -50 19.5t-20 49.5q0 34 27 61t62 27q30 0 50 -20.5t20 -49.5q0 -34 -27 -60.5t-62 -26.5z" />
    <glyph glyph-name="ring" unicode="&#x2da;" horiz-adv-x="258" 
d="M107 624q0 48 35.5 83t83.5 35q44 0 71.5 -27.5t27.5 -71.5q0 -48 -35.5 -83t-83.5 -35q-44 0 -71.5 27.5t-27.5 71.5zM256 637q0 17 -10 27t-27 10t-30 -13t-13 -30t10 -27t27 -10t30 12.5t13 30.5z" />
    <glyph glyph-name="ogonek" unicode="&#x2db;" horiz-adv-x="237" 
d="M137 -167q-41 -19 -102 -19q-46 0 -76 17t-30 50q0 43 41.5 74t109.5 48l96 -3q-46 -8 -75 -28.5t-29 -45.5q0 -10 7.5 -16.5t20.5 -6.5q14 0 28 6z" />
    <glyph glyph-name="tilde" unicode="&#x2dc;" horiz-adv-x="334" 
d="M229 586q-25 23 -44 23q-26 0 -36 -49h-79q13 69 41.5 101.5t82.5 32.5q40 0 78 -32q27 -23 44 -23q25 0 37 49h79q-15 -69 -43.5 -101.5t-81.5 -32.5q-37 0 -78 32z" />
    <glyph glyph-name="hungarumlaut" unicode="&#x2dd;" horiz-adv-x="355" 
d="M156 556h-89l116 144h120zM309 556h-89l115 144h121z" />
    <glyph glyph-name="gravecomb" unicode="&#x300;" horiz-adv-x="0" 
d="M-35 556l-127 144h136l95 -144h-104z" />
    <glyph glyph-name="acutecomb" unicode="&#x301;" horiz-adv-x="0" 
d="M-90 556h-106l159 144h138z" />
    <glyph glyph-name="uni0302" unicode="&#x302;" horiz-adv-x="0" 
d="M-21 556l-51 81l-84 -81h-93l122 144h135l61 -144h-90z" />
    <glyph glyph-name="tildecomb" unicode="&#x303;" horiz-adv-x="0" 
d="M-105 586q-25 23 -44 23q-26 0 -36 -49h-79q13 69 41.5 101.5t82.5 32.5q40 0 78 -32q27 -23 44 -23q25 0 37 49h79q-15 -69 -43.5 -101.5t-81.5 -32.5q-37 0 -78 32z" />
    <glyph glyph-name="uni0304" unicode="&#x304;" horiz-adv-x="0" 
d="M-287 556l21 85h349l-21 -85h-349z" />
    <glyph glyph-name="uni0306" unicode="&#x306;" horiz-adv-x="0" 
d="M-107 551q-53 0 -94 23.5t-63 64.5l76 55q27 -58 96 -58q68 0 123 58l56 -55q-85 -88 -194 -88z" />
    <glyph glyph-name="uni0307" unicode="&#x307;" horiz-adv-x="0" 
d="M-13 544q-30 0 -50 19.5t-20 49.5q0 34 27 61t62 27q30 0 50 -20.5t20 -49.5q0 -34 -27 -60.5t-62 -26.5z" />
    <glyph glyph-name="uni0308" unicode="&#x308;" horiz-adv-x="0" 
d="M-246 544q-29 0 -49.5 20t-20.5 49q0 34 27.5 61t61.5 27q30 0 50 -20t20 -50q0 -34 -27 -60.5t-62 -26.5zM-32 544q-30 0 -50 20t-20 49q0 34 27 61t62 27q30 0 49.5 -20t19.5 -50q0 -34 -26.5 -60.5t-61.5 -26.5z" />
    <glyph glyph-name="uni0309" unicode="&#x309;" horiz-adv-x="0" 
d="M-128 654q36 62 111 62q39 0 70 -21.5t31 -60.5t-29 -78h-83q34 32 34 67q0 13 -9 21.5t-22 8.5q-26 0 -44 -28z" />
    <glyph glyph-name="uni030A" unicode="&#x30a;" horiz-adv-x="0" 
d="M-151 624q0 48 35.5 83t83.5 35q44 0 71.5 -27.5t27.5 -71.5q0 -48 -35.5 -83t-83.5 -35q-44 0 -71.5 27.5t-27.5 71.5zM-2 637q0 17 -10 27t-27 10t-30 -13t-13 -30t10 -27t27 -10t30 12.5t13 30.5z" />
    <glyph glyph-name="uni030B" unicode="&#x30b;" horiz-adv-x="0" 
d="M-199 556h-89l116 144h120zM-46 556h-89l115 144h121z" />
    <glyph glyph-name="uni030C" unicode="&#x30c;" horiz-adv-x="0" 
d="M-156 556l-61 144h89l51 -81l84 81h94l-122 -144h-135z" />
    <glyph glyph-name="uni030F" unicode="&#x30f;" horiz-adv-x="0" 
d="M-170 556l-83 144h119l51 -144h-87zM-17 556l-83 144h118l52 -144h-87z" />
    <glyph glyph-name="uni0311" unicode="&#x311;" horiz-adv-x="0" 
d="M-76 694q53 0 94 -23.5t63 -64.5l-76 -55q-27 58 -96 58q-68 0 -123 -58l-56 55q85 88 194 88z" />
    <glyph glyph-name="dotbelowcomb" unicode="&#x323;" horiz-adv-x="0" 
d="M-179 -198q-29 0 -49 19.5t-20 49.5q0 34 27 61t62 27q29 0 49.5 -20.5t20.5 -49.5q0 -34 -27.5 -60.5t-62.5 -26.5z" />
    <glyph glyph-name="uni0326" unicode="&#x326;" horiz-adv-x="0" 
d="M-265 -290l-41 41q63 29 82 67q-2 -1 -9 -1q-23 0 -38.5 15.5t-15.5 42.5q0 30 24.5 53t54.5 23q28 0 48 -19t20 -52q0 -48 -35.5 -96t-89.5 -74z" />
    <glyph glyph-name="uni0327" unicode="&#x327;" horiz-adv-x="0" 
d="M-318 -155l39 54q39 -36 85 -36q44 0 44 30q0 20 -26 20q-16 0 -27 -13l-46 30l49 81h71l-39 -60q16 10 30 10q26 0 43 -17.5t17 -46.5q0 -43 -33.5 -69t-82.5 -26q-81 0 -124 43z" />
    <glyph glyph-name="uni0328" unicode="&#x328;" horiz-adv-x="0" 
d="M-100 -167q-41 -19 -102 -19q-46 0 -76 17t-30 50q0 43 41.5 74t109.5 48l96 -3q-46 -8 -75 -28.5t-29 -45.5q0 -10 7.5 -16.5t20.5 -6.5q15 0 28 6z" />
    <glyph glyph-name="uni032E" unicode="&#x32e;" horiz-adv-x="0" 
d="M-270 -192q-53 0 -94 23.5t-63 64.5l75 54q28 -57 97 -57q68 0 122 57l57 -54q-85 -88 -194 -88z" />
    <glyph glyph-name="uni0331" unicode="&#x331;" horiz-adv-x="0" 
d="M-446 -163l19 85h349l-19 -85h-349z" />
    <glyph glyph-name="uni0374" unicode="&#x374;" horiz-adv-x="174" 
d="M52 400l80 267h120l-135 -267h-65z" />
    <glyph glyph-name="uni0375" unicode="&#x375;" horiz-adv-x="174" 
d="M-65 -130l80 267h120l-135 -267h-65z" />
    <glyph glyph-name="uni037E" unicode="&#x37e;" horiz-adv-x="270" 
d="M73 389q0 41 31 71.5t72 30.5q36 0 61 -25.5t25 -61.5q0 -42 -30.5 -72t-72.5 -30q-36 0 -61 25.5t-25 61.5zM35 -136l-53 55q79 34 105 84q-3 -1 -12 -1q-30 0 -50.5 19.5t-20.5 55.5q0 40 31.5 69.5t71.5 29.5q37 0 63.5 -24.5t26.5 -68.5q0 -62 -46 -123.5t-116 -95.5
z" />
    <glyph glyph-name="tonos" unicode="&#x384;" horiz-adv-x="155" 
d="M75 552l71 218h120l-126 -218h-65z" />
    <glyph glyph-name="dieresistonos" unicode="&#x385;" horiz-adv-x="486" 
d="M259 552l71 218h120l-125 -218h-66zM160 541q-30 0 -50 20t-20 50q0 34 27 60.5t62 26.5q29 0 49 -20t20 -50q0 -34 -27 -60.5t-61 -26.5zM475 541q-30 0 -50 20t-20 50q0 34 27 60.5t62 26.5q30 0 50 -20t20 -50q0 -34 -27 -60.5t-62 -26.5z" />
    <glyph glyph-name="Alphatonos" unicode="&#x386;" horiz-adv-x="697" 
d="M476 0l-13 101h-276l-57 -101h-195l398 667h216l105 -667h-178zM71 449l71 218h120l-126 -218h-65zM417 522l-153 -276h186z" />
    <glyph glyph-name="uni0387" unicode="&#x387;" horiz-adv-x="269" 
d="M40 238q0 41 31 71.5t72 30.5q36 0 60.5 -25.5t24.5 -61.5q0 -42 -30.5 -72t-71.5 -30q-36 0 -61 25.5t-25 61.5z" />
    <glyph glyph-name="Epsilontonos" unicode="&#x388;" horiz-adv-x="698" 
d="M38 449l71 218h120l-126 -218h-65zM115 0l147 667h489l-32 -145h-317l-24 -111h309l-32 -146h-309l-27 -120h317l-32 -145h-489z" />
    <glyph glyph-name="Etatonos" unicode="&#x389;" horiz-adv-x="850" 
d="M38 449l71 218h120l-126 -218h-65zM564 0l59 268h-277l-59 -268h-172l147 667h172l-55 -249h277l55 249h172l-147 -667h-172z" />
    <glyph glyph-name="Iotatonos" unicode="&#x38a;" horiz-adv-x="401" 
d="M38 449l71 218h120l-126 -218h-65zM115 0l147 667h172l-147 -667h-172z" />
    <glyph glyph-name="Omicrontonos" unicode="&#x38c;" horiz-adv-x="863" 
d="M133 291q0 162 113 274.5t281 112.5q145 0 241.5 -83.5t96.5 -217.5q0 -163 -113 -276t-281 -113q-146 0 -242 84t-96 219zM38 449l71 218h120l-126 -218h-65zM686 364q0 72 -47 117t-122 45q-87 0 -146 -65.5t-59 -158.5q0 -72 47 -117t122 -45q87 0 146 65.5t59 158.5z
" />
    <glyph glyph-name="Upsilontonos" unicode="&#x38e;" horiz-adv-x="812" 
d="M38 449l71 218h120l-126 -218h-65zM345 0l59 269l-165 398h185l91 -246l197 246h204l-340 -398l-59 -269h-172z" />
    <glyph glyph-name="Omegatonos" unicode="&#x38f;" horiz-adv-x="870" 
d="M256 150q-102 81 -102 210q0 56 24 111t69.5 102t120 76t165.5 29q147 0 245.5 -74t98.5 -200q0 -88 -50.5 -153t-116.5 -101h95l-33 -150h-283l33 150q79 19 124.5 79t45.5 138q0 71 -44 114.5t-123 43.5q-92 0 -148.5 -66.5t-56.5 -153.5q0 -106 90 -155l-33 -150h-284
l34 150h129zM38 449l71 218h120l-126 -218h-65z" />
    <glyph glyph-name="iotadieresistonos" unicode="&#x390;" horiz-adv-x="280" 
d="M170 552l71 218h120l-125 -218h-66zM71 541q-30 0 -50 20t-20 50q0 34 27 60.5t62 26.5q29 0 49 -20t20 -50q0 -34 -27 -60.5t-61 -26.5zM386 541q-30 0 -50 20t-20 50q0 34 27 60.5t62 26.5q30 0 50 -20t20 -50q0 -34 -27 -60.5t-62 -26.5zM31 130l81 353h153l-73 -321
q-4 -18 4 -28t24 -10q12 0 20 3l-19 -130q-29 -9 -71 -9q-74 0 -104.5 36t-14.5 106z" />
    <glyph glyph-name="Alpha" unicode="&#x391;" horiz-adv-x="697" 
d="M476 0l-13 101h-276l-57 -101h-195l398 667h216l105 -667h-178zM417 522l-153 -276h186z" />
    <glyph glyph-name="Beta" unicode="&#x392;" horiz-adv-x="680" 
d="M6 0l147 667h348q89 0 138 -48t49 -115q0 -65 -45.5 -116t-105.5 -56q45 -12 70 -50t25 -83q0 -36 -13 -70t-39.5 -63.5t-73.5 -47.5t-109 -18h-391zM504 475q0 20 -14.5 34.5t-39.5 14.5h-156l-26 -115h164q38 0 55 19.5t17 46.5zM460 212q0 24 -15.5 39.5t-41.5 15.5
h-166l-28 -124h170q37 0 59 20t22 49z" />
    <glyph glyph-name="Gamma" unicode="&#x393;" horiz-adv-x="582" 
d="M6 0l147 667h489l-34 -150h-316l-114 -517h-172z" />
    <glyph glyph-name="uni0394" unicode="&#x394;" horiz-adv-x="697" 
d="M-65 0l398 667h216l105 -667h-719zM412 497l-193 -347h235z" />
    <glyph glyph-name="Epsilon" unicode="&#x395;" 
d="M6 0l147 667h489l-32 -145h-317l-24 -111h309l-32 -146h-309l-27 -120h317l-32 -145h-489z" />
    <glyph glyph-name="Zeta" unicode="&#x396;" horiz-adv-x="596" 
d="M-15 0l30 137l359 380h-275l33 150h511l-30 -137l-360 -380h283l-33 -150h-518z" />
    <glyph glyph-name="Eta" unicode="&#x397;" horiz-adv-x="741" 
d="M455 0l59 268h-277l-59 -268h-172l147 667h172l-55 -249h277l55 249h172l-147 -667h-172z" />
    <glyph glyph-name="Theta" unicode="&#x398;" horiz-adv-x="766" 
d="M36 291q0 162 113 274.5t281 112.5q145 0 241.5 -83.5t96.5 -217.5q0 -163 -113 -276t-281 -113q-146 0 -242 84t-96 219zM589 364q0 72 -47 117t-122 45q-87 0 -146 -65.5t-59 -158.5q0 -72 47 -117t122 -45q87 0 146 65.5t59 158.5zM249 263l34 150h268l-33 -150h-269z
" />
    <glyph glyph-name="Iota" unicode="&#x399;" horiz-adv-x="292" 
d="M6 0l147 667h172l-147 -667h-172z" />
    <glyph glyph-name="Kappa" unicode="&#x39a;" horiz-adv-x="654" 
d="M407 0l-124 257l-62 -62l-43 -195h-172l147 667h172l-57 -261l253 261h221l-327 -312l194 -355h-202z" />
    <glyph glyph-name="Lambda" unicode="&#x39b;" horiz-adv-x="697" 
d="M467 0l-55 497l-273 -497h-204l398 667h216l105 -667h-187z" />
    <glyph glyph-name="Mu" unicode="&#x39c;" horiz-adv-x="877" 
d="M591 0l98 444l-267 -444h-76l-70 444l-98 -444h-172l147 667h233l57 -372l222 372h245l-147 -667h-172z" />
    <glyph glyph-name="Nu" unicode="&#x39d;" horiz-adv-x="740" 
d="M460 0l-189 424l-93 -424h-172l147 667h177l181 -405l89 405h173l-147 -667h-166z" />
    <glyph glyph-name="Xi" unicode="&#x39e;" horiz-adv-x="631" 
d="M106 522l32 145h545l-32 -145h-545zM55 265l32 146h533l-32 -146h-533zM-9 0l32 145h546l-32 -145h-546z" />
    <glyph glyph-name="Omicron" unicode="&#x39f;" horiz-adv-x="766" 
d="M36 291q0 162 113 274.5t281 112.5q145 0 241.5 -83.5t96.5 -217.5q0 -163 -113 -276t-281 -113q-146 0 -242 84t-96 219zM589 364q0 72 -47 117t-122 45q-87 0 -146 -65.5t-59 -158.5q0 -72 47 -117t122 -45q87 0 146 65.5t59 158.5z" />
    <glyph glyph-name="Pi" unicode="&#x3a0;" horiz-adv-x="741" 
d="M455 0l114 517h-277l-114 -517h-172l147 667h621l-147 -667h-172z" />
    <glyph glyph-name="Rho" unicode="&#x3a1;" horiz-adv-x="643" 
d="M6 0l147 667h312q94 0 150.5 -55t56.5 -136q0 -41 -14.5 -82t-45 -81.5t-89.5 -66t-137 -25.5h-159l-49 -221h-172zM393 372q46 0 73.5 24t27.5 62q0 29 -20 46.5t-53 17.5h-128l-33 -150h133z" />
    <glyph glyph-name="Sigma" unicode="&#x3a3;" horiz-adv-x="584" 
d="M248 150h276l-33 -150h-490l37 167l231 189l-149 178l29 133h489l-33 -150h-277l149 -182z" />
    <glyph glyph-name="Tau" unicode="&#x3a4;" 
d="M155 0l113 517h-187l34 150h545l-33 -150h-187l-113 -517h-172z" />
    <glyph glyph-name="Upsilon" unicode="&#x3a5;" horiz-adv-x="655" 
d="M188 0l59 269l-165 398h185l91 -246l197 246h204l-340 -398l-59 -269h-172z" />
    <glyph glyph-name="Phi" unicode="&#x3a6;" horiz-adv-x="880" 
d="M882 351q0 -120 -109 -197.5t-286 -87.5l-15 -66h-173l16 71q-138 16 -206 75.5t-68 167.5q0 121 109 198.5t286 87.5l15 67h173l-17 -72q139 -16 207 -76t68 -168zM221 314q0 -78 129 -93l51 225q-180 -20 -180 -132zM522 220q88 10 134.5 43.5t46.5 87.5q0 79 -130 94z
" />
    <glyph glyph-name="Chi" unicode="&#x3a7;" horiz-adv-x="676" 
d="M438 0l-103 214l-187 -214h-213l315 352l-153 315h194l92 -200l168 200h213l-295 -335l163 -332h-194z" />
    <glyph glyph-name="Psi" unicode="&#x3a8;" horiz-adv-x="902" 
d="M764 667h176l-65 -287q-23 -100 -119.5 -171t-243.5 -83l-29 -126h-172l30 131q-246 33 -246 222q0 41 10 82l53 232h175l-59 -255q-4 -18 -4 -32q0 -77 106 -96l87 383h172l-87 -383q135 25 158 128z" />
    <glyph glyph-name="uni03A9" unicode="&#x3a9;" horiz-adv-x="766" 
d="M152 150q-102 81 -102 210q0 56 24 111t69.5 102t120 76t165.5 29q147 0 245.5 -74t98.5 -200q0 -88 -50.5 -153t-116.5 -101h95l-33 -150h-283l33 150q79 19 124.5 79t45.5 138q0 71 -44 114.5t-123 43.5q-92 0 -148.5 -66.5t-56.5 -153.5q0 -106 90 -155l-33 -150h-284
l34 150h129z" />
    <glyph glyph-name="Iotadieresis" unicode="&#x3aa;" horiz-adv-x="292" 
d="M153 711q-29 0 -49.5 20t-20.5 49q0 34 27.5 61t61.5 27q30 0 50 -20t20 -50q0 -34 -27 -60.5t-62 -26.5zM367 711q-30 0 -50 20t-20 49q0 34 27 61t62 27q30 0 49.5 -20t19.5 -50q0 -34 -26.5 -60.5t-61.5 -26.5zM6 0l147 667h172l-147 -667h-172z" />
    <glyph glyph-name="Upsilondieresis" unicode="&#x3ab;" horiz-adv-x="655" 
d="M335 711q-29 0 -49.5 20t-20.5 49q0 34 27.5 61t61.5 27q30 0 50 -20t20 -50q0 -34 -27 -60.5t-62 -26.5zM549 711q-30 0 -50 20t-20 49q0 34 27 61t62 27q30 0 49.5 -20t19.5 -50q0 -34 -26.5 -60.5t-61.5 -26.5zM188 0l59 269l-165 398h185l91 -246l197 246h204
l-340 -398l-59 -269h-172z" />
    <glyph glyph-name="alphatonos" unicode="&#x3ac;" horiz-adv-x="605" 
d="M333 552l71 218h120l-126 -218h-65zM546 -3q-28 -9 -71 -9q-111 0 -122 84q-40 -46 -75.5 -65t-76.5 -19q-83 0 -132 52.5t-49 147.5q0 73 27.5 141.5t87 117t139.5 48.5q99 0 147 -69l13 57h153l-70 -321q-4 -18 4 -28t24 -10q13 0 20 3zM364 169l33 146q-34 44 -96 44
q-53 0 -87.5 -40.5t-34.5 -98.5q0 -43 27 -69.5t67 -26.5q51 0 91 45z" />
    <glyph glyph-name="epsilontonos" unicode="&#x3ad;" horiz-adv-x="496" 
d="M294 552l71 218h120l-126 -218h-65zM242 -12q-122 0 -187 48.5t-55 114.5q7 49 51.5 77t102.5 28q-47 14 -73.5 46.5t-21.5 72.5q11 53 65 86.5t152 32.5q79 -1 139.5 -30t91.5 -70l-87 -82q-52 65 -143 65q-28 0 -47 -11.5t-19 -31.5q0 -39 66 -39h84l-24 -103h-94
q-82 0 -82 -41q0 -19 21 -32t62 -13q83 0 146 36l51 -98q-76 -56 -199 -56z" />
    <glyph glyph-name="etatonos" unicode="&#x3ae;" horiz-adv-x="593" 
d="M331 552l71 218h120l-126 -218h-65zM287 -184l104 464q3 14 3 26q0 53 -73 53q-49 0 -96 -47l-69 -312h-154l107 483h154l-14 -59q77 71 157 71q72 0 113.5 -34.5t41.5 -90.5q0 -15 -5 -40l-115 -514h-154z" />
    <glyph glyph-name="iotatonos" unicode="&#x3af;" horiz-adv-x="280" 
d="M168 552l71 218h120l-126 -218h-65zM31 130l81 353h153l-73 -321q-4 -18 4 -28t24 -10q12 0 20 3l-19 -130q-29 -9 -71 -9q-74 0 -104.5 36t-14.5 106z" />
    <glyph glyph-name="upsilondieresistonos" unicode="&#x3b0;" horiz-adv-x="584" 
d="M333 552l71 218h120l-125 -218h-66zM234 541q-30 0 -50 20t-20 50q0 34 27 60.5t62 26.5q29 0 49 -20t20 -50q0 -34 -27 -60.5t-61 -26.5zM549 541q-30 0 -50 20t-20 50q0 34 27 60.5t62 26.5q30 0 50 -20t20 -50q0 -34 -27 -60.5t-62 -26.5zM54 226l58 257h154l-59 -259
q-10 -45 7 -72.5t60 -27.5q64 0 102 56.5t38 144.5q0 69 -21 115l152 55q28 -56 28 -151q0 -154 -85 -255t-227 -101q-123 0 -177.5 66.5t-29.5 171.5z" />
    <glyph glyph-name="alpha" unicode="&#x3b1;" horiz-adv-x="605" 
d="M546 -3q-28 -9 -71 -9q-111 0 -122 84q-40 -46 -75.5 -65t-76.5 -19q-83 0 -132 52.5t-49 147.5q0 73 27.5 141.5t87 117t139.5 48.5q99 0 147 -69l13 57h153l-70 -321q-4 -18 4 -28t24 -10q13 0 20 3zM364 169l33 146q-34 44 -96 44q-53 0 -87.5 -40.5t-34.5 -98.5
q0 -43 27 -69.5t67 -26.5q51 0 91 45z" />
    <glyph glyph-name="beta" unicode="&#x3b2;" horiz-adv-x="591" 
d="M325 -12q-102 0 -157 67l-54 -239h-154l143 629q18 81 69.5 135.5t109 75.5t119.5 21q102 0 157.5 -41.5t55.5 -116.5q0 -65 -53.5 -114t-126.5 -61q53 -11 87 -44.5t34 -95.5q0 -92 -72 -154t-158 -62zM291 124q50 0 80 25t30 61q0 27 -20.5 42.5t-59.5 15.5h-42l31 137
h37q47 0 74 22.5t27 57.5q0 55 -74 55q-42 0 -74.5 -26.5t-42.5 -68.5l-64 -279q32 -42 98 -42z" />
    <glyph glyph-name="gamma" unicode="&#x3b3;" horiz-adv-x="524" 
d="M565 483q-26 -118 -106 -252t-174 -226l-43 -189h-153l21 93q36 171 14.5 321.5t-88.5 252.5h172q33 -58 50 -148.5t9 -160.5q40 49 83.5 140.5t61.5 168.5h153z" />
    <glyph glyph-name="delta" unicode="&#x3b4;" horiz-adv-x="576" 
d="M359 482q33 -11 51.5 -17.5t50.5 -25t50 -39t32 -55.5t14 -79q0 -106 -85.5 -192t-212.5 -86q-120 0 -180.5 58.5t-60.5 151.5q0 75 45.5 135.5t112.5 91.5q-35 33 -35 86q0 69 68 118.5t175 49.5q118 0 190 -64l-82 -107q-20 22 -55 36.5t-76 14.5q-29 0 -49 -10.5
t-20 -25.5q0 -12 15.5 -20.5t51.5 -20.5zM278 124q52 0 89.5 38t37.5 86q0 31 -17.5 54t-37.5 34t-57 27q-53 -23 -83.5 -63t-30.5 -81q0 -43 26 -69t73 -26z" />
    <glyph glyph-name="epsilon" unicode="&#x3b5;" horiz-adv-x="496" 
d="M242 -12q-122 0 -187 48.5t-55 114.5q7 49 51.5 77t102.5 28q-47 14 -73.5 46.5t-21.5 72.5q11 53 65 86.5t152 32.5q79 -1 139.5 -30t91.5 -70l-87 -82q-52 65 -143 65q-28 0 -47 -11.5t-19 -31.5q0 -39 66 -39h84l-24 -103h-94q-82 0 -82 -41q0 -19 21 -32t62 -13
q83 0 146 36l51 -98q-76 -56 -199 -56z" />
    <glyph glyph-name="zeta" unicode="&#x3b6;" horiz-adv-x="484" 
d="M230 0q-104 0 -161 42.5t-57 123.5q0 106 83.5 204.5t221.5 162.5h-209l30 134h408l-25 -109q-137 -64 -241.5 -164.5t-104.5 -194.5q0 -37 26 -50t79 -13q137 0 137 -86q0 -77 -104 -207h-166q32 32 66.5 79.5t34.5 66.5q0 11 -18 11z" />
    <glyph glyph-name="eta" unicode="&#x3b7;" horiz-adv-x="593" 
d="M287 -184l104 464q3 14 3 26q0 53 -73 53q-49 0 -96 -47l-69 -312h-154l107 483h154l-14 -59q77 71 157 71q72 0 113.5 -34.5t41.5 -90.5q0 -15 -5 -40l-115 -514h-154z" />
    <glyph glyph-name="theta" unicode="&#x3b8;" horiz-adv-x="576" 
d="M353 679q106 0 169.5 -71.5t63.5 -202.5q0 -171 -90.5 -294t-226.5 -123q-106 0 -170.5 71.5t-64.5 201.5q0 171 91.5 294.5t227.5 123.5zM342 543q-38 0 -70 -39.5t-54 -101.5h212q0 5 0.5 14.5t0.5 13.5q0 52 -22 82.5t-67 30.5zM278 124q39 0 71 40.5t53 103.5h-212
q-2 -22 -2 -30q0 -52 22.5 -83t67.5 -31z" />
    <glyph glyph-name="iota" unicode="&#x3b9;" horiz-adv-x="280" 
d="M31 130l81 353h153l-73 -321q-4 -18 4 -28t24 -10q12 0 20 3l-19 -130q-29 -9 -71 -9q-74 0 -104.5 36t-14.5 106z" />
    <glyph glyph-name="kappa" unicode="&#x3ba;" horiz-adv-x="546" 
d="M313 0l-70 174l-62 -58l-25 -116h-154l107 483h154l-42 -185l183 185h192l-227 -220l129 -263h-185z" />
    <glyph glyph-name="lambda" unicode="&#x3bb;" horiz-adv-x="524" 
d="M212 678q77 -3 120 -29.5t55 -97.5l93 -551h-158l-41 306l-178 -306h-167l304 489l-5 26q-7 27 -59 27q-23 0 -41 -9l9 137q29 8 68 8z" />
    <glyph glyph-name="uni03BC" unicode="&#x3bc;" horiz-adv-x="606" 
d="M113 -184h-153l151 667h154l-63 -280q-9 -38 8 -58.5t53 -20.5q56 0 103 47l69 312h153l-70 -321q-4 -18 4 -28t24 -10q12 0 20 3l-19 -130q-29 -9 -71 -9q-113 0 -123 87q-63 -87 -146 -87q-37 0 -51 17z" />
    <glyph glyph-name="nu" unicode="&#x3bd;" horiz-adv-x="524" 
d="M126 0l-80 483h162l42 -330q55 65 98.5 156t63.5 174h153q-26 -119 -107.5 -255.5t-177.5 -227.5h-154z" />
    <glyph glyph-name="xi" unicode="&#x3be;" horiz-adv-x="484" 
d="M152 -157q28 30 62 79t34 67q0 11 -17 11q-228 0 -228 141q0 63 42.5 106.5t108.5 62.5q-36 6 -58.5 29.5t-22.5 63.5q0 38 34.5 75.5t84.5 54.5h-79l31 134h400l-31 -134h-191q-34 -9 -56.5 -30t-22.5 -49q0 -51 89 -51h148l-30 -132h-147q-63 0 -97.5 -23t-34.5 -65
q0 -27 27 -37t82 -10q137 0 137 -86q0 -77 -104 -207h-161z" />
    <glyph glyph-name="omicron" unicode="&#x3bf;" horiz-adv-x="576" 
d="M20 210q0 115 81 200t203 85q118 0 183.5 -62.5t65.5 -160.5q0 -115 -81 -199.5t-203 -84.5q-118 0 -183.5 62.5t-65.5 159.5zM396 265q0 44 -26 69t-71 25q-53 0 -87 -42t-34 -99q0 -44 26 -69t71 -25q52 0 86.5 42t34.5 99z" />
    <glyph glyph-name="pi" unicode="&#x3c0;" horiz-adv-x="656" 
d="M361 0l79 349h-173l-80 -349h-153l79 349h-80l31 134h640l-30 -134h-80l-80 -349h-153z" />
    <glyph glyph-name="rho" unicode="&#x3c1;" 
d="M169 57l-55 -241h-154l96 426q26 117 102.5 185t191.5 68q102 0 161 -60t59 -157q0 -48 -16.5 -97.5t-47.5 -93t-81 -71.5t-110 -28q-43 0 -83.5 18t-62.5 51zM411 262q0 42 -23.5 69.5t-61.5 27.5q-45 0 -75 -32.5t-42 -84.5l-16 -74q34 -44 96 -44q52 0 87 40.5
t35 97.5z" />
    <glyph glyph-name="uni03C2" unicode="&#x3c2;" horiz-adv-x="497" 
d="M21 210q0 120 82.5 202.5t203.5 82.5q146 0 205 -98l-115 -87q-30 49 -91 49q-56 0 -92.5 -40.5t-36.5 -99.5q0 -45 31.5 -64t103.5 -19q53 0 84 -24t31 -67q0 -72 -104 -202h-165q31 28 66 77t35 68q0 12 -17 12q-88 0 -154.5 56.5t-66.5 153.5z" />
    <glyph glyph-name="sigma" unicode="&#x3c3;" horiz-adv-x="576" 
d="M269 -12q-118 0 -183 62.5t-65 159.5q0 116 88 194.5t221 78.5h284l-31 -136h-77q32 -36 32 -96q0 -104 -76.5 -183.5t-192.5 -79.5zM364 347h-49q-62 0 -99.5 -37t-37.5 -92q0 -44 26 -69t71 -25q52 0 86.5 42t34.5 97q0 58 -32 84z" />
    <glyph glyph-name="tau" unicode="&#x3c4;" horiz-adv-x="488" 
d="M274 -12q-76 0 -111 36t-19 108l49 217h-150l31 134h453l-31 -134h-150l-39 -178q-5 -21 5.5 -34t30.5 -13q28 0 38 10l4 -117q-36 -29 -111 -29z" />
    <glyph glyph-name="upsilon" unicode="&#x3c5;" horiz-adv-x="584" 
d="M54 226l58 257h154l-59 -259q-10 -45 7 -72.5t60 -27.5q64 0 102 56.5t38 144.5q0 69 -21 115l152 55q28 -56 28 -151q0 -154 -85 -255t-227 -101q-123 0 -177.5 66.5t-29.5 171.5z" />
    <glyph glyph-name="phi" unicode="&#x3c6;" horiz-adv-x="730" 
d="M704 262q0 -122 -79 -198t-239 -76l-38 -172h-154l40 181q-85 10 -147 69.5t-62 150.5q0 212 222 275l37 -127q-103 -30 -103 -132q0 -44 23.5 -69.5t59.5 -30.5l77 354h80q127 0 205 -64t78 -161zM415 124q64 0 98.5 33t34.5 89q0 44 -24 67.5t-61 28.5z" />
    <glyph glyph-name="chi" unicode="&#x3c7;" horiz-adv-x="512" 
d="M258 -184l-47 200l-141 -200h-172l243 343l-81 324h164l42 -180l124 180h173l-228 -324l87 -343h-164z" />
    <glyph glyph-name="psi" unicode="&#x3c8;" horiz-adv-x="768" 
d="M611 483h154l-55 -254q-23 -104 -101 -172.5t-202 -68.5l-38 -172h-154l40 181q-91 13 -146 66t-55 133q0 27 13 89l43 198h154l-46 -211q-8 -40 -8 -60q0 -63 74 -80l117 535h154l-119 -543q97 0 124 125z" />
    <glyph glyph-name="omega" unicode="&#x3c9;" horiz-adv-x="794" 
d="M524 -12q-129 0 -145 132q-34 -66 -79 -99t-112 -33q-79 0 -124 54.5t-45 138.5q0 91 46.5 174.5t120.5 139.5l133 -54q-68 -47 -104 -116t-36 -125q0 -35 14 -55.5t40 -20.5q61 0 88 118l27 121h154l-27 -121q-13 -49 -2 -83.5t49 -34.5q43 0 70 53t27 119q0 85 -47 147
l136 52q66 -83 66 -191q0 -79 -28.5 -150.5t-87 -118.5t-134.5 -47z" />
    <glyph glyph-name="iotadieresis" unicode="&#x3ca;" horiz-adv-x="280" 
d="M104 544q-29 0 -49.5 20t-20.5 49q0 34 27.5 61t61.5 27q30 0 50 -20t20 -50q0 -34 -27 -60.5t-62 -26.5zM318 544q-30 0 -50 20t-20 49q0 34 27 61t62 27q30 0 49.5 -20t19.5 -50q0 -34 -26.5 -60.5t-61.5 -26.5zM31 130l81 353h153l-73 -321q-4 -18 4 -28t24 -10
q12 0 20 3l-19 -130q-29 -9 -71 -9q-74 0 -104.5 36t-14.5 106z" />
    <glyph glyph-name="upsilondieresis" unicode="&#x3cb;" horiz-adv-x="584" 
d="M267 544q-29 0 -49.5 20t-20.5 49q0 34 27.5 61t61.5 27q30 0 50 -20t20 -50q0 -34 -27 -60.5t-62 -26.5zM481 544q-30 0 -50 20t-20 49q0 34 27 61t62 27q30 0 49.5 -20t19.5 -50q0 -34 -26.5 -60.5t-61.5 -26.5zM54 226l58 257h154l-59 -259q-10 -45 7 -72.5t60 -27.5
q64 0 102 56.5t38 144.5q0 69 -21 115l152 55q28 -56 28 -151q0 -154 -85 -255t-227 -101q-123 0 -177.5 66.5t-29.5 171.5z" />
    <glyph glyph-name="omicrontonos" unicode="&#x3cc;" horiz-adv-x="576" 
d="M321 552l71 218h120l-126 -218h-65zM20 210q0 115 81 200t203 85q118 0 183.5 -62.5t65.5 -160.5q0 -115 -81 -199.5t-203 -84.5q-118 0 -183.5 62.5t-65.5 159.5zM396 265q0 44 -26 69t-71 25q-53 0 -87 -42t-34 -99q0 -44 26 -69t71 -25q52 0 86.5 42t34.5 99z" />
    <glyph glyph-name="upsilontonos" unicode="&#x3cd;" horiz-adv-x="584" 
d="M331 552l71 218h120l-126 -218h-65zM54 226l58 257h154l-59 -259q-10 -45 7 -72.5t60 -27.5q64 0 102 56.5t38 144.5q0 69 -21 115l152 55q28 -56 28 -151q0 -154 -85 -255t-227 -101q-123 0 -177.5 66.5t-29.5 171.5z" />
    <glyph glyph-name="omegatonos" unicode="&#x3ce;" horiz-adv-x="794" 
d="M425 552l71 218h120l-126 -218h-65zM524 -12q-129 0 -145 132q-34 -66 -79 -99t-112 -33q-79 0 -124 54.5t-45 138.5q0 91 46.5 174.5t120.5 139.5l133 -54q-68 -47 -104 -116t-36 -125q0 -35 14 -55.5t40 -20.5q61 0 88 118l27 121h154l-27 -121q-13 -49 -2 -83.5
t49 -34.5q43 0 70 53t27 119q0 85 -47 147l136 52q66 -83 66 -191q0 -79 -28.5 -150.5t-87 -118.5t-134.5 -47z" />
    <glyph glyph-name="uni03D7" unicode="&#x3d7;" horiz-adv-x="559" 
d="M421 161q19 -41 97 -41l-26 -115q-21 -95 -93 -148t-189 -53q-46 0 -66 4l31 125q11 -2 36 -2q116 0 132 68l2 9q-17 4 -34.5 23.5t-27.5 45.5l-40 97l-62 -58l-25 -116h-154l107 483h154l-42 -185l183 185h192l-227 -220z" />
    <glyph glyph-name="uni0400" unicode="&#x400;" 
d="M357 723l-126 144h152l95 -144h-121zM6 0l147 667h489l-32 -145h-317l-24 -111h309l-32 -146h-309l-27 -120h317l-32 -145h-489z" />
    <glyph glyph-name="uni0401" unicode="&#x401;" 
d="M318 711q-29 0 -49.5 20t-20.5 49q0 34 27.5 61t61.5 27q30 0 50 -20t20 -50q0 -34 -27 -60.5t-62 -26.5zM532 711q-30 0 -50 20t-20 49q0 34 27 61t62 27q30 0 49.5 -20t19.5 -50q0 -34 -26.5 -60.5t-61.5 -26.5zM6 0l147 667h489l-32 -145h-317l-24 -111h309l-32 -146
h-309l-27 -120h317l-32 -145h-489z" />
    <glyph glyph-name="uni0402" unicode="&#x402;" horiz-adv-x="791" 
d="M480 132q96 0 110 65l2 7q8 38 -16.5 61.5t-80.5 23.5q-53 0 -110 -25l-58 -264h-172l113 517h-188l34 150h545l-33 -150h-186l-26 -119q78 42 169 42q106 0 154 -69.5t27 -166.5l-2 -9q-23 -105 -98.5 -156t-214.5 -51z" />
    <glyph glyph-name="uni0403" unicode="&#x403;" horiz-adv-x="582" 
d="M475 723h-131l159 144h162zM6 0l147 667h489l-34 -150h-316l-114 -517h-172z" />
    <glyph glyph-name="uni0404" unicode="&#x404;" horiz-adv-x="692" 
d="M384 140q41 0 82 21.5t63 55.5l134 -88q-55 -75 -133 -108t-156 -33q-145 0 -241.5 83.5t-96.5 219.5q0 171 114.5 279t279.5 108q125 0 202 -58.5t107 -146.5l-166 -54q-14 50 -54.5 78.5t-96.5 28.5q-58 0 -106 -31.5t-75 -83.5h275l-32 -146h-265q12 -55 56 -90
t109 -35z" />
    <glyph glyph-name="uni0405" unicode="&#x405;" horiz-adv-x="606" 
d="M-10 115l103 121q36 -46 98 -73.5t129 -27.5q40 0 59.5 16.5t19.5 38.5t-24.5 37t-75.5 33q-37 13 -59.5 21.5t-57 27.5t-53.5 38.5t-34 51t-15 68.5q0 79 73 144.5t197 65.5q82 0 155.5 -28.5t123.5 -81.5l-103 -118q-35 40 -90 61.5t-106 21.5q-33 0 -52.5 -15
t-19.5 -36q0 -20 24.5 -34.5t74.5 -32.5q45 -15 76.5 -28.5t68.5 -37.5t57 -58t20 -77q0 -94 -74 -159.5t-197 -65.5q-101 0 -186 34.5t-132 92.5z" />
    <glyph glyph-name="uni0406" unicode="&#x406;" horiz-adv-x="292" 
d="M6 0l147 667h172l-147 -667h-172z" />
    <glyph glyph-name="uni0407" unicode="&#x407;" horiz-adv-x="292" 
d="M153 711q-29 0 -49.5 20t-20.5 49q0 34 27.5 61t61.5 27q30 0 50 -20t20 -50q0 -34 -27 -60.5t-62 -26.5zM367 711q-30 0 -50 20t-20 49q0 34 27 61t62 27q30 0 49.5 -20t19.5 -50q0 -34 -26.5 -60.5t-61.5 -26.5zM6 0l147 667h172l-147 -667h-172z" />
    <glyph glyph-name="uni0408" unicode="&#x408;" horiz-adv-x="492" 
d="M-33 59l91 129q36 -48 97 -48q83 0 102 91l96 436h172l-97 -438q-27 -125 -89 -183t-171 -58q-133 0 -201 71z" />
    <glyph glyph-name="uni0409" unicode="&#x409;" horiz-adv-x="1092" 
d="M2 150q27 0 49 11t50 43t58 102t62 176l55 185h497l-49 -224h151q86 0 141.5 -55.5t55.5 -135.5q0 -32 -8.5 -64t-29.5 -66.5t-52 -61t-82 -43.5t-114 -17h-331l113 517h-184l-21 -74q-34 -116 -72 -200t-74.5 -132.5t-81 -77t-82.5 -37t-87 -8.5zM691 293l-31 -143h135
q42 0 70 23.5t28 60.5q0 27 -18.5 43t-50.5 16h-133z" />
    <glyph glyph-name="uni040A" unicode="&#x40a;" horiz-adv-x="1092" 
d="M455 0l62 285h-277l-62 -285h-172l146 667h172l-51 -232h276l52 232h172l-51 -232h156q85 0 138.5 -54t53.5 -134q0 -40 -14 -80t-44 -79t-87 -63.5t-134 -24.5h-336zM689 285l-29 -135h140q40 0 66.5 22t26.5 57q0 25 -18 40.5t-48 15.5h-138z" />
    <glyph glyph-name="uni040B" unicode="&#x40b;" horiz-adv-x="827" 
d="M588 185q12 55 -17 79.5t-87 24.5q-51 0 -98 -18l-59 -271h-172l113 517h-188l34 150h545l-33 -150h-186l-23 -109q55 32 139 32q122 0 176 -67t24 -205l-36 -168h-172z" />
    <glyph glyph-name="uni040C" unicode="&#x40c;" horiz-adv-x="654" 
d="M502 723h-131l159 144h162zM407 0l-124 257l-62 -62l-43 -195h-172l147 667h172l-57 -261l253 261h221l-327 -312l194 -355h-202z" />
    <glyph glyph-name="uni040D" unicode="&#x40d;" horiz-adv-x="740" 
d="M417 723l-126 144h152l95 -144h-121zM6 0l147 667h172l-86 -395l356 395h178l-147 -667h-173l92 414l-373 -414h-166z" />
    <glyph glyph-name="uni040E" unicode="&#x40e;" horiz-adv-x="655" 
d="M437 712q-55 0 -101 24.5t-75 67.5l87 67q13 -25 40 -41t59 -16q63 0 114 57l65 -72q-78 -87 -189 -87zM560 667h198l-362 -536q-96 -143 -263 -143q-55 0 -88 13l66 148q15 -9 40 -9q30 0 50 11.5t40 37.5l-160 478h189l94 -312z" />
    <glyph glyph-name="uni040F" unicode="&#x40f;" horiz-adv-x="721" 
d="M753 667l-146 -667h-226l-27 -125h-151l28 125h-225l146 667h172l-113 -517h256l114 517h172z" />
    <glyph glyph-name="uni0410" unicode="&#x410;" horiz-adv-x="697" 
d="M476 0l-13 101h-276l-57 -101h-195l398 667h216l105 -667h-178zM417 522l-153 -276h186z" />
    <glyph glyph-name="uni0411" unicode="&#x411;" horiz-adv-x="643" 
d="M673 667l-31 -145h-350l-20 -94h129q106 0 163.5 -51.5t57.5 -131.5q0 -39 -14.5 -79t-45 -78.5t-88.5 -63t-136 -24.5h-332l146 667h521zM240 283l-31 -138h135q46 0 73 22.5t27 57.5q0 26 -17.5 42t-48.5 16h-138z" />
    <glyph glyph-name="uni0412" unicode="&#x412;" horiz-adv-x="680" 
d="M6 0l147 667h348q89 0 138 -48t49 -115q0 -65 -45.5 -116t-105.5 -56q45 -12 70 -50t25 -83q0 -36 -13 -70t-39.5 -63.5t-73.5 -47.5t-109 -18h-391zM504 475q0 20 -14.5 34.5t-39.5 14.5h-156l-26 -115h164q38 0 55 19.5t17 46.5zM460 212q0 24 -15.5 39.5t-41.5 15.5
h-166l-28 -124h170q37 0 59 20t22 49z" />
    <glyph glyph-name="uni0413" unicode="&#x413;" horiz-adv-x="582" 
d="M6 0l147 667h489l-34 -150h-316l-114 -517h-172z" />
    <glyph glyph-name="uni0414" unicode="&#x414;" horiz-adv-x="755" 
d="M1 150h53q76 63 163 344l55 173h481l-113 -517h79l-60 -273h-151l27 123h-417l-27 -123h-149zM354 444q-68 -227 -127 -294h240l81 367h-172z" />
    <glyph glyph-name="uni0415" unicode="&#x415;" 
d="M6 0l147 667h489l-32 -145h-317l-24 -111h309l-32 -146h-309l-27 -120h317l-32 -145h-489z" />
    <glyph glyph-name="uni0416" unicode="&#x416;" horiz-adv-x="971" 
d="M1058 667l-297 -340l166 -327h-194l-121 276h-34l-60 -276h-172l60 276h-36l-220 -276h-213l319 367l-159 300h190l116 -257h33l56 257h172l-56 -257h36l204 257h210z" />
    <glyph glyph-name="uni0417" unicode="&#x417;" horiz-adv-x="624" 
d="M-12 127l108 102q32 -45 92.5 -69.5t114.5 -24.5q51 0 79.5 21.5t28.5 52.5q0 55 -117 55h-122l33 145h128q124 0 124 59q0 29 -33 45.5t-96 16.5q-96 0 -169 -50l-57 113q43 38 108 61t135 23q131 0 210.5 -47.5t79.5 -129.5q0 -60 -55.5 -106t-124.5 -56
q125 -30 125 -148q0 -87 -81.5 -144.5t-192.5 -57.5q-102 0 -190 36.5t-128 102.5z" />
    <glyph glyph-name="uni0418" unicode="&#x418;" horiz-adv-x="740" 
d="M6 0l147 667h172l-86 -395l356 395h178l-147 -667h-173l92 414l-373 -414h-166z" />
    <glyph glyph-name="uni0419" unicode="&#x419;" horiz-adv-x="740" 
d="M483 712q-55 0 -101 24.5t-75 67.5l87 67q13 -25 40 -41t59 -16q63 0 114 57l65 -72q-78 -87 -189 -87zM6 0l147 667h172l-86 -395l356 395h178l-147 -667h-173l92 414l-373 -414h-166z" />
    <glyph glyph-name="uni041A" unicode="&#x41a;" horiz-adv-x="654" 
d="M407 0l-124 257l-62 -62l-43 -195h-172l147 667h172l-57 -261l253 261h221l-327 -312l194 -355h-202z" />
    <glyph glyph-name="uni041B" unicode="&#x41b;" horiz-adv-x="741" 
d="M2 150q27 0 49 11t50 43t58 102t62 176l55 185h497l-146 -667h-172l113 517h-183l-22 -74q-35 -116 -73.5 -200t-75 -132.5t-80 -76.5t-81.5 -37t-87 -9z" />
    <glyph glyph-name="uni041C" unicode="&#x41c;" horiz-adv-x="877" 
d="M591 0l98 444l-267 -444h-76l-70 444l-98 -444h-172l147 667h233l57 -372l222 372h245l-147 -667h-172z" />
    <glyph glyph-name="uni041D" unicode="&#x41d;" horiz-adv-x="741" 
d="M455 0l59 268h-277l-59 -268h-172l147 667h172l-55 -249h277l55 249h172l-147 -667h-172z" />
    <glyph glyph-name="uni041E" unicode="&#x41e;" horiz-adv-x="766" 
d="M36 291q0 162 113 274.5t281 112.5q145 0 241.5 -83.5t96.5 -217.5q0 -163 -113 -276t-281 -113q-146 0 -242 84t-96 219zM589 364q0 72 -47 117t-122 45q-87 0 -146 -65.5t-59 -158.5q0 -72 47 -117t122 -45q87 0 146 65.5t59 158.5z" />
    <glyph glyph-name="uni041F" unicode="&#x41f;" horiz-adv-x="741" 
d="M455 0l114 517h-277l-114 -517h-172l147 667h621l-147 -667h-172z" />
    <glyph glyph-name="uni0420" unicode="&#x420;" horiz-adv-x="643" 
d="M6 0l147 667h312q94 0 150.5 -55t56.5 -136q0 -41 -14.5 -82t-45 -81.5t-89.5 -66t-137 -25.5h-159l-49 -221h-172zM393 372q46 0 73.5 24t27.5 62q0 29 -20 46.5t-53 17.5h-128l-33 -150h133z" />
    <glyph glyph-name="uni0421" unicode="&#x421;" horiz-adv-x="692" 
d="M36 291q0 171 114.5 279t279.5 108q125 0 202 -58.5t107 -146.5l-166 -54q-14 50 -54.5 78.5t-96.5 28.5q-87 0 -147 -65.5t-60 -158.5q0 -69 46.5 -115.5t122.5 -46.5q41 0 82 21.5t63 55.5l134 -88q-55 -75 -133 -108t-156 -33q-145 0 -241.5 83.5t-96.5 219.5z" />
    <glyph glyph-name="uni0422" unicode="&#x422;" 
d="M155 0l113 517h-187l34 150h545l-33 -150h-187l-113 -517h-172z" />
    <glyph glyph-name="uni0423" unicode="&#x423;" horiz-adv-x="655" 
d="M560 667h198l-362 -536q-96 -143 -263 -143q-55 0 -88 13l66 148q15 -9 40 -9q30 0 50 11.5t40 37.5l-160 478h189l94 -312z" />
    <glyph glyph-name="uni0424" unicode="&#x424;" horiz-adv-x="880" 
d="M882 351q0 -120 -109 -197.5t-286 -87.5l-15 -66h-173l16 71q-138 16 -206 75.5t-68 167.5q0 121 109 198.5t286 87.5l15 67h173l-17 -72q139 -16 207 -76t68 -168zM221 314q0 -78 129 -93l51 225q-180 -20 -180 -132zM522 220q88 10 134.5 43.5t46.5 87.5q0 79 -130 94z
" />
    <glyph glyph-name="uni0425" unicode="&#x425;" horiz-adv-x="676" 
d="M438 0l-103 214l-187 -214h-213l315 352l-153 315h194l92 -200l168 200h213l-295 -335l163 -332h-194z" />
    <glyph glyph-name="uni0426" unicode="&#x426;" horiz-adv-x="755" 
d="M536 0h-530l146 667h172l-112 -517h256l113 517h172l-112 -517h79l-60 -273h-151z" />
    <glyph glyph-name="uni0427" unicode="&#x427;" horiz-adv-x="670" 
d="M266 466q-12 -54 17 -79t87 -25q50 0 97 19l63 286h172l-146 -667h-172l53 243q-57 -31 -139 -31q-123 0 -177 67t-24 205l40 183h172z" />
    <glyph glyph-name="uni0428" unicode="&#x428;" horiz-adv-x="1017" 
d="M1049 667l-146 -667h-897l146 667h172l-113 -517h190l114 517h172l-114 -517h191l113 517h172z" />
    <glyph glyph-name="uni0429" unicode="&#x429;" horiz-adv-x="1052" 
d="M1049 667l-112 -517h79l-60 -273h-151l27 123h-826l146 667h172l-112 -517h190l113 517h172l-113 -517h191l112 517h172z" />
    <glyph glyph-name="uni042A" unicode="&#x42a;" horiz-adv-x="792" 
d="M155 0l113 517h-188l34 150h359l-49 -224h150q87 0 142 -55.5t55 -135.5q0 -40 -14.5 -81t-45 -81t-89 -65t-136.5 -25h-331zM391 293l-32 -143h135q42 0 70.5 23.5t28.5 60.5q0 27 -19 43t-50 16h-133z" />
    <glyph glyph-name="uni042B" unicode="&#x42b;" horiz-adv-x="907" 
d="M324 667l-49 -224h151q86 0 141 -55.5t55 -135.5q0 -40 -14.5 -81t-45 -81t-89 -65t-136.5 -25h-331l146 667h172zM621 0l146 667h172l-146 -667h-172zM242 293l-31 -143h135q42 0 70 23.5t28 60.5q0 27 -18.5 43t-50.5 16h-133z" />
    <glyph glyph-name="uni042C" unicode="&#x42c;" horiz-adv-x="643" 
d="M324 667l-49 -224h151q86 0 141 -55.5t55 -135.5q0 -40 -14.5 -81t-45 -81t-89 -65t-136.5 -25h-331l146 667h172zM242 293l-31 -143h135q42 0 70 23.5t28 60.5q0 27 -18.5 43t-50.5 16h-133z" />
    <glyph glyph-name="uni042D" unicode="&#x42d;" horiz-adv-x="692" 
d="M356 678q144 0 241 -83t97 -219q0 -172 -117 -282q-114 -106 -278 -106q-125 0 -201.5 58.5t-106.5 146.5l166 54q14 -50 54.5 -78.5t95.5 -28.5q63 0 114 38q48 34 70 87h-275l32 146h258q-7 22 -21 41q-43 74 -139 74q-41 0 -82 -21.5t-64 -55.5l-133 88
q54 75 132.5 108t156.5 33z" />
    <glyph glyph-name="uni042E" unicode="&#x42e;" horiz-adv-x="1075" 
d="M740 678q145 0 241 -83.5t96 -217.5q0 -163 -113 -276t-281 -113q-139 0 -233.5 77t-102.5 203h-110l-59 -268h-172l146 667h172l-55 -249h98q39 116 140 188t233 72zM693 140q87 0 146.5 65.5t59.5 158.5q0 72 -47.5 117t-121.5 45q-88 0 -147 -65.5t-59 -158.5
q0 -72 47 -117t122 -45z" />
    <glyph glyph-name="uni042F" unicode="&#x42f;" horiz-adv-x="661" 
d="M-22 0l195 250q-40 21 -68 64t-28 101q0 40 14.5 81t45 81t89 65t136.5 25h332l-147 -667h-173l50 224h-72l-162 -224h-212zM458 374l31 143h-136q-41 0 -69 -23.5t-28 -59.5q0 -28 18.5 -44t50.5 -16h133z" />
    <glyph glyph-name="uni0430" unicode="&#x430;" horiz-adv-x="591" 
d="M421 426l13 57h153l-107 -483h-153l12 56q-59 -68 -138 -68q-83 0 -132 52.5t-49 147.5q0 73 27.5 141.5t87 117t139.5 48.5q99 0 147 -69zM179 220q0 -43 27 -69.5t67 -26.5q53 0 91 45l33 146q-34 44 -96 44q-53 0 -87.5 -40.5t-34.5 -98.5z" />
    <glyph glyph-name="uni0431" unicode="&#x431;" horiz-adv-x="575" 
d="M28 222q0 44 13 101t34 101q51 106 134 163.5t208 77.5l165 26l-31 -142l-140 -23q-207 -33 -253 -152q81 88 195 88q92 0 146 -50t54 -140q0 -115 -80.5 -199.5t-203.5 -84.5q-118 0 -179.5 63.5t-61.5 170.5zM396 265q0 44 -26 69t-71 25q-53 0 -87 -42t-34 -99
q0 -44 26 -69t71 -25q52 0 86.5 42t34.5 99z" />
    <glyph glyph-name="uni0432" unicode="&#x432;" horiz-adv-x="571" 
d="M2 0l106 483h307q68 0 107 -30.5t39 -79.5q0 -47 -30.5 -83t-79.5 -46q71 -25 71 -94q0 -63 -45 -106.5t-121 -43.5h-354zM356 301q21 0 33.5 12.5t12.5 28.5q0 12 -8.5 20.5t-24.5 8.5h-132l-15 -70h134zM322 112q22 0 35.5 14t13.5 32q0 31 -39 31h-135l-16 -77h141z
" />
    <glyph glyph-name="uni0433" unicode="&#x433;" horiz-adv-x="455" 
d="M461 349h-229l-76 -349h-154l106 483h383z" />
    <glyph glyph-name="uni0434" unicode="&#x434;" horiz-adv-x="605" 
d="M-8 134h47q54 62 114 251l31 98h405l-77 -349h53l-57 -257h-134l27 123h-304l-27 -123h-133zM263 314q-44 -132 -84 -180h179l47 215h-131z" />
    <glyph glyph-name="uni0435" unicode="&#x435;" horiz-adv-x="548" 
d="M21 207q0 119 80.5 203.5t202.5 84.5q95 0 158.5 -58t63.5 -160q0 -41 -10 -84h-342v-6q0 -24 31.5 -52t84.5 -28q72 0 113 30l47 -102q-69 -47 -172 -47q-117 0 -187 58t-70 161zM389 293q1 2 1 7q0 28 -23.5 52t-69.5 24q-41 0 -71 -26t-37 -57h200z" />
    <glyph glyph-name="uni0436" unicode="&#x436;" horiz-adv-x="772" 
d="M821 483l-200 -256l103 -227h-171l-73 193h-29l-42 -193h-154l42 193h-30l-136 -193h-191l213 272l-98 211h166l71 -190h27l42 190h154l-42 -190h29l133 190h186z" />
    <glyph glyph-name="uni0437" unicode="&#x437;" horiz-adv-x="496" 
d="M220 -12q-81 0 -146.5 30t-97.5 71l90 84q57 -67 155 -67q71 0 71 44q0 42 -72 42h-88l24 103h87q81 0 81 40q0 19 -21 30.5t-60 11.5q-74 0 -130 -38l-55 91q81 62 203 64q115 1 171.5 -40t56.5 -94q0 -55 -44.5 -86.5t-102.5 -36.5q44 -7 75 -36.5t31 -66.5
q0 -62 -52 -104t-176 -42z" />
    <glyph glyph-name="uni0438" unicode="&#x438;" horiz-adv-x="593" 
d="M2 0l106 483h154l-60 -270l232 270h155l-106 -483h-154l62 282l-242 -282h-147z" />
    <glyph glyph-name="uni0439" unicode="&#x439;" horiz-adv-x="593" 
d="M372 545q-55 0 -101 24.5t-75 67.5l87 67q13 -25 40 -41t59 -16q63 0 114 57l65 -72q-78 -87 -189 -87zM2 0l106 483h154l-60 -270l232 270h155l-106 -483h-154l62 282l-242 -282h-147z" />
    <glyph glyph-name="uni043A" unicode="&#x43a;" horiz-adv-x="546" 
d="M313 0l-70 174l-62 -58l-25 -116h-154l107 483h154l-42 -185l183 185h192l-227 -220l129 -263h-185z" />
    <glyph glyph-name="uni043B" unicode="&#x43b;" horiz-adv-x="593" 
d="M-6 134q17 0 31.5 7.5t34 30.5t42 74t46.5 129l32 108h409l-106 -483h-154l76 349h-129l-11 -35q-55 -179 -124.5 -252.5t-177.5 -73.5z" />
    <glyph glyph-name="uni043C" unicode="&#x43c;" horiz-adv-x="727" 
d="M470 0l66 305l-187 -305h-78l-56 305l-65 -305h-148l106 483h191l50 -277l172 277h202l-106 -483h-147z" />
    <glyph glyph-name="uni043D" unicode="&#x43d;" horiz-adv-x="593" 
d="M2 0l110 483h154l-37 -164h173l37 164h154l-110 -483h-154l42 185h-173l-42 -185h-154z" />
    <glyph glyph-name="uni043E" unicode="&#x43e;" horiz-adv-x="576" 
d="M20 210q0 115 81 200t203 85q118 0 183.5 -62.5t65.5 -160.5q0 -115 -81 -199.5t-203 -84.5q-118 0 -183.5 62.5t-65.5 159.5zM396 265q0 44 -26 69t-71 25q-53 0 -87 -42t-34 -99q0 -44 26 -69t71 -25q52 0 86.5 42t34.5 99z" />
    <glyph glyph-name="uni043F" unicode="&#x43f;" horiz-adv-x="593" 
d="M329 0l80 349h-174l-79 -349h-154l110 483h481l-110 -483h-154z" />
    <glyph glyph-name="uni0440" unicode="&#x440;" 
d="M168 57l-53 -241h-154l148 667h154l-13 -56q60 68 138 68q83 0 132.5 -53t49.5 -148q0 -73 -27.5 -141t-87.5 -116.5t-140 -48.5q-98 0 -147 69zM411 262q0 43 -27 70t-67 27q-50 0 -92 -45l-32 -146q34 -44 96 -44q52 0 87 40.5t35 97.5z" />
    <glyph glyph-name="uni0441" unicode="&#x441;" horiz-adv-x="500" 
d="M21 210q0 120 82.5 202.5t203.5 82.5q146 0 205 -98l-115 -87q-30 49 -91 49q-56 0 -92.5 -40.5t-36.5 -99.5q0 -44 30 -69.5t75 -25.5q53 0 91 43l83 -101q-30 -32 -79 -55t-110 -23q-112 0 -179 61.5t-67 160.5z" />
    <glyph glyph-name="uni0442" unicode="&#x442;" horiz-adv-x="449" 
d="M94 0l76 349h-132l30 134h417l-30 -134h-131l-76 -349h-154z" />
    <glyph glyph-name="uni0443" unicode="&#x443;" horiz-adv-x="524" 
d="M1 -52q17 -7 50 -7q37 0 55 26l19 31l-82 485h158l40 -306l179 306h167l-341 -552q-43 -70 -90 -98.5t-115 -28.5q-51 0 -89 12z" />
    <glyph glyph-name="uni0444" unicode="&#x444;" horiz-adv-x="730" 
d="M710 266q0 -121 -81.5 -199.5t-242.5 -78.5l-37 -172h-154l39 181q-86 11 -150 70.5t-64 149.5q0 122 81.5 200t241.5 78l38 172h154l-39 -181q86 -11 150 -70.5t64 -149.5zM181 230q0 -48 23 -75t61 -32l54 246q-66 0 -102 -39.5t-36 -99.5zM411 114q65 0 101.5 39.5
t36.5 99.5q0 47 -23.5 74.5t-61.5 32.5z" />
    <glyph glyph-name="uni0445" unicode="&#x445;" horiz-adv-x="512" 
d="M300 0l-61 146l-126 -146h-173l219 248l-102 235h165l53 -131l111 131h174l-207 -235l111 -248h-164z" />
    <glyph glyph-name="uni0446" unicode="&#x446;" horiz-adv-x="595" 
d="M391 0h-389l106 483h154l-77 -349h163l77 349h154l-77 -349h53l-57 -257h-134z" />
    <glyph glyph-name="uni0447" unicode="&#x447;" horiz-adv-x="581" 
d="M252 483l-26 -115q-21 -92 83 -92q32 0 72 14l44 193h153l-108 -483h-153l37 166q-64 -26 -126 -26q-207 0 -159 214l29 129h154z" />
    <glyph glyph-name="uni0448" unicode="&#x448;" horiz-adv-x="859" 
d="M855 483l-106 -483h-747l106 483h154l-77 -349h143l77 349h154l-77 -349h142l77 349h154z" />
    <glyph glyph-name="uni0449" unicode="&#x449;" horiz-adv-x="874" 
d="M855 483l-77 -349h57l-57 -257h-134l27 123h-669l106 483h154l-77 -349h143l77 349h154l-77 -349h142l77 349h154z" />
    <glyph glyph-name="uni044A" unicode="&#x44a;" horiz-adv-x="661" 
d="M94 0l76 349h-132l30 134h286l-31 -138h125q81 0 127.5 -42.5t46.5 -111.5q0 -77 -54 -134t-140 -57h-334zM296 221l-21 -97h130q27 0 43.5 15.5t16.5 38.5q0 43 -49 43h-120z" />
    <glyph glyph-name="uni044B" unicode="&#x44b;" horiz-adv-x="807" 
d="M262 483l-31 -138h125q81 0 127.5 -42.5t46.5 -111.5q0 -77 -54 -134t-140 -57h-334l106 483h154zM543 0l106 483h154l-106 -483h-154zM204 221l-21 -97h130q27 0 43.5 15.5t16.5 38.5q0 43 -49 43h-120z" />
    <glyph glyph-name="uni044C" unicode="&#x44c;" horiz-adv-x="569" 
d="M262 483l-31 -138h125q81 0 127.5 -42.5t46.5 -111.5q0 -77 -54 -134t-140 -57h-334l106 483h154zM204 221l-21 -97h130q27 0 43.5 15.5t16.5 38.5q0 43 -49 43h-120z" />
    <glyph glyph-name="uni044D" unicode="&#x44d;" horiz-adv-x="505" 
d="M233 495q115 0 182.5 -61.5t67.5 -160.5q0 -119 -82.5 -202t-203.5 -83q-72 0 -129.5 25t-88.5 65l85 87q41 -57 124 -57q44 0 78 22.5t52 59.5h-199l24 106h187q-18 80 -120 80q-60 0 -102 -27l-47 102q69 44 172 44z" />
    <glyph glyph-name="uni044E" unicode="&#x44e;" horiz-adv-x="831" 
d="M560 495q118 0 183.5 -62.5t65.5 -160.5q0 -115 -81 -199.5t-203 -84.5q-110 0 -174.5 54t-73.5 141h-81l-40 -183h-154l106 483h154l-37 -166h72q31 78 101.5 128t161.5 50zM530 124q53 0 87 42t34 99q0 44 -25.5 69t-71.5 25q-52 0 -86 -42t-34 -99q0 -44 25.5 -69
t70.5 -25z" />
    <glyph glyph-name="uni044F" unicode="&#x44f;" horiz-adv-x="588" 
d="M-11 0l147 177q-32 14 -54 46.5t-22 76.5q0 74 53 128.5t140 54.5h334l-106 -483h-154l33 155h-80l-114 -155h-177zM387 279l18 80h-137q-22 0 -36.5 -13t-14.5 -33q0 -16 11.5 -25t31.5 -9h127z" />
    <glyph glyph-name="uni0450" unicode="&#x450;" horiz-adv-x="548" 
d="M291 556l-126 144h152l95 -144h-121zM21 207q0 119 80.5 203.5t202.5 84.5q95 0 158.5 -58t63.5 -160q0 -41 -10 -84h-342v-6q0 -24 31.5 -52t84.5 -28q72 0 113 30l47 -102q-69 -47 -172 -47q-117 0 -187 58t-70 161zM389 293q1 2 1 7q0 28 -23.5 52t-69.5 24
q-41 0 -71 -26t-37 -57h200z" />
    <glyph glyph-name="uni0451" unicode="&#x451;" horiz-adv-x="548" 
d="M252 544q-29 0 -49.5 20t-20.5 49q0 34 27.5 61t61.5 27q30 0 50 -20t20 -50q0 -34 -27 -60.5t-62 -26.5zM466 544q-30 0 -50 20t-20 49q0 34 27 61t62 27q30 0 49.5 -20t19.5 -50q0 -34 -26.5 -60.5t-61.5 -26.5zM21 207q0 119 80.5 203.5t202.5 84.5q95 0 158.5 -58
t63.5 -160q0 -41 -10 -84h-342v-6q0 -24 31.5 -52t84.5 -28q72 0 113 30l47 -102q-69 -47 -172 -47q-117 0 -187 58t-70 161zM389 293q1 2 1 7q0 28 -23.5 52t-69.5 24q-41 0 -71 -26t-37 -57h200z" />
    <glyph glyph-name="uni0452" unicode="&#x452;" horiz-adv-x="598" 
d="M206 -187l30 124q12 -4 29 -4q53 0 69 71l62 276q3 12 3 24q0 28 -17.5 41.5t-41.5 13.5q-63 0 -110 -47l-69 -312h-154l116 525h-53l18 84h54l12 58h154l-13 -58h140l-19 -84h-140l-22 -101q75 71 157 71q69 0 112 -33.5t43 -91.5q0 -17 -5 -40l-73 -326
q-44 -200 -202 -200q-46 0 -80 9z" />
    <glyph glyph-name="uni0453" unicode="&#x453;" horiz-adv-x="455" 
d="M385 556h-131l159 144h162zM461 349h-229l-76 -349h-154l106 483h383z" />
    <glyph glyph-name="uni0454" unicode="&#x454;" horiz-adv-x="505" 
d="M294 107q62 0 109 30l47 -102q-69 -47 -179 -47q-115 0 -182.5 61.5t-67.5 160.5q0 120 82.5 202.5t203.5 82.5q72 0 129.5 -25t88.5 -65l-85 -87q-17 25 -50 41t-74 16q-88 0 -129 -79h199l-23 -106h-190q18 -83 121 -83z" />
    <glyph glyph-name="uni0455" unicode="&#x455;" horiz-adv-x="484" 
d="M-14 76l79 97q25 -27 75.5 -50t98.5 -23q23 0 37 10.5t14 26.5q0 25 -80 50q-26 8 -43.5 14.5t-42 19t-39 26t-25 34t-10.5 44.5q0 70 55.5 120t151.5 50q61 0 118 -20.5t97 -57.5l-73 -94q-20 22 -60.5 40.5t-81.5 18.5q-26 0 -40 -9.5t-14 -24.5q0 -22 73 -44
q29 -9 45.5 -14.5t43 -18t41.5 -26t26.5 -35.5t11.5 -48q0 -75 -59.5 -124.5t-159.5 -49.5q-68 0 -131.5 23t-107.5 65z" />
    <glyph glyph-name="uni0456" unicode="&#x456;" horiz-adv-x="266" 
d="M128 619q0 46 31.5 73.5t68.5 27.5q34 0 57 -22t23 -53q0 -46 -31.5 -73.5t-68.5 -27.5q-34 0 -57 22t-23 53zM2 0l107 483h154l-107 -483h-154z" />
    <glyph glyph-name="uni0457" unicode="&#x457;" horiz-adv-x="266" 
d="M103 544q-29 0 -49.5 20t-20.5 49q0 34 27.5 61t61.5 27q30 0 50 -20t20 -50q0 -34 -27 -60.5t-62 -26.5zM317 544q-30 0 -50 20t-20 49q0 34 27 61t62 27q30 0 49.5 -20t19.5 -50q0 -34 -26.5 -60.5t-61.5 -26.5zM2 0l107 483h154l-107 -483h-154z" />
    <glyph glyph-name="uni0458" unicode="&#x458;" horiz-adv-x="266" 
d="M208 544q-34 0 -57 22t-23 53q0 46 31.5 73.5t68.5 27.5q34 0 57 -22t23 -53q0 -46 -31.5 -73.5t-68.5 -27.5zM-126 -187l30 124q12 -4 29 -4q53 0 69 71l107 479h154l-107 -479q-43 -200 -202 -200q-46 0 -80 9z" />
    <glyph glyph-name="uni0459" unicode="&#x459;" horiz-adv-x="896" 
d="M-6 134q17 0 31.5 7.5t34 30.5t42 74t46.5 129l32 108h409l-34 -155h125q81 0 128 -40t47 -105q0 -73 -53 -128t-139 -55h-334l76 349h-129l-11 -35q-55 -179 -125 -252.5t-178 -73.5zM527 204l-17 -80h138q21 0 35.5 14t14.5 32q0 34 -42 34h-129z" />
    <glyph glyph-name="uni045A" unicode="&#x45a;" horiz-adv-x="896" 
d="M2 0l109 483h154l-38 -166h173l38 166h154l-36 -160h127q79 0 125.5 -39.5t46.5 -103.5q0 -72 -52 -126t-137 -54h-337l41 183h-173l-41 -183h-154zM528 199l-17 -75h139q21 0 34 12.5t13 31.5q0 31 -39 31h-130z" />
    <glyph glyph-name="uni045B" unicode="&#x45b;" horiz-adv-x="598" 
d="M410 495q72 0 113.5 -34.5t41.5 -90.5q0 -15 -5 -40l-72 -330h-154l59 274q5 23 5 32q0 27 -19 40t-47 13q-56 0 -103 -47l-68 -312h-154l116 525h-49l17 84h50l13 58h154l-13 -58h143l-18 -84h-144l-23 -101q77 71 157 71z" />
    <glyph glyph-name="uni045C" unicode="&#x45c;" horiz-adv-x="546" 
d="M416 556h-131l159 144h162zM313 0l-70 174l-62 -58l-25 -116h-154l107 483h154l-42 -185l183 185h192l-227 -220l129 -263h-185z" />
    <glyph glyph-name="uni045D" unicode="&#x45d;" horiz-adv-x="592" 
d="M305 556l-126 144h152l95 -144h-121zM262 483l-61 -279q-4 -18 -4 -26q0 -54 71 -54q49 0 99 48l68 311h154l-107 -483h-154l14 59q-77 -71 -157 -71q-72 0 -113.5 34.5t-41.5 90.5q0 15 5 40l74 330h153z" />
    <glyph glyph-name="uni045E" unicode="&#x45e;" horiz-adv-x="524" 
d="M337 545q-55 0 -101 24.5t-75 67.5l87 67q13 -25 40 -41t59 -16q63 0 114 57l65 -72q-78 -87 -189 -87zM1 -52q17 -7 50 -7q37 0 55 26l19 31l-82 485h158l40 -306l179 306h167l-341 -552q-43 -70 -90 -98.5t-115 -28.5q-51 0 -89 12z" />
    <glyph glyph-name="uni045F" unicode="&#x45f;" horiz-adv-x="583" 
d="M579 483l-106 -483h-169l-27 -124h-134l27 124h-168l106 483h154l-77 -349h163l77 349h154z" />
    <glyph glyph-name="uni0472" unicode="&#x472;" horiz-adv-x="766" 
d="M430 678q145 0 241.5 -83.5t96.5 -217.5q0 -163 -113 -276t-281 -113q-146 0 -242 84t-96 219q0 162 113 274.5t281 112.5zM420 526q-68 0 -118.5 -35.5t-72.5 -97.5q47 31 100 31q51 0 97 -26q42 -22 76 -22q42 0 83 28q-12 58 -55.5 90t-109.5 32zM384 140
q68 0 118 35.5t72 97.5q-45 -29 -97 -29t-96 26q-42 22 -76 22q-44 0 -86 -30q11 -58 55 -90t110 -32z" />
    <glyph glyph-name="uni0473" unicode="&#x473;" horiz-adv-x="576" 
d="M304 495q118 0 183.5 -62.5t65.5 -160.5q0 -115 -81 -199.5t-203 -84.5q-118 0 -183.5 62.5t-65.5 159.5q0 115 81 200t203 85zM305 373q-36 0 -67 -23t-49 -60q28 19 60 19q29 0 56 -16q25 -17 47 -17q24 0 48 16q-6 38 -31 59.5t-64 21.5zM268 110q37 0 68.5 23.5
t49.5 61.5q-29 -19 -60 -19q-28 0 -54 18q-26 15 -49 15q-25 0 -49 -17q5 -39 29.5 -60.5t64.5 -21.5z" />
    <glyph glyph-name="uni0474" unicode="&#x474;" horiz-adv-x="762" 
d="M528 543q76 134 222 134q61 0 104 -21l-63 -142q-14 7 -30 7q-46 0 -74 -46l-285 -475h-216l-103 667h185l59 -481z" />
    <glyph glyph-name="uni0475" unicode="&#x475;" horiz-adv-x="603" 
d="M126 0l-82 483h157l40 -306l109 185q78 133 193 133q33 0 68 -12t55 -29l-75 -114q-20 16 -42 16q-39 0 -70 -51l-189 -305h-164z" />
    <glyph glyph-name="uni048A" unicode="&#x48a;" horiz-adv-x="774" 
d="M482 712q-55 0 -101 24.5t-75 67.5l87 67q13 -25 40 -41t59 -16q63 0 114 57l65 -72q-78 -87 -189 -87zM773 667l-114 -517h109l-120 -273h-150l53 123h-98l92 414l-373 -414h-166l147 667h172l-86 -395l356 395h178z" />
    <glyph glyph-name="uni048B" unicode="&#x48b;" horiz-adv-x="608" 
d="M372 545q-55 0 -101 24.5t-75 67.5l87 67q13 -25 40 -41t59 -16q63 0 114 57l65 -72q-78 -87 -189 -87zM589 483l-77 -349h82l-115 -257h-134l54 123h-70l62 282l-242 -282h-147l106 483h154l-60 -270l232 270h155z" />
    <glyph glyph-name="uni048C" unicode="&#x48c;" horiz-adv-x="643" 
d="M426 443q86 0 141 -55.5t55 -135.5q0 -40 -14.5 -81t-45 -81t-89 -65t-136.5 -25h-331l108 495h-50l25 112h50l13 60h172l-13 -60h181l-25 -112h-181l-11 -52h151zM346 150q42 0 70 23.5t28 60.5q0 27 -18.5 43t-50.5 16h-133l-31 -143h135z" />
    <glyph glyph-name="uni048D" unicode="&#x48d;" horiz-adv-x="574" 
d="M361 345q81 0 127.5 -42.5t46.5 -111.5q0 -77 -54 -134t-140 -57h-334l88 398h-52l19 85h52l41 184h154l-41 -184h141l-19 -85h-140l-12 -53h123zM318 124q27 0 43.5 15.5t16.5 38.5q0 43 -49 43h-118l-22 -97h129z" />
    <glyph glyph-name="uni048E" unicode="&#x48e;" horiz-adv-x="643" 
d="M672 476q0 -55 -26 -112t-81 -94l25 -44l-123 -77l-45 74q-22 -2 -36 -2h-159l-49 -221h-172l147 667h312q94 0 150.5 -55t56.5 -136zM293 522l-33 -150h96l-25 41l90 57l45 -74q28 23 28 62q0 29 -20 46.5t-53 17.5h-128z" />
    <glyph glyph-name="uni048F" unicode="&#x48f;" horiz-adv-x="590" 
d="M570 294q0 -71 -29 -141.5t-82 -113.5l22 -38l-108 -65l-31 53q-9 -1 -27 -1q-98 0 -147 69l-53 -241h-154l148 667h154l-13 -56q60 68 138 68q83 0 132.5 -53t49.5 -148zM193 168q33 -41 88 -44l-29 52l83 49l38 -63q38 40 38 100q0 43 -27 70t-67 27q-50 0 -92 -45z
" />
    <glyph glyph-name="uni0490" unicode="&#x490;" horiz-adv-x="582" 
d="M6 0l146 667h338l27 123h151l-60 -273h-317l-113 -517h-172z" />
    <glyph glyph-name="uni0491" unicode="&#x491;" horiz-adv-x="455" 
d="M156 0h-154l106 483h249l28 124h134l-58 -258h-229z" />
    <glyph glyph-name="uni0492" unicode="&#x492;" horiz-adv-x="582" 
d="M608 517h-316l-25 -115h161l-30 -137h-161l-59 -265h-172l58 265h-52l30 137h53l58 265h489z" />
    <glyph glyph-name="uni0493" unicode="&#x493;" horiz-adv-x="455" 
d="M461 349h-229l-13 -61h108l-22 -101h-108l-41 -187h-154l41 187h-49l22 101h50l42 195h383z" />
    <glyph glyph-name="uni0494" unicode="&#x494;" horiz-adv-x="666" 
d="M274 19q150 0 178 123q13 62 -15.5 99t-88.5 37q-59 0 -116 -41l-54 -237h-172l148 667h489l-34 -150h-316l-30 -135q61 42 142 42q120 0 183.5 -85t35.5 -213q-27 -121 -115.5 -189t-267.5 -68z" />
    <glyph glyph-name="uni0495" unicode="&#x495;" horiz-adv-x="590" 
d="M345 294q94 0 147.5 -70t26.5 -192q-24 -109 -103.5 -168.5t-210.5 -59.5l30 138q47 0 83.5 30t46.5 78q13 58 -13.5 91.5t-74.5 33.5q-50 0 -90 -34l-31 -141h-154l108 483h383l-30 -134h-229l-25 -110q63 55 136 55z" />
    <glyph glyph-name="uni0496" unicode="&#x496;" horiz-adv-x="1037" 
d="M761 327l91 -177h157l-61 -273h-150l27 123h-92l-121 276h-34l-60 -276h-172l60 276h-36l-220 -276h-213l319 367l-159 300h190l116 -257h33l56 257h172l-56 -257h36l204 257h210z" />
    <glyph glyph-name="uni0497" unicode="&#x497;" horiz-adv-x="838" 
d="M621 228l44 -94h134l-57 -257h-134l27 123h-82l-73 193h-29l-42 -193h-154l42 193h-30l-136 -193h-191l213 272l-98 211h166l71 -190h27l42 190h154l-42 -190h29l133 190h186z" />
    <glyph glyph-name="uni0498" unicode="&#x498;" horiz-adv-x="624" 
d="M635 500q0 -60 -55.5 -106t-124.5 -56q125 -30 125 -148q0 -76 -63.5 -130.5t-157.5 -67.5l-26 -115h-150l27 120q-160 29 -222 130l108 102q32 -45 92.5 -69.5t114.5 -24.5q51 0 79.5 21.5t28.5 52.5q0 55 -117 55h-122l33 145h128q124 0 124 59q0 29 -33 45.5t-96 16.5
q-96 0 -169 -50l-57 113q43 38 108 61t135 23q131 0 210.5 -47.5t79.5 -129.5z" />
    <glyph glyph-name="uni0499" unicode="&#x499;" horiz-adv-x="496" 
d="M489 360q0 -55 -44.5 -86.5t-102.5 -36.5q44 -7 75 -36.5t31 -66.5q0 -54 -40 -94t-134 -49l-25 -114h-134l27 119q-56 12 -99.5 37.5t-66.5 55.5l90 84q57 -67 155 -67q71 0 71 44q0 42 -72 42h-88l24 103h87q81 0 81 40q0 19 -21 30.5t-60 11.5q-74 0 -130 -38l-55 91
q81 62 203 64q115 1 171.5 -40t56.5 -94z" />
    <glyph glyph-name="uni049A" unicode="&#x49a;" horiz-adv-x="690" 
d="M415 355l113 -205h133l-61 -273h-150l27 123h-70l-124 257l-62 -62l-43 -195h-172l147 667h172l-57 -261l253 261h221z" />
    <glyph glyph-name="uni049B" unicode="&#x49b;" horiz-adv-x="595" 
d="M369 263l65 -129h128l-57 -257h-134l27 123h-85l-70 174l-62 -58l-25 -116h-154l107 483h154l-42 -185l183 185h192z" />
    <glyph glyph-name="uni049C" unicode="&#x49c;" horiz-adv-x="714" 
d="M803 667l-263 -327l129 -340h-187l-92 276h-28l-31 -140h-73l31 140h-50l-61 -276h-172l148 667h172l-57 -257h49l31 140h73l-31 -140h22l189 257h201z" />
    <glyph glyph-name="uni049D" unicode="&#x49d;" horiz-adv-x="607" 
d="M659 483l-194 -243l94 -240h-170l-61 193h-30l-24 -110h-62l24 110h-37l-43 -193h-154l108 483h154l-42 -190h36l23 102h62l-23 -102h23l136 190h180z" />
    <glyph glyph-name="uni049E" unicode="&#x49e;" horiz-adv-x="654" 
d="M742 667l-327 -312l194 -355h-202l-124 257l-62 -62l-43 -195h-172l108 491h-51l27 121h51l12 55h172l-12 -55h54l-27 -121h-53l-19 -85l253 261h221z" />
    <glyph glyph-name="uni049F" unicode="&#x49f;" horiz-adv-x="551" 
d="M601 483l-227 -220l129 -263h-185l-70 174l-62 -58l-25 -116h-154l116 525h-53l19 84h52l13 58h154l-13 -58h141l-18 -84h-142l-50 -227l183 185h192z" />
    <glyph glyph-name="uni04A0" unicode="&#x4a0;" horiz-adv-x="943" 
d="M704 355l194 -355h-201l-125 257l-61 -62l-43 -195h-173l115 517h-317l34 150h488l-58 -261l254 261h220z" />
    <glyph glyph-name="uni04A1" unicode="&#x4a1;" horiz-adv-x="735" 
d="M191 0l78 349h-229l30 134h382l-42 -185l183 185h192l-227 -220l129 -263h-185l-70 174l-62 -58l-25 -116h-154z" />
    <glyph glyph-name="uni04A2" unicode="&#x4a2;" horiz-adv-x="775" 
d="M774 667l-113 -517h79l-60 -273h-151l27 123h-101l59 268h-277l-59 -268h-172l147 667h172l-55 -249h277l55 249h172z" />
    <glyph glyph-name="uni04A3" unicode="&#x4a3;" horiz-adv-x="608" 
d="M593 483l-79 -349h52l-57 -257h-134l27 123h-73l42 185h-173l-42 -185h-154l110 483h154l-37 -164h173l37 164h154z" />
    <glyph glyph-name="uni04A4" unicode="&#x4a4;" horiz-adv-x="1031" 
d="M1092 667l-34 -150h-316l-115 -517h-172l60 268h-277l-60 -268h-172l148 667h172l-55 -249h277l55 249h489z" />
    <glyph glyph-name="uni04A5" unicode="&#x4a5;" horiz-adv-x="782" 
d="M820 483l-30 -134h-229l-78 -349h-154l41 183h-173l-41 -183h-154l108 483h154l-37 -166h173l37 166h383z" />
    <glyph glyph-name="uni04A6" unicode="&#x4a6;" horiz-adv-x="1115" 
d="M681 237l-54 -237h-172l115 517h-277l-115 -517h-172l148 667h621l-63 -285q61 42 142 42q119 0 183 -85t36 -213q-27 -121 -115.5 -189t-267.5 -68l33 150q151 0 178 123q13 62 -15.5 99t-88.5 37q-59 0 -116 -41z" />
    <glyph glyph-name="uni04A7" unicode="&#x4a7;" horiz-adv-x="917" 
d="M673 294q93 0 146.5 -70.5t26.5 -191.5q-24 -109 -103.5 -168.5t-210.5 -59.5l30 138q47 0 83.5 30t46.5 78q13 58 -13.5 91.5t-74.5 33.5q-50 0 -90 -34l-31 -141h-154l78 349h-173l-78 -349h-154l108 483h481l-55 -244q63 55 137 55z" />
    <glyph glyph-name="uni04A8" unicode="&#x4a8;" horiz-adv-x="897" 
d="M632 648q120 0 179.5 -95t26.5 -245q-22 -97 -90 -174q46 2 83 15l7 -136q-58 -24 -141 -24q-63 0 -128 24q-72 -25 -149 -25q-203 0 -300.5 116t-58.5 293q26 121 124.5 201t244.5 80l-33 -150q-57 -1 -103.5 -43t-62.5 -109q-22 -99 24 -164t150 -71q-73 110 -38 263
q22 103 93 173.5t172 70.5zM521 393q-31 -138 55 -210q71 51 93 156q16 71 0 113.5t-59 42.5q-33 0 -56.5 -30t-32.5 -72z" />
    <glyph glyph-name="uni04A9" unicode="&#x4a9;" horiz-adv-x="740" 
d="M508 465q48 0 84 -13.5t56 -36t31 -52t10 -62t-7 -65.5q-14 -62 -75 -125q37 1 68 14l6 -115q-44 -22 -111 -22q-70 0 -127 22q-66 -22 -140 -22q-155 0 -226 83.5t-43 211.5q20 89 99 150.5t202 61.5l-30 -136q-42 0 -75.5 -29.5t-43.5 -70.5q-13 -59 18.5 -99
t106.5 -43q-48 81 -28 172q15 66 75.5 121t149.5 55zM424 269q-20 -86 31 -125q61 31 78 104q9 40 -1 67t-40 27q-25 0 -43 -20.5t-25 -52.5z" />
    <glyph glyph-name="uni04AA" unicode="&#x4aa;" horiz-adv-x="692" 
d="M384 140q41 0 82 21.5t63 55.5l134 -88q-55 -75 -133 -108t-156 -33q-18 0 -27 1l-25 -38q16 10 30 10q26 0 43 -17.5t17 -46.5q0 -43 -33.5 -69t-82.5 -26q-81 0 -124 43l39 54q39 -36 85 -36q44 0 44 30q0 20 -26 20q-16 0 -27 -13l-46 30l41 68q-110 25 -178 102.5
t-68 190.5q0 171 114.5 279t279.5 108q125 0 202 -58.5t107 -146.5l-166 -54q-14 50 -54.5 78.5t-96.5 28.5q-87 0 -147 -65.5t-60 -158.5q0 -69 46.5 -115.5t122.5 -46.5z" />
    <glyph glyph-name="uni04AB" unicode="&#x4ab;" horiz-adv-x="500" 
d="M282 124q53 0 91 43l83 -101q-30 -32 -79 -55t-110 -23h-9l-24 -37q16 10 30 10q26 0 43 -17.5t17 -46.5q0 -43 -33.5 -69t-82.5 -26q-81 0 -124 43l39 54q39 -36 85 -36q44 0 44 30q0 20 -26 20q-16 0 -27 -13l-46 30l40 66q-80 19 -126 76.5t-46 137.5
q0 120 82.5 202.5t203.5 82.5q146 0 205 -98l-115 -87q-30 49 -91 49q-56 0 -92.5 -40.5t-36.5 -99.5q0 -44 30 -69.5t75 -25.5z" />
    <glyph glyph-name="uni04AC" unicode="&#x4ac;" 
d="M115 667h545l-33 -150h-187l-80 -367h80l-61 -273h-150l27 123h-101l113 517h-187z" />
    <glyph glyph-name="uni04AD" unicode="&#x4ad;" horiz-adv-x="449" 
d="M68 483h417l-30 -134h-131l-47 -215h54l-57 -257h-134l27 123h-73l76 349h-132z" />
    <glyph glyph-name="uni04AE" unicode="&#x4ae;" horiz-adv-x="655" 
d="M188 0l59 269l-165 398h185l91 -246l197 246h204l-340 -398l-59 -269h-172z" />
    <glyph glyph-name="uni04AF" unicode="&#x4af;" horiz-adv-x="524" 
d="M420 483h168l-304 -483l-40 -184h-153l40 184l-87 483h157l40 -306z" />
    <glyph glyph-name="uni04B0" unicode="&#x4b0;" horiz-adv-x="655" 
d="M759 667l-283 -331h148l-30 -134h-190l-44 -202h-172l44 202h-188l30 134h145l-137 331h185l91 -246l197 246h204z" />
    <glyph glyph-name="uni04B1" unicode="&#x4b1;" horiz-adv-x="524" 
d="M587 483l-244 -384h107l-22 -99h-144l-41 -184h-153l41 184h-143l23 99h105l-73 384h158l41 -303l178 303h167z" />
    <glyph glyph-name="uni04B2" unicode="&#x4b2;" horiz-adv-x="721" 
d="M469 332l90 -182h132l-60 -273h-150l27 123h-70l-103 214l-187 -214h-213l315 352l-153 315h194l92 -200l168 200h213z" />
    <glyph glyph-name="uni04B3" unicode="&#x4b3;" horiz-adv-x="566" 
d="M353 248l52 -114h129l-57 -257h-134l27 123h-70l-61 146l-126 -146h-173l219 248l-102 235h165l53 -131l111 131h174z" />
    <glyph glyph-name="uni04B4" unicode="&#x4b4;" horiz-adv-x="904" 
d="M789 150h80l-61 -273h-150l27 123h-530l114 517h-187l34 150h532l-33 -150h-174l-81 -367h257l115 517h172z" />
    <glyph glyph-name="uni04B5" unicode="&#x4b5;" horiz-adv-x="690" 
d="M595 134h53l-57 -257h-134l27 123h-390l78 349h-132l30 134h398l-30 -134h-112l-48 -215h163l78 349h154z" />
    <glyph glyph-name="uni04B6" unicode="&#x4b6;" horiz-adv-x="704" 
d="M702 667l-113 -517h80l-61 -273h-150l27 123h-101l53 243q-57 -31 -139 -31q-123 0 -177 67t-24 205l40 183h172l-43 -201q-12 -54 17 -79t87 -25q50 0 97 19l63 286h172z" />
    <glyph glyph-name="uni04B7" unicode="&#x4b7;" horiz-adv-x="595" 
d="M578 483l-78 -349h53l-57 -257h-133l27 123h-73l37 166q-64 -26 -126 -26q-207 0 -159 214l29 129h154l-26 -115q-21 -92 83 -92q32 0 72 14l44 193h153z" />
    <glyph glyph-name="uni04B8" unicode="&#x4b8;" horiz-adv-x="670" 
d="M530 667h172l-146 -667h-172l53 243q-35 -18 -78 -25l-18 -82h-73l17 76q-115 2 -166.5 69t-21.5 203l40 183h172l-43 -201q-18 -78 53 -98l40 182h73l-41 -187q37 3 76 18z" />
    <glyph glyph-name="uni04B9" unicode="&#x4b9;" horiz-adv-x="581" 
d="M425 483h153l-108 -483h-153l37 166q-31 -13 -60 -19l-14 -64h-62l13 57h-3q-207 0 -159 214l29 129h154l-26 -115q-15 -67 36 -85l25 112h62l-26 -118q32 3 58 13z" />
    <glyph glyph-name="uni04BA" unicode="&#x4ba;" horiz-adv-x="670" 
d="M443 201q12 54 -17 79t-87 25q-49 0 -97 -19l-64 -286h-172l148 667h172l-54 -243q57 31 138 31q123 0 177.5 -67t24.5 -205l-41 -183h-172z" />
    <glyph glyph-name="uni04BB" unicode="&#x4bb;" horiz-adv-x="594" 
d="M330 0l59 274q5 23 5 32q0 27 -19 40t-47 13q-56 0 -103 -47l-68 -312h-154l147 667h154l-55 -243q77 71 157 71q72 0 113.5 -34.5t41.5 -90.5q0 -15 -5 -40l-72 -330h-154z" />
    <glyph glyph-name="uni04BC" unicode="&#x4bc;" horiz-adv-x="929" 
d="M617 679q69 0 132 -26t110 -76.5t65.5 -125t-1.5 -171.5h-521q8 -61 53.5 -100t114.5 -39q41 0 82 21.5t64 54.5l134 -88q-55 -74 -133 -107t-156 -33q-142 0 -238.5 81t-99.5 213h-16q-77 0 -119.5 46.5t-24.5 127.5q8 35 16 55l115 -4q-2 -4 -8 -26q-13 -65 41 -65h15
q39 120 141.5 191t233.5 71zM430 417h328q-11 47 -53 78.5t-96 31.5q-57 0 -104 -30t-75 -80z" />
    <glyph glyph-name="uni04BD" unicode="&#x4bd;" horiz-adv-x="698" 
d="M666 193h-342v-6q0 -24 31.5 -52t84.5 -28q72 0 113 30l47 -102q-69 -47 -171 -47q-113 0 -182.5 54.5t-74.5 150.5h-17q-67 0 -103 37t-21 102q7 32 15 56l94 -4l-7 -26q-14 -65 33 -65h19q26 89 99.5 145.5t170.5 56.5q95 0 158 -58t63 -160q0 -41 -10 -84zM447 376
q-40 0 -70 -26t-38 -57h201v7q0 28 -23.5 52t-69.5 24z" />
    <glyph glyph-name="uni04BE" unicode="&#x4be;" horiz-adv-x="929" 
d="M563 711q-29 0 -49.5 20t-20.5 49q0 34 27.5 61t61.5 27q30 0 50 -20t20 -50q0 -34 -27 -60.5t-62 -26.5zM777 711q-30 0 -50 20t-20 49q0 34 27 61t62 27q30 0 49.5 -20t19.5 -50q0 -34 -26.5 -60.5t-61.5 -26.5zM617 679q69 0 132 -26t110 -76.5t65.5 -125t-1.5 -171.5
h-521q8 -61 53.5 -100t114.5 -39q41 0 82 21.5t64 54.5l134 -88q-93 -127 -262 -139l-26 -113h-150l29 129q-97 30 -156.5 102.5t-61.5 174.5h-16q-77 0 -119.5 46.5t-24.5 127.5q8 35 16 55l115 -4q-2 -4 -8 -26q-13 -65 41 -65h15q39 120 141.5 191t233.5 71zM430 417h328
q-11 47 -53 78.5t-96 31.5q-57 0 -104 -30t-75 -80z" />
    <glyph glyph-name="uni04BF" unicode="&#x4bf;" horiz-adv-x="698" 
d="M402 544q-29 0 -49.5 20t-20.5 49q0 34 27.5 61t61.5 27q30 0 50 -20t20 -50q0 -34 -27 -60.5t-62 -26.5zM635 701q30 0 49.5 -20t19.5 -50q0 -34 -26.5 -60.5t-61.5 -26.5q-30 0 -50 20t-20 49q0 34 27 61t62 27zM455 495q95 0 158 -58t63 -160q0 -41 -10 -84h-342v-6
q0 -24 31.5 -52t84.5 -28q72 0 113 30l47 -102q-61 -41 -151 -46l-25 -112h-134l28 127q-66 22 -104 70.5t-42 118.5h-17q-67 0 -103 37t-21 102q7 32 15 56l94 -4l-7 -26q-14 -65 33 -65h19q26 89 99.5 145.5t170.5 56.5zM540 293v7q0 28 -23.5 52t-69.5 24q-40 0 -70 -26
t-38 -57h201z" />
    <glyph glyph-name="uni04C0" unicode="&#x4c0;" horiz-adv-x="292" 
d="M6 0l147 667h172l-147 -667h-172z" />
    <glyph glyph-name="uni04C1" unicode="&#x4c1;" horiz-adv-x="971" 
d="M599 712q-55 0 -101 24.5t-75 67.5l87 67q13 -25 40 -41t59 -16q63 0 114 57l65 -72q-78 -87 -189 -87zM1058 667l-297 -340l166 -327h-194l-121 276h-34l-60 -276h-172l60 276h-36l-220 -276h-213l319 367l-159 300h190l116 -257h33l56 257h172l-56 -257h36l204 257h210
z" />
    <glyph glyph-name="uni04C2" unicode="&#x4c2;" horiz-adv-x="772" 
d="M462 545q-55 0 -101 24.5t-75 67.5l87 67q13 -25 40 -41t59 -16q63 0 114 57l65 -72q-78 -87 -189 -87zM821 483l-200 -256l103 -227h-171l-73 193h-29l-42 -193h-154l42 193h-30l-136 -193h-191l213 272l-98 211h166l71 -190h27l42 190h154l-42 -190h29l133 190h186z
" />
    <glyph glyph-name="uni04C3" unicode="&#x4c3;" horiz-adv-x="653" 
d="M482 402q85 -28 117.5 -103.5t10.5 -175.5q-57 -254 -382 -254l33 150q149 0 178 120q14 64 -11 98.5t-82 34.5h-107l-61 -272h-172l148 667h172l-55 -249h27l223 249h222z" />
    <glyph glyph-name="uni04C4" unicode="&#x4c4;" horiz-adv-x="546" 
d="M398 269q127 -63 88 -240q-24 -104 -106.5 -164.5t-207.5 -60.5l31 138q46 0 83 31.5t49 84.5q14 61 -8.5 96.5t-68.5 35.5h-59l-43 -190h-154l108 483h154l-42 -187h20l159 187h196z" />
    <glyph glyph-name="uni04C5" unicode="&#x4c5;" horiz-adv-x="775" 
d="M773 667l-113 -517h110l-121 -273h-150l54 123h-98l113 517h-183l-22 -74q-35 -116 -73.5 -200t-75 -132.5t-80 -76.5t-81.5 -37t-87 -9l36 162q27 0 49 11t50 43t58 102t62 176l55 185h497z" />
    <glyph glyph-name="uni04C6" unicode="&#x4c6;" horiz-adv-x="608" 
d="M589 483l-77 -349h82l-115 -257h-134l54 123h-70l76 349h-129l-11 -35q-55 -179 -124.5 -252.5t-177.5 -73.5l31 146q17 0 31.5 7.5t34 30.5t42 74t46.5 129l32 108h409z" />
    <glyph glyph-name="uni04C7" unicode="&#x4c7;" horiz-adv-x="741" 
d="M603 667h172l-137 -623q-27 -125 -91 -182.5t-170 -57.5q-75 0 -111 21l50 130q24 -8 52 -8q33 0 59.5 22t35.5 62l52 237h-277l-60 -268h-172l148 667h172l-55 -249h277z" />
    <glyph glyph-name="uni04C8" unicode="&#x4c8;" horiz-adv-x="593" 
d="M437 483h154l-107 -479q-44 -200 -202 -200q-46 0 -80 9l30 124q12 -4 29 -4q53 0 69 71l40 179h-173l-41 -183h-154l108 483h154l-37 -166h173z" />
    <glyph glyph-name="uni04C9" unicode="&#x4c9;" horiz-adv-x="775" 
d="M774 667l-113 -517h109l-120 -273h-151l54 123h-98l59 268h-277l-59 -268h-172l147 667h172l-55 -249h277l55 249h172z" />
    <glyph glyph-name="uni04CA" unicode="&#x4ca;" horiz-adv-x="608" 
d="M593 483l-79 -349h80l-115 -257h-134l54 123h-70l42 185h-173l-42 -185h-154l110 483h154l-37 -164h173l37 164h154z" />
    <glyph glyph-name="uni04CB" unicode="&#x4cb;" horiz-adv-x="670" 
d="M530 667h172l-146 -667h-101l-27 -123h-151l59 263h78l23 103q-57 -31 -139 -31q-123 0 -177 67t-24 205l40 183h172l-43 -201q-12 -54 17 -79t87 -25q50 0 97 19z" />
    <glyph glyph-name="uni04CC" unicode="&#x4cc;" horiz-adv-x="581" 
d="M425 483h153l-108 -483h-73l-27 -123h-133l48 218h53l16 71q-64 -26 -126 -26q-207 0 -159 214l29 129h154l-26 -115q-21 -92 83 -92q32 0 72 14z" />
    <glyph glyph-name="uni04CD" unicode="&#x4cd;" horiz-adv-x="911" 
d="M910 667l-113 -517h109l-120 -273h-151l54 123h-98l98 444l-267 -444h-76l-70 444l-98 -444h-172l147 667h233l57 -372l222 372h245z" />
    <glyph glyph-name="uni04CE" unicode="&#x4ce;" horiz-adv-x="742" 
d="M723 483l-77 -349h81l-114 -257h-134l54 123h-63l66 305l-187 -305h-78l-56 305l-65 -305h-148l106 483h191l50 -277l172 277h202z" />
    <glyph glyph-name="uni04CF" unicode="&#x4cf;" horiz-adv-x="266" 
d="M2 0l147 667h154l-147 -667h-154z" />
    <glyph glyph-name="uni04D0" unicode="&#x4d0;" horiz-adv-x="697" 
d="M460 712q-55 0 -101 24.5t-75 67.5l87 67q13 -25 40 -41t59 -16q63 0 114 57l65 -72q-78 -87 -189 -87zM476 0l-13 101h-276l-57 -101h-195l398 667h216l105 -667h-178zM417 522l-153 -276h186z" />
    <glyph glyph-name="uni04D1" unicode="&#x4d1;" horiz-adv-x="591" 
d="M373 545q-55 0 -101 24.5t-75 67.5l87 67q13 -25 40 -41t59 -16q63 0 114 57l65 -72q-78 -87 -189 -87zM421 426l13 57h153l-107 -483h-153l12 56q-59 -68 -138 -68q-83 0 -132 52.5t-49 147.5q0 73 27.5 141.5t87 117t139.5 48.5q99 0 147 -69zM179 220q0 -43 27 -69.5
t67 -26.5q53 0 91 45l33 146q-34 44 -96 44q-53 0 -87.5 -40.5t-34.5 -98.5z" />
    <glyph glyph-name="uni04D2" unicode="&#x4d2;" horiz-adv-x="697" 
d="M355 711q-29 0 -49.5 20t-20.5 49q0 34 27.5 61t61.5 27q30 0 50 -20t20 -50q0 -34 -27 -60.5t-62 -26.5zM569 711q-30 0 -50 20t-20 49q0 34 27 61t62 27q30 0 49.5 -20t19.5 -50q0 -34 -26.5 -60.5t-61.5 -26.5zM476 0l-13 101h-276l-57 -101h-195l398 667h216
l105 -667h-178zM417 522l-153 -276h186z" />
    <glyph glyph-name="uni04D3" unicode="&#x4d3;" horiz-adv-x="591" 
d="M268 544q-29 0 -49.5 20t-20.5 49q0 34 27.5 61t61.5 27q30 0 50 -20t20 -50q0 -34 -27 -60.5t-62 -26.5zM482 544q-30 0 -50 20t-20 49q0 34 27 61t62 27q30 0 49.5 -20t19.5 -50q0 -34 -26.5 -60.5t-61.5 -26.5zM421 426l13 57h153l-107 -483h-153l12 56
q-59 -68 -138 -68q-83 0 -132 52.5t-49 147.5q0 73 27.5 141.5t87 117t139.5 48.5q99 0 147 -69zM179 220q0 -43 27 -69.5t67 -26.5q53 0 91 45l33 146q-34 44 -96 44q-53 0 -87.5 -40.5t-34.5 -98.5z" />
    <glyph glyph-name="uni04D4" unicode="&#x4d4;" horiz-adv-x="979" 
d="M400 0l22 101h-222l-78 -101h-193l547 667h560l-33 -145h-316l-24 -111h309l-32 -146h-310l-26 -120h316l-31 -145h-489zM514 522l-204 -276h144z" />
    <glyph glyph-name="uni04D5" unicode="&#x4d5;" horiz-adv-x="902" 
d="M480 0h-153l12 56q-59 -68 -138 -68q-83 0 -132 52.5t-49 147.5q0 73 27.5 141.5t87 117t139.5 48.5q99 0 147 -69l13 57h153l-10 -47q59 59 133 59q171 0 171 -206q0 -49 -11 -96h-341v-6q0 -23 33.5 -50t89.5 -27q65 0 106 30l47 -105q-73 -47 -150 -47q-117 0 -160 78
zM744 293v6q0 29 -23 53t-68 24q-41 0 -70.5 -26t-37.5 -57h199zM179 220q0 -43 27 -69.5t67 -26.5q53 0 91 45l33 146q-34 44 -96 44q-53 0 -87.5 -40.5t-34.5 -98.5z" />
    <glyph glyph-name="uni04D6" unicode="&#x4d6;" 
d="M419 718q-53 0 -94 23.5t-63 64.5l76 55q27 -58 96 -58q68 0 123 58l56 -55q-85 -88 -194 -88zM6 0l147 667h489l-32 -145h-317l-24 -111h309l-32 -146h-309l-27 -120h317l-32 -145h-489z" />
    <glyph glyph-name="uni04D7" unicode="&#x4d7;" horiz-adv-x="548" 
d="M357 545q-55 0 -101 24.5t-75 67.5l87 67q13 -25 40 -41t59 -16q63 0 114 57l65 -72q-78 -87 -189 -87zM21 207q0 119 80.5 203.5t202.5 84.5q95 0 158.5 -58t63.5 -160q0 -41 -10 -84h-342v-6q0 -24 31.5 -52t84.5 -28q72 0 113 30l47 -102q-69 -47 -172 -47
q-117 0 -187 58t-70 161zM389 293q1 2 1 7q0 28 -23.5 52t-69.5 24q-41 0 -71 -26t-37 -57h200z" />
    <glyph glyph-name="uni04D8" unicode="&#x4d8;" horiz-adv-x="742" 
d="M407 678q144 0 240.5 -83t96.5 -219q0 -172 -114.5 -280t-279.5 -108q-69 0 -132 26t-110 76.5t-65 125t2 171.5h520q-8 61 -53.5 100t-114.5 39q-41 0 -82.5 -21.5t-63.5 -55.5l-134 88q55 75 133.5 108t156.5 33zM358 140q57 0 104 29.5t75 79.5h-328q11 -46 53 -77.5
t96 -31.5z" />
    <glyph glyph-name="uni04D9" unicode="&#x4d9;" horiz-adv-x="548" 
d="M526 276q0 -119 -80.5 -203.5t-202.5 -84.5q-95 0 -158 58t-63 160q0 50 10 84h341l1 6q0 24 -31.5 52t-84.5 28q-72 0 -113 -30l-48 102q70 47 172 47q117 0 187 -58t70 -161zM158 190v-7q0 -28 23.5 -52t68.5 -24q41 0 71 26t38 57h-201z" />
    <glyph glyph-name="uni04DA" unicode="&#x4da;" horiz-adv-x="742" 
d="M335 711q-29 0 -49.5 20t-20.5 49q0 34 27.5 61t61.5 27q30 0 50 -20t20 -50q0 -34 -27 -60.5t-62 -26.5zM549 711q-30 0 -50 20t-20 49q0 34 27 61t62 27q30 0 49.5 -20t19.5 -50q0 -34 -26.5 -60.5t-61.5 -26.5zM407 678q144 0 240.5 -83t96.5 -219q0 -172 -114.5 -280
t-279.5 -108q-69 0 -132 26t-110 76.5t-65 125t2 171.5h520q-8 61 -53.5 100t-114.5 39q-41 0 -82.5 -21.5t-63.5 -55.5l-134 88q55 75 133.5 108t156.5 33zM358 140q57 0 104 29.5t75 79.5h-328q11 -46 53 -77.5t96 -31.5z" />
    <glyph glyph-name="uni04DB" unicode="&#x4db;" horiz-adv-x="548" 
d="M240 544q-29 0 -49.5 20t-20.5 49q0 34 27.5 61t61.5 27q30 0 50 -20t20 -50q0 -34 -27 -60.5t-62 -26.5zM454 544q-30 0 -50 20t-20 49q0 34 27 61t62 27q30 0 49.5 -20t19.5 -50q0 -34 -26.5 -60.5t-61.5 -26.5zM526 276q0 -119 -80.5 -203.5t-202.5 -84.5
q-95 0 -158 58t-63 160q0 50 10 84h341l1 6q0 24 -31.5 52t-84.5 28q-72 0 -113 -30l-48 102q70 47 172 47q117 0 187 -58t70 -161zM158 190v-7q0 -28 23.5 -52t68.5 -24q41 0 71 26t38 57h-201z" />
    <glyph glyph-name="uni04DC" unicode="&#x4dc;" horiz-adv-x="971" 
d="M494 711q-29 0 -49.5 20t-20.5 49q0 34 27.5 61t61.5 27q30 0 50 -20t20 -50q0 -34 -27 -60.5t-62 -26.5zM708 711q-30 0 -50 20t-20 49q0 34 27 61t62 27q30 0 49.5 -20t19.5 -50q0 -34 -26.5 -60.5t-61.5 -26.5zM1058 667l-297 -340l166 -327h-194l-121 276h-34
l-60 -276h-172l60 276h-36l-220 -276h-213l319 367l-159 300h190l116 -257h33l56 257h172l-56 -257h36l204 257h210z" />
    <glyph glyph-name="uni04DD" unicode="&#x4dd;" horiz-adv-x="772" 
d="M357 544q-29 0 -49.5 20t-20.5 49q0 34 27.5 61t61.5 27q30 0 50 -20t20 -50q0 -34 -27 -60.5t-62 -26.5zM571 544q-30 0 -50 20t-20 49q0 34 27 61t62 27q30 0 49.5 -20t19.5 -50q0 -34 -26.5 -60.5t-61.5 -26.5zM821 483l-200 -256l103 -227h-171l-73 193h-29l-42 -193
h-154l42 193h-30l-136 -193h-191l213 272l-98 211h166l71 -190h27l42 190h154l-42 -190h29l133 190h186z" />
    <glyph glyph-name="uni04DE" unicode="&#x4de;" horiz-adv-x="624" 
d="M295 711q-29 0 -49.5 20t-20.5 49q0 34 27.5 61t61.5 27q30 0 50 -20t20 -50q0 -34 -27 -60.5t-62 -26.5zM509 711q-30 0 -50 20t-20 49q0 34 27 61t62 27q30 0 49.5 -20t19.5 -50q0 -34 -26.5 -60.5t-61.5 -26.5zM-12 127l108 102q32 -45 92.5 -69.5t114.5 -24.5
q51 0 79.5 21.5t28.5 52.5q0 55 -117 55h-122l33 145h128q124 0 124 59q0 29 -33 45.5t-96 16.5q-96 0 -169 -50l-57 113q43 38 108 61t135 23q131 0 210.5 -47.5t79.5 -129.5q0 -60 -55.5 -106t-124.5 -56q125 -30 125 -148q0 -87 -81.5 -144.5t-192.5 -57.5
q-102 0 -190 36.5t-128 102.5z" />
    <glyph glyph-name="uni04DF" unicode="&#x4df;" horiz-adv-x="496" 
d="M212 544q-29 0 -49.5 20t-20.5 49q0 34 27.5 61t61.5 27q30 0 50 -20t20 -50q0 -34 -27 -60.5t-62 -26.5zM426 544q-30 0 -50 20t-20 49q0 34 27 61t62 27q30 0 49.5 -20t19.5 -50q0 -34 -26.5 -60.5t-61.5 -26.5zM220 -12q-81 0 -146.5 30t-97.5 71l90 84
q57 -67 155 -67q71 0 71 44q0 42 -72 42h-88l24 103h87q81 0 81 40q0 19 -21 30.5t-60 11.5q-74 0 -130 -38l-55 91q81 62 203 64q115 1 171.5 -40t56.5 -94q0 -55 -44.5 -86.5t-102.5 -36.5q44 -7 75 -36.5t31 -66.5q0 -62 -52 -104t-176 -42z" />
    <glyph glyph-name="uni04E0" unicode="&#x4e0;" horiz-adv-x="624" 
d="M648 667l-27 -119l-203 -167q81 -17 124 -61.5t43 -108.5q0 -102 -82.5 -162.5t-196.5 -60.5q-102 0 -190 36.5t-128 102.5l108 102q32 -45 92.5 -69.5t114.5 -24.5q51 0 79.5 21.5t28.5 52.5q0 55 -118 55h-122l24 106l181 147h-268l34 150h506z" />
    <glyph glyph-name="uni04E1" unicode="&#x4e1;" horiz-adv-x="457" 
d="M482 483l-25 -109l-176 -178q66 -22 94 -84.5t12 -134.5q-17 -75 -79 -124t-152 -49q-85 0 -146 31t-93 82l100 96q47 -73 129 -73q35 0 58 17.5t29 45.5q10 44 -15.5 71.5t-81.5 27.5h-51l19 86l159 161h-225l30 134h414z" />
    <glyph glyph-name="uni04E2" unicode="&#x4e2;" horiz-adv-x="740" 
d="M303 723l23 101h349l-23 -101h-349zM6 0l147 667h172l-86 -395l356 395h178l-147 -667h-173l92 414l-373 -414h-166z" />
    <glyph glyph-name="uni04E3" unicode="&#x4e3;" horiz-adv-x="593" 
d="M192 556l23 101h349l-23 -101h-349zM2 0l106 483h154l-60 -270l232 270h155l-106 -483h-154l62 282l-242 -282h-147z" />
    <glyph glyph-name="uni04E4" unicode="&#x4e4;" horiz-adv-x="740" 
d="M378 711q-29 0 -49.5 20t-20.5 49q0 34 27.5 61t61.5 27q30 0 50 -20t20 -50q0 -34 -27 -60.5t-62 -26.5zM592 711q-30 0 -50 20t-20 49q0 34 27 61t62 27q30 0 49.5 -20t19.5 -50q0 -34 -26.5 -60.5t-61.5 -26.5zM6 0l147 667h172l-86 -395l356 395h178l-147 -667h-173
l92 414l-373 -414h-166z" />
    <glyph glyph-name="uni04E5" unicode="&#x4e5;" horiz-adv-x="593" 
d="M267 544q-29 0 -49.5 20t-20.5 49q0 34 27.5 61t61.5 27q30 0 50 -20t20 -50q0 -34 -27 -60.5t-62 -26.5zM481 544q-30 0 -50 20t-20 49q0 34 27 61t62 27q30 0 49.5 -20t19.5 -50q0 -34 -26.5 -60.5t-61.5 -26.5zM2 0l106 483h154l-60 -270l232 270h155l-106 -483h-154
l62 282l-242 -282h-147z" />
    <glyph glyph-name="uni04E6" unicode="&#x4e6;" horiz-adv-x="766" 
d="M389 711q-29 0 -49.5 20t-20.5 49q0 34 27.5 61t61.5 27q30 0 50 -20t20 -50q0 -34 -27 -60.5t-62 -26.5zM603 711q-30 0 -50 20t-20 49q0 34 27 61t62 27q30 0 49.5 -20t19.5 -50q0 -34 -26.5 -60.5t-61.5 -26.5zM36 291q0 162 113 274.5t281 112.5q145 0 241.5 -83.5
t96.5 -217.5q0 -163 -113 -276t-281 -113q-146 0 -242 84t-96 219zM589 364q0 72 -47 117t-122 45q-87 0 -146 -65.5t-59 -158.5q0 -72 47 -117t122 -45q87 0 146 65.5t59 158.5z" />
    <glyph glyph-name="uni04E7" unicode="&#x4e7;" horiz-adv-x="576" 
d="M257 544q-29 0 -49.5 20t-20.5 49q0 34 27.5 61t61.5 27q30 0 50 -20t20 -50q0 -34 -27 -60.5t-62 -26.5zM471 544q-30 0 -50 20t-20 49q0 34 27 61t62 27q30 0 49.5 -20t19.5 -50q0 -34 -26.5 -60.5t-61.5 -26.5zM20 210q0 115 81 200t203 85q118 0 183.5 -62.5
t65.5 -160.5q0 -115 -81 -199.5t-203 -84.5q-118 0 -183.5 62.5t-65.5 159.5zM396 265q0 44 -26 69t-71 25q-53 0 -87 -42t-34 -99q0 -44 26 -69t71 -25q52 0 86.5 42t34.5 99z" />
    <glyph glyph-name="uni04E8" unicode="&#x4e8;" horiz-adv-x="766" 
d="M430 678q145 0 241.5 -83.5t96.5 -217.5q0 -163 -113 -276t-281 -113q-146 0 -242 84t-96 219q0 162 113 274.5t281 112.5zM420 532q-60 0 -108 -32.5t-74 -88.5h346q-13 57 -57 89t-107 32zM384 134q63 0 112.5 35.5t73.5 95.5h-352q11 -61 55.5 -96t110.5 -35z" />
    <glyph glyph-name="uni04E9" unicode="&#x4e9;" horiz-adv-x="576" 
d="M304 495q118 0 183.5 -62.5t65.5 -160.5q0 -115 -81 -199.5t-203 -84.5q-118 0 -183.5 62.5t-65.5 159.5q0 115 81 200t203 85zM299 374q-35 0 -62.5 -22t-43.5 -59h201q-6 38 -31 59.5t-64 21.5zM275 110q72 0 107 83h-203q13 -83 96 -83z" />
    <glyph glyph-name="uni04EA" unicode="&#x4ea;" horiz-adv-x="766" 
d="M389 711q-29 0 -49.5 20t-20.5 49q0 34 27.5 61t61.5 27q30 0 50 -20t20 -50q0 -34 -27 -60.5t-62 -26.5zM603 711q-30 0 -50 20t-20 49q0 34 27 61t62 27q30 0 49.5 -20t19.5 -50q0 -34 -26.5 -60.5t-61.5 -26.5zM430 678q145 0 241.5 -83.5t96.5 -217.5
q0 -163 -113 -276t-281 -113q-146 0 -242 84t-96 219q0 162 113 274.5t281 112.5zM420 532q-60 0 -108 -32.5t-74 -88.5h346q-13 57 -57 89t-107 32zM384 134q63 0 112.5 35.5t73.5 95.5h-352q11 -61 55.5 -96t110.5 -35z" />
    <glyph glyph-name="uni04EB" unicode="&#x4eb;" horiz-adv-x="576" 
d="M257 544q-29 0 -49.5 20t-20.5 49q0 34 27.5 61t61.5 27q30 0 50 -20t20 -50q0 -34 -27 -60.5t-62 -26.5zM471 544q-30 0 -50 20t-20 49q0 34 27 61t62 27q30 0 49.5 -20t19.5 -50q0 -34 -26.5 -60.5t-61.5 -26.5zM304 495q118 0 183.5 -62.5t65.5 -160.5
q0 -115 -81 -199.5t-203 -84.5q-118 0 -183.5 62.5t-65.5 159.5q0 115 81 200t203 85zM299 374q-35 0 -62.5 -22t-43.5 -59h201q-6 38 -31 59.5t-64 21.5zM275 110q72 0 107 83h-203q13 -83 96 -83z" />
    <glyph glyph-name="uni04EC" unicode="&#x4ec;" horiz-adv-x="692" 
d="M307 711q-29 0 -49.5 20t-20.5 49q0 34 27.5 61t61.5 27q30 0 50 -20t20 -50q0 -34 -27 -60.5t-62 -26.5zM521 711q-30 0 -50 20t-20 49q0 34 27 61t62 27q30 0 49.5 -20t19.5 -50q0 -34 -26.5 -60.5t-61.5 -26.5zM356 678q144 0 241 -83t97 -219q0 -172 -117 -282
q-114 -106 -278 -106q-125 0 -201.5 58.5t-106.5 146.5l166 54q14 -50 54.5 -78.5t95.5 -28.5q63 0 114 38q48 34 70 87h-275l32 146h258q-7 22 -21 41q-43 74 -139 74q-41 0 -82 -21.5t-64 -55.5l-133 88q54 75 132.5 108t156.5 33z" />
    <glyph glyph-name="uni04ED" unicode="&#x4ed;" horiz-adv-x="505" 
d="M183 544q-29 0 -49.5 20t-20.5 49q0 34 27.5 61t61.5 27q30 0 50 -20t20 -50q0 -34 -27 -60.5t-62 -26.5zM397 544q-30 0 -50 20t-20 49q0 34 27 61t62 27q30 0 49.5 -20t19.5 -50q0 -34 -26.5 -60.5t-61.5 -26.5zM233 495q115 0 182.5 -61.5t67.5 -160.5
q0 -119 -82.5 -202t-203.5 -83q-72 0 -129.5 25t-88.5 65l85 87q41 -57 124 -57q44 0 78 22.5t52 59.5h-199l24 106h187q-18 80 -120 80q-60 0 -102 -27l-47 102q69 44 172 44z" />
    <glyph glyph-name="uni04EE" unicode="&#x4ee;" horiz-adv-x="655" 
d="M629 824l-23 -101h-349l23 101h349zM560 667h198l-362 -536q-96 -143 -263 -143q-55 0 -88 13l66 148q15 -9 40 -9q30 0 50 11.5t40 37.5l-160 478h189l94 -312z" />
    <glyph glyph-name="uni04EF" unicode="&#x4ef;" horiz-adv-x="524" 
d="M157 556l23 101h349l-23 -101h-349zM1 -52q17 -7 50 -7q37 0 55 26l19 31l-82 485h158l40 -306l179 306h167l-341 -552q-43 -70 -90 -98.5t-115 -28.5q-51 0 -89 12z" />
    <glyph glyph-name="uni04F0" unicode="&#x4f0;" horiz-adv-x="655" 
d="M332 711q-29 0 -49.5 20t-20.5 49q0 34 27.5 61t61.5 27q30 0 50 -20t20 -50q0 -34 -27 -60.5t-62 -26.5zM546 711q-30 0 -50 20t-20 49q0 34 27 61t62 27q30 0 49.5 -20t19.5 -50q0 -34 -26.5 -60.5t-61.5 -26.5zM560 667h198l-362 -536q-96 -143 -263 -143
q-55 0 -88 13l66 148q15 -9 40 -9q30 0 50 11.5t40 37.5l-160 478h189l94 -312z" />
    <glyph glyph-name="uni04F1" unicode="&#x4f1;" horiz-adv-x="524" 
d="M232 544q-29 0 -49.5 20t-20.5 49q0 34 27.5 61t61.5 27q30 0 50 -20t20 -50q0 -34 -27 -60.5t-62 -26.5zM446 544q-30 0 -50 20t-20 49q0 34 27 61t62 27q30 0 49.5 -20t19.5 -50q0 -34 -26.5 -60.5t-61.5 -26.5zM1 -52q17 -7 50 -7q37 0 55 26l19 31l-82 485h158
l40 -306l179 306h167l-341 -552q-43 -70 -90 -98.5t-115 -28.5q-51 0 -89 12z" />
    <glyph glyph-name="uni04F2" unicode="&#x4f2;" horiz-adv-x="655" 
d="M547 867l-147 -144h-106l115 144h138zM565 723h-106l116 144h137zM560 667h198l-362 -536q-96 -143 -263 -143q-55 0 -88 13l66 148q15 -9 40 -9q30 0 50 11.5t40 37.5l-160 478h189l94 -312z" />
    <glyph glyph-name="uni04F3" unicode="&#x4f3;" horiz-adv-x="524" 
d="M300 556h-106l115 144h138zM465 556h-106l116 144h137zM1 -52q17 -7 50 -7q37 0 55 26l19 31l-82 485h158l40 -306l179 306h167l-341 -552q-43 -70 -90 -98.5t-115 -28.5q-51 0 -89 12z" />
    <glyph glyph-name="uni04F4" unicode="&#x4f4;" horiz-adv-x="670" 
d="M332 711q-29 0 -49.5 20t-20.5 49q0 34 27.5 61t61.5 27q30 0 50 -20t20 -50q0 -34 -27 -60.5t-62 -26.5zM546 711q-30 0 -50 20t-20 49q0 34 27 61t62 27q30 0 49.5 -20t19.5 -50q0 -34 -26.5 -60.5t-61.5 -26.5zM266 466q-12 -54 17 -79t87 -25q50 0 97 19l63 286h172
l-146 -667h-172l53 243q-57 -31 -139 -31q-123 0 -177 67t-24 205l40 183h172z" />
    <glyph glyph-name="uni04F5" unicode="&#x4f5;" horiz-adv-x="581" 
d="M255 544q-29 0 -49.5 20t-20.5 49q0 34 27.5 61t61.5 27q30 0 50 -20t20 -50q0 -34 -27 -60.5t-62 -26.5zM469 544q-30 0 -50 20t-20 49q0 34 27 61t62 27q30 0 49.5 -20t19.5 -50q0 -34 -26.5 -60.5t-61.5 -26.5zM252 483l-26 -115q-21 -92 83 -92q32 0 72 14l44 193
h153l-108 -483h-153l37 166q-64 -26 -126 -26q-207 0 -159 214l29 129h154z" />
    <glyph glyph-name="uni04F6" unicode="&#x4f6;" horiz-adv-x="582" 
d="M153 667h489l-34 -150h-316l-80 -367h79l-60 -273h-151l27 123h-101z" />
    <glyph glyph-name="uni04F7" unicode="&#x4f7;" horiz-adv-x="455" 
d="M108 483h383l-30 -134h-229l-47 -215h54l-57 -257h-134l27 123h-73z" />
    <glyph glyph-name="uni04F8" unicode="&#x4f8;" horiz-adv-x="907" 
d="M459 711q-29 0 -49.5 20t-20.5 49q0 34 27.5 61t61.5 27q30 0 50 -20t20 -50q0 -34 -27 -60.5t-62 -26.5zM673 711q-30 0 -50 20t-20 49q0 34 27 61t62 27q30 0 49.5 -20t19.5 -50q0 -34 -26.5 -60.5t-61.5 -26.5zM324 667l-49 -224h151q86 0 141 -55.5t55 -135.5
q0 -40 -14.5 -81t-45 -81t-89 -65t-136.5 -25h-331l146 667h172zM621 0l146 667h172l-146 -667h-172zM242 293l-31 -143h135q42 0 70 23.5t28 60.5q0 27 -18.5 43t-50.5 16h-133z" />
    <glyph glyph-name="uni04F9" unicode="&#x4f9;" horiz-adv-x="807" 
d="M373 544q-29 0 -49.5 20t-20.5 49q0 34 27.5 61t61.5 27q30 0 50 -20t20 -50q0 -34 -27 -60.5t-62 -26.5zM587 544q-30 0 -50 20t-20 49q0 34 27 61t62 27q30 0 49.5 -20t19.5 -50q0 -34 -26.5 -60.5t-61.5 -26.5zM262 483l-31 -138h125q81 0 127.5 -42.5t46.5 -111.5
q0 -77 -54 -134t-140 -57h-334l106 483h154zM543 0l106 483h154l-106 -483h-154zM204 221l-21 -97h130q27 0 43.5 15.5t16.5 38.5q0 43 -49 43h-120z" />
    <glyph glyph-name="uni04FA" unicode="&#x4fa;" horiz-adv-x="582" 
d="M609 517h-316l-26 -119h162l-29 -133h-162l-52 -235q-50 -226 -286 -226q-49 0 -87 11l53 137q18 -5 53 -5q75 0 94 80l52 238h-52l30 133h52l59 269h489z" />
    <glyph glyph-name="uni04FB" unicode="&#x4fb;" horiz-adv-x="455" 
d="M463 349h-229l-14 -62h110l-23 -99h-109l-41 -184q-43 -200 -202 -200q-45 0 -80 9l30 124q12 -4 29 -4q53 0 69 71l41 184h-49l23 99h49l43 196h383z" />
    <glyph glyph-name="uni04FC" unicode="&#x4fc;" horiz-adv-x="676" 
d="M557 153q45 -93 26 -175q-17 -79 -81.5 -126.5t-157.5 -47.5q-75 0 -111 21l49 130q26 -8 52 -8q29 0 49.5 16.5t25.5 40.5q8 38 -12 83l-62 127l-187 -214h-213l315 352l-153 315h194l92 -200l168 200h213l-295 -335z" />
    <glyph glyph-name="uni04FD" unicode="&#x4fd;" horiz-adv-x="512" 
d="M412 118q34 -79 16 -158q-15 -67 -63 -111.5t-126 -44.5q-45 0 -79 9l30 124q12 -4 29 -4q49 0 63 53q10 35 -9 79l-34 81l-126 -146h-173l219 248l-102 235h165l53 -131l111 131h174l-207 -235z" />
    <glyph glyph-name="uni04FE" unicode="&#x4fe;" horiz-adv-x="676" 
d="M647 410l-30 -134h-121l136 -276h-194l-103 214l-187 -214h-213l247 276h-108l30 134h118l-125 257h194l92 -200l168 200h213l-226 -257h109z" />
    <glyph glyph-name="uni04FF" unicode="&#x4ff;" horiz-adv-x="512" 
d="M468 295l-21 -95h-73l90 -200h-164l-61 146l-126 -146h-173l177 200h-71l22 95h71l-82 188h165l53 -131l111 131h174l-166 -188h74z" />
    <glyph glyph-name="uni0510" unicode="&#x510;" horiz-adv-x="624" 
d="M330 -12q-162 0 -242 67t-58 168q14 61 64 96t122 38q-63 16 -92 61.5t-16 107.5q14 66 80.5 108.5t171.5 42.5q191 0 293 -125l-101 -100q-70 78 -188 78q-85 0 -95 -51q-8 -33 19 -51.5t84 -18.5h122l-32 -145h-170q-82 0 -92 -47q-8 -37 26 -59.5t97 -22.5
q114 0 188 49l61 -120q-98 -76 -242 -76z" />
    <glyph glyph-name="uni0511" unicode="&#x511;" horiz-adv-x="496" 
d="M242 -12q-122 0 -187 48.5t-55 114.5q7 49 51.5 77t102.5 28q-47 14 -73.5 46.5t-21.5 72.5q11 53 65 86.5t152 32.5q79 -1 139.5 -30t91.5 -70l-87 -82q-52 65 -143 65q-28 0 -47 -11.5t-19 -31.5q0 -39 66 -39h84l-24 -103h-94q-82 0 -82 -41q0 -19 21 -32t62 -13
q83 0 146 36l51 -98q-76 -56 -199 -56z" />
    <glyph glyph-name="uni0512" unicode="&#x512;" horiz-adv-x="741" 
d="M276 667h497l-136 -623q-28 -124 -91.5 -182t-169.5 -58q-75 0 -111 21l49 130q26 -8 52 -8q34 0 60.5 22t35.5 62l106 486h-183l-22 -74q-35 -116 -74 -200t-75.5 -132.5t-80 -76.5t-81.5 -37t-86 -9l36 162q27 0 49 11t50 43t58 102t62 176z" />
    <glyph glyph-name="uni0513" unicode="&#x513;" horiz-adv-x="593" 
d="M180 483h411l-107 -479q-44 -200 -202 -200q-46 0 -80 9l30 124q12 -4 29 -4q53 0 69 71l77 345h-131l-11 -35q-55 -179 -124.5 -252.5t-177.5 -73.5l31 146q17 0 31.5 7.5t34 30.5t42 74t46.5 129z" />
    <glyph glyph-name="uni051C" unicode="&#x51c;" horiz-adv-x="936" 
d="M515 0l-9 418l-193 -418h-182l-44 667h189l3 -445l212 445h131l16 -445l199 445h198l-338 -667h-182z" />
    <glyph glyph-name="uni051D" unicode="&#x51d;" horiz-adv-x="787" 
d="M430 0l-25 299l-156 -299h-166l-36 483h154l11 -296l162 296h137l29 -296l143 296h163l-250 -483h-166z" />
    <glyph glyph-name="uni0524" unicode="&#x524;" horiz-adv-x="775" 
d="M774 667l-113 -517h79l-60 -273h-151l27 123h-101l114 517h-277l-114 -517h-172l147 667h621z" />
    <glyph glyph-name="uni0525" unicode="&#x525;" horiz-adv-x="608" 
d="M593 483l-79 -349h52l-57 -257h-134l27 123h-73l80 349h-174l-79 -349h-154l110 483h481z" />
    <glyph glyph-name="uni0526" unicode="&#x526;" horiz-adv-x="719" 
d="M605 151h79l-61 -273h-150l27 122h-101l44 201q12 54 -17 79t-87 25q-49 0 -97 -19l-64 -286h-172l148 667h172l-54 -243q57 31 138 31q123 0 177.5 -67t24.5 -205z" />
    <glyph glyph-name="uni0527" unicode="&#x527;" horiz-adv-x="609" 
d="M510 -123h-134l27 123h-73l59 274q5 23 5 32q0 27 -19 40t-47 13q-56 0 -103 -47l-68 -312h-154l147 667h154l-55 -243q77 71 157 71q72 0 113.5 -34.5t41.5 -90.5q0 -15 -5 -40l-43 -196h54z" />
    <glyph glyph-name="uni052E" unicode="&#x52e;" horiz-adv-x="775" 
d="M773 667l-112 -517h79l-60 -273h-151l27 123h-101l113 517h-183l-22 -74q-35 -116 -73.5 -200t-75 -132.5t-80 -76.5t-81.5 -37t-87 -9l36 162q27 0 49 11t50 43t58 102t62 176l55 185h497z" />
    <glyph glyph-name="uni052F" unicode="&#x52f;" horiz-adv-x="608" 
d="M589 483l-77 -349h54l-57 -257h-134l27 123h-73l76 349h-129l-11 -35q-55 -179 -124.5 -252.5t-177.5 -73.5l31 146q17 0 31.5 7.5t34 30.5t42 74t46.5 129l32 108h409z" />
    <glyph glyph-name="uni1E02" unicode="&#x1e02;" horiz-adv-x="680" 
d="M452 711q-30 0 -50 19.5t-20 49.5q0 34 27 61t62 27q30 0 50 -20.5t20 -49.5q0 -34 -27 -60.5t-62 -26.5zM6 0l147 667h348q89 0 138 -48t49 -115q0 -65 -45.5 -116t-105.5 -56q45 -12 70 -50t25 -83q0 -36 -13 -70t-39.5 -63.5t-73.5 -47.5t-109 -18h-391zM504 475
q0 20 -14.5 34.5t-39.5 14.5h-156l-26 -115h164q38 0 55 19.5t17 46.5zM460 212q0 24 -15.5 39.5t-41.5 15.5h-166l-28 -124h170q37 0 59 20t22 49z" />
    <glyph glyph-name="uni1E03" unicode="&#x1e03;" horiz-adv-x="591" 
d="M412 711q-30 0 -50 19.5t-20 49.5q0 34 27 61t62 27q30 0 50 -20.5t20 -49.5q0 -34 -27 -60.5t-62 -26.5zM168 57l-12 -57h-154l147 667h154l-53 -240q60 68 138 68q83 0 132.5 -53t49.5 -148q0 -73 -27.5 -141t-87.5 -116.5t-140 -48.5q-98 0 -147 69zM411 262
q0 43 -27 70t-67 27q-50 0 -92 -45l-32 -146q34 -44 96 -44q52 0 87 40.5t35 97.5z" />
    <glyph glyph-name="uni1E0A" unicode="&#x1e0a;" horiz-adv-x="727" 
d="M474 711q-30 0 -50 19.5t-20 49.5q0 34 27 61t62 27q30 0 50 -20.5t20 -49.5q0 -34 -27 -60.5t-62 -26.5zM428 667q117 0 206.5 -81t89.5 -206q0 -54 -14 -105.5t-47 -102t-82 -88.5t-125.5 -61t-170.5 -23h-279l147 667h275zM317 150q104 0 166.5 63t62.5 155
q0 63 -42 106t-107 43h-105l-81 -367h106z" />
    <glyph glyph-name="uni1E0B" unicode="&#x1e0b;" horiz-adv-x="591" 
d="M409 711q-30 0 -50 19.5t-20 49.5q0 34 27 61t62 27q30 0 50 -20.5t20 -49.5q0 -34 -27 -60.5t-62 -26.5zM421 426l54 241h153l-148 -667h-153l12 56q-59 -68 -138 -68q-83 0 -132 52.5t-49 147.5q0 73 27.5 141.5t87 117t139.5 48.5q99 0 147 -69zM179 220
q0 -43 27 -69.5t67 -26.5q53 0 91 45l33 146q-34 44 -96 44q-53 0 -87.5 -40.5t-34.5 -98.5z" />
    <glyph glyph-name="uni1E1E" unicode="&#x1e1e;" horiz-adv-x="582" 
d="M418 711q-30 0 -50 19.5t-20 49.5q0 34 27 61t62 27q30 0 50 -20.5t20 -49.5q0 -34 -27 -60.5t-62 -26.5zM6 0l147 667h489l-32 -145h-317l-24 -111h309l-32 -146h-309l-59 -265h-172z" />
    <glyph glyph-name="uni1E1F" unicode="&#x1e1f;" horiz-adv-x="349" 
d="M347 711q-30 0 -50 19.5t-20 49.5q0 34 27 61t62 27q30 0 50 -20.5t20 -49.5q0 -34 -27 -60.5t-62 -26.5zM35 0l77 349h-80l30 134h79l6 26q18 76 68 122t126 46q70 0 114 -27l-51 -102q-17 12 -43 12q-48 0 -60 -51l-6 -26h99l-30 -134h-98l-77 -349h-154z" />
    <glyph glyph-name="uni1E22" unicode="&#x1e22;" horiz-adv-x="741" 
d="M482 711q-30 0 -50 19.5t-20 49.5q0 34 27 61t62 27q30 0 50 -20.5t20 -49.5q0 -34 -27 -60.5t-62 -26.5zM455 0l59 268h-277l-59 -268h-172l147 667h172l-55 -249h277l55 249h172l-147 -667h-172z" />
    <glyph glyph-name="uni1E23" unicode="&#x1e23;" horiz-adv-x="594" 
d="M407 711q-30 0 -50 19.5t-20 49.5q0 34 27 61t62 27q30 0 50 -20.5t20 -49.5q0 -34 -27 -60.5t-62 -26.5zM330 0l59 274q5 23 5 32q0 27 -19 40t-47 13q-56 0 -103 -47l-68 -312h-154l147 667h154l-55 -243q77 71 157 71q72 0 113.5 -34.5t41.5 -90.5q0 -15 -5 -40
l-72 -330h-154z" />
    <glyph glyph-name="uni1E56" unicode="&#x1e56;" horiz-adv-x="643" 
d="M445 711q-30 0 -50 19.5t-20 49.5q0 34 27 61t62 27q30 0 50 -20.5t20 -49.5q0 -34 -27 -60.5t-62 -26.5zM6 0l147 667h312q94 0 150.5 -55t56.5 -136q0 -41 -14.5 -82t-45 -81.5t-89.5 -66t-137 -25.5h-159l-49 -221h-172zM393 372q46 0 73.5 24t27.5 62q0 29 -20 46.5
t-53 17.5h-128l-33 -150h133z" />
    <glyph glyph-name="uni1E57" unicode="&#x1e57;" 
d="M401 544q-30 0 -50 19.5t-20 49.5q0 34 27 61t62 27q30 0 50 -20.5t20 -49.5q0 -34 -27 -60.5t-62 -26.5zM168 57l-53 -241h-154l148 667h154l-13 -56q60 68 138 68q83 0 132.5 -53t49.5 -148q0 -73 -27.5 -141t-87.5 -116.5t-140 -48.5q-98 0 -147 69zM411 262
q0 43 -27 70t-67 27q-50 0 -92 -45l-32 -146q34 -44 96 -44q52 0 87 40.5t35 97.5z" />
    <glyph glyph-name="uni1E60" unicode="&#x1e60;" horiz-adv-x="606" 
d="M408 711q-30 0 -50 19.5t-20 49.5q0 34 27 61t62 27q30 0 50 -20.5t20 -49.5q0 -34 -27 -60.5t-62 -26.5zM-10 115l103 121q36 -46 98 -73.5t129 -27.5q40 0 59.5 16.5t19.5 38.5t-24.5 37t-75.5 33q-37 13 -59.5 21.5t-57 27.5t-53.5 38.5t-34 51t-15 68.5
q0 79 73 144.5t197 65.5q82 0 155.5 -28.5t123.5 -81.5l-103 -118q-35 40 -90 61.5t-106 21.5q-33 0 -52.5 -15t-19.5 -36q0 -20 24.5 -34.5t74.5 -32.5q45 -15 76.5 -28.5t68.5 -37.5t57 -58t20 -77q0 -94 -74 -159.5t-197 -65.5q-101 0 -186 34.5t-132 92.5z" />
    <glyph glyph-name="uni1E61" unicode="&#x1e61;" horiz-adv-x="484" 
d="M315 544q-30 0 -50 19.5t-20 49.5q0 34 27 61t62 27q30 0 50 -20.5t20 -49.5q0 -34 -27 -60.5t-62 -26.5zM-14 76l79 97q25 -27 75.5 -50t98.5 -23q23 0 37 10.5t14 26.5q0 25 -80 50q-26 8 -43.5 14.5t-42 19t-39 26t-25 34t-10.5 44.5q0 70 55.5 120t151.5 50
q61 0 118 -20.5t97 -57.5l-73 -94q-20 22 -60.5 40.5t-81.5 18.5q-26 0 -40 -9.5t-14 -24.5q0 -22 73 -44q29 -9 45.5 -14.5t43 -18t41.5 -26t26.5 -35.5t11.5 -48q0 -75 -59.5 -124.5t-159.5 -49.5q-68 0 -131.5 23t-107.5 65z" />
    <glyph glyph-name="uni1E6A" unicode="&#x1e6a;" 
d="M406 711q-30 0 -50 19.5t-20 49.5q0 34 27 61t62 27q30 0 50 -20.5t20 -49.5q0 -34 -27 -60.5t-62 -26.5zM155 0l113 517h-187l34 150h545l-33 -150h-187l-113 -517h-172z" />
    <glyph glyph-name="uni1E6B" unicode="&#x1e6b;" horiz-adv-x="360" 
d="M278 711q-30 0 -50 19.5t-20 49.5q0 34 27 61t62 27q30 0 50 -20.5t20 -49.5q0 -34 -27 -60.5t-62 -26.5zM61 102q0 15 3 35l47 213h-80l30 133h80l29 132h154l-29 -132h98l-30 -133h-98l-36 -164q-3 -12 -3 -22q0 -40 46 -40q20 0 30 8l2 -123q-27 -21 -83 -21
q-73 0 -116.5 28.5t-43.5 85.5z" />
    <glyph glyph-name="Wgrave" unicode="&#x1e80;" horiz-adv-x="936" 
d="M522 723l-127 144h136l95 -144h-104zM515 0l-9 418l-193 -418h-182l-44 667h189l3 -445l212 445h131l16 -445l199 445h198l-338 -667h-182z" />
    <glyph glyph-name="wgrave" unicode="&#x1e81;" horiz-adv-x="787" 
d="M402 556l-127 144h136l95 -144h-104zM430 0l-25 299l-156 -299h-166l-36 483h154l11 -296l162 296h137l29 -296l143 296h163l-250 -483h-166z" />
    <glyph glyph-name="Wacute" unicode="&#x1e82;" horiz-adv-x="936" 
d="M623 723h-106l159 144h138zM515 0l-9 418l-193 -418h-182l-44 667h189l3 -445l212 445h131l16 -445l199 445h198l-338 -667h-182z" />
    <glyph glyph-name="wacute" unicode="&#x1e83;" horiz-adv-x="787" 
d="M503 556h-106l159 144h138zM430 0l-25 299l-156 -299h-166l-36 483h154l11 -296l162 296h137l29 -296l143 296h163l-250 -483h-166z" />
    <glyph glyph-name="Wdieresis" unicode="&#x1e84;" horiz-adv-x="936" 
d="M474 711q-29 0 -49.5 20t-20.5 49q0 34 27.5 61t61.5 27q30 0 50 -20t20 -50q0 -34 -27 -60.5t-62 -26.5zM688 711q-30 0 -50 20t-20 49q0 34 27 61t62 27q30 0 49.5 -20t19.5 -50q0 -34 -26.5 -60.5t-61.5 -26.5zM515 0l-9 418l-193 -418h-182l-44 667h189l3 -445
l212 445h131l16 -445l199 445h198l-338 -667h-182z" />
    <glyph glyph-name="wdieresis" unicode="&#x1e85;" horiz-adv-x="787" 
d="M354 544q-29 0 -49.5 20t-20.5 49q0 34 27.5 61t61.5 27q30 0 50 -20t20 -50q0 -34 -27 -60.5t-62 -26.5zM568 544q-30 0 -50 20t-20 49q0 34 27 61t62 27q30 0 49.5 -20t19.5 -50q0 -34 -26.5 -60.5t-61.5 -26.5zM430 0l-25 299l-156 -299h-166l-36 483h154l11 -296
l162 296h137l29 -296l143 296h163l-250 -483h-166z" />
    <glyph glyph-name="uni1E9E" unicode="&#x1e9e;" horiz-adv-x="726" 
d="M551 399q82 -22 121.5 -84t19.5 -149q-17 -76 -88 -127t-160 -51q-77 0 -133 23t-80 53l104 123q45 -47 112 -47q33 0 58.5 15.5t31.5 40.5q9 42 -23.5 64.5t-102.5 22.5h-59l26 116l116 113q-32 17 -73 17q-124 0 -154 -138l-87 -391h-175l88 397q30 135 108 208.5
t228 73.5q92 0 167.5 -32.5t108.5 -100.5z" />
    <glyph glyph-name="uni1EA0" unicode="&#x1ea0;" horiz-adv-x="697" 
d="M476 0l-13 101h-276l-57 -101h-195l398 667h216l105 -667h-178zM417 522l-153 -276h186zM257 -198q-29 0 -49 19.5t-20 49.5q0 34 27 61t62 27q29 0 49.5 -20.5t20.5 -49.5q0 -34 -27.5 -60.5t-62.5 -26.5z" />
    </font>
</defs>
</svg>
